<svg version="1.1" xmlns="http://www.w3.org/2000/svg" xmlns:xlink="http://www.w3.org/1999/xlink" width="143" height="322" viewBox="0,0,143,322"><g transform="translate(-313.5,-58.3)"><g data-paper-data="{&quot;isPaintingLayer&quot;:true}" fill-rule="nonzero" stroke="none" stroke-linecap="butt" stroke-linejoin="miter" stroke-miterlimit="10" stroke-dasharray="" stroke-dashoffset="0" style="mix-blend-mode: normal"><path d="M451.5,122.80001c0,35.62237 -27.53449,64.5 -61.5,64.5c-33.96551,0 -61.5,-28.87763 -61.5,-64.5c0,-35.62236 27.53449,-64.5 61.5,-64.5c33.96551,0 61.5,28.87764 61.5,64.5z" fill="#fbff00" stroke-width="0"/><path d="M373.5,222.30001v-63h32v63z" fill="#fbff00" stroke-width="0"/><path d="M352.5,348.30001v-127h71v127z" fill="#fbff00" stroke-width="0"/><path d="M352.5,380.30001v-36h71v36z" fill="#fbff00" stroke-width="0"/><path d="M422.5,336.30001v-114h34v114z" fill="#fbff00" stroke-width="0"/><path d="M313.5,332.3v-110h41v110z" fill="#fbff00" stroke-width="0"/><path d="M385.5,109.8c0,11.32184 -8.05887,20.5 -18,20.5c-9.94113,0 -18,-9.17816 -18,-20.5c0,-11.32184 8.05887,-20.5 18,-20.5c9.94113,0 18,9.17816 18,20.5z" fill="#ffffff" stroke-width="0"/><path d="M428.5,110.55641c0,10.90408 -7.83502,19.74359 -17.5,19.74359c-9.66498,0 -17.5,-8.83951 -17.5,-19.74359c0,-10.90408 7.83502,-19.74359 17.5,-19.74359c9.66498,0 17.5,8.83951 17.5,19.74359z" fill="#ffffff" stroke-width="0"/><path d="M373.5,110.3c0,4.41828 -3.13401,8 -7,8c-3.86599,0 -7,-3.58172 -7,-8c0,-4.41828 3.13401,-8 7,-8c3.86599,0 7,3.58172 7,8z" fill="#000000" stroke-width="0"/><path d="M414.83333,111.63334c0,4.41828 -3.13401,8 -7,8c-3.86599,0 -7,-3.58172 -7,-8c0,-4.41828 3.13401,-8 7,-8c3.86599,0 7,3.58172 7,8z" fill="#000000" stroke-width="0"/><path d="M409.8289,138.04583c2.90073,-3.74793 8.09903,-3.74793 8.09903,-3.74793l8.26031,1.49349c1.58357,5.58894 6.49207,11.22502 4.7507,16.76682c-1.2439,3.95863 -7.56533,3.45373 -11.50951,4.74269c-0.76223,0.2491 -1.58967,0.14531 -2.40197,0.05715c-0.33889,0.50726 -0.7775,0.99849 -1.03747,1.51843c-5.53777,3.33141 -10.13003,8.74821 -16.78555,10.16893c-2.2191,0.4737 -4.53378,0.20563 -6.80203,0.26751c-3.46367,0.0945 -7.98993,0.43907 -11.30654,-0.26751c-1.09459,-0.23319 -1.9411,-1.14815 -3.003,-1.5015c-2.86212,-0.95237 -6.22606,0.03599 -8.96579,-1.22598c-1.0165,-0.46822 -0.57031,-2.38221 -1.5015,-3.003c-0.83288,-0.55526 -2.18391,0.5754 -3.003,0c-1.51106,-1.06149 -2.06899,-3.07576 -3.31526,-4.43844c-0.12351,-0.13505 -0.24038,0.45355 -0.40407,0.3717c-1.94982,-0.97491 -3.97769,-1.92071 -5.60193,-3.37471c-0.67164,-0.60124 -0.34375,-1.88341 -0.98245,-2.51953c-0.28226,-0.28112 -0.74318,0.28719 -1.11476,0.43079c0,0 -9.48683,-3.16228 -6.32456,-12.64911c3.16228,-9.48683 12.64911,-6.32456 12.64911,-6.32456c2.63141,1.1446 5.54116,1.7914 7.89424,3.43379c1.10146,0.76879 1.19547,2.42654 2.02055,3.48647c0.11242,0.14441 0.24038,-0.45355 0.40407,-0.3717c1.94982,0.97491 4.00904,1.88643 5.60193,3.37471c0.3893,0.36374 -0.77262,1.29937 -0.31226,1.56756c0.38453,0.22402 4.14804,-0.63216 4.83627,0.94117c2.18524,0.01772 3.3697,1.55614 5.71746,2.33735c1.17598,0.3913 2.46911,-0.26751 3.70848,-0.26751c1.73895,0 3.48949,0.52018 5.20998,0.26751c2.85812,-0.41974 4.30743,-4.08797 7.23847,-4.84609c0.5005,-1.001 0.61577,-2.31891 1.5015,-3.003c1.96303,-1.51616 4.16649,-2.76542 6.47955,-3.68551z" fill="#000000" stroke-width="0.5"/></g></g></svg>