<svg version="1.1" xmlns="http://www.w3.org/2000/svg" xmlns:xlink="http://www.w3.org/1999/xlink" width="143" height="322" viewBox="0,0,143,322"><g transform="translate(-313.5,-58.30002)"><g data-paper-data="{&quot;isPaintingLayer&quot;:true}" fill-rule="nonzero" stroke="none" stroke-linecap="butt" stroke-linejoin="miter" stroke-miterlimit="10" stroke-dasharray="" stroke-dashoffset="0" style="mix-blend-mode: normal"><path d="M451.5,122.80003c0,35.62237 -27.53449,64.5 -61.5,64.5c-33.96551,0 -61.5,-28.87763 -61.5,-64.5c0,-35.62236 27.53449,-64.5 61.5,-64.5c33.96551,0 61.5,28.87764 61.5,64.5z" fill="#fbff00" stroke-width="0"/><path d="M373.5,222.30003v-63h32v63z" fill="#fbff00" stroke-width="0"/><path d="M352.5,348.30003v-127h71v127z" fill="#fbff00" stroke-width="0"/><path d="M352.5,380.30003v-36h71v36z" fill="#fbff00" stroke-width="0"/><path d="M422.5,336.30003v-114h34v114z" fill="#fbff00" stroke-width="0"/><path d="M313.5,332.30001v-110h41v110z" fill="#fbff00" stroke-width="0"/><path d="M385.5,109.80003c0,11.32183 -8.05887,20.5 -18,20.5c-9.94112,0 -18,-9.17817 -18,-20.5c0,-11.32183 8.05888,-20.5 18,-20.5c9.94113,0 18,9.17817 18,20.5z" fill="#ffffff" stroke-width="0"/><path d="M428.5,110.55644c0,10.90408 -7.83501,19.74359 -17.5,19.74359c-9.66499,0 -17.5,-8.83951 -17.5,-19.74359c0,-10.90408 7.83501,-19.74359 17.5,-19.74359c9.66499,0 17.5,8.83951 17.5,19.74359z" fill="#ffffff" stroke-width="0"/><path d="M373.5,110.30003c0,4.41828 -3.13401,8 -7,8c-3.86599,0 -7,-3.58172 -7,-8c0,-4.41828 3.13401,-8 7,-8c3.86599,0 7,3.58172 7,8z" fill="#000000" stroke-width="0"/><path d="M414.83334,111.63336c0,4.41828 -3.13401,8 -7,8c-3.86599,0 -7,-3.58172 -7,-8c0,-4.41828 3.13401,-8 7,-8c3.86599,0 7,3.58172 7,8z" fill="#000000" stroke-width="0"/><path d="M347.35736,273.42705v-111.11111h81.08108v111.11111z" fill="#fbff00" stroke-width="0"/><path d="M420.19681,160.67575c0.02951,0.31746 0.03191,0.63151 -0.0439,0.93472c-0.27143,1.08574 -1.14815,1.9411 -1.5015,3.003c-0.3913,1.17598 0.26751,2.46911 0.26751,3.70848c0,0.77275 0.00891,6.47149 -0.03407,6.83081c-0.3616,3.02287 -1.15175,5.98474 -1.5015,9.00901c-0.98155,8.48733 0.03407,17.64508 0.03407,26.20222c0,3.8409 -0.98182,9.74383 -0.12913,13.41319c0.35825,1.54164 1.24541,2.94264 1.5015,4.5045c0.20557,1.2537 -0.38767,2.56306 -0.13838,3.8088c0.2196,1.0974 1.30279,1.90163 1.5015,3.003c0.70813,3.92491 0.26751,8.73508 0.26751,12.80804c0,7.50479 0.10637,15.01865 0,22.52252c-0.04372,3.0844 -1.01896,6.08587 -1.63063,9.10933c-0.64493,3.18787 -0.17935,6.6326 -1.36437,9.66149c-0.40776,1.04223 -2.002,1.001 -3.003,1.5015c-0.47848,1.60559 -0.04552,3.88137 -1.43544,4.81676c-8.04476,5.41398 -19.35264,3.10362 -26.15415,-3.003c-0.83276,-0.74768 -0.71014,-2.21164 -1.5015,-3.003c-0.79136,-0.79136 -2.31891,-0.61577 -3.003,-1.5015c-1.79725,-2.32698 -3.10369,-5.03374 -4.16292,-7.77654c-0.36062,-0.93379 0.21985,-2.02644 0,-3.003c-0.1307,-0.58059 -0.8615,-0.89685 -1.00781,-1.4737c-0.14658,-0.57793 0.56203,-1.31928 0.18275,-1.77932c-1.02704,-1.24576 -3.16331,-1.38908 -3.95497,-2.79621c-1.11091,-1.97456 -0.80099,-4.46404 -1.36437,-6.65849c-0.39357,-1.53301 -1.1911,-2.95252 -1.5015,-4.5045c-0.19631,-0.98156 0.19631,-2.02144 0,-3.003c-0.3104,-1.55199 -1.19094,-2.95255 -1.5015,-4.5045c-0.15118,-0.7555 0.32995,-1.56101 0.13838,-2.3073c-0.27826,-1.08401 -1.26831,-1.90841 -1.5015,-3.003c-0.59866,-2.81005 -0.41189,-6.73684 -0.13838,-9.70472c-1.7244,-5.17319 -1.63063,-9.73843 -1.63063,-15.11534c0,-1.73895 0.81655,-3.55998 0.26751,-5.20998c-0.35335,-1.06191 -1.28202,-1.90558 -1.5015,-3.003c-0.29447,-1.47234 0.19906,-3.01626 0,-4.5045c-0.29673,-2.21855 -2.58586,-3.80691 -3.003,-6.00601c-0.60294,-3.17855 0.59391,-6.55345 -0.13838,-9.70472c-0.35825,-1.54164 -1.19094,-2.95255 -1.5015,-4.5045c-0.15118,-0.7555 0.32995,-1.56101 0.13838,-2.3073c-0.27826,-1.08401 -1.31503,-1.89949 -1.5015,-3.003c-0.37228,-2.20315 0.161,-4.48748 -0.13838,-6.70171c-0.15302,-1.13173 -0.88421,-2.11143 -1.20155,-3.20849c-1.61137,-5.5707 -3.05415,-11.18879 -4.58122,-16.78318c0,0 -2.63117,-9.64764 7.01646,-12.27881c4.61071,-1.25747 7.61887,0.28953 9.50315,2.24763c1.76747,-0.3452 3.60465,-0.59673 5.14004,-1.09849c2.31595,-0.75685 6.55565,0 9.00901,0c5.00501,0 10.01001,0 15.01502,0c1.63587,0 3.37012,-0.12912 5.07251,-0.0876c0.53789,-5.01559 4.78407,-8.92141 9.94251,-8.92141c4.49839,0 8.30305,2.97024 9.55975,7.05648l1.42858,4.28574l-0.98833,0.32944v1.33133h-0.07047c2.27456,3.08482 1.88667,5.46572 -3.15615,10.37181zM383.16646,177.9279c-0.37124,0.242 -0.81061,0.89462 -0.5969,0.67477c0.20714,-0.21309 0.40377,-0.44132 0.5969,-0.67477z" fill="#000000" stroke-width="0.5"/></g></g></svg>