<svg version="1.1" xmlns="http://www.w3.org/2000/svg" xmlns:xlink="http://www.w3.org/1999/xlink" width="576.0218" height="501.68837" viewBox="0,0,576.0218,501.68837"><g transform="translate(58.48718,45.9399)"><g data-paper-data="{&quot;isPaintingLayer&quot;:true}" fill="#7b7b7b" fill-rule="nonzero" stroke="none" stroke-width="0.5" stroke-linecap="butt" stroke-linejoin="miter" stroke-miterlimit="10" stroke-dasharray="" stroke-dashoffset="0" style="mix-blend-mode: normal"><path d="M62.02451,-8.7c13.13645,-2.62729 29.68018,-5.20428 43.47549,-6c5.51147,-0.3179 11.47806,-0.01612 16.92236,-1c10.01915,-1.81063 19.7711,-2.97056 30.07764,-3c19.99992,-0.05713 40.00015,-0.0785 60,0c2.33799,0.00918 5.24271,1.22653 7.48471,1.00184c0.89665,-0.08986 1.47623,-1.08929 2.33495,-1.36252c2.41844,-0.7695 4.80507,-1.66139 7.27409,-2.2487c3.74068,-0.8898 7.18794,-0.13769 10.82861,-0.39062c4.27065,-0.29671 9.06969,-1.05645 13.25437,-1.70763c31.26162,-4.86462 62.2173,-8.72207 93.74713,-11.20601c19.33612,-1.52331 38.73723,2.0715 58.11411,2.9331c11.55197,0.51366 23.11842,0.62489 34.67602,0.99074c12.30437,0.38949 24.65519,2.5658 36.79511,4.29055c15.10706,2.14631 27.58946,5.67701 35.6159,19.69925c4.82487,8.42908 1.30048,20.62988 -5.03125,27.45313c-2.3346,2.51582 -5.51061,5.82715 -8.59375,7.42188c-1.04881,0.54249 -3.48546,-0.04234 -3.35686,1.13144c0.47689,4.3527 1.82787,8.50911 1.85686,12.99356c0.08304,12.84511 0.10922,24.17926 1,36.52451c0.23237,3.22044 1.85871,6.58067 2.71708,9.56979c1.40353,4.88755 2.21204,10.85987 2.28292,15.90569c0.28382,20.2066 -2.97513,40.58698 -0.22025,60.68154c1.03569,7.55449 2.29918,15.08013 3.74953,22.56609c5.90155,30.46075 10.97479,51.90357 10.47072,82.75237c-0.07308,4.4727 -1.05086,11.14688 -3.90625,14.45313c-1.9363,2.24204 -4.44776,3.95444 -6.31029,6.25813c-0.24532,0.30343 0.21372,2.91466 0.21654,3.28875c0.05758,7.64854 0.62746,23.32628 -1,32.125c-1.80994,9.78528 -9.52042,15.75899 -13.31077,24.39824c-2.72624,6.21387 -5.81346,15.73141 -10.72609,21.45218c-3.24553,3.77943 -8.7909,9.4829 -13.46314,11.89958c-16.98746,8.78662 -35.63784,-0.53133 -52.27886,-4.78231c-12.36723,-3.15923 -24.77107,-6.18065 -37.21614,-9.01774c-1.17214,-0.26721 -0.66761,2.31531 -1.13,3.42504c-0.57779,1.3867 -2.30502,2.72542 -3.18084,3.68308c-4.83178,5.28328 -9.4674,8.19614 -16.78791,9.42629c-7.11664,1.19589 -14.47439,-0.77658 -21.54205,0.32705c-31.16337,4.86623 -62.30607,9.86398 -93.46514,14.75765c-27.9742,4.39347 -56.38543,5.30305 -84.57293,8.00924c-4.79468,0.46032 -10.14389,0.02686 -14.72137,-1.75327c-5.57452,-2.16787 -11.1125,-4.42856 -16.66592,-6.64993c-5.68608,-2.27444 -10.18878,-6.42198 -15.42157,-9.27067c-7.92614,-4.31495 -9.60239,-2.05358 -16.04777,-8.49896c-2.57939,-2.57939 -7.27068,-6.94712 -9.56326,-10.07736c-0.43011,-0.58727 0.04071,-1.71166 -0.56977,-2.10814c-0.44657,-0.29003 -7.27939,-0.68931 -7.3261,-0.54296c-6.84478,21.44655 -11.1412,43.62461 -16.7958,65.41523c-0.45867,1.76752 -0.51862,3.69277 -1.38505,5.30019c-0.53977,1.0014 -1.75369,1.47435 -2.45769,2.36797c-2.45144,3.11174 -7.10694,9.04127 -11.6186,10.13999c-1.84837,0.45013 -3.81935,-0.1665 -5.70672,0.07211c-1.88737,0.23861 -3.64287,1.32636 -5.54511,1.3504c-4.64315,0.05867 -10.62786,-4.52566 -13.77659,-6.9294c-0.90424,-0.6903 -2.19767,-0.84625 -2.96968,-1.68181c-1.23921,-1.34121 -1.76897,-3.19512 -2.66054,-4.78873c-2.33186,-4.16801 -10.86073,-16.93771 -13.02943,-25.11947c-3.60692,-13.60767 -2.34861,-27.47583 -4.79066,-41.23127c-0.01087,-0.06122 -1.61073,0.16594 -2.19838,0.21641c-2.63582,0.22638 -5.28301,0.33956 -7.90917,0.6591c-5.40416,0.65754 -9.61314,3.6821 -14.53784,5.73405c-2.53755,1.05731 -3.34102,0.50406 -6.01768,0.44032c-1.77325,-0.04223 -3.56857,0.74016 -5.30708,0.38832c-4.91534,-0.99477 -11.17487,-6.22006 -14.2803,-9.71771c-1.0031,-1.1298 -2.63216,-1.70448 -3.38475,-3.01454c-0.88355,-1.53803 -0.70904,-3.48863 -1.30985,-5.15754c-4.04369,-11.23232 1.70784,-22.7943 10.69511,-30.20879c5.57409,-4.59863 16.39294,-6.36626 23.07252,-7.55138c2.76457,-0.4905 5.62931,-1.04312 8.41531,-1.36141c2.99055,-0.34166 8.09438,1.97664 8.9852,-0.89852c0.4521,-1.45915 -3.26621,-46.63151 -3.36827,-47.61037c-0.51473,-4.9369 -2.5879,-16.25474 -3.08355,-24.1028c-0.84492,-13.37805 -1.09896,-30.80657 -2.04579,-45.25319c-0.28025,-4.27604 -2.68891,-9.34317 -3.51452,-13.35629c-0.37286,-1.8124 -1.97913,-14.70189 -2.97214,-17.89816c-4.38443,-14.11249 -9.50361,-27.98623 -14.19686,-41.99904c-6.97638,-20.82965 -5.3065,-43.61232 -8.06736,-65.40502c-1.61712,-12.76465 -6.22425,-20.75422 -7.99786,-32.06514c-3.05458,-19.48013 -6.71222,-40.46918 -2.54629,-60.07012c5.135,-24.1605 34.26796,-32.25988 50.38878,-12.91854c2.56485,3.07724 5.82922,8.0291 7.55095,12.05612c0.51443,1.20322 1.02446,2.41191 1.4294,3.65625c0.56494,1.73601 -0.33627,5.05967 1.47672,5.27401c2.72201,0.3218 3.5312,-4.42811 5.99605,-5.62701c13.16019,-6.40108 31.91916,-5.26299 37.12358,11.09375z"/></g></g></svg>