<svg version="1.1" xmlns="http://www.w3.org/2000/svg" xmlns:xlink="http://www.w3.org/1999/xlink" width="472.68571" height="352" viewBox="0,0,472.68571,352"><defs><radialGradient cx="247.5758" cy="194.65701" r="6.22057" gradientUnits="userSpaceOnUse" id="color-1"><stop offset="0" stop-color="#834f30"/><stop offset="1" stop-color="#432711"/></radialGradient><radialGradient cx="229.9545" cy="192.14243" r="6.55141" gradientUnits="userSpaceOnUse" id="color-2"><stop offset="0" stop-color="#834c2d"/><stop offset="1" stop-color="#4a2513"/></radialGradient><radialGradient cx="237.96219" cy="190.80946" r="7.69952" gradientUnits="userSpaceOnUse" id="color-3"><stop offset="0" stop-color="#fbba76"/><stop offset="1" stop-color="#ea8755"/></radialGradient><linearGradient x1="237.96303" y1="192.70079" x2="247.82083" y2="192.70079" gradientUnits="userSpaceOnUse" id="color-4"><stop offset="0" stop-color="#b66f48" stop-opacity="0"/><stop offset="1" stop-color="#b66f48"/></linearGradient><linearGradient x1="244.18621" y1="190.14591" x2="248.00607" y2="188.35686" gradientUnits="userSpaceOnUse" id="color-5"><stop offset="0" stop-color="#743d1d" stop-opacity="0"/><stop offset="1" stop-color="#743d1d"/></linearGradient><linearGradient x1="244.63852" y1="189.73888" x2="248.43269" y2="191.58169" gradientUnits="userSpaceOnUse" id="color-6"><stop offset="0" stop-color="#743d1d" stop-opacity="0"/><stop offset="1" stop-color="#743d1d"/></linearGradient><linearGradient x1="240.54514" y1="192.30129" x2="240.42465" y2="194.96448" gradientUnits="userSpaceOnUse" id="color-7"><stop offset="0" stop-color="#ad653e" stop-opacity="0"/><stop offset="1" stop-color="#ad653e"/></linearGradient><linearGradient x1="245.75895" y1="180.43631" x2="245.75895" y2="187.39142" gradientUnits="userSpaceOnUse" id="color-8"><stop offset="0" stop-color="#612411" stop-opacity="0"/><stop offset="1" stop-color="#612411"/></linearGradient><linearGradient x1="243.33137" y1="175.50787" x2="252.00475" y2="170.15974" gradientUnits="userSpaceOnUse" id="color-9"><stop offset="0" stop-color="#893b1a" stop-opacity="0"/><stop offset="1" stop-color="#893b1a"/></linearGradient><radialGradient cx="253.21714" cy="185.62575" r="13.30809" gradientUnits="userSpaceOnUse" id="color-10"><stop offset="0" stop-color="#551e0a"/><stop offset="1" stop-color="#551e0a" stop-opacity="0"/></radialGradient><radialGradient cx="242.25723" cy="164.33791" r="7.16376" gradientUnits="userSpaceOnUse" id="color-11"><stop offset="0" stop-color="#292521"/><stop offset="1" stop-color="#2b1707"/></radialGradient><linearGradient x1="229.47164" y1="172.37466" x2="228.62058" y2="176.74973" gradientUnits="userSpaceOnUse" id="color-12"><stop offset="0" stop-color="#7d5d50"/><stop offset="1" stop-color="#0f0401"/></linearGradient><linearGradient x1="233.02612" y1="172.10806" x2="232.17505" y2="176.48314" gradientUnits="userSpaceOnUse" id="color-13"><stop offset="0" stop-color="#7d5d50"/><stop offset="1" stop-color="#0f0401"/></linearGradient><linearGradient x1="237.52619" y1="181.68507" x2="237.52619" y2="182.97814" gradientUnits="userSpaceOnUse" id="color-14"><stop offset="0" stop-color="#d8d6d7" stop-opacity="0"/><stop offset="1" stop-color="#d8d6d7"/></linearGradient><linearGradient x1="224.8817" y1="181.82966" x2="224.8817" y2="183.25331" gradientUnits="userSpaceOnUse" id="color-15"><stop offset="0" stop-color="#d9d7d8" stop-opacity="0"/><stop offset="1" stop-color="#d9d7d8"/></linearGradient></defs><g transform="translate(-3.65721,-4)"><g data-paper-data="{&quot;isPaintingLayer&quot;:true}" fill-rule="nonzero" stroke-linecap="butt" stroke-linejoin="miter" stroke-miterlimit="10" stroke-dasharray="" stroke-dashoffset="0" style="mix-blend-mode: normal"><path d="M3.65721,356v-352h472.68571v352z" fill="none" stroke="none" stroke-width="0"/><g><path d="M254.48101,192.89283c0,3.43547 -2.40494,6.2467 -5.37133,6.22047c-4.46731,-0.03949 -5.37132,-2.785 -5.37132,-6.22047c0,-3.43547 1.25946,-6.22047 4.22597,-6.22047c2.9665,0 6.51669,2.785 6.51669,6.22047z" data-paper-data="{&quot;index&quot;:null}" fill="url(#color-1)" stroke="none" stroke-width="0"/><path d="M228.05874,198.34315c0,0 -1.46132,-1.43763 -1.46132,-2.94238c0,-1.22799 1.57465,-3.39261 2.50804,-3.47154c0.98953,-0.20528 2.98462,-0.57056 4.52213,-0.53946c2.53617,0.0513 4.50527,0.93257 5.1104,1.95218c2.17412,3.66326 -0.01558,5.02094 -0.01558,5.02094z" data-paper-data="{&quot;index&quot;:null}" fill="url(#color-2)" stroke="none" stroke-width="0"/><g data-paper-data="{&quot;index&quot;:null}" stroke="none" stroke-width="0"><g><path d="M232.99149,191.47375l1.30334,-3.55455c0,0 4.32471,-1.46132 6.51668,-1.56006c2.19197,-0.09874 6.63517,0.96763 6.63517,0.96763l0.94385,2.06213l-2.91979,5.77688l-8.09529,-0.31521z" fill="url(#color-3)"/><path d="M238.19999,194.87921c0,0 -4.49062,-4.71242 -3.905,-5.99207c0.35589,-0.77765 7.08717,-2.85707 7.08717,-2.85707l6.11006,1.30488l0.93812,2.13796l-2.95536,5.71098z" fill="url(#color-4)"/><path d="M245.493,195.11774l-3.46811,-8.77675l5.49302,0.96482l0.91171,2.18825z" fill="url(#color-5)"/><path d="M240.04064,194.93973l4.09377,-8.30132l3.41035,0.686l0.88014,2.1542l-2.94223,5.6998z" fill="url(#color-6)"/></g><path d="M237.37682,194.8535l-4.35231,-3.40372l14.41921,-0.07428l-2.01627,3.81842z" fill="url(#color-7)"/></g><g><g stroke="none" stroke-width="0"><path d="M239.84019,187.94016c0,0 -10.24677,0.61095 -11.50431,0.21447c-1.12993,-0.35625 -3.60864,-0.60252 -4.27594,-1.77917c-1.34676,-2.37473 -0.84749,-6.14108 0.28927,-8.6232c0.25499,-0.55678 0.72136,-1.77451 0.94792,-2.34346c0.67967,-1.70684 1.60141,-6.06496 4.36575,-9.65812c2.34337,-3.04597 6.19622,-3.94044 6.19622,-3.94044c0,0 3.80515,-1.29327 6.08127,-0.78555c2.53531,0.56554 4.17626,2.08911 5.94969,4.02744c1.92565,2.10469 2.64138,4.03979 4.16127,6.45388c1.68885,2.68247 3.00194,4.14794 3.96605,6.52879c0.96411,2.38085 0.61612,4.7868 0.61612,4.7868c0,0 -0.36189,0.77967 -0.63403,1.05667c-0.81641,0.831 -2.41667,2.36751 -4.53192,2.82964c-3.47084,0.75831 -11.62734,1.23224 -11.62734,1.23224z" data-paper-data="{&quot;origPos&quot;:null}" fill="#cc5323"/><path d="M247.14385,187.39142c0,0 -4.04762,0.34756 -6.08561,0.47483c-2.05706,0.12846 -6.20006,0.33979 -6.20006,0.33979c0,0 -3.56745,0.15486 -6.14228,0.15684c-1.70115,-0.17434 -3.18492,-0.9179 -3.97383,-1.33449c-0.77432,-0.40888 -1.208,-1.57981 -1.38821,-2.68042c-0.19256,-1.17604 -0.10412,-2.27179 -0.10412,-2.27179c0,0 0.16841,-3.91681 1.84981,-5.07449c4.80967,-3.31158 15.19122,-6.59867 16.3473,-6.86677c3.42295,-0.7938 15.18718,10.30139 15.18718,10.30139c0,0 0.25767,1.28513 -0.03652,2.478c-0.11007,0.32369 -0.31846,0.67876 -0.6486,1.04269c-0.42006,0.46304 -1.01277,0.94043 -1.58472,1.38574c-0.57046,0.44415 -1.27453,0.9575 -2.84869,1.33249c-2.04879,0.48805 -4.37164,0.71618 -4.37164,0.71618z" fill="url(#color-8)"/><path d="M247.14385,187.39142l-9.67899,-21.39739l-2.86997,-3.7987c0,0 1.66028,-0.59658 3.31031,-0.95203c1.36375,-0.29378 2.68831,-0.35849 3.34836,-0.35675c1.58514,0.18812 2.92981,0.94658 2.92981,0.94658c0,0 0.77843,0.37591 2.10276,1.51724c0.56534,0.48722 1.44543,1.31635 1.99446,2.01424c1.36885,1.74001 2.72977,4.31525 3.87065,6.23242c1.1556,1.9419 2.27624,3.31573 3.09784,4.69216c1.16311,1.94858 1.38495,4.14713 1.38495,4.14713c0,0 0.25768,1.28513 -0.03652,2.478c-0.11007,0.32369 -0.31846,0.67876 -0.64861,1.04269c-0.42006,0.46304 -1.01278,0.94043 -1.58473,1.38574c-0.57046,0.44415 -1.27452,0.9575 -2.84868,1.33249c-2.04879,0.48805 -4.37165,0.71618 -4.37165,0.71618z" fill="url(#color-9)"/><path d="M233.51889,163.40978c0,0 4.66882,-2.35206 6.52729,-2.38717c2.23528,-0.04223 5.96384,2.15117 5.96384,2.15117c0,0 1.87177,1.60796 2.79348,2.85508c1.01705,1.37613 3.05097,5.05282 3.05097,5.05282c0,0 0.59685,1.06953 1.46978,2.28854c0.54098,0.75546 0.99518,1.41766 1.54174,2.26031c0.21636,0.33356 0.53782,0.80462 0.71648,1.1858c0.3088,0.65882 0.71976,1.80732 0.97378,3.14198c0.19828,1.04179 0.32407,2.00632 0.0793,2.87351c-0.22147,0.78465 -0.71574,1.23451 -1.28386,1.73379c-0.69313,0.60915 -1.43694,1.14581 -1.98864,1.42532c-1.32634,0.67194 -2.81191,0.90852 -2.81191,0.90852c0,0 -2.05096,0.30165 -3.11597,0.424c-1.07838,0.12388 -3.31468,0.31473 -3.31468,0.31473l-11.73807,-0.14097z" fill="url(#color-10)"/></g><g><path d="M237.70149,175.41933c-1.15221,3.52987 -3.71808,3.58846 -5.07915,3.17234c-1.36107,-0.41612 -1.86097,-2.51197 -1.15308,-4.82736c0.70789,-2.31539 2.81465,-4.8103 4.19052,-4.44606c2.13123,0.56423 2.79302,3.79941 2.04172,6.10108z" data-paper-data="{&quot;origRot&quot;:0,&quot;origPos&quot;:null}" fill="#feffff" stroke="none" stroke-width="0"/><path d="M231.8648,171.89942c0.02289,-0.08302 0.06075,-0.2445 0.06075,-0.2445c0,0 4.57905,-5.37763 4.75625,-5.58577c0.05907,-0.06938 0.82795,-0.85254 0.97452,-0.94737c1.12428,-0.94277 1.68845,-1.36821 2.93766,-1.8869c0.17639,-0.11414 1.22879,-0.3757 1.49215,-0.37104c0.58278,0.04078 0.78533,0.124 1.39126,0.21311c0.20198,0.0297 0.81371,0.47524 1.00328,0.7307c0.55966,0.75421 1.14926,1.54876 1.43406,1.93255c0.09493,0.12793 0.24326,0.32781 0.24326,0.32781c0,0 -0.17143,-0.03369 -0.28116,-0.0552c-0.32919,-0.06455 -1.52567,-0.30326 -2.50485,-0.48324c-0.25006,-0.04596 -1.22928,-0.0808 -1.37004,-0.05714c-0.42227,0.071 -1.18805,0.11282 -2.24023,0.32934c-0.19965,0.03357 -0.98499,0.39916 -1.10262,0.48163c-0.35291,0.2474 -1.41767,0.99383 -1.41767,0.99383c0,0 -5.05145,4.41836 -5.28528,4.62246c-0.07794,0.06803 -0.09893,0.02741 -0.0913,-0.00027z" data-paper-data="{&quot;origPos&quot;:null}" fill="url(#color-11)" stroke="none" stroke-width="0"/><path d="M229.5285,175.57144c-0.64657,2.10319 -1.97993,3.50926 -2.94162,3.21362c-0.96168,-0.29564 -1.21714,-2.24028 -0.57057,-4.34348c0.55438,-2.2623 2.26596,-5.16269 3.15327,-5.01227c1.05906,0.17954 1.00549,4.03894 0.35892,6.14213z" data-paper-data="{&quot;origRot&quot;:0,&quot;origPos&quot;:null}" fill="#feffff" stroke="none" stroke-width="0"/><path d="M227.71102,165.4935c0.05992,-0.12674 0.6537,-1.38282 1.0721,-2.26789c0.04253,-0.08997 0.15448,-0.02578 0.1836,0.10527c0.08737,0.39316 0.58889,2.65002 0.58889,2.65002l0.5099,5.1192c0,0 -0.05431,0.80171 -0.07617,0.72879c-0.06556,-0.21877 -1.10448,-3.3161 -1.71028,-5.33746c-0.04256,-0.14203 -0.1797,-0.43673 -0.2249,-0.48332c0,0 -0.1739,-0.17921 -0.2852,-0.29393c-0.04259,-0.04388 -0.07791,-0.17845 -0.05794,-0.2207z" data-paper-data="{&quot;origPos&quot;:null}" fill="#292521" stroke="none" stroke-width="0"/><path d="M229.73684,174.86231c-0.28258,1.19791 -0.91459,2.03239 -1.32359,1.91705c-0.63481,-0.17901 -0.44095,-1.22027 -0.1467,-2.42842c0.29125,-1.19583 0.80727,-2.12568 1.20511,-1.97628c0.39784,0.14939 0.76679,0.36125 0.26518,2.48765z" data-paper-data="{&quot;origPos&quot;:null,&quot;origRot&quot;:0}" fill="url(#color-12)" stroke="none" stroke-width="0"/><path d="M229.48879,173.52993c-0.02904,0.30125 -0.21098,0.5302 -0.40639,0.51137c-0.1954,-0.01883 -0.33028,-0.27832 -0.30124,-0.57957c0.02904,-0.30125 0.21098,-0.53019 0.40639,-0.51136c0.1954,0.01883 0.33028,0.27831 0.30124,0.57957z" data-paper-data="{&quot;origRot&quot;:0,&quot;origPos&quot;:null}" fill="#d3beb8" stroke="none" stroke-width="0"/><path d="M233.97254,174.71421c-0.28258,1.19791 -0.97383,2.00276 -1.85677,1.82818c-0.63481,-0.17901 -0.58907,-1.24989 -0.29481,-2.45804c0.29125,-1.19583 0.99118,-2.03207 1.4717,-1.97629c0.45799,0.05317 1.18149,0.47974 0.67988,2.60614z" data-paper-data="{&quot;origPos&quot;:null,&quot;origRot&quot;:0}" fill="url(#color-13)" stroke="none" stroke-width="0"/><path d="M233.66332,173.39272c-0.04368,0.30026 -0.27639,0.52353 -0.5198,0.49868c-0.2434,-0.02485 -0.40532,-0.28841 -0.36165,-0.58867c0.04368,-0.30026 0.2764,-0.52353 0.51981,-0.49868c0.2434,0.02485 0.40532,0.28841 0.36164,0.58867z" data-paper-data="{&quot;origRot&quot;:0,&quot;origPos&quot;:null}" fill="#d3beb8" stroke="none" stroke-width="0"/><path d="M225.22167,182.42665l0.02633,-0.80307c0,0 4.54421,-0.57262 5.1608,-0.56836c1.84974,0.01275 6.29277,0.64736 6.29277,0.64736v0.67141c0,0 -3.7304,-0.63192 -6.1349,-0.63192c-2.28119,0 -5.345,0.68458 -5.345,0.68458z" fill="#872806" stroke="#872806" stroke-width="0.5"/><path d="M223.77338,183.23235l-0.49309,-3.45851l0.11394,-0.42781l2.74886,2.98583c0,0 -0.3608,0.56633 -1.10171,0.82245c-0.42086,0.15993 -1.268,0.07804 -1.268,0.07804z" data-paper-data="{&quot;origPos&quot;:null}" fill="#fffdfe" stroke="none" stroke-width="NaN"/><path d="M236.33296,182.75841l-0.18957,-3.55455l0.43298,0.18367l2.17369,2.65997c0,0 -0.01763,0.80984 -0.71091,0.90049c-0.97356,0.1273 -1.70619,-0.18957 -1.70619,-0.18957z" data-paper-data="{&quot;origPos&quot;:null}" fill="#fffdfe" stroke="none" stroke-width="0"/><path d="M236.33296,182.75841l-0.03075,-0.89977l2.15169,-0.17357l0.29616,0.36242c0,0 -0.01763,0.80984 -0.71091,0.90049c-0.97356,0.1273 -1.70619,-0.18957 -1.70619,-0.18957z" data-paper-data="{&quot;origPos&quot;:null}" fill="url(#color-14)" stroke="none" stroke-width="0"/><path d="M223.75184,183.23235l-0.12207,-1.09584l2.02943,-0.30684l0.46234,0.5022c0,0 -0.3608,0.56633 -1.10171,0.82245c-0.42086,0.15993 -1.268,0.07804 -1.268,0.07804z" data-paper-data="{&quot;origPos&quot;:null}" fill="url(#color-15)" stroke="none" stroke-width="NaN"/></g></g></g></g></g></svg>