<svg version="1.1" xmlns="http://www.w3.org/2000/svg" xmlns:xlink="http://www.w3.org/1999/xlink" width="106.94725" height="116.75125" viewBox="0,0,106.94725,116.75125"><g transform="translate(-197.25474,-80.29515)"><g data-paper-data="{&quot;isPaintingLayer&quot;:true}" fill-rule="nonzero" stroke="none" stroke-width="0.5" stroke-linecap="butt" stroke-linejoin="miter" stroke-miterlimit="10" stroke-dasharray="" stroke-dashoffset="0" style="mix-blend-mode: normal"><path d="M233.64637,115.57385c-3.44106,-0.57352 -2.86756,-4.01457 -2.86756,-4.01457c0.99101,-5.78979 2.70573,-11.40152 4.25565,-17.06684c0.49077,-1.7939 1.18448,-7.81878 2.38621,-8.63144c1.5167,-1.02565 13.28982,-2.38207 15.77075,-2.70369c4.61279,-0.59795 9.2146,-1.28759 13.83836,-1.79386c2.7867,-0.30512 5.71045,-1.65167 8.37404,-0.77755c6.92383,2.27219 7.73951,7.48235 9.88324,13.13279c2.72836,7.19137 2.20082,14.28696 1.30007,21.8493c-2.37291,0.94756 -4.5638,2.81414 -7.11876,2.84267c-8.19831,0.09151 -6.5753,-6.41701 -8.12538,-11.56316c-0.72243,-2.39841 -2.06671,-4.57918 -2.79083,-6.97706c-0.51129,-1.69316 0.61417,-4.32229 -0.90484,-5.22828c-3.29455,-1.96501 -7.71199,2.91355 -9.85194,4.33837c-1.0604,0.70604 -2.27621,1.17403 -3.28821,1.94784c-1.43414,1.0966 -3.23454,2.19666 -3.72131,3.93515c-0.82542,2.94788 -0.3122,6.90993 -2.74916,8.76264c-1.45342,1.10496 -3.62954,0.39986 -5.4443,0.59979h-3.48853v0c-0.65438,0 -1.26667,-0.18017 -1.78998,-0.49362c-0.46301,0.96257 -1.49237,2.20408 -3.66747,1.84157z" fill="#9966ff"/><path d="M266.51495,123.69551l-2.06023,3.4337c-0.60258,1.04506 -1.73128,1.74852 -3.02429,1.74852c-1.7148,0 -3.14062,-1.23724 -3.43346,-2.86774l-0.68504,-3.42517c0,0 -0.13001,-0.65003 0.00668,-1.44004c-1.17382,-0.25451 -2.27358,-0.63042 -3.24722,-1.12628c-0.32677,-0.16641 -5.49115,-6.67758 -5.83065,-7.10189c0,0 -2.17927,-2.72409 0.54481,-4.90336c0.53896,-0.43118 1.0566,-0.67041 1.54027,-0.77676c-0.78256,-0.96793 -1.64523,-1.90227 -1.44534,-3.02581c0.98004,-5.50872 4.43229,-4.61231 7.42271,-7.22723c2.70136,-2.36214 1.87825,-5.69472 7.22036,-5.78191c4.15612,-0.06783 9.9836,7.53687 11.03673,10.92981c0.60724,1.95637 0.71533,10.95475 -0.13897,12.73181c-1.38687,2.88489 -4.24598,4.82065 -7.53739,5.8358c0.52454,1.50735 -0.36896,2.99651 -0.36896,2.99651zM263.52356,98.17865c-0.26043,-0.05297 -0.21232,0.35361 -0.23571,0.70555c0.07789,-0.00519 0.15649,-0.00784 0.23571,-0.00784c0.1139,0 0.2265,0.00546 0.3376,0.01613c-0.04431,-0.32671 -0.06538,-0.65846 -0.3376,-0.71384zM260.10152,114.48621c0.28179,0.01769 0.57544,0.02861 0.87671,0.03219c-0.15217,-0.16229 -0.28899,-0.33914 -0.40816,-0.52823c-0.19243,0.20652 -0.35183,0.37548 -0.46854,0.49604z" fill="#ffeab8"/><path d="M271.13059,111.44863c0.68415,3.42079 -2.73663,4.10495 -2.73663,4.10495l-3.48853,0.6977c-2.95892,0.49462 -6.13883,0.14942 -8.95684,-0.87947c0,0 -3.23902,-1.29561 -1.94342,-4.53463c1.29561,-3.23902 4.53463,-1.94342 4.53463,-1.94342c1.52022,0.70235 3.3763,0.93634 4.99729,0.51594l3.48853,-0.6977c0,0 3.42079,-0.68415 4.10495,2.73663z" fill="#000000"/><path d="M255.15108,100.96947c0,-1.92666 1.56187,-3.48853 3.48853,-3.48853c1.92666,0 3.48853,1.56187 3.48853,3.48853c0,1.92666 -1.56187,3.48853 -3.48853,3.48853c-1.92666,0 -3.48853,-1.56187 -3.48853,-3.48853z" fill="#000000"/><path d="M264.91898,100.27176c0,-1.92666 1.56187,-3.48853 3.48853,-3.48853c1.92666,0 3.48853,1.56187 3.48853,3.48853c0,1.92666 -1.56187,3.48853 -3.48853,3.48853c-1.92666,0 -3.48853,-1.56187 -3.48853,-3.48853z" fill="#000000"/><path d="M281.55145,131.26896l0.50636,0.37108c0.12191,0.55361 0.30282,1.10136 0.51092,1.64586c0.32599,0.66064 0.61818,1.34318 0.86941,2.04068c3.21347,1.00258 2.2778,4.2774 2.2778,4.2774l-0.86347,2.77792l0.21812,1.09056c0.05361,0.24305 0.08187,0.49562 0.08187,0.75479c0,0.58048 -0.14177,1.12786 -0.3926,1.60937c0.01072,0.18559 0.0179,0.37157 0.02189,0.55789l0.30296,-0.06059l0.68358,3.4179c0.05361,0.24305 0.08187,0.49562 0.08187,0.75479c0,1.92666 -1.56187,3.48853 -3.48853,3.48853c-0.96334,0 -1.83547,-0.39047 -2.46677,-1.02176l-0.08074,-0.08074c0.17574,1.1812 0.32669,2.36402 0.43741,3.54958c0.12975,1.38937 -0.01805,2.79094 0,4.18624c0.02488,1.92278 1.31239,4.25187 0.12878,5.76737c-3.66265,4.68976 -13.25798,0.924 -17.84222,0.14614c-1.28684,-0.01703 -2.60873,0.24773 -3.86051,-0.05106c-1.73763,-0.41475 -3.54956,-0.94408 -4.95085,-2.05209c-7.5584,-5.97646 -1.34187,-14.7256 -0.65182,-21.95075c0.13887,-1.45402 -0.06289,-3.00305 -0.29175,-4.5402c-0.67523,0 -1.36957,0 -2.0481,0c-0.77709,2.09312 -3.25876,2.09312 -3.25876,2.09312l-1.38186,-0.06775c-0.15841,-0.03255 -0.31842,-0.05915 -0.47978,-0.0807c-1.58941,2.18978 -3.38277,4.04933 -5.87735,4.27669c-8.38711,0.76445 -13.13927,-6.0096 -9.1275,-13.02571c3.61401,-6.32048 13.00751,-9.142 19.65732,-9.2429c0,0 1.87308,0 2.87423,1.3725c1.45562,-0.21821 2.70743,0.72062 2.70743,0.72062c3.24772,2.54047 5.69899,2.79987 9.76789,2.79083c2.03115,-0.0045 5.65436,-0.19249 7.95592,0.74356c0.46689,-0.04821 0.9449,-0.14691 1.42484,-0.25438c0.52167,-0.3107 1.13128,-0.48918 1.78255,-0.48918c0.23631,0 0.46714,0.0235 0.69027,0.06828c0.58555,-0.01512 1.14827,0.07361 1.66904,0.35286c1.12516,0.60332 1.59755,1.87756 2.06676,3.15461l0.45788,0.61049l-0.17825,0.13368c0.02167,0.05507 0.04358,0.1099 0.06578,0.16444z" fill="#9966ff"/><path d="M284.45476,159.57684c-1.0017,0 -1.71577,-0.28762 -2.2248,-0.6977c-0.68558,0 -1.26373,0 -1.26373,0c-1.92666,0 -3.48853,-1.56187 -3.48853,-3.48853c0,-1.92666 1.56187,-3.48853 3.48853,-3.48853h3.48853c0,0 3.48853,0 3.48853,3.48853c0,0.23 -0.01517,0.44484 -0.0435,0.64552l0.0435,0.05219c0,0 0,3.48853 -3.48853,3.48853z" fill="#ffeab8"/><path d="M233.24305,141.06481l1.42502,1.16916c0.27945,2.33835 2.42538,5.27514 0.83835,7.01505c-3.91244,4.28935 -13.15717,-2.47813 -13.84393,-5.62265c-0.17449,-0.79899 5.44546,-6.28539 6.60208,-7.4475c0,0 2.46677,-2.46677 4.93353,0c2.26621,2.26621 0.3685,4.53241 0.04495,4.88594z" fill="#ffeab8"/><path d="M232.82446,147.71583c0,-1.92666 1.56187,-3.48853 3.48853,-3.48853c1.92666,0 3.48853,1.56187 3.48853,3.48853c0,1.92666 -1.56187,3.48853 -3.48853,3.48853c-1.92666,0 -3.48853,-1.56187 -3.48853,-3.48853z" fill="#825b00"/><path d="M215.24161,128.2909c2.67996,-2.2333 4.91326,0.44666 4.91326,0.44666c1.48887,1.78665 5.48821,6.58583 6.97706,8.37248c0,0 2.2333,2.67996 -0.44666,4.91326c-2.67996,2.2333 -4.91326,-0.44666 -4.91326,-0.44666c-1.48887,-1.78665 -2.97774,-3.57329 -4.46661,-5.35994l-2.51046,-3.01254c0,0 -2.2333,-2.67996 0.44666,-4.91326z" fill="#825b00"/><path d="M218.45345,127.20185c0.13706,0.08172 0.27608,0.17489 0.41687,0.28048c2.79083,2.09312 0.6977,4.88395 0.6977,4.88395c-0.6977,0.93028 -1.39541,1.86054 -2.09312,2.79083l-2.06875,2.75834c-0.63481,0.86577 -1.65934,1.4279 -2.81519,1.4279c-1.7148,0 -3.14062,-1.23724 -3.43346,-2.86774l-0.68504,-3.42517l0.66645,-0.13329c-0.02344,-0.08396 -0.0458,-0.16812 -0.06698,-0.25245c-3.79799,0.14192 -10.27114,-0.99122 -10.68,-2.06815c-3.71356,-9.78123 2.58972,-6.8542 5.72863,-8.55852c0.2242,-0.12173 -0.32967,-0.39065 -0.47321,-0.60155c-0.58881,-0.8652 -1.14837,-1.74993 -1.72256,-2.6249l-2.06362,-3.43937c-0.33378,-0.53499 -0.52664,-1.16697 -0.52664,-1.844c0,-1.92666 1.56187,-3.48853 3.48853,-3.48853c0.48596,0 0.94873,0.09936 1.36906,0.27889l3.41508,1.36602l-0.02181,0.05453c0.09228,0.01876 0.1844,0.0385 0.27638,0.05929c1.31805,0.298 2.29153,1.53489 3.55505,1.97373l1.91844,-2.39806c0.63871,-0.81255 1.63051,-1.33443 2.74422,-1.33443c1.92666,0 3.48853,1.56187 3.48853,3.48853c0,0.48596 -0.09936,0.94873 -0.27889,1.36906l-0.56811,1.42028c0.94383,-0.43656 1.90071,-0.84868 2.83633,-1.30061l0.8015,0.2581v-0.35141h3.48853c1.92666,0 3.48853,1.56187 3.48853,3.48853c0,1.29301 -0.70346,2.42171 -1.74852,3.02429l-3.4337,2.06023l-0.13056,-0.2176c-1.07891,1.07126 -2.20541,2.09057 -3.39639,3.03114z" fill="#fffc00"/><path d="M254.51223,162.14492c1.27668,-0.51844 3.28751,0.45324 6.62718,4.26189c3.43746,3.92018 -0.6977,6.67133 -1.45526,9.77929c-1.29903,5.3295 3.9093,18.01303 -8.08932,14.61894c-2.38438,-0.67447 -4.2866,-2.96884 -5.26947,-5.24351c-0.7787,-1.80217 0.24713,-3.92019 0.46694,-5.87105c0.668,-5.92902 -0.0997,-11.09015 2.87578,-16.38427c0,0 1.79484,-2.99139 4.78622,-1.19655c0.01952,0.01171 0.03883,0.02347 0.05795,0.03529z" fill="#00caff"/><path d="M279.89087,167.00473c3.41995,2.57607 11.6076,8.71051 10.69579,13.96369c-1.01977,5.87532 -6.78867,6.16305 -10.86151,4.99383c-5.617,-1.61251 -10.28806,-8.62553 -14.61553,-12.35948c0,0 -2.63998,-2.28043 -0.35955,-4.92041c2.28043,-2.63998 4.92041,-0.35955 4.92041,-0.35955c0.43895,0.37956 0.86908,0.76768 1.29256,1.16211c-0.11391,-1.66404 0.98277,-3.2176 2.65847,-3.62428c0.56938,-0.13818 1.14008,-0.12804 1.67137,0.00565l3.8867,0.89186l-0.06006,0.26175z" fill="#00caff"/><path d="M249.70419,186.69377c0.97712,-1.48955 2.95523,-1.48955 2.95523,-1.48955l3.37486,0.36829c1.28999,0.64598 2.47196,1.48052 3.57305,2.42885l0.29115,-0.48525l2.96974,1.78184c1.04506,0.60258 1.74852,1.73128 1.74852,3.02429c0,1.92666 -1.56187,3.48853 -3.48853,3.48853h-4.23441c-3.0961,0 -12.77172,1.23825 -15.0678,-0.19665c-0.33122,-0.207 -0.63447,-0.44374 -0.91536,-0.70427l-0.10917,0.13647l-2.99941,-2.39954c-0.81255,-0.63871 -1.33443,-1.63051 -1.33443,-2.74422c0,-1.92666 1.56187,-3.48853 3.48853,-3.48853c0.1881,0 0.37273,0.01489 0.55277,0.04355l3.99065,0.57009c1.73785,-0.00298 3.47623,-0.13125 5.2046,-0.33392z" fill="#005e75"/><path d="M277.45515,191.79445c0.83024,-1.8665 2.2673,-2.15385 3.31579,-2.07145c4.78963,-2.9695 9.73077,-5.44134 14.49843,-8.46493l3.578,-2.26455c1.62799,-1.03038 3.78302,-0.5459 4.8134,1.08208c0.83925,1.32602 0.67351,3.00168 -0.29655,4.13447l-2.36897,2.90102l-0.10626,-0.08677c-0.08931,0.16593 -0.18315,0.32971 -0.28209,0.49111c-0.72969,1.19031 -2.33951,1.52449 -3.51493,2.27795c-4.12567,2.64457 -8.49163,4.63806 -12.59092,7.25301l-5.27626,-0.64674c0,0 -3.18743,-1.4178 -1.76963,-4.60524z" fill="#005e75"/></g></g></svg>