<svg version="1.1" xmlns="http://www.w3.org/2000/svg" xmlns:xlink="http://www.w3.org/1999/xlink" width="328" height="205" viewBox="0,0,328,205"><defs><linearGradient x1="239.76421" y1="163.06017" x2="239.76421" y2="167.67341" gradientUnits="userSpaceOnUse" id="color-1"><stop offset="0" stop-color="#f7e555"/><stop offset="1" stop-color="#fac800"/></linearGradient><linearGradient x1="239.76421" y1="196.93981" x2="239.76421" y2="192.32659" gradientUnits="userSpaceOnUse" id="color-2"><stop offset="0" stop-color="#715304"/><stop offset="1" stop-color="#f8b50a"/></linearGradient><linearGradient x1="222.99226" y1="180.15733" x2="227.65104" y2="180.16499" gradientUnits="userSpaceOnUse" id="color-3"><stop offset="0" stop-color="#c89c2b"/><stop offset="1" stop-color="#f5c42e"/></linearGradient><linearGradient x1="257.00775" y1="180.16342" x2="252.34892" y2="180.15581" gradientUnits="userSpaceOnUse" id="color-4"><stop offset="0" stop-color="#b28209"/><stop offset="1" stop-color="#ffba0a"/></linearGradient></defs><g transform="translate(-76,-77.5)"><g data-paper-data="{&quot;isPaintingLayer&quot;:true}" fill-rule="nonzero" stroke-linecap="butt" stroke-linejoin="miter" stroke-miterlimit="10" stroke-dasharray="" stroke-dashoffset="0" style="mix-blend-mode: normal"><path d="M76,282.5v-205h328v205z" fill="none" stroke="none" stroke-width="0"/><g stroke="none"><g data-paper-data="{&quot;origPos&quot;:null}"><path d="M227.32436,167.67341l-3.89449,-3.67755l0.69893,-0.93568h31.27082l1.00816,0.93865l-3.74721,3.67458z" data-paper-data="{&quot;origPos&quot;:null}" fill="url(#color-1)" stroke-width="0"/><path d="M252.66058,192.32659l3.73381,3.6436l-0.99476,0.96963h-31.27082l-0.70571,-0.76136l3.90126,-3.85187z" data-paper-data="{&quot;origPos&quot;:null,&quot;index&quot;:null}" fill="url(#color-2)" stroke-width="0"/><path d="M227.63044,192.52346l-3.98506,3.91549l-0.67902,-0.7485l0.05177,-31.06623l0.65288,-0.8943l4.00138,3.6231z" data-paper-data="{&quot;origPos&quot;:null,&quot;origRot&quot;:0}" fill="url(#color-3)" stroke-width="0"/><path d="M252.3703,167.38565l3.77202,-3.61783l0.89132,0.91321l-0.05178,30.67547l-0.81378,0.85511l-3.83973,-3.73771z" data-paper-data="{&quot;origPos&quot;:null,&quot;index&quot;:null,&quot;origRot&quot;:0}" fill="url(#color-4)" stroke-width="0"/><path d="M227.31042,192.59075v-25.20395h25.3621v25.20395z" data-paper-data="{&quot;origPos&quot;:null}" fill="#f8c01c" stroke-width="NaN"/><path d="M225.54916,167.11112c0,-0.89974 0.73659,-1.62912 1.64521,-1.62912c0.90863,0 1.64522,0.72938 1.64522,1.62912c0,0.89974 -0.7366,1.62912 -1.64522,1.62912c-0.90863,0 -1.64521,-0.72939 -1.64521,-1.62912z" data-paper-data="{&quot;origPos&quot;:null}" fill="#615929" stroke-width="0"/><path d="M225.49884,192.96022c0,-0.89974 0.73659,-1.62912 1.64522,-1.62912c0.90863,0 1.64522,0.72938 1.64522,1.62912c0,0.89974 -0.7366,1.62911 -1.64522,1.62911c-0.90863,0 -1.64522,-0.72937 -1.64522,-1.62911z" data-paper-data="{&quot;origPos&quot;:null}" fill="#615929" stroke-width="0"/><g data-paper-data="{&quot;origPos&quot;:null}" fill="#615929" stroke-width="0"><path d="M251.2267,167.14567c0,-0.89974 0.7366,-1.62912 1.64523,-1.62912c0.90863,0 1.64523,0.72938 1.64523,1.62912c0,0.89974 -0.73659,1.62913 -1.64523,1.62913c-0.90863,0 -1.64523,-0.72939 -1.64523,-1.62913z" data-paper-data="{&quot;origPos&quot;:null}"/><path d="M251.17638,192.99479c0,-0.89974 0.73659,-1.62912 1.64522,-1.62912c0.90863,0 1.64522,0.72938 1.64522,1.62912c0,0.89974 -0.7366,1.62912 -1.64522,1.62912c-0.90863,0 -1.64522,-0.72938 -1.64522,-1.62912z" data-paper-data="{&quot;origPos&quot;:null}"/></g></g><g data-paper-data="{&quot;origPos&quot;:null}" fill="#c49821" stroke-width="0"><g data-paper-data="{&quot;origPos&quot;:null}"><path d="M237.93138,193.06241v-3.53364h6.60845v3.53365z" data-paper-data="{&quot;origPos&quot;:null}"/><path d="M238.06355,186.25687c0,0 0,-2.93981 0,-5.15651c0,-1.15703 2.10296,-2.95779 3.19849,-2.95779c1.52678,0 3.27779,0 3.27779,0v8.11431z" data-paper-data="{&quot;origPos&quot;:null}"/><path d="M251.88841,173.95455v5.1565l-3.53792,2.9578h-3.62565v-8.11429z" data-paper-data="{&quot;origPos&quot;:null,&quot;index&quot;:null}"/><path d="M244.72487,176.2056v-8.11431h3.62565l3.53792,2.9578v5.15651z" data-paper-data="{&quot;origPos&quot;:null,&quot;index&quot;:null}"/><path d="M243.21811,182.04268v-3.87392h1.58603v3.87392z" data-paper-data="{&quot;origPos&quot;:null}"/><path d="M234.91793,172.4364v-4.31891h10.41492v4.31891z" data-paper-data="{&quot;origPos&quot;:null}"/><path d="M229.39325,178.09023c0,0 0,-3.81304 0,-6.53027c0,-1.41828 2.1888,-3.41628 3.32904,-3.41628c1.5891,0 3.41157,0 3.41157,0v9.94655z" data-paper-data="{&quot;origPos&quot;:null,&quot;index&quot;:null}"/></g><path d="M238.07955,186.24434l-0.98333,-1.09092l0.73351,-0.79663l1.35758,1.22568z" data-paper-data="{&quot;origRot&quot;:0,&quot;origPos&quot;:null}"/><path d="M237.94346,193.04944l-0.98334,-1.09092l0.73352,-0.79663l1.35758,1.22568z" data-paper-data="{&quot;origRot&quot;:0,&quot;origPos&quot;:null}"/><path d="M243.57931,188.46681l0.98335,1.09092l-0.73352,0.79662l-1.35759,-1.22568z" data-paper-data="{&quot;origRot&quot;:0,&quot;origPos&quot;:null,&quot;index&quot;:null}"/><path d="M229.38815,178.08421l-0.98333,-1.09092l0.73351,-0.79663l1.35758,1.22568z" data-paper-data="{&quot;origRot&quot;:0,&quot;origPos&quot;:null}"/></g><g data-paper-data="{&quot;origPos&quot;:null}" fill="#ffffff" stroke-width="0"><path d="M236.94908,191.97744v-3.53365h6.60845v3.53365z" data-paper-data="{&quot;origPos&quot;:null}"/><path d="M237.08126,185.17189v-5.1565l3.19849,-2.9578h3.27779v8.1143z" data-paper-data="{&quot;origPos&quot;:null}"/><path d="M250.90614,172.86957v5.1565l-3.53792,2.95779h-3.62564v-8.11429z" data-paper-data="{&quot;origPos&quot;:null,&quot;index&quot;:null}"/><path d="M243.74255,175.12064v-8.11429h3.62564l3.53792,2.95779v5.15651z" data-paper-data="{&quot;origPos&quot;:null,&quot;index&quot;:null}"/><path d="M242.23583,180.99138v-3.90761h1.58603v3.90761z" data-paper-data="{&quot;origPos&quot;:null}"/><path d="M233.9356,171.35142v-4.31891h10.41492v4.31891z" data-paper-data="{&quot;origPos&quot;:null}"/><path d="M228.41098,177.00522v-6.53028l3.32903,-3.41627h3.41157v9.94655z" data-paper-data="{&quot;origPos&quot;:null,&quot;index&quot;:null}"/></g></g><g><g stroke="#000000" stroke-width="4"><path d="M250.78512,184.89828c0,3.26564 -2.91568,4.80534 -6.51239,4.80534c-3.59668,0 -6.51239,-1.53969 -6.51239,-4.80534c0,-2.2888 2.91568,-5.32832 6.51239,-5.32832c3.59668,0 6.51239,3.03952 6.51239,5.32832z" fill="#2997ff"/><path d="M240.94256,188.6873c0,-1.70843 1.38494,-3.09337 3.09337,-3.09337c1.70843,0 3.09339,1.38494 3.09339,3.09337c0,1.70843 -1.38496,3.09337 -3.09339,3.09337c-1.70843,0 -3.09337,-1.38494 -3.09337,-3.09337z" fill="#ffffff"/><path d="M242.06884,182.60631c0,-0.81384 0.93643,-1.47359 2.09157,-1.47359c1.15514,0 2.09156,0.65976 2.09156,1.47359c0,0.81384 -0.93643,1.47359 -2.09156,1.47359c-1.15514,0 -2.09157,-0.65974 -2.09157,-1.47359z" fill="#75bcff"/><path d="M247.42569,183.31899c0.47881,-0.38979 1.25661,-0.22709 1.73725,0.36335c0.48065,0.59044 0.48214,1.38503 0.00333,1.77483c-0.47881,0.38979 -1.25661,0.22712 -1.73728,-0.36331c-0.48065,-0.59044 -0.48214,-1.38507 -0.00333,-1.77486z" fill="#75bcff"/><path d="M241.08192,184.8086c-0.48065,0.59044 -1.25845,0.75311 -1.73725,0.36331c-0.47879,-0.38979 -0.47732,-1.18439 0.00333,-1.77483c0.48065,-0.59044 1.25845,-0.75314 1.73725,-0.36335c0.47879,0.38979 0.47732,1.1844 -0.00333,1.77484z" data-paper-data="{&quot;index&quot;:null}" fill="#75bcff"/></g><g stroke="none" stroke-width="0"><path d="M250.78511,184.89828c0,3.26564 -2.91568,4.80534 -6.51239,4.80534c-3.59668,0 -6.51239,-1.53969 -6.51239,-4.80534c0,-2.2888 2.91568,-5.32832 6.51239,-5.32832c3.59668,0 6.51239,3.03952 6.51239,5.32832z" fill="#00d26c"/><path d="M240.94256,188.6873c0,-1.70843 1.38494,-3.09337 3.09337,-3.09337c1.70843,0 3.09339,1.38494 3.09339,3.09337c0,1.70843 -1.38496,3.09337 -3.09339,3.09337c-1.70843,0 -3.09337,-1.38494 -3.09337,-3.09337z" fill="#ffffff"/><path d="M242.06883,182.60631c0,-0.81384 0.93643,-1.47359 2.09157,-1.47359c1.15514,0 2.09156,0.65976 2.09156,1.47359c0,0.81384 -0.93643,1.47359 -2.09156,1.47359c-1.15514,0 -2.09157,-0.65974 -2.09157,-1.47359z" fill="#69ffb6"/><path d="M247.42568,183.31899c0.47881,-0.38979 1.25661,-0.22709 1.73725,0.36335c0.48065,0.59044 0.48214,1.38503 0.00333,1.77483c-0.47881,0.38979 -1.25661,0.22712 -1.73728,-0.36331c-0.48065,-0.59044 -0.48214,-1.38507 -0.00333,-1.77486z" fill="#69ffb6"/><path d="M241.08191,184.8086c-0.48065,0.59044 -1.25845,0.75311 -1.73725,0.36331c-0.47879,-0.38979 -0.47732,-1.18439 0.00333,-1.77483c0.48065,-0.59044 1.25845,-0.75314 1.73725,-0.36335c0.47879,0.38979 0.47732,1.1844 -0.00333,1.77484z" data-paper-data="{&quot;index&quot;:null}" fill="#69ffb6"/></g></g></g></g></svg>