<svg version="1.1" xmlns="http://www.w3.org/2000/svg" xmlns:xlink="http://www.w3.org/1999/xlink" width="96.49516" height="107.0343" viewBox="0,0,96.49516,107.0343"><g transform="translate(-197.25475,-89.48233)"><g data-paper-data="{&quot;isPaintingLayer&quot;:true}" fill-rule="nonzero" stroke="none" stroke-width="0.5" stroke-linecap="butt" stroke-linejoin="miter" stroke-miterlimit="10" stroke-dasharray="" stroke-dashoffset="0" style="mix-blend-mode: normal"><path d="M230.83016,122.03094c-3.17477,-0.52913 -2.64565,-3.70391 -2.64565,-3.70391c0.91432,-5.34174 2.49635,-10.5192 3.92632,-15.7461c0.45279,-1.65508 1.09282,-7.21372 2.20156,-7.96349c1.39933,-0.94629 12.26137,-2.19773 14.55032,-2.49446c4.25582,-0.55167 8.50152,-1.18795 12.76746,-1.65504c2.57105,-0.28151 5.26854,-1.52385 7.72601,-0.71738c6.38802,2.09636 7.14057,6.90332 9.11841,12.1165c2.51722,6.63486 2.0305,13.18135 1.19946,20.15846c-2.18928,0.87423 -4.21062,2.59637 -6.56786,2.62268c-7.56387,0.08443 -6.06646,-5.92042 -7.49659,-10.66833c-0.66652,-2.2128 -1.90677,-4.22481 -2.57486,-6.43714c-0.47173,-1.56213 0.56664,-3.98781 -0.83482,-4.82369c-3.03959,-1.81294 -7.11519,2.68808 -9.08954,4.00264c-0.97834,0.6514 -2.10006,1.08318 -3.03375,1.79711c-1.32316,1.01174 -2.98423,2.02667 -3.43334,3.63062c-0.76154,2.71976 -0.28804,6.3752 -2.53641,8.08453c-1.34094,1.01945 -3.34866,0.36891 -5.02299,0.55337h-3.21857v0c-0.60374,0 -1.16865,-0.16623 -1.65146,-0.45542c-0.42718,0.88808 -1.37688,2.03352 -3.38365,1.69906z" fill="#9966ff"/><path d="M261.15517,129.52411l-1.9008,3.16799c-0.55595,0.96419 -1.5973,1.61321 -2.79025,1.61321c-1.58209,0 -2.89757,-1.1415 -3.16776,-2.64582l-0.63202,-3.16011c0,0 -0.11995,-0.59973 0.00617,-1.3286c-1.08298,-0.23481 -2.09763,-0.58163 -2.99593,-1.03912c-0.30148,-0.15354 -5.06621,-6.16083 -5.37944,-6.5523c0,0 -2.01063,-2.51328 0.50265,-4.52391c0.49726,-0.39782 0.97484,-0.61853 1.42107,-0.71665c-0.722,-0.89302 -1.51792,-1.75506 -1.33349,-2.79166c0.9042,-5.08242 4.08929,-4.25538 6.84829,-6.66793c2.49231,-2.17934 1.7329,-5.25403 6.6616,-5.33447c3.83449,-0.06258 9.211,6.95362 10.18264,10.084c0.56025,1.80497 0.65998,10.10701 -0.12822,11.74654c-1.27955,2.66164 -3.9174,4.4476 -6.9541,5.38419c0.48395,1.39071 -0.34041,2.76463 -0.34041,2.76463zM258.39527,105.98189c-0.24027,-0.04887 -0.1959,0.32624 -0.21747,0.65095c0.07186,-0.00479 0.14438,-0.00724 0.21747,-0.00724c0.10508,0 0.20898,0.00503 0.31146,0.01488c-0.04087,-0.30142 -0.06031,-0.60751 -0.31146,-0.6586zM255.23805,121.02748c0.25998,0.01632 0.53091,0.02639 0.80886,0.0297c-0.1404,-0.14973 -0.26663,-0.3129 -0.37657,-0.48735c-0.17753,0.19054 -0.3246,0.34642 -0.43228,0.45766z" fill="#ffeab8"/><path d="M265.41362,118.22496c0.63122,3.15606 -2.52485,3.78728 -2.52485,3.78728l-3.21857,0.64371c-2.72994,0.45634 -5.66377,0.13786 -8.26371,-0.81142c0,0 -2.98836,-1.19535 -1.79303,-4.18372c1.19535,-2.98836 4.18372,-1.79303 4.18372,-1.79303c1.40258,0.648 3.11502,0.86388 4.61057,0.47601l3.21857,-0.64371c0,0 3.15606,-0.63122 3.78728,2.52485z" fill="#000000"/><path d="M250.67071,108.55675c0,-1.77756 1.44101,-3.21857 3.21857,-3.21857c1.77756,0 3.21857,1.44101 3.21857,3.21857c0,1.77756 -1.44101,3.21857 -3.21857,3.21857c-1.77756,0 -3.21857,-1.44101 -3.21857,-3.21857z" fill="#000000"/><path d="M259.6827,107.91304c0,-1.77756 1.44101,-3.21857 3.21857,-3.21857c1.77756,0 3.21857,1.44101 3.21857,3.21857c0,1.77756 -1.44101,3.21857 -3.21857,3.21857c-1.77756,0 -3.21857,-1.44101 -3.21857,-3.21857z" fill="#000000"/><path d="M275.02806,136.51148l0.46717,0.34237c0.11248,0.51077 0.27938,1.01613 0.47138,1.5185c0.30077,0.60952 0.57034,1.23924 0.80213,1.88276c2.96479,0.92499 2.10153,3.94639 2.10153,3.94639l-0.79665,2.56295l0.20124,1.00616c0.04946,0.22424 0.07553,0.45727 0.07553,0.69638c0,0.53556 -0.1308,1.04058 -0.36222,1.48483c0.00989,0.17123 0.01652,0.34282 0.0202,0.51471l0.27951,-0.0559l0.63069,3.1534c0.04946,0.22424 0.07553,0.45727 0.07553,0.69638c0,1.77756 -1.44101,3.21857 -3.21857,3.21857c-0.88879,0 -1.69343,-0.36025 -2.27588,-0.94269l-0.07449,-0.07449c0.16214,1.08979 0.30141,2.18108 0.40356,3.2749c0.11971,1.28186 -0.01666,2.57496 0,3.86229c0.02295,1.77398 1.21083,3.92283 0.11882,5.32105c-3.37921,4.32684 -12.23199,0.85249 -16.46148,0.13483c-1.18725,-0.01571 -2.40685,0.22856 -3.56176,-0.04711c-1.60316,-0.38265 -3.27487,-0.87102 -4.56773,-1.89329c-6.97348,-5.51396 -1.23803,-13.58604 -0.60138,-20.25206c0.12813,-1.3415 -0.05802,-2.77066 -0.26917,-4.18885c-0.62298,0 -1.26358,0 -1.88961,0c-0.71695,1.93114 -3.00658,1.93114 -3.00658,1.93114l-1.27493,-0.06251c-0.14615,-0.03003 -0.29378,-0.05457 -0.44266,-0.07445c-1.4664,2.02032 -3.12099,3.73596 -5.42253,3.94573c-7.73806,0.70529 -12.12247,-5.54454 -8.42116,-12.0177c3.33434,-5.83136 12.00091,-8.43453 18.13613,-8.52763c0,0 1.72812,0 2.65181,1.26629c1.34298,-0.20133 2.49791,0.66485 2.49791,0.66485c2.99639,2.34388 5.25797,2.5832 9.01199,2.57486c1.87396,-0.00416 5.21678,-0.1776 7.34024,0.68602c0.43076,-0.04448 0.87178,-0.13554 1.31458,-0.2347c0.48131,-0.28666 1.04373,-0.45132 1.64461,-0.45132c0.21803,0 0.43099,0.02168 0.63685,0.06299c0.54024,-0.01394 1.05941,0.06791 1.53988,0.32555c1.03809,0.55663 1.47393,1.73226 1.90682,2.91049l0.42244,0.56325l-0.16445,0.12333c0.01999,0.05081 0.0402,0.1014 0.06069,0.15171z" fill="#9966ff"/><path d="M277.70669,162.62872c-0.92418,0 -1.583,-0.26536 -2.05264,-0.64371c-0.63253,0 -1.16594,0 -1.16594,0c-1.77756,0 -3.21857,-1.44101 -3.21857,-3.21857c0,-1.77756 1.44101,-3.21857 3.21857,-3.21857h3.21857c0,0 3.21857,0 3.21857,3.21857c0,0.21221 -0.01399,0.41042 -0.04013,0.59556l0.04013,0.04815c0,0 0,3.21857 -3.21857,3.21857z" fill="#ffeab8"/><path d="M230.45805,145.54926l1.31475,1.07868c0.25782,2.15739 2.23769,4.86692 0.77347,6.47218c-3.60968,3.95741 -12.13899,-2.28636 -12.7726,-5.18753c-0.16099,-0.73716 5.02406,-5.79899 6.09117,-6.87117c0,0 2.27588,-2.27588 4.55174,0c2.09084,2.09084 0.33998,4.18167 0.04147,4.50784z" fill="#ffeab8"/><path d="M230.07187,151.68558c0,-1.77756 1.44101,-3.21857 3.21857,-3.21857c1.77756,0 3.21857,1.44101 3.21857,3.21857c0,1.77756 -1.44101,3.21857 -3.21857,3.21857c-1.77756,0 -3.21857,-1.44101 -3.21857,-3.21857z" fill="#825b00"/><path d="M213.84968,133.76388c2.47257,-2.06048 4.53305,0.41209 4.53305,0.41209c1.37365,1.64839 5.06349,6.07618 6.43714,7.72456c0,0 2.06048,2.47257 -0.41209,4.53305c-2.47257,2.06048 -4.53305,-0.41209 -4.53305,-0.41209c-1.37365,-1.64839 -2.74731,-3.29677 -4.12095,-4.94515l-2.31618,-2.77941c0,0 -2.06048,-2.47257 0.41209,-4.53305z" fill="#825b00"/><path d="M216.81297,132.75911c0.12645,0.07539 0.25472,0.16135 0.38461,0.25877c2.57486,1.93114 0.64371,4.506 0.64371,4.506c-0.64371,0.85829 -1.28743,1.71657 -1.93114,2.57486l-1.90866,2.54488c-0.58568,0.79877 -1.53093,1.3174 -2.59734,1.3174c-1.58209,0 -2.89757,-1.1415 -3.16776,-2.64582l-0.63202,-3.16011l0.61488,-0.12298c-0.02163,-0.07746 -0.04226,-0.15511 -0.0618,-0.23292c-3.50408,0.13094 -9.47629,-0.91451 -9.85352,-1.90811c-3.42618,-9.0243 2.38931,-6.32378 5.28532,-7.89621c0.20685,-0.11232 -0.30415,-0.36042 -0.43659,-0.555c-0.54324,-0.79824 -1.0595,-1.61451 -1.58925,-2.42177l-1.90392,-3.17321c-0.30795,-0.49359 -0.48589,-1.07666 -0.48589,-1.7013c0,-1.77756 1.44101,-3.21857 3.21857,-3.21857c0.44836,0 0.87531,0.09167 1.26312,0.25731l3.1508,1.26031l-0.02012,0.05031c0.08513,0.01731 0.17013,0.03552 0.25499,0.0547c1.21605,0.27494 2.1142,1.4161 3.27994,1.82099l1.76998,-2.21248c0.58928,-0.74967 1.50433,-1.23116 2.53186,-1.23116c1.77756,0 3.21857,1.44101 3.21857,3.21857c0,0.44836 -0.09167,0.87531 -0.25731,1.26312l-0.52415,1.31037c0.87079,-0.40277 1.75362,-0.783 2.61684,-1.19996l0.73947,0.23812v-0.32421h3.21857c1.77756,0 3.21857,1.44101 3.21857,3.21857c0,1.19294 -0.64902,2.23431 -1.61321,2.79025l-3.16799,1.9008l-0.12045,-0.20076c-0.99542,0.98836 -2.03474,1.92879 -3.13356,2.79658z" fill="#fffc00"/><path d="M250.0813,164.99807c1.17788,-0.47832 3.0331,0.41817 6.11433,3.93208c3.17145,3.61681 -0.64371,6.15506 -1.34264,9.02251c-1.1985,4.91707 3.60678,16.61907 -7.46332,13.48763c-2.19986,-0.62228 -3.95487,-2.73909 -4.86169,-4.83774c-0.71844,-1.6627 0.228,-3.61682 0.4308,-5.41671c0.61631,-5.47019 -0.09199,-10.23192 2.65323,-15.11636c0,0 1.65594,-2.7599 4.41584,-1.10396c0.01801,0.0108 0.03583,0.02165 0.05347,0.03256z" fill="#00caff"/><path d="M270.89441,169.13525c3.71713,1.33704 12.60725,4.50899 13.23729,9.38762c0.70467,5.45639 -4.30109,7.28436 -8.20968,7.3654c-5.39049,0.11179 -11.42113,-4.79421 -16.25406,-6.90405c0,0 -2.94903,-1.28933 -1.65969,-4.23838c1.28933,-2.94903 4.23838,-1.6597 4.23838,-1.6597c0.49045,0.21472 0.97544,0.4394 1.45632,0.67146c-0.55452,-1.43548 -0.01197,-3.10396 1.35388,-3.9197c0.4641,-0.27718 0.96984,-0.42399 1.47457,-0.45116l3.66885,-0.2747l0.0185,0.24708z" fill="#00caff"/><path d="M245.64534,187.64717c0.90151,-1.37428 2.72654,-1.37428 2.72654,-1.37428l3.11369,0.33979c1.19016,0.59599 2.28066,1.36595 3.29655,2.24089l0.26862,-0.4477l2.73993,1.64396c0.96419,0.55595 1.61321,1.5973 1.61321,2.79025c0,1.77756 -1.44101,3.21857 -3.21857,3.21857h-3.90673c-2.8565,0 -11.78336,1.14243 -13.90176,-0.18144c-0.30559,-0.19098 -0.58536,-0.4094 -0.84453,-0.64977l-0.10073,0.12591l-2.7673,-2.21385c-0.74967,-0.58928 -1.23116,-1.50433 -1.23116,-2.53186c0,-1.77756 1.44101,-3.21857 3.21857,-3.21857c0.17355,0 0.34388,0.01374 0.50999,0.04018l3.68183,0.52598c1.60336,-0.00274 3.20722,-0.12109 4.80184,-0.30808z" fill="#005e75"/><path d="M270.6417,190.23847c0.50467,-1.81592 1.77719,-2.27294 2.74522,-2.33986c3.96852,-3.3592 8.14275,-6.28478 12.08388,-9.69037l2.95833,-2.55162c1.34604,-1.16099 3.37839,-1.01098 4.53939,0.33507c0.94564,1.09636 1.02151,2.64805 0.28978,3.81332l-1.76868,2.96859l-0.10872,-0.06477c-0.05901,0.16353 -0.12246,0.32572 -0.19087,0.48642c-0.50457,1.18519 -1.9284,1.70838 -2.89897,2.5553c-3.40661,2.97267 -7.1208,5.38374 -10.50737,8.32581l-4.90278,0.12499c0,0 -3.10104,-0.86183 -2.23921,-3.96287z" fill="#005e75"/></g></g></svg>