<svg version="1.1" xmlns="http://www.w3.org/2000/svg" xmlns:xlink="http://www.w3.org/1999/xlink" width="328" height="205" viewBox="0,0,328,205"><defs><linearGradient x1="238.22743" y1="180.38673" x2="253.08331" y2="180.38673" gradientUnits="userSpaceOnUse" id="color-1"><stop offset="0" stop-color="#13b22b"/><stop offset="1" stop-color="#06610f"/></linearGradient><linearGradient x1="238.16829" y1="180.38464" x2="239.79431" y2="180.38464" gradientUnits="userSpaceOnUse" id="color-2"><stop offset="0" stop-color="#01c300"/><stop offset="1" stop-color="#01c300" stop-opacity="0"/></linearGradient><linearGradient x1="253.09808" y1="180.38254" x2="250.36342" y2="180.38254" gradientUnits="userSpaceOnUse" id="color-3"><stop offset="0" stop-color="#019601"/><stop offset="1" stop-color="#019601" stop-opacity="0"/></linearGradient><linearGradient x1="242.98722" y1="180.38254" x2="247.33312" y2="180.38254" gradientUnits="userSpaceOnUse" id="color-4"><stop offset="0" stop-color="#2ab346"/><stop offset="1" stop-color="#2ab346" stop-opacity="0"/></linearGradient><linearGradient x1="243.03156" y1="180.38254" x2="240.01604" y2="180.38254" gradientUnits="userSpaceOnUse" id="color-5"><stop offset="0" stop-color="#2ab346"/><stop offset="1" stop-color="#2ab346" stop-opacity="0"/></linearGradient><linearGradient x1="238.9223" y1="187.09268" x2="252.33408" y2="187.09268" gradientUnits="userSpaceOnUse" id="color-6"><stop offset="0" stop-color="#13b22b"/><stop offset="1" stop-color="#06610f"/></linearGradient><linearGradient x1="238.86891" y1="187.09916" x2="240.33686" y2="187.09916" gradientUnits="userSpaceOnUse" id="color-7"><stop offset="0" stop-color="#01c300"/><stop offset="1" stop-color="#01c300" stop-opacity="0"/></linearGradient><linearGradient x1="252.34743" y1="187.10566" x2="249.87859" y2="187.10566" gradientUnits="userSpaceOnUse" id="color-8"><stop offset="0" stop-color="#019601"/><stop offset="1" stop-color="#019601" stop-opacity="0"/></linearGradient><linearGradient x1="243.2194" y1="187.09323" x2="247.14285" y2="187.09323" gradientUnits="userSpaceOnUse" id="color-9"><stop offset="0" stop-color="#2ab346"/><stop offset="1" stop-color="#2ab346" stop-opacity="0"/></linearGradient><linearGradient x1="243.25943" y1="187.09323" x2="240.53704" y2="187.09323" gradientUnits="userSpaceOnUse" id="color-10"><stop offset="0" stop-color="#2ab346"/><stop offset="1" stop-color="#2ab346" stop-opacity="0"/></linearGradient><linearGradient x1="238.17052" y1="178.53461" x2="253.10031" y2="178.53461" gradientUnits="userSpaceOnUse" id="color-11"><stop offset="0" stop-color="#4dd14f"/><stop offset="1" stop-color="#39b037"/></linearGradient><radialGradient cx="244.33572" cy="178.50492" r="7.4649" gradientUnits="userSpaceOnUse" id="color-12"><stop offset="0" stop-color="#9fe3a1"/><stop offset="1" stop-color="#9fe3a1" stop-opacity="0"/></radialGradient><radialGradient cx="249.52672" cy="179.02263" r="7.46132" gradientUnits="userSpaceOnUse" id="color-13"><stop offset="0" stop-color="#198826"/><stop offset="1" stop-color="#41d148"/></radialGradient><radialGradient cx="249.51398" cy="182.12656" r="7.4703" gradientUnits="userSpaceOnUse" id="color-14"><stop offset="0" stop-color="#104625"/><stop offset="1" stop-color="#009e00"/></radialGradient><radialGradient cx="249.51398" cy="182.67419" r="7.4703" gradientUnits="userSpaceOnUse" id="color-15"><stop offset="0" stop-color="#0e3e21"/><stop offset="1" stop-color="#009600"/></radialGradient></defs><g transform="translate(-76,-77.5)"><g data-paper-data="{&quot;isPaintingLayer&quot;:true}" fill-rule="nonzero" stroke-linecap="butt" stroke-linejoin="miter" stroke-miterlimit="10" stroke-dasharray="" stroke-dashoffset="0" style="mix-blend-mode: normal"><path d="M76,282.5v-205h328v205z" fill="none" stroke="none" stroke-width="0"/><g><path d="M224.26579,191.2197c0,-6.57685 0,-18.41778 0,-22.16905c0,-2.24096 2.43368,-4.78487 4.60463,-4.78487c2.21722,0 15.18311,0 22.25917,0c2.74572,0 4.60463,2.4887 4.60463,4.69475c0,3.72175 0,15.54716 0,22.16905c0,2.75153 -2.4887,4.60463 -4.69475,4.60463c-3.72175,0 -15.54716,0 -22.16905,0c-2.75153,0 -4.60463,-1.81325 -4.60463,-4.51452z" fill="#ec6700" stroke="#ce5a00" stroke-width="2.5"/><text transform="translate(226.58847,175.67326) scale(0.3153,0.27414)" font-size="40" xml:space="preserve" fill="#a64700" fill-rule="nonzero" stroke="#a64700" stroke-width="2" stroke-linecap="butt" stroke-linejoin="miter" stroke-miterlimit="10" stroke-dasharray="" stroke-dashoffset="0" font-family="Sans Serif" font-weight="normal" text-anchor="start" style="mix-blend-mode: normal"><tspan x="0" dy="0">En</tspan></text><g stroke="none" stroke-width="0"><g data-paper-data="{&quot;origPos&quot;:null}"><path d="M238.22743,181.88238v-2.53546h14.85588v2.53546z" data-paper-data="{&quot;origPos&quot;:null}" fill="url(#color-1)"/><path d="M238.16829,181.87819v-2.53126h1.62601v2.53126z" data-paper-data="{&quot;origPos&quot;:null}" fill="url(#color-2)"/><path d="M250.36342,181.87401v-2.52708h2.73467v2.52708z" data-paper-data="{&quot;origPos&quot;:null,&quot;index&quot;:null}" fill="url(#color-3)"/><path d="M242.98722,181.87401v-2.52708h4.3459v2.52708z" data-paper-data="{&quot;origPos&quot;:null}" fill="url(#color-4)"/><path d="M240.01604,181.87401v-2.52708h3.01552v2.52708z" data-paper-data="{&quot;origPos&quot;:null,&quot;index&quot;:null}" fill="url(#color-5)"/></g><g data-paper-data="{&quot;origPos&quot;:null}"><path d="M238.9223,192.72125v-9.86452h13.41179v9.86452z" data-paper-data="{&quot;origPos&quot;:null}" fill="url(#color-6)"/><path d="M238.86891,192.7406v-9.87144h1.46795v9.87144z" data-paper-data="{&quot;origPos&quot;:null}" fill="url(#color-7)"/><path d="M249.87859,192.74115v-9.85955h2.46884v9.85956z" data-paper-data="{&quot;origPos&quot;:null,&quot;index&quot;:null}" fill="url(#color-8)"/><path d="M243.2194,192.72872v-9.85955h3.92345v9.85956z" data-paper-data="{&quot;origPos&quot;:null}" fill="url(#color-9)"/><path d="M240.53704,192.72872v-9.85955h2.7224v9.85956z" data-paper-data="{&quot;origPos&quot;:null,&quot;index&quot;:null}" fill="url(#color-10)"/></g><g data-paper-data="{&quot;origPos&quot;:null}"><path d="M238.17052,179.34691v-0.40507l0.39423,-0.30785h14.15789l0.37766,0.27545v0.43748z" data-paper-data="{&quot;origPos&quot;:null}" fill="url(#color-11)"/><path d="M238.17052,179.34691v-0.43747l0.37603,-0.27545h13.92057v0.71292z" data-paper-data="{&quot;origPos&quot;:null}" fill="url(#color-12)"/></g><path d="M238.17068,179.53287v-0.35993h14.92264v0.35993z" data-paper-data="{&quot;origPos&quot;:null}" fill="url(#color-13)"/><path d="M238.16114,182.25583v-0.39211h14.94061v0.39211z" data-paper-data="{&quot;origPos&quot;:null}" fill="url(#color-14)"/><path d="M238.87288,182.89745l-0.70288,-0.4374l-0.00886,-0.23988h14.94061l-0.00852,0.24679l-0.7477,0.43049z" data-paper-data="{&quot;origPos&quot;:null}" fill="url(#color-15)"/></g><g data-paper-data="{&quot;index&quot;:null}" fill="#73ff00" stroke="none" stroke-width="0"><path d="M244.29601,167.36147h2.49281v8.96781h-2.49281z"/><path d="M245.5202,175.0722l4.32656,-4.28346l-0.0022,3.03144l-4.30729,4.30729z"/><path d="M245.54758,178.12745l-4.30729,-4.30729l-0.00221,-3.03145l4.32656,4.28346z" data-paper-data="{&quot;index&quot;:null}"/></g></g></g></g></svg>