<svg version="1.1" xmlns="http://www.w3.org/2000/svg" xmlns:xlink="http://www.w3.org/1999/xlink" width="328" height="205" viewBox="0,0,328,205"><defs><linearGradient x1="273.24201" y1="166.05869" x2="273.24201" y2="227.03757" gradientUnits="userSpaceOnUse" id="color-1"><stop offset="0" stop-color="#13b22b"/><stop offset="1" stop-color="#06610f"/></linearGradient><linearGradient x1="273.26034" y1="165.81595" x2="273.26034" y2="172.49031" gradientUnits="userSpaceOnUse" id="color-2"><stop offset="0" stop-color="#01c300"/><stop offset="1" stop-color="#01c300" stop-opacity="0"/></linearGradient><linearGradient x1="273.23607" y1="227.09823" x2="273.23607" y2="215.87329" gradientUnits="userSpaceOnUse" id="color-3"><stop offset="0" stop-color="#019601"/><stop offset="1" stop-color="#019601" stop-opacity="0"/></linearGradient><linearGradient x1="273.23608" y1="185.59617" x2="273.23607" y2="203.43478" gradientUnits="userSpaceOnUse" id="color-4"><stop offset="0" stop-color="#2ab346"/><stop offset="1" stop-color="#2ab346" stop-opacity="0"/></linearGradient><linearGradient x1="273.23608" y1="185.77822" x2="273.23608" y2="173.4004" gradientUnits="userSpaceOnUse" id="color-5"><stop offset="0" stop-color="#2ab346"/><stop offset="1" stop-color="#2ab346" stop-opacity="0"/></linearGradient><linearGradient x1="225.78376" y1="225.55237" x2="287.1059" y2="225.55237" gradientUnits="userSpaceOnUse" id="color-6"><stop offset="0" stop-color="#13b22b"/><stop offset="1" stop-color="#06610f"/></linearGradient><linearGradient x1="287.16691" y1="225.554" x2="275.87876" y2="225.554" gradientUnits="userSpaceOnUse" id="color-7"><stop offset="0" stop-color="#019601"/><stop offset="1" stop-color="#019601" stop-opacity="0"/></linearGradient><linearGradient x1="245.43121" y1="225.554" x2="263.37024" y2="225.554" gradientUnits="userSpaceOnUse" id="color-8"><stop offset="0" stop-color="#2ab346"/><stop offset="1" stop-color="#2ab346" stop-opacity="0"/></linearGradient><linearGradient x1="225.78376" y1="167.39142" x2="287.1059" y2="167.39142" gradientUnits="userSpaceOnUse" id="color-9"><stop offset="0" stop-color="#13b22b"/><stop offset="1" stop-color="#06610f"/></linearGradient><linearGradient x1="287.16691" y1="167.38976" x2="275.87876" y2="167.38976" gradientUnits="userSpaceOnUse" id="color-10"><stop offset="0" stop-color="#019601"/><stop offset="1" stop-color="#019601" stop-opacity="0"/></linearGradient><linearGradient x1="245.43122" y1="167.38976" x2="263.37025" y2="167.38976" gradientUnits="userSpaceOnUse" id="color-11"><stop offset="0" stop-color="#2ab346"/><stop offset="1" stop-color="#2ab346" stop-opacity="0"/></linearGradient><linearGradient x1="239.49428" y1="166.0587" x2="239.49429" y2="227.03757" gradientUnits="userSpaceOnUse" id="color-12"><stop offset="0" stop-color="#13b22b"/><stop offset="1" stop-color="#06610f"/></linearGradient><linearGradient x1="239.47632" y1="165.81596" x2="239.47632" y2="172.49031" gradientUnits="userSpaceOnUse" id="color-13"><stop offset="0" stop-color="#01c300"/><stop offset="1" stop-color="#01c300" stop-opacity="0"/></linearGradient><linearGradient x1="239.50009" y1="227.09824" x2="239.50009" y2="215.87329" gradientUnits="userSpaceOnUse" id="color-14"><stop offset="0" stop-color="#019601"/><stop offset="1" stop-color="#019601" stop-opacity="0"/></linearGradient><linearGradient x1="239.50009" y1="185.59617" x2="239.50009" y2="203.43479" gradientUnits="userSpaceOnUse" id="color-15"><stop offset="0" stop-color="#2ab346"/><stop offset="1" stop-color="#2ab346" stop-opacity="0"/></linearGradient><linearGradient x1="239.50009" y1="185.77822" x2="239.50009" y2="173.40041" gradientUnits="userSpaceOnUse" id="color-16"><stop offset="0" stop-color="#2ab346"/><stop offset="1" stop-color="#2ab346" stop-opacity="0"/></linearGradient><linearGradient x1="226.12875" y1="225.5695" x2="287.4509" y2="225.5695" gradientUnits="userSpaceOnUse" id="color-17"><stop offset="0" stop-color="#13b22b"/><stop offset="1" stop-color="#06610f"/></linearGradient><linearGradient x1="225.88462" y1="225.56447" x2="232.59656" y2="225.56446" gradientUnits="userSpaceOnUse" id="color-18"><stop offset="0" stop-color="#01c300"/><stop offset="1" stop-color="#01c300" stop-opacity="0"/></linearGradient><linearGradient x1="287.51191" y1="225.57114" x2="276.22377" y2="225.57114" gradientUnits="userSpaceOnUse" id="color-19"><stop offset="0" stop-color="#019601"/><stop offset="1" stop-color="#019601" stop-opacity="0"/></linearGradient><linearGradient x1="245.7762" y1="225.57114" x2="263.71524" y2="225.57114" gradientUnits="userSpaceOnUse" id="color-20"><stop offset="0" stop-color="#2ab346"/><stop offset="1" stop-color="#2ab346" stop-opacity="0"/></linearGradient><linearGradient x1="245.95928" y1="225.57114" x2="233.51178" y2="225.57114" gradientUnits="userSpaceOnUse" id="color-21"><stop offset="0" stop-color="#2ab346"/><stop offset="1" stop-color="#2ab346" stop-opacity="0"/></linearGradient><linearGradient x1="226.12875" y1="167.37426" x2="287.4509" y2="167.37426" gradientUnits="userSpaceOnUse" id="color-22"><stop offset="0" stop-color="#13b22b"/><stop offset="1" stop-color="#06610f"/></linearGradient><linearGradient x1="225.88464" y1="167.37929" x2="232.59657" y2="167.37931" gradientUnits="userSpaceOnUse" id="color-23"><stop offset="0" stop-color="#01c300"/><stop offset="1" stop-color="#01c300" stop-opacity="0"/></linearGradient><linearGradient x1="287.51192" y1="167.37262" x2="276.22377" y2="167.37262" gradientUnits="userSpaceOnUse" id="color-24"><stop offset="0" stop-color="#019601"/><stop offset="1" stop-color="#019601" stop-opacity="0"/></linearGradient><linearGradient x1="245.7762" y1="167.37262" x2="263.71524" y2="167.37262" gradientUnits="userSpaceOnUse" id="color-25"><stop offset="0" stop-color="#2ab346"/><stop offset="1" stop-color="#2ab346" stop-opacity="0"/></linearGradient><linearGradient x1="245.95927" y1="167.37262" x2="233.51178" y2="167.37262" gradientUnits="userSpaceOnUse" id="color-26"><stop offset="0" stop-color="#2ab346"/><stop offset="1" stop-color="#2ab346" stop-opacity="0"/></linearGradient></defs><g transform="translate(-76,-77.50002)"><g data-paper-data="{&quot;isPaintingLayer&quot;:true}" fill-rule="nonzero" stroke="none" stroke-width="0" stroke-linecap="butt" stroke-linejoin="miter" stroke-miterlimit="10" stroke-dasharray="" stroke-dashoffset="0" style="mix-blend-mode: normal"><g><g data-paper-data="{&quot;index&quot;:null}"><g><path d="M290.48368,227.03754h-34.48328v-60.97885h34.48328z" data-paper-data="{&quot;origPos&quot;:null}" fill="url(#color-1)"/><path d="M290.52029,172.49027h-34.51989v-6.67431h34.51988z" data-paper-data="{&quot;origPos&quot;:null}" fill="url(#color-2)"/><path d="M290.47181,227.09823h-34.47141v-11.22495h34.47141z" data-paper-data="{&quot;origPos&quot;:null,&quot;index&quot;:null}" fill="url(#color-3)"/><path d="M290.47181,203.43477h-34.47141v-17.83859h34.47141z" data-paper-data="{&quot;origPos&quot;:null}" fill="url(#color-4)"/><path d="M290.4718,185.77821h-34.47141v-12.3778h34.47141z" data-paper-data="{&quot;origPos&quot;:null,&quot;index&quot;:null}" fill="url(#color-5)"/></g><g><path d="M256.0844,220.80652c20.0149,0.15022 31.02148,5.96133 31.02148,5.96133v3.53327h-31.0207c0,0 -0.26286,-9.49657 -0.00078,-9.4946z" data-paper-data="{&quot;origPos&quot;:null}" fill="url(#color-6)"/><path d="M282.63982,224.85015c2.90386,1.08322 4.52709,1.91773 4.52709,1.91773v3.53327h-11.28814v-7.23834c0,0 4.73483,1.0315 6.76105,1.78734z" data-paper-data="{&quot;origPos&quot;:null,&quot;index&quot;:null}" fill="url(#color-7)"/><path d="M256.08666,220.84126l7.28356,0.58306v8.87679h-7.28504z" data-paper-data="{&quot;origPos&quot;:null}" fill="url(#color-8)"/></g><g data-paper-data="{&quot;index&quot;:null}"><path d="M256.08518,162.64263h31.0207v3.53327c0,0 -11.00658,5.81111 -31.02148,5.96133c-0.26208,0.00197 0.00078,-9.4946 0.00078,-9.4946z" data-paper-data="{&quot;origPos&quot;:null}" fill="url(#color-9)"/><path d="M275.87876,169.88098v-7.23834h11.28814v3.53327c0,0 -1.62323,0.83452 -4.52709,1.91773c-2.02622,0.75583 -6.76105,1.78734 -6.76105,1.78734z" data-paper-data="{&quot;origPos&quot;:null,&quot;index&quot;:null}" fill="url(#color-10)"/><path d="M256.08518,162.64263h7.28504v8.87679l-7.28356,0.58306z" data-paper-data="{&quot;origPos&quot;:null}" fill="url(#color-11)"/></g></g><g data-paper-data="{&quot;index&quot;:null}"><g data-paper-data="{&quot;index&quot;:null}"><path d="M222.59567,166.0587h33.79714v60.97885h-33.79715z" data-paper-data="{&quot;origPos&quot;:null}" fill="url(#color-12)"/><path d="M222.55979,165.81596h33.83302v6.67431h-33.83303z" data-paper-data="{&quot;origPos&quot;:null}" fill="url(#color-13)"/><path d="M222.60731,215.87329h33.78551v11.22495h-33.78551z" data-paper-data="{&quot;origPos&quot;:null,&quot;index&quot;:null}" fill="url(#color-14)"/><path d="M222.60731,185.59617h33.78551v17.83859h-33.78551z" data-paper-data="{&quot;origPos&quot;:null}" fill="url(#color-15)"/><path d="M222.60731,173.40041h33.78551v12.3778h-33.78551z" data-paper-data="{&quot;origPos&quot;:null,&quot;index&quot;:null}" fill="url(#color-16)"/></g><g><path d="M226.07698,226.99086c0,0 9.98154,-6.17014 29.56152,-6.17014c0.26517,0 0.52882,0.001 0.7909,0.00296c0.03978,0.0473 0.00077,9.4946 0.00077,9.4946h-30.30143l-0.05175,-3.32743z" data-paper-data="{&quot;origPos&quot;:null}" fill="url(#color-17)"/><path d="M225.88464,227.06805c0,0 1.76683,-0.9595 2.83924,-1.39937c1.15827,-0.47509 3.87264,-1.3537 3.87264,-1.3537v6.00331h-6.71189v-3.25024z" data-paper-data="{&quot;origPos&quot;:null}" fill="url(#color-18)"/><path d="" data-paper-data="{&quot;origPos&quot;:null,&quot;index&quot;:null}" fill="url(#color-19)"/><path d="M245.77622,221.44149c0,0 6.20756,-0.61751 9.24131,-0.61751c0.422,0 1.41414,0.03445 1.41414,0.03445l-0.00149,9.45986h-10.65397v-8.87679z" data-paper-data="{&quot;origPos&quot;:null}" fill="url(#color-20)"/><path d="M239.58316,222.50092c2.09935,-0.41659 6.37611,-1.05942 6.37611,-1.05942v8.87679h-12.44747v-6.40675c0,0 4.02279,-1.00412 6.07136,-1.41062z" data-paper-data="{&quot;origPos&quot;:null,&quot;index&quot;:null}" fill="url(#color-21)"/></g><g data-paper-data="{&quot;index&quot;:null}"><path d="M255.63853,172.12305c-19.57998,0 -29.56152,-6.17014 -29.56152,-6.17014l0.05175,-3.32743h30.30143c0,0 0.03902,9.4473 -0.00077,9.4946c-0.26208,0.00197 -0.52573,0.00296 -0.7909,0.00296z" data-paper-data="{&quot;origPos&quot;:null}" fill="url(#color-22)"/><path d="M228.72387,167.2751c-1.0724,-0.43987 -2.83924,-1.39937 -2.83924,-1.39937v-3.25024h6.71189v6.00331c0,0 -2.71438,-0.87861 -3.87264,-1.3537z" data-paper-data="{&quot;origPos&quot;:null}" fill="url(#color-23)"/><path d="" data-paper-data="{&quot;origPos&quot;:null,&quot;index&quot;:null}" fill="url(#color-24)"/><path d="M245.77621,171.50227v-8.87679h10.65397l0.00149,9.45986c0,0 -0.99215,0.03445 -1.41414,0.03445c-3.03375,0 -9.24132,-0.61751 -9.24132,-0.61751z" data-paper-data="{&quot;origPos&quot;:null}" fill="url(#color-25)"/><path d="M233.51178,169.03223v-6.40675h12.44747v8.87679c0,0 -4.27675,-0.64283 -6.37611,-1.05942c-2.04856,-0.40651 -6.07136,-1.41062 -6.07136,-1.41062z" data-paper-data="{&quot;origPos&quot;:null,&quot;index&quot;:null}" fill="url(#color-26)"/></g></g></g><path d="M76,282.50002v-205h328v205z" fill="none"/></g></g></svg>