<svg version="1.1" xmlns="http://www.w3.org/2000/svg" xmlns:xlink="http://www.w3.org/1999/xlink" width="114.16687" height="104.28703" viewBox="0,0,114.16687,104.28703"><defs><radialGradient cx="240.50015" cy="180.00014" r="57.08342" gradientUnits="userSpaceOnUse" id="color-1"><stop offset="0" stop-color="#000000" stop-opacity="0"/><stop offset="1" stop-color="#000000" stop-opacity="0"/></radialGradient><radialGradient cx="240.00008" cy="180.00007" r="31.75" gradientUnits="userSpaceOnUse" id="color-2"><stop offset="0" stop-color="#faf8eb" stop-opacity="0"/><stop offset="1" stop-color="#faf8eb"/></radialGradient><linearGradient x1="240.00579" y1="180.19825" x2="240.00579" y2="208.40115" gradientUnits="userSpaceOnUse" id="color-3"><stop offset="0" stop-color="#faf7e1" stop-opacity="0"/><stop offset="1" stop-color="#faf7e1"/></linearGradient><linearGradient x1="240.00579" y1="178.76768" x2="240.00579" y2="150.56478" gradientUnits="userSpaceOnUse" id="color-4"><stop offset="0" stop-color="#faf7e1" stop-opacity="0"/><stop offset="1" stop-color="#faf7e1"/></linearGradient><linearGradient x1="240.72109" y1="179.48297" x2="268.92396" y2="179.48297" gradientUnits="userSpaceOnUse" id="color-5"><stop offset="0" stop-color="#faf7e1" stop-opacity="0"/><stop offset="1" stop-color="#faf7e1"/></linearGradient><linearGradient x1="239.29049" y1="179.48297" x2="211.08761" y2="179.48297" gradientUnits="userSpaceOnUse" id="color-6"><stop offset="0" stop-color="#faf7e1" stop-opacity="0"/><stop offset="1" stop-color="#faf7e1"/></linearGradient><linearGradient x1="239.5" y1="179.98875" x2="219.55756" y2="199.93119" gradientUnits="userSpaceOnUse" id="color-7"><stop offset="0" stop-color="#faf7e1" stop-opacity="0"/><stop offset="1" stop-color="#faf7e1"/></linearGradient><linearGradient x1="240.51159" y1="178.97718" x2="260.45404" y2="159.03471" gradientUnits="userSpaceOnUse" id="color-8"><stop offset="0" stop-color="#faf7e1" stop-opacity="0"/><stop offset="1" stop-color="#faf7e1"/></linearGradient><linearGradient x1="240.51159" y1="179.98875" x2="260.45403" y2="199.93119" gradientUnits="userSpaceOnUse" id="color-9"><stop offset="0" stop-color="#faf7e1" stop-opacity="0"/><stop offset="1" stop-color="#faf7e1"/></linearGradient><linearGradient x1="239.5" y1="178.97718" x2="219.55755" y2="159.03471" gradientUnits="userSpaceOnUse" id="color-10"><stop offset="0" stop-color="#faf7e1" stop-opacity="0"/><stop offset="1" stop-color="#faf7e1"/></linearGradient><linearGradient x1="240.29177" y1="180.13859" x2="251.56766" y2="205.98929" gradientUnits="userSpaceOnUse" id="color-11"><stop offset="0" stop-color="#faf7e1" stop-opacity="0"/><stop offset="1" stop-color="#faf7e1"/></linearGradient><linearGradient x1="239.71981" y1="178.82733" x2="228.44392" y2="152.97664" gradientUnits="userSpaceOnUse" id="color-12"><stop offset="0" stop-color="#faf7e1" stop-opacity="0"/><stop offset="1" stop-color="#faf7e1"/></linearGradient><linearGradient x1="240.66144" y1="179.19699" x2="266.51209" y2="167.9211" gradientUnits="userSpaceOnUse" id="color-13"><stop offset="0" stop-color="#faf7e1" stop-opacity="0"/><stop offset="1" stop-color="#faf7e1"/></linearGradient><linearGradient x1="239.35015" y1="179.76895" x2="213.49948" y2="191.04483" gradientUnits="userSpaceOnUse" id="color-14"><stop offset="0" stop-color="#faf7e1" stop-opacity="0"/><stop offset="1" stop-color="#faf7e1"/></linearGradient><linearGradient x1="239.74441" y1="180.14878" x2="229.43848" y2="206.4012" gradientUnits="userSpaceOnUse" id="color-15"><stop offset="0" stop-color="#faf7e1" stop-opacity="0"/><stop offset="1" stop-color="#faf7e1"/></linearGradient><linearGradient x1="240.26718" y1="178.81713" x2="250.5731" y2="152.56469" gradientUnits="userSpaceOnUse" id="color-16"><stop offset="0" stop-color="#faf7e1" stop-opacity="0"/><stop offset="1" stop-color="#faf7e1"/></linearGradient><linearGradient x1="240.67162" y1="179.74434" x2="266.92404" y2="190.05026" gradientUnits="userSpaceOnUse" id="color-17"><stop offset="0" stop-color="#faf7e1" stop-opacity="0"/><stop offset="1" stop-color="#faf7e1"/></linearGradient><linearGradient x1="239.33996" y1="179.22157" x2="213.08753" y2="168.91563" gradientUnits="userSpaceOnUse" id="color-18"><stop offset="0" stop-color="#faf7e1" stop-opacity="0"/><stop offset="1" stop-color="#faf7e1"/></linearGradient></defs><g transform="translate(-183.4167,-127.85664)"><g data-paper-data="{&quot;isPaintingLayer&quot;:true}" fill-rule="nonzero" stroke="none" stroke-width="0" stroke-linecap="butt" stroke-linejoin="miter" stroke-miterlimit="10" stroke-dasharray="" stroke-dashoffset="0" style="mix-blend-mode: normal"><path d="M183.4167,232.14367v-104.28703h114.16687v104.28703z" fill="url(#color-1)"/><path d="M208.25008,180.00007c0,-17.53504 14.21496,-31.75 31.75,-31.75c17.53504,0 31.75,14.21496 31.75,31.75c0,17.53504 -14.21496,31.75 -31.75,31.75c-17.53504,0 -31.75,-14.21496 -31.75,-31.75z" fill="url(#color-2)"/><g><g><g><g><path d="M239.97511,180.19825c0,0 0.53982,7.16697 0.58134,14.2751c0.04083,6.99237 -0.41572,13.92779 -0.52257,13.92779c-0.10523,0 -0.59183,-6.7264 -0.58112,-13.60931c0.01121,-7.21089 0.52236,-14.59357 0.52236,-14.59357z" fill="url(#color-3)"/><path d="M239.45274,164.17411c-0.01069,-6.88293 0.4759,-13.60931 0.58112,-13.60931c0.10685,0 0.5634,6.93542 0.52257,13.92779c-0.04151,7.10813 -0.58134,14.2751 -0.58134,14.2751c0,0 -0.51115,-7.38268 -0.52236,-14.59357z" data-paper-data="{&quot;index&quot;:null}" fill="url(#color-4)"/></g><g><path d="M240.72109,179.51366c0,0 7.16697,-0.53982 14.2751,-0.58134c6.99237,-0.04084 13.92779,0.41571 13.92779,0.52257c0,0.10523 -6.7264,0.59183 -13.60931,0.58112c-7.21089,-0.01121 -14.59357,-0.52236 -14.59357,-0.52236z" fill="url(#color-5)"/><path d="M224.69692,180.03603c-6.88293,0.01069 -13.60931,-0.47589 -13.60931,-0.58112c0,-0.10685 6.93542,-0.56341 13.92779,-0.52257c7.10813,0.04151 14.2751,0.58134 14.2751,0.58134c0,0 -7.38268,0.51115 -14.59357,0.52236z" data-paper-data="{&quot;index&quot;:null}" fill="url(#color-6)"/></g></g><g><g><path d="M239.47831,179.96707c0,0 -4.68611,5.44952 -9.68295,10.50509c-4.91548,4.97323 -10.14239,9.55448 -10.21795,9.47893c-0.07441,-0.07441 4.33779,-5.17477 9.21232,-10.03416c5.1068,-5.09094 10.68858,-9.94985 10.68858,-9.94985z" fill="url(#color-7)"/><path d="M250.43974,168.26689c4.8594,-4.87453 9.95975,-9.28672 10.03416,-9.21232c0.07556,0.07556 -4.5057,5.30247 -9.47893,10.21795c-5.05556,4.99685 -10.50509,9.68295 -10.50509,9.68295c0,0 4.85891,-5.58179 9.94985,-10.68858z" data-paper-data="{&quot;index&quot;:null}" fill="url(#color-8)"/></g><g><path d="M240.4899,180.01046c0,0 5.44952,4.6861 10.50508,9.68295c4.97323,4.91548 9.55448,10.14239 9.47893,10.21795c-0.07441,0.07441 -5.17477,-4.33779 -10.03416,-9.21232c-5.09094,-5.1068 -9.94985,-10.68858 -9.94985,-10.68858z" fill="url(#color-9)"/><path d="M228.78972,169.049c-4.87453,-4.8594 -9.28673,-9.95975 -9.21232,-10.03416c0.07556,-0.07556 5.30247,4.50569 10.21795,9.47893c4.99685,5.05556 9.68295,10.50508 9.68295,10.50508c0,0 -5.58178,-4.85891 -10.68858,-9.94985z" data-paper-data="{&quot;index&quot;:null}" fill="url(#color-10)"/></g></g></g><g><g><g><path d="M240.26364,180.15086c0,0 3.36024,6.3534 6.24022,12.85209c2.83307,6.39286 5.18747,12.93238 5.08953,12.9751c-0.09645,0.04207 -3.23177,-5.92877 -5.97384,-12.24191c-2.87273,-6.61396 -5.3559,-13.58527 -5.3559,-13.58527z" fill="url(#color-11)"/><path d="M233.37818,165.67204c-2.76169,-6.30459 -5.00497,-12.66452 -4.90852,-12.70659c0.09794,-0.04272 3.28928,6.13173 6.0475,12.55724c2.80387,6.53189 5.17452,13.31694 5.17452,13.31694c0,0 -3.42022,-6.56258 -6.31349,-13.16758z" data-paper-data="{&quot;index&quot;:null}" fill="url(#color-12)"/></g><g><path d="M240.6737,179.22511c0,0 6.35339,-3.36025 12.85209,-6.24022c6.39285,-2.83308 12.93237,-5.18748 12.9751,-5.08953c0.04207,0.09645 -5.92877,3.23177 -12.24191,5.97384c-6.61396,2.87273 -13.58526,5.35591 -13.58526,5.35591z" fill="url(#color-13)"/><path d="M226.19485,186.11058c-6.30459,2.76169 -12.66452,5.00498 -12.70659,4.90852c-0.04272,-0.09794 6.13172,-3.28929 12.55724,-6.0475c6.53189,-2.80387 13.31694,-5.17452 13.31694,-5.17452c0,0 -6.56258,3.42021 -13.16758,6.31349z" data-paper-data="{&quot;index&quot;:null}" fill="url(#color-14)"/></g></g><g><g><path d="M239.71585,180.13759c0,0 -2.11648,6.86858 -4.67529,13.5003c-2.51715,6.52372 -5.47648,12.81266 -5.57594,12.77362c-0.09796,-0.03845 1.90707,-6.47748 4.43219,-12.88048c2.64545,-6.7081 5.81904,-13.39343 5.81904,-13.39343z" fill="url(#color-15)"/><path d="M245.08517,165.03071c2.50522,-6.41083 5.41612,-12.49422 5.51407,-12.45577c0.09947,0.03905 -2.00991,6.66166 -4.60308,13.15554c-2.6361,6.60138 -5.75756,13.07544 -5.75756,13.07544c0,0 2.22199,-7.0589 4.84657,-13.7752z" data-paper-data="{&quot;index&quot;:null}" fill="url(#color-16)"/></g><g><path d="M240.66042,179.77291c0,0 6.86858,2.11647 13.5003,4.67529c6.52372,2.51715 12.81267,5.47647 12.77362,5.57594c-0.03845,0.09796 -6.47748,-1.90707 -12.88048,-4.43219c-6.7081,-2.64545 -13.39343,-5.81904 -13.39343,-5.81904z" fill="url(#color-17)"/><path d="M225.55354,174.40356c-6.41082,-2.50521 -12.49422,-5.41612 -12.45577,-5.51407c0.03905,-0.09947 6.66166,2.0099 13.15554,4.60308c6.60138,2.6361 13.07543,5.75755 13.07543,5.75755c0,0 -7.0589,-2.22199 -13.77519,-4.84656z" data-paper-data="{&quot;index&quot;:null}" fill="url(#color-18)"/></g></g></g></g></g></g></svg>