<svg version="1.1" xmlns="http://www.w3.org/2000/svg" xmlns:xlink="http://www.w3.org/1999/xlink" width="560" height="340" viewBox="0,0,560,340"><defs><radialGradient cx="244.68456" cy="189.52893" r="4.76095" gradientUnits="userSpaceOnUse" id="color-1"><stop offset="0" stop-color="#feffbc"/><stop offset="1" stop-color="#ffe68d"/></radialGradient><linearGradient x1="244.69455" y1="181.40337" x2="244.69455" y2="193.99146" gradientUnits="userSpaceOnUse" id="color-2"><stop offset="0" stop-color="#0ca8ff"/><stop offset="1" stop-color="#006cd1"/></linearGradient><radialGradient cx="243.19853" cy="188.83355" r="1.00122" gradientUnits="userSpaceOnUse" id="color-3"><stop offset="0" stop-color="#747474"/><stop offset="1" stop-color="#2e2e2f"/></radialGradient><radialGradient cx="246.23153" cy="188.83355" r="1.00124" gradientUnits="userSpaceOnUse" id="color-4"><stop offset="0" stop-color="#747474"/><stop offset="1" stop-color="#2e2e2f"/></radialGradient><radialGradient cx="243.19853" cy="188.83355" r="1.00122" gradientUnits="userSpaceOnUse" id="color-5"><stop offset="0" stop-color="#747474"/><stop offset="1" stop-color="#2e2e2f"/></radialGradient><radialGradient cx="243.18107" cy="188.55911" r="0.47751" gradientUnits="userSpaceOnUse" id="color-6"><stop offset="0" stop-color="#ffffff"/><stop offset="1" stop-color="#ffffff" stop-opacity="0"/></radialGradient><radialGradient cx="246.23153" cy="188.83355" r="1.00124" gradientUnits="userSpaceOnUse" id="color-7"><stop offset="0" stop-color="#747474"/><stop offset="1" stop-color="#2e2e2f"/></radialGradient><radialGradient cx="246.21409" cy="188.55911" r="0.4775" gradientUnits="userSpaceOnUse" id="color-8"><stop offset="0" stop-color="#ffffff"/><stop offset="1" stop-color="#ffffff" stop-opacity="0"/></radialGradient><radialGradient cx="244.68456" cy="189.52893" r="4.76095" gradientUnits="userSpaceOnUse" id="color-9"><stop offset="0" stop-color="#feffbc"/><stop offset="1" stop-color="#ffe68d"/></radialGradient><linearGradient x1="244.68456" y1="186.79346" x2="244.68456" y2="193.37361" gradientUnits="userSpaceOnUse" id="color-10"><stop offset="0" stop-color="#ebc578" stop-opacity="0"/><stop offset="1" stop-color="#ebc578"/></linearGradient><linearGradient x1="244.69455" y1="181.40338" x2="244.69455" y2="193.99146" gradientUnits="userSpaceOnUse" id="color-11"><stop offset="0" stop-color="#0ca8ff"/><stop offset="1" stop-color="#006cd1"/></linearGradient><radialGradient cx="244.65122" cy="182.38694" r="7.5002" gradientUnits="userSpaceOnUse" id="color-12"><stop offset="0" stop-color="#2fb0ff"/><stop offset="1" stop-color="#2fb0ff" stop-opacity="0"/></radialGradient><radialGradient cx="243.19853" cy="188.83356" r="1.00122" gradientUnits="userSpaceOnUse" id="color-13"><stop offset="0" stop-color="#747474"/><stop offset="1" stop-color="#2e2e2f"/></radialGradient><radialGradient cx="243.18569" cy="189.07048" r="1.15109" gradientUnits="userSpaceOnUse" id="color-14"><stop offset="0" stop-color="#636364"/><stop offset="1" stop-color="#2e2e2f"/></radialGradient><radialGradient cx="243.18107" cy="188.55911" r="0.47751" gradientUnits="userSpaceOnUse" id="color-15"><stop offset="0" stop-color="#ffffff"/><stop offset="1" stop-color="#ffffff" stop-opacity="0"/></radialGradient><radialGradient cx="246.23153" cy="188.83356" r="1.00124" gradientUnits="userSpaceOnUse" id="color-16"><stop offset="0" stop-color="#747474"/><stop offset="1" stop-color="#2e2e2f"/></radialGradient><radialGradient cx="246.21869" cy="189.07048" r="1.15109" gradientUnits="userSpaceOnUse" id="color-17"><stop offset="0" stop-color="#636364"/><stop offset="1" stop-color="#2e2e2f"/></radialGradient><radialGradient cx="246.21409" cy="188.55911" r="0.4775" gradientUnits="userSpaceOnUse" id="color-18"><stop offset="0" stop-color="#ffffff"/><stop offset="1" stop-color="#ffffff" stop-opacity="0"/></radialGradient><radialGradient cx="264.49573" cy="189.60232" r="4.77048" gradientUnits="userSpaceOnUse" id="color-19"><stop offset="0" stop-color="#feffbc"/><stop offset="1" stop-color="#ffe68d"/></radialGradient><linearGradient x1="264.49573" y1="186.86139" x2="264.49573" y2="193.45469" gradientUnits="userSpaceOnUse" id="color-20"><stop offset="0" stop-color="#ebc578" stop-opacity="0"/><stop offset="1" stop-color="#ebc578"/></linearGradient><linearGradient x1="264.50573" y1="181.4605" x2="264.50573" y2="194.07378" gradientUnits="userSpaceOnUse" id="color-21"><stop offset="0" stop-color="#5fdd29"/><stop offset="1" stop-color="#357e12"/></linearGradient><radialGradient cx="263.00671" cy="188.90555" r="1.00323" gradientUnits="userSpaceOnUse" id="color-22"><stop offset="0" stop-color="#747474"/><stop offset="1" stop-color="#2e2e2f"/></radialGradient><radialGradient cx="262.98923" cy="188.63056" r="0.47846" gradientUnits="userSpaceOnUse" id="color-23"><stop offset="0" stop-color="#ffffff"/><stop offset="1" stop-color="#ffffff" stop-opacity="0"/></radialGradient><radialGradient cx="266.04579" cy="188.90555" r="1.00323" gradientUnits="userSpaceOnUse" id="color-24"><stop offset="0" stop-color="#747474"/><stop offset="1" stop-color="#2e2e2f"/></radialGradient><radialGradient cx="266.02831" cy="188.63056" r="0.47845" gradientUnits="userSpaceOnUse" id="color-25"><stop offset="0" stop-color="#ffffff"/><stop offset="1" stop-color="#ffffff" stop-opacity="0"/></radialGradient><radialGradient cx="264.49572" cy="189.60232" r="4.77048" gradientUnits="userSpaceOnUse" id="color-26"><stop offset="0" stop-color="#feffbc"/><stop offset="1" stop-color="#ffe68d"/></radialGradient><linearGradient x1="264.49572" y1="186.86138" x2="264.49572" y2="193.45469" gradientUnits="userSpaceOnUse" id="color-27"><stop offset="0" stop-color="#ebc578" stop-opacity="0"/><stop offset="1" stop-color="#ebc578"/></linearGradient><linearGradient x1="264.50573" y1="181.4605" x2="264.50573" y2="194.07378" gradientUnits="userSpaceOnUse" id="color-28"><stop offset="0" stop-color="#5fdd29"/><stop offset="1" stop-color="#357e12"/></linearGradient><radialGradient cx="264.46231" cy="182.44604" r="7.51521" gradientUnits="userSpaceOnUse" id="color-29"><stop offset="0" stop-color="#4dff00"/><stop offset="1" stop-color="#4dff00" stop-opacity="0"/></radialGradient><radialGradient cx="263.0067" cy="188.90555" r="1.00323" gradientUnits="userSpaceOnUse" id="color-30"><stop offset="0" stop-color="#747474"/><stop offset="1" stop-color="#2e2e2f"/></radialGradient><radialGradient cx="262.99385" cy="189.14295" r="1.15339" gradientUnits="userSpaceOnUse" id="color-31"><stop offset="0" stop-color="#636364"/><stop offset="1" stop-color="#2e2e2f"/></radialGradient><radialGradient cx="262.98923" cy="188.63056" r="0.47846" gradientUnits="userSpaceOnUse" id="color-32"><stop offset="0" stop-color="#ffffff"/><stop offset="1" stop-color="#ffffff" stop-opacity="0"/></radialGradient><radialGradient cx="266.04579" cy="188.90555" r="1.00323" gradientUnits="userSpaceOnUse" id="color-33"><stop offset="0" stop-color="#747474"/><stop offset="1" stop-color="#2e2e2f"/></radialGradient><radialGradient cx="266.03293" cy="189.14295" r="1.15339" gradientUnits="userSpaceOnUse" id="color-34"><stop offset="0" stop-color="#636364"/><stop offset="1" stop-color="#2e2e2f"/></radialGradient><radialGradient cx="266.02831" cy="188.63056" r="0.47846" gradientUnits="userSpaceOnUse" id="color-35"><stop offset="0" stop-color="#ffffff"/><stop offset="1" stop-color="#ffffff" stop-opacity="0"/></radialGradient><radialGradient cx="216.50942" cy="189.90203" r="3.6323" gradientUnits="userSpaceOnUse" id="color-36"><stop offset="0" stop-color="#79cc37"/><stop offset="1" stop-color="#479115"/></radialGradient><radialGradient cx="216.55803" cy="189.69278" r="3.29208" gradientUnits="userSpaceOnUse" id="color-37"><stop offset="0" stop-color="#76c935"/><stop offset="1" stop-color="#64b927"/></radialGradient><linearGradient x1="219.81768" y1="191.22869" x2="212.90521" y2="187.45825" gradientUnits="userSpaceOnUse" id="color-38"><stop offset="0" stop-color="#509b20"/><stop offset="1" stop-color="#64b927"/></linearGradient><radialGradient cx="225.1853" cy="189.90203" r="3.6323" gradientUnits="userSpaceOnUse" id="color-39"><stop offset="0" stop-color="#79cc37"/><stop offset="1" stop-color="#479115"/></radialGradient><radialGradient cx="225.1367" cy="189.69278" r="3.29208" gradientUnits="userSpaceOnUse" id="color-40"><stop offset="0" stop-color="#76c935"/><stop offset="1" stop-color="#64b927"/></radialGradient><linearGradient x1="221.87705" y1="191.22869" x2="228.78952" y2="187.45825" gradientUnits="userSpaceOnUse" id="color-41"><stop offset="0" stop-color="#509b20"/><stop offset="1" stop-color="#64b927"/></linearGradient><linearGradient x1="220.76447" y1="187.29601" x2="220.76447" y2="192.81286" gradientUnits="userSpaceOnUse" id="color-42"><stop offset="0" stop-color="#76c934"/><stop offset="1" stop-color="#398b10"/></linearGradient><linearGradient x1="219.85272" y1="192.805" x2="221.6915" y2="191.10662" gradientUnits="userSpaceOnUse" id="color-43"><stop offset="0" stop-color="#2a650b"/><stop offset="1" stop-color="#2a650b" stop-opacity="0"/></linearGradient><radialGradient cx="220.98927" cy="182.16217" r="9.20446" gradientUnits="userSpaceOnUse" id="color-44"><stop offset="0" stop-color="#ff441f"/><stop offset="1" stop-color="#ab2d14"/></radialGradient><radialGradient cx="220.98927" cy="181.94345" r="8.8444" gradientUnits="userSpaceOnUse" id="color-45"><stop offset="0" stop-color="#ff441f"/><stop offset="1" stop-color="#e03b1a"/></radialGradient><radialGradient cx="220.98927" cy="181.907" r="7.05371" gradientUnits="userSpaceOnUse" id="color-46"><stop offset="0" stop-color="#e6cc27"/><stop offset="1" stop-color="#ffea29"/></radialGradient><radialGradient cx="220.98927" cy="181.907" r="5.83636" gradientUnits="userSpaceOnUse" id="color-47"><stop offset="0" stop-color="#ac991d"/><stop offset="1" stop-color="#ac991d" stop-opacity="0"/></radialGradient><radialGradient cx="220.86095" cy="181.04184" r="4.31736" gradientUnits="userSpaceOnUse" id="color-48"><stop offset="0" stop-color="#fefefe"/><stop offset="1" stop-color="#bbbbbb"/></radialGradient><radialGradient cx="220.86685" cy="181.11959" r="4.03998" gradientUnits="userSpaceOnUse" id="color-49"><stop offset="0" stop-color="#fefefe"/><stop offset="1" stop-color="#fefefe" stop-opacity="0"/></radialGradient><radialGradient cx="220.87116" cy="181.18185" r="3.83766" gradientUnits="userSpaceOnUse" id="color-50"><stop offset="0" stop-color="#fefefe"/><stop offset="1" stop-color="#fefefe" stop-opacity="0"/></radialGradient><radialGradient cx="219.0668" cy="181.45223" r="1.73964" gradientUnits="userSpaceOnUse" id="color-51"><stop offset="0" stop-color="#747474"/><stop offset="1" stop-color="#2e2e2f"/></radialGradient><radialGradient cx="219.05344" cy="180.75646" r="0.57648" gradientUnits="userSpaceOnUse" id="color-52"><stop offset="0" stop-color="#ffffff"/><stop offset="1" stop-color="#ffffff" stop-opacity="0"/></radialGradient><radialGradient cx="222.8091" cy="181.45223" r="1.73964" gradientUnits="userSpaceOnUse" id="color-53"><stop offset="0" stop-color="#747474"/><stop offset="1" stop-color="#2e2e2f"/></radialGradient><radialGradient cx="222.79574" cy="180.75646" r="0.57648" gradientUnits="userSpaceOnUse" id="color-54"><stop offset="0" stop-color="#ffffff"/><stop offset="1" stop-color="#ffffff" stop-opacity="0"/></radialGradient><radialGradient cx="216.50942" cy="189.90203" r="3.6323" gradientUnits="userSpaceOnUse" id="color-55"><stop offset="0" stop-color="#79cc37"/><stop offset="1" stop-color="#479115"/></radialGradient><radialGradient cx="216.55803" cy="189.69278" r="3.29208" gradientUnits="userSpaceOnUse" id="color-56"><stop offset="0" stop-color="#76c935"/><stop offset="1" stop-color="#64b927"/></radialGradient><linearGradient x1="219.81768" y1="191.22869" x2="212.90521" y2="187.45825" gradientUnits="userSpaceOnUse" id="color-57"><stop offset="0" stop-color="#509b20"/><stop offset="1" stop-color="#64b927"/></linearGradient><radialGradient cx="225.1853" cy="189.90203" r="3.6323" gradientUnits="userSpaceOnUse" id="color-58"><stop offset="0" stop-color="#79cc37"/><stop offset="1" stop-color="#479115"/></radialGradient><radialGradient cx="225.1367" cy="189.69278" r="3.29208" gradientUnits="userSpaceOnUse" id="color-59"><stop offset="0" stop-color="#76c935"/><stop offset="1" stop-color="#64b927"/></radialGradient><linearGradient x1="221.87704" y1="191.22869" x2="228.78951" y2="187.45825" gradientUnits="userSpaceOnUse" id="color-60"><stop offset="0" stop-color="#509b20"/><stop offset="1" stop-color="#64b927"/></linearGradient><linearGradient x1="220.76447" y1="187.29601" x2="220.76447" y2="192.81286" gradientUnits="userSpaceOnUse" id="color-61"><stop offset="0" stop-color="#76c934"/><stop offset="1" stop-color="#398b10"/></linearGradient><linearGradient x1="219.85271" y1="192.805" x2="221.6915" y2="191.10663" gradientUnits="userSpaceOnUse" id="color-62"><stop offset="0" stop-color="#2a650b"/><stop offset="1" stop-color="#2a650b" stop-opacity="0"/></linearGradient><radialGradient cx="220.98926" cy="182.16217" r="9.20445" gradientUnits="userSpaceOnUse" id="color-63"><stop offset="0" stop-color="#ff441f"/><stop offset="1" stop-color="#ab2d14"/></radialGradient><radialGradient cx="220.98926" cy="181.94346" r="8.8444" gradientUnits="userSpaceOnUse" id="color-64"><stop offset="0" stop-color="#ff441f"/><stop offset="1" stop-color="#e03b1a"/></radialGradient><radialGradient cx="220.98926" cy="181.90701" r="7.05371" gradientUnits="userSpaceOnUse" id="color-65"><stop offset="0" stop-color="#e6cc27"/><stop offset="1" stop-color="#ffea29"/></radialGradient><radialGradient cx="220.98926" cy="181.90701" r="5.83636" gradientUnits="userSpaceOnUse" id="color-66"><stop offset="0" stop-color="#ac991d"/><stop offset="1" stop-color="#ac991d" stop-opacity="0"/></radialGradient><radialGradient cx="220.86095" cy="181.04184" r="4.31736" gradientUnits="userSpaceOnUse" id="color-67"><stop offset="0" stop-color="#fefefe"/><stop offset="1" stop-color="#bbbbbb"/></radialGradient><radialGradient cx="220.86685" cy="181.11959" r="4.03998" gradientUnits="userSpaceOnUse" id="color-68"><stop offset="0" stop-color="#fefefe"/><stop offset="1" stop-color="#fefefe" stop-opacity="0"/></radialGradient><radialGradient cx="220.87116" cy="181.18185" r="3.83766" gradientUnits="userSpaceOnUse" id="color-69"><stop offset="0" stop-color="#fefefe"/><stop offset="1" stop-color="#fefefe" stop-opacity="0"/></radialGradient><radialGradient cx="219.0668" cy="181.45223" r="1.73964" gradientUnits="userSpaceOnUse" id="color-70"><stop offset="0" stop-color="#747474"/><stop offset="1" stop-color="#2e2e2f"/></radialGradient><radialGradient cx="219.05344" cy="180.75646" r="0.57648" gradientUnits="userSpaceOnUse" id="color-71"><stop offset="0" stop-color="#ffffff"/><stop offset="1" stop-color="#ffffff" stop-opacity="0"/></radialGradient><radialGradient cx="222.8091" cy="181.45223" r="1.73964" gradientUnits="userSpaceOnUse" id="color-72"><stop offset="0" stop-color="#747474"/><stop offset="1" stop-color="#2e2e2f"/></radialGradient><radialGradient cx="222.79574" cy="180.75646" r="0.57648" gradientUnits="userSpaceOnUse" id="color-73"><stop offset="0" stop-color="#ffffff"/><stop offset="1" stop-color="#ffffff" stop-opacity="0"/></radialGradient><radialGradient cx="227.47592" cy="190.66858" r="3.13754" gradientUnits="userSpaceOnUse" id="color-74"><stop offset="0" stop-color="#feffbc"/><stop offset="1" stop-color="#ffe68d"/></radialGradient><linearGradient x1="227.47593" y1="188.86586" x2="227.47593" y2="193.20228" gradientUnits="userSpaceOnUse" id="color-75"><stop offset="0" stop-color="#ebc578" stop-opacity="0"/><stop offset="1" stop-color="#ebc578"/></linearGradient><linearGradient x1="227.4825" y1="185.31371" x2="227.4825" y2="193.60946" gradientUnits="userSpaceOnUse" id="color-76"><stop offset="0" stop-color="#f20000"/><stop offset="1" stop-color="#740000"/></linearGradient><radialGradient cx="226.4966" cy="190.21032" r="0.65982" gradientUnits="userSpaceOnUse" id="color-77"><stop offset="0" stop-color="#747474"/><stop offset="1" stop-color="#2e2e2f"/></radialGradient><radialGradient cx="226.4851" cy="190.02946" r="0.31468" gradientUnits="userSpaceOnUse" id="color-78"><stop offset="0" stop-color="#ffffff"/><stop offset="1" stop-color="#ffffff" stop-opacity="0"/></radialGradient><radialGradient cx="228.4954" cy="190.21033" r="0.65982" gradientUnits="userSpaceOnUse" id="color-79"><stop offset="0" stop-color="#747474"/><stop offset="1" stop-color="#2e2e2f"/></radialGradient><radialGradient cx="228.4839" cy="190.02946" r="0.31468" gradientUnits="userSpaceOnUse" id="color-80"><stop offset="0" stop-color="#ffffff"/><stop offset="1" stop-color="#ffffff" stop-opacity="0"/></radialGradient><radialGradient cx="227.47592" cy="190.66858" r="3.13754" gradientUnits="userSpaceOnUse" id="color-81"><stop offset="0" stop-color="#feffbc"/><stop offset="1" stop-color="#ffe68d"/></radialGradient><linearGradient x1="227.47592" y1="188.86586" x2="227.47592" y2="193.20228" gradientUnits="userSpaceOnUse" id="color-82"><stop offset="0" stop-color="#ebc578" stop-opacity="0"/><stop offset="1" stop-color="#ebc578"/></linearGradient><linearGradient x1="227.4825" y1="185.31371" x2="227.4825" y2="193.60946" gradientUnits="userSpaceOnUse" id="color-83"><stop offset="0" stop-color="#f20000"/><stop offset="1" stop-color="#740000"/></linearGradient><radialGradient cx="226.4966" cy="190.21032" r="0.65983" gradientUnits="userSpaceOnUse" id="color-84"><stop offset="0" stop-color="#747474"/><stop offset="1" stop-color="#2e2e2f"/></radialGradient><radialGradient cx="226.48814" cy="190.36645" r="0.75858" gradientUnits="userSpaceOnUse" id="color-85"><stop offset="0" stop-color="#636364"/><stop offset="1" stop-color="#2e2e2f"/></radialGradient><radialGradient cx="226.4851" cy="190.02945" r="0.31468" gradientUnits="userSpaceOnUse" id="color-86"><stop offset="0" stop-color="#ffffff"/><stop offset="1" stop-color="#ffffff" stop-opacity="0"/></radialGradient><radialGradient cx="228.4954" cy="190.21032" r="0.65983" gradientUnits="userSpaceOnUse" id="color-87"><stop offset="0" stop-color="#747474"/><stop offset="1" stop-color="#2e2e2f"/></radialGradient><radialGradient cx="228.48694" cy="190.36645" r="0.75858" gradientUnits="userSpaceOnUse" id="color-88"><stop offset="0" stop-color="#636364"/><stop offset="1" stop-color="#2e2e2f"/></radialGradient><radialGradient cx="228.4839" cy="190.02945" r="0.31468" gradientUnits="userSpaceOnUse" id="color-89"><stop offset="0" stop-color="#ffffff"/><stop offset="1" stop-color="#ffffff" stop-opacity="0"/></radialGradient><radialGradient cx="227.45395" cy="185.96189" r="4.94275" gradientUnits="userSpaceOnUse" id="color-90"><stop offset="0" stop-color="#ff2929"/><stop offset="1" stop-color="#ff2929" stop-opacity="0"/></radialGradient><radialGradient cx="26.45374" cy="153.49774" r="24.42619" gradientUnits="userSpaceOnUse" id="color-91"><stop offset="0" stop-color="#79cc37"/><stop offset="1" stop-color="#479115"/></radialGradient><radialGradient cx="26.78058" cy="152.09057" r="22.13825" gradientUnits="userSpaceOnUse" id="color-92"><stop offset="0" stop-color="#76c935"/><stop offset="1" stop-color="#64b927"/></radialGradient><linearGradient x1="48.70081" y1="162.41911" x2="2.21645" y2="137.064" gradientUnits="userSpaceOnUse" id="color-93"><stop offset="0" stop-color="#509b20"/><stop offset="1" stop-color="#64b927"/></linearGradient><radialGradient cx="84.79652" cy="153.49774" r="24.42619" gradientUnits="userSpaceOnUse" id="color-94"><stop offset="0" stop-color="#79cc37"/><stop offset="1" stop-color="#479115"/></radialGradient><radialGradient cx="84.46968" cy="152.09057" r="22.13824" gradientUnits="userSpaceOnUse" id="color-95"><stop offset="0" stop-color="#76c935"/><stop offset="1" stop-color="#64b927"/></radialGradient><linearGradient x1="62.54945" y1="162.41911" x2="109.0338" y2="137.064" gradientUnits="userSpaceOnUse" id="color-96"><stop offset="0" stop-color="#509b20"/><stop offset="1" stop-color="#64b927"/></linearGradient><linearGradient x1="55.0677" y1="135.97299" x2="55.0677" y2="173.0722" gradientUnits="userSpaceOnUse" id="color-97"><stop offset="0" stop-color="#76c934"/><stop offset="1" stop-color="#398b10"/></linearGradient><linearGradient x1="48.9364" y1="173.01938" x2="61.3017" y2="161.59824" gradientUnits="userSpaceOnUse" id="color-98"><stop offset="0" stop-color="#2a650b"/><stop offset="1" stop-color="#2a650b" stop-opacity="0"/></linearGradient><radialGradient cx="56.57939" cy="101.44941" r="61.89728" gradientUnits="userSpaceOnUse" id="color-99"><stop offset="0" stop-color="#ff441f"/><stop offset="1" stop-color="#ab2d14"/></radialGradient><radialGradient cx="56.57939" cy="99.97859" r="59.47608" gradientUnits="userSpaceOnUse" id="color-100"><stop offset="0" stop-color="#ff441f"/><stop offset="1" stop-color="#e03b1a"/></radialGradient><radialGradient cx="56.57939" cy="99.73345" r="47.43416" gradientUnits="userSpaceOnUse" id="color-101"><stop offset="0" stop-color="#e6cc27"/><stop offset="1" stop-color="#ffea29"/></radialGradient><radialGradient cx="56.57939" cy="99.73345" r="39.24785" gradientUnits="userSpaceOnUse" id="color-102"><stop offset="0" stop-color="#ac991d"/><stop offset="1" stop-color="#ac991d" stop-opacity="0"/></radialGradient><radialGradient cx="55.71653" cy="93.91548" r="29.03301" gradientUnits="userSpaceOnUse" id="color-103"><stop offset="0" stop-color="#fefefe"/><stop offset="1" stop-color="#bbbbbb"/></radialGradient><radialGradient cx="55.7562" cy="94.43836" r="27.1677" gradientUnits="userSpaceOnUse" id="color-104"><stop offset="0" stop-color="#fefefe"/><stop offset="1" stop-color="#fefefe" stop-opacity="0"/></radialGradient><radialGradient cx="55.78516" cy="94.85703" r="25.80716" gradientUnits="userSpaceOnUse" id="color-105"><stop offset="0" stop-color="#fefefe"/><stop offset="1" stop-color="#fefefe" stop-opacity="0"/></radialGradient><radialGradient cx="43.65133" cy="96.67525" r="11.69862" gradientUnits="userSpaceOnUse" id="color-106"><stop offset="0" stop-color="#747474"/><stop offset="1" stop-color="#2e2e2f"/></radialGradient><radialGradient cx="43.56151" cy="91.99637" r="3.87665" gradientUnits="userSpaceOnUse" id="color-107"><stop offset="0" stop-color="#ffffff"/><stop offset="1" stop-color="#ffffff" stop-opacity="0"/></radialGradient><radialGradient cx="68.81724" cy="96.67525" r="11.69862" gradientUnits="userSpaceOnUse" id="color-108"><stop offset="0" stop-color="#747474"/><stop offset="1" stop-color="#2e2e2f"/></radialGradient><radialGradient cx="68.72741" cy="91.99637" r="3.87666" gradientUnits="userSpaceOnUse" id="color-109"><stop offset="0" stop-color="#ffffff"/><stop offset="1" stop-color="#ffffff" stop-opacity="0"/></radialGradient><radialGradient cx="183.92341" cy="145.52851" r="36.21546" gradientUnits="userSpaceOnUse" id="color-110"><stop offset="0" stop-color="#feffbc"/><stop offset="1" stop-color="#ffe68d"/></radialGradient><linearGradient x1="183.92342" y1="124.72048" x2="183.92342" y2="174.77408" gradientUnits="userSpaceOnUse" id="color-111"><stop offset="0" stop-color="#ebc578" stop-opacity="0"/><stop offset="1" stop-color="#ebc578"/></linearGradient><linearGradient x1="183.99936" y1="83.71929" x2="183.99936" y2="179.47395" gradientUnits="userSpaceOnUse" id="color-112"><stop offset="0" stop-color="#f20000"/><stop offset="1" stop-color="#740000"/></linearGradient><radialGradient cx="172.61946" cy="140.239" r="7.6161" gradientUnits="userSpaceOnUse" id="color-113"><stop offset="0" stop-color="#747474"/><stop offset="1" stop-color="#2e2e2f"/></radialGradient><radialGradient cx="172.48676" cy="138.15134" r="3.63224" gradientUnits="userSpaceOnUse" id="color-114"><stop offset="0" stop-color="#ffffff"/><stop offset="1" stop-color="#ffffff" stop-opacity="0"/></radialGradient><radialGradient cx="195.69087" cy="140.239" r="7.6161" gradientUnits="userSpaceOnUse" id="color-115"><stop offset="0" stop-color="#747474"/><stop offset="1" stop-color="#2e2e2f"/></radialGradient><radialGradient cx="195.55817" cy="138.15134" r="3.63224" gradientUnits="userSpaceOnUse" id="color-116"><stop offset="0" stop-color="#ffffff"/><stop offset="1" stop-color="#ffffff" stop-opacity="0"/></radialGradient><radialGradient cx="172.61946" cy="140.239" r="7.6161" gradientUnits="userSpaceOnUse" id="color-117"><stop offset="0" stop-color="#747474"/><stop offset="1" stop-color="#2e2e2f"/></radialGradient><radialGradient cx="172.52181" cy="142.0412" r="8.75606" gradientUnits="userSpaceOnUse" id="color-118"><stop offset="0" stop-color="#636364"/><stop offset="1" stop-color="#2e2e2f"/></radialGradient><radialGradient cx="172.48676" cy="138.15134" r="3.63224" gradientUnits="userSpaceOnUse" id="color-119"><stop offset="0" stop-color="#ffffff"/><stop offset="1" stop-color="#ffffff" stop-opacity="0"/></radialGradient><radialGradient cx="195.69087" cy="140.239" r="7.6161" gradientUnits="userSpaceOnUse" id="color-120"><stop offset="0" stop-color="#747474"/><stop offset="1" stop-color="#2e2e2f"/></radialGradient><radialGradient cx="195.59322" cy="142.04121" r="8.75606" gradientUnits="userSpaceOnUse" id="color-121"><stop offset="0" stop-color="#636364"/><stop offset="1" stop-color="#2e2e2f"/></radialGradient><radialGradient cx="195.55817" cy="138.15134" r="3.63224" gradientUnits="userSpaceOnUse" id="color-122"><stop offset="0" stop-color="#ffffff"/><stop offset="1" stop-color="#ffffff" stop-opacity="0"/></radialGradient><radialGradient cx="183.66978" cy="91.20103" r="57.05229" gradientUnits="userSpaceOnUse" id="color-123"><stop offset="0" stop-color="#ff2929"/><stop offset="1" stop-color="#ff2929" stop-opacity="0"/></radialGradient><radialGradient cx="306.53144" cy="145.52851" r="36.21546" gradientUnits="userSpaceOnUse" id="color-124"><stop offset="0" stop-color="#feffbc"/><stop offset="1" stop-color="#ffe68d"/></radialGradient><linearGradient x1="306.53146" y1="124.72048" x2="306.53146" y2="174.77408" gradientUnits="userSpaceOnUse" id="color-125"><stop offset="0" stop-color="#ebc578" stop-opacity="0"/><stop offset="1" stop-color="#ebc578"/></linearGradient><linearGradient x1="306.6074" y1="83.71929" x2="306.6074" y2="179.47395" gradientUnits="userSpaceOnUse" id="color-126"><stop offset="0" stop-color="#5fdd29"/><stop offset="1" stop-color="#357e12"/></linearGradient><radialGradient cx="306.27781" cy="91.20103" r="57.05229" gradientUnits="userSpaceOnUse" id="color-127"><stop offset="0" stop-color="#4dff00"/><stop offset="1" stop-color="#4dff00" stop-opacity="0"/></radialGradient><radialGradient cx="295.2275" cy="140.239" r="7.6161" gradientUnits="userSpaceOnUse" id="color-128"><stop offset="0" stop-color="#747474"/><stop offset="1" stop-color="#2e2e2f"/></radialGradient><radialGradient cx="295.0948" cy="138.15134" r="3.63224" gradientUnits="userSpaceOnUse" id="color-129"><stop offset="0" stop-color="#ffffff"/><stop offset="1" stop-color="#ffffff" stop-opacity="0"/></radialGradient><radialGradient cx="318.2989" cy="140.239" r="7.6161" gradientUnits="userSpaceOnUse" id="color-130"><stop offset="0" stop-color="#747474"/><stop offset="1" stop-color="#2e2e2f"/></radialGradient><radialGradient cx="318.1662" cy="138.15134" r="3.63224" gradientUnits="userSpaceOnUse" id="color-131"><stop offset="0" stop-color="#ffffff"/><stop offset="1" stop-color="#ffffff" stop-opacity="0"/></radialGradient><radialGradient cx="295.2275" cy="140.239" r="7.6161" gradientUnits="userSpaceOnUse" id="color-132"><stop offset="0" stop-color="#747474"/><stop offset="1" stop-color="#2e2e2f"/></radialGradient><radialGradient cx="295.12985" cy="142.0412" r="8.75606" gradientUnits="userSpaceOnUse" id="color-133"><stop offset="0" stop-color="#636364"/><stop offset="1" stop-color="#2e2e2f"/></radialGradient><radialGradient cx="295.0948" cy="138.15134" r="3.63224" gradientUnits="userSpaceOnUse" id="color-134"><stop offset="0" stop-color="#ffffff"/><stop offset="1" stop-color="#ffffff" stop-opacity="0"/></radialGradient><radialGradient cx="318.29891" cy="140.239" r="7.6161" gradientUnits="userSpaceOnUse" id="color-135"><stop offset="0" stop-color="#747474"/><stop offset="1" stop-color="#2e2e2f"/></radialGradient><radialGradient cx="318.20125" cy="142.04121" r="8.75606" gradientUnits="userSpaceOnUse" id="color-136"><stop offset="0" stop-color="#636364"/><stop offset="1" stop-color="#2e2e2f"/></radialGradient><radialGradient cx="318.1662" cy="138.15134" r="3.63224" gradientUnits="userSpaceOnUse" id="color-137"><stop offset="0" stop-color="#ffffff"/><stop offset="1" stop-color="#ffffff" stop-opacity="0"/></radialGradient><radialGradient cx="433.09459" cy="145.52851" r="36.21546" gradientUnits="userSpaceOnUse" id="color-138"><stop offset="0" stop-color="#feffbc"/><stop offset="1" stop-color="#ffe68d"/></radialGradient><linearGradient x1="433.0946" y1="124.72048" x2="433.0946" y2="174.77408" gradientUnits="userSpaceOnUse" id="color-139"><stop offset="0" stop-color="#ebc578" stop-opacity="0"/><stop offset="1" stop-color="#ebc578"/></linearGradient><linearGradient x1="433.17054" y1="83.71929" x2="433.17054" y2="179.47395" gradientUnits="userSpaceOnUse" id="color-140"><stop offset="0" stop-color="#0ca8ff"/><stop offset="1" stop-color="#006cd1"/></linearGradient><radialGradient cx="432.84095" cy="91.20103" r="57.05229" gradientUnits="userSpaceOnUse" id="color-141"><stop offset="0" stop-color="#2fb0ff"/><stop offset="1" stop-color="#2fb0ff" stop-opacity="0"/></radialGradient><radialGradient cx="421.79064" cy="140.239" r="7.6161" gradientUnits="userSpaceOnUse" id="color-142"><stop offset="0" stop-color="#747474"/><stop offset="1" stop-color="#2e2e2f"/></radialGradient><radialGradient cx="421.65794" cy="138.15134" r="3.63224" gradientUnits="userSpaceOnUse" id="color-143"><stop offset="0" stop-color="#ffffff"/><stop offset="1" stop-color="#ffffff" stop-opacity="0"/></radialGradient><radialGradient cx="444.86205" cy="140.239" r="7.6161" gradientUnits="userSpaceOnUse" id="color-144"><stop offset="0" stop-color="#747474"/><stop offset="1" stop-color="#2e2e2f"/></radialGradient><radialGradient cx="444.72935" cy="138.15134" r="3.63223" gradientUnits="userSpaceOnUse" id="color-145"><stop offset="0" stop-color="#ffffff"/><stop offset="1" stop-color="#ffffff" stop-opacity="0"/></radialGradient><radialGradient cx="421.79064" cy="140.239" r="7.6161" gradientUnits="userSpaceOnUse" id="color-146"><stop offset="0" stop-color="#747474"/><stop offset="1" stop-color="#2e2e2f"/></radialGradient><radialGradient cx="421.69299" cy="142.0412" r="8.75606" gradientUnits="userSpaceOnUse" id="color-147"><stop offset="0" stop-color="#636364"/><stop offset="1" stop-color="#2e2e2f"/></radialGradient><radialGradient cx="421.65794" cy="138.15134" r="3.63224" gradientUnits="userSpaceOnUse" id="color-148"><stop offset="0" stop-color="#ffffff"/><stop offset="1" stop-color="#ffffff" stop-opacity="0"/></radialGradient><radialGradient cx="444.86205" cy="140.239" r="7.6161" gradientUnits="userSpaceOnUse" id="color-149"><stop offset="0" stop-color="#747474"/><stop offset="1" stop-color="#2e2e2f"/></radialGradient><radialGradient cx="444.7644" cy="142.04121" r="8.75606" gradientUnits="userSpaceOnUse" id="color-150"><stop offset="0" stop-color="#636364"/><stop offset="1" stop-color="#2e2e2f"/></radialGradient><radialGradient cx="444.72935" cy="138.15134" r="3.63224" gradientUnits="userSpaceOnUse" id="color-151"><stop offset="0" stop-color="#ffffff"/><stop offset="1" stop-color="#ffffff" stop-opacity="0"/></radialGradient></defs><g transform="translate(40,-10)"><g data-paper-data="{&quot;isPaintingLayer&quot;:true}" fill-rule="nonzero" stroke-linecap="butt" stroke-linejoin="miter" stroke-miterlimit="10" stroke-dasharray="" stroke-dashoffset="0" style="mix-blend-mode: normal"><g><g stroke="#000000" stroke-width="4"><path d="M249.02991,188.1569c0.29301,0.34801 0.69831,1.95162 0.12847,2.9809c-1.01071,1.82558 -3.81393,1.67836 -4.41184,1.67836c-2.89575,0 -3.88659,-0.6374 -4.45853,-1.8588c-0.26085,-0.55708 -0.72866,-2.35504 0.12674,-3.38229c0.95153,-1.1427 3.29973,-1.3362 4.33178,-1.3362c1.10744,0 3.36543,0.82781 4.28337,1.91804z" fill="url(#color-1)"/><path d="M249.15534,191.16433c-0.03012,0.01157 0.13178,-1.1858 0.13178,-1.1858c0,0 -0.42387,-0.92847 -1.6044,-1.62929c-0.83925,-0.49821 -2.09222,-0.84729 -3.04882,-0.81053c-1.12049,0.04813 -2.08144,0.33605 -2.90274,0.81174c-1.23091,0.71291 -1.71674,1.7245 -1.71674,1.7245c0,0 0.33007,0.97242 0.3259,0.97016c-0.8864,-0.48027 -1.44087,-0.88609 -1.84374,-1.38339c-1.11172,-1.08961 -1.38846,-3.17537 -1.19823,-4.61873c0.2773,-2.10395 1.51669,-4.21114 3.40609,-5.4151c1.37272,-0.87472 2.89955,-1.13619 3.99011,-1.13619c1.2957,0 3.26588,0.4111 4.8169,1.61419c1.55128,1.20328 2.12869,3.17269 2.50998,4.9891c0.17254,1.8082 -0.13139,3.56853 -1.10542,4.59945c0,0 -1.0542,1.19837 -1.76066,1.46989z" fill="url(#color-2)"/><g><g fill="url(#color-3)"><path d="M242.71074,189.79075v-1.48512c0,0 0.02918,-0.38689 0.46386,-0.38624c0.46794,0.0007 0.48602,0.38624 0.48602,0.38624v1.48512c0,0 -0.00534,0.43081 -0.47858,0.43081c-0.45222,0 -0.47129,-0.43081 -0.47129,-0.43081z"/></g><g fill="url(#color-4)"><path d="M245.74376,189.79075v-1.48512c0,0 0.02918,-0.38689 0.46388,-0.38624c0.46794,0.0007 0.486,0.38624 0.486,0.38624v1.48512c0,0 -0.00534,0.43081 -0.47858,0.43081c-0.45222,0 -0.4713,-0.43081 -0.4713,-0.43081z"/></g></g><g><g><path d="M242.71074,189.79075v-1.48512c0,0 0.02918,-0.38689 0.46386,-0.38624c0.46794,0.0007 0.48602,0.38624 0.48602,0.38624v1.48512c0,0 -0.00534,0.43081 -0.47858,0.43081c-0.45222,0 -0.47129,-0.43081 -0.47129,-0.43081z" fill="url(#color-5)"/><path d="M243.57431,188.55911c0,0.26371 -0.17606,0.4775 -0.39324,0.4775c-0.21718,0 -0.39323,-0.21379 -0.39323,-0.4775c0,-0.26371 0.17606,-0.4775 0.39323,-0.4775c0.21718,0 0.39324,0.21378 0.39324,0.4775z" fill="url(#color-6)"/><path d="M243.47819,188.55911c0,0.19925 -0.13303,0.36077 -0.29712,0.36077c-0.16409,0 -0.29711,-0.16152 -0.29711,-0.36077c0,-0.19925 0.13302,-0.36078 0.29711,-0.36078c0.16409,0 0.29712,0.16153 0.29712,0.36078z" fill="#ffffff"/></g><g><path d="M245.74376,189.79075v-1.48512c0,0 0.02918,-0.38689 0.46388,-0.38624c0.46794,0.0007 0.48601,0.38624 0.48601,0.38624v1.48512c0,0 -0.00534,0.43081 -0.47858,0.43081c-0.45222,0 -0.4713,-0.43081 -0.4713,-0.43081z" fill="url(#color-7)"/><path d="M246.60732,188.55911c0,0.26371 -0.17606,0.4775 -0.39324,0.4775c-0.21717,0 -0.39324,-0.21379 -0.39324,-0.4775c0,-0.26371 0.17606,-0.4775 0.39324,-0.4775c0.21718,0 0.39324,0.21378 0.39324,0.4775z" fill="url(#color-8)"/><path d="M246.5112,188.55911c0,0.19925 -0.13302,0.36077 -0.29711,0.36077c-0.16409,0 -0.29711,-0.16152 -0.29711,-0.36077c0,-0.19925 0.13302,-0.36078 0.29711,-0.36078c0.16409,0 0.29711,0.16153 0.29711,0.36078z" fill="#ffffff"/></g></g><path d="M248.10018,181.763c0,1.51236 -1.53639,2.84236 -3.43163,2.84236c-1.89524,0 -3.43163,-1.33 -3.43163,-2.84236c0,-1.51236 1.5364,-2.63439 3.43163,-2.63439c1.89524,0 3.43163,1.12203 3.43163,2.63439z" fill="#ffffff"/><path d="M238.35989,184.2934c0,1.16778 -0.04859,3.81293 -0.72792,3.81293c-0.19696,0 -0.58164,-1.3354 -0.41586,-2.80378c0.1726,-1.52875 1.05391,-3.25977 1.10911,-3.19292c0.40202,0.13865 0.03466,1.01599 0.03466,2.18376z" fill="#ffffff"/><path d="M250.98633,184.29339c0,-1.16778 -0.36736,-2.04511 0.03467,-2.18377c0.12453,-0.06686 0.93651,1.66417 1.10911,3.19292c0.16579,1.46839 -0.21889,2.80377 -0.41585,2.80377c-0.67933,0 -0.72792,-2.64515 -0.72792,-3.81292z" data-paper-data="{&quot;index&quot;:null}" fill="#ffffff"/></g><path d="M249.02991,188.15691c0.29301,0.34801 0.69831,1.95162 0.12847,2.9809c-1.01071,1.82558 -3.81393,1.67836 -4.41184,1.67836c-2.89575,0 -3.88659,-0.6374 -4.45853,-1.8588c-0.26085,-0.55708 -0.72866,-2.35504 0.12674,-3.38229c0.95153,-1.1427 3.29973,-1.3362 4.33178,-1.3362c1.10744,0 3.36543,0.82781 4.28337,1.91804z" fill="url(#color-9)" stroke="none" stroke-width="0"/><path d="M249.15839,191.1378c-1.0107,1.82558 -3.81394,1.67835 -4.41185,1.67835c-2.89575,0 -3.88659,-0.6374 -4.45853,-1.8588c-0.26085,-0.55708 -0.72866,-2.35504 0.12674,-3.38229c0.95153,-1.1427 3.29973,-1.3362 4.33179,-1.3362c1.10744,0 3.36542,0.82782 4.28337,1.91805c0,0 0.69831,1.95162 0.12847,2.9809z" fill="url(#color-10)" stroke="none" stroke-width="0"/><path d="M249.15534,191.16434c-0.03012,0.01157 0.13178,-1.1858 0.13178,-1.1858c0,0 -0.42387,-0.92847 -1.6044,-1.62929c-0.83925,-0.49821 -2.09222,-0.84729 -3.04882,-0.81053c-1.12049,0.04813 -2.08144,0.33605 -2.90274,0.81173c-1.23091,0.71291 -1.71674,1.7245 -1.71674,1.7245c0,0 0.33007,0.97242 0.3259,0.97016c-0.8864,-0.48027 -1.44087,-0.88609 -1.84374,-1.38338c-1.11172,-1.08961 -1.38846,-3.17537 -1.19823,-4.61873c0.2773,-2.10395 1.51669,-4.21115 3.40609,-5.4151c1.37272,-0.87472 2.89955,-1.1362 3.99011,-1.1362c1.2957,0 3.26588,0.41111 4.8169,1.6142c1.55128,1.20328 2.12869,3.17269 2.50998,4.9891c0.17254,1.8082 -0.13139,3.56854 -1.10542,4.59945c0,0 -1.0542,1.19837 -1.76066,1.46988z" fill="url(#color-11)" stroke="none" stroke-width="0"/><path d="M249.138,191.18166c-0.03012,0.01157 0.1491,-1.20313 0.1491,-1.20313c0,0 -0.42386,-0.92847 -1.60439,-1.62929c-0.83925,-0.49821 -2.09222,-0.79529 -3.04883,-0.75853c-1.12049,0.04813 -2.08143,0.28405 -2.90274,0.75974c-1.23091,0.71291 -1.71675,1.72449 -1.71675,1.72449c0,0 0.3474,0.97242 0.34323,0.97016c-0.8864,-0.48027 -1.45819,-0.88609 -1.86106,-1.38339c-1.11172,-1.08961 -1.5102,-3.16289 -1.25023,-4.61873c0.36986,-2.07119 1.4647,-4.21114 3.3541,-5.4151c1.37272,-0.87472 3.00355,-1.1362 4.09411,-1.1362c1.2957,0 3.30054,0.4111 4.85156,1.61419c1.55128,1.20328 2.17768,3.21014 2.54464,4.9891c0.36396,1.76442 -0.20071,3.56854 -1.17475,4.59945c0,0 -1.07153,1.21571 -1.77799,1.48722z" fill="url(#color-12)" stroke="none" stroke-width="0"/><g stroke-width="0"><g><path d="M242.71074,189.79076v-1.48512c0,0 0.02918,-0.38689 0.46386,-0.38625c0.46794,0.0007 0.48602,0.38625 0.48602,0.38625v1.48512c0,0 -0.00534,0.43081 -0.47858,0.43081c-0.45222,0 -0.47129,-0.43081 -0.47129,-0.43081z" fill="url(#color-13)" stroke="url(#color-14)"/><path d="M243.57431,188.55911c0,0.26371 -0.17606,0.4775 -0.39324,0.4775c-0.21718,0 -0.39323,-0.21379 -0.39323,-0.4775c0,-0.26371 0.17606,-0.47751 0.39323,-0.47751c0.21718,0 0.39324,0.21379 0.39324,0.47751z" fill="url(#color-15)" stroke="none"/><path d="M243.47819,188.55911c0,0.19925 -0.13303,0.36077 -0.29712,0.36077c-0.16409,0 -0.29711,-0.16152 -0.29711,-0.36077c0,-0.19925 0.13302,-0.36078 0.29711,-0.36078c0.16409,0 0.29712,0.16153 0.29712,0.36078z" fill="#ffffff" stroke="none"/></g><g><path d="M245.74376,189.79076v-1.48512c0,0 0.02918,-0.38689 0.46388,-0.38625c0.46794,0.0007 0.48601,0.38625 0.48601,0.38625v1.48512c0,0 -0.00534,0.43081 -0.47858,0.43081c-0.45222,0 -0.4713,-0.43081 -0.4713,-0.43081z" fill="url(#color-16)" stroke="url(#color-17)"/><path d="M246.60732,188.55911c0,0.26371 -0.17606,0.4775 -0.39324,0.4775c-0.21717,0 -0.39324,-0.21379 -0.39324,-0.4775c0,-0.26371 0.17606,-0.47751 0.39324,-0.47751c0.21718,0 0.39324,0.21379 0.39324,0.47751z" fill="url(#color-18)" stroke="none"/><path d="M246.5112,188.55911c0,0.19925 -0.13302,0.36077 -0.29711,0.36077c-0.16409,0 -0.29711,-0.16152 -0.29711,-0.36077c0,-0.19925 0.13302,-0.36078 0.29711,-0.36078c0.16409,0 0.29711,0.16153 0.29711,0.36078z" fill="#ffffff" stroke="none"/></g></g><path d="M248.10018,181.763c0,1.51236 -1.53639,2.84236 -3.43163,2.84236c-1.89524,0 -3.43163,-1.33 -3.43163,-2.84236c0,-1.51236 1.5364,-2.63439 3.43163,-2.63439c1.89524,0 3.43163,1.12202 3.43163,2.63439z" fill="#ffffff" stroke="none" stroke-width="0"/><path d="M238.35989,184.2934c0,1.16778 -0.04859,3.81293 -0.72792,3.81293c-0.19696,0 -0.58164,-1.3354 -0.41586,-2.80378c0.1726,-1.52875 1.05391,-3.25978 1.10911,-3.19292c0.40202,0.13865 0.03466,1.01599 0.03466,2.18377z" fill="#ffffff" stroke="none" stroke-width="0"/><path d="M250.98633,184.2934c0,-1.16778 -0.36736,-2.04511 0.03467,-2.18376c0.12453,-0.06686 0.93651,1.66416 1.10911,3.19291c0.16579,1.46839 -0.21889,2.80378 -0.41585,2.80378c-0.67933,0 -0.72792,-2.64515 -0.72792,-3.81293z" data-paper-data="{&quot;index&quot;:null}" fill="#ffffff" stroke="none" stroke-width="0"/></g><g><g><path d="M268.84977,188.22755c0.29359,0.3487 0.69971,1.95553 0.12874,2.98686c-1.01272,1.82924 -3.82157,1.68171 -4.42068,1.68171c-2.90155,0 -3.89437,-0.63869 -4.46745,-1.86253c-0.26139,-0.55819 -0.73012,-2.35976 0.127,-3.38906c0.95344,-1.14499 3.30632,-1.33888 4.34045,-1.33888c1.10966,0 3.37216,0.82947 4.29194,1.92189z" fill="url(#color-19)" stroke="#000000" stroke-width="4"/><path d="M268.9785,191.21441c-1.01272,1.82924 -3.82157,1.68171 -4.42068,1.68171c-2.90155,0 -3.89437,-0.63869 -4.46745,-1.86253c-0.26139,-0.55819 -0.73012,-2.35976 0.127,-3.38906c0.95344,-1.14499 3.30632,-1.33888 4.34045,-1.33888c1.10966,0 3.37216,0.82947 4.29194,1.92189c0,0 0.69971,1.95553 0.12874,2.98686z" fill="url(#color-20)" stroke="#000000" stroke-width="4"/><path d="M268.97545,191.24099c-0.03017,0.01159 0.13205,-1.18818 0.13205,-1.18818c0,0 -0.42472,-0.93033 -1.60762,-1.63254c-0.84094,-0.49921 -2.09641,-0.84898 -3.05492,-0.81214c-1.12273,0.04824 -2.08561,0.33673 -2.90855,0.81336c-1.23336,0.71434 -1.72018,1.72794 -1.72018,1.72794c0,0 0.33074,0.97437 0.32657,0.9721c-0.88817,-0.48123 -1.44375,-0.88787 -1.84743,-1.38616c-1.11395,-1.09179 -1.39125,-3.18174 -1.20063,-4.62798c0.27786,-2.10816 1.51972,-4.21957 3.41291,-5.42594c1.37547,-0.87647 2.90537,-1.13847 3.99811,-1.13847c1.29829,0 3.27241,0.41192 4.82654,1.61742c1.55437,1.20569 2.13294,3.17903 2.515,4.99908c0.17288,1.81182 -0.13164,3.57568 -1.10763,4.60866c0,0 -1.05634,1.20078 -1.76422,1.47284z" fill="url(#color-21)" stroke="#000000" stroke-width="4"/><g fill="none" stroke="none" stroke-width="1" font-family="sans-serif" font-weight="normal" font-size="12" text-anchor="start"><g/><g/></g><g stroke="#000000" stroke-width="4"><g><path d="M262.51796,189.86467v-1.48809c0,0 0.02924,-0.38766 0.4648,-0.38702c0.46888,0.0007 0.48698,0.38702 0.48698,0.38702v1.48809c0,0 -0.00536,0.43167 -0.47954,0.43167c-0.45312,0 -0.47224,-0.43167 -0.47224,-0.43167z" fill="url(#color-22)"/><path d="M263.38326,188.63056c0,0.26424 -0.17642,0.47845 -0.39402,0.47845c-0.21761,0 -0.39402,-0.21421 -0.39402,-0.47845c0,-0.26424 0.17642,-0.47845 0.39402,-0.47845c0.21761,0 0.39402,0.21421 0.39402,0.47845z" fill="url(#color-23)"/><path d="M263.28694,188.63056c0,0.19965 -0.1333,0.3615 -0.29771,0.3615c-0.16442,0 -0.29771,-0.16186 -0.29771,-0.3615c0,-0.19965 0.13329,-0.3615 0.29771,-0.3615c0.16442,0 0.29771,0.16185 0.29771,0.3615z" fill="#ffffff"/></g><g><path d="M265.55704,189.86467v-1.48809c0,0 0.02924,-0.38766 0.46479,-0.38702c0.46888,0.0007 0.48698,0.38702 0.48698,0.38702v1.48809c0,0 -0.00536,0.43167 -0.47954,0.43167c-0.45312,0 -0.47224,-0.43167 -0.47224,-0.43167z" fill="url(#color-24)"/><path d="M266.42234,188.63056c0,0.26424 -0.17642,0.47845 -0.39402,0.47845c-0.21761,0 -0.39402,-0.21421 -0.39402,-0.47845c0,-0.26424 0.17641,-0.47845 0.39402,-0.47845c0.21761,0 0.39402,0.21421 0.39402,0.47845z" fill="url(#color-25)"/><path d="M266.32601,188.63056c0,0.19965 -0.13329,0.3615 -0.29771,0.3615c-0.16442,0 -0.29771,-0.16186 -0.29771,-0.3615c0,-0.19965 0.13329,-0.3615 0.29771,-0.3615c0.16442,0 0.29771,0.16185 0.29771,0.3615z" fill="#ffffff"/></g></g><path d="M267.91818,181.82085c0,1.5154 -1.53948,2.84805 -3.4385,2.84805c-1.89902,0 -3.4385,-1.33265 -3.4385,-2.84805c0,-1.5154 1.53948,-2.63966 3.4385,-2.63966c1.89902,0 3.4385,1.12426 3.4385,2.63966z" fill="#ffffff" stroke="#000000" stroke-width="4"/><path d="M258.1584,184.35631c0,1.17011 -0.04869,3.82056 -0.72938,3.82056c-0.19736,0 -0.5828,-1.33807 -0.41669,-2.80938c0.17295,-1.53181 1.05602,-3.2663 1.11134,-3.19931c0.40283,0.13893 0.03473,1.01802 0.03473,2.18814z" fill="#ffffff" stroke="#000000" stroke-width="4"/><path d="M270.81011,184.35631c0,-1.17011 -0.3681,-2.04921 0.03473,-2.18814c0.12478,-0.06699 0.93838,1.6675 1.11133,3.19931c0.16611,1.47132 -0.21933,2.80938 -0.41668,2.80938c-0.68069,0 -0.72938,-2.65045 -0.72938,-3.82056z" data-paper-data="{&quot;index&quot;:null}" fill="#ffffff" stroke="#000000" stroke-width="4"/></g><g><path d="M268.84977,188.22755c0.29359,0.34871 0.69971,1.95552 0.12874,2.98686c-1.01272,1.82924 -3.82157,1.68172 -4.42068,1.68172c-2.90155,0 -3.89437,-0.63868 -4.46745,-1.86253c-0.26139,-0.55819 -0.73012,-2.35976 0.127,-3.38906c0.95344,-1.14499 3.30632,-1.33888 4.34045,-1.33888c1.10966,0 3.37217,0.82948 4.29194,1.92189z" fill="url(#color-26)" stroke="none" stroke-width="0"/><path d="M268.9785,191.21441c-1.01272,1.82924 -3.82157,1.68172 -4.42068,1.68172c-2.90155,0 -3.89437,-0.63868 -4.46745,-1.86253c-0.26139,-0.55819 -0.73012,-2.35976 0.127,-3.38906c0.95344,-1.14499 3.30632,-1.33888 4.34045,-1.33888c1.10966,0 3.37217,0.82948 4.29194,1.92189c0,0 0.69971,1.95552 0.12874,2.98686z" fill="url(#color-27)" stroke="none" stroke-width="0"/><path d="M270.73964,189.76815c-0.50617,0.53572 -1.05632,1.20078 -1.76419,1.47284c-0.03018,0.0116 0.13204,-1.18817 0.13204,-1.18817c0,0 -0.42472,-0.93033 -1.60762,-1.63255c-0.84094,-0.49921 -2.0964,-0.84898 -3.05492,-0.81215c-1.12274,0.04823 -2.08561,0.33672 -2.90855,0.81336c-1.23337,0.71433 -1.72018,1.72794 -1.72018,1.72794c0,0 0.33073,0.97437 0.32656,0.9721c-0.88817,-0.48123 -1.44375,-0.88787 -1.84743,-1.38615c-1.11395,-1.09179 -1.39125,-3.18173 -1.20063,-4.62798c0.27786,-2.10816 1.51972,-4.21958 3.41291,-5.42594c1.37546,-0.87647 2.90536,-1.13847 3.99811,-1.13847c1.29829,0 3.27241,0.41192 4.82654,1.61743c1.55437,1.20569 2.13295,3.17903 2.51501,4.99909c0.17288,1.81182 -0.13165,3.57568 -1.10764,4.60866z" fill="url(#color-28)" stroke="none" stroke-width="0"/><path d="M270.73964,189.76815c-0.50617,0.53572 -1.07369,1.21815 -1.78156,1.49021c-0.03018,0.0116 0.14941,-1.20554 0.14941,-1.20554c0,0 -0.42472,-0.93033 -1.60762,-1.63255c-0.84094,-0.49921 -2.0964,-0.79688 -3.05492,-0.76005c-1.12274,0.04823 -2.08561,0.28462 -2.90855,0.76126c-1.23337,0.71433 -1.72018,1.72794 -1.72018,1.72794c0,0 0.3481,0.97437 0.34392,0.9721c-0.88817,-0.48123 -1.46112,-0.88787 -1.8648,-1.38615c-1.11395,-1.09179 -1.51322,-3.16922 -1.25273,-4.62798c0.3706,-2.07533 1.46763,-4.21958 3.36081,-5.42594c1.37546,-0.87647 3.00956,-1.13847 4.1023,-1.13847c1.29829,0 3.30715,0.41192 4.86127,1.61743c1.55437,1.20569 2.18205,3.21657 2.54974,4.99909c0.36469,1.76795 -0.20112,3.57568 -1.1771,4.60866z" fill="url(#color-29)" stroke="none" stroke-width="0"/><g fill="#000000" stroke="#dcc67d" stroke-width="3" font-family="&quot;Helvetica Neue&quot;, Helvetica, Arial, sans-serif" font-weight="400" font-size="16" text-anchor="start"><g/><g/></g><g stroke-width="0"><g><path d="M262.51795,189.86467v-1.48809c0,0 0.02924,-0.38767 0.4648,-0.38702c0.46888,0.0007 0.48698,0.38702 0.48698,0.38702v1.48809c0,0 -0.00536,0.43167 -0.47954,0.43167c-0.45312,0 -0.47225,-0.43167 -0.47225,-0.43167z" fill="url(#color-30)" stroke="url(#color-31)"/><path d="M263.38325,188.63056c0,0.26424 -0.17641,0.47846 -0.39402,0.47846c-0.21761,0 -0.39402,-0.21421 -0.39402,-0.47846c0,-0.26424 0.17641,-0.47846 0.39402,-0.47846c0.21761,0 0.39402,0.21421 0.39402,0.47846z" fill="url(#color-32)" stroke="none"/><path d="M263.28694,188.63056c0,0.19965 -0.13329,0.3615 -0.29771,0.3615c-0.16442,0 -0.29771,-0.16185 -0.29771,-0.3615c0,-0.19965 0.13329,-0.3615 0.29771,-0.3615c0.16442,0 0.29771,0.16185 0.29771,0.3615z" fill="#ffffff" stroke="none"/></g><g><path d="M265.55703,189.86467v-1.48809c0,0 0.02924,-0.38767 0.4648,-0.38702c0.46888,0.0007 0.48698,0.38702 0.48698,0.38702v1.48809c0,0 -0.00536,0.43167 -0.47954,0.43167c-0.45312,0 -0.47225,-0.43167 -0.47225,-0.43167z" fill="url(#color-33)" stroke="url(#color-34)"/><path d="M266.42233,188.63056c0,0.26424 -0.17641,0.47846 -0.39402,0.47846c-0.21761,0 -0.39402,-0.21421 -0.39402,-0.47846c0,-0.26424 0.17641,-0.47846 0.39402,-0.47846c0.21761,0 0.39402,0.21421 0.39402,0.47846z" fill="url(#color-35)" stroke="none"/><path d="M266.32601,188.63056c0,0.19965 -0.13329,0.3615 -0.29771,0.3615c-0.16442,0 -0.29771,-0.16185 -0.29771,-0.3615c0,-0.19965 0.13329,-0.3615 0.29771,-0.3615c0.16442,0 0.29771,0.16185 0.29771,0.3615z" fill="#ffffff" stroke="none"/></g></g><path d="M267.91818,181.82085c0,1.51539 -1.53947,2.84805 -3.4385,2.84805c-1.89903,0 -3.4385,-1.33266 -3.4385,-2.84805c0,-1.51539 1.53947,-2.63966 3.4385,-2.63966c1.89903,0 3.4385,1.12427 3.4385,2.63966z" fill="#ffffff" stroke="none" stroke-width="0"/><path d="M258.1584,184.35631c0,1.17011 -0.04869,3.82056 -0.72938,3.82056c-0.19736,0 -0.5828,-1.33807 -0.41669,-2.80938c0.17295,-1.53182 1.05602,-3.2663 1.11134,-3.19931c0.40283,0.13893 0.03473,1.01803 0.03473,2.18814z" fill="#ffffff" stroke="none" stroke-width="0"/><path d="M270.81011,184.35631c0,-1.17011 -0.3681,-2.04921 0.03473,-2.18814c0.12478,-0.06699 0.93839,1.66749 1.11134,3.19931c0.16612,1.47132 -0.21933,2.80938 -0.41669,2.80938c-0.68069,0 -0.72938,-2.65045 -0.72938,-3.82056z" data-paper-data="{&quot;index&quot;:null}" fill="#ffffff" stroke="none" stroke-width="0"/></g></g><path d="M-40,350v-340h560v340z" fill="none" stroke="none" stroke-width="0"/><g><g><g stroke="#000000" stroke-width="4"><g><g data-paper-data="{&quot;index&quot;:null}"><path d="M220.14172,191.84381c0,0.35988 -1.23512,0.56772 -2.4554,0.43557c-1.11453,-0.1207 -2.20155,-0.55681 -2.62984,-0.77561c-0.52213,-0.26674 -1.37739,-1.05542 -1.80921,-1.92604c-0.35264,-0.71095 -0.33183,-1.51722 -0.37016,-1.80212c-0.00256,-0.01905 2.08824,-0.86057 4.63484,0.40908c2.44965,1.22131 2.62976,3.3115 2.62976,3.65912z" data-paper-data="{&quot;index&quot;:null}" fill="url(#color-36)"/><path d="M219.8501,191.45267c0,0.32618 -1.11943,0.51455 -2.2254,0.39478c-1.01013,-0.10939 -1.99534,-0.50465 -2.38351,-0.70295c-0.47322,-0.24175 -1.24836,-0.95656 -1.63975,-1.74563c-0.31961,-0.64436 -0.30075,-1.3751 -0.33549,-1.63332c-0.00232,-0.01727 1.89265,-0.77996 4.20071,0.37076c2.2202,1.10691 2.38343,3.00132 2.38343,3.31638z" data-paper-data="{&quot;index&quot;:null}" fill="url(#color-37)"/><path d="M216.55451,189.53181c-1.08312,-0.58439 -3.23735,-1.72507 -3.23735,-1.72507c0,0 2.41835,0.88205 3.56732,1.45241c1.17028,0.58095 3.04375,1.76685 3.04375,1.76685l-0.22111,0.40536c0,0 -2.00065,-1.27802 -3.15262,-1.89956z" fill="url(#color-38)"/></g><g><path d="M221.553,191.84381c0,-0.34762 0.18011,-2.43781 2.62976,-3.65912c2.5466,-1.26965 4.63741,-0.42813 4.63484,-0.40908c-0.03833,0.2849 -0.01753,1.09117 -0.37016,1.80212c-0.43184,0.87062 -1.28708,1.6593 -1.80921,1.92604c-0.42829,0.21879 -1.51531,0.65491 -2.62984,0.77561c-1.22027,0.13215 -2.45539,-0.07569 -2.45539,-0.43557z" data-paper-data="{&quot;index&quot;:null}" fill="url(#color-39)"/><path d="M221.84462,191.45267c0,-0.31506 0.16323,-2.20946 2.38343,-3.31638c2.30806,-1.15072 4.20303,-0.38803 4.20071,-0.37076c-0.03474,0.25822 -0.01589,0.98896 -0.33549,1.63332c-0.39139,0.78907 -1.16653,1.50387 -1.63975,1.74563c-0.38817,0.1983 -1.37337,0.59357 -2.38351,0.70295c-1.10597,0.11977 -2.2254,-0.06859 -2.2254,-0.39478z" data-paper-data="{&quot;index&quot;:null}" fill="url(#color-40)"/><path d="M221.9876,191.43137l-0.22111,-0.40536c0,0 1.87348,-1.1859 3.04375,-1.76684c1.14897,-0.57037 3.56732,-1.45241 3.56732,-1.45241c0,0 -2.15422,1.14069 -3.23735,1.72507c-1.15198,0.62153 -3.15262,1.89955 -3.15262,1.89955z" fill="url(#color-41)"/></g><g><path d="M219.51291,192.39947v-5.10346h2.50313v5.10346c0,0 -0.24496,0.40119 -1.23941,0.41314c-1.00617,0.01211 -1.26371,-0.41314 -1.26371,-0.41314z" fill="url(#color-42)"/><path d="M220.05337,192.72913c0,0 -0.24452,-0.07056 -0.33943,-0.13735c-0.1481,-0.10421 -0.20276,-0.22611 -0.20276,-0.22611l0.00089,-4.03875l2.51597,3.00749l-0.02258,1.06518c0,0 -0.20478,0.31062 -0.82129,0.39007c-0.61171,0.07883 -1.13081,-0.06055 -1.13081,-0.06055z" fill="url(#color-43)"/></g></g><g><path d="M230.19372,182.16217c0,3.87217 -4.12097,7.01118 -9.20445,7.01118c-5.08348,0 -9.20445,-3.13901 -9.20445,-7.01118c0,-3.87217 4.12098,-7.01117 9.20446,-7.01117c5.08348,0 9.20445,3.13901 9.20445,7.01117z" fill="url(#color-44)"/><path d="M229.83367,181.94345c0,3.7207 -3.95977,6.73692 -8.8444,6.73692c-4.88463,0 -8.84441,-3.01622 -8.84441,-6.73692c0,-3.7207 3.95977,-6.73692 8.84441,-6.73692c4.88464,0 8.8444,3.01622 8.8444,6.73692z" fill="url(#color-45)"/><path d="M228.04298,181.907c0,2.94819 -3.15805,5.33818 -7.05371,5.33818c-3.89566,0 -7.05371,-2.38998 -7.05371,-5.33818c0,-2.94819 3.15806,-5.33818 7.05371,-5.33818c3.89566,0 7.05371,2.38998 7.05371,5.33818z" fill="url(#color-46)"/><path d="M226.82563,181.907c0,2.38998 -2.61303,4.32744 -5.83636,4.32744c-3.22333,0 -5.83636,-1.93746 -5.83636,-4.32744c0,-2.38998 2.61303,-4.32744 5.83636,-4.32744c3.22333,0 5.83636,1.93746 5.83636,4.32744z" fill="url(#color-47)"/><g><path d="M225.27018,181.87055c0,1.6801 -1.93295,3.0421 -4.31736,3.0421c-2.38441,0 -4.31736,-1.362 -4.31736,-3.0421c0,-1.6801 1.93295,-3.0421 4.31736,-3.0421c2.38441,0 4.31736,1.362 4.31736,3.0421z" fill="url(#color-48)"/><path d="M224.99279,181.87055c0,1.52246 -1.80876,2.75666 -4.03998,2.75666c-2.23121,0 -4.03998,-1.2342 -4.03998,-2.75666c0,-1.52246 1.80876,-2.75667 4.03998,-2.75667c2.23121,0 4.03998,1.2342 4.03998,2.75667z" fill="url(#color-49)"/><path d="M224.79047,181.87055c0,1.39625 -1.71818,2.52813 -3.83766,2.52813c-2.11948,0 -3.83766,-1.13188 -3.83766,-2.52813c0,-1.39625 1.71818,-2.52813 3.83766,-2.52813c2.11948,0 3.83766,1.13188 3.83766,2.52813z" fill="url(#color-50)"/></g><g><g><path d="M218.21928,180.7845c0,0 0.0507,-0.68149 0.80598,-0.68054c0.81306,0.00103 0.84445,0.68054 0.84445,0.68054v2.02402c0,0 -0.00927,0.69083 -0.83154,0.69083c-0.78574,0 -0.8189,-0.69083 -0.8189,-0.69083z" fill="url(#color-51)"/><g><path d="M219.52819,180.75645c0,0.31182 -0.21255,0.56459 -0.47475,0.56459c-0.26219,0 -0.47475,-0.25277 -0.47475,-0.56459c0,-0.31182 0.21255,-0.5646 0.47475,-0.5646c0.26219,0 0.47475,0.25278 0.47475,0.5646z" fill="url(#color-52)"/><path d="M219.41214,180.75645c0,0.2356 -0.1606,0.42659 -0.3587,0.42659c-0.1981,0 -0.3587,-0.19099 -0.3587,-0.42659c0,-0.2356 0.1606,-0.42658 0.3587,-0.42658c0.1981,0 0.3587,0.19099 0.3587,0.42658z" fill="#ffffff"/></g></g><g><path d="M221.96158,180.7845c0,0 0.05071,-0.68149 0.80599,-0.68054c0.81306,0.00103 0.84444,0.68054 0.84444,0.68054v2.02402c0,0 -0.00927,0.69083 -0.83154,0.69083c-0.78574,0 -0.8189,-0.69083 -0.8189,-0.69083z" fill="url(#color-53)"/><g><path d="M223.27049,180.75645c0,0.31182 -0.21255,0.56459 -0.47475,0.56459c-0.26219,0 -0.47475,-0.25277 -0.47475,-0.56459c0,-0.31182 0.21255,-0.5646 0.47475,-0.5646c0.26219,0 0.47475,0.25278 0.47475,0.5646z" fill="url(#color-54)"/><path d="M223.15444,180.75645c0,0.2356 -0.16059,0.42659 -0.35869,0.42659c-0.1981,0 -0.35869,-0.19099 -0.35869,-0.42659c0,-0.2356 0.16059,-0.42658 0.35869,-0.42658c0.1981,0 0.35869,0.19099 0.35869,0.42658z" fill="#ffffff"/></g></g></g></g></g><g stroke="none"><g stroke-width="0"><g data-paper-data="{&quot;index&quot;:null}"><path d="M220.14172,191.84381c0,0.35989 -1.23512,0.56772 -2.4554,0.43557c-1.11453,-0.1207 -2.20155,-0.55681 -2.62984,-0.77561c-0.52213,-0.26674 -1.37739,-1.05542 -1.80921,-1.92603c-0.35264,-0.71095 -0.33183,-1.51722 -0.37016,-1.80212c-0.00256,-0.01905 2.08824,-0.86057 4.63484,0.40908c2.44965,1.22131 2.62976,3.3115 2.62976,3.65912z" data-paper-data="{&quot;index&quot;:null}" fill="url(#color-55)"/><path d="M219.8501,191.45267c0,0.32618 -1.11943,0.51455 -2.2254,0.39478c-1.01013,-0.1094 -1.99534,-0.50465 -2.38351,-0.70296c-0.47323,-0.24175 -1.24837,-0.95656 -1.63975,-1.74563c-0.31961,-0.64436 -0.30074,-1.3751 -0.33549,-1.63332c-0.00232,-0.01727 1.89264,-0.77996 4.20071,0.37076c2.2202,1.10691 2.38343,3.00132 2.38343,3.31638z" data-paper-data="{&quot;index&quot;:null}" fill="url(#color-56)"/><path d="M216.55451,189.53182c-1.08313,-0.58439 -3.23735,-1.72507 -3.23735,-1.72507c0,0 2.41835,0.88205 3.56732,1.45241c1.17028,0.58095 3.04376,1.76685 3.04376,1.76685l-0.22111,0.40536c0,0 -2.00065,-1.27802 -3.15262,-1.89955z" fill="url(#color-57)"/></g><g><path d="M221.553,191.84381c0,-0.34762 0.18011,-2.43781 2.62976,-3.65912c2.5466,-1.26965 4.63741,-0.42813 4.63484,-0.40908c-0.03833,0.2849 -0.01753,1.09116 -0.37016,1.80212c-0.43183,0.87062 -1.28708,1.6593 -1.80921,1.92603c-0.42829,0.2188 -1.51531,0.65491 -2.62984,0.77561c-1.22027,0.13215 -2.4554,-0.07569 -2.4554,-0.43557z" data-paper-data="{&quot;index&quot;:null}" fill="url(#color-58)"/><path d="M221.84462,191.45267c0,-0.31506 0.16323,-2.20946 2.38343,-3.31638c2.30807,-1.15072 4.20303,-0.38803 4.20071,-0.37076c-0.03475,0.25822 -0.01588,0.98896 -0.33549,1.63332c-0.39138,0.78907 -1.16652,1.50387 -1.63975,1.74563c-0.38817,0.1983 -1.37337,0.59357 -2.38351,0.70296c-1.10597,0.11977 -2.2254,-0.06859 -2.2254,-0.39478z" data-paper-data="{&quot;index&quot;:null}" fill="url(#color-59)"/><path d="M221.98759,191.43137l-0.22111,-0.40536c0,0 1.87348,-1.1859 3.04376,-1.76685c1.14897,-0.57037 3.56732,-1.45241 3.56732,-1.45241c0,0 -2.15422,1.14069 -3.23735,1.72507c-1.15198,0.62153 -3.15262,1.89955 -3.15262,1.89955z" fill="url(#color-60)"/></g><g><path d="M219.51291,192.39947v-5.10346h2.50313v5.10346c0,0 -0.24496,0.40119 -1.23941,0.41314c-1.00616,0.01211 -1.26372,-0.41314 -1.26372,-0.41314z" fill="url(#color-61)"/><path d="M220.05337,192.72913c0,0 -0.24452,-0.07056 -0.33943,-0.13735c-0.14809,-0.10421 -0.20276,-0.22611 -0.20276,-0.22611l0.00089,-4.03875l2.51597,3.00749l-0.02258,1.06518c0,0 -0.20478,0.31063 -0.82129,0.39008c-0.61171,0.07883 -1.13081,-0.06054 -1.13081,-0.06054z" fill="url(#color-62)"/></g></g><g><path d="M230.19372,182.16217c0,3.87217 -4.12097,7.01118 -9.20445,7.01118c-5.08348,0 -9.20445,-3.13901 -9.20445,-7.01118c0,-3.87217 4.12097,-7.01118 9.20445,-7.01118c5.08348,0 9.20445,3.13901 9.20445,7.01118z" fill="url(#color-63)" stroke-width="NaN"/><path d="M229.83367,181.94346c0,3.7207 -3.95977,6.73692 -8.8444,6.73692c-4.88463,0 -8.8444,-3.01622 -8.8444,-6.73692c0,-3.7207 3.95977,-6.73692 8.8444,-6.73692c4.88463,0 8.8444,3.01622 8.8444,6.73692z" fill="url(#color-64)" stroke-width="NaN"/><path d="M228.04298,181.90701c0,2.94819 -3.15805,5.33818 -7.05371,5.33818c-3.89566,0 -7.05371,-2.38999 -7.05371,-5.33818c0,-2.94819 3.15805,-5.33818 7.05371,-5.33818c3.89566,0 7.05371,2.38999 7.05371,5.33818z" fill="url(#color-65)" stroke-width="NaN"/><path d="M226.82562,181.90701c0,2.38998 -2.61303,4.32744 -5.83636,4.32744c-3.22333,0 -5.83636,-1.93746 -5.83636,-4.32744c0,-2.38998 2.61303,-4.32744 5.83636,-4.32744c3.22333,0 5.83636,1.93746 5.83636,4.32744z" fill="url(#color-66)" stroke-width="NaN"/><g><path d="M225.27018,181.87055c0,1.6801 -1.93295,3.04209 -4.31736,3.04209c-2.38441,0 -4.31736,-1.36199 -4.31736,-3.04209c0,-1.6801 1.93295,-3.04209 4.31736,-3.04209c2.38441,0 4.31736,1.36199 4.31736,3.04209z" fill="url(#color-67)" stroke-width="NaN"/><path d="M224.99279,181.87055c0,1.52246 -1.80876,2.75667 -4.03998,2.75667c-2.23122,0 -4.03998,-1.2342 -4.03998,-2.75667c0,-1.52246 1.80876,-2.75667 4.03998,-2.75667c2.23122,0 4.03998,1.2342 4.03998,2.75667z" fill="url(#color-68)" stroke-width="NaN"/><path d="M224.79047,181.87055c0,1.39624 -1.71818,2.52812 -3.83766,2.52812c-2.11948,0 -3.83766,-1.13188 -3.83766,-2.52812c0,-1.39624 1.71818,-2.52812 3.83766,-2.52812c2.11948,0 3.83766,1.13188 3.83766,2.52812z" fill="url(#color-69)" stroke-width="NaN"/></g><g stroke-width="0"><g><path d="M218.21928,180.7845c0,0 0.05071,-0.68149 0.80599,-0.68054c0.81306,0.00102 0.84445,0.68054 0.84445,0.68054v2.02402c0,0 -0.00928,0.69083 -0.83154,0.69083c-0.78575,0 -0.81889,-0.69083 -0.81889,-0.69083z" fill="url(#color-70)"/><g><path d="M219.52819,180.75646c0,0.31182 -0.21255,0.5646 -0.47475,0.5646c-0.2622,0 -0.47475,-0.25278 -0.47475,-0.5646c0,-0.31182 0.21255,-0.5646 0.47475,-0.5646c0.2622,0 0.47475,0.25278 0.47475,0.5646z" fill="url(#color-71)"/><path d="M219.41214,180.75646c0,0.2356 -0.1606,0.42659 -0.35869,0.42659c-0.1981,0 -0.3587,-0.19099 -0.3587,-0.42659c0,-0.2356 0.1606,-0.42659 0.3587,-0.42659c0.1981,0 0.35869,0.19099 0.35869,0.42659z" fill="#ffffff"/></g></g><g><path d="M221.96158,180.7845c0,0 0.05071,-0.68149 0.80599,-0.68054c0.81306,0.00102 0.84445,0.68054 0.84445,0.68054v2.02402c0,0 -0.00928,0.69083 -0.83154,0.69083c-0.78575,0 -0.81889,-0.69083 -0.81889,-0.69083z" fill="url(#color-72)"/><g><path d="M223.27049,180.75646c0,0.31182 -0.21255,0.5646 -0.47475,0.5646c-0.2622,0 -0.47475,-0.25278 -0.47475,-0.5646c0,-0.31182 0.21255,-0.5646 0.47475,-0.5646c0.2622,0 0.47475,0.25278 0.47475,0.5646z" fill="url(#color-73)"/><path d="M223.15444,180.75646c0,0.2356 -0.1606,0.42659 -0.35869,0.42659c-0.1981,0 -0.35869,-0.19099 -0.35869,-0.42659c0,-0.2356 0.1606,-0.42659 0.35869,-0.42659c0.1981,0 0.35869,0.19099 0.35869,0.42659z" fill="#ffffff"/></g></g></g></g></g></g><g><g><path d="M230.33958,189.7644c0.1931,0.22934 0.4602,1.28615 0.08467,1.96446c-0.66607,1.20309 -2.51345,1.10606 -2.90749,1.10606c-1.90835,0 -2.56132,-0.42006 -2.93824,-1.22498c-0.17191,-0.36712 -0.4802,-1.55201 0.08352,-2.22899c0.62708,-0.75306 2.17457,-0.88058 2.85471,-0.88058c0.72982,0 2.21787,0.54555 2.82281,1.26402z" fill="url(#color-74)" stroke="#000000" stroke-width="4"/><path d="M230.42425,191.72885c-0.66607,1.20309 -2.51345,1.10606 -2.90749,1.10606c-1.90835,0 -2.56132,-0.42006 -2.93824,-1.22498c-0.17191,-0.36712 -0.4802,-1.55201 0.08352,-2.22899c0.62708,-0.75306 2.17457,-0.88058 2.85471,-0.88058c0.72982,0 2.21787,0.54555 2.82281,1.26402c0,0 0.46021,1.28615 0.08467,1.96446z" fill="url(#color-75)" stroke="#000000" stroke-width="4"/><path d="M230.42223,191.74634c-0.01985,0.00763 0.08684,-0.78146 0.08684,-0.78146c0,0 -0.27934,-0.61188 -1.05733,-1.07372c-0.55308,-0.32834 -1.3788,-0.55838 -2.00922,-0.53415c-0.73842,0.03172 -1.37171,0.22146 -1.91296,0.53494c-0.81119,0.46981 -1.13136,1.13646 -1.13136,1.13646c0,0 0.21753,0.64084 0.21478,0.63935c-0.58415,-0.3165 -0.94955,-0.58395 -1.21506,-0.91167c-0.73264,-0.71807 -0.91502,-2.09263 -0.78965,-3.04382c0.18275,-1.38653 0.99952,-2.77521 2.24467,-3.56865c0.90464,-0.57646 1.91086,-0.74877 2.62955,-0.74877c0.85388,0 2.15226,0.27092 3.17441,1.06378c1.02232,0.79298 1.40284,2.09086 1.65412,3.2879c0.11371,1.19163 -0.08658,2.35173 -0.7285,3.03111c0,0 -0.69474,0.78976 -1.16031,0.96868z" fill="url(#color-76)" stroke="#000000" stroke-width="4"/><g fill="none" stroke="none" stroke-width="1" font-family="sans-serif" font-weight="normal" font-size="12" text-anchor="start"><g/><g/></g><g stroke="#000000" stroke-width="4"><g><path d="M226.17514,190.84113v-0.97872c0,0 0.01923,-0.25497 0.3057,-0.25454c0.30838,0.00046 0.32029,0.25454 0.32029,0.25454v0.97872c0,0 -0.00352,0.28391 -0.3154,0.28391c-0.29802,0 -0.3106,-0.28391 -0.3106,-0.28391z" fill="url(#color-77)"/><path d="M226.74425,190.02946c0,0.17379 -0.11602,0.31468 -0.25915,0.31468c-0.14312,0 -0.25915,-0.14089 -0.25915,-0.31468c0,-0.17379 0.11603,-0.31468 0.25915,-0.31468c0.14312,0 0.25915,0.14089 0.25915,0.31468z" fill="url(#color-78)"/><path d="M226.68091,190.02946c0,0.1313 -0.08767,0.23776 -0.19581,0.23776c-0.10814,0 -0.19581,-0.10645 -0.19581,-0.23776c0,-0.1313 0.08767,-0.23777 0.19581,-0.23777c0.10814,0 0.19581,0.10645 0.19581,0.23777z" fill="#ffffff"/></g><g><path d="M228.17395,190.84113v-0.97872c0,0 0.01923,-0.25497 0.3057,-0.25454c0.30838,0.00046 0.32028,0.25454 0.32028,0.25454v0.97872c0,0 -0.00352,0.28391 -0.3154,0.28391c-0.29802,0 -0.31059,-0.28391 -0.31059,-0.28391z" fill="url(#color-79)"/><path d="M228.74306,190.02946c0,0.17379 -0.11603,0.31468 -0.25915,0.31468c-0.14312,0 -0.25915,-0.14089 -0.25915,-0.31468c0,-0.17379 0.11603,-0.31468 0.25915,-0.31468c0.14312,0 0.25915,0.14089 0.25915,0.31468z" fill="url(#color-80)"/><path d="M228.6797,190.02946c0,0.1313 -0.08767,0.23776 -0.19581,0.23776c-0.10814,0 -0.19581,-0.10645 -0.19581,-0.23776c0,-0.1313 0.08767,-0.23776 0.19581,-0.23776c0.10814,0 0.19581,0.10645 0.19581,0.23776z" fill="#ffffff"/></g></g><path d="M229.72687,185.55071c0,0.99667 -1.01251,1.87317 -2.26151,1.87317c-1.24899,0 -2.26151,-0.87649 -2.26151,-1.87317c0,-0.99667 1.01252,-1.7361 2.26151,-1.7361c1.24899,0 2.26151,0.73943 2.26151,1.7361z" fill="#ffffff" stroke="#000000" stroke-width="4"/><path d="M223.30785,187.21829c0,0.76958 -0.03203,2.51278 -0.47972,2.51278c-0.1298,0 -0.38332,-0.88005 -0.27405,-1.84773c0.11375,-1.00747 0.69455,-2.14825 0.73092,-2.10419c0.26494,0.09137 0.02284,0.66956 0.02284,1.43914z" fill="#ffffff" stroke="#000000" stroke-width="4"/><path d="M231.62889,187.21829c0,-0.76958 -0.24209,-1.34777 0.02284,-1.43914c0.08206,-0.04406 0.61717,1.09671 0.73092,2.10419c0.10925,0.96769 -0.14426,1.84773 -0.27405,1.84773c-0.44769,0 -0.47972,-1.74321 -0.47972,-2.51278z" data-paper-data="{&quot;index&quot;:null}" fill="#ffffff" stroke="#000000" stroke-width="4"/></g><g><path d="M230.33957,189.7644c0.1931,0.22934 0.4602,1.28614 0.08466,1.96445c-0.66607,1.20309 -2.51345,1.10606 -2.90748,1.10606c-1.90834,0 -2.56132,-0.42006 -2.93824,-1.22498c-0.17192,-0.36712 -0.4802,-1.55201 0.08352,-2.22898c0.62708,-0.75306 2.17457,-0.88058 2.85471,-0.88058c0.72983,0 2.21787,0.54555 2.82281,1.26402z" fill="url(#color-81)" stroke="none" stroke-width="0"/><path d="M230.42425,191.72885c-0.66607,1.20309 -2.51345,1.10606 -2.90748,1.10606c-1.90834,0 -2.56132,-0.42006 -2.93824,-1.22498c-0.17192,-0.36712 -0.4802,-1.55201 0.08352,-2.22898c0.62708,-0.75306 2.17457,-0.88058 2.85471,-0.88058c0.72983,0 2.21787,0.54555 2.82281,1.26402c0,0 0.4602,1.28614 0.08467,1.96445z" fill="url(#color-82)" stroke="none" stroke-width="0"/><path d="M231.58254,190.77765c-0.33291,0.35235 -0.69474,0.78976 -1.16031,0.96868c-0.01985,0.00763 0.08684,-0.78146 0.08684,-0.78146c0,0 -0.27934,-0.61188 -1.05733,-1.07372c-0.55308,-0.32833 -1.3788,-0.55837 -2.00922,-0.53414c-0.73842,0.03172 -1.37171,0.22146 -1.91296,0.53494c-0.81119,0.46982 -1.13136,1.13646 -1.13136,1.13646c0,0 0.21753,0.64084 0.21478,0.63935c-0.58415,-0.31651 -0.94955,-0.58395 -1.21506,-0.91167c-0.73264,-0.71807 -0.91502,-2.09263 -0.78965,-3.04382c0.18275,-1.38653 0.99952,-2.77521 2.24467,-3.56865c0.90464,-0.57646 1.91086,-0.74877 2.62955,-0.74877c0.85388,0 2.15226,0.27092 3.17441,1.06378c1.02232,0.79298 1.40284,2.09085 1.65412,3.2879c0.11371,1.19163 -0.08658,2.35173 -0.7285,3.03111z" fill="url(#color-83)" stroke="none" stroke-width="0"/><g fill="none" stroke="none" stroke-width="1" font-family="sans-serif" font-weight="normal" font-size="12" text-anchor="start"><g/><g/></g><g stroke-width="0"><g><path d="M226.17514,190.84113v-0.97871c0,0 0.01923,-0.25497 0.3057,-0.25454c0.30839,0.00046 0.32028,0.25454 0.32028,0.25454v0.97871c0,0 -0.00352,0.28391 -0.3154,0.28391c-0.29802,0 -0.31059,-0.28391 -0.31059,-0.28391z" fill="url(#color-84)" stroke="url(#color-85)"/><path d="M226.74425,190.02945c0,0.17379 -0.11603,0.31468 -0.25915,0.31468c-0.14313,0 -0.25915,-0.14089 -0.25915,-0.31468c0,-0.17379 0.11603,-0.31468 0.25915,-0.31468c0.14313,0 0.25915,0.14089 0.25915,0.31468z" fill="url(#color-86)" stroke="none"/><path d="M226.6809,190.02945c0,0.13131 -0.08766,0.23776 -0.1958,0.23776c-0.10814,0 -0.19581,-0.10645 -0.19581,-0.23776c0,-0.13131 0.08766,-0.23776 0.19581,-0.23776c0.10814,0 0.1958,0.10645 0.1958,0.23776z" fill="#ffffff" stroke="none"/></g><g><path d="M228.17395,190.84113v-0.97871c0,0 0.01923,-0.25497 0.3057,-0.25454c0.30839,0.00046 0.32028,0.25454 0.32028,0.25454v0.97871c0,0 -0.00352,0.28391 -0.3154,0.28391c-0.29802,0 -0.31059,-0.28391 -0.31059,-0.28391z" fill="url(#color-87)" stroke="url(#color-88)"/><path d="M228.74305,190.02945c0,0.17379 -0.11603,0.31468 -0.25915,0.31468c-0.14312,0 -0.25915,-0.14089 -0.25915,-0.31468c0,-0.17379 0.11603,-0.31468 0.25915,-0.31468c0.14313,0 0.25915,0.14089 0.25915,0.31468z" fill="url(#color-89)" stroke="none"/><path d="M228.6797,190.02945c0,0.13131 -0.08766,0.23776 -0.1958,0.23776c-0.10814,0 -0.19581,-0.10645 -0.19581,-0.23776c0,-0.13131 0.08766,-0.23776 0.19581,-0.23776c0.10814,0 0.1958,0.10645 0.1958,0.23776z" fill="#ffffff" stroke="none"/></g></g><path d="M231.58254,190.77765c-0.33291,0.35235 -0.70616,0.80118 -1.17173,0.98011c-0.01985,0.00763 0.09827,-0.79289 0.09827,-0.79289c0,0 -0.27934,-0.61188 -1.05733,-1.07372c-0.55308,-0.32833 -1.3788,-0.52411 -2.00922,-0.49989c-0.73842,0.03172 -1.37171,0.1872 -1.91296,0.50068c-0.81119,0.46982 -1.13136,1.13646 -1.13136,1.13646c0,0 0.22894,0.64084 0.2262,0.63935c-0.58415,-0.31651 -0.96098,-0.58395 -1.22648,-0.91167c-0.73264,-0.71807 -0.99524,-2.0844 -0.82392,-3.04382c0.24374,-1.36494 0.96526,-2.77521 2.2104,-3.56865c0.90464,-0.57646 1.97938,-0.74877 2.69808,-0.74877c0.85388,0 2.1751,0.27092 3.19726,1.06378c1.02232,0.79298 1.43513,2.11553 1.67696,3.2879c0.23986,1.16278 -0.13227,2.35173 -0.77418,3.03111z" fill="url(#color-90)" stroke="none" stroke-width="0"/><path d="M229.72687,185.55071c0,0.99667 -1.01251,1.87317 -2.26151,1.87317c-1.24899,0 -2.26151,-0.87649 -2.26151,-1.87317c0,-0.99667 1.01251,-1.7361 2.26151,-1.7361c1.24899,0 2.26151,0.73943 2.26151,1.7361z" fill="#ffffff" stroke="none" stroke-width="0"/><path d="M223.30785,187.21829c0,0.76958 -0.03203,2.51278 -0.47971,2.51278c-0.1298,0 -0.38332,-0.88005 -0.27405,-1.84773c0.11375,-1.00747 0.69455,-2.14825 0.73092,-2.10419c0.26494,0.09137 0.02284,0.66955 0.02284,1.43914z" fill="#ffffff" stroke="none" stroke-width="0"/><path d="M231.62889,187.21828c0,-0.76958 -0.24209,-1.34777 0.02284,-1.43914c0.08207,-0.04406 0.61717,1.09671 0.73092,2.10419c0.10925,0.96769 -0.14426,1.84773 -0.27405,1.84773c-0.44769,0 -0.47971,-1.7432 -0.47971,-2.51278z" data-paper-data="{&quot;index&quot;:null}" fill="#ffffff" stroke="none" stroke-width="0"/></g></g></g><g stroke="none"><g stroke-width="0"><g data-paper-data="{&quot;index&quot;:null}"><path d="M50.87992,166.55561c0,2.42014 -8.30585,3.81777 -16.51181,2.92911c-7.49487,-0.81166 -14.80479,-3.74441 -17.6849,-5.21576c-3.51118,-1.79374 -9.26252,-7.09737 -12.16644,-12.95204c-2.37137,-4.78096 -2.23145,-10.20286 -2.48922,-12.11874c-0.01724,-0.12812 14.04284,-5.78707 31.168,2.75093c16.47322,8.21296 17.68437,22.26885 17.68437,24.60649z" data-paper-data="{&quot;index&quot;:null}" fill="url(#color-91)"/><path d="M48.91883,163.92534c0,2.19345 -7.52786,3.46017 -14.96519,2.65475c-6.79284,-0.73563 -13.41806,-3.39368 -16.02839,-4.7272c-3.1823,-1.62573 -8.39491,-6.43258 -11.02684,-11.73885c-2.14926,-4.33314 -2.02243,-9.24718 -2.25606,-10.9836c-0.01563,-0.11612 12.72748,-5.24501 28.24855,2.49325c14.93021,7.44368 16.02792,20.18297 16.02792,22.30166z" data-paper-data="{&quot;index&quot;:null}" fill="url(#color-92)"/><path d="M26.75688,151.00814c-7.28372,-3.92983 -21.77024,-11.60062 -21.77024,-11.60062c0,0 16.26267,5.93149 23.98918,9.76706c7.86979,3.9067 20.46841,11.88156 20.46841,11.88156l-1.48687,2.72593c0,0 -13.45378,-8.59431 -21.20048,-12.77393z" fill="url(#color-93)"/></g><g><path d="M60.37032,166.55561c0,-2.33765 1.21115,-16.39353 17.68437,-24.6065c17.12515,-8.538 31.18524,-2.87906 31.168,-2.75093c-0.25777,1.91589 -0.11785,7.33777 -2.48921,12.11874c-2.90394,5.85467 -8.65527,11.15829 -12.16644,12.95204c-2.88011,1.47135 -10.19003,4.4041 -17.6849,5.21576c-8.20597,0.88866 -16.51181,-0.50897 -16.51181,-2.92911z" data-paper-data="{&quot;index&quot;:null}" fill="url(#color-94)"/><path d="M62.33144,163.92534c0,-2.11869 1.09771,-14.85798 16.02792,-22.30166c15.52107,-7.73826 28.26417,-2.60937 28.24855,-2.49325c-0.23363,1.73642 -0.1068,6.65046 -2.25605,10.9836c-2.63193,5.30627 -7.84454,10.11312 -11.02684,11.73885c-2.61033,1.33352 -9.23555,3.99157 -16.02839,4.7272c-7.43732,0.80542 -14.96519,-0.4613 -14.96519,-2.65475z" data-paper-data="{&quot;index&quot;:null}" fill="url(#color-95)"/><path d="M63.29289,163.78207l-1.48687,-2.72594c0,0 12.59862,-7.97486 20.46841,-11.88156c7.72651,-3.83557 23.98919,-9.76706 23.98919,-9.76706c0,0 -14.4865,7.67079 -21.77024,11.60062c-7.74671,4.17962 -21.20048,12.77394 -21.20048,12.77394z" fill="url(#color-96)"/></g><g><path d="M46.6513,170.29227v-34.31929h16.83279v34.31929c0,0 -1.64727,2.69788 -8.33468,2.77823c-6.76616,0.08146 -8.49811,-2.77823 -8.49811,-2.77823z" fill="url(#color-97)"/><path d="M50.28574,172.50914c0,0 -1.64435,-0.47451 -2.28256,-0.92361c-0.99589,-0.7008 -1.36349,-1.5205 -1.36349,-1.5205l0.00596,-27.15944l16.91918,20.2245l-0.1518,7.16303c0,0 -1.37713,2.08888 -5.52291,2.62316c-4.11356,0.53011 -7.60436,-0.40713 -7.60436,-0.40713z" fill="url(#color-98)"/></g></g><g><path d="M118.47666,101.44941c0,26.03921 -27.71236,47.14817 -61.89728,47.14817c-34.18492,0 -61.89728,-21.10895 -61.89728,-47.14817c0,-26.03921 27.71236,-47.14815 61.89728,-47.14815c34.18492,0 61.89728,21.10895 61.89728,47.14817z" fill="url(#color-99)" stroke-width="NaN"/><path d="M116.05545,99.97859c0,25.02065 -26.62835,45.30389 -59.47607,45.30389c-32.84772,0 -59.47607,-20.28324 -59.47607,-45.30389c0,-25.02065 26.62834,-45.30388 59.47607,-45.30388c32.84773,0 59.47607,20.28325 59.47607,45.30389z" fill="url(#color-100)" stroke-width="NaN"/><path d="M104.01353,99.73345c0,19.82576 -21.23699,35.89771 -47.43415,35.89771c-26.19716,0 -47.43415,-16.07195 -47.43415,-35.89771c0,-19.82576 21.23699,-35.89771 47.43415,-35.89771c26.19716,0 47.43415,16.07196 47.43415,35.89772z" fill="url(#color-101)" stroke-width="NaN"/><path d="M95.82723,99.73345c0,16.07194 -17.57186,29.10083 -39.24785,29.10083c-21.67599,0 -39.24784,-13.02888 -39.24784,-29.10083c0,-16.07194 17.57185,-29.10083 39.24784,-29.10083c21.67599,0 39.24785,13.02888 39.24785,29.10083z" fill="url(#color-102)" stroke-width="NaN"/><g><path d="M85.36726,99.48832c0,11.29821 -12.99852,20.45723 -29.03302,20.45723c-16.0345,0 -29.03301,-9.15901 -29.03301,-20.45723c0,-11.29821 12.99852,-20.45723 29.03301,-20.45723c16.03449,0 29.03302,9.15901 29.03302,20.45723z" fill="url(#color-103)" stroke-width="NaN"/><path d="M83.50194,99.48832c0,10.23813 -12.16339,18.53777 -27.16769,18.53777c-15.0043,0 -27.1677,-8.29964 -27.1677,-18.53777c0,-10.23813 12.1634,-18.53777 27.1677,-18.53777c15.0043,0 27.16769,8.29964 27.16769,18.53777z" fill="url(#color-104)" stroke-width="NaN"/><path d="M82.1414,99.48832c0,9.38933 -11.55426,17.00089 -25.80715,17.00089c-14.25289,0 -25.80715,-7.61155 -25.80715,-17.00089c0,-9.38933 11.55426,-17.00089 25.80716,-17.00089c14.2529,0 25.80716,7.61156 25.80716,17.00089z" fill="url(#color-105)" stroke-width="NaN"/></g><g stroke-width="0"><g><path d="M37.95201,92.18498c0,0 0.34098,-4.58287 5.42001,-4.57644c5.4676,0.0069 5.67867,4.57644 5.67867,4.57644v13.61097c0,0 -0.0624,4.64563 -5.59189,4.64563c-5.2839,0 -5.5068,-4.64563 -5.5068,-4.64563z" fill="url(#color-106)"/><g><path d="M46.75405,91.99637c0,2.09689 -1.42934,3.79676 -3.19254,3.79676c-1.76319,0 -3.19255,-1.69987 -3.19255,-3.79676c0,-2.09689 1.42936,-3.79677 3.19255,-3.79677c1.76319,0 3.19254,1.69988 3.19254,3.79677z" fill="url(#color-107)"/><path d="M45.97365,91.99637c0,1.58432 -1.07995,2.86866 -2.41214,2.86866c-1.3322,0 -2.41215,-1.28435 -2.41215,-2.86866c0,-1.58432 1.07996,-2.86867 2.41215,-2.86867c1.3322,0 2.41214,1.28435 2.41214,2.86867z" fill="#ffffff"/></g></g><g><path d="M63.11791,92.18497c0,0 0.34098,-4.58287 5.42001,-4.57644c5.4676,0.0069 5.67867,4.57644 5.67867,4.57644v13.61097c0,0 -0.0624,4.64563 -5.5919,4.64563c-5.2839,0 -5.50679,-4.64563 -5.50679,-4.64563z" fill="url(#color-108)"/><g><path d="M71.91995,91.99637c0,2.09689 -1.42934,3.79676 -3.19254,3.79676c-1.7632,0 -3.19255,-1.69987 -3.19255,-3.79676c0,-2.09689 1.42935,-3.79677 3.19255,-3.79677c1.7632,0 3.19254,1.69988 3.19254,3.79677z" fill="url(#color-109)"/><path d="M71.13957,91.99637c0,1.58432 -1.07996,2.86866 -2.41214,2.86866c-1.3322,0 -2.41214,-1.28435 -2.41214,-2.86866c0,-1.58432 1.07995,-2.86867 2.41214,-2.86867c1.33219,0 2.41214,1.28435 2.41214,2.86867z" fill="#ffffff"/></g></g></g></g></g><g><path d="M216.97748,135.09186c2.22888,2.64721 5.31196,14.84548 0.97732,22.67495c-7.68818,13.88682 -29.01174,12.7669 -33.55992,12.7669c-22.02729,0 -29.56436,-4.8486 -33.91496,-14.13948c-1.98431,-4.23755 -5.54278,-17.91426 0.96409,-25.72832c7.23815,-8.69227 25.10023,-10.16419 32.95087,-10.16419c8.42407,0 25.60006,6.29705 32.5826,14.59014z" fill="url(#color-110)" stroke="none" stroke-width="0"/><path d="M217.9548,157.7668c-7.68818,13.88682 -29.01174,12.7669 -33.55992,12.7669c-22.02729,0 -29.56436,-4.8486 -33.91496,-14.13948c-1.98431,-4.23755 -5.54278,-17.91426 0.96409,-25.72832c7.23815,-8.69227 25.10023,-10.16419 32.95087,-10.16419c8.42407,0 25.60006,6.29705 32.5826,14.59014c0,0 5.31197,14.84548 0.97733,22.67495z" fill="url(#color-111)" stroke="none" stroke-width="0"/><path d="M231.32456,146.78749c-3.84261,4.067 -8.01914,9.11586 -13.39301,11.18117c-0.22912,0.08806 1.00241,-9.02012 1.00241,-9.02012c0,0 -3.2243,-7.06266 -12.20435,-12.39363c-6.38402,-3.78985 -15.91503,-6.4451 -23.19168,-6.16547c-8.52334,0.36614 -15.83302,2.55627 -22.0805,6.17464c-9.36321,5.42291 -13.05888,13.11781 -13.05888,13.11781c0,0 2.5108,7.39698 2.47909,7.3798c-6.74262,-3.65327 -10.96033,-6.74029 -14.0249,-10.52308c-8.45663,-8.28836 -10.56176,-24.15434 -9.11467,-35.13363c2.10938,-16.00426 11.53708,-32.0332 25.90936,-41.19145c10.44196,-6.65379 22.0563,-8.64277 30.35191,-8.64277c9.85606,0 24.84275,3.12719 36.64107,12.2788c11.80019,9.15306 16.19245,24.1339 19.09286,37.95095c1.3124,13.75457 -0.99941,27.14506 -8.40871,34.98699z" fill="url(#color-112)" stroke="none" stroke-width="0"/><g stroke="#dcc67d" stroke-width="3"><g><path d="M168.90905,147.52017v-11.29695c0,0 0.22198,-2.943 3.52856,-2.93808c3.55955,0.00529 3.69696,2.93808 3.69696,2.93808v11.29695c0,0 -0.04063,3.27708 -3.64047,3.27708c-3.43995,0 -3.58507,-3.27708 -3.58507,-3.27708z" fill="url(#color-113)"/><path d="M175.47801,138.15133c0,2.00603 -1.33922,3.63224 -2.99125,3.63224c-1.65203,0 -2.99126,-1.62621 -2.99126,-3.63224c0,-2.00603 1.33923,-3.63224 2.99126,-3.63224c1.65203,0 2.99125,1.62621 2.99125,3.63224z" fill="url(#color-114)"/><path d="M174.74682,138.15133c0,1.51566 -1.01186,2.74436 -2.26005,2.74436c-1.2482,0 -2.26006,-1.22869 -2.26006,-2.74436c0,-1.51566 1.01186,-2.74436 2.26006,-2.74436c1.2482,0 2.26005,1.22869 2.26005,2.74436z" fill="#ffffff"/></g><g><path d="M191.98046,147.52018v-11.29695c0,0 0.22198,-2.943 3.52856,-2.93808c3.55955,0.00529 3.69696,2.93808 3.69696,2.93808v11.29695c0,0 -0.04063,3.27708 -3.64047,3.27708c-3.43995,0 -3.58507,-3.27708 -3.58507,-3.27708z" fill="url(#color-115)"/><path d="M198.54942,138.15134c0,2.00603 -1.33923,3.63224 -2.99125,3.63224c-1.65202,0 -2.99126,-1.62621 -2.99126,-3.63224c0,-2.00603 1.33924,-3.63224 2.99126,-3.63224c1.65203,0 2.99125,1.62621 2.99125,3.63224z" fill="url(#color-116)"/><path d="M197.81823,138.15134c0,1.51566 -1.01186,2.74436 -2.26005,2.74436c-1.2482,0 -2.26006,-1.22869 -2.26006,-2.74436c0,-1.51566 1.01186,-2.74436 2.26006,-2.74436c1.2482,0 2.26005,1.22869 2.26005,2.74436z" fill="#ffffff"/></g></g><g><g><path d="M168.90905,147.52017v-11.29695c0,0 0.22198,-2.943 3.52856,-2.93808c3.55955,0.00529 3.69696,2.93808 3.69696,2.93808v11.29695c0,0 -0.04063,3.27708 -3.64047,3.27708c-3.43995,0 -3.58507,-3.27708 -3.58507,-3.27708z" fill="url(#color-117)" stroke="url(#color-118)" stroke-width="1.5"/><path d="M175.47801,138.15133c0,2.00603 -1.33922,3.63224 -2.99125,3.63224c-1.65203,0 -2.99126,-1.62621 -2.99126,-3.63224c0,-2.00603 1.33923,-3.63224 2.99126,-3.63224c1.65203,0 2.99125,1.62621 2.99125,3.63224z" fill="url(#color-119)" stroke="none" stroke-width="0"/><path d="M174.74682,138.15133c0,1.51566 -1.01186,2.74436 -2.26005,2.74436c-1.2482,0 -2.26006,-1.22869 -2.26006,-2.74436c0,-1.51566 1.01186,-2.74436 2.26006,-2.74436c1.2482,0 2.26005,1.22869 2.26005,2.74436z" fill="#ffffff" stroke="none" stroke-width="0"/></g><g><path d="M191.98046,147.52018v-11.29695c0,0 0.22198,-2.943 3.52856,-2.93808c3.55955,0.00529 3.69696,2.93808 3.69696,2.93808v11.29695c0,0 -0.04063,3.27708 -3.64047,3.27708c-3.43995,0 -3.58507,-3.27708 -3.58507,-3.27708z" fill="url(#color-120)" stroke="url(#color-121)" stroke-width="1.5"/><path d="M198.54942,138.15134c0,2.00603 -1.33923,3.63224 -2.99125,3.63224c-1.65202,0 -2.99126,-1.62621 -2.99126,-3.63224c0,-2.00603 1.33924,-3.63224 2.99126,-3.63224c1.65203,0 2.99125,1.62621 2.99125,3.63224z" fill="url(#color-122)" stroke="none" stroke-width="0"/><path d="M197.81823,138.15134c0,1.51566 -1.01186,2.74436 -2.26005,2.74436c-1.2482,0 -2.26006,-1.22869 -2.26006,-2.74436c0,-1.51566 1.01186,-2.74436 2.26006,-2.74436c1.2482,0 2.26005,1.22869 2.26005,2.74436z" fill="#ffffff" stroke="none" stroke-width="0"/></g></g><path d="M231.32456,146.78749c-3.84261,4.067 -8.15097,9.2477 -13.52485,11.31301c-0.22912,0.08806 1.13425,-9.15196 1.13425,-9.15196c0,0 -3.2243,-7.06266 -12.20435,-12.39363c-6.38402,-3.78985 -15.91503,-6.04959 -23.19168,-5.76996c-8.52334,0.36614 -15.83302,2.16076 -22.0805,5.77913c-9.36321,5.42291 -13.05888,13.11781 -13.05888,13.11781c0,0 2.64264,7.39698 2.61093,7.3798c-6.74262,-3.65327 -11.09217,-6.74029 -14.15674,-10.52308c-8.45663,-8.28836 -11.48772,-24.05939 -9.51018,-35.13363c2.8134,-15.75503 11.14157,-32.0332 25.51385,-41.19145c10.44196,-6.65379 22.84732,-8.64277 31.14293,-8.64277c9.85606,0 25.10642,3.12719 36.90474,12.2788c11.80019,9.15306 16.56514,24.41881 19.35653,37.95095c2.76857,13.42154 -1.52676,27.14506 -8.93606,34.98699z" fill="url(#color-123)" stroke="none" stroke-width="0"/><path d="M209.90525,86.45492c0,11.50419 -11.68701,21.6212 -26.10365,21.6212c-14.41664,0 -26.10365,-10.11701 -26.10365,-21.6212c0,-11.5042 11.68701,-20.03917 26.10365,-20.03917c14.41664,0 26.10365,8.53497 26.10365,20.03916z" fill="#ffffff" stroke="none" stroke-width="0"/><path d="M135.81309,105.70306c0,8.88298 -0.36968,29.00405 -5.53714,29.00405c-1.49824,0 -4.42442,-10.15805 -3.16331,-21.32768c1.31296,-11.62886 8.01686,-24.79637 8.43677,-24.2878c3.05807,1.05469 0.26367,7.72843 0.26367,16.61141z" fill="#ffffff" stroke="none" stroke-width="0"/><path d="M231.85954,105.70305c0,-8.88298 -2.79441,-15.55672 0.26367,-16.61141c0.94726,-0.50857 7.12381,12.65894 8.43677,24.2878c1.26111,11.16962 -1.66506,21.32768 -3.16331,21.32768c-5.16746,0 -5.53714,-20.12107 -5.53714,-29.00405z" data-paper-data="{&quot;index&quot;:null}" fill="#ffffff" stroke="none" stroke-width="0"/></g><g><path d="M339.58552,135.09186c2.22888,2.64721 5.31196,14.84548 0.97732,22.67495c-7.68818,13.88682 -29.01174,12.7669 -33.55992,12.7669c-22.02729,0 -29.56436,-4.8486 -33.91496,-14.13948c-1.98431,-4.23755 -5.54278,-17.91426 0.96409,-25.72832c7.23815,-8.69227 25.10023,-10.16419 32.95087,-10.16419c8.42407,0 25.60006,6.29705 32.5826,14.59014z" fill="url(#color-124)" stroke="none" stroke-width="0"/><path d="M340.56284,157.7668c-7.68818,13.88682 -29.01174,12.7669 -33.55992,12.7669c-22.02729,0 -29.56436,-4.8486 -33.91496,-14.13948c-1.98431,-4.23755 -5.54278,-17.91426 0.96409,-25.72832c7.23815,-8.69227 25.10023,-10.16419 32.95087,-10.16419c8.42407,0 25.60006,6.29705 32.5826,14.59014c0,0 5.31197,14.84548 0.97733,22.67495z" fill="url(#color-125)" stroke="none" stroke-width="0"/><path d="M353.9326,146.78749c-3.84261,4.067 -8.01914,9.11586 -13.39301,11.18117c-0.22912,0.08806 1.00241,-9.02012 1.00241,-9.02012c0,0 -3.2243,-7.06266 -12.20435,-12.39363c-6.38402,-3.78985 -15.91503,-6.4451 -23.19168,-6.16547c-8.52334,0.36614 -15.83302,2.55627 -22.0805,6.17464c-9.36321,5.42291 -13.05888,13.11781 -13.05888,13.11781c0,0 2.5108,7.39698 2.47909,7.3798c-6.74262,-3.65327 -10.96034,-6.74029 -14.0249,-10.52308c-8.45663,-8.28836 -10.56176,-24.15434 -9.11467,-35.13363c2.10938,-16.00426 11.53708,-32.0332 25.90936,-41.19145c10.44196,-6.65379 22.0563,-8.64277 30.35191,-8.64277c9.85606,0 24.84275,3.12719 36.64107,12.2788c11.80019,9.15306 16.19245,24.1339 19.09286,37.95095c1.3124,13.75457 -0.99941,27.14506 -8.40871,34.98699z" fill="url(#color-126)" stroke="none" stroke-width="0"/><path d="M353.9326,146.78749c-3.84261,4.067 -8.15097,9.2477 -13.52485,11.31301c-0.22912,0.08806 1.13425,-9.15196 1.13425,-9.15196c0,0 -3.2243,-7.06266 -12.20435,-12.39363c-6.38402,-3.78985 -15.91503,-6.04959 -23.19168,-5.76996c-8.52334,0.36614 -15.83302,2.16076 -22.0805,5.77913c-9.36321,5.42291 -13.05888,13.11781 -13.05888,13.11781c0,0 2.64264,7.39698 2.61093,7.3798c-6.74262,-3.65327 -11.09217,-6.74029 -14.15674,-10.52308c-8.45663,-8.28836 -11.48772,-24.05939 -9.51018,-35.13363c2.8134,-15.75503 11.14157,-32.0332 25.51385,-41.19145c10.44196,-6.65379 22.84732,-8.64277 31.14293,-8.64277c9.85606,0 25.10642,3.12719 36.90474,12.2788c11.80019,9.15306 16.56514,24.41881 19.35653,37.95095c2.76857,13.42154 -1.52676,27.14506 -8.93606,34.98699z" fill="url(#color-127)" stroke="none" stroke-width="0"/><g stroke="#dcc67d" stroke-width="3"><g><path d="M291.51709,147.52017v-11.29695c0,0 0.22198,-2.943 3.52856,-2.93808c3.55955,0.00529 3.69696,2.93808 3.69696,2.93808v11.29695c0,0 -0.04063,3.27708 -3.64047,3.27708c-3.43995,0 -3.58507,-3.27708 -3.58507,-3.27708z" fill="url(#color-128)"/><path d="M298.08604,138.15133c0,2.00603 -1.33922,3.63224 -2.99125,3.63224c-1.65203,0 -2.99126,-1.62621 -2.99126,-3.63224c0,-2.00603 1.33923,-3.63224 2.99126,-3.63224c1.65203,0 2.99125,1.62621 2.99125,3.63224z" fill="url(#color-129)"/><path d="M297.35486,138.15133c0,1.51566 -1.01186,2.74436 -2.26005,2.74436c-1.2482,0 -2.26006,-1.22869 -2.26006,-2.74436c0,-1.51566 1.01186,-2.74436 2.26006,-2.74436c1.2482,0 2.26005,1.22869 2.26005,2.74436z" fill="#ffffff"/></g><g><path d="M314.58849,147.52018v-11.29695c0,0 0.22198,-2.943 3.52856,-2.93808c3.55955,0.00529 3.69696,2.93808 3.69696,2.93808v11.29695c0,0 -0.04063,3.27708 -3.64047,3.27708c-3.43995,0 -3.58507,-3.27708 -3.58507,-3.27708z" fill="url(#color-130)"/><path d="M321.15745,138.15134c0,2.00603 -1.33923,3.63224 -2.99125,3.63224c-1.65203,0 -2.99126,-1.62621 -2.99126,-3.63224c0,-2.00603 1.33923,-3.63223 2.99126,-3.63223c1.65203,0 2.99125,1.6262 2.99125,3.63223z" fill="url(#color-131)"/><path d="M320.42626,138.15134c0,1.51566 -1.01186,2.74436 -2.26005,2.74436c-1.2482,0 -2.26006,-1.22869 -2.26006,-2.74436c0,-1.51566 1.01186,-2.74436 2.26006,-2.74436c1.2482,0 2.26005,1.22869 2.26005,2.74436z" fill="#ffffff"/></g></g><g><g><path d="M291.51709,147.52017v-11.29695c0,0 0.22198,-2.943 3.52856,-2.93808c3.55955,0.00529 3.69696,2.93808 3.69696,2.93808v11.29695c0,0 -0.04063,3.27708 -3.64047,3.27708c-3.43995,0 -3.58507,-3.27708 -3.58507,-3.27708z" fill="url(#color-132)" stroke="url(#color-133)" stroke-width="1.5"/><path d="M298.08604,138.15133c0,2.00603 -1.33922,3.63224 -2.99125,3.63224c-1.65203,0 -2.99126,-1.62621 -2.99126,-3.63224c0,-2.00603 1.33923,-3.63224 2.99126,-3.63224c1.65203,0 2.99125,1.62621 2.99125,3.63224z" fill="url(#color-134)" stroke="none" stroke-width="0"/><path d="M297.35486,138.15133c0,1.51566 -1.01186,2.74436 -2.26005,2.74436c-1.2482,0 -2.26006,-1.22869 -2.26006,-2.74436c0,-1.51566 1.01186,-2.74436 2.26006,-2.74436c1.2482,0 2.26005,1.22869 2.26005,2.74436z" fill="#ffffff" stroke="none" stroke-width="0"/></g><g><path d="M314.58849,147.52018v-11.29695c0,0 0.22198,-2.943 3.52856,-2.93808c3.55955,0.00529 3.69696,2.93808 3.69696,2.93808v11.29695c0,0 -0.04063,3.27708 -3.64047,3.27708c-3.43995,0 -3.58507,-3.27708 -3.58507,-3.27708z" fill="url(#color-135)" stroke="url(#color-136)" stroke-width="1.5"/><path d="M321.15745,138.15134c0,2.00603 -1.33923,3.63224 -2.99125,3.63224c-1.65202,0 -2.99126,-1.62621 -2.99126,-3.63224c0,-2.00603 1.33924,-3.63224 2.99126,-3.63224c1.65203,0 2.99125,1.62621 2.99125,3.63224z" fill="url(#color-137)" stroke="none" stroke-width="0"/><path d="M320.42627,138.15134c0,1.51566 -1.01186,2.74436 -2.26005,2.74436c-1.2482,0 -2.26006,-1.22869 -2.26006,-2.74436c0,-1.51566 1.01186,-2.74436 2.26006,-2.74436c1.2482,0 2.26005,1.22869 2.26005,2.74436z" fill="#ffffff" stroke="none" stroke-width="0"/></g></g><path d="M332.51329,86.45492c0,11.50419 -11.68701,21.6212 -26.10365,21.6212c-14.41664,0 -26.10365,-10.11701 -26.10365,-21.6212c0,-11.5042 11.68701,-20.03917 26.10365,-20.03917c14.41664,0 26.10365,8.53497 26.10365,20.03916z" fill="#ffffff" stroke="none" stroke-width="0"/><path d="M258.42112,105.70306c0,8.88298 -0.36968,29.00405 -5.53714,29.00405c-1.49824,0 -4.42442,-10.15805 -3.16331,-21.32768c1.31296,-11.62886 8.01686,-24.79637 8.43677,-24.2878c3.05807,1.05469 0.26367,7.72843 0.26367,16.61141z" fill="#ffffff" stroke="none" stroke-width="0"/><path d="M354.46758,105.70305c0,-8.88298 -2.79441,-15.55672 0.26367,-16.61141c0.94726,-0.50857 7.12381,12.65894 8.43677,24.2878c1.26111,11.16962 -1.66506,21.32768 -3.16331,21.32768c-5.16746,0 -5.53714,-20.12107 -5.53714,-29.00405z" data-paper-data="{&quot;index&quot;:null}" fill="#ffffff" stroke="none" stroke-width="0"/></g><g><path d="M466.14866,135.09186c2.22888,2.64721 5.31196,14.84548 0.97732,22.67495c-7.68818,13.88682 -29.01174,12.7669 -33.55992,12.7669c-22.02729,0 -29.56436,-4.8486 -33.91496,-14.13948c-1.98431,-4.23755 -5.54278,-17.91426 0.96409,-25.72832c7.23815,-8.69227 25.10023,-10.16419 32.95087,-10.16419c8.42407,0 25.60006,6.29705 32.5826,14.59014z" fill="url(#color-138)" stroke="none" stroke-width="0"/><path d="M467.12598,157.7668c-7.68818,13.88682 -29.01174,12.7669 -33.55992,12.7669c-22.02729,0 -29.56436,-4.8486 -33.91496,-14.13948c-1.98431,-4.23755 -5.54278,-17.91426 0.96409,-25.72832c7.23815,-8.69227 25.10023,-10.16419 32.95087,-10.16419c8.42407,0 25.60006,6.29705 32.5826,14.59014c0,0 5.31197,14.84548 0.97733,22.67495z" fill="url(#color-139)" stroke="none" stroke-width="0"/><path d="M480.49574,146.78749c-3.84261,4.067 -8.01914,9.11586 -13.39301,11.18117c-0.22912,0.08806 1.00241,-9.02012 1.00241,-9.02012c0,0 -3.2243,-7.06266 -12.20435,-12.39363c-6.38402,-3.78985 -15.91503,-6.4451 -23.19168,-6.16547c-8.52334,0.36614 -15.83302,2.55627 -22.0805,6.17464c-9.36321,5.42291 -13.05888,13.11781 -13.05888,13.11781c0,0 2.5108,7.39698 2.47909,7.3798c-6.74262,-3.65327 -10.96033,-6.74029 -14.0249,-10.52308c-8.45663,-8.28836 -10.56176,-24.15434 -9.11467,-35.13363c2.10938,-16.00426 11.53708,-32.0332 25.90936,-41.19145c10.44196,-6.65379 22.0563,-8.64277 30.35191,-8.64277c9.85606,0 24.84275,3.12719 36.64107,12.2788c11.80019,9.15306 16.19245,24.1339 19.09286,37.95095c1.3124,13.75457 -0.99941,27.14506 -8.40871,34.98699z" fill="url(#color-140)" stroke="none" stroke-width="0"/><path d="M480.49574,146.78749c-3.84261,4.067 -8.15097,9.2477 -13.52485,11.31301c-0.22912,0.08806 1.13425,-9.15196 1.13425,-9.15196c0,0 -3.2243,-7.06266 -12.20435,-12.39363c-6.38402,-3.78985 -15.91503,-6.04959 -23.19168,-5.76996c-8.52334,0.36614 -15.83302,2.16076 -22.0805,5.77913c-9.36321,5.42291 -13.05888,13.11781 -13.05888,13.11781c0,0 2.64264,7.39698 2.61093,7.3798c-6.74262,-3.65327 -11.09217,-6.74029 -14.15674,-10.52308c-8.45663,-8.28836 -11.48772,-24.05939 -9.51018,-35.13363c2.8134,-15.75503 11.14157,-32.0332 25.51385,-41.19145c10.44196,-6.65379 22.84732,-8.64277 31.14293,-8.64277c9.85606,0 25.10642,3.12719 36.90474,12.2788c11.80019,9.15306 16.56514,24.41881 19.35653,37.95095c2.76857,13.42154 -1.52676,27.14506 -8.93606,34.98699z" fill="url(#color-141)" stroke="none" stroke-width="0"/><g stroke="#dcc67d" stroke-width="3"><g><path d="M418.08023,147.52017v-11.29695c0,0 0.22198,-2.943 3.52856,-2.93808c3.55955,0.00529 3.69696,2.93808 3.69696,2.93808v11.29695c0,0 -0.04063,3.27708 -3.64047,3.27708c-3.43995,0 -3.58507,-3.27708 -3.58507,-3.27708z" fill="url(#color-142)"/><path d="M424.64919,138.15133c0,2.00603 -1.33922,3.63224 -2.99125,3.63224c-1.65203,0 -2.99126,-1.62621 -2.99126,-3.63224c0,-2.00603 1.33923,-3.63224 2.99126,-3.63224c1.65203,0 2.99125,1.62621 2.99125,3.63224z" fill="url(#color-143)"/><path d="M423.918,138.15133c0,1.51566 -1.01186,2.74436 -2.26005,2.74436c-1.2482,0 -2.26006,-1.22869 -2.26006,-2.74436c0,-1.51566 1.01186,-2.74436 2.26006,-2.74436c1.2482,0 2.26005,1.22869 2.26005,2.74436z" fill="#ffffff"/></g><g><path d="M441.15163,147.52018v-11.29695c0,0 0.22198,-2.943 3.52856,-2.93808c3.55955,0.00529 3.69696,2.93808 3.69696,2.93808v11.29695c0,0 -0.04063,3.27708 -3.64047,3.27708c-3.43995,0 -3.58507,-3.27708 -3.58507,-3.27708z" fill="url(#color-144)"/><path d="M447.72059,138.15134c0,2.00603 -1.33923,3.63224 -2.99125,3.63224c-1.65202,0 -2.99126,-1.62621 -2.99126,-3.63224c0,-2.00603 1.33924,-3.63223 2.99126,-3.63223c1.65202,0 2.99125,1.6262 2.99125,3.63223z" fill="url(#color-145)"/><path d="M446.98941,138.15134c0,1.51566 -1.01186,2.74436 -2.26005,2.74436c-1.2482,0 -2.26006,-1.22869 -2.26006,-2.74436c0,-1.51566 1.01186,-2.74436 2.26006,-2.74436c1.2482,0 2.26005,1.22869 2.26005,2.74436z" fill="#ffffff"/></g></g><g><g><path d="M418.08023,147.52017v-11.29695c0,0 0.22198,-2.943 3.52856,-2.93808c3.55955,0.00529 3.69696,2.93808 3.69696,2.93808v11.29695c0,0 -0.04063,3.27708 -3.64047,3.27708c-3.43995,0 -3.58507,-3.27708 -3.58507,-3.27708z" fill="url(#color-146)" stroke="url(#color-147)" stroke-width="1.5"/><path d="M424.64919,138.15133c0,2.00603 -1.33922,3.63224 -2.99125,3.63224c-1.65203,0 -2.99126,-1.62621 -2.99126,-3.63224c0,-2.00603 1.33923,-3.63224 2.99126,-3.63224c1.65203,0 2.99125,1.62621 2.99125,3.63224z" fill="url(#color-148)" stroke="none" stroke-width="0"/><path d="M423.918,138.15133c0,1.51566 -1.01186,2.74436 -2.26005,2.74436c-1.2482,0 -2.26006,-1.22869 -2.26006,-2.74436c0,-1.51566 1.01186,-2.74436 2.26006,-2.74436c1.2482,0 2.26005,1.22869 2.26005,2.74436z" fill="#ffffff" stroke="none" stroke-width="0"/></g><g><path d="M441.15164,147.52018v-11.29695c0,0 0.22198,-2.943 3.52856,-2.93808c3.55955,0.00529 3.69696,2.93808 3.69696,2.93808v11.29695c0,0 -0.04063,3.27708 -3.64047,3.27708c-3.43995,0 -3.58507,-3.27708 -3.58507,-3.27708z" fill="url(#color-149)" stroke="url(#color-150)" stroke-width="1.5"/><path d="M447.72059,138.15134c0,2.00603 -1.33923,3.63224 -2.99125,3.63224c-1.65202,0 -2.99126,-1.62621 -2.99126,-3.63224c0,-2.00603 1.33924,-3.63224 2.99126,-3.63224c1.65203,0 2.99125,1.62621 2.99125,3.63224z" fill="url(#color-151)" stroke="none" stroke-width="0"/><path d="M446.98941,138.15134c0,1.51566 -1.01186,2.74436 -2.26005,2.74436c-1.2482,0 -2.26006,-1.22869 -2.26006,-2.74436c0,-1.51566 1.01186,-2.74436 2.26006,-2.74436c1.2482,0 2.26005,1.22869 2.26005,2.74436z" fill="#ffffff" stroke="none" stroke-width="0"/></g></g><path d="M459.07643,86.45492c0,11.50419 -11.68701,21.6212 -26.10365,21.6212c-14.41664,0 -26.10365,-10.11701 -26.10365,-21.6212c0,-11.5042 11.68701,-20.03917 26.10365,-20.03917c14.41664,0 26.10365,8.53497 26.10365,20.03916z" fill="#ffffff" stroke="none" stroke-width="0"/><path d="M384.98427,105.70306c0,8.88298 -0.36968,29.00405 -5.53714,29.00405c-1.49824,0 -4.42442,-10.15805 -3.16331,-21.32768c1.31296,-11.62886 8.01686,-24.79637 8.43677,-24.2878c3.05807,1.05469 0.26367,7.72843 0.26367,16.61141z" fill="#ffffff" stroke="none" stroke-width="0"/><path d="M481.03072,105.70305c0,-8.88298 -2.79441,-15.55672 0.26367,-16.61141c0.94726,-0.50857 7.12381,12.65894 8.43677,24.2878c1.26111,11.16962 -1.66506,21.32768 -3.16331,21.32768c-5.16746,0 -5.53714,-20.12107 -5.53714,-29.00405z" data-paper-data="{&quot;index&quot;:null}" fill="#ffffff" stroke="none" stroke-width="0"/></g></g></g></svg>