<svg version="1.1" xmlns="http://www.w3.org/2000/svg" xmlns:xlink="http://www.w3.org/1999/xlink" width="328" height="205" viewBox="0,0,328,205"><defs><linearGradient x1="239.76421" y1="163.06017" x2="239.76421" y2="167.67341" gradientUnits="userSpaceOnUse" id="color-1"><stop offset="0" stop-color="#f7e555"/><stop offset="1" stop-color="#fac800"/></linearGradient><linearGradient x1="239.76421" y1="196.93981" x2="239.76421" y2="192.32659" gradientUnits="userSpaceOnUse" id="color-2"><stop offset="0" stop-color="#715304"/><stop offset="1" stop-color="#f8b50a"/></linearGradient><linearGradient x1="222.99226" y1="180.15733" x2="227.65104" y2="180.16499" gradientUnits="userSpaceOnUse" id="color-3"><stop offset="0" stop-color="#c89c2b"/><stop offset="1" stop-color="#f5c42e"/></linearGradient><linearGradient x1="257.00775" y1="180.16342" x2="252.34892" y2="180.15581" gradientUnits="userSpaceOnUse" id="color-4"><stop offset="0" stop-color="#b28209"/><stop offset="1" stop-color="#ffba0a"/></linearGradient><radialGradient cx="243.92492" cy="170.93765" r="10.32909" gradientUnits="userSpaceOnUse" id="color-5"><stop offset="0" stop-color="#f4d815"/><stop offset="1" stop-color="#f1cc09"/></radialGradient><linearGradient x1="240" y1="169.67091" x2="240" y2="190.32908" gradientUnits="userSpaceOnUse" id="color-6"><stop offset="0" stop-color="#e1b219" stop-opacity="0"/><stop offset="1" stop-color="#e1b219"/></linearGradient><radialGradient cx="233.26387" cy="175.84604" r="9.49403" gradientUnits="userSpaceOnUse" id="color-7"><stop offset="0" stop-color="#fcc208"/><stop offset="1" stop-color="#f6d613"/></radialGradient><radialGradient cx="239.62032" cy="172.78695" r="7.52832" gradientUnits="userSpaceOnUse" id="color-8"><stop offset="0" stop-color="#d29505"/><stop offset="1" stop-color="#feda10"/></radialGradient><linearGradient x1="240.00007" y1="173.79762" x2="240.00007" y2="186.20359" gradientUnits="userSpaceOnUse" id="color-9"><stop offset="0" stop-color="#f5cb13"/><stop offset="1" stop-color="#fbca07"/></linearGradient><radialGradient cx="237.11044" cy="180.1382" r="4.66534" gradientUnits="userSpaceOnUse" id="color-10"><stop offset="0" stop-color="#fbfc77"/><stop offset="1" stop-color="#fbfc77" stop-opacity="0"/></radialGradient><linearGradient x1="240.04786" y1="180.07699" x2="241.11404" y2="180.07699" gradientUnits="userSpaceOnUse" id="color-11"><stop offset="0" stop-color="#f9db1f"/><stop offset="1" stop-color="#f8dc1b"/></linearGradient><linearGradient x1="239.01746" y1="180.0792" x2="240.05675" y2="180.0792" gradientUnits="userSpaceOnUse" id="color-12"><stop offset="0" stop-color="#f3c717"/><stop offset="1" stop-color="#efc913"/></linearGradient><linearGradient x1="240.04811" y1="175.90057" x2="240.04811" y2="178.78749" gradientUnits="userSpaceOnUse" id="color-13"><stop offset="0" stop-color="#d5a202"/><stop offset="1" stop-color="#d5a202" stop-opacity="0"/></linearGradient><linearGradient x1="238.72129" y1="175.92204" x2="238.72129" y2="184.23635" gradientUnits="userSpaceOnUse" id="color-14"><stop offset="0" stop-color="#f6cb12"/><stop offset="1" stop-color="#facb0c"/></linearGradient><radialGradient cx="242.52605" cy="182.18923" r="3.36807" gradientUnits="userSpaceOnUse" id="color-15"><stop offset="0" stop-color="#e2b902"/><stop offset="1" stop-color="#e2b902" stop-opacity="0"/></radialGradient><radialGradient cx="243.92492" cy="170.93765" r="10.32909" gradientUnits="userSpaceOnUse" id="color-16"><stop offset="0" stop-color="#f4d815"/><stop offset="1" stop-color="#f1cc09"/></radialGradient><linearGradient x1="240" y1="169.67091" x2="240" y2="190.32909" gradientUnits="userSpaceOnUse" id="color-17"><stop offset="0" stop-color="#e1b219" stop-opacity="0"/><stop offset="1" stop-color="#e1b219"/></linearGradient><radialGradient cx="233.26387" cy="175.84604" r="9.49402" gradientUnits="userSpaceOnUse" id="color-18"><stop offset="0" stop-color="#fcc208"/><stop offset="1" stop-color="#f6d613"/></radialGradient><radialGradient cx="239.62032" cy="172.78696" r="7.52832" gradientUnits="userSpaceOnUse" id="color-19"><stop offset="0" stop-color="#d29505"/><stop offset="1" stop-color="#feda10"/></radialGradient><linearGradient x1="240.00007" y1="173.79762" x2="240.00007" y2="186.20359" gradientUnits="userSpaceOnUse" id="color-20"><stop offset="0" stop-color="#f5cb13"/><stop offset="1" stop-color="#fbca07"/></linearGradient><radialGradient cx="237.11044" cy="180.1382" r="4.66534" gradientUnits="userSpaceOnUse" id="color-21"><stop offset="0" stop-color="#fbfc77"/><stop offset="1" stop-color="#fbfc77" stop-opacity="0"/></radialGradient><linearGradient x1="240.04786" y1="180.077" x2="241.11404" y2="180.077" gradientUnits="userSpaceOnUse" id="color-22"><stop offset="0" stop-color="#f9db1f"/><stop offset="1" stop-color="#f8dc1b"/></linearGradient><linearGradient x1="239.01746" y1="180.0792" x2="240.05675" y2="180.0792" gradientUnits="userSpaceOnUse" id="color-23"><stop offset="0" stop-color="#f3c717"/><stop offset="1" stop-color="#efc913"/></linearGradient><linearGradient x1="240.04811" y1="175.90057" x2="240.04811" y2="178.78749" gradientUnits="userSpaceOnUse" id="color-24"><stop offset="0" stop-color="#d5a202"/><stop offset="1" stop-color="#d5a202" stop-opacity="0"/></linearGradient><linearGradient x1="238.72129" y1="175.92204" x2="238.72129" y2="184.23636" gradientUnits="userSpaceOnUse" id="color-25"><stop offset="0" stop-color="#f6cb12"/><stop offset="1" stop-color="#facb0c"/></linearGradient><radialGradient cx="242.52605" cy="182.18923" r="3.36807" gradientUnits="userSpaceOnUse" id="color-26"><stop offset="0" stop-color="#e2b902"/><stop offset="1" stop-color="#e2b902" stop-opacity="0"/></radialGradient></defs><g transform="translate(-76,-77.5)"><g data-paper-data="{&quot;isPaintingLayer&quot;:true}" fill-rule="nonzero" stroke-linecap="butt" stroke-linejoin="miter" stroke-miterlimit="10" stroke-dasharray="" stroke-dashoffset="0" style="mix-blend-mode: normal"><path d="M76,282.5v-205h328v205z" fill="none" stroke="none" stroke-width="0"/><g stroke="none"><g data-paper-data="{&quot;origPos&quot;:null}"><path d="M227.32436,167.67341l-3.89449,-3.67755l0.69893,-0.93568h31.27082l1.00816,0.93865l-3.74721,3.67458z" data-paper-data="{&quot;origPos&quot;:null}" fill="url(#color-1)" stroke-width="0"/><path d="M252.66058,192.32659l3.73381,3.6436l-0.99476,0.96963h-31.27082l-0.70571,-0.76136l3.90126,-3.85187z" data-paper-data="{&quot;origPos&quot;:null,&quot;index&quot;:null}" fill="url(#color-2)" stroke-width="0"/><path d="M227.63044,192.52346l-3.98506,3.91549l-0.67902,-0.7485l0.05177,-31.06623l0.65288,-0.8943l4.00138,3.6231z" data-paper-data="{&quot;origPos&quot;:null,&quot;origRot&quot;:0}" fill="url(#color-3)" stroke-width="0"/><path d="M252.3703,167.38565l3.77202,-3.61783l0.89132,0.91321l-0.05178,30.67547l-0.81378,0.85511l-3.83973,-3.73771z" data-paper-data="{&quot;origPos&quot;:null,&quot;index&quot;:null,&quot;origRot&quot;:0}" fill="url(#color-4)" stroke-width="0"/><path d="M227.31042,192.59075v-25.20395h25.3621v25.20395z" data-paper-data="{&quot;origPos&quot;:null}" fill="#f8c01c" stroke-width="NaN"/><path d="M225.54916,167.11112c0,-0.89974 0.73659,-1.62912 1.64521,-1.62912c0.90863,0 1.64522,0.72938 1.64522,1.62912c0,0.89974 -0.7366,1.62912 -1.64522,1.62912c-0.90863,0 -1.64521,-0.72939 -1.64521,-1.62912z" data-paper-data="{&quot;origPos&quot;:null}" fill="#615929" stroke-width="0"/><path d="M225.49884,192.96022c0,-0.89974 0.73659,-1.62912 1.64522,-1.62912c0.90863,0 1.64522,0.72938 1.64522,1.62912c0,0.89974 -0.7366,1.62911 -1.64522,1.62911c-0.90863,0 -1.64522,-0.72937 -1.64522,-1.62911z" data-paper-data="{&quot;origPos&quot;:null}" fill="#615929" stroke-width="0"/><g data-paper-data="{&quot;origPos&quot;:null}" fill="#615929" stroke-width="0"><path d="M251.2267,167.14567c0,-0.89974 0.7366,-1.62912 1.64523,-1.62912c0.90863,0 1.64523,0.72938 1.64523,1.62912c0,0.89974 -0.73659,1.62913 -1.64523,1.62913c-0.90863,0 -1.64523,-0.72939 -1.64523,-1.62913z" data-paper-data="{&quot;origPos&quot;:null}"/><path d="M251.17638,192.99479c0,-0.89974 0.73659,-1.62912 1.64522,-1.62912c0.90863,0 1.64522,0.72938 1.64522,1.62912c0,0.89974 -0.7366,1.62912 -1.64522,1.62912c-0.90863,0 -1.64522,-0.72938 -1.64522,-1.62912z" data-paper-data="{&quot;origPos&quot;:null}"/></g></g><g data-paper-data="{&quot;origPos&quot;:null}" fill="#c49821" stroke-width="0"><g data-paper-data="{&quot;origPos&quot;:null}"><path d="M237.93138,193.06241v-3.53364h6.60845v3.53365z" data-paper-data="{&quot;origPos&quot;:null}"/><path d="M238.06355,186.25687c0,0 0,-2.93981 0,-5.15651c0,-1.15703 2.10296,-2.95779 3.19849,-2.95779c1.52678,0 3.27779,0 3.27779,0v8.11431z" data-paper-data="{&quot;origPos&quot;:null}"/><path d="M251.88841,173.95455v5.1565l-3.53792,2.9578h-3.62565v-8.11429z" data-paper-data="{&quot;origPos&quot;:null,&quot;index&quot;:null}"/><path d="M244.72487,176.2056v-8.11431h3.62565l3.53792,2.9578v5.15651z" data-paper-data="{&quot;origPos&quot;:null,&quot;index&quot;:null}"/><path d="M243.21811,182.04268v-3.87392h1.58603v3.87392z" data-paper-data="{&quot;origPos&quot;:null}"/><path d="M234.91793,172.4364v-4.31891h10.41492v4.31891z" data-paper-data="{&quot;origPos&quot;:null}"/><path d="M229.39325,178.09023c0,0 0,-3.81304 0,-6.53027c0,-1.41828 2.1888,-3.41628 3.32904,-3.41628c1.5891,0 3.41157,0 3.41157,0v9.94655z" data-paper-data="{&quot;origPos&quot;:null,&quot;index&quot;:null}"/></g><path d="M238.07955,186.24434l-0.98333,-1.09092l0.73351,-0.79663l1.35758,1.22568z" data-paper-data="{&quot;origRot&quot;:0,&quot;origPos&quot;:null}"/><path d="M237.94346,193.04944l-0.98334,-1.09092l0.73352,-0.79663l1.35758,1.22568z" data-paper-data="{&quot;origRot&quot;:0,&quot;origPos&quot;:null}"/><path d="M243.57931,188.46681l0.98335,1.09092l-0.73352,0.79662l-1.35759,-1.22568z" data-paper-data="{&quot;origRot&quot;:0,&quot;origPos&quot;:null,&quot;index&quot;:null}"/><path d="M229.38815,178.08421l-0.98333,-1.09092l0.73351,-0.79663l1.35758,1.22568z" data-paper-data="{&quot;origRot&quot;:0,&quot;origPos&quot;:null}"/></g><g data-paper-data="{&quot;origPos&quot;:null}" fill="#ffffff" stroke-width="0"><path d="M236.94908,191.97744v-3.53365h6.60845v3.53365z" data-paper-data="{&quot;origPos&quot;:null}"/><path d="M237.08126,185.17189v-5.1565l3.19849,-2.9578h3.27779v8.1143z" data-paper-data="{&quot;origPos&quot;:null}"/><path d="M250.90614,172.86957v5.1565l-3.53792,2.95779h-3.62564v-8.11429z" data-paper-data="{&quot;origPos&quot;:null,&quot;index&quot;:null}"/><path d="M243.74255,175.12064v-8.11429h3.62564l3.53792,2.95779v5.15651z" data-paper-data="{&quot;origPos&quot;:null,&quot;index&quot;:null}"/><path d="M242.23583,180.99138v-3.90761h1.58603v3.90761z" data-paper-data="{&quot;origPos&quot;:null}"/><path d="M233.9356,171.35142v-4.31891h10.41492v4.31891z" data-paper-data="{&quot;origPos&quot;:null}"/><path d="M228.41098,177.00522v-6.53028l3.32903,-3.41627h3.41157v9.94655z" data-paper-data="{&quot;origPos&quot;:null,&quot;index&quot;:null}"/></g></g><g><g stroke="#000000" stroke-width="3.5"><path d="M249.16525,179.99999c0,5.7046 -4.10342,10.3291 -9.16525,10.3291c-5.06183,0 -9.16525,-4.62449 -9.16525,-10.32909c0,-5.7046 4.10342,-10.32909 9.16525,-10.32909c5.06183,0 9.16525,4.62449 9.16525,10.3291z" fill="url(#color-5)"/><path d="M249.16525,179.99999c0,5.7046 -4.10342,10.3291 -9.16525,10.3291c-5.06183,0 -9.16525,-4.62449 -9.16525,-10.32909c0,-5.7046 4.10342,-10.32909 9.16525,-10.32909c5.06183,0 9.16525,4.62449 9.16525,10.3291z" fill="url(#color-6)"/><path d="M248.42428,179.99999c0,5.24341 -3.77167,9.49403 -8.42428,9.49403c-4.6526,0 -8.42428,-4.25062 -8.42428,-9.49403c0,-5.24341 3.77167,-9.49403 8.42428,-9.49403c4.6526,0 8.42428,4.25062 8.42428,9.49403z" fill="url(#color-7)"/><path d="M246.69122,179.99999c0,4.15777 -2.99076,7.52832 -6.68005,7.52832c-3.68929,0 -6.68005,-3.37054 -6.68005,-7.52832c0,-4.15777 2.99075,-7.52831 6.68005,-7.52831c3.68929,0 6.68005,3.37054 6.68005,7.52831z" fill="url(#color-8)"/><g><g><path d="M245.50413,180.0006c0,3.42582 -2.46425,6.20299 -5.50406,6.20299c-3.0398,0 -5.50405,-2.77717 -5.50405,-6.20299c0,-3.42582 2.46425,-6.20298 5.50405,-6.20298c3.03981,0 5.50406,2.77717 5.50406,6.20298z" fill="url(#color-9)"/><path d="M232.4451,180.1382c0,-3.99228 2.08874,-7.22866 4.66534,-7.22866c2.5766,0 4.66534,3.23638 4.66534,7.22866c0,3.99228 -2.08875,7.22866 -4.66534,7.22866c-2.5766,0 -4.66534,-3.23637 -4.66534,-7.22866z" fill="url(#color-10)"/></g><path d="M240.04786,184.3417v-8.52941h1.06617v8.52941z" fill="url(#color-11)"/></g><path d="M239.01746,184.23635v-8.31432h1.03929v8.31432z" fill="url(#color-12)"/><path d="M239.00883,178.78749v-2.88691h2.07858v2.88691z" fill="url(#color-13)"/><path d="M238.4301,184.23635v-8.31432h0.58238v8.31432z" fill="url(#color-14)"/><path d="M239.15798,182.18923c0,-1.86013 1.50793,-3.36807 3.36807,-3.36807c1.86013,0 3.36807,1.50793 3.36807,3.36807c0,1.86013 -1.50793,3.36807 -3.36807,3.36807c-1.86013,0 -3.36807,-1.50793 -3.36807,-3.36807z" fill="url(#color-15)"/></g><g stroke="none" stroke-width="0"><path d="M249.16525,179.99999c0,5.7046 -4.10342,10.32909 -9.16525,10.32909c-5.06183,0 -9.16525,-4.62449 -9.16525,-10.32909c0,-5.7046 4.10342,-10.32909 9.16525,-10.32909c5.06183,0 9.16525,4.62449 9.16525,10.32909z" fill="url(#color-16)"/><path d="M249.16525,179.99999c0,5.7046 -4.10342,10.32909 -9.16525,10.32909c-5.06183,0 -9.16525,-4.62449 -9.16525,-10.32909c0,-5.7046 4.10342,-10.32909 9.16525,-10.32909c5.06183,0 9.16525,4.62449 9.16525,10.32909z" fill="url(#color-17)"/><path d="M248.42428,179.99999c0,5.24341 -3.77168,9.49402 -8.42428,9.49402c-4.65259,0 -8.42428,-4.25061 -8.42428,-9.49402c0,-5.24341 3.77168,-9.49402 8.42428,-9.49402c4.6526,0 8.42428,4.25061 8.42428,9.49402z" fill="url(#color-18)"/><path d="M246.69122,179.99999c0,4.15778 -2.99076,7.52832 -6.68005,7.52832c-3.68929,0 -6.68005,-3.37054 -6.68005,-7.52832c0,-4.15778 2.99076,-7.52832 6.68005,-7.52832c3.68929,0 6.68005,3.37054 6.68005,7.52832z" fill="url(#color-19)"/><g><g><path d="M245.50413,180.0006c0,3.42582 -2.46425,6.20298 -5.50405,6.20298c-3.0398,0 -5.50405,-2.77717 -5.50405,-6.20298c0,-3.42582 2.46425,-6.20298 5.50405,-6.20298c3.0398,0 5.50405,2.77717 5.50405,6.20298z" fill="url(#color-20)"/><path d="M232.4451,180.1382c0,-3.99228 2.08874,-7.22866 4.66534,-7.22866c2.5766,0 4.66534,3.23638 4.66534,7.22866c0,3.99228 -2.08874,7.22866 -4.66534,7.22866c-2.5766,0 -4.66534,-3.23638 -4.66534,-7.22866z" fill="url(#color-21)"/></g><path d="M240.04786,184.3417v-8.52941h1.06618v8.52941z" fill="url(#color-22)"/></g><path d="M239.01746,184.23636v-8.31432h1.03929v8.31432z" fill="url(#color-23)"/><path d="M239.00883,178.78749v-2.88691h2.07858v2.88691z" fill="url(#color-24)"/><path d="M238.4301,184.23636v-8.31432h0.58238v8.31432z" fill="url(#color-25)"/><path d="M239.15798,182.18923c0,-1.86013 1.50794,-3.36807 3.36807,-3.36807c1.86013,0 3.36807,1.50794 3.36807,3.36807c0,1.86013 -1.50794,3.36807 -3.36807,3.36807c-1.86013,0 -3.36807,-1.50794 -3.36807,-3.36807z" fill="url(#color-26)"/></g></g></g></g></svg>