<svg version="1.1" xmlns="http://www.w3.org/2000/svg" xmlns:xlink="http://www.w3.org/1999/xlink" width="328" height="205" viewBox="0,0,328,205"><g transform="translate(-76,-77.5)"><g data-paper-data="{&quot;isPaintingLayer&quot;:true}" fill-rule="nonzero" stroke-linecap="butt" stroke-linejoin="miter" stroke-miterlimit="10" stroke-dasharray="" stroke-dashoffset="0" style="mix-blend-mode: normal"><path d="M76,282.5v-205h328v205z" fill="none" stroke="none" stroke-width="0"/><g><path d="M224.26579,191.21971c0,-6.57685 0,-18.41778 0,-22.16905c0,-2.24096 2.43368,-4.78487 4.60463,-4.78487c2.21722,0 15.18311,0 22.25917,0c2.74572,0 4.60463,2.4887 4.60463,4.69475c0,3.72175 0,15.54716 0,22.16905c0,2.75153 -2.4887,4.60463 -4.69475,4.60463c-3.72175,0 -15.54716,0 -22.16905,0c-2.75153,0 -4.60463,-1.81325 -4.60463,-4.51452z" fill="#d00000" stroke="#b60000" stroke-width="2.5"/><g data-paper-data="{&quot;index&quot;:null}" fill="#40e213" stroke="none" stroke-width="0"><path d="M237.0075,188.65845v-3.68539h13.25808v3.68539z"/><path d="M248.40709,186.8486l-6.3327,-6.39642l4.48171,0.00325l6.36793,6.36793z"/><path d="M252.92401,186.80813l-6.36793,6.36793l-4.48171,0.00326l6.3327,-6.39642z" data-paper-data="{&quot;index&quot;:null}"/></g><text transform="translate(226.90402,180.62602) scale(0.44842,0.44842)" font-size="40" xml:space="preserve" fill="#920000" fill-rule="nonzero" stroke="#920000" stroke-width="2" stroke-linecap="butt" stroke-linejoin="miter" stroke-miterlimit="10" stroke-dasharray="" stroke-dashoffset="0" font-family="Sans Serif" font-weight="normal" text-anchor="start" style="mix-blend-mode: normal"><tspan x="0" dy="0">SP</tspan></text></g></g></g></svg>