<svg version="1.1" xmlns="http://www.w3.org/2000/svg" xmlns:xlink="http://www.w3.org/1999/xlink" width="505.09091" height="410.09091" viewBox="0,0,505.09091,410.09091"><g transform="translate(11.7894,39.81865)"><g data-paper-data="{&quot;isPaintingLayer&quot;:true}" fill-rule="nonzero" stroke-linejoin="miter" stroke-miterlimit="10" stroke-dasharray="" stroke-dashoffset="0" style="mix-blend-mode: normal"><path d="M-2,364.00001v-368h484v368z" fill="#8d9ba9" stroke="none" stroke-width="0" stroke-linecap="butt"/><g fill="none" stroke="#9fb1c6" stroke-width="0.5" stroke-linecap="butt"><g><g><path d="M63.24592,364.57232v-35.05353h35.05353v35.05353z"/><path d="M98.30496,364.57232v-35.05353h35.05353v35.05353z"/><g><path d="M63.24592,329.49109v-35.05353h35.05353v35.05353z"/><path d="M98.30496,329.49109v-35.05353h35.05353v35.05353z"/></g><g><path d="M-6.87135,364.57233v-35.05353h35.05353v35.05353z"/><path d="M28.18769,364.57233v-35.05353h35.05353v35.05353z"/><g><path d="M-6.87136,329.49109v-35.05353h35.05353v35.05353z"/><path d="M28.18769,329.49109v-35.05353h35.05353v35.05353z"/></g></g><g><path d="M203.48218,364.57232v-35.05353h35.05353v35.05353z"/><path d="M238.54123,364.57232v-35.05353h35.05353v35.05353z"/><g><path d="M203.48218,329.49109v-35.05353h35.05353v35.05353z"/><path d="M238.54123,329.49109v-35.05353h35.05353v35.05353z"/></g><g><path d="M133.36491,364.57232v-35.05353h35.05353v35.05353z"/><path d="M168.42395,364.57232v-35.05353h35.05353v35.05353z"/><g><path d="M133.3649,329.49109v-35.05353h35.05353v35.05353z"/><path d="M168.42395,329.49109v-35.05353h35.05353v35.05353z"/></g></g></g><path d="M343.71843,364.57782v-35.05353h35.05353v35.05353z"/><path d="M378.77748,364.57782v-35.05353h35.05353v35.05353z"/><g><path d="M343.71843,329.49665v-35.05353h35.05353v35.05353z"/><path d="M378.77748,329.49663v-35.05353h35.05353v35.05353z"/></g><g><path d="M273.60116,364.57782v-35.05353h35.05353v35.05353z"/><path d="M308.6602,364.57782v-35.05353h35.05353v35.05353z"/><g><path d="M273.60115,329.49665v-35.05353h35.05353v35.05353z"/><path d="M308.6602,329.49663v-35.05353h35.05353v35.05353z"/></g></g><path d="M413.82749,364.57782v-35.05353h35.05353v35.05353z"/><path d="M448.88653,364.57782v-35.05353h35.05353v35.05353z"/><g><path d="M413.82749,329.49663v-35.05353h35.05353v35.05353z"/><path d="M448.88653,329.49663v-35.05353h35.05353v35.05353z"/></g></g><g><path d="M63.24592,294.50404v-35.05353h35.05353v35.05353z"/><path d="M98.30496,294.50404v-35.05353h35.05353v35.05353z"/><g><path d="M63.24592,259.42285v-35.05353h35.05353v35.05353z"/><path d="M98.30496,259.42285v-35.05353h35.05353v35.05353z"/></g><g><path d="M-6.87135,294.50404v-35.05353h35.05353v35.05353z"/><path d="M28.18769,294.50404v-35.05353h35.05353v35.05353z"/><g><path d="M-6.87136,259.42285v-35.05353h35.05353v35.05353z"/><path d="M28.18769,259.42285v-35.05353h35.05353v35.05353z"/></g></g><g><path d="M203.48218,294.50404v-35.05353h35.05353v35.05353z"/><path d="M238.54123,294.50404v-35.05353h35.05353v35.05353z"/><g><path d="M203.48218,259.42285v-35.05353h35.05353v35.05353z"/><path d="M238.54123,259.42285v-35.05353h35.05353v35.05353z"/></g><g><path d="M133.36491,294.50404v-35.05353h35.05353v35.05353z"/><path d="M168.42395,294.50404v-35.05353h35.05353v35.05353z"/><g><path d="M133.3649,259.42285v-35.05353h35.05353v35.05353z"/><path d="M168.42395,259.42285v-35.05353h35.05353v35.05353z"/></g></g></g><path d="M343.71843,294.50955v-35.05353h35.05353v35.05353z"/><path d="M378.77748,294.50955v-35.05353h35.05353v35.05353z"/><g><path d="M343.71843,259.42839v-35.05353h35.05353v35.05353z"/><path d="M378.77748,259.42837v-35.05353h35.05353v35.05353z"/></g><g><path d="M273.60116,294.50955v-35.05353h35.05353v35.05353z"/><path d="M308.6602,294.50955v-35.05353h35.05353v35.05353z"/><g><path d="M273.60115,259.42839v-35.05353h35.05353v35.05353z"/><path d="M308.6602,259.42837v-35.05353h35.05353v35.05353z"/></g></g><path d="M413.8275,294.50955v-35.05353h35.05353v35.05353z"/><path d="M448.88654,294.50955v-35.05353h35.05353v35.05353z"/><g><path d="M413.8275,259.42837v-35.05353h35.05353v35.05353z"/><path d="M448.88654,259.42837v-35.05353h35.05353v35.05353z"/></g></g></g><g><path d="M63.24592,224.33602v-35.05353h35.05353v35.05353z"/><path d="M98.30496,224.33602v-35.05353h35.05353v35.05353z"/><g><path d="M63.24592,189.25484v-35.05353h35.05353v35.05353z"/><path d="M98.30496,189.25484v-35.05353h35.05353v35.05353z"/></g><g><path d="M-6.87135,224.33603v-35.05353h35.05353v35.05353z"/><path d="M28.18769,224.33603v-35.05353h35.05353v35.05353z"/><g><path d="M-6.87136,189.25484v-35.05353h35.05353v35.05353z"/><path d="M28.18769,189.25484v-35.05353h35.05353v35.05353z"/></g></g><g><path d="M203.48218,224.33602v-35.05353h35.05353v35.05353z"/><path d="M238.54123,224.33602v-35.05353h35.05353v35.05353z"/><g><path d="M203.48218,189.25484v-35.05353h35.05353v35.05353z"/><path d="M238.54123,189.25484v-35.05353h35.05353v35.05353z"/></g><g><path d="M133.36491,224.33602v-35.05353h35.05353v35.05353z"/><path d="M168.42395,224.33602v-35.05353h35.05353v35.05353z"/><g><path d="M133.3649,189.25484v-35.05353h35.05353v35.05353z"/><path d="M168.42395,189.25484v-35.05353h35.05353v35.05353z"/></g></g></g><path d="M343.71843,224.34154v-35.05353h35.05353v35.05353z"/><path d="M378.77748,224.34154v-35.05353h35.05353v35.05353z"/><g><path d="M343.71843,189.26038v-35.05353h35.05353v35.05353z"/><path d="M378.77748,189.26036v-35.05353h35.05353v35.05353z"/></g><g><path d="M273.60116,224.34154v-35.05353h35.05353v35.05353z"/><path d="M308.6602,224.34154v-35.05353h35.05353v35.05353z"/><g><path d="M273.60115,189.26038v-35.05353h35.05353v35.05353z"/><path d="M308.6602,189.26036v-35.05353h35.05353v35.05353z"/></g></g><path d="M413.82749,224.34154v-35.05353h35.05353v35.05353z"/><path d="M448.88653,224.34154v-35.05353h35.05353v35.05353z"/><g><path d="M413.82749,189.26037v-35.05353h35.05353v35.05353z"/><path d="M448.88653,189.26036v-35.05353h35.05353v35.05353z"/></g></g><g><path d="M63.24592,154.26776v-35.05353h35.05353v35.05353z"/><path d="M98.30496,154.26776v-35.05353h35.05353v35.05353z"/><g><path d="M63.24592,119.18658v-35.05353h35.05353v35.05353z"/><path d="M98.30496,119.18658v-35.05353h35.05353v35.05353z"/></g><g><path d="M-6.87135,154.26778v-35.05353h35.05353v35.05353z"/><path d="M28.18769,154.26778v-35.05353h35.05353v35.05353z"/><g><path d="M-6.87136,119.18658v-35.05353h35.05353v35.05353z"/><path d="M28.18769,119.18658v-35.05353h35.05353v35.05353z"/></g></g><g><path d="M203.48218,154.26776v-35.05353h35.05353v35.05353z"/><path d="M238.54123,154.26776v-35.05353h35.05353v35.05353z"/><g><path d="M203.48218,119.18658v-35.05353h35.05353v35.05353z"/><path d="M238.54123,119.18658v-35.05353h35.05353v35.05353z"/></g><g><path d="M133.36491,154.26776v-35.05353h35.05353v35.05353z"/><path d="M168.42395,154.26776v-35.05353h35.05353v35.05353z"/><g><path d="M133.3649,119.18658v-35.05353h35.05353v35.05353z"/><path d="M168.42395,119.18658v-35.05353h35.05353v35.05353z"/></g></g></g><path d="M343.71843,154.27329v-35.05353h35.05353v35.05353z"/><path d="M378.77748,154.27329v-35.05353h35.05353v35.05353z"/><g><path d="M343.71843,119.19213v-35.05353h35.05353v35.05353z"/><path d="M378.77748,119.19211v-35.05353h35.05353v35.05353z"/></g><g><path d="M273.60116,154.27329v-35.05353h35.05353v35.05353z"/><path d="M308.6602,154.27329v-35.05353h35.05353v35.05353z"/><g><path d="M273.60115,119.19213v-35.05353h35.05353v35.05353z"/><path d="M308.6602,119.19211v-35.05353h35.05353v35.05353z"/></g></g><path d="M413.8275,154.27329v-35.05353h35.05353v35.05353z"/><path d="M448.88654,154.27329v-35.05353h35.05353v35.05353z"/><g><path d="M413.8275,119.19212v-35.05353h35.05353v35.05353z"/><path d="M448.88654,119.19211v-35.05353h35.05353v35.05353z"/></g></g><path d="M63.24592,84.1995v-35.05353h35.05353v35.05353z"/><path d="M98.30496,84.1995v-35.05353h35.05353v35.05353z"/><path d="M-6.87135,84.19951v-35.05353h35.05353v35.05353z"/><path d="M28.18769,84.19951v-35.05353h35.05353v35.05353z"/><path d="M203.48218,84.1995v-35.05353h35.05353v35.05353z"/><path d="M238.54123,84.1995v-35.05353h35.05353v35.05353z"/><path d="M133.36491,84.1995v-35.05353h35.05353v35.05353z"/><path d="M168.42395,84.1995v-35.05353h35.05353v35.05353z"/><path d="M343.71843,84.20503v-35.05353h35.05353v35.05353z"/><path d="M378.77748,84.20503v-35.05353h35.05353v35.05353z"/><path d="M273.60116,84.20503v-35.05353h35.05353v35.05353z"/><path d="M308.6602,84.20503v-35.05353h35.05353v35.05353z"/><path d="M413.8275,84.20503v-35.05353h35.05353v35.05353z"/><path d="M448.88654,84.20503v-35.05353h35.05353v35.05353z"/><g><path d="M63.24592,49.11833v-35.05353h35.05353v35.05353z"/><path d="M98.30496,49.11833v-35.05353h35.05353v35.05353z"/><g><path d="M-6.87136,49.11833v-35.05353h35.05353v35.05353z"/><path d="M28.18769,49.11833v-35.05353h35.05353v35.05353z"/></g><g><path d="M203.48218,49.11833v-35.05353h35.05353v35.05353z"/><path d="M238.54123,49.11833v-35.05353h35.05353v35.05353z"/></g><g><path d="M133.3649,49.11833v-35.05353h35.05353v35.05353z"/><path d="M168.42395,49.11833v-35.05353h35.05353v35.05353z"/></g><g><path d="M343.71843,49.12386v-35.05353h35.05353v35.05353z"/><path d="M378.77748,49.12385v-35.05353h35.05353v35.05353z"/></g><g><path d="M273.60115,49.12386v-35.05353h35.05353v35.05353z"/><path d="M308.6602,49.12385v-35.05353h35.05353v35.05353z"/></g><g><path d="M413.8275,49.12386v-35.05353h35.05353v35.05353z"/><path d="M448.88654,49.12385v-35.05353h35.05353v35.05353z"/></g></g><g><path d="M63.24592,14.09805v-35.05353h35.05353v35.05353z"/><path d="M98.30496,14.09805v-35.05353h35.05353v35.05353z"/><g><path d="M-6.87136,14.09805v-35.05353h35.05353v35.05353z"/><path d="M28.18769,14.09805v-35.05353h35.05353v35.05353z"/></g><g><path d="M203.48218,14.09805v-35.05353h35.05353v35.05353z"/><path d="M238.54123,14.09805v-35.05353h35.05353v35.05353z"/></g><g><path d="M133.3649,14.09805v-35.05353h35.05353v35.05353z"/><path d="M168.42395,14.09805v-35.05353h35.05353v35.05353z"/></g><g><path d="M343.71843,14.1036v-35.05353h35.05353v35.05353z"/><path d="M378.77748,14.10359v-35.05353h35.05353v35.05353z"/></g><g><path d="M273.60115,14.1036v-35.05353h35.05353v35.05353z"/><path d="M308.6602,14.10359v-35.05353h35.05353v35.05353z"/></g><g><path d="M413.8275,14.10359v-35.05353h35.05353v35.05353z"/><path d="M448.88654,14.10358v-35.05353h35.05353v35.05353z"/></g></g></g><g fill="none" stroke="#afbac7" stroke-width="1" stroke-linecap="round"><g><path d="M-7.48071,364.52789h500.28222"/><path d="M-7.63523,294.42269h500.28222"/><path d="M492.80151,224.3136h-500.28222"/><path d="M489.10484,154.1833h-500.28222"/><path d="M-11.2894,84.0781h500.28222"/><path d="M-11.17738,13.96901h500.28222"/></g><g><path d="M483.93213,-39.31865v406"/><path d="M413.82694,366.80674v-406"/><path d="M343.71785,-39.31865v406"/><path d="M273.58755,369.68135v-406"/><path d="M203.48235,369.77226v-406"/><path d="M133.37326,-36.31865v406"/><path d="M63.24664,369.77226v-406"/></g></g></g></g></svg>