<svg version="1.1" xmlns="http://www.w3.org/2000/svg" xmlns:xlink="http://www.w3.org/1999/xlink" width="328" height="205" viewBox="0,0,328,205"><defs><linearGradient x1="273.34618" y1="166.40881" x2="273.34618" y2="226.86564" gradientUnits="userSpaceOnUse" id="color-1"><stop offset="0" stop-color="#13b22b"/><stop offset="1" stop-color="#06610f"/></linearGradient><linearGradient x1="273.36435" y1="166.16814" x2="273.36435" y2="172.78537" gradientUnits="userSpaceOnUse" id="color-2"><stop offset="0" stop-color="#01c300"/><stop offset="1" stop-color="#01c300" stop-opacity="0"/></linearGradient><linearGradient x1="273.34029" y1="226.92579" x2="273.34029" y2="215.79695" gradientUnits="userSpaceOnUse" id="color-3"><stop offset="0" stop-color="#019601"/><stop offset="1" stop-color="#019601" stop-opacity="0"/></linearGradient><linearGradient x1="273.34029" y1="185.77903" x2="273.34029" y2="203.46492" gradientUnits="userSpaceOnUse" id="color-4"><stop offset="0" stop-color="#2ab346"/><stop offset="1" stop-color="#2ab346" stop-opacity="0"/></linearGradient><linearGradient x1="273.34029" y1="185.95952" x2="273.34029" y2="173.68767" gradientUnits="userSpaceOnUse" id="color-5"><stop offset="0" stop-color="#2ab346"/><stop offset="1" stop-color="#2ab346" stop-opacity="0"/></linearGradient><linearGradient x1="226.2942" y1="225.39317" x2="287.09138" y2="225.39317" gradientUnits="userSpaceOnUse" id="color-6"><stop offset="0" stop-color="#13b22b"/><stop offset="1" stop-color="#06610f"/></linearGradient><linearGradient x1="287.15186" y1="225.39478" x2="275.96036" y2="225.39478" gradientUnits="userSpaceOnUse" id="color-7"><stop offset="0" stop-color="#019601"/><stop offset="1" stop-color="#019601" stop-opacity="0"/></linearGradient><linearGradient x1="245.77346" y1="225.39478" x2="263.55892" y2="225.39478" gradientUnits="userSpaceOnUse" id="color-8"><stop offset="0" stop-color="#2ab346"/><stop offset="1" stop-color="#2ab346" stop-opacity="0"/></linearGradient><linearGradient x1="239.54723" y1="166.40881" x2="239.54723" y2="226.86564" gradientUnits="userSpaceOnUse" id="color-9"><stop offset="0" stop-color="#13b22b"/><stop offset="1" stop-color="#06610f"/></linearGradient><linearGradient x1="239.52941" y1="166.16814" x2="239.52941" y2="172.78537" gradientUnits="userSpaceOnUse" id="color-10"><stop offset="0" stop-color="#01c300"/><stop offset="1" stop-color="#01c300" stop-opacity="0"/></linearGradient><linearGradient x1="239.553" y1="226.92579" x2="239.553" y2="215.79695" gradientUnits="userSpaceOnUse" id="color-11"><stop offset="0" stop-color="#019601"/><stop offset="1" stop-color="#019601" stop-opacity="0"/></linearGradient><linearGradient x1="239.553" y1="185.77903" x2="239.553" y2="203.46492" gradientUnits="userSpaceOnUse" id="color-12"><stop offset="0" stop-color="#2ab346"/><stop offset="1" stop-color="#2ab346" stop-opacity="0"/></linearGradient><linearGradient x1="239.553" y1="185.95952" x2="239.553" y2="173.68767" gradientUnits="userSpaceOnUse" id="color-13"><stop offset="0" stop-color="#2ab346"/><stop offset="1" stop-color="#2ab346" stop-opacity="0"/></linearGradient><linearGradient x1="226.29612" y1="225.41017" x2="287.09329" y2="225.41017" gradientUnits="userSpaceOnUse" id="color-14"><stop offset="0" stop-color="#13b22b"/><stop offset="1" stop-color="#06610f"/></linearGradient><linearGradient x1="226.05409" y1="225.40517" x2="232.70856" y2="225.40516" gradientUnits="userSpaceOnUse" id="color-15"><stop offset="0" stop-color="#01c300"/><stop offset="1" stop-color="#01c300" stop-opacity="0"/></linearGradient><linearGradient x1="287.15379" y1="225.41178" x2="275.96229" y2="225.41178" gradientUnits="userSpaceOnUse" id="color-16"><stop offset="0" stop-color="#019601"/><stop offset="1" stop-color="#019601" stop-opacity="0"/></linearGradient><linearGradient x1="245.77538" y1="225.41178" x2="263.56085" y2="225.41178" gradientUnits="userSpaceOnUse" id="color-17"><stop offset="0" stop-color="#2ab346"/><stop offset="1" stop-color="#2ab346" stop-opacity="0"/></linearGradient><linearGradient x1="245.95688" y1="225.41178" x2="233.61595" y2="225.41178" gradientUnits="userSpaceOnUse" id="color-18"><stop offset="0" stop-color="#2ab346"/><stop offset="1" stop-color="#2ab346" stop-opacity="0"/></linearGradient></defs><g transform="translate(-76,-77.50001)"><g data-paper-data="{&quot;isPaintingLayer&quot;:true}" fill-rule="nonzero" stroke="none" stroke-width="0" stroke-linecap="butt" stroke-linejoin="miter" stroke-miterlimit="10" stroke-dasharray="" stroke-dashoffset="0" style="mix-blend-mode: normal"><path d="M76,282.50001v-205h328v205z" fill="none"/><g><g><g><path d="M290.44023,226.86563h-34.18807v-60.45681h34.18807z" data-paper-data="{&quot;origPos&quot;:null}" fill="url(#color-1)"/><path d="M290.47654,172.78533h-34.22437v-6.61718h34.22436z" data-paper-data="{&quot;origPos&quot;:null}" fill="url(#color-2)"/><path d="M290.42846,226.92579h-34.1763v-11.12886h34.1763z" data-paper-data="{&quot;origPos&quot;:null,&quot;index&quot;:null}" fill="url(#color-3)"/><path d="M290.42846,203.46492h-34.1763v-17.68588h34.1763z" data-paper-data="{&quot;origPos&quot;:null}" fill="url(#color-4)"/><path d="M290.42846,185.95951h-34.1763v-12.27183h34.1763z" data-paper-data="{&quot;origPos&quot;:null,&quot;index&quot;:null}" fill="url(#color-5)"/></g><g><path d="M256.33545,220.68796c19.84356,0.14893 30.75591,5.9103 30.75591,5.9103v3.50302h-30.75513c0,0 -0.26061,-9.41527 -0.00078,-9.41332z" data-paper-data="{&quot;origPos&quot;:null}" fill="url(#color-6)"/><path d="M282.66353,224.69695c2.879,1.07395 4.48834,1.90132 4.48834,1.90132v3.50302h-11.19151v-7.17637c0,0 4.6943,1.02267 6.70317,1.77203z" data-paper-data="{&quot;origPos&quot;:null,&quot;index&quot;:null}" fill="url(#color-7)"/><path d="M256.33769,220.72241l7.22121,0.57807v8.8008h-7.22268z" data-paper-data="{&quot;origPos&quot;:null}" fill="url(#color-8)"/></g></g><g><g data-paper-data="{&quot;index&quot;:null}"><path d="M222.7933,166.40881h33.50781v60.45681h-33.50782z" data-paper-data="{&quot;origPos&quot;:null}" fill="url(#color-9)"/><path d="M222.75772,166.16814h33.54338v6.61718h-33.54339z" data-paper-data="{&quot;origPos&quot;:null}" fill="url(#color-10)"/><path d="M222.80482,215.79695h33.49628v11.12886h-33.49628z" data-paper-data="{&quot;origPos&quot;:null,&quot;index&quot;:null}" fill="url(#color-11)"/><path d="M222.80482,185.77903h33.49628v17.68588h-33.49628z" data-paper-data="{&quot;origPos&quot;:null}" fill="url(#color-12)"/><path d="M222.80482,173.68767h33.49628v12.27183h-33.49628z" data-paper-data="{&quot;origPos&quot;:null,&quot;index&quot;:null}" fill="url(#color-13)"/></g><g><path d="M226.2448,226.81935c0,0 9.89609,-6.11731 29.30845,-6.11731c0.2629,0 0.52429,0.00099 0.78413,0.00294c0.03944,0.0469 0.00077,9.41332 0.00077,9.41332h-30.04202l-0.0513,-3.29895z" data-paper-data="{&quot;origPos&quot;:null}" fill="url(#color-14)"/><path d="M226.0541,226.89588c0,0 1.75171,-0.95129 2.81493,-1.38739c1.14835,-0.47103 3.83949,-1.34211 3.83949,-1.34211v5.95192h-6.65443v-3.22242z" data-paper-data="{&quot;origPos&quot;:null}" fill="url(#color-15)"/><path d="" data-paper-data="{&quot;origPos&quot;:null,&quot;index&quot;:null}" fill="url(#color-16)"/><path d="M245.77539,221.31747c0,0 6.15441,-0.61223 9.1622,-0.61223c0.41838,0 1.40204,0.03415 1.40204,0.03415l-0.00148,9.37887h-10.56276v-8.8008z" data-paper-data="{&quot;origPos&quot;:null}" fill="url(#color-17)"/><path d="M239.63534,222.36785c2.08138,-0.41303 6.32152,-1.05035 6.32152,-1.05035v8.8008h-12.34091v-6.3519c0,0 3.98835,-0.99552 6.01939,-1.39855z" data-paper-data="{&quot;origPos&quot;:null,&quot;index&quot;:null}" fill="url(#color-18)"/></g></g></g></g></g></svg>