<svg version="1.1" xmlns="http://www.w3.org/2000/svg" xmlns:xlink="http://www.w3.org/1999/xlink" width="470" height="344" viewBox="0,0,470,344"><defs><radialGradient cx="239.99708" cy="188.47318" r="10.41421" gradientUnits="userSpaceOnUse" id="color-1"><stop offset="0" stop-color="#feffbc"/><stop offset="1" stop-color="#ffe68d"/></radialGradient><linearGradient x1="239.99708" y1="182.48957" x2="239.99708" y2="196.88311" gradientUnits="userSpaceOnUse" id="color-2"><stop offset="0" stop-color="#ebc578" stop-opacity="0"/><stop offset="1" stop-color="#ebc578"/></linearGradient><linearGradient x1="240.01893" y1="170.69916" x2="240.01893" y2="198.23462" gradientUnits="userSpaceOnUse" id="color-3"><stop offset="0" stop-color="#43de00"/><stop offset="1" stop-color="#287d00"/></linearGradient><radialGradient cx="239.92415" cy="172.85063" r="16.4061" gradientUnits="userSpaceOnUse" id="color-4"><stop offset="0" stop-color="#4dff00"/><stop offset="1" stop-color="#4dff00" stop-opacity="0"/></radialGradient><radialGradient cx="236.74649" cy="186.95211" r="2.1901" gradientUnits="userSpaceOnUse" id="color-5"><stop offset="0" stop-color="#747474"/><stop offset="1" stop-color="#2e2e2f"/></radialGradient><radialGradient cx="243.38096" cy="186.95211" r="2.19012" gradientUnits="userSpaceOnUse" id="color-6"><stop offset="0" stop-color="#747474"/><stop offset="1" stop-color="#2e2e2f"/></radialGradient><radialGradient cx="236.74649" cy="186.95211" r="2.1901" gradientUnits="userSpaceOnUse" id="color-7"><stop offset="0" stop-color="#747474"/><stop offset="1" stop-color="#2e2e2f"/></radialGradient><radialGradient cx="236.71841" cy="187.47036" r="2.51791" gradientUnits="userSpaceOnUse" id="color-8"><stop offset="0" stop-color="#636364"/><stop offset="1" stop-color="#2e2e2f"/></radialGradient><radialGradient cx="236.70833" cy="186.35178" r="1.0445" gradientUnits="userSpaceOnUse" id="color-9"><stop offset="0" stop-color="#ffffff"/><stop offset="1" stop-color="#ffffff" stop-opacity="0"/></radialGradient><radialGradient cx="243.38096" cy="186.95211" r="2.1901" gradientUnits="userSpaceOnUse" id="color-10"><stop offset="0" stop-color="#747474"/><stop offset="1" stop-color="#2e2e2f"/></radialGradient><radialGradient cx="243.35288" cy="187.47036" r="2.51791" gradientUnits="userSpaceOnUse" id="color-11"><stop offset="0" stop-color="#636364"/><stop offset="1" stop-color="#2e2e2f"/></radialGradient><radialGradient cx="243.34281" cy="186.35178" r="1.0445" gradientUnits="userSpaceOnUse" id="color-12"><stop offset="0" stop-color="#ffffff"/><stop offset="1" stop-color="#ffffff" stop-opacity="0"/></radialGradient></defs><g transform="translate(-5,-8)"><g data-paper-data="{&quot;isPaintingLayer&quot;:true}" fill-rule="nonzero" stroke-linecap="butt" stroke-linejoin="miter" stroke-miterlimit="10" stroke-dasharray="" stroke-dashoffset="0" style="mix-blend-mode: normal"><g><path d="M249.5022,185.47198c0.64094,0.76124 1.52753,4.26901 0.28105,6.52046c-2.21084,3.99333 -8.34269,3.67128 -9.65058,3.67128c-6.33422,0 -8.5016,-1.39428 -9.75267,-4.06599c-0.57061,-1.21855 -1.5939,-5.15147 0.27723,-7.39851c2.08142,-2.49957 7.21789,-2.92283 9.47544,-2.92283c2.42244,0 7.36161,1.81079 9.36953,4.19558z" fill="url(#color-1)" stroke="none" stroke-width="0"/><path d="M249.78324,191.99246c-2.21084,3.99333 -8.34269,3.67128 -9.65058,3.67128c-6.33422,0 -8.5016,-1.39428 -9.75267,-4.06599c-0.57061,-1.21855 -1.5939,-5.15147 0.27723,-7.39851c2.08142,-2.49957 7.21789,-2.92283 9.47544,-2.92283c2.42244,0 7.36161,1.81079 9.36953,4.19558c0,0 1.52753,4.26901 0.28105,6.52046z" fill="url(#color-2)" stroke="none" stroke-width="0"/><path d="M253.62788,188.83521c-1.10499,1.16951 -2.30601,2.62139 -3.85134,3.21529c-0.06588,0.02533 0.28826,-2.59385 0.28826,-2.59385c0,0 -0.92718,-2.03096 -3.5095,-3.56395c-1.8358,-1.08982 -4.57657,-1.85337 -6.66907,-1.77295c-2.45099,0.10529 -4.55297,0.73509 -6.34952,1.77559c-2.69251,1.55943 -3.75525,3.77219 -3.75525,3.77219c0,0 0.72201,2.12709 0.71289,2.12215c-1.93893,-1.05054 -3.15177,-1.93825 -4.03303,-3.02604c-2.43181,-2.38342 -3.03717,-6.94589 -2.62105,-10.10313c0.60658,-4.60223 3.31764,-9.21155 7.45057,-11.84511c3.00271,-1.91339 6.34256,-2.48535 8.72807,-2.48535c2.83423,0 7.14384,0.89927 10.5366,3.53093c3.3933,2.63208 4.65634,6.94001 5.4904,10.91328c0.3774,3.9553 -0.2874,7.8059 -2.41803,10.06094z" fill="url(#color-3)" stroke="none" stroke-width="0"/><path d="M253.62788,188.83521c-1.10499,1.16951 -2.34391,2.6593 -3.88924,3.2532c-0.06588,0.02533 0.32616,-2.63176 0.32616,-2.63176c0,0 -0.92718,-2.03096 -3.5095,-3.56395c-1.8358,-1.08982 -4.57657,-1.73963 -6.66907,-1.65923c-2.45099,0.10529 -4.55297,0.62135 -6.34952,1.66186c-2.69251,1.55943 -3.75525,3.77219 -3.75525,3.77219c0,0 0.75993,2.12709 0.7508,2.12215c-1.93893,-1.05054 -3.18969,-1.93825 -4.07094,-3.02604c-2.43181,-2.38342 -3.30343,-6.91859 -2.73477,-10.10313c0.80903,-4.53055 3.2039,-9.21155 7.33683,-11.84511c3.00271,-1.91339 6.57004,-2.48535 8.95554,-2.48535c2.83423,0 7.21967,0.89927 10.61243,3.53093c3.3933,2.63208 4.76351,7.02193 5.56621,10.91328c0.79614,3.85953 -0.43904,7.8059 -2.56968,10.06094z" fill="url(#color-4)" stroke="none" stroke-width="0"/><g stroke="#dcc67d" stroke-width="1"><g fill="url(#color-5)"><path d="M235.67951,189.04591v-3.24858c0,0 0.06383,-0.8463 1.01468,-0.84488c1.02359,0.00153 1.0631,0.84488 1.0631,0.84488v3.24858c0,0 -0.01168,0.94237 -1.04686,0.94237c-0.9892,0 -1.03094,-0.94237 -1.03094,-0.94237z"/></g><g fill="url(#color-6)"><path d="M242.31398,189.04591v-3.24858c0,0 0.06383,-0.8463 1.01468,-0.84488c1.02359,0.00153 1.0631,0.84488 1.0631,0.84488v3.24858c0,0 -0.01168,0.94237 -1.04686,0.94237c-0.9892,0 -1.03093,-0.94237 -1.03093,-0.94237z"/></g></g><g><g><path d="M235.67951,189.04591v-3.24858c0,0 0.06383,-0.8463 1.01468,-0.84488c1.02359,0.00153 1.0631,0.84488 1.0631,0.84488v3.24858c0,0 -0.01168,0.94237 -1.04686,0.94237c-0.9892,0 -1.03094,-0.94237 -1.03094,-0.94237z" fill="url(#color-7)" stroke="url(#color-8)" stroke-width="0.5"/><path d="M237.5685,186.35178c0,0.57685 -0.38511,1.0445 -0.86017,1.0445c-0.47507,0 -0.86017,-0.46763 -0.86017,-1.0445c0,-0.57685 0.38511,-1.04449 0.86017,-1.04449c0.47507,0 0.86017,0.46763 0.86017,1.04449z" fill="url(#color-9)" stroke="none" stroke-width="0"/><path d="M237.35824,186.35178c0,0.43585 -0.29098,0.78917 -0.64992,0.78917c-0.35894,0 -0.6499,-0.35333 -0.6499,-0.78917c0,-0.43585 0.29097,-0.78917 0.6499,-0.78917c0.35894,0 0.64992,0.35332 0.64992,0.78917z" fill="#ffffff" stroke="none" stroke-width="0"/></g><g><path d="M242.31399,189.04591v-3.24858c0,0 0.06383,-0.8463 1.01468,-0.84488c1.02359,0.00153 1.06311,0.84488 1.06311,0.84488v3.24858c0,0 -0.01169,0.94237 -1.04687,0.94237c-0.9892,0 -1.03093,-0.94237 -1.03093,-0.94237z" fill="url(#color-10)" stroke="url(#color-11)" stroke-width="0.5"/><path d="M244.20297,186.35178c0,0.57685 -0.38511,1.0445 -0.86017,1.0445c-0.47507,0 -0.86017,-0.46764 -0.86017,-1.0445c0,-0.57685 0.38511,-1.0445 0.86017,-1.0445c0.47507,0 0.86017,0.46763 0.86017,1.0445z" fill="url(#color-12)" stroke="none" stroke-width="0"/><path d="M243.99271,186.35178c0,0.43585 -0.29098,0.78917 -0.64992,0.78917c-0.35894,0 -0.6499,-0.35332 -0.6499,-0.78917c0,-0.43585 0.29097,-0.78917 0.6499,-0.78917c0.35894,0 0.64992,0.35333 0.64992,0.78917z" fill="#ffffff" stroke="none" stroke-width="0"/></g></g><path d="M247.46848,171.48583c0,3.30818 -3.36074,6.21745 -7.50643,6.21745c-4.14568,0 -7.50643,-2.90927 -7.50643,-6.21745c0,-3.30818 3.36075,-5.76251 7.50643,-5.76251c4.14568,0 7.50643,2.45434 7.50643,5.76251z" fill="#ffffff" stroke="none" stroke-width="0"/><path d="M226.16234,177.02087c0,2.55441 -0.1063,8.34048 -1.59227,8.34048c-0.43084,0 -1.27229,-2.92108 -0.90965,-6.13305c0.37755,-3.34402 2.30535,-7.1305 2.42611,-6.98426c0.87939,0.3033 0.07582,2.22241 0.07582,4.77682z" fill="#ffffff" stroke="none" stroke-width="0"/><path d="M253.78172,177.02086c0,-2.55441 -0.80357,-4.47352 0.07583,-4.77682c0.27239,-0.14624 2.04854,3.64024 2.42611,6.98426c0.36265,3.21197 -0.47881,6.13305 -0.90965,6.13305c-1.48597,0 -1.59227,-5.78607 -1.59227,-8.34048z" data-paper-data="{&quot;index&quot;:null}" fill="#ffffff" stroke="none" stroke-width="0"/></g><path d="M5,352v-344h470v344z" fill="none" stroke="none" stroke-width="0"/></g></g></svg>