<svg version="1.1" xmlns="http://www.w3.org/2000/svg" xmlns:xlink="http://www.w3.org/1999/xlink" width="290.64201" height="240.60052" viewBox="0,0,290.64201,240.60052"><g transform="translate(-36.23441,-4.23184)"><g data-paper-data="{&quot;isPaintingLayer&quot;:true}" fill-rule="nonzero" stroke="none" stroke-width="0.5" stroke-linecap="butt" stroke-linejoin="miter" stroke-miterlimit="10" stroke-dasharray="" stroke-dashoffset="0" style="mix-blend-mode: normal"><path d="M325.68469,241.96688c-3.46688,5.20031 -8.66719,1.73344 -8.66719,1.73344l-3.49555,-2.36693c-1.27709,-1.28882 -2.36331,-2.80012 -3.83128,-3.86647c-2.08159,-1.5121 -4.58294,-2.36445 -6.71952,-3.79781c-1.53841,-1.03206 -2.65553,-2.64351 -4.26066,-3.56839c-2.18819,-1.26084 -5.13683,-0.78515 -7.26764,-2.14072c-3.39469,-2.15961 -6.21642,-5.1324 -9.5683,-7.35788c-9.20434,-6.90326 -18.48765,-13.51727 -27.98229,-19.98751c-4.89604,-3.33647 -9.1742,-7.51101 -13.97529,-10.98273c-5.33001,-3.85419 -11.3557,-6.79993 -16.25025,-11.19392c-2.56494,-2.30263 -12.80408,-14.46312 -15.74639,-17.66805c-4.83761,-5.26941 -10.79697,-8.81025 -15.85538,-13.85048c-1.30416,-1.29947 -10.17822,-10.18195 -10.26607,-10.28315c-4.53689,-5.22672 -7.15619,-9.13911 -11.73393,-13.71685c0,0 -4.41942,-4.41942 0,-8.83883c4.41942,-4.41942 8.83883,0 8.83883,0c8.86163,8.86163 15.82606,19.67285 25.62043,27.65054c4.22376,3.44033 8.81939,6.50518 12.5242,10.49897c1.72317,1.85758 13.4318,15.52067 14.97773,16.9143c4.49955,4.05628 10.11678,6.67372 15.02563,10.22372c4.81718,3.4837 9.10561,7.67903 14.02471,11.01727c9.51969,6.46031 18.80234,13.10095 28.01771,20.01249c2.97355,1.98978 5.52054,4.56212 8.4317,6.64212c1.89429,1.35346 4.68527,0.75041 6.73236,1.85928c2.12528,1.15122 3.72495,3.09581 5.73934,4.43161c2.33526,1.54858 5.0152,2.55293 7.28048,4.20219c1.582,1.1518 2.77915,2.75569 4.16872,4.13353l2.50445,1.63307c0,0 5.20031,3.46688 1.73344,8.66719z" fill="#825b00"/><path d="M105.83453,78.57414c-0.52242,-0.37644 -0.98437,-0.83158 -1.36847,-1.34804c0.21637,0.65568 0.42486,1.31484 0.64535,1.96899c0.24472,-0.19983 0.48537,-0.40755 0.72311,-0.62095zM103.23439,73.5c0,-0.4748 0.05294,-0.93724 0.15325,-1.38173c-0.54685,-0.76891 -0.92406,-1.66687 -1.07703,-2.6393c-0.43358,0.13227 -0.88717,0.21867 -1.35512,0.25354c0.75873,1.34419 1.48712,2.70478 2.17445,4.08603c0.04489,0.09021 0.08886,0.18082 0.13196,0.2718c-0.01821,-0.19433 -0.02751,-0.39125 -0.02751,-0.59034zM176.51044,92.06842l2.34407,-1.4425c0.21583,-0.2256 0.4389,-0.44153 0.66858,-0.64862l-1.92216,0.19222c-0.37474,0.6155 -0.73422,1.26171 -1.09049,1.8989zM209.18929,24.95966c3.22835,-3.25486 7.86703,-5.12384 11.64066,-7.52993c1.71231,-1.09178 2.65458,-3.15724 4.36862,-4.2463c0.88969,-0.56529 2,-0.66667 3,-1c2.68128,-2.68128 5.42861,-3.53761 8.78239,-3.81605c0.78718,-0.46517 1.6005,-0.90649 2.44619,-1.31861c2.54833,-1.24184 5.28202,-3.29078 8.05837,-2.71807c11.22207,2.3149 7.96607,15.61105 2.22675,20.77228c-2.7312,2.4561 -14.50287,9.05428 -18.19953,10.30872c-3.28652,1.11526 -6.89337,1.02699 -10.20469,2.06632c-3.71479,1.16596 -7.21724,2.92796 -10.77147,4.51747c-2.54819,1.13959 -5.26261,2.03687 -7.5288,3.6667c-3.25246,2.33915 -5.73563,5.61347 -8.86056,8.12045c-1.75946,1.41153 -3.60416,2.70998 -5.46778,3.98331c7.2681,1.4521 17.4158,3.48244 17.5452,3.50832c10.71488,2.14337 10.96963,2.31181 22.21551,4.04924c7.11805,1.0997 14.36277,1.48412 21.38791,3.07263c3.41797,0.77287 6.654,2.2383 10.07087,3.01603c4.04416,0.92051 8.17971,1.37933 12.26957,2.06899l0.52878,0.48664l0.10832,-0.27079l4.86483,1.94593c2.3737,0.88631 4.06398,3.17429 4.06398,5.85705c0,3.18318 -2.37968,5.81055 -5.45708,6.20018l-6.87625,0.98232c-9.57546,3.24035 -19.9224,1.48266 -29.41146,5.54344c-2.83838,1.21467 -5.04429,3.62286 -7.84209,4.92829c-5.19063,2.4219 -15.56683,4.74211 -20.85196,6.32759c-6.39663,1.91893 -12.74941,4.3293 -19.20698,6.0588c-1.37675,0.36873 -2.8766,0.23662 -4.2124,0.73362c-0.95007,0.35349 -1.57424,1.30615 -2.48209,1.75714c-2.99042,1.48556 -5.84175,2.36461 -8.93326,3.39788l-0.727,0.24233c-0.01382,2.07158 -0.26774,4.15537 -0.02984,6.21253c0.38647,3.34184 1.93753,6.44705 0.89426,9.91331c-2.2177,7.36832 -7.12684,15.16659 -10.96789,21.65186c-1.3311,2.24745 -3.38863,4.16142 -4.10989,6.67193c-0.64403,2.24167 0.35322,4.66847 0.18352,6.99463c-0.76104,10.43164 -4.90452,20.781 -8.48145,30.45336c-2.56289,6.9303 -2.83333,8.62243 -8.53782,15.39766c-1.87715,2.22949 -3.67254,5.63013 -6.58445,5.75271c-3.25926,0.1372 -5.85085,-3.01307 -8.33745,-5.12457c-3.5416,-3.00737 -4.17507,-7.31473 -7.05266,-10.70324c-0.5902,-6.68879 -0.24676,-12.40641 0.55466,-19.00763c0.20893,-1.72094 -0.21888,-3.52294 0.23776,-5.19529c0.31658,-1.15941 1.75133,-1.82416 2,-3c0.35835,-1.69445 -0.23297,-3.45728 -0.26817,-5.18885c-0.13402,-6.59126 -0.44482,-13.67126 0.0054,-20.25974c0.29339,-4.29341 0.43386,-8.61151 1.09639,-12.86362c0.36036,-2.31283 1.46914,-4.45454 1.95863,-6.74352c0.01353,-0.06328 0.02372,-0.13449 0.03097,-0.21269c-1.31862,1.35094 -2.59424,2.41537 -2.76201,2.51832c-1.38478,0.84975 -3.20462,0.67182 -4.6876,1.3355c-1.77409,0.79396 -3.22083,2.21747 -5,3c-1.43041,0.62913 -3.02239,0.79542 -4.53358,1.19313c-5.84772,2.17921 -11.60442,4.77129 -17.12475,7.65319c-6.51655,3.40198 -12.39276,8.01078 -19.08953,11.04266c-8.0206,3.63123 -17.43222,4.72408 -24.52024,10.06483l-2.47296,4.94591c-1.00215,2.11404 -3.15571,3.57602 -5.65072,3.57602c-3.45178,0 -6.25,-2.79822 -6.25,-6.25c0,-0.6754 0.10713,-1.32578 0.30533,-1.93507l2.95826,-9.86086l0.18114,0.05434c0.06514,-0.35943 0.1401,-0.71776 0.22586,-1.0749c1.40401,-5.84732 10.22751,-11.97486 14.33286,-15.76928c1.07878,-0.99707 2.11878,-2.03453 3.14459,-3.08674c0.29861,-0.3712 0.61829,-0.6885 0.92164,-0.95192c1.73052,-1.79718 3.44146,-3.61469 5.25305,-5.32724c1.5458,-1.80894 3.37705,-3.40407 4.83227,-4.76991c1.28239,-1.20363 2.5246,-2.1742 3.78453,-2.98145c2.30688,-2.09532 4.5682,-4.23653 6.69534,-6.51157c1.50814,-1.61301 3.14279,-3.16208 4.28626,-5.0512c1.25739,-2.07733 1.63297,-4.60033 2.83338,-6.71109c4.66822,-8.20847 5.96194,-9.69968 12.17893,-15.30892c0.09303,-0.08394 -0.29413,0.00299 -0.36164,-0.10258c-1.02647,-1.60514 -2.15231,-3.16541 -2.95069,-4.89535c-1.19878,-2.59753 -1.7548,-5.46732 -3.01666,-8.0348c-4.68886,-9.54034 -11.91843,-16.89797 -17.28073,-25.83513c-2.95381,-2.9422 -5.93649,-5.92729 -8.27403,-9.37945l-1.9526,-2.9289c-0.69202,-1.00597 -1.09709,-2.22467 -1.09709,-3.53798c0,-3.45178 2.79822,-6.25 6.25,-6.25c0.53091,0 1.04635,0.0662 1.53853,0.19078l12.04673,2.78001l-0.0073,0.03163c0.09346,0.0123 0.1869,0.02492 0.28031,0.03789c4.22012,0.58556 8.09957,2.64694 12.14695,3.97772c5.73562,1.88588 6.18636,2.34507 14.51028,3.00326c9.55917,0.75587 19.86316,-0.05131 29.4845,-0.0213c4.45565,0.0139 8.91999,-0.21916 13.36688,0.06041c1.56098,0.09814 3.09103,1.51458 4.57791,1.02931c5.49775,-1.79431 10.75288,-4.33325 16.33411,-5.84808c2.98349,-0.80976 6.07322,-1.19071 9.05276,-2.01486c6.68866,-1.85011 13.58869,-4.88162 19.9531,-7.42214c1.97893,-0.78994 4.05599,-1.29011 6.13409,-1.75672c0.08727,-0.11974 0.18183,-0.23319 0.28605,-0.33826zM65.40956,149.47889c0.21425,-0.0766 0.42342,-0.1515 0.62695,-0.22451c-0.08551,-0.05097 -0.17037,-0.10269 -0.25456,-0.15515c-0.12389,0.1268 -0.248,0.25337 -0.37238,0.37967z" fill="#fffc00"/><path d="M125.63679,75.72834c1.70792,3.29244 1.42576,6.17788 2.27387,9.66903c0.73623,3.0306 2.04418,5.89429 2.96517,8.87395c1.30896,4.23486 1.98275,8.80019 3.56009,12.93621c0.0854,0.22394 0.1684,0.45258 0.25281,0.68224c3.13972,-1.68597 6.38147,-3.19482 9.81244,-4.38971c2.12305,0.85508 4.68529,1.01502 6.36914,2.56523c5.62198,5.17579 -1.67901,13.39361 -7.38592,13.43472c-0.523,0.00377 -8.55556,-3.87208 -10.34718,-4.94571c-5.66574,3.40181 -11.1507,7.08626 -16.94422,10.38246c-5.1599,2.9357 -10.87036,5.61173 -16.30504,7.9719c-3.01021,1.30727 -6.30466,1.91118 -9.26912,3.31913c-2.51627,1.19509 -4.45818,3.34731 -6.786,4.87737c-1.0361,0.68102 -6.35237,3.51717 -6.83096,3.88161c-0.3648,0.27779 -0.68187,0.61344 -0.98287,0.96773c0.33737,0.25927 0.63758,0.6564 0.83709,1.25493c0.79057,2.37171 -1.58114,3.16228 -1.58114,3.16228c-1,0.33333 -2,0.66667 -3,1l-2.94464,0.98155c-0.2642,0.09499 -0.54902,0.14675 -0.84593,0.14675c-1.38071,0 -2.5,-1.11929 -2.5,-2.5c0,-0.69036 0.27982,-1.31536 0.73223,-1.76777l3.53553,-3.53553c2.90559,-3.93353 6.99895,-5.24411 10.88379,-7.80186c2.4633,-1.62181 4.55742,-3.84174 7.214,-5.12263c3.04728,-1.46927 6.44275,-2.09963 9.54492,-3.44914c5.27437,-2.29446 10.81602,-4.88083 15.82519,-7.73196c5.64264,-3.21169 10.96912,-6.86455 16.49082,-10.1558c-1.60048,-3.55343 -2.24109,-7.91481 -3.16447,-11.25537c-1.16809,-4.22588 -2.94891,-8.33094 -3.9883,-12.57731c-0.26365,-1.07712 -0.92251,-6.81688 -1.72613,-8.33097c-0.38332,-0.72221 -1.27033,-1.0481 -1.78094,-1.68669c-0.68236,-0.85339 -0.9468,-2.04179 -1.77251,-2.7574c-1.82418,-1.58094 -4.22389,-2.33862 -6.31455,-3.5453l-1.47767,-0.48571c-0.36806,1.09631 -0.48863,2.34214 -0.60324,3.46131c-0.01605,0.15669 -1.08948,9.24694 -1.15625,9.81256l-0.1991,4.91175c-0.04687,1.33949 -1.14753,2.41099 -2.49844,2.41099c-0.85546,0 -1.61056,-0.42967 -2.06128,-1.08497l-2.02513,-2.86523l0.05582,-0.03945c-0.14732,-0.20384 -0.28057,-0.4186 -0.39691,-0.64648c-0.87273,-1.70952 -0.09165,-3.83778 -0.11737,-5.75702c-0.04129,-3.08044 0.00062,-6.16575 0.01217,-9.24634l0.02863,-0.05516l-0.89529,-0.59686c-0.68925,-0.44514 -1.14551,-1.2201 -1.14551,-2.10163c0,-1.28702 0.97254,-2.3469 2.22282,-2.48481l0.85381,-0.10673c0.29903,-1.04583 1.26209,-1.81137 2.40396,-1.81137c0.90024,0 1.68934,0.47583 2.12952,1.1897c0.23999,-0.05577 0.47664,-0.10585 0.70844,-0.14916c0.1444,-0.13106 0.28378,-0.26526 0.41369,-0.40541c0,0 1.76777,-1.76777 3.53553,0c0.265,0.265 0.45055,0.53 0.57451,0.78904c3.1116,0.94151 6.52842,2.63374 9.44829,3.60702l1.9772,1.60394c0,0 1.59584,1.59584 0.23876,3.27127c0.66962,0.7843 1.67147,1.3103 2.14588,2.22484zM138.05587,111.71968c0.69675,0.25764 1.42614,0.46883 2.0744,0.80818c1.14906,0.60151 2.06307,1.84808 3.3541,1.97214c1.18197,0.11358 4.2114,-3.09435 4.51735,-3.79402c0.55638,-1.27238 -2.24207,-1.697 -3.53413,-2.20603c-2.19384,0.99115 -4.32351,2.07478 -6.41173,3.21974z" fill="#fffc00"/><path d="M189.48438,91l1,2.5c-3.42386,0 -6.97345,0.33363 -10.3487,-0.39913c-2.27809,-0.49457 -5.37957,0.10589 -6.76632,-1.76794c-1.18147,-1.59644 0.09034,-4.15713 1.12825,-5.85041c2.51368,-4.1009 9.61691,-3.28483 13.57577,-3.9485c0,0 2.46598,-0.411 2.87698,2.05499c0.411,2.46598 -2.05499,2.87698 -2.05499,2.87698c-2.85513,0.47323 -5.81172,0.27143 -8.6344,0.91033c-0.6901,0.1562 -1.15319,0.83242 -1.78983,1.14116c-0.02409,0.01168 -0.05338,0.02287 -0.08652,0.03352c3.98558,-0.52108 8.04518,-0.05101 12.09976,-0.05101z" fill="#fffc00"/></g></g></svg>