<svg version="1.1" xmlns="http://www.w3.org/2000/svg" xmlns:xlink="http://www.w3.org/1999/xlink" width="328" height="205" viewBox="0,0,328,205"><defs><linearGradient x1="239.64499" y1="166.40881" x2="239.64499" y2="226.86564" gradientUnits="userSpaceOnUse" id="color-1"><stop offset="0" stop-color="#13b22b"/><stop offset="1" stop-color="#06610f"/></linearGradient><linearGradient x1="239.62717" y1="166.16814" x2="239.62717" y2="172.78537" gradientUnits="userSpaceOnUse" id="color-2"><stop offset="0" stop-color="#01c300"/><stop offset="1" stop-color="#01c300" stop-opacity="0"/></linearGradient><linearGradient x1="239.65075" y1="226.92579" x2="239.65075" y2="215.79695" gradientUnits="userSpaceOnUse" id="color-3"><stop offset="0" stop-color="#019601"/><stop offset="1" stop-color="#019601" stop-opacity="0"/></linearGradient><linearGradient x1="239.65075" y1="185.77903" x2="239.65075" y2="203.46492" gradientUnits="userSpaceOnUse" id="color-4"><stop offset="0" stop-color="#2ab346"/><stop offset="1" stop-color="#2ab346" stop-opacity="0"/></linearGradient><linearGradient x1="239.65075" y1="185.95952" x2="239.65075" y2="173.68767" gradientUnits="userSpaceOnUse" id="color-5"><stop offset="0" stop-color="#2ab346"/><stop offset="1" stop-color="#2ab346" stop-opacity="0"/></linearGradient><linearGradient x1="226.39387" y1="167.71311" x2="287.19106" y2="167.71311" gradientUnits="userSpaceOnUse" id="color-6"><stop offset="0" stop-color="#13b22b"/><stop offset="1" stop-color="#06610f"/></linearGradient><linearGradient x1="226.15186" y1="167.71811" x2="232.80633" y2="167.71812" gradientUnits="userSpaceOnUse" id="color-7"><stop offset="0" stop-color="#01c300"/><stop offset="1" stop-color="#01c300" stop-opacity="0"/></linearGradient><linearGradient x1="287.25155" y1="167.71149" x2="276.06004" y2="167.71149" gradientUnits="userSpaceOnUse" id="color-8"><stop offset="0" stop-color="#019601"/><stop offset="1" stop-color="#019601" stop-opacity="0"/></linearGradient><linearGradient x1="245.87313" y1="167.71149" x2="263.6586" y2="167.71149" gradientUnits="userSpaceOnUse" id="color-9"><stop offset="0" stop-color="#2ab346"/><stop offset="1" stop-color="#2ab346" stop-opacity="0"/></linearGradient><linearGradient x1="246.05464" y1="167.71149" x2="233.71371" y2="167.71149" gradientUnits="userSpaceOnUse" id="color-10"><stop offset="0" stop-color="#2ab346"/><stop offset="1" stop-color="#2ab346" stop-opacity="0"/></linearGradient><linearGradient x1="273.44394" y1="166.40882" x2="273.44394" y2="226.86564" gradientUnits="userSpaceOnUse" id="color-11"><stop offset="0" stop-color="#13b22b"/><stop offset="1" stop-color="#06610f"/></linearGradient><linearGradient x1="273.4621" y1="166.16815" x2="273.4621" y2="172.78537" gradientUnits="userSpaceOnUse" id="color-12"><stop offset="0" stop-color="#01c300"/><stop offset="1" stop-color="#01c300" stop-opacity="0"/></linearGradient><linearGradient x1="273.43805" y1="226.9258" x2="273.43805" y2="215.79695" gradientUnits="userSpaceOnUse" id="color-13"><stop offset="0" stop-color="#019601"/><stop offset="1" stop-color="#019601" stop-opacity="0"/></linearGradient><linearGradient x1="273.43805" y1="185.77903" x2="273.43805" y2="203.46494" gradientUnits="userSpaceOnUse" id="color-14"><stop offset="0" stop-color="#2ab346"/><stop offset="1" stop-color="#2ab346" stop-opacity="0"/></linearGradient><linearGradient x1="273.43805" y1="185.95952" x2="273.43805" y2="173.68768" gradientUnits="userSpaceOnUse" id="color-15"><stop offset="0" stop-color="#2ab346"/><stop offset="1" stop-color="#2ab346" stop-opacity="0"/></linearGradient><linearGradient x1="226.39195" y1="167.73012" x2="287.18913" y2="167.73012" gradientUnits="userSpaceOnUse" id="color-16"><stop offset="0" stop-color="#13b22b"/><stop offset="1" stop-color="#06610f"/></linearGradient><linearGradient x1="287.24963" y1="167.7285" x2="276.05811" y2="167.7285" gradientUnits="userSpaceOnUse" id="color-17"><stop offset="0" stop-color="#019601"/><stop offset="1" stop-color="#019601" stop-opacity="0"/></linearGradient><linearGradient x1="245.87122" y1="167.7285" x2="263.65667" y2="167.7285" gradientUnits="userSpaceOnUse" id="color-18"><stop offset="0" stop-color="#2ab346"/><stop offset="1" stop-color="#2ab346" stop-opacity="0"/></linearGradient></defs><g transform="translate(-76,-77.50001)"><g data-paper-data="{&quot;isPaintingLayer&quot;:true}" fill-rule="nonzero" stroke="none" stroke-width="0" stroke-linecap="butt" stroke-linejoin="miter" stroke-miterlimit="10" stroke-dasharray="" stroke-dashoffset="0" style="mix-blend-mode: normal"><path d="M76,282.50001v-205h328v205z" fill="none"/><g><g><g data-paper-data="{&quot;index&quot;:null}"><path d="M222.89106,166.40881h33.50781v60.45681h-33.50782z" data-paper-data="{&quot;origPos&quot;:null}" fill="url(#color-1)"/><path d="M222.85548,166.16814h33.54338v6.61718h-33.54339z" data-paper-data="{&quot;origPos&quot;:null}" fill="url(#color-2)"/><path d="M222.90258,215.79695h33.49628v11.12886h-33.49628z" data-paper-data="{&quot;origPos&quot;:null,&quot;index&quot;:null}" fill="url(#color-3)"/><path d="M222.90258,185.77903h33.49628v17.68588h-33.49628z" data-paper-data="{&quot;origPos&quot;:null}" fill="url(#color-4)"/><path d="M222.90258,173.68767h33.49628v12.27183h-33.49628z" data-paper-data="{&quot;origPos&quot;:null,&quot;index&quot;:null}" fill="url(#color-5)"/></g><g data-paper-data="{&quot;index&quot;:null}"><path d="M255.65103,172.42124c-19.41236,0 -29.30845,-6.11731 -29.30845,-6.11731l0.0513,-3.29895h30.04202c0,0 0.03868,9.36642 -0.00077,9.41332c-0.25984,0.00195 -0.52123,0.00294 -0.78413,0.00294z" data-paper-data="{&quot;origPos&quot;:null}" fill="url(#color-6)"/><path d="M228.96679,167.6148c-1.06322,-0.43611 -2.81493,-1.38739 -2.81493,-1.38739v-3.22242h6.65443v5.95192c0,0 -2.69114,-0.87108 -3.83949,-1.34211z" data-paper-data="{&quot;origPos&quot;:null}" fill="url(#color-7)"/><path d="" data-paper-data="{&quot;origPos&quot;:null,&quot;index&quot;:null}" fill="url(#color-8)"/><path d="M245.87313,171.80579v-8.8008h10.56276l0.00148,9.37887c0,0 -0.98365,0.03415 -1.40204,0.03415c-3.00778,0 -9.16221,-0.61223 -9.16221,-0.61223z" data-paper-data="{&quot;origPos&quot;:null}" fill="url(#color-9)"/><path d="M233.71373,169.35689v-6.3519h12.34091v8.8008c0,0 -4.24014,-0.63733 -6.32152,-1.05035c-2.03103,-0.40303 -6.01939,-1.39855 -6.01939,-1.39855z" data-paper-data="{&quot;origPos&quot;:null,&quot;index&quot;:null}" fill="url(#color-10)"/></g></g><g><g><path d="M290.53798,226.86563h-34.18807v-60.45681h34.18807z" data-paper-data="{&quot;origPos&quot;:null}" fill="url(#color-11)"/><path d="M290.5743,172.78533h-34.22437v-6.61718h34.22436z" data-paper-data="{&quot;origPos&quot;:null}" fill="url(#color-12)"/><path d="M290.52622,226.9258h-34.1763v-11.12886h34.1763z" data-paper-data="{&quot;origPos&quot;:null,&quot;index&quot;:null}" fill="url(#color-13)"/><path d="M290.52622,203.46492h-34.1763v-17.68588h34.1763z" data-paper-data="{&quot;origPos&quot;:null}" fill="url(#color-14)"/><path d="M290.52622,185.95951h-34.1763v-12.27183h34.1763z" data-paper-data="{&quot;origPos&quot;:null,&quot;index&quot;:null}" fill="url(#color-15)"/></g><g data-paper-data="{&quot;index&quot;:null}"><path d="M256.43399,163.022h30.75513v3.50302c0,0 -10.91235,5.76137 -30.75591,5.9103c-0.25984,0.00195 0.00078,-9.41332 0.00078,-9.41332z" data-paper-data="{&quot;origPos&quot;:null}" fill="url(#color-16)"/><path d="M276.05811,170.19837v-7.17637h11.19151v3.50302c0,0 -1.60934,0.82737 -4.48834,1.90132c-2.00887,0.74936 -6.70317,1.77203 -6.70317,1.77203z" data-paper-data="{&quot;origPos&quot;:null,&quot;index&quot;:null}" fill="url(#color-17)"/><path d="M256.43399,163.022h7.22268v8.8008l-7.22121,0.57807z" data-paper-data="{&quot;origPos&quot;:null}" fill="url(#color-18)"/></g></g></g></g></g></svg>