<svg version="1.1" xmlns="http://www.w3.org/2000/svg" xmlns:xlink="http://www.w3.org/1999/xlink" width="123.55733" height="104.46278" viewBox="0,0,123.55733,104.46278"><g transform="translate(-195.25624,-92.28723)"><g data-paper-data="{&quot;isPaintingLayer&quot;:true}" fill-rule="nonzero" stroke="none" stroke-width="0.5" stroke-linecap="butt" stroke-linejoin="miter" stroke-miterlimit="10" stroke-dasharray="" stroke-dashoffset="0" style="mix-blend-mode: normal"><path d="M228.12626,124.15202c-3.10807,-0.51802 -2.59007,-3.62609 -2.59007,-3.62609c0.89511,-5.22952 2.4439,-10.2982 3.84383,-15.41529c0.44328,-1.62031 1.06986,-7.06216 2.1553,-7.79618c1.36993,-0.9264 12.00377,-2.15156 14.24462,-2.44205c4.16642,-0.54008 8.32291,-1.16299 12.49923,-1.62027c2.51703,-0.27559 5.15785,-1.49184 7.5637,-0.70231c6.25382,2.05231 6.99056,6.75829 8.92685,11.86194c2.46434,6.49547 1.98785,12.90443 1.17426,19.73495c-2.14329,0.85586 -4.12216,2.54182 -6.42988,2.56758c-7.40496,0.08265 -5.93901,-5.79603 -7.33909,-10.4442c-0.65253,-2.16631 -1.86671,-4.13605 -2.52076,-6.3019c-0.46182,-1.52931 0.55473,-3.90402 -0.81728,-4.72234c-2.97573,-1.77486 -6.9657,2.63161 -8.89857,3.91855c-0.95779,0.63772 -2.05594,1.06042 -2.97001,1.75935c-1.29535,0.99048 -2.92153,1.98409 -3.36121,3.55435c-0.74554,2.66262 -0.28199,6.24126 -2.48313,7.91468c-1.31277,0.99803 -3.27832,0.36116 -4.91746,0.54175h-3.15095v0c-0.59106,0 -1.1441,-0.16274 -1.61676,-0.44585c-0.41821,0.86942 -1.34795,1.9908 -3.31257,1.66336z" fill="#c4a6ff"/><path d="M257.81417,131.48776l-1.86086,3.10143c-0.54427,0.94394 -1.56374,1.57932 -2.73164,1.57932c-1.54886,0 -2.8367,-1.11751 -3.1012,-2.59023l-0.61875,-3.09371c0,0 -0.11743,-0.58712 0.00604,-1.30069c-1.06023,-0.22988 -2.05356,-0.56942 -2.93299,-1.01729c-0.29514,-0.15031 -4.95977,-6.0314 -5.26642,-6.41464c0,0 -1.96838,-2.46047 0.49209,-4.42886c0.48681,-0.38945 0.95436,-0.60553 1.39122,-0.70159c-0.70683,-0.87427 -1.48602,-1.71818 -1.30547,-2.73301c0.88521,-4.97564 4.00339,-4.16598 6.70442,-6.52785c2.43994,-2.13356 1.6965,-5.14365 6.52164,-5.2224c3.75393,-0.06127 9.01749,6.80753 9.96871,9.87214c0.54848,1.76705 0.64611,9.89467 -0.12552,11.49976c-1.25266,2.60572 -3.8351,4.35416 -6.80801,5.27107c0.47378,1.36149 -0.33325,2.70654 -0.33325,2.70654zM255.11226,108.44016c-0.23523,-0.04785 -0.19178,0.3194 -0.21291,0.63728c0.07035,-0.00469 0.14135,-0.00708 0.21291,-0.00708c0.10288,0 0.20458,0.00493 0.30493,0.01457c-0.04002,-0.29509 -0.05905,-0.59475 -0.30493,-0.64476zM252.02137,123.16965c0.25452,0.01598 0.51975,0.02584 0.79187,0.02908c-0.13744,-0.14658 -0.26102,-0.30632 -0.36866,-0.47712c-0.17381,0.18654 -0.31778,0.33915 -0.4232,0.44804z" fill="#ffeab8"/><path d="M261.98316,120.426c0.61795,3.08976 -2.47181,3.70771 -2.47181,3.70771l-3.15095,0.63019c-2.67259,0.44675 -5.54478,0.13496 -8.09009,-0.79437c0,0 -2.92558,-1.17024 -1.75535,-4.09582c1.17024,-2.92558 4.09582,-1.75535 4.09582,-1.75535c1.37311,0.63439 3.04958,0.84573 4.51371,0.46601l3.15095,-0.63019c0,0 3.08976,-0.61795 3.70771,2.47181z" fill="#000000"/><path d="M247.54998,110.96092c0,-1.74022 1.41073,-3.15095 3.15095,-3.15095c1.74022,0 3.15095,1.41073 3.15095,3.15095c0,1.74022 -1.41073,3.15095 -3.15095,3.15095c-1.74022,0 -3.15095,-1.41073 -3.15095,-3.15095z" fill="#000000"/><path d="M256.37264,110.33073c0,-1.74022 1.41073,-3.15095 3.15095,-3.15095c1.74022,0 3.15095,1.41073 3.15095,3.15095c0,1.74022 -1.41073,3.15095 -3.15095,3.15095c-1.74022,0 -3.15095,-1.41073 -3.15095,-3.15095z" fill="#000000"/><path d="M271.3956,138.32834l0.45735,0.33517c0.11012,0.50004 0.27352,0.99478 0.46148,1.48659c0.29445,0.59672 0.55836,1.2132 0.78528,1.8432c2.9025,0.90556 2.05738,3.86348 2.05738,3.86348l-0.77991,2.5091l0.19701,0.98502c0.04843,0.21953 0.07394,0.44766 0.07394,0.68175c0,0.5243 -0.12805,1.01872 -0.35461,1.45363c0.00968,0.16763 0.01617,0.33562 0.01977,0.5039l0.27364,-0.05473l0.61743,3.08715c0.04843,0.21953 0.07394,0.44766 0.07394,0.68175c0,1.74022 -1.41073,3.15095 -3.15095,3.15095c-0.87012,0 -1.65785,-0.35268 -2.22807,-0.92289l-0.07292,-0.07292c0.15873,1.0669 0.29508,2.13526 0.39508,3.20609c0.11719,1.25493 -0.01631,2.52086 0,3.78114c0.02248,1.73672 1.18539,3.84042 0.11632,5.20927c-3.30822,4.23593 -11.97501,0.83459 -16.11563,0.132c-1.16231,-0.01538 -2.35628,0.22375 -3.48693,-0.04612c-1.56948,-0.37461 -3.20607,-0.85272 -4.47177,-1.85351c-6.82697,-5.39812 -1.21202,-13.30062 -0.58875,-19.82658c0.12544,-1.31332 -0.0568,-2.71245 -0.26352,-4.10085c-0.60988,0 -1.23704,0 -1.84991,0c-0.70189,1.89057 -2.94342,1.89057 -2.94342,1.89057l-1.24814,-0.06119c-0.14308,-0.0294 -0.28761,-0.05343 -0.43336,-0.07289c-1.4356,1.97787 -3.05542,3.65747 -5.30861,3.86284c-7.57549,0.69047 -11.86779,-5.42805 -8.24423,-11.76522c3.26429,-5.70886 11.74879,-8.25733 17.7551,-8.34846c0,0 1.69182,0 2.59609,1.23968c1.31476,-0.1971 2.44543,0.65089 2.44543,0.65089c2.93343,2.29464 5.14751,2.52893 8.82266,2.52076c1.83459,-0.00407 5.10719,-0.17387 7.18603,0.6716c0.42171,-0.04355 0.85346,-0.13269 1.28696,-0.22977c0.47119,-0.28063 1.02181,-0.44184 1.61006,-0.44184c0.21345,0 0.42194,0.02123 0.62347,0.06167c0.5289,-0.01365 1.03715,0.06649 1.50753,0.31872c1.01629,0.54494 1.44296,1.69586 1.86676,2.84934l0.41357,0.55142l-0.161,0.12074c0.01957,0.04975 0.03936,0.09927 0.05941,0.14852z" fill="#c4a6ff"/><path d="M274.01796,163.89687c-0.90476,0 -1.54974,-0.25979 -2.00952,-0.63019c-0.61924,0 -1.14144,0 -1.14144,0c-1.74022,0 -3.15095,-1.41073 -3.15095,-3.15095c0,-1.74022 1.41073,-3.15095 3.15095,-3.15095h3.15095c0,0 3.15095,0 3.15095,3.15095c0,0.20775 -0.0137,0.40179 -0.03928,0.58305l0.03928,0.04714c0,0 0,3.15095 -3.15095,3.15095z" fill="#ffeab8"/><path d="M227.76198,147.17625l1.28712,1.05603c0.2524,2.11207 2.19068,4.76466 0.75722,6.33621c-3.53384,3.87427 -11.88396,-2.23832 -12.50426,-5.07855c-0.15761,-0.72167 4.91851,-5.67715 5.9632,-6.72682c0,0 2.22807,-2.22807 4.45611,0c2.04691,2.04691 0.33284,4.09381 0.0406,4.41313z" fill="#ffeab8"/><path d="M227.3839,153.18365c0,-1.74022 1.41073,-3.15095 3.15095,-3.15095c1.74022,0 3.15095,1.41073 3.15095,3.15095c0,1.74022 -1.41073,3.15095 -3.15095,3.15095c-1.74022,0 -3.15095,-1.41073 -3.15095,-3.15095z" fill="#825b00"/><path d="M211.50253,135.63846c2.42062,-2.01719 4.43781,0.40344 4.43781,0.40344c1.34479,1.61375 4.95712,5.94853 6.3019,7.56228c0,0 2.01719,2.42062 -0.40344,4.43781c-2.42062,2.01719 -4.43781,-0.40344 -4.43781,-0.40344c-1.34479,-1.61375 -2.68959,-3.2275 -4.03438,-4.84126l-2.26753,-2.72102c0,0 -2.01719,-2.42062 0.40344,-4.43781z" fill="#825b00"/><path d="M214.40356,134.6548c0.12379,0.0738 0.24936,0.15796 0.37652,0.25333c2.52076,1.89057 0.63019,4.41133 0.63019,4.41133c-0.63019,0.84026 -1.26038,1.6805 -1.89057,2.52076l-1.86856,2.49142c-0.57337,0.78199 -1.49877,1.28972 -2.54277,1.28972c-1.54886,0 -2.8367,-1.11751 -3.1012,-2.59023l-0.61875,-3.09371l0.60196,-0.12039c-0.02117,-0.07584 -0.04137,-0.15185 -0.0605,-0.22803c-3.43046,0.12819 -9.2772,-0.8953 -9.6465,-1.86802c-3.3542,-8.83471 2.33912,-6.19092 5.17428,-7.73031c0.20251,-0.10995 -0.29777,-0.35284 -0.42742,-0.54333c-0.53183,-0.78147 -1.03724,-1.58059 -1.55587,-2.37089l-1.86393,-3.10654c-0.30148,-0.48322 -0.47568,-1.05404 -0.47568,-1.66555c0,-1.74022 1.41073,-3.15095 3.15095,-3.15095c0.43894,0 0.85692,0.08975 1.23658,0.2519l3.0846,1.23384l-0.0197,0.04925c0.08335,0.01694 0.16656,0.03478 0.24963,0.05355c1.1905,0.26917 2.06978,1.38635 3.21103,1.78273l1.73279,-2.166c0.5769,-0.73392 1.47273,-1.2053 2.47867,-1.2053c1.74022,0 3.15095,1.41073 3.15095,3.15095c0,0.43894 -0.08975,0.85692 -0.2519,1.23658l-0.51314,1.28284c0.8525,-0.39431 1.71678,-0.76655 2.56186,-1.17475l0.72394,0.23312v-0.3174h3.15095c1.74022,0 3.15095,1.41073 3.15095,3.15095c0,1.16788 -0.63538,2.18737 -1.57932,2.73164l-3.10143,1.86086l-0.11792,-0.19655c-0.9745,0.9676 -1.992,1.88826 -3.06772,2.73782z" fill="#fffc00"/><path d="M253.63563,168.87669c0.159,0.19159 0.32729,0.40388 0.50415,0.6315c2.9306,-0.34916 5.37972,-1.07496 8.56341,-1.69006c4.648,-0.89801 8.99529,0.76689 13.51015,1.21886c3.48205,0.34857 7.09481,-0.16861 10.59605,0.04877c5.27004,0.32719 13.59669,-0.5245 17.35039,4.21885c3.80551,4.80879 2.61689,10.47991 2.50184,16.1161c-1.18023,1.68265 -1.64765,4.24757 -3.54071,5.04794c-2.9549,1.24931 -13.15605,-0.66708 -16.67909,-0.87439c-8.75918,-0.51542 -17.50435,-1.24963 -26.29373,-1.25555c-4.85129,-0.00327 -12.27828,0.63124 -15.76858,-3.79973c-1.14125,-1.44883 -0.97726,-3.56712 -1.23582,-5.39323c-0.77249,-5.45589 1.31829,-9.60267 -2.47122,-14.04626c0,0 -1.96838,-2.46047 0.49209,-4.42886c2.46047,-1.96838 4.42886,0.49209 4.42886,0.49209c0.68952,0.90012 1.34466,1.86488 1.9132,2.87751c0.39583,-0.17917 0.83528,-0.27894 1.29804,-0.27894c0.23409,0 0.46222,0.02553 0.68175,0.07394l3.08715,0.61743l-0.09787,0.48933z" fill="#00caff"/><path d="M309.42686,195.38026c-0.42499,0.71351 -1.20672,1.36975 -2.64469,1.36975c-3.15095,0 -3.15095,-3.15095 -3.15095,-3.15095c0,-4.83146 0,-9.66292 0,-14.49437c0,-0.81766 -0.03007,-6.74567 0.11433,-7.14299c1.18771,-3.26798 4.88932,-8.86496 9.89804,-5.51229c1.86427,1.24788 1.34035,4.28334 1.91601,6.45159c1.0121,3.81218 1.70353,7.95981 2.48923,11.81431c0.2949,1.44676 1.03668,2.95215 0.66073,4.38001c-0.77173,2.93102 -4.74636,8.9339 -9.28268,6.28493z" fill="#005e75"/></g></g></svg>