<svg version="1.1" xmlns="http://www.w3.org/2000/svg" xmlns:xlink="http://www.w3.org/1999/xlink" width="328" height="205" viewBox="0,0,328,205"><defs><linearGradient x1="255.65009" y1="162.90135" x2="255.65009" y2="171.96051" gradientUnits="userSpaceOnUse" id="color-1"><stop offset="0" stop-color="#d0dce4"/><stop offset="1" stop-color="#9babb6"/></linearGradient><linearGradient x1="255.65009" y1="229.43199" x2="255.65009" y2="220.37282" gradientUnits="userSpaceOnUse" id="color-2"><stop offset="0" stop-color="#546266"/><stop offset="1" stop-color="#95a6af"/></linearGradient><linearGradient x1="223.03668" y1="196.47562" x2="232.0958" y2="196.49066" gradientUnits="userSpaceOnUse" id="color-3"><stop offset="0" stop-color="#83929d"/><stop offset="1" stop-color="#8fa5b3"/></linearGradient><linearGradient x1="289.18056" y1="196.48763" x2="280.12134" y2="196.47262" gradientUnits="userSpaceOnUse" id="color-4"><stop offset="0" stop-color="#75828a"/><stop offset="1" stop-color="#94a8b6"/></linearGradient><linearGradient x1="255.65578" y1="217.28028" x2="255.65578" y2="211.68412" gradientUnits="userSpaceOnUse" id="color-5"><stop offset="0" stop-color="#8c9ba5"/><stop offset="1" stop-color="#d1dfe6"/></linearGradient><linearGradient x1="255.65578" y1="176.18212" x2="255.65578" y2="181.77823" gradientUnits="userSpaceOnUse" id="color-6"><stop offset="0" stop-color="#97a7b1"/><stop offset="1" stop-color="#5b696e"/></linearGradient><linearGradient x1="235.5094" y1="196.54033" x2="241.10551" y2="196.53104" gradientUnits="userSpaceOnUse" id="color-7"><stop offset="0" stop-color="#8fa5b3"/><stop offset="1" stop-color="#71818a"/></linearGradient><linearGradient x1="276.36862" y1="196.53292" x2="270.77249" y2="196.54217" gradientUnits="userSpaceOnUse" id="color-8"><stop offset="0" stop-color="#94a8b6"/><stop offset="1" stop-color="#7b9099"/></linearGradient><radialGradient cx="239.60556" cy="178.07201" r="6.27937" gradientUnits="userSpaceOnUse" id="color-9"><stop offset="0" stop-color="#bfcad1"/><stop offset="1" stop-color="#627380"/></radialGradient><radialGradient cx="272.39786" cy="178.07201" r="6.27939" gradientUnits="userSpaceOnUse" id="color-10"><stop offset="0" stop-color="#bfcad1"/><stop offset="1" stop-color="#627380"/></radialGradient><radialGradient cx="239.83815" cy="212.02715" r="6.27936" gradientUnits="userSpaceOnUse" id="color-11"><stop offset="0" stop-color="#b5c0c7"/><stop offset="1" stop-color="#5f707d"/></radialGradient><radialGradient cx="272.63043" cy="212.02715" r="6.27937" gradientUnits="userSpaceOnUse" id="color-12"><stop offset="0" stop-color="#b5c0c7"/><stop offset="1" stop-color="#5f707d"/></radialGradient></defs><g transform="translate(-76,-77.5)"><g data-paper-data="{&quot;isPaintingLayer&quot;:true}" fill-rule="nonzero" stroke="none" stroke-linecap="butt" stroke-linejoin="miter" stroke-miterlimit="10" stroke-dasharray="" stroke-dashoffset="0" style="mix-blend-mode: normal"><g><path d="M231.46055,171.96051l-7.57294,-7.22174l1.3591,-1.83744h60.8068l1.9604,1.84327l-7.28654,7.21589z" data-paper-data="{&quot;origPos&quot;:null}" fill="url(#color-1)" stroke-width="0"/><path d="M280.72737,220.37282l7.26049,7.15511l-1.93435,1.90407h-60.8068l-1.37225,-1.49513l7.58608,-7.56406z" data-paper-data="{&quot;origPos&quot;:null,&quot;index&quot;:null}" fill="url(#color-2)" stroke-width="0"/><path d="M232.05577,220.75942l-7.74905,7.68899l-1.32037,-1.46984l0.10066,-61.0059l1.26954,-1.75619l7.78075,7.11481z" data-paper-data="{&quot;origPos&quot;:null,&quot;origRot&quot;:0}" fill="url(#color-3)" stroke-width="0"/><path d="M280.16289,171.3954l7.33476,-7.10446l1.7332,1.79331l-0.10068,60.23853l-1.58242,1.67921l-7.46645,-7.33987z" data-paper-data="{&quot;origPos&quot;:null,&quot;index&quot;:null,&quot;origRot&quot;:0}" fill="url(#color-4)" stroke-width="0"/><path d="M231.43345,220.89156v-49.4939h49.31716v49.4939z" data-paper-data="{&quot;origPos&quot;:null}" fill="#96a7b3" stroke-width="NaN"/><g><g data-paper-data="{&quot;origPos&quot;:null,&quot;index&quot;:null}"><path d="M271.14686,211.68412l4.50114,4.45748l-1.211,1.13865h-37.56235l-0.83958,-1.13502l4.67804,-4.4611z" data-paper-data="{&quot;origPos&quot;:null}" fill="url(#color-5)" stroke-width="0"/><path d="M240.71309,181.77823l-4.68617,-4.67256l0.84769,-0.9236h37.56235l1.19492,1.17625l-4.48505,4.41991z" data-paper-data="{&quot;origPos&quot;:null,&quot;index&quot;:null}" fill="url(#color-6)" stroke-width="0"/><path d="M241.13114,212.07283l-4.80642,4.39505l-0.78424,-1.08484l-0.06218,-37.68535l0.81562,-0.90799l4.78685,4.74974z" data-paper-data="{&quot;origPos&quot;:null,&quot;origRot&quot;:0}" fill="url(#color-7)" stroke-width="0"/><path d="M270.74775,181.59954l4.6123,-4.53406l0.97751,1.03732l0.06221,37.21133l-1.07065,1.1078l-4.53092,-4.38867z" data-paper-data="{&quot;origPos&quot;:null,&quot;index&quot;:null,&quot;origRot&quot;:0}" fill="url(#color-8)" stroke-width="0"/><path d="M271.16121,181.4578v30.57402h-30.46483v-30.57402z" data-paper-data="{&quot;origPos&quot;:null}" fill="#90a1ac" stroke-width="NaN"/></g><path d="M233.40993,179.83023c0,-3.468 2.81138,-6.27936 6.27938,-6.27936c3.468,0 6.27939,2.81137 6.27939,6.27936c0,3.468 -2.81138,6.27939 -6.27939,6.27939c-3.468,0 -6.27938,-2.81138 -6.27938,-6.27939z" data-paper-data="{&quot;origPos&quot;:null}" fill="url(#color-9)" stroke-width="0"/><path d="M266.20221,179.83023c0,-3.468 2.81139,-6.27936 6.27939,-6.27936c3.468,0 6.27937,2.81137 6.27937,6.27936c0,3.468 -2.81137,6.27939 -6.27937,6.27939c-3.468,0 -6.27939,-2.81138 -6.27939,-6.27939z" data-paper-data="{&quot;origPos&quot;:null}" fill="url(#color-10)" stroke-width="0"/><path d="M233.64251,213.78538c0,-3.468 2.81138,-6.27939 6.27938,-6.27939c3.468,0 6.27939,2.81138 6.27939,6.27939c0,3.468 -2.81139,6.27937 -6.27939,6.27937c-3.468,0 -6.27938,-2.81137 -6.27938,-6.27937z" data-paper-data="{&quot;origPos&quot;:null}" fill="url(#color-11)" stroke-width="0"/><path d="M266.43479,213.78538c0,-3.468 2.81138,-6.27939 6.27939,-6.27939c3.468,0 6.27937,2.81138 6.27937,6.27939c0,3.468 -2.81137,6.27937 -6.27937,6.27937c-3.468,0 -6.27939,-2.81137 -6.27939,-6.27937z" data-paper-data="{&quot;origPos&quot;:null}" fill="url(#color-12)" stroke-width="0"/></g></g><path d="M76,282.5v-205h328v205z" fill="none" stroke-width="0"/></g></g></svg>