<svg version="1.1" xmlns="http://www.w3.org/2000/svg" xmlns:xlink="http://www.w3.org/1999/xlink" width="74.12876" height="99.1277" viewBox="0,0,74.12876,99.1277"><g transform="translate(-193.75623,-97.86802)"><g data-paper-data="{&quot;isPaintingLayer&quot;:true}" fill-rule="nonzero" stroke="none" stroke-width="0.5" stroke-linecap="butt" stroke-linejoin="miter" stroke-miterlimit="10" stroke-dasharray="" stroke-dashoffset="0" style="mix-blend-mode: normal"><path d="M219.83569,123.14992c-2.46598,-0.411 -2.05499,-2.87698 -2.05499,-2.87698c0.71019,-4.14916 1.93902,-8.17071 3.04974,-12.23067c0.3517,-1.28557 0.84884,-5.6032 1.71004,-6.18558c1.08692,-0.73502 9.52393,-1.70707 11.30185,-1.93755c3.30568,-0.42851 6.60349,-0.92273 9.91703,-1.28554c1.99704,-0.21866 4.0923,-1.18364 6.00112,-0.55722c4.96185,1.62833 5.54639,5.3621 7.08266,9.4114c1.95523,5.15358 1.57718,10.23852 0.93167,15.65794c-1.70051,0.67905 -3.27057,2.01671 -5.10154,2.03715c-3.98155,0.04444 -4.73067,-2.08333 -5.14569,-4.60738c0.23532,-0.60974 0.34706,-1.48822 -0.36155,-2.33061c-0.08348,-0.45694 -0.18348,-0.90966 -0.31568,-1.34856c-0.51772,-1.71878 -1.48107,-3.28159 -2,-5c-0.36641,-1.21337 0.44013,-3.0975 -0.64844,-3.74676c-2.36098,-1.40819 -5.52667,2.08795 -7.06023,3.10902c-0.75992,0.50597 -1.63121,0.84135 -2.35644,1.39589c-1.02775,0.78586 -2.31798,1.5742 -2.66682,2.82006c-0.59152,2.11255 -0.22373,4.95189 -1.97014,6.2796c-1.04157,0.79185 -2.60105,0.28655 -3.90157,0.42983h-2.5c-0.46895,0 -0.90774,-0.12912 -1.28276,-0.35374c-0.33181,0.68981 -1.06948,1.57952 -2.62823,1.31973z" fill="#9966ff"/><path d="M243.39042,128.97018l-1.47643,2.46071c-0.43183,0.74893 -1.24069,1.25305 -2.16731,1.25305c-1.22888,0 -2.25067,-0.88665 -2.46053,-2.05512l-0.49092,-2.45459c0,0 -0.09317,-0.46583 0.00479,-1.03198c-0.8412,-0.18239 -1.62932,-0.45178 -2.32707,-0.80713c-0.23417,-0.11926 -3.93514,-4.78538 -4.17844,-5.08945c0,0 -1.56174,-1.95217 0.39043,-3.51391c0.38624,-0.309 0.7572,-0.48044 1.10381,-0.55665c-0.56081,-0.69365 -1.17903,-1.36323 -1.03578,-2.1684c0.70233,-3.94773 3.17633,-3.30534 5.31936,-5.17927c1.93588,-1.69279 1.34602,-4.08103 5.17435,-4.14351c2.97841,-0.04861 7.15458,5.40117 7.90929,7.83267c0.43517,1.402 0.51263,7.85054 -0.09959,9.12404c-0.99388,2.06741 -3.04281,3.45464 -5.40155,4.18213c0.3759,1.08022 -0.26441,2.1474 -0.26441,2.1474zM233.06036,122.53443l1.97479,1.03915c0.11627,0.21579 0.25366,0.42106 0.41675,0.61352c0.80539,0.9504 4.46395,0.4196 6.52499,0.07285c0.06094,0.00445 0.12249,0.00671 0.18457,0.00671c0.27078,0 0.53151,-0.04305 0.77571,-0.12268c0.39904,0.11097 0.79743,0.15043 1.19705,0.03952c1.30949,-0.36342 1.9652,-1.87759 2.9478,-2.81638c0,0 1.60046,-1.92055 -0.32009,-3.52101c-1.06305,-0.88587 -2.02803,-0.693 -2.67781,-0.34416c-0.45858,-0.55112 -1.14964,-0.90195 -1.92265,-0.90195c-0.57191,0 -1.09897,0.19204 -1.5202,0.51515l-1.58512,1.18884c-0.08912,0.00537 -0.1781,0.00953 -0.26686,0.01182l-1.92555,-0.82524c-0.31554,-0.1438 -0.66621,-0.22391 -1.0356,-0.22391c-0.93003,0 -1.74145,0.50785 -2.17207,1.26135c-0.19687,0.11705 -0.39628,0.27147 -0.59569,0.47088c-1.76777,1.76777 0,3.53553 0,3.53553zM241.24669,110.68394c-0.18663,-0.03796 -0.15216,0.25341 -0.16892,0.50562c0.05582,-0.00372 0.11215,-0.00562 0.16892,-0.00562c0.08162,0 0.16232,0.00391 0.24193,0.01156c-0.03175,-0.23413 -0.04685,-0.47188 -0.24193,-0.51156z" fill="#ffeab8"/><path d="" fill="#000000"/><path d="M235.24669,112.68394c0,-1.38071 1.11929,-2.5 2.5,-2.5c1.38071,0 2.5,1.11929 2.5,2.5c0,1.38071 -1.11929,2.5 -2.5,2.5c-1.38071,0 -2.5,-1.11929 -2.5,-2.5z" fill="#000000"/><path d="M242.24669,112.18394c0,-1.38071 1.11929,-2.5 2.5,-2.5c1.38071,0 2.5,1.11929 2.5,2.5c0,1.38071 -1.11929,2.5 -2.5,2.5c-1.38071,0 -2.5,-1.11929 -2.5,-2.5z" fill="#000000"/><path d="M254.16608,134.39757l0.36287,0.26593c0.08737,0.39674 0.21701,0.78927 0.36614,1.17948c0.23362,0.47344 0.44301,0.96257 0.62305,1.46242c2.30288,0.71848 1.63235,3.06533 1.63235,3.06533l-0.61879,1.99075l0.15631,0.78153c0.03842,0.17418 0.05867,0.35518 0.05867,0.54091c0,0.41599 -0.1016,0.80826 -0.28135,1.15333c0.00768,0.133 0.01283,0.26628 0.01569,0.3998l0.21711,-0.04342l0.48988,2.44938c0.03842,0.17418 0.05867,0.35518 0.05867,0.54091c0,1.38071 -1.11929,2.5 -2.5,2.5c-0.69036,0 -1.31536,-0.27982 -1.76777,-0.73223l-0.05786,-0.05786c0.12594,0.84649 0.23412,1.69414 0.31346,2.54375c0.09298,0.99567 -0.01294,2.00008 0,3c0.01783,1.37793 0.9405,3.04703 0.09229,4.13309c-2.62478,3.36084 -9.50111,0.66217 -12.78633,0.10473c-0.92219,-0.0122 -1.8695,0.17753 -2.76657,-0.03659c-1.24524,-0.29722 -2.54373,-0.67656 -3.54795,-1.4706c-5.4166,-4.28293 -0.96163,-10.55286 -0.46712,-15.73064c0.09952,-1.042 -0.04507,-2.15209 -0.20908,-3.25366c-0.48389,0 -0.98148,0 -1.46774,0c-0.55689,1.5 -2.33534,1.5 -2.33534,1.5l-0.99029,-0.04855c-0.11352,-0.02333 -0.22819,-0.04239 -0.34383,-0.05783c-1.13902,1.56927 -2.42421,2.90188 -4.21191,3.06482c-6.01048,0.54783 -9.41604,-4.30668 -6.54107,-9.33466c2.58992,-4.52947 9.32162,-6.55146 14.0871,-6.62377c0,0 1.34231,0 2.05977,0.98358c1.04315,-0.15638 1.94023,0.51642 1.94023,0.51642c2.32742,1.82059 4.08409,2.00648 7,2c1.45559,-0.00323 4.0521,-0.13795 5.70148,0.53286c0.33459,-0.03455 0.67715,-0.10528 1.02109,-0.1823c0.37385,-0.22266 0.81071,-0.35056 1.27744,-0.35056c0.16935,0 0.33477,0.01684 0.49467,0.04893c0.41963,-0.01083 0.82289,0.05275 1.19609,0.25287c0.80633,0.43236 1.14486,1.34552 1.48111,2.2607l0.32813,0.4375l-0.12774,0.0958c0.01553,0.03947 0.03123,0.07876 0.04714,0.11784z" fill="#9966ff"/><path d="M256.24669,154.68394c-0.71785,0 -1.22958,-0.20612 -1.59437,-0.5c-0.49131,0 -0.90563,0 -0.90563,0c-1.38071,0 -2.5,-1.11929 -2.5,-2.5c0,-1.38071 1.11929,-2.5 2.5,-2.5h2.5c0,0 2.5,0 2.5,2.5c0,0.16483 -0.01087,0.31879 -0.03117,0.4626l0.03117,0.0374c0,0 0,2.5 -2.5,2.5z" fill="#ffeab8"/><path d="M219.54666,141.4176l1.02122,0.83786c0.20026,1.67574 1.73811,3.78034 0.60079,5.02722c-2.80379,3.07389 -9.42887,-1.77591 -9.92102,-4.02938c-0.12505,-0.57258 3.9024,-4.50432 4.73127,-5.33713c0,0 1.76777,-1.76777 3.53553,0c1.62404,1.62404 0.26408,3.24808 0.03221,3.50143z" fill="#ffeab8"/><path d="M219.24669,146.18394c0,-1.38071 1.11929,-2.5 2.5,-2.5c1.38071,0 2.5,1.11929 2.5,2.5c0,1.38071 -1.11929,2.5 -2.5,2.5c-1.38071,0 -2.5,-1.11929 -2.5,-2.5z" fill="#825b00"/><path d="M206.64623,132.26339c1.92055,-1.60046 3.52101,0.32009 3.52101,0.32009c1.06697,1.28037 3.93303,4.71963 5,6c0,0 1.60046,1.92055 -0.32009,3.52101c-1.92055,1.60046 -3.52101,-0.32009 -3.52101,-0.32009c-1.06697,-1.28037 -2.13395,-2.56074 -3.20092,-3.84111l-1.79908,-2.15889c0,0 -1.60046,-1.92055 0.32009,-3.52101z" fill="#825b00"/><path d="M208.94794,131.48294c0.09822,0.05856 0.19785,0.12533 0.29874,0.201c2,1.5 0.5,3.5 0.5,3.5c-0.5,0.66667 -1,1.33333 -1.5,2l-1.48254,1.97672c-0.45492,0.62044 -1.18914,1.02328 -2.01746,1.02328c-1.22888,0 -2.25067,-0.88665 -2.46053,-2.05512l-0.49092,-2.45459l0.4776,-0.09552c-0.0168,-0.06017 -0.03282,-0.12048 -0.048,-0.18092c-2.72177,0.10171 -7.36064,-0.71034 -7.65365,-1.48211c-2.66126,-7.00956 1.85588,-4.91195 4.10533,-6.13332c0.16067,-0.08724 -0.23625,-0.27995 -0.33912,-0.43109c-0.42196,-0.62003 -0.82296,-1.25406 -1.23444,-1.88109l-1.47886,-2.46477c-0.2392,-0.38339 -0.37741,-0.83629 -0.37741,-1.32147c0,-1.38071 1.11929,-2.5 2.5,-2.5c0.34826,0 0.67989,0.07121 0.98112,0.19986l2.44736,0.97894l-0.01563,0.03908c0.06613,0.01344 0.13215,0.02759 0.19806,0.04249c0.94456,0.21356 1.64219,1.09995 2.54767,1.41444l1.37482,-1.71853c0.45772,-0.5823 1.16848,-0.9563 1.9666,-0.9563c1.38071,0 2.5,1.11929 2.5,2.5c0,0.34826 -0.07121,0.67989 -0.19986,0.98112l-0.40713,1.01782c0.67638,-0.31285 1.36211,-0.60819 2.03261,-0.93206l0.57438,0.18496v-0.25183h2.5c1.38071,0 2.5,1.11929 2.5,2.5c0,0.92661 -0.50412,1.73548 -1.25305,2.16731l-2.46071,1.47643l-0.09356,-0.15594c-0.77318,0.7677 -1.58047,1.49817 -2.43397,2.17222z" fill="#fffc00"/><path d="M241.45289,157.19246c2.75421,0.25326 5.37783,-0.0099 7.96005,0.49511c0.12389,-0.25343 0.30699,-0.51241 0.56598,-0.7714c1.76777,-1.76777 3.53553,0 3.53553,0l0.85027,1.0317c5.35086,2.73319 7.74937,5.83284 8.88197,11.73607c-0.87908,4.71383 -0.10365,9.17855 -1.62829,13.79057c-0.70211,2.12388 -1.56821,5.57826 -3.63996,6.88493c-1.0561,0.66609 -2.48318,0.31421 -3.73175,0.3245c-1.20917,0.00996 -2.57301,0.34445 -3.61803,-0.26393c-2.36578,-1.37729 -2.78365,-2.72673 -2.85769,-4.48803c-0.06597,0.41776 -0.20078,0.809 -0.45411,1.15354c-2.21086,3.00695 -12.00128,2.56755 -14.14034,-0.5c-2.35373,-3.37541 1.0772,-6.3789 1.61528,-9.37434c0.425,-2.36595 -0.1567,-5.32621 -0.51571,-7.64493c-0.3038,-1.96216 -0.06623,-4.06514 -0.82782,-5.89881c-0.69524,-1.6739 -1.76216,-3.22331 -2.15303,-4.99321c0,0 -0.49029,-2.45145 1.96116,-2.94174c1.01411,-0.20282 1.69261,0.09778 2.13963,0.51999c2.02061,0.30411 4.02232,0.75289 6.05686,0.93998zM247.80933,181.11237c0.24554,-3.60961 1.08822,-6.96512 1.60201,-10.53618c0.09217,-0.64065 -1.81487,-0.41141 -1.92858,0.22578c-0.22785,1.27681 0.26393,2.58499 0.26393,3.88197c0,2.11735 0.10565,4.29088 0.06264,6.42843zM247.74211,182.76855c-0.00935,0.20244 -0.00773,0.40966 -0.00032,0.61954c-0.00228,-0.20757 -0.00212,-0.41406 0.00032,-0.61954z" fill="#00caff"/><path d="M246.01062,187.06591c1.11803,-2.23607 3.3541,-1.11803 3.3541,-1.11803c3.32875,1.66714 6.05638,2.94679 9.9092,2.28118c2.67438,-0.46203 3.73016,-2.98619 7.05774,-0.47846c1.31466,0.99075 2.16165,7.87034 1.01377,8.85534c-1.21425,1.04194 -3.18519,-0.31228 -4.77238,-0.51445c-5.18065,-0.65991 -10.8956,-0.22252 -15.75484,-2.08634l-0.49778,-0.39153c-0.60241,0.50417 -1.42906,1.00923 -2.52073,1.5084c-1.00945,0.46159 -2.19282,-0.36294 -3.29936,-0.45023c-4.24922,-0.33521 -8.40417,0.3739 -12.63596,-0.51724c-1.47182,-0.30994 -3.41855,0.00108 -4.35673,-1.17456c-3.72564,-4.6686 -0.45157,-6.66879 3.26627,-7.75093c2.69476,-0.78436 6.0953,0.43834 8.88164,0.45479c0.85933,-0.65635 2.00212,-0.46588 2.00212,-0.46588l3.19163,0.5397c1.58585,0.55529 3.46601,1.43512 4.84827,2.5079c0.0013,-0.35581 0.09106,-0.7557 0.31304,-1.19965z" fill="#005e75"/><path d="M211.74219,133.25c0,2.5 -2.5,2.5 -2.5,2.5h-2.5c-1.42259,-0.24408 -3.22291,0.26356 -4.26777,-0.73224c-0.98579,-0.93952 -0.54908,-2.67041 -0.72007,-4.02142c-0.04811,-0.38013 0.34951,-0.89003 0.06584,-1.1476c-0.7172,-0.65122 -2.08997,-0.40543 -2.64818,-1.19717c-0.54252,-0.76949 0.26083,-1.9883 -0.18309,-2.8186c-0.38411,-0.71843 -1.45312,-0.77998 -2.04191,-1.34303c-0.67814,-0.6485 -1.13656,-1.4933 -1.70484,-2.23994c0,0 -1.5,-2 0.5,-3.5c2,-1.5 3.5,0.5 3.5,0.5c1.21143,1.64628 3.23634,2.64399 4.25325,4.41703c0.36303,0.63297 -0.61207,1.59112 -0.18309,2.1814c0.48698,0.6701 1.8616,0.1351 2.35182,0.80283c0.78849,1.07401 0.97072,2.52342 1.06584,3.8524c0.02892,0.40395 -0.74004,0.57409 -0.72007,0.97858c0.01702,0.34476 0.48816,-0.48816 0.73224,-0.73224h2.5c0,0 2.5,0 2.5,2.5z" fill="#825b00"/><path d="M231.40277,121.16033c0.12106,-0.48425 0.31464,-0.84764 0.54694,-1.11913c-0.17639,-0.32876 -0.28825,-0.74572 -0.28825,-1.27453c0,-2.5 2.5,-2.5 2.5,-2.5c2.7232,0 5.32281,-0.17762 8.02325,-0.31403c1.4051,-0.07098 3.0758,-0.83898 4.22063,-0.02122c3.33954,2.38544 2.7293,6.59525 -0.09395,8.84769c-2.86466,2.28548 -7.37518,0.83645 -10.42294,0.07958l-2.66667,-0.66667c0,0 -2.42536,-0.60634 -1.81902,-3.0317zM242.74197,120.89184c0.20514,-0.02896 0.40722,-0.07301 0.60289,-0.13761c0.23768,-0.07847 0.77542,-0.63247 0.57272,-0.48564c-0.35594,0.25783 -0.75118,0.46224 -1.17561,0.62325z" fill="#ffeab8"/><path d="M245.54821,123.51346c-2.08013,1.38675 -3.46688,-0.69338 -3.46688,-0.69338l0.53565,-0.04593c-0.52953,-0.28295 -1.00398,-0.71217 -1.5886,-0.84886c-0.73092,-0.1709 -0.67613,1.37027 -0.7749,2.11437c0,0 -0.60634,2.42536 -3.0317,1.81902c-2.42536,-0.60634 -1.81902,-3.0317 -1.81902,-3.0317c1.01474,-3.29544 0.7084,-5.21733 5.2251,-5.88563c1.29183,-0.19114 2.49649,0.76743 3.74473,1.15114l1.86898,1.95407c0,0 1.38675,2.08013 -0.69338,3.46688z" fill="#000000"/></g></g></svg>