<svg version="1.1" xmlns="http://www.w3.org/2000/svg" xmlns:xlink="http://www.w3.org/1999/xlink" width="328" height="205" viewBox="0,0,328,205"><defs><linearGradient x1="273.59268" y1="166.08811" x2="273.59268" y2="227.47751" gradientUnits="userSpaceOnUse" id="color-1"><stop offset="0" stop-color="#13b22b"/><stop offset="1" stop-color="#06610f"/></linearGradient><linearGradient x1="273.61114" y1="165.84373" x2="273.61114" y2="172.56302" gradientUnits="userSpaceOnUse" id="color-2"><stop offset="0" stop-color="#01c300"/><stop offset="1" stop-color="#01c300" stop-opacity="0"/></linearGradient><linearGradient x1="273.5867" y1="227.53859" x2="273.5867" y2="216.23808" gradientUnits="userSpaceOnUse" id="color-3"><stop offset="0" stop-color="#019601"/><stop offset="1" stop-color="#019601" stop-opacity="0"/></linearGradient><linearGradient x1="273.58671" y1="185.75712" x2="273.5867" y2="203.71583" gradientUnits="userSpaceOnUse" id="color-4"><stop offset="0" stop-color="#2ab346"/><stop offset="1" stop-color="#2ab346" stop-opacity="0"/></linearGradient><linearGradient x1="273.58671" y1="185.9404" x2="273.58671" y2="173.47924" gradientUnits="userSpaceOnUse" id="color-5"><stop offset="0" stop-color="#2ab346"/><stop offset="1" stop-color="#2ab346" stop-opacity="0"/></linearGradient><linearGradient x1="225.81492" y1="225.98232" x2="287.54991" y2="225.98232" gradientUnits="userSpaceOnUse" id="color-6"><stop offset="0" stop-color="#13b22b"/><stop offset="1" stop-color="#06610f"/></linearGradient><linearGradient x1="287.61133" y1="225.98396" x2="276.24718" y2="225.98396" gradientUnits="userSpaceOnUse" id="color-7"><stop offset="0" stop-color="#019601"/><stop offset="1" stop-color="#019601" stop-opacity="0"/></linearGradient><linearGradient x1="245.59465" y1="225.98396" x2="263.65445" y2="225.98396" gradientUnits="userSpaceOnUse" id="color-8"><stop offset="0" stop-color="#2ab346"/><stop offset="1" stop-color="#2ab346" stop-opacity="0"/></linearGradient><linearGradient x1="225.81492" y1="167.42981" x2="287.54991" y2="167.42981" gradientUnits="userSpaceOnUse" id="color-9"><stop offset="0" stop-color="#13b22b"/><stop offset="1" stop-color="#06610f"/></linearGradient><linearGradient x1="287.61133" y1="167.42813" x2="276.24718" y2="167.42813" gradientUnits="userSpaceOnUse" id="color-10"><stop offset="0" stop-color="#019601"/><stop offset="1" stop-color="#019601" stop-opacity="0"/></linearGradient><linearGradient x1="245.59466" y1="167.42813" x2="263.65446" y2="167.42813" gradientUnits="userSpaceOnUse" id="color-11"><stop offset="0" stop-color="#2ab346"/><stop offset="1" stop-color="#2ab346" stop-opacity="0"/></linearGradient><linearGradient x1="239.61775" y1="166.08812" x2="239.61776" y2="227.47751" gradientUnits="userSpaceOnUse" id="color-12"><stop offset="0" stop-color="#13b22b"/><stop offset="1" stop-color="#06610f"/></linearGradient><linearGradient x1="239.59967" y1="165.84373" x2="239.59967" y2="172.56302" gradientUnits="userSpaceOnUse" id="color-13"><stop offset="0" stop-color="#01c300"/><stop offset="1" stop-color="#01c300" stop-opacity="0"/></linearGradient><linearGradient x1="239.6236" y1="227.5386" x2="239.6236" y2="216.23808" gradientUnits="userSpaceOnUse" id="color-14"><stop offset="0" stop-color="#019601"/><stop offset="1" stop-color="#019601" stop-opacity="0"/></linearGradient><linearGradient x1="239.6236" y1="185.75712" x2="239.6236" y2="203.71583" gradientUnits="userSpaceOnUse" id="color-15"><stop offset="0" stop-color="#2ab346"/><stop offset="1" stop-color="#2ab346" stop-opacity="0"/></linearGradient><linearGradient x1="239.6236" y1="185.9404" x2="239.6236" y2="173.47924" gradientUnits="userSpaceOnUse" id="color-16"><stop offset="0" stop-color="#2ab346"/><stop offset="1" stop-color="#2ab346" stop-opacity="0"/></linearGradient><linearGradient x1="226.16224" y1="225.99957" x2="287.89723" y2="225.99957" gradientUnits="userSpaceOnUse" id="color-17"><stop offset="0" stop-color="#13b22b"/><stop offset="1" stop-color="#06610f"/></linearGradient><linearGradient x1="225.91646" y1="225.9945" x2="232.67359" y2="225.99449" gradientUnits="userSpaceOnUse" id="color-18"><stop offset="0" stop-color="#01c300"/><stop offset="1" stop-color="#01c300" stop-opacity="0"/></linearGradient><linearGradient x1="287.95865" y1="226.00122" x2="276.59452" y2="226.00122" gradientUnits="userSpaceOnUse" id="color-19"><stop offset="0" stop-color="#019601"/><stop offset="1" stop-color="#019601" stop-opacity="0"/></linearGradient><linearGradient x1="245.94196" y1="226.00122" x2="264.00177" y2="226.00122" gradientUnits="userSpaceOnUse" id="color-20"><stop offset="0" stop-color="#2ab346"/><stop offset="1" stop-color="#2ab346" stop-opacity="0"/></linearGradient><linearGradient x1="246.12627" y1="226.00122" x2="233.59497" y2="226.00122" gradientUnits="userSpaceOnUse" id="color-21"><stop offset="0" stop-color="#2ab346"/><stop offset="1" stop-color="#2ab346" stop-opacity="0"/></linearGradient><linearGradient x1="226.16224" y1="167.41253" x2="287.89723" y2="167.41253" gradientUnits="userSpaceOnUse" id="color-22"><stop offset="0" stop-color="#13b22b"/><stop offset="1" stop-color="#06610f"/></linearGradient><linearGradient x1="225.91648" y1="167.41759" x2="232.6736" y2="167.41761" gradientUnits="userSpaceOnUse" id="color-23"><stop offset="0" stop-color="#01c300"/><stop offset="1" stop-color="#01c300" stop-opacity="0"/></linearGradient><linearGradient x1="287.95866" y1="167.41088" x2="276.59452" y2="167.41088" gradientUnits="userSpaceOnUse" id="color-24"><stop offset="0" stop-color="#019601"/><stop offset="1" stop-color="#019601" stop-opacity="0"/></linearGradient><linearGradient x1="245.94196" y1="167.41088" x2="264.00177" y2="167.41088" gradientUnits="userSpaceOnUse" id="color-25"><stop offset="0" stop-color="#2ab346"/><stop offset="1" stop-color="#2ab346" stop-opacity="0"/></linearGradient><linearGradient x1="246.12626" y1="167.41088" x2="233.59497" y2="167.41088" gradientUnits="userSpaceOnUse" id="color-26"><stop offset="0" stop-color="#2ab346"/><stop offset="1" stop-color="#2ab346" stop-opacity="0"/></linearGradient></defs><g transform="translate(-76,-77.50002)"><g data-paper-data="{&quot;isPaintingLayer&quot;:true}" fill-rule="nonzero" stroke="none" stroke-width="0" stroke-linecap="butt" stroke-linejoin="miter" stroke-miterlimit="10" stroke-dasharray="" stroke-dashoffset="0" style="mix-blend-mode: normal"><g><g data-paper-data="{&quot;index&quot;:null}"><g><path d="M292.36493,227.47749h-36.12993v-61.38938h36.12993z" data-paper-data="{&quot;origPos&quot;:null}" fill="url(#color-1)"/><path d="M292.40179,172.56299h-36.16679v-6.71924h36.16678z" data-paper-data="{&quot;origPos&quot;:null}" fill="url(#color-2)"/><path d="M292.35298,227.53859h-36.11799v-11.30052h36.11799z" data-paper-data="{&quot;origPos&quot;:null,&quot;index&quot;:null}" fill="url(#color-3)"/><path d="M292.35298,203.71581h-36.11799v-17.95869h36.11799z" data-paper-data="{&quot;origPos&quot;:null}" fill="url(#color-4)"/><path d="M292.35297,185.94038h-36.11799v-12.46113h36.11799z" data-paper-data="{&quot;origPos&quot;:null,&quot;index&quot;:null}" fill="url(#color-5)"/></g><g><path d="M256.31956,221.20452c20.14965,0.15123 31.23033,6.00146 31.23033,6.00146v4.50006h-31.22954c0,0 -0.26463,-10.50351 -0.00079,-10.50153z" data-paper-data="{&quot;origPos&quot;:null}" fill="url(#color-6)"/><path d="M283.05376,225.27537c2.92341,1.09051 4.55757,1.93064 4.55757,1.93064v4.50006h-11.36414v-8.23008c0,0 4.76671,1.03844 6.80657,1.79937z" data-paper-data="{&quot;origPos&quot;:null,&quot;index&quot;:null}" fill="url(#color-7)"/><path d="M256.32184,221.23949l7.3326,0.58699v9.87956h-7.33409z" data-paper-data="{&quot;origPos&quot;:null}" fill="url(#color-8)"/></g><g data-paper-data="{&quot;index&quot;:null}"><path d="M256.32035,161.70603h31.22954v4.50006c0,0 -11.08068,5.85023 -31.23033,6.00146c-0.26384,0.00198 0.00079,-10.50153 0.00079,-10.50153z" data-paper-data="{&quot;origPos&quot;:null}" fill="url(#color-9)"/><path d="M276.24718,169.93612v-8.23008h11.36414v4.50006c0,0 -1.63416,0.84014 -4.55757,1.93064c-2.03986,0.76092 -6.80657,1.79937 -6.80657,1.79937z" data-paper-data="{&quot;origPos&quot;:null,&quot;index&quot;:null}" fill="url(#color-10)"/><path d="M256.32035,161.70603h7.33409v9.87956l-7.3326,0.58699z" data-paper-data="{&quot;origPos&quot;:null}" fill="url(#color-11)"/></g></g><g data-paper-data="{&quot;index&quot;:null}"><g data-paper-data="{&quot;index&quot;:null}"><path d="M221.19087,166.08812h35.43918v61.38938h-35.43919z" data-paper-data="{&quot;origPos&quot;:null}" fill="url(#color-12)"/><path d="M221.15475,165.84373h35.4753v6.71924h-35.47531z" data-paper-data="{&quot;origPos&quot;:null}" fill="url(#color-13)"/><path d="M221.20259,216.23808h35.42747v11.30052h-35.42747z" data-paper-data="{&quot;origPos&quot;:null,&quot;index&quot;:null}" fill="url(#color-14)"/><path d="M221.20259,185.75712h35.42747v17.95869h-35.42747z" data-paper-data="{&quot;origPos&quot;:null}" fill="url(#color-15)"/><path d="M221.20259,173.47924h35.42747v12.46113h-35.42747z" data-paper-data="{&quot;origPos&quot;:null,&quot;index&quot;:null}" fill="url(#color-16)"/></g><g><path d="M226.11012,227.4305c0,0 10.04874,-6.21168 29.76054,-6.21168c0.26696,0 0.53238,0.00101 0.79622,0.00298c0.04005,0.04762 0.00078,10.50153 0.00078,10.50153h-30.50543l-0.0521,-4.29284z" data-paper-data="{&quot;origPos&quot;:null}" fill="url(#color-17)"/><path d="M225.91648,227.50821c0,0 1.77873,-0.96596 2.85835,-1.40879c1.16607,-0.47829 3.89871,-1.36281 3.89871,-1.36281v6.98673h-6.75708v-4.21513z" data-paper-data="{&quot;origPos&quot;:null}" fill="url(#color-18)"/><path d="" data-paper-data="{&quot;origPos&quot;:null,&quot;index&quot;:null}" fill="url(#color-19)"/><path d="M245.94198,221.84376c0,0 6.24935,-0.62167 9.30353,-0.62167c0.42484,0 1.42366,0.03468 1.42366,0.03468l-0.0015,10.46655h-10.7257v-9.87956z" data-paper-data="{&quot;origPos&quot;:null}" fill="url(#color-20)"/><path d="M239.70723,222.91033c2.11348,-0.41939 6.41904,-1.06655 6.41904,-1.06655v9.87956h-12.53127v-7.39289c0,0 4.04987,-1.01088 6.11223,-1.42012z" data-paper-data="{&quot;origPos&quot;:null,&quot;index&quot;:null}" fill="url(#color-21)"/></g><g data-paper-data="{&quot;index&quot;:null}"><path d="M255.87069,172.19329c-19.7118,0 -29.76054,-6.21168 -29.76054,-6.21168l0.0521,-4.29284h30.50543c0,0 0.03928,10.45391 -0.00078,10.50153c-0.26384,0.00198 -0.52927,0.00298 -0.79622,0.00298z" data-paper-data="{&quot;origPos&quot;:null}" fill="url(#color-22)"/><path d="M228.77483,167.3127c-1.07962,-0.44283 -2.85835,-1.40879 -2.85835,-1.40879v-4.21513h6.75708v6.98673c0,0 -2.73265,-0.88453 -3.89871,-1.36281z" data-paper-data="{&quot;origPos&quot;:null}" fill="url(#color-23)"/><path d="" data-paper-data="{&quot;origPos&quot;:null,&quot;index&quot;:null}" fill="url(#color-24)"/><path d="M245.94197,171.56833v-9.87956h10.7257l0.0015,10.46655c0,0 -0.99883,0.03468 -1.42366,0.03468c-3.05417,0 -9.30354,-0.62167 -9.30354,-0.62167z" data-paper-data="{&quot;origPos&quot;:null}" fill="url(#color-25)"/><path d="M233.59497,169.08166v-7.39289h12.53127v9.87956c0,0 -4.30554,-0.64716 -6.41904,-1.06655c-2.06235,-0.40925 -6.11223,-1.42012 -6.11223,-1.42012z" data-paper-data="{&quot;origPos&quot;:null,&quot;index&quot;:null}" fill="url(#color-26)"/></g></g></g><path d="M76,282.50002v-205h328v205z" fill="none"/></g></g></svg>