<svg version="1.1" xmlns="http://www.w3.org/2000/svg" xmlns:xlink="http://www.w3.org/1999/xlink" width="328" height="205" viewBox="0,0,328,205"><defs><linearGradient x1="240.23712" y1="184.26308" x2="240.23712" y2="185.69761" gradientUnits="userSpaceOnUse" id="color-1"><stop offset="0" stop-color="#8c4911"/><stop offset="1" stop-color="#552b0a"/></linearGradient><linearGradient x1="233.74089" y1="179.85815" x2="232.27601" y2="179.85815" gradientUnits="userSpaceOnUse" id="color-2"><stop offset="0" stop-color="#965016"/><stop offset="1" stop-color="#714111"/></linearGradient><linearGradient x1="239.87826" y1="175.06154" x2="239.87826" y2="176.97943" gradientUnits="userSpaceOnUse" id="color-3"><stop offset="0" stop-color="#dc9a4f"/><stop offset="1" stop-color="#9c571c"/></linearGradient><linearGradient x1="246.01037" y1="180.51303" x2="247.47526" y2="180.51303" gradientUnits="userSpaceOnUse" id="color-4"><stop offset="0" stop-color="#965016"/><stop offset="1" stop-color="#733e10"/></linearGradient><linearGradient x1="226.65484" y1="184.19058" x2="226.65484" y2="185.59848" gradientUnits="userSpaceOnUse" id="color-5"><stop offset="0" stop-color="#8c4911"/><stop offset="1" stop-color="#552b0a"/></linearGradient><linearGradient x1="223.84043" y1="179.86739" x2="223.20579" y2="179.86739" gradientUnits="userSpaceOnUse" id="color-6"><stop offset="0" stop-color="#965016"/><stop offset="1" stop-color="#714111"/></linearGradient><linearGradient x1="226.49938" y1="175.15981" x2="226.49938" y2="177.0421" gradientUnits="userSpaceOnUse" id="color-7"><stop offset="0" stop-color="#dc9a4f"/><stop offset="1" stop-color="#9c571c"/></linearGradient><linearGradient x1="229.15601" y1="180.51012" x2="229.79065" y2="180.51012" gradientUnits="userSpaceOnUse" id="color-8"><stop offset="0" stop-color="#965016"/><stop offset="1" stop-color="#733e10"/></linearGradient><linearGradient x1="253.61674" y1="184.26205" x2="253.61674" y2="185.6962" gradientUnits="userSpaceOnUse" id="color-9"><stop offset="0" stop-color="#8c4911"/><stop offset="1" stop-color="#552b0a"/></linearGradient><linearGradient x1="250.7499" y1="179.85828" x2="250.10342" y2="179.85828" gradientUnits="userSpaceOnUse" id="color-10"><stop offset="0" stop-color="#965016"/><stop offset="1" stop-color="#714111"/></linearGradient><linearGradient x1="253.4584" y1="175.06293" x2="253.4584" y2="176.98031" gradientUnits="userSpaceOnUse" id="color-11"><stop offset="0" stop-color="#dc9a4f"/><stop offset="1" stop-color="#9c571c"/></linearGradient><linearGradient x1="256.16453" y1="180.51299" x2="256.81102" y2="180.51299" gradientUnits="userSpaceOnUse" id="color-12"><stop offset="0" stop-color="#965016"/><stop offset="1" stop-color="#733e10"/></linearGradient><linearGradient x1="231.29472" y1="195.5766" x2="231.29472" y2="197.01139" gradientUnits="userSpaceOnUse" id="color-13"><stop offset="0" stop-color="#8c4911"/><stop offset="1" stop-color="#5a2f11"/></linearGradient><linearGradient x1="224.7685" y1="192.8411" x2="223.29688" y2="192.8411" gradientUnits="userSpaceOnUse" id="color-14"><stop offset="0" stop-color="#965016"/><stop offset="1" stop-color="#714111"/></linearGradient><linearGradient x1="230.9342" y1="188.04356" x2="230.9342" y2="189.96181" gradientUnits="userSpaceOnUse" id="color-15"><stop offset="0" stop-color="#d78a4d"/><stop offset="1" stop-color="#9c571c"/></linearGradient><linearGradient x1="237.09455" y1="193.49611" x2="238.5662" y2="193.49611" gradientUnits="userSpaceOnUse" id="color-16"><stop offset="0" stop-color="#965016"/><stop offset="1" stop-color="#733e10"/></linearGradient><linearGradient x1="248.71315" y1="195.57561" x2="248.71315" y2="197.00994" gradientUnits="userSpaceOnUse" id="color-17"><stop offset="0" stop-color="#8c4911"/><stop offset="1" stop-color="#582e10"/></linearGradient><linearGradient x1="255.17982" y1="192.84099" x2="256.6402" y2="192.84099" gradientUnits="userSpaceOnUse" id="color-18"><stop offset="0" stop-color="#965016"/><stop offset="1" stop-color="#80460d"/></linearGradient><linearGradient x1="249.06131" y1="188.045" x2="249.06131" y2="189.96264" gradientUnits="userSpaceOnUse" id="color-19"><stop offset="0" stop-color="#d78a4d"/><stop offset="1" stop-color="#9c571c"/></linearGradient><linearGradient x1="242.94805" y1="193.49579" x2="241.48767" y2="193.49579" gradientUnits="userSpaceOnUse" id="color-20"><stop offset="0" stop-color="#965016"/><stop offset="1" stop-color="#65360e"/></linearGradient><linearGradient x1="231.2945" y1="171.13266" x2="231.2945" y2="172.66295" gradientUnits="userSpaceOnUse" id="color-21"><stop offset="0" stop-color="#8c4911"/><stop offset="1" stop-color="#5a2f11"/></linearGradient><linearGradient x1="224.76808" y1="168.21511" x2="223.29639" y2="168.21511" gradientUnits="userSpaceOnUse" id="color-22"><stop offset="0" stop-color="#965016"/><stop offset="1" stop-color="#714111"/></linearGradient><linearGradient x1="230.93395" y1="163.09829" x2="230.93395" y2="165.14421" gradientUnits="userSpaceOnUse" id="color-23"><stop offset="0" stop-color="#ffb35c"/><stop offset="1" stop-color="#9c571c"/></linearGradient><linearGradient x1="237.09447" y1="168.91372" x2="238.5662" y2="168.91372" gradientUnits="userSpaceOnUse" id="color-24"><stop offset="0" stop-color="#965016"/><stop offset="1" stop-color="#733e10"/></linearGradient><linearGradient x1="248.65736" y1="171.11979" x2="248.65736" y2="172.65007" gradientUnits="userSpaceOnUse" id="color-25"><stop offset="0" stop-color="#8c4911"/><stop offset="1" stop-color="#5a2f11"/></linearGradient><linearGradient x1="255.18375" y1="168.20224" x2="256.65542" y2="168.20224" gradientUnits="userSpaceOnUse" id="color-26"><stop offset="0" stop-color="#965016"/><stop offset="1" stop-color="#854c14"/></linearGradient><linearGradient x1="249.01788" y1="163.08543" x2="249.01788" y2="165.13135" gradientUnits="userSpaceOnUse" id="color-27"><stop offset="0" stop-color="#ffb35c"/><stop offset="1" stop-color="#9c571c"/></linearGradient><linearGradient x1="242.85734" y1="168.90085" x2="241.38566" y2="168.90085" gradientUnits="userSpaceOnUse" id="color-28"><stop offset="0" stop-color="#965016"/><stop offset="1" stop-color="#6f3c10"/></linearGradient><linearGradient x1="241.15" y1="185.41905" x2="250.65" y2="185.41905" gradientUnits="userSpaceOnUse" id="color-29"><stop offset="0" stop-color="#006ae2"/><stop offset="1" stop-color="#4c94e0"/></linearGradient><linearGradient x1="240.55" y1="189.93333" x2="251.25" y2="189.93333" gradientUnits="userSpaceOnUse" id="color-30"><stop offset="0" stop-color="#b5b5b5"/><stop offset="1" stop-color="#dddddd"/></linearGradient><linearGradient x1="241.15" y1="181.06905" x2="250.65" y2="181.06905" gradientUnits="userSpaceOnUse" id="color-31"><stop offset="0" stop-color="#006ae2"/><stop offset="1" stop-color="#4c94e0"/></linearGradient><linearGradient x1="241.15" y1="185.41905" x2="250.65" y2="185.41905" gradientUnits="userSpaceOnUse" id="color-32"><stop offset="0" stop-color="#006ae2"/><stop offset="1" stop-color="#4c94e0"/></linearGradient><linearGradient x1="240.55" y1="189.93334" x2="251.25" y2="189.93334" gradientUnits="userSpaceOnUse" id="color-33"><stop offset="0" stop-color="#b5b5b5"/><stop offset="1" stop-color="#dddddd"/></linearGradient><linearGradient x1="241.15" y1="181.06905" x2="250.65" y2="181.06905" gradientUnits="userSpaceOnUse" id="color-34"><stop offset="0" stop-color="#006ae2"/><stop offset="1" stop-color="#4c94e0"/></linearGradient></defs><g transform="translate(-76,-77.5)"><g data-paper-data="{&quot;isPaintingLayer&quot;:true}" fill-rule="nonzero" stroke-linecap="butt" stroke-linejoin="miter" stroke-miterlimit="10" stroke-dasharray="" stroke-dashoffset="0" style="mix-blend-mode: normal"><path d="M76,282.5v-205h328v205z" fill="none" stroke="none" stroke-width="0"/><g stroke="none" stroke-width="0"><path d="M222.99503,195.47251l0.11111,-30.33421l1.49059,-2.24742h30.76725l1.64099,2.53405v30.00372l-1.50528,1.68047h-31.19159z" data-paper-data="{&quot;origPos&quot;:null}" fill="#502800"/><g data-paper-data="{&quot;origPos&quot;:null}"><path d="M232.29313,184.26308h15.15281v1.43452h-15.14728z" data-paper-data="{&quot;origPos&quot;:null}" fill="url(#color-1)"/><path d="M232.27601,185.67011v-10.6547l1.46489,1.96467v7.33098z" data-paper-data="{&quot;origPos&quot;:null,&quot;index&quot;:null}" fill="url(#color-2)"/><path d="M233.70262,184.26428v-7.43299h12.33736v7.43299z" data-paper-data="{&quot;origPos&quot;:null}" fill="#965016"/><path d="M233.70572,176.97943l-1.42855,-1.91789h15.20218l-1.46911,1.91789z" data-paper-data="{&quot;origPos&quot;:null}" fill="url(#color-3)"/><path d="M246.01037,184.28829v-7.3082l1.46489,-1.96467v10.68089z" data-paper-data="{&quot;origPos&quot;:null}" fill="url(#color-4)"/></g><g data-paper-data="{&quot;origPos&quot;:null}"><path d="M223.21322,184.19058h6.56474v1.40789h-6.56234z" data-paper-data="{&quot;origPos&quot;:null}" fill="url(#color-5)"/><path d="M223.20579,185.57149v-10.45695l1.49623,1.92821l-0.05068,7.19492z" data-paper-data="{&quot;origPos&quot;:null,&quot;index&quot;:null}" fill="url(#color-6)"/><path d="M224.63475,184.19175v-7.29504h3.77386v7.29504z" data-paper-data="{&quot;origPos&quot;:null}" fill="#965016"/><path d="M224.63609,177.0421l-1.4298,-1.88229h6.58613l-0.63647,1.88229z" data-paper-data="{&quot;origPos&quot;:null}" fill="url(#color-7)"/><path d="M228.39579,184.21532v-7.17257l1.39487,-1.92821v10.48265z" data-paper-data="{&quot;origPos&quot;:null}" fill="url(#color-8)"/></g><g data-paper-data="{&quot;origPos&quot;:null}"><path d="M250.11098,184.26205h6.68713v1.43414h-6.68469z" data-paper-data="{&quot;origPos&quot;:null}" fill="url(#color-9)"/><path d="M250.10342,185.66872v-10.65189l1.52412,1.96415l-0.05163,7.32905z" data-paper-data="{&quot;origPos&quot;:null,&quot;index&quot;:null}" fill="url(#color-10)"/><path d="M251.55902,184.26325v-7.43104h3.84422v7.43104z" data-paper-data="{&quot;origPos&quot;:null}" fill="#965016"/><path d="M251.56039,176.98031l-1.45645,-1.91738h6.70891l-0.64834,1.91738z" data-paper-data="{&quot;origPos&quot;:null}" fill="url(#color-11)"/><path d="M255.39013,184.28726v-7.30629l1.42087,-1.96415v10.67808z" data-paper-data="{&quot;origPos&quot;:null}" fill="url(#color-12)"/></g><g data-paper-data="{&quot;origPos&quot;:null}"><path d="M224.05266,196.58641v-1.00981h14.48406v1.43479h-14.09663z" data-paper-data="{&quot;origPos&quot;:null}" fill="url(#color-13)"/><path d="M223.29688,195.71971v-7.72228l1.47164,1.96505v5.75723l-0.72122,0.86462z" data-paper-data="{&quot;origPos&quot;:null,&quot;index&quot;:null}" fill="url(#color-14)"/><path d="M224.73005,195.7088v-5.89514h12.39423v5.89514z" data-paper-data="{&quot;origPos&quot;:null}" fill="#965016"/><path d="M224.73317,189.96181l-1.43512,-1.91826h15.27225l-1.4759,1.91826z" data-paper-data="{&quot;origPos&quot;:null}" fill="url(#color-15)"/><path d="M237.09455,195.71971v-5.75723l1.47164,-1.96505v9.03231z" data-paper-data="{&quot;origPos&quot;:null}" fill="url(#color-16)"/></g><g data-paper-data="{&quot;origPos&quot;:null}"><path d="M255.48328,197.00994h-13.94487v-1.43433h14.34948v1.00949z" data-paper-data="{&quot;origPos&quot;:null,&quot;index&quot;:null}" fill="url(#color-17)"/><path d="M255.89554,196.58302l-0.7157,-0.86434v-5.75538l1.46037,-1.96442v7.71979z" data-paper-data="{&quot;origPos&quot;:null,&quot;index&quot;:null}" fill="url(#color-18)"/><path d="M242.91853,195.70777v-5.89324h12.29945v5.89324z" data-paper-data="{&quot;origPos&quot;:null,&quot;index&quot;:null}" fill="#965016"/><path d="M242.9482,189.96264l-1.46461,-1.91764h15.15546l-1.42415,1.91764z" data-paper-data="{&quot;origPos&quot;:null,&quot;index&quot;:null}" fill="url(#color-19)"/><path d="M241.48767,197.02828v-9.0294l1.46039,1.96442v5.75538z" data-paper-data="{&quot;origPos&quot;:null,&quot;index&quot;:null}" fill="url(#color-20)"/></g><g data-paper-data="{&quot;origPos&quot;:null}"><path d="M224.05224,171.13267h14.48451v1.53028h-15.25115z" data-paper-data="{&quot;origPos&quot;:null}" fill="url(#color-21)"/><path d="M223.29639,172.63886v-7.6408l1.14044,-1.89521c0,0 2.61128,1.42179 2.6853,1.84984c0.05523,0.31933 -2.35407,0.0652 -2.35407,0.0652v6.2674z" data-paper-data="{&quot;origPos&quot;:null,&quot;index&quot;:null}" fill="url(#color-22)"/><path d="M225.34392,165.14421l-0.89415,-2.04593h14.12054l-1.47595,2.04593z" data-paper-data="{&quot;origPos&quot;:null}" fill="url(#color-23)"/><path d="M224.72965,171.27367v-6.28746h12.39461v6.28746z" data-paper-data="{&quot;origPos&quot;:null}" fill="#965016"/><path d="M237.09447,171.28531v-6.14038l1.45069,-2.05217l0.02098,9.58976z" data-paper-data="{&quot;origPos&quot;:null}" fill="url(#color-24)"/></g><g data-paper-data="{&quot;origPos&quot;:null}"><path d="M256.66625,172.65007h-15.25115v-1.53028h14.48451z" data-paper-data="{&quot;origPos&quot;:null}" fill="url(#color-25)"/><path d="M255.18375,171.27244v-6.2674c0,0 -2.86845,0.04346 -2.81371,-0.27299c0.07454,-0.43093 3.14496,-1.64206 3.14496,-1.64206l1.14044,1.8952v7.64081z" data-paper-data="{&quot;origPos&quot;:null,&quot;index&quot;:null}" fill="url(#color-26)"/><path d="M242.85747,165.13135l-1.47594,-2.04592h14.12054l-0.79229,2.04592z" data-paper-data="{&quot;origPos&quot;:null}" fill="url(#color-27)"/><path d="M242.82759,171.26078v-6.28746h12.39461v6.28746z" data-paper-data="{&quot;origPos&quot;:null}" fill="#965016"/><path d="M241.38566,172.66966l0.02097,-9.58976l1.45069,2.05217v6.14039z" data-paper-data="{&quot;origPos&quot;:null}" fill="url(#color-28)"/></g></g><g><g stroke="#000000"><path d="M241.15,189.36905v-7.9h9.5v7.9z" fill="url(#color-29)" stroke-width="3"/><path d="M240.55,191.28333v-2.7h10.7v2.7z" fill="url(#color-30)" stroke-width="3"/><path d="M250.65,181.06905c0,2.20914 -2.12664,4 -4.75,4c-2.62336,0 -4.75,-1.79086 -4.75,-4c0,-2.20914 2.12664,-4 4.75,-4c2.62336,0 4.75,1.79086 4.75,4z" fill="url(#color-31)" stroke-width="3"/><text transform="translate(243.23571,185.46548) scale(0.22141,0.192)" font-size="40" xml:space="preserve" fill="#ffffff" fill-rule="nonzero" stroke="#000000" stroke-width="6" stroke-linecap="butt" stroke-linejoin="miter" stroke-miterlimit="10" stroke-dasharray="" stroke-dashoffset="0" font-family="Sans Serif" font-weight="normal" text-anchor="start" style="mix-blend-mode: normal"><tspan x="0" dy="0">P</tspan></text></g><g><path d="M241.15,189.36905v-7.9h9.5v7.9z" fill="url(#color-32)" stroke="none" stroke-width="0"/><path d="M240.55,191.28334v-2.7h10.7v2.7z" fill="url(#color-33)" stroke="none" stroke-width="NaN"/><path d="M250.65,181.06905c0,2.20914 -2.12665,4 -4.75,4c-2.62335,0 -4.75,-1.79086 -4.75,-4c0,-2.20914 2.12665,-4 4.75,-4c2.62335,0 4.75,1.79086 4.75,4z" fill="url(#color-34)" stroke="none" stroke-width="0"/><text transform="translate(243.23571,185.46548) scale(0.22141,0.192)" font-size="40" xml:space="preserve" fill="#ffffff" fill-rule="nonzero" stroke="#ffffff" stroke-width="3" stroke-linecap="butt" stroke-linejoin="miter" stroke-miterlimit="10" stroke-dasharray="" stroke-dashoffset="0" font-family="Sans Serif" font-weight="normal" text-anchor="start" style="mix-blend-mode: normal"><tspan x="0" dy="0">P</tspan></text></g></g></g></g></svg>