<svg version="1.1" xmlns="http://www.w3.org/2000/svg" xmlns:xlink="http://www.w3.org/1999/xlink" width="328" height="205" viewBox="0,0,328,205"><defs><linearGradient x1="239.76421" y1="163.06017" x2="239.76421" y2="167.67341" gradientUnits="userSpaceOnUse" id="color-1"><stop offset="0" stop-color="#f7e555"/><stop offset="1" stop-color="#fac800"/></linearGradient><linearGradient x1="239.76421" y1="196.93981" x2="239.76421" y2="192.32659" gradientUnits="userSpaceOnUse" id="color-2"><stop offset="0" stop-color="#715304"/><stop offset="1" stop-color="#f8b50a"/></linearGradient><linearGradient x1="222.99226" y1="180.15733" x2="227.65104" y2="180.16499" gradientUnits="userSpaceOnUse" id="color-3"><stop offset="0" stop-color="#c89c2b"/><stop offset="1" stop-color="#f5c42e"/></linearGradient><linearGradient x1="257.00775" y1="180.16342" x2="252.34892" y2="180.15581" gradientUnits="userSpaceOnUse" id="color-4"><stop offset="0" stop-color="#b28209"/><stop offset="1" stop-color="#ffba0a"/></linearGradient><radialGradient cx="244.74573" cy="189.60232" r="4.77048" gradientUnits="userSpaceOnUse" id="color-5"><stop offset="0" stop-color="#feffbc"/><stop offset="1" stop-color="#ffe68d"/></radialGradient><linearGradient x1="244.74573" y1="186.86139" x2="244.74573" y2="193.45469" gradientUnits="userSpaceOnUse" id="color-6"><stop offset="0" stop-color="#ebc578" stop-opacity="0"/><stop offset="1" stop-color="#ebc578"/></linearGradient><linearGradient x1="244.75573" y1="181.4605" x2="244.75573" y2="194.07378" gradientUnits="userSpaceOnUse" id="color-7"><stop offset="0" stop-color="#5fdd29"/><stop offset="1" stop-color="#357e12"/></linearGradient><radialGradient cx="243.25671" cy="188.90555" r="1.00323" gradientUnits="userSpaceOnUse" id="color-8"><stop offset="0" stop-color="#747474"/><stop offset="1" stop-color="#2e2e2f"/></radialGradient><radialGradient cx="243.23923" cy="188.63056" r="0.47846" gradientUnits="userSpaceOnUse" id="color-9"><stop offset="0" stop-color="#ffffff"/><stop offset="1" stop-color="#ffffff" stop-opacity="0"/></radialGradient><radialGradient cx="246.29579" cy="188.90555" r="1.00323" gradientUnits="userSpaceOnUse" id="color-10"><stop offset="0" stop-color="#747474"/><stop offset="1" stop-color="#2e2e2f"/></radialGradient><radialGradient cx="246.27831" cy="188.63056" r="0.47845" gradientUnits="userSpaceOnUse" id="color-11"><stop offset="0" stop-color="#ffffff"/><stop offset="1" stop-color="#ffffff" stop-opacity="0"/></radialGradient><radialGradient cx="244.74572" cy="189.60232" r="4.77048" gradientUnits="userSpaceOnUse" id="color-12"><stop offset="0" stop-color="#feffbc"/><stop offset="1" stop-color="#ffe68d"/></radialGradient><linearGradient x1="244.74572" y1="186.86138" x2="244.74572" y2="193.45469" gradientUnits="userSpaceOnUse" id="color-13"><stop offset="0" stop-color="#ebc578" stop-opacity="0"/><stop offset="1" stop-color="#ebc578"/></linearGradient><linearGradient x1="244.75573" y1="181.4605" x2="244.75573" y2="194.07378" gradientUnits="userSpaceOnUse" id="color-14"><stop offset="0" stop-color="#5fdd29"/><stop offset="1" stop-color="#357e12"/></linearGradient><radialGradient cx="244.71231" cy="182.44604" r="7.51521" gradientUnits="userSpaceOnUse" id="color-15"><stop offset="0" stop-color="#4dff00"/><stop offset="1" stop-color="#4dff00" stop-opacity="0"/></radialGradient><radialGradient cx="243.2567" cy="188.90555" r="1.00323" gradientUnits="userSpaceOnUse" id="color-16"><stop offset="0" stop-color="#747474"/><stop offset="1" stop-color="#2e2e2f"/></radialGradient><radialGradient cx="243.24385" cy="189.14295" r="1.15339" gradientUnits="userSpaceOnUse" id="color-17"><stop offset="0" stop-color="#636364"/><stop offset="1" stop-color="#2e2e2f"/></radialGradient><radialGradient cx="243.23923" cy="188.63056" r="0.47846" gradientUnits="userSpaceOnUse" id="color-18"><stop offset="0" stop-color="#ffffff"/><stop offset="1" stop-color="#ffffff" stop-opacity="0"/></radialGradient><radialGradient cx="246.29579" cy="188.90555" r="1.00323" gradientUnits="userSpaceOnUse" id="color-19"><stop offset="0" stop-color="#747474"/><stop offset="1" stop-color="#2e2e2f"/></radialGradient><radialGradient cx="246.28293" cy="189.14295" r="1.15339" gradientUnits="userSpaceOnUse" id="color-20"><stop offset="0" stop-color="#636364"/><stop offset="1" stop-color="#2e2e2f"/></radialGradient><radialGradient cx="246.27831" cy="188.63056" r="0.47846" gradientUnits="userSpaceOnUse" id="color-21"><stop offset="0" stop-color="#ffffff"/><stop offset="1" stop-color="#ffffff" stop-opacity="0"/></radialGradient></defs><g transform="translate(-76,-77.5)"><g data-paper-data="{&quot;isPaintingLayer&quot;:true}" fill-rule="nonzero" stroke-linecap="butt" stroke-linejoin="miter" stroke-miterlimit="10" stroke-dasharray="" stroke-dashoffset="0" style="mix-blend-mode: normal"><path d="M76,282.5v-205h328v205z" fill="none" stroke="none" stroke-width="0"/><g stroke="none"><g data-paper-data="{&quot;origPos&quot;:null}"><path d="M227.32436,167.67341l-3.89449,-3.67755l0.69893,-0.93568h31.27082l1.00816,0.93865l-3.74721,3.67458z" data-paper-data="{&quot;origPos&quot;:null}" fill="url(#color-1)" stroke-width="0"/><path d="M252.66058,192.32659l3.73381,3.6436l-0.99476,0.96963h-31.27082l-0.70571,-0.76136l3.90126,-3.85187z" data-paper-data="{&quot;origPos&quot;:null,&quot;index&quot;:null}" fill="url(#color-2)" stroke-width="0"/><path d="M227.63044,192.52346l-3.98506,3.91549l-0.67902,-0.7485l0.05177,-31.06623l0.65288,-0.8943l4.00138,3.6231z" data-paper-data="{&quot;origPos&quot;:null,&quot;origRot&quot;:0}" fill="url(#color-3)" stroke-width="0"/><path d="M252.3703,167.38565l3.77202,-3.61783l0.89132,0.91321l-0.05178,30.67547l-0.81378,0.85511l-3.83973,-3.73771z" data-paper-data="{&quot;origPos&quot;:null,&quot;index&quot;:null,&quot;origRot&quot;:0}" fill="url(#color-4)" stroke-width="0"/><path d="M227.31042,192.59075v-25.20395h25.3621v25.20395z" data-paper-data="{&quot;origPos&quot;:null}" fill="#f8c01c" stroke-width="NaN"/><path d="M225.54916,167.11112c0,-0.89974 0.73659,-1.62912 1.64521,-1.62912c0.90863,0 1.64522,0.72938 1.64522,1.62912c0,0.89974 -0.7366,1.62912 -1.64522,1.62912c-0.90863,0 -1.64521,-0.72939 -1.64521,-1.62912z" data-paper-data="{&quot;origPos&quot;:null}" fill="#615929" stroke-width="0"/><path d="M225.49884,192.96022c0,-0.89974 0.73659,-1.62912 1.64522,-1.62912c0.90863,0 1.64522,0.72938 1.64522,1.62912c0,0.89974 -0.7366,1.62911 -1.64522,1.62911c-0.90863,0 -1.64522,-0.72937 -1.64522,-1.62911z" data-paper-data="{&quot;origPos&quot;:null}" fill="#615929" stroke-width="0"/><g data-paper-data="{&quot;origPos&quot;:null}" fill="#615929" stroke-width="0"><path d="M251.2267,167.14567c0,-0.89974 0.7366,-1.62912 1.64523,-1.62912c0.90863,0 1.64523,0.72938 1.64523,1.62912c0,0.89974 -0.73659,1.62913 -1.64523,1.62913c-0.90863,0 -1.64523,-0.72939 -1.64523,-1.62913z" data-paper-data="{&quot;origPos&quot;:null}"/><path d="M251.17638,192.99479c0,-0.89974 0.73659,-1.62912 1.64522,-1.62912c0.90863,0 1.64522,0.72938 1.64522,1.62912c0,0.89974 -0.7366,1.62912 -1.64522,1.62912c-0.90863,0 -1.64522,-0.72938 -1.64522,-1.62912z" data-paper-data="{&quot;origPos&quot;:null}"/></g></g><g data-paper-data="{&quot;origPos&quot;:null}" fill="#c49821" stroke-width="0"><g data-paper-data="{&quot;origPos&quot;:null}"><path d="M237.93138,193.06241v-3.53364h6.60845v3.53365z" data-paper-data="{&quot;origPos&quot;:null}"/><path d="M238.06355,186.25687c0,0 0,-2.93981 0,-5.15651c0,-1.15703 2.10296,-2.95779 3.19849,-2.95779c1.52678,0 3.27779,0 3.27779,0v8.11431z" data-paper-data="{&quot;origPos&quot;:null}"/><path d="M251.88841,173.95455v5.1565l-3.53792,2.9578h-3.62565v-8.11429z" data-paper-data="{&quot;origPos&quot;:null,&quot;index&quot;:null}"/><path d="M244.72487,176.2056v-8.11431h3.62565l3.53792,2.9578v5.15651z" data-paper-data="{&quot;origPos&quot;:null,&quot;index&quot;:null}"/><path d="M243.21811,182.04268v-3.87392h1.58603v3.87392z" data-paper-data="{&quot;origPos&quot;:null}"/><path d="M234.91793,172.4364v-4.31891h10.41492v4.31891z" data-paper-data="{&quot;origPos&quot;:null}"/><path d="M229.39325,178.09023c0,0 0,-3.81304 0,-6.53027c0,-1.41828 2.1888,-3.41628 3.32904,-3.41628c1.5891,0 3.41157,0 3.41157,0v9.94655z" data-paper-data="{&quot;origPos&quot;:null,&quot;index&quot;:null}"/></g><path d="M238.07955,186.24434l-0.98333,-1.09092l0.73351,-0.79663l1.35758,1.22568z" data-paper-data="{&quot;origRot&quot;:0,&quot;origPos&quot;:null}"/><path d="M237.94346,193.04944l-0.98334,-1.09092l0.73352,-0.79663l1.35758,1.22568z" data-paper-data="{&quot;origRot&quot;:0,&quot;origPos&quot;:null}"/><path d="M243.57931,188.46681l0.98335,1.09092l-0.73352,0.79662l-1.35759,-1.22568z" data-paper-data="{&quot;origRot&quot;:0,&quot;origPos&quot;:null,&quot;index&quot;:null}"/><path d="M229.38815,178.08421l-0.98333,-1.09092l0.73351,-0.79663l1.35758,1.22568z" data-paper-data="{&quot;origRot&quot;:0,&quot;origPos&quot;:null}"/></g><g data-paper-data="{&quot;origPos&quot;:null}" fill="#ffffff" stroke-width="0"><path d="M236.94908,191.97744v-3.53365h6.60845v3.53365z" data-paper-data="{&quot;origPos&quot;:null}"/><path d="M237.08126,185.17189v-5.1565l3.19849,-2.9578h3.27779v8.1143z" data-paper-data="{&quot;origPos&quot;:null}"/><path d="M250.90614,172.86957v5.1565l-3.53792,2.95779h-3.62564v-8.11429z" data-paper-data="{&quot;origPos&quot;:null,&quot;index&quot;:null}"/><path d="M243.74255,175.12064v-8.11429h3.62564l3.53792,2.95779v5.15651z" data-paper-data="{&quot;origPos&quot;:null,&quot;index&quot;:null}"/><path d="M242.23583,180.99138v-3.90761h1.58603v3.90761z" data-paper-data="{&quot;origPos&quot;:null}"/><path d="M233.9356,171.35142v-4.31891h10.41492v4.31891z" data-paper-data="{&quot;origPos&quot;:null}"/><path d="M228.41098,177.00522v-6.53028l3.32903,-3.41627h3.41157v9.94655z" data-paper-data="{&quot;origPos&quot;:null,&quot;index&quot;:null}"/></g></g><g><g><path d="M249.09977,188.22755c0.29359,0.3487 0.69971,1.95553 0.12874,2.98686c-1.01272,1.82924 -3.82157,1.68171 -4.42068,1.68171c-2.90155,0 -3.89437,-0.63869 -4.46745,-1.86253c-0.26139,-0.55819 -0.73012,-2.35976 0.127,-3.38906c0.95344,-1.14499 3.30632,-1.33888 4.34045,-1.33888c1.10966,0 3.37216,0.82947 4.29194,1.92189z" fill="url(#color-5)" stroke="#000000" stroke-width="4"/><path d="M249.2285,191.21441c-1.01272,1.82924 -3.82157,1.68171 -4.42068,1.68171c-2.90155,0 -3.89437,-0.63869 -4.46745,-1.86253c-0.26139,-0.55819 -0.73012,-2.35976 0.127,-3.38906c0.95344,-1.14499 3.30632,-1.33888 4.34045,-1.33888c1.10966,0 3.37216,0.82947 4.29194,1.92189c0,0 0.69971,1.95553 0.12874,2.98686z" fill="url(#color-6)" stroke="#000000" stroke-width="4"/><path d="M249.22545,191.24099c-0.03017,0.01159 0.13205,-1.18818 0.13205,-1.18818c0,0 -0.42472,-0.93033 -1.60762,-1.63254c-0.84094,-0.49921 -2.09641,-0.84898 -3.05492,-0.81214c-1.12273,0.04824 -2.08561,0.33673 -2.90855,0.81336c-1.23336,0.71434 -1.72018,1.72794 -1.72018,1.72794c0,0 0.33074,0.97437 0.32657,0.9721c-0.88817,-0.48123 -1.44375,-0.88787 -1.84743,-1.38616c-1.11395,-1.09179 -1.39125,-3.18174 -1.20063,-4.62798c0.27786,-2.10816 1.51972,-4.21957 3.41291,-5.42594c1.37547,-0.87647 2.90537,-1.13847 3.99811,-1.13847c1.29829,0 3.27241,0.41192 4.82654,1.61742c1.55437,1.20569 2.13294,3.17903 2.515,4.99908c0.17288,1.81182 -0.13164,3.57568 -1.10763,4.60866c0,0 -1.05634,1.20078 -1.76422,1.47284z" fill="url(#color-7)" stroke="#000000" stroke-width="4"/><g fill="none" stroke="none" stroke-width="1" font-family="sans-serif" font-weight="normal" font-size="12" text-anchor="start"><g/><g/></g><g stroke="#000000" stroke-width="4"><g><path d="M242.76796,189.86467v-1.48809c0,0 0.02924,-0.38766 0.4648,-0.38702c0.46888,0.0007 0.48698,0.38702 0.48698,0.38702v1.48809c0,0 -0.00536,0.43167 -0.47954,0.43167c-0.45312,0 -0.47224,-0.43167 -0.47224,-0.43167z" fill="url(#color-8)"/><path d="M243.63326,188.63056c0,0.26424 -0.17642,0.47845 -0.39402,0.47845c-0.21761,0 -0.39402,-0.21421 -0.39402,-0.47845c0,-0.26424 0.17642,-0.47845 0.39402,-0.47845c0.21761,0 0.39402,0.21421 0.39402,0.47845z" fill="url(#color-9)"/><path d="M243.53694,188.63056c0,0.19965 -0.1333,0.3615 -0.29771,0.3615c-0.16442,0 -0.29771,-0.16186 -0.29771,-0.3615c0,-0.19965 0.13329,-0.3615 0.29771,-0.3615c0.16442,0 0.29771,0.16185 0.29771,0.3615z" fill="#ffffff"/></g><g><path d="M245.80704,189.86467v-1.48809c0,0 0.02924,-0.38766 0.46479,-0.38702c0.46888,0.0007 0.48698,0.38702 0.48698,0.38702v1.48809c0,0 -0.00536,0.43167 -0.47954,0.43167c-0.45312,0 -0.47224,-0.43167 -0.47224,-0.43167z" fill="url(#color-10)"/><path d="M246.67234,188.63056c0,0.26424 -0.17642,0.47845 -0.39402,0.47845c-0.21761,0 -0.39402,-0.21421 -0.39402,-0.47845c0,-0.26424 0.17641,-0.47845 0.39402,-0.47845c0.21761,0 0.39402,0.21421 0.39402,0.47845z" fill="url(#color-11)"/><path d="M246.57601,188.63056c0,0.19965 -0.13329,0.3615 -0.29771,0.3615c-0.16442,0 -0.29771,-0.16186 -0.29771,-0.3615c0,-0.19965 0.13329,-0.3615 0.29771,-0.3615c0.16442,0 0.29771,0.16185 0.29771,0.3615z" fill="#ffffff"/></g></g><path d="M248.16818,181.82085c0,1.5154 -1.53948,2.84805 -3.4385,2.84805c-1.89902,0 -3.4385,-1.33265 -3.4385,-2.84805c0,-1.5154 1.53948,-2.63966 3.4385,-2.63966c1.89902,0 3.4385,1.12426 3.4385,2.63966z" fill="#ffffff" stroke="#000000" stroke-width="4"/><path d="M238.4084,184.35631c0,1.17011 -0.04869,3.82056 -0.72938,3.82056c-0.19736,0 -0.5828,-1.33807 -0.41669,-2.80938c0.17295,-1.53181 1.05602,-3.2663 1.11134,-3.19931c0.40283,0.13893 0.03473,1.01802 0.03473,2.18814z" fill="#ffffff" stroke="#000000" stroke-width="4"/><path d="M251.06011,184.35631c0,-1.17011 -0.3681,-2.04921 0.03473,-2.18814c0.12478,-0.06699 0.93838,1.6675 1.11133,3.19931c0.16611,1.47132 -0.21933,2.80938 -0.41668,2.80938c-0.68069,0 -0.72938,-2.65045 -0.72938,-3.82056z" data-paper-data="{&quot;index&quot;:null}" fill="#ffffff" stroke="#000000" stroke-width="4"/></g><g><path d="M249.09977,188.22755c0.29359,0.34871 0.69971,1.95552 0.12874,2.98686c-1.01272,1.82924 -3.82157,1.68172 -4.42068,1.68172c-2.90155,0 -3.89437,-0.63868 -4.46745,-1.86253c-0.26139,-0.55819 -0.73012,-2.35976 0.127,-3.38906c0.95344,-1.14499 3.30632,-1.33888 4.34045,-1.33888c1.10966,0 3.37217,0.82948 4.29194,1.92189z" fill="url(#color-12)" stroke="none" stroke-width="0"/><path d="M249.2285,191.21441c-1.01272,1.82924 -3.82157,1.68172 -4.42068,1.68172c-2.90155,0 -3.89437,-0.63868 -4.46745,-1.86253c-0.26139,-0.55819 -0.73012,-2.35976 0.127,-3.38906c0.95344,-1.14499 3.30632,-1.33888 4.34045,-1.33888c1.10966,0 3.37217,0.82948 4.29194,1.92189c0,0 0.69971,1.95552 0.12874,2.98686z" fill="url(#color-13)" stroke="none" stroke-width="0"/><path d="M250.98964,189.76815c-0.50617,0.53572 -1.05632,1.20078 -1.76419,1.47284c-0.03018,0.0116 0.13204,-1.18817 0.13204,-1.18817c0,0 -0.42472,-0.93033 -1.60762,-1.63255c-0.84094,-0.49921 -2.0964,-0.84898 -3.05492,-0.81215c-1.12274,0.04823 -2.08561,0.33672 -2.90855,0.81336c-1.23337,0.71433 -1.72018,1.72794 -1.72018,1.72794c0,0 0.33073,0.97437 0.32656,0.9721c-0.88817,-0.48123 -1.44375,-0.88787 -1.84743,-1.38615c-1.11395,-1.09179 -1.39125,-3.18173 -1.20063,-4.62798c0.27786,-2.10816 1.51972,-4.21958 3.41291,-5.42594c1.37546,-0.87647 2.90536,-1.13847 3.99811,-1.13847c1.29829,0 3.27241,0.41192 4.82654,1.61743c1.55437,1.20569 2.13295,3.17903 2.51501,4.99909c0.17288,1.81182 -0.13165,3.57568 -1.10764,4.60866z" fill="url(#color-14)" stroke="none" stroke-width="0"/><path d="M250.98964,189.76815c-0.50617,0.53572 -1.07369,1.21815 -1.78156,1.49021c-0.03018,0.0116 0.14941,-1.20554 0.14941,-1.20554c0,0 -0.42472,-0.93033 -1.60762,-1.63255c-0.84094,-0.49921 -2.0964,-0.79688 -3.05492,-0.76005c-1.12274,0.04823 -2.08561,0.28462 -2.90855,0.76126c-1.23337,0.71433 -1.72018,1.72794 -1.72018,1.72794c0,0 0.3481,0.97437 0.34392,0.9721c-0.88817,-0.48123 -1.46112,-0.88787 -1.8648,-1.38615c-1.11395,-1.09179 -1.51322,-3.16922 -1.25273,-4.62798c0.3706,-2.07533 1.46763,-4.21958 3.36081,-5.42594c1.37546,-0.87647 3.00956,-1.13847 4.1023,-1.13847c1.29829,0 3.30715,0.41192 4.86127,1.61743c1.55437,1.20569 2.18205,3.21657 2.54974,4.99909c0.36469,1.76795 -0.20112,3.57568 -1.1771,4.60866z" fill="url(#color-15)" stroke="none" stroke-width="0"/><g fill="none" stroke="none" stroke-width="1" font-family="sans-serif" font-weight="normal" font-size="12" text-anchor="start"><g/><g/></g><g stroke-width="0"><g><path d="M242.76795,189.86467v-1.48809c0,0 0.02924,-0.38767 0.4648,-0.38702c0.46888,0.0007 0.48698,0.38702 0.48698,0.38702v1.48809c0,0 -0.00536,0.43167 -0.47954,0.43167c-0.45312,0 -0.47225,-0.43167 -0.47225,-0.43167z" fill="url(#color-16)" stroke="url(#color-17)"/><path d="M243.63325,188.63056c0,0.26424 -0.17641,0.47846 -0.39402,0.47846c-0.21761,0 -0.39402,-0.21421 -0.39402,-0.47846c0,-0.26424 0.17641,-0.47846 0.39402,-0.47846c0.21761,0 0.39402,0.21421 0.39402,0.47846z" fill="url(#color-18)" stroke="none"/><path d="M243.53694,188.63056c0,0.19965 -0.13329,0.3615 -0.29771,0.3615c-0.16442,0 -0.29771,-0.16185 -0.29771,-0.3615c0,-0.19965 0.13329,-0.3615 0.29771,-0.3615c0.16442,0 0.29771,0.16185 0.29771,0.3615z" fill="#ffffff" stroke="none"/></g><g><path d="M245.80703,189.86467v-1.48809c0,0 0.02924,-0.38767 0.4648,-0.38702c0.46888,0.0007 0.48698,0.38702 0.48698,0.38702v1.48809c0,0 -0.00536,0.43167 -0.47954,0.43167c-0.45312,0 -0.47225,-0.43167 -0.47225,-0.43167z" fill="url(#color-19)" stroke="url(#color-20)"/><path d="M246.67233,188.63056c0,0.26424 -0.17641,0.47846 -0.39402,0.47846c-0.21761,0 -0.39402,-0.21421 -0.39402,-0.47846c0,-0.26424 0.17641,-0.47846 0.39402,-0.47846c0.21761,0 0.39402,0.21421 0.39402,0.47846z" fill="url(#color-21)" stroke="none"/><path d="M246.57601,188.63056c0,0.19965 -0.13329,0.3615 -0.29771,0.3615c-0.16442,0 -0.29771,-0.16185 -0.29771,-0.3615c0,-0.19965 0.13329,-0.3615 0.29771,-0.3615c0.16442,0 0.29771,0.16185 0.29771,0.3615z" fill="#ffffff" stroke="none"/></g></g><path d="M248.16818,181.82085c0,1.51539 -1.53947,2.84805 -3.4385,2.84805c-1.89903,0 -3.4385,-1.33266 -3.4385,-2.84805c0,-1.51539 1.53947,-2.63966 3.4385,-2.63966c1.89903,0 3.4385,1.12427 3.4385,2.63966z" fill="#ffffff" stroke="none" stroke-width="0"/><path d="M238.4084,184.35631c0,1.17011 -0.04869,3.82056 -0.72938,3.82056c-0.19736,0 -0.5828,-1.33807 -0.41669,-2.80938c0.17295,-1.53182 1.05602,-3.2663 1.11134,-3.19931c0.40283,0.13893 0.03473,1.01803 0.03473,2.18814z" fill="#ffffff" stroke="none" stroke-width="0"/><path d="M251.06011,184.35631c0,-1.17011 -0.3681,-2.04921 0.03473,-2.18814c0.12478,-0.06699 0.93839,1.66749 1.11134,3.19931c0.16612,1.47132 -0.21933,2.80938 -0.41669,2.80938c-0.68069,0 -0.72938,-2.65045 -0.72938,-3.82056z" data-paper-data="{&quot;index&quot;:null}" fill="#ffffff" stroke="none" stroke-width="0"/></g></g></g></g></svg>