<svg version="1.1" xmlns="http://www.w3.org/2000/svg" xmlns:xlink="http://www.w3.org/1999/xlink" width="96.65128" height="125.68017" viewBox="0,0,96.65128,125.68017"><g transform="translate(-160.72321,-86.33059)"><g data-paper-data="{&quot;isPaintingLayer&quot;:true}" fill-rule="nonzero" stroke="none" stroke-width="0.5" stroke-linecap="butt" stroke-linejoin="miter" stroke-miterlimit="10" stroke-dasharray="" stroke-dashoffset="0" style="mix-blend-mode: normal"><path d="M198.53413,122.98519c-3.57527,-0.59588 -2.9794,-4.17115 -2.9794,-4.17115c1.02965,-6.0156 2.81126,-11.84619 4.42162,-17.73246c0.50991,-1.86387 1.23068,-8.12372 2.47928,-8.96808c1.57586,-1.06566 13.80814,-2.47497 16.38582,-2.80913c4.79269,-0.62127 9.57397,-1.33781 14.37806,-1.86382c2.89538,-0.31702 5.93316,-1.71608 8.70064,-0.80788c7.19386,2.36081 8.04136,7.77416 10.26869,13.64499c2.83476,7.47185 2.28665,14.84417 1.35077,22.70144c-2.46546,0.98451 -4.74179,2.9239 -7.39639,2.95353c-8.51805,0.09508 -6.83174,-6.66728 -8.44227,-12.01414c-0.75061,-2.49195 -2.14731,-4.75777 -2.89968,-7.24918c-0.53123,-1.75919 0.63812,-4.49086 -0.94013,-5.43218c-3.42304,-2.04164 -8.01277,3.02718 -10.23618,4.50757c-1.10176,0.73357 -2.36499,1.21982 -3.41645,2.02381c-1.49007,1.13936 -3.36069,2.28233 -3.86645,4.08863c-0.85761,3.06285 -0.32437,7.17942 -2.85638,9.10439c-1.5101,1.14805 -3.77109,0.41545 -5.65663,0.62318h-3.62459v0c-0.6799,0 -1.31607,-0.1872 -1.85979,-0.51286c-0.48107,1.00011 -1.55057,2.29005 -3.81051,1.91339z" fill="#9966ff"/><path d="M232.68462,131.42361l-2.14058,3.56763c-0.62608,1.08582 -1.79879,1.81672 -3.14224,1.81672c-1.78167,0 -3.2631,-1.2855 -3.56736,-2.97958l-0.71175,-3.55875c0,0 -0.13508,-0.67538 0.00694,-1.4962c-1.2196,-0.26443 -2.36225,-0.65501 -3.37387,-1.17021c-0.33951,-0.17291 -5.70531,-6.93802 -6.05806,-7.37887c0,0 -2.26427,-2.83032 0.56606,-5.09459c0.55999,-0.448 1.09781,-0.69656 1.60034,-0.80705c-0.81309,-1.00568 -1.7094,-1.97646 -1.50171,-3.14383c1.01827,-5.72356 4.60515,-4.7922 7.7122,-7.50909c2.8067,-2.45427 1.95151,-5.91682 7.50195,-6.00741c4.31821,-0.07047 10.37296,7.83081 11.46717,11.35609c0.63092,2.03267 0.74323,11.382 -0.14439,13.22836c-1.44096,2.9974 -4.41157,5.00866 -7.83136,6.0634c0.54499,1.56614 -0.38335,3.11338 -0.38335,3.11338zM229.57656,104.91156c-0.27058,-0.05504 -0.22061,0.36741 -0.24491,0.73307c0.08093,-0.00539 0.1626,-0.00815 0.24491,-0.00815c0.11834,0 0.23533,0.00567 0.35075,0.01676c-0.04603,-0.33945 -0.06793,-0.68415 -0.35075,-0.74168zM226.02106,121.85515c0.29278,0.01838 0.59789,0.02972 0.9109,0.03345c-0.1581,-0.16862 -0.30026,-0.35236 -0.42408,-0.54884c-0.19993,0.21457 -0.36555,0.39012 -0.48682,0.51538z" fill="#ffeab8"/><path d="M237.48027,118.69908c0.71084,3.5542 -2.84336,4.26504 -2.84336,4.26504l-3.62459,0.72492c-3.07432,0.51391 -6.37825,0.15525 -9.30616,-0.91377c0,0 -3.36535,-1.34615 -2.01922,-4.71148c1.34615,-3.36535 4.71148,-2.01922 4.71148,-2.01922c1.57951,0.72974 3.50798,0.97285 5.1922,0.53606l3.62459,-0.72492c0,0 3.5542,-0.71084 4.26504,2.84336z" fill="#000000"/><path d="M220.87755,107.81124c0,-2.0018 1.62278,-3.62459 3.62459,-3.62459c2.0018,0 3.62459,1.62278 3.62459,3.62459c0,2.0018 -1.62278,3.62459 -3.62459,3.62459c-2.0018,0 -3.62459,-1.62278 -3.62459,-3.62459z" fill="#000000"/><path d="M231.0264,107.08632c0,-2.0018 1.62278,-3.62459 3.62459,-3.62459c2.0018,0 3.62459,1.62278 3.62459,3.62459c0,2.0018 -1.62278,3.62459 -3.62459,3.62459c-2.0018,0 -3.62459,-1.62278 -3.62459,-3.62459z" fill="#000000"/><path d="M248.30756,139.29245l0.5261,0.38555c0.12667,0.5752 0.31463,1.14431 0.53084,1.71005c0.33871,0.68641 0.64229,1.39557 0.90332,2.12027c3.3388,1.04168 2.36664,4.44423 2.36664,4.44423l-0.89714,2.88626l0.22662,1.13309c0.0557,0.25253 0.08507,0.51495 0.08507,0.78423c0,0.60312 -0.14731,1.17184 -0.40791,1.67214c0.01113,0.19283 0.01861,0.38606 0.02275,0.57964l0.31478,-0.06295l0.71025,3.5512c0.0557,0.25253 0.08507,0.51495 0.08507,0.78423c0,2.0018 -1.62278,3.62459 -3.62459,3.62459c-1.00091,0 -1.90705,-0.40569 -2.56298,-1.06161l-0.08389,-0.08389c0.18259,1.22727 0.33944,2.45622 0.45447,3.68802c0.1348,1.44355 -0.01876,2.89979 0,4.34951c0.02585,1.99778 1.36357,4.41769 0.1338,5.9923c-3.8055,4.87267 -13.77505,0.96004 -18.53808,0.15184c-1.33702,-0.01768 -2.71047,0.25739 -4.01107,-0.05305c-1.80539,-0.43092 -3.68799,-0.9809 -5.14394,-2.13213c-7.85318,-6.20954 -1.3942,-15.29991 -0.67725,-22.80684c0.14429,-1.51073 -0.06535,-3.12018 -0.30313,-4.71728c-0.70156,0 -1.42299,0 -2.12798,0c-0.8074,2.17475 -3.38586,2.17475 -3.38586,2.17475l-1.43576,-0.07039c-0.16459,-0.03382 -0.33084,-0.06145 -0.4985,-0.08384c-1.65139,2.27518 -3.51471,4.20725 -6.10658,4.44349c-8.71421,0.79426 -13.65172,-6.24398 -9.48348,-13.53372c3.75496,-6.56698 13.51481,-9.49854 20.42398,-9.60338c0,0 1.94613,0 2.98633,1.42603c1.51239,-0.22672 2.81302,0.74872 2.81302,0.74872c3.37438,2.63956 5.92126,2.90907 10.14885,2.89968c2.11037,-0.00469 5.87488,-0.20001 8.26621,0.77256c0.4851,-0.05009 0.98176,-0.15264 1.48041,-0.2643c0.54202,-0.32282 1.1754,-0.50826 1.85208,-0.50826c0.24553,0 0.48536,0.02441 0.71719,0.07094c0.60839,-0.0157 1.19306,0.07648 1.73414,0.36662c1.16905,0.62685 1.65986,1.95079 2.14736,3.27765l0.47574,0.6343l-0.1852,0.1389c0.02251,0.05723 0.04528,0.11419 0.06834,0.17085z" fill="#9966ff"/><path d="M251.3241,168.70434c-1.04076,0 -1.78269,-0.29884 -2.31158,-0.72492c-0.71232,0 -1.31301,0 -1.31301,0c-2.0018,0 -3.62459,-1.62278 -3.62459,-3.62459c0,-2.0018 1.62278,-3.62459 3.62459,-3.62459h3.62459c0,0 3.62459,0 3.62459,3.62459c0,0.23898 -0.01576,0.46219 -0.04519,0.67069l0.04519,0.05422c0,0 0,3.62459 -3.62459,3.62459z" fill="#ffeab8"/><path d="M198.11508,149.47033l1.4806,1.21476c0.29034,2.42955 2.51998,5.48087 0.87105,7.28865c-4.06504,4.45663 -13.67031,-2.57477 -14.38385,-5.84194c-0.1813,-0.83015 5.65784,-6.53053 6.85956,-7.73796c0,0 2.56298,-2.56298 5.12594,0c2.35459,2.35459 0.38287,4.70919 0.0467,5.0765z" fill="#ffeab8"/><path d="M197.68018,156.38074c0,-2.0018 1.62278,-3.62459 3.62459,-3.62459c2.0018,0 3.62459,1.62278 3.62459,3.62459c0,2.0018 -1.62278,3.62459 -3.62459,3.62459c-2.0018,0 -3.62459,-1.62278 -3.62459,-3.62459z" fill="#825b00"/><path d="M179.41158,136.19823c2.78448,-2.3204 5.10489,0.46408 5.10489,0.46408c1.54693,1.85632 5.70225,6.84269 7.24918,8.69902c0,0 2.3204,2.78448 -0.46408,5.10489c-2.78448,2.3204 -5.10489,-0.46408 -5.10489,-0.46408c-1.54693,-1.85632 -3.09387,-3.71265 -4.64081,-5.56898l-2.60837,-3.13004c0,0 -2.3204,-2.78448 0.46408,-5.10489z" fill="#825b00"/><path d="M182.74868,135.0667c0.1424,0.08491 0.28685,0.1817 0.43312,0.29141c2.89968,2.17475 0.72492,5.07442 0.72492,5.07442c-0.72492,0.96656 -1.44983,1.93311 -2.17475,2.89968l-2.14944,2.86592c-0.65956,0.89954 -1.72406,1.48358 -2.92498,1.48358c-1.78167,0 -3.2631,-1.2855 -3.56736,-2.97958l-0.71175,-3.55875l0.69244,-0.13849c-0.02436,-0.08724 -0.04758,-0.17467 -0.06959,-0.2623c-3.94612,0.14747 -10.67172,-1.02988 -11.09653,-2.14881c-3.85839,-10.16271 2.69072,-7.12152 5.95205,-8.8923c0.23295,-0.12648 -0.34252,-0.40588 -0.49167,-0.62501c-0.61177,-0.89894 -1.19315,-1.81818 -1.78974,-2.72727l-2.1441,-3.57351c-0.3468,-0.55585 -0.54718,-1.21248 -0.54718,-1.91591c0,-2.0018 1.62278,-3.62459 3.62459,-3.62459c0.50492,0 0.98573,0.10325 1.42247,0.28976l3.54827,1.4193l-0.02266,0.05666c0.09588,0.01949 0.1916,0.04 0.28715,0.06161c1.36945,0.30963 2.3809,1.59474 3.6937,2.05071l1.99327,-2.49158c0.66362,-0.84424 1.69411,-1.38648 2.85124,-1.38648c2.0018,0 3.62459,1.62278 3.62459,3.62459c0,0.50492 -0.10325,0.98573 -0.28976,1.42247l-0.59027,1.47567c0.98064,-0.45359 1.97484,-0.88177 2.94695,-1.35134l0.83276,0.26816v-0.36512h3.62459c2.0018,0 3.62459,1.62278 3.62459,3.62459c0,1.34343 -0.73089,2.51616 -1.81672,3.14224l-3.56763,2.14058l-0.13564,-0.22608c-1.12098,1.11304 -2.29142,2.1721 -3.52885,3.14936z" fill="#fffc00"/><path d="M225.66024,198.60686c1.62096,-3.01839 4.86289,-1.50918 4.86289,-1.50918c4.82614,2.25041 8.78076,3.97776 14.36671,3.07928c3.87741,-0.62368 5.40812,-4.03094 10.23256,-0.64585c1.90604,1.33738 3.13404,10.62388 1.4698,11.95349c-1.76046,1.40647 -4.618,-0.42153 -6.91916,-0.69443c-7.51109,-0.89079 -15.79683,-0.30037 -22.84193,-2.81628l-0.7217,-0.52851c-0.8734,0.68056 -2.0719,1.36232 -3.65465,2.03613c-1.46354,0.62308 -3.17923,-0.48992 -4.78353,-0.60775c-6.16067,-0.45249 -12.18467,0.50472 -18.32007,-0.6982c-2.1339,-0.41838 -4.95633,0.00146 -6.31654,-1.58549c-5.40157,-6.30197 -0.6547,-9.00195 4.73555,-10.46268c3.90696,-1.05878 8.83718,0.5917 12.87692,0.61391c1.24589,-0.88598 2.90274,-0.62887 2.90274,-0.62887l4.62734,0.72852c2.29923,0.74957 5.02515,1.93721 7.0292,3.38532c0.00188,-0.4803 0.13202,-1.02009 0.45386,-1.61936z" fill="#005e75"/><path d="M210.71691,193.65565c-1.09271,-0.01523 -1.97381,-0.90578 -1.97381,-2.0021c0,-0.89187 0.58312,-1.64756 1.3889,-1.9066l1.04474,-0.36308c-0.25406,-0.33566 -0.40478,-0.75387 -0.40478,-1.2073c0,-1.10584 0.89646,-2.0023 2.0023,-2.0023h0.797c0.05924,-0.15094 0.11425,-0.30316 0.16334,-0.45717c0.19063,-0.59811 0.36521,-1.18883 0.52434,-1.77481c-0.64269,-0.33329 -1.08181,-1.00468 -1.08181,-1.77864c0,-1.07358 0.84491,-1.94981 1.90605,-2.00003c0.21658,-1.32086 0.35905,-2.64688 0.4344,-4.00957c-0.76267,-0.68809 -1.5253,-1.37706 -2.43619,-1.82015c0,0 -1.79091,-0.89545 -0.89545,-2.68637c0.89545,-1.79091 2.68637,-0.89545 2.68637,-0.89545c0.71785,0.36666 1.49635,0.63668 2.18931,1.04299c0.15706,-0.03335 0.3308,-0.0518 0.52298,-0.0518c2.0023,0 2.0023,2.0023 2.0023,2.0023c0,0.19136 -0.00107,0.38192 -0.00322,0.57175c1.26767,0.6743 2.91695,-0.41798 4.33456,-0.14303c1.24445,0.24137 2.36472,0.95401 3.60774,1.20258c0.83174,0.16633 1.72215,-0.18025 2.54447,0.02771c0.03418,0.00864 0.06827,0.01754 0.10229,0.02669c0.18667,-0.05117 0.39892,-0.08026 0.64026,-0.08026c1.05592,0 1.55499,0.55684 1.79088,1.08321c1.08581,0.54248 2.1618,1.11194 3.34018,1.3478c1.60448,0.32115 3.31357,-0.51695 4.91548,-0.00501l-0.02302,-0.4237c0,0 0,-2.0023 2.0023,-2.0023c2.0023,0 2.0023,2.0023 2.0023,2.0023l-0.09912,0.58039c0.33736,1.05452 0.67471,2.10903 1.01207,3.16355c2.11044,2.41235 2.19505,6.69221 0.15318,9.18306c-0.00536,0.06237 -0.01098,0.11306 -0.01688,0.15089c-0.02315,0.14854 -0.04236,0.30049 -0.05892,0.45495c0.1358,0.27012 0.21225,0.57521 0.21225,0.89815c0,0.43872 -0.1411,0.84449 -0.3804,1.1744c-0.11694,1.07879 -0.3635,2.09256 -1.13402,2.75909c-0.63051,0.54542 -5.99667,0.47398 -7.70339,0.47398c-2.21454,0 -4.61042,0.14851 -7.04525,0.26018c-0.56076,0.24285 -1.16741,0.43711 -1.67996,0.73102c0,0 -1.58914,0.79457 -2.522,-0.61018c-2.82073,0.00976 -5.58398,-0.17296 -8.06772,-0.83711c-1.7231,-0.46075 -3.96091,-0.18406 -5.12618,-1.53443c-0.13891,-0.16098 -0.24685,-0.33663 -0.32909,-0.52383zM233.21011,186.57113h-0.35484c-0.01433,0.37574 -0.03496,0.75089 -0.06367,1.12528c0.11387,-0.38143 0.25318,-0.76043 0.41851,-1.12528z" fill="#00caff"/></g></g></svg>