<svg version="1.1" xmlns="http://www.w3.org/2000/svg" xmlns:xlink="http://www.w3.org/1999/xlink" width="104.61709" height="116.04331" viewBox="0,0,104.61709,116.04331"><g transform="translate(-197.25475,-80.47333)"><g data-paper-data="{&quot;isPaintingLayer&quot;:true}" fill-rule="nonzero" stroke="none" stroke-width="0.5" stroke-linecap="butt" stroke-linejoin="miter" stroke-miterlimit="10" stroke-dasharray="" stroke-dashoffset="0" style="mix-blend-mode: normal"><path d="M233.65618,115.76153c-3.44199,-0.57367 -2.86833,-4.01566 -2.86833,-4.01566c0.99127,-5.79135 2.70647,-11.40459 4.2568,-17.07144c0.4909,-1.79438 1.1848,-7.82089 2.38686,-8.63377c1.51712,-1.02594 13.2934,-2.38271 15.77501,-2.70441c4.61403,-0.59811 9.21709,-1.28794 13.84209,-1.79435c2.78745,-0.30521 5.71199,-1.65212 8.3763,-0.77776c6.9257,2.27281 7.74159,7.48436 9.8859,13.13634c2.72909,7.19331 2.20141,14.29082 1.30041,21.85519c-2.37355,0.94781 -4.56503,2.8149 -7.12068,2.84343c-8.20052,0.09154 -6.57707,-6.41874 -8.12757,-11.56628c-0.72263,-2.39905 -2.06726,-4.58041 -2.79158,-6.97895c-0.51143,-1.69361 0.61433,-4.32346 -0.90509,-5.22969c-3.29543,-1.96553 -7.71407,2.91434 -9.8546,4.33954c-1.06069,0.70623 -2.27683,1.17435 -3.28909,1.94837c-1.43453,1.0969 -3.23541,2.19725 -3.72232,3.93621c-0.82564,2.94868 -0.31228,6.91179 -2.7499,8.765c-1.45381,1.10526 -3.63052,0.39996 -5.44577,0.59995h-3.48948v0c-0.65456,0 -1.26702,-0.18023 -1.79046,-0.49375c-0.46314,0.96283 -1.49277,2.20467 -3.66845,1.84207z" fill="#c4a6ff"/><path d="M266.53363,123.8854l-2.06079,3.43464c-0.60275,1.04535 -1.73175,1.749 -3.02511,1.749c-1.71526,0 -3.14146,-1.23758 -3.43439,-2.86852l-0.68522,-3.42609c0,0 -0.13005,-0.6502 0.00669,-1.44043c-1.17414,-0.25458 -2.27419,-0.63059 -3.2481,-1.12658c-0.32685,-0.16646 -5.49263,-6.67938 -5.83223,-7.1038c0,0 -2.17986,-2.72482 0.54495,-4.90468c0.53911,-0.4313 1.05689,-0.6706 1.54069,-0.77697c-0.78277,-0.96819 -1.64568,-1.90278 -1.44573,-3.02663c0.98031,-5.5102 4.43349,-4.61356 7.42471,-7.22917c2.70209,-2.36278 1.87876,-5.69626 7.22231,-5.78347c4.15723,-0.06785 9.98629,7.5389 11.03971,10.93276c0.60741,1.95689 0.71553,10.95771 -0.13901,12.73524c-1.38725,2.88567 -4.24712,4.82195 -7.53943,5.83737c0.52468,1.50776 -0.36906,2.99732 -0.36906,2.99732zM263.54143,98.36165c-0.26049,-0.05298 -0.21238,0.3537 -0.23578,0.70574c0.07791,-0.00519 0.15654,-0.00785 0.23578,-0.00785c0.11393,0 0.22657,0.00545 0.33768,0.01613c-0.04431,-0.32679 -0.06539,-0.65865 -0.33768,-0.71403zM260.11847,114.67361c0.28186,0.0177 0.57559,0.02861 0.87695,0.0322c-0.15221,-0.16233 -0.28907,-0.33924 -0.40827,-0.52837c-0.19248,0.20658 -0.35192,0.37558 -0.46866,0.49618z" fill="#ffeab8"/><path d="M271.15051,111.63521c0.68434,3.42171 -2.73736,4.10605 -2.73736,4.10605l-3.48948,0.6979c-2.95972,0.49475 -6.14049,0.14946 -8.95926,-0.87971c0,0 -3.23989,-1.29597 -1.94395,-4.53586c1.29597,-3.23989 4.53586,-1.94395 4.53586,-1.94395c1.52063,0.70254 3.37721,0.93659 4.99864,0.51608l3.48948,-0.6979c0,0 3.42171,-0.68434 4.10605,2.73736z" fill="#000000"/><path d="M255.1667,101.15323c0,-1.92718 1.5623,-3.48948 3.48948,-3.48948c1.92718,0 3.48948,1.5623 3.48948,3.48948c0,1.92718 -1.5623,3.48948 -3.48948,3.48948c-1.92718,0 -3.48948,-1.5623 -3.48948,-3.48948z" fill="#000000"/><path d="M264.93722,100.45533c0,-1.92718 1.5623,-3.48948 3.48948,-3.48948c1.92718,0 3.48948,1.5623 3.48948,3.48948c0,1.92718 -1.5623,3.48948 -3.48948,3.48948c-1.92718,0 -3.48948,-1.5623 -3.48948,-3.48948z" fill="#000000"/><path d="M281.57418,131.46089l0.50649,0.37118c0.12195,0.55376 0.3029,1.10165 0.51106,1.64631c0.32608,0.66083 0.61835,1.34355 0.86965,2.04123c3.21434,1.00284 2.27842,4.27856 2.27842,4.27856l-0.8637,2.77867l0.21818,1.09085c0.05362,0.24312 0.08189,0.49576 0.08189,0.755c0,0.58064 -0.14181,1.12816 -0.3927,1.6098c0.01072,0.18564 0.01791,0.37167 0.0219,0.55804l0.30304,-0.0606l0.68377,3.41882c0.05362,0.24312 0.08189,0.49576 0.08189,0.755c0,1.92718 -1.5623,3.48948 -3.48948,3.48948c-0.9636,0 -1.83597,-0.39057 -2.46744,-1.02204l-0.08076,-0.08076c0.17578,1.18152 0.32678,2.36466 0.43753,3.55054c0.12978,1.38975 -0.01807,2.79169 0,4.18737c0.02488,1.9233 1.31274,4.25301 0.12882,5.76892c-3.66364,4.69103 -13.26155,0.92425 -17.84703,0.14618c-1.28718,-0.01703 -2.60943,0.24779 -3.86155,-0.05108c-1.73809,-0.41486 -3.55051,-0.94433 -4.95219,-2.05265c-7.56043,-5.97807 -1.34223,-14.72957 -0.652,-21.95667c0.13891,-1.45441 -0.06291,-3.00386 -0.29183,-4.54143c-0.67541,0 -1.36994,0 -2.04866,0c-0.7773,2.09369 -3.25964,2.09369 -3.25964,2.09369l-1.38224,-0.06777c-0.15845,-0.03256 -0.31851,-0.05916 -0.47992,-0.08072c-1.58983,2.19037 -3.38368,4.05041 -5.87894,4.27784c-8.38937,0.76466 -13.14281,-6.01122 -9.12996,-13.02922c3.61498,-6.32219 13.01102,-9.14446 19.66263,-9.24539c0,0 1.87358,0 2.87501,1.37287c1.45602,-0.21827 2.70816,0.72081 2.70816,0.72081c3.24859,2.54116 5.70053,2.80062 9.77053,2.79158c2.03169,-0.00451 5.65588,-0.19255 7.95806,0.74376c0.46702,-0.04823 0.94516,-0.14695 1.42523,-0.25445c0.52182,-0.31078 1.13158,-0.48931 1.78304,-0.48931c0.23638,0 0.46727,0.0235 0.69045,0.0683c0.58572,-0.01511 1.14858,0.07363 1.66949,0.35296c1.12547,0.60348 1.59799,1.87806 2.06732,3.15546l0.458,0.61066l-0.17829,0.13372c0.02168,0.05509 0.04359,0.10993 0.0658,0.16448z" fill="#c4a6ff"/><path d="M284.47828,159.7764c-1.00197,0 -1.71623,-0.2877 -2.2254,-0.6979c-0.68577,0 -1.26407,0 -1.26407,0c-1.92718,0 -3.48948,-1.5623 -3.48948,-3.48948c0,-1.92718 1.5623,-3.48948 3.48948,-3.48948h3.48948c0,0 3.48948,0 3.48948,3.48948c0,0.23007 -0.01517,0.44496 -0.04351,0.64569l0.04351,0.05221c0,0 0,3.48948 -3.48948,3.48948z" fill="#ffeab8"/><path d="M233.25275,141.25937l1.42541,1.16947c0.27952,2.33898 2.42604,5.27656 0.83858,7.01694c-3.9135,4.29051 -13.16072,-2.4788 -13.84766,-5.62417c-0.17454,-0.7992 5.44693,-6.28708 6.60386,-7.44951c0,0 2.46744,-2.46744 4.93486,0c2.26682,2.26682 0.3686,4.53364 0.04496,4.88726z" fill="#ffeab8"/><path d="M232.83406,147.91219c0,-1.92718 1.5623,-3.48948 3.48948,-3.48948c1.92718,0 3.48948,1.5623 3.48948,3.48948c0,1.92718 -1.5623,3.48948 -3.48948,3.48948c-1.92718,0 -3.48948,-1.5623 -3.48948,-3.48948z" fill="#825b00"/><path d="M215.24647,128.48203c2.68069,-2.2339 4.91459,0.44678 4.91459,0.44678c1.48927,1.78713 5.48968,6.58761 6.97895,8.37474c0,0 2.2339,2.68069 -0.44678,4.91459c-2.68069,2.2339 -4.91459,-0.44678 -4.91459,-0.44678c-1.48927,-1.78713 -2.97854,-3.57425 -4.46781,-5.36138l-2.51114,-3.01335c0,0 -2.2339,-2.68069 0.44678,-4.91459z" fill="#825b00"/><path d="M218.45917,127.39268c0.13709,0.08174 0.27616,0.17493 0.41698,0.28056c2.79158,2.09369 0.6979,4.88527 0.6979,4.88527c-0.6979,0.93053 -1.39579,1.86105 -2.09369,2.79158l-2.06932,2.75908c-0.63497,0.866 -1.65979,1.42829 -2.81595,1.42829c-1.71526,0 -3.14146,-1.23758 -3.43439,-2.86852l-0.68522,-3.42609l0.66663,-0.13333c-0.02345,-0.08398 -0.04581,-0.16816 -0.067,-0.25253c-3.79902,0.14197 -10.2739,-0.99149 -10.68288,-2.06871c-3.71456,-9.78387 2.59042,-6.85605 5.73018,-8.56083c0.22426,-0.12177 -0.32975,-0.39075 -0.47334,-0.60171c-0.58897,-0.86543 -1.14868,-1.75041 -1.72302,-2.6256l-2.06418,-3.4403c-0.33387,-0.53513 -0.52679,-1.16729 -0.52679,-1.8445c0,-1.92718 1.5623,-3.48948 3.48948,-3.48948c0.4861,0 0.94899,0.09939 1.36944,0.27896l3.416,1.36639l-0.02182,0.05455c0.0923,0.01876 0.18445,0.03851 0.27645,0.0593c1.31841,0.29808 2.29215,1.5353 3.55601,1.97426l1.91896,-2.39871c0.63888,-0.81277 1.63095,-1.33479 2.74496,-1.33479c1.92718,0 3.48948,1.5623 3.48948,3.48948c0,0.4861 -0.09939,0.94899 -0.27896,1.36944l-0.56827,1.42066c0.94408,-0.43667 1.90122,-0.84891 2.8371,-1.30096l0.80171,0.25817v-0.3515h3.48948c1.92718,0 3.48948,1.5623 3.48948,3.48948c0,1.29335 -0.70364,2.42237 -1.749,3.02511l-3.43464,2.06079l-0.13059,-0.21766c-1.0792,1.07155 -2.206,2.09113 -3.39731,3.03196z" fill="#fffc00"/><path d="M254.52767,162.34517c1.27702,-0.51858 3.2884,0.45337 6.62897,4.26304c3.43839,3.92123 -0.6979,6.67313 -1.45565,9.78193c-1.29938,5.33094 3.91036,18.01789 -8.09151,14.62288c-2.38502,-0.67466 -4.28775,-2.96964 -5.2709,-5.24493c-0.77891,-1.80265 0.24719,-3.92125 0.46706,-5.87263c0.66818,-5.93061 -0.09973,-11.09314 2.87656,-16.38869c0,0 1.79532,-2.9922 4.78752,-1.19688c0.01953,0.01171 0.03885,0.02348 0.05797,0.0353z" fill="#00caff"/><path d="M277.09261,166.83058c4.03,1.44958 13.66839,4.8885 14.35147,10.17777c0.76398,5.91565 -4.66311,7.89748 -8.90069,7.98534c-5.8442,0.1212 -12.38244,-5.19774 -17.62215,-7.48516c0,0 -3.19725,-1.39785 -1.79938,-4.59512c1.39785,-3.19725 4.59512,-1.7994 4.59512,-1.7994c0.53173,0.23279 1.05755,0.47638 1.57889,0.72798c-0.6012,-1.55631 -0.01298,-3.36522 1.46784,-4.24962c0.50317,-0.30051 1.05147,-0.45967 1.59868,-0.48913l3.97765,-0.29782l0.02005,0.26788z" fill="#00caff"/><path d="M249.71834,186.90064c0.97739,-1.48995 2.95603,-1.48995 2.95603,-1.48995l3.37577,0.36839c1.29034,0.64615 2.47263,1.48092 3.57402,2.42951l0.29123,-0.48539l2.97055,1.78233c1.04535,0.60275 1.749,1.73175 1.749,3.02511c0,1.92718 -1.5623,3.48948 -3.48948,3.48948h-4.23555c-3.09693,0 -12.77516,1.23859 -15.07186,-0.19671c-0.33131,-0.20705 -0.63463,-0.44386 -0.91561,-0.70446l-0.10921,0.1365l-3.00022,-2.40018c-0.81277,-0.63888 -1.33479,-1.63095 -1.33479,-2.74496c0,-1.92718 1.5623,-3.48948 3.48948,-3.48948c0.18815,0 0.37283,0.01489 0.55291,0.04357l3.99172,0.57025c1.73832,-0.00297 3.47717,-0.13129 5.206,-0.33401z" fill="#005e75"/><path d="M276.81863,189.71004c0.54715,-1.96876 1.92678,-2.46425 2.97628,-2.53681c4.30255,-3.64194 8.82812,-6.81377 13.10097,-10.506l3.20733,-2.76639c1.45934,-1.25871 3.66275,-1.09607 4.92147,0.36327c1.02523,1.18864 1.10749,2.87093 0.31418,4.13428l-1.91755,3.21846l-0.11787,-0.07022c-0.06398,0.1773 -0.13277,0.35313 -0.20694,0.52736c-0.54704,1.28495 -2.09071,1.85217 -3.14297,2.77037c-3.69335,3.22288 -7.72016,5.83689 -11.39177,9.02658l-5.31544,0.13551c0,0 -3.36205,-0.93437 -2.42768,-4.29642z" fill="#005e75"/></g></g></svg>