<svg version="1.1" xmlns="http://www.w3.org/2000/svg" xmlns:xlink="http://www.w3.org/1999/xlink" width="99.65428" height="129.58511" viewBox="0,0,99.65428,129.58511"><g transform="translate(-160.72321,-82.42565)"><g data-paper-data="{&quot;isPaintingLayer&quot;:true}" fill-rule="nonzero" stroke="none" stroke-width="0.5" stroke-linecap="butt" stroke-linejoin="miter" stroke-miterlimit="10" stroke-dasharray="" stroke-dashoffset="0" style="mix-blend-mode: normal"><path d="M199.70894,120.21912c-3.68635,-0.6144 -3.07197,-4.30075 -3.07197,-4.30075c1.06165,-6.20251 2.89861,-12.21425 4.55901,-18.28342c0.52575,-1.92178 1.26892,-8.37612 2.55631,-9.24672c1.62482,-1.09877 14.23716,-2.55187 16.89494,-2.89641c4.9416,-0.64057 9.87144,-1.37938 14.8248,-1.92173c2.98534,-0.32687 6.11751,-1.7694 8.97097,-0.83298c7.41738,2.43416 8.29121,8.01571 10.58775,14.06894c2.92284,7.704 2.3577,15.30539 1.39274,23.40679c-2.54206,1.0151 -4.88912,3.01474 -7.6262,3.0453c-8.78271,0.09803 -7.04401,-6.87443 -8.70458,-12.38742c-0.77393,-2.56938 -2.21402,-4.9056 -2.98977,-7.47441c-0.54774,-1.81385 0.65794,-4.6304 -0.96934,-5.60097c-3.52939,-2.10508 -8.26173,3.12124 -10.55422,4.64762c-1.13599,0.75636 -2.43847,1.25772 -3.5226,2.08669c-1.53637,1.17477 -3.46511,2.35325 -3.98658,4.21566c-0.88426,3.15801 -0.33445,7.40249 -2.94513,9.38727c-1.55702,1.18373 -3.88826,0.42836 -5.83239,0.64254h-3.73721v0c-0.70103,0 -1.35696,-0.19302 -1.91758,-0.5288c-0.49602,1.03118 -1.59875,2.3612 -3.9289,1.97284z" fill="#c4a6ff"/><path d="M234.9205,128.91973l-2.20709,3.67847c-0.64553,1.11956 -1.85468,1.87317 -3.23987,1.87317c-1.83703,0 -3.36449,-1.32544 -3.6782,-3.07216l-0.73387,-3.66932c0,0 -0.13928,-0.69636 0.00716,-1.54269c-1.25749,-0.27265 -2.43565,-0.67536 -3.4787,-1.20657c-0.35006,-0.17828 -5.88257,-7.15359 -6.24628,-7.60813c0,0 -2.33462,-2.91826 0.58365,-5.25288c0.57739,-0.46192 1.13192,-0.7182 1.65007,-0.83212c-0.83835,-1.03692 -1.76252,-2.03787 -1.54837,-3.24151c1.0499,-5.90139 4.74824,-4.9411 7.95182,-7.7424c2.89391,-2.53052 2.01214,-6.10066 7.73504,-6.19406c4.45238,-0.07266 10.69526,8.07412 11.82346,11.70893c0.65053,2.09583 0.76632,11.73564 -0.14888,13.63937c-1.48573,3.09053 -4.54864,5.16428 -8.07468,6.25179c0.56193,1.6148 -0.39526,3.21011 -0.39526,3.21011zM231.71588,101.58394c-0.27899,-0.05675 -0.22746,0.37882 -0.25251,0.75584c0.08345,-0.00556 0.16765,-0.0084 0.25251,-0.0084c0.12201,0 0.24265,0.00585 0.36165,0.01728c-0.04746,-0.35 -0.07004,-0.7054 -0.36165,-0.76472zM228.0499,119.05397c0.30187,0.01895 0.61646,0.03065 0.9392,0.03449c-0.16301,-0.17386 -0.30959,-0.36331 -0.43726,-0.56589c-0.20615,0.22124 -0.37691,0.40224 -0.50194,0.5314z" fill="#ffeab8"/><path d="M239.86515,115.79984c0.73293,3.66463 -2.93171,4.39756 -2.93171,4.39756l-3.73721,0.74744c-3.16984,0.52988 -6.57642,0.16007 -9.59531,-0.94216c0,0 -3.46991,-1.38797 -2.08195,-4.85787c1.38797,-3.46991 4.85787,-2.08195 4.85787,-2.08195c1.62859,0.75242 3.61698,1.00308 5.35352,0.55272l3.73721,-0.74744c0,0 3.66463,-0.73293 4.39756,2.93171z" fill="#000000"/><path d="M222.74657,104.57371c0,-2.064 1.67321,-3.73721 3.73721,-3.73721c2.064,0 3.73721,1.67321 3.73721,3.73721c0,2.064 -1.67321,3.73721 -3.73721,3.73721c-2.064,0 -3.73721,-1.67321 -3.73721,-3.73721z" fill="#000000"/><path d="M233.21076,103.82626c0,-2.064 1.67321,-3.73721 3.73721,-3.73721c2.064,0 3.73721,1.67321 3.73721,3.73721c0,2.064 -1.67321,3.73721 -3.73721,3.73721c-2.064,0 -3.73721,-1.67321 -3.73721,-3.73721z" fill="#000000"/><path d="M251.02884,137.03306l0.54245,0.39753c0.13061,0.59308 0.3244,1.17987 0.54734,1.76318c0.34923,0.70774 0.66225,1.43893 0.93138,2.18615c3.44253,1.07404 2.44017,4.58231 2.44017,4.58231l-0.92502,2.97594l0.23366,1.1683c0.05743,0.26038 0.08771,0.53095 0.08771,0.8086c0,0.62186 -0.15188,1.20825 -0.42058,1.72409c0.01148,0.19882 0.01918,0.39805 0.02345,0.59765l0.32456,-0.06491l0.73232,3.66154c0.05743,0.26038 0.08771,0.53095 0.08771,0.8086c0,2.064 -1.67321,3.73721 -3.73721,3.73721c-1.03201,0 -1.96631,-0.4183 -2.64261,-1.0946l-0.08649,-0.08649c0.18827,1.26541 0.34998,2.53254 0.46859,3.80261c0.13899,1.48841 -0.01934,2.98989 0,4.48465c0.02666,2.05985 1.40594,4.55495 0.13796,6.17848c-3.92374,5.02407 -14.20305,0.98987 -19.11407,0.15656c-1.37857,-0.01823 -2.79468,0.26539 -4.1357,-0.0547c-1.86149,-0.44431 -3.80258,-1.01138 -5.30377,-2.19838c-8.09718,-6.40248 -1.43752,-15.77529 -0.69829,-23.51546c0.14877,-1.55767 -0.06738,-3.21712 -0.31255,-4.86384c-0.72336,0 -1.4672,0 -2.1941,0c-0.83249,2.24233 -3.49106,2.24233 -3.49106,2.24233l-1.48037,-0.07258c-0.1697,-0.03487 -0.34112,-0.06336 -0.51399,-0.08645c-1.7027,2.34587 -3.62391,4.33797 -6.29631,4.58155c-8.98497,0.81894 -14.07588,-6.43798 -9.77814,-13.95422c3.87163,-6.77102 13.93473,-9.79367 21.05857,-9.90176c0,0 2.0066,0 3.07911,1.47034c1.55938,-0.23377 2.90042,0.77199 2.90042,0.77199c3.47922,2.72157 6.10523,2.99946 10.46418,2.98977c2.17594,-0.00483 6.05741,-0.20622 8.52304,0.79656c0.50017,-0.05165 1.01226,-0.15738 1.52641,-0.27252c0.55886,-0.33285 1.21192,-0.52405 1.90962,-0.52405c0.25316,0 0.50044,0.02517 0.73948,0.07314c0.6273,-0.01619 1.23013,0.07886 1.78802,0.37801c1.20537,0.64632 1.71143,2.0114 2.21408,3.37948l0.49052,0.65401l-0.19096,0.14321c0.02321,0.059 0.04668,0.11774 0.07047,0.17616z" fill="#c4a6ff"/><path d="M254.13912,167.35879c-1.0731,0 -1.83808,-0.30812 -2.3834,-0.74744c-0.73445,0 -1.35381,0 -1.35381,0c-2.064,0 -3.73721,-1.67321 -3.73721,-3.73721c0,-2.064 1.67321,-3.73721 3.73721,-3.73721h3.73721c0,0 3.73721,0 3.73721,3.73721c0,0.2464 -0.01625,0.47656 -0.04659,0.69153l0.04659,0.05591c0,0 0,3.73721 -3.73721,3.73721z" fill="#ffeab8"/><path d="M199.27687,147.52717l1.52661,1.2525c0.29936,2.50504 2.59827,5.65117 0.89811,7.51511c-4.19134,4.5951 -14.09506,-2.65477 -14.83077,-6.02345c-0.18694,-0.85594 5.83363,-6.73343 7.07269,-7.97838c0,0 2.64261,-2.64261 5.2852,0c2.42775,2.42775 0.39477,4.8555 0.04815,5.23423z" fill="#ffeab8"/><path d="M198.82845,154.65229c0,-2.064 1.67321,-3.73721 3.73721,-3.73721c2.064,0 3.73721,1.67321 3.73721,3.73721c0,2.064 -1.67321,3.73721 -3.73721,3.73721c-2.064,0 -3.73721,-1.67321 -3.73721,-3.73721z" fill="#825b00"/><path d="M179.99224,133.84269c2.87099,-2.3925 5.2635,0.4785 5.2635,0.4785c1.59499,1.914 5.87942,7.05529 7.47441,8.9693c0,0 2.3925,2.87099 -0.4785,5.2635c-2.87099,2.3925 -5.2635,-0.4785 -5.2635,-0.4785c-1.59499,-1.914 -3.19,-3.828 -4.785,-5.74201l-2.68942,-3.22729c0,0 -2.3925,-2.87099 0.4785,-5.2635z" fill="#825b00"/><path d="M183.43302,132.67601c0.14683,0.08754 0.29576,0.18735 0.44658,0.30047c2.98977,2.24233 0.74744,5.23209 0.74744,5.23209c-0.74744,0.99659 -1.49488,1.99317 -2.24233,2.98977l-2.21622,2.95496c-0.68005,0.92749 -1.77763,1.52968 -3.01587,1.52968c-1.83703,0 -3.36449,-1.32544 -3.6782,-3.07216l-0.73387,-3.66932l0.71396,-0.14279c-0.02511,-0.08995 -0.04906,-0.1801 -0.07175,-0.27045c-4.06873,0.15205 -11.00329,-1.06188 -11.44131,-2.21558c-3.97827,-10.47847 2.77433,-7.34279 6.13699,-9.16859c0.24019,-0.13041 -0.35316,-0.41849 -0.50695,-0.64443c-0.63078,-0.92688 -1.23023,-1.87468 -1.84534,-2.81201l-2.21072,-3.68454c-0.35757,-0.57313 -0.56418,-1.25015 -0.56418,-1.97544c0,-2.064 1.67321,-3.73721 3.73721,-3.73721c0.5206,0 1.01636,0.10645 1.46666,0.29877l3.65851,1.4634l-0.02336,0.05842c0.09886,0.02009 0.19755,0.04124 0.29608,0.06352c1.412,0.31925 2.45488,1.64429 3.80846,2.11442l2.0552,-2.569c0.68424,-0.87047 1.74674,-1.42956 2.93983,-1.42956c2.064,0 3.73721,1.67321 3.73721,3.73721c0,0.5206 -0.10645,1.01636 -0.29877,1.46666l-0.60861,1.52152c1.01111,-0.46768 2.0362,-0.90917 3.03852,-1.39332l0.85863,0.2765v-0.37646h3.73721c2.064,0 3.73721,1.67321 3.73721,3.73721c0,1.38517 -0.7536,2.59434 -1.87317,3.23987l-3.67847,2.20709l-0.13986,-0.23311c-1.15581,1.14762 -2.36262,2.23959 -3.6385,3.24721z" fill="#fffc00"/><path d="M227.67787,198.19039c1.67132,-3.11217 5.01398,-1.55607 5.01398,-1.55607c4.9761,2.32033 9.05358,4.10135 14.81309,3.17496c3.99789,-0.64305 5.57615,-4.15619 10.55049,-0.66592c1.96526,1.37893 3.23142,10.95397 1.51547,12.32489c-1.81516,1.45017 -4.76148,-0.43463 -7.13415,-0.71601c-7.74447,-0.91847 -16.28764,-0.3097 -23.55164,-2.90378l-0.74412,-0.54493c-0.90053,0.7017 -2.13628,1.40464 -3.7682,2.09939c-1.50901,0.64244 -3.27801,-0.50514 -4.93215,-0.62663c-6.35208,-0.46655 -12.56325,0.5204 -18.88928,-0.7199c-2.2002,-0.43138 -5.11033,0.0015 -6.5128,-1.63476c-5.56939,-6.49777 -0.67505,-9.28164 4.88269,-10.78776c4.02835,-1.09167 9.11176,0.61008 13.27701,0.63298c1.2846,-0.91351 2.99293,-0.64841 2.99293,-0.64841l4.77111,0.75115c2.37066,0.77285 5.18128,1.9974 7.2476,3.4905c0.00194,-0.49522 0.13613,-1.05179 0.46796,-1.66968z" fill="#005e75"/><path d="M212.27024,193.08535c-1.12666,-0.01571 -2.03514,-0.93392 -2.03514,-2.06431c0,-0.91958 0.60124,-1.69875 1.43205,-1.96584l1.0772,-0.37436c-0.26195,-0.34609 -0.41735,-0.7773 -0.41735,-1.24481c0,-1.1402 0.92432,-2.06451 2.06451,-2.06451h0.82176c0.06108,-0.15563 0.1178,-0.31258 0.16841,-0.47137c0.19655,-0.61669 0.37656,-1.22577 0.54063,-1.82995c-0.66266,-0.34364 -1.11542,-1.0359 -1.11542,-1.83391c0,-1.10693 0.87116,-2.01039 1.96528,-2.06217c0.22331,-1.3619 0.37021,-2.72912 0.44789,-4.13415c-0.78636,-0.70947 -1.57269,-1.41985 -2.51188,-1.8767c0,0 -1.84656,-0.92327 -0.92327,-2.76983c0.92327,-1.84656 2.76983,-0.92327 2.76983,-0.92327c0.74015,0.37805 1.54284,0.65646 2.25733,1.0754c0.16194,-0.03439 0.34107,-0.0534 0.53923,-0.0534c2.06451,0 2.06451,2.06451 2.06451,2.06451c0,0.1973 -0.0011,0.39379 -0.00332,0.58952c1.30706,0.69525 3.00758,-0.43097 4.46924,-0.14747c1.28311,0.24886 2.4382,0.98365 3.71984,1.23995c0.85758,0.17149 1.77565,-0.18585 2.62353,0.02857c0.03524,0.00891 0.07039,0.01809 0.10546,0.02752c0.19247,-0.05276 0.41132,-0.08275 0.66016,-0.08275c1.08872,0 1.60331,0.57414 1.84652,1.11687c1.11954,0.55933 2.22897,1.14649 3.44396,1.38968c1.65434,0.33113 3.41652,-0.53301 5.06821,-0.00517l-0.02373,-0.43687c0,0 0,-2.06451 2.06451,-2.06451c2.06451,0 2.06451,2.06451 2.06451,2.06451l-0.1022,0.59842c0.34784,1.08728 0.69567,2.17456 1.04351,3.26184c2.17601,2.4873 2.26325,6.90014 0.15794,9.46838c-0.00552,0.06431 -0.01132,0.11657 -0.0174,0.15558c-0.02387,0.15315 -0.04368,0.30983 -0.06075,0.46909c0.14002,0.27851 0.21885,0.59308 0.21885,0.92606c0,0.45235 -0.14548,0.87073 -0.39222,1.21089c-0.12058,1.11231 -0.37479,2.15757 -1.16926,2.84482c-0.6501,0.56237 -6.18298,0.48871 -7.94273,0.48871c-2.28334,0 -4.75367,0.15312 -7.26415,0.26826c-0.57819,0.25039 -1.20368,0.45069 -1.73216,0.75373c0,0 -1.63851,0.81926 -2.60036,-0.62914c-2.90837,0.01006 -5.75747,-0.17833 -8.31838,-0.86311c-1.77664,-0.47507 -4.08398,-0.18978 -5.28545,-1.58211c-0.14323,-0.16598 -0.25452,-0.34709 -0.33932,-0.54011zM235.46232,185.78071h-0.36586c-0.01477,0.38742 -0.03605,0.77423 -0.06565,1.16024c0.1174,-0.39328 0.26105,-0.78405 0.43152,-1.16024z" fill="#00caff"/></g></g></svg>