<svg version="1.1" xmlns="http://www.w3.org/2000/svg" xmlns:xlink="http://www.w3.org/1999/xlink" width="179" height="179" viewBox="0,0,179,179"><defs><linearGradient x1="5161.12642" y1="-11118.39941" x2="5161.12642" y2="5997.723" gradientUnits="userSpaceOnUse" id="color-1"><stop offset="0" stop-color="#ffffff"/><stop offset="1" stop-color="#ffffff" stop-opacity="0"/></linearGradient></defs><g transform="translate(-150.5,-90.5)"><g data-paper-data="{&quot;isPaintingLayer&quot;:true}" fill-rule="nonzero" stroke="none" stroke-width="0" stroke-linecap="butt" stroke-linejoin="miter" stroke-miterlimit="10" stroke-dasharray="" stroke-dashoffset="0" style="mix-blend-mode: normal"><path d="M157.98123,253.27077v-146.54155h164.03755v146.54155z" fill="url(#color-1)"/><path d="M150.5,269.5v-179h179v179zM213.35724,230.18144l40.00434,0.01786c0,0 4.06268,-0.29517 6.2231,-0.34408c5.71032,-0.12928 8.0718,-2.64299 10.11197,-7.48618c0.92883,-2.20499 2.59101,-6.5449 2.59101,-6.5449c0,0 3.00439,-17.19616 1.52084,-28.94967c-0.36841,-2.91876 -1.80706,-4.16591 -3.04731,-5.96797c-1.62503,-2.36112 -3.11084,-4.86924 -3.42986,-5.22775c-1.55255,-1.74459 -3.82877,-1.59661 -3.82877,-1.59661c0,0 -1.28544,-4.7671 -1.82262,-7.31668c-0.58829,-2.79203 -1.56775,-9.05535 -1.56775,-9.05535l2.50538,1.33943c0,0 0.72904,-4.41816 0.35522,-6.47326c-0.27219,-1.49637 -1.8296,-4.15989 -1.8296,-4.15989c0,0 0.24307,-5.58655 -0.44242,-7.19032c-0.54467,-1.27422 -2.50162,-2.05843 -4.37542,-3.398c-1.03992,-0.74343 -2.36897,-2.27575 -3.9742,-3.12757c-1.47573,-0.78311 -3.18492,-0.90406 -5.1175,-1.21852c-3.1336,-0.50989 -7.88104,0.74369 -10.9906,-1.3059c-4.00167,-2.63758 -10.49959,-10.15741 -10.49959,-10.15741c0,0 1.83059,3.99612 3.21356,5.91785c1.44742,2.01127 5.28645,5.89341 5.28645,5.89341c0,0 -7.78296,-4.9503 -10.56104,-7.71808c-2.45895,-2.44982 -5.26709,-8.05135 -5.26709,-8.05135c0,0 1.03345,6.35651 4.16789,11.35452c2.14376,3.41832 6.46676,5.60288 7.37601,7.05275c0.91838,1.4644 1.27572,4.67848 1.02147,7.17801c-0.29637,2.91379 -0.79564,7.07613 -1.56789,11.43843c-0.93727,5.29424 -1.71467,10.88302 -3.58175,14.89189c-3.70333,7.95158 -5.72519,1.11645 -12.79013,9.46245c-6.01243,7.10261 -7.30583,23.13506 -7.30583,23.13506l-0.38646,17.07013c0,0 -0.04343,2.15348 -0.05502,3.4726c-0.02769,3.15164 0.5739,6.50548 4.85623,6.68152c1.19225,0.04902 3.20742,0.38353 3.20742,0.38353z" fill="#000000"/><path d="M160,260v-160h160v160z" fill="none"/></g></g></svg>