<svg version="1.1" xmlns="http://www.w3.org/2000/svg" xmlns:xlink="http://www.w3.org/1999/xlink" width="108.0515" height="117.50176" viewBox="0,0,108.0515,117.50176"><g transform="translate(-192.25475,-74.01488)"><g data-paper-data="{&quot;isPaintingLayer&quot;:true}" fill-rule="nonzero" stroke="none" stroke-width="0.5" stroke-linecap="butt" stroke-linejoin="miter" stroke-miterlimit="10" stroke-dasharray="" stroke-dashoffset="0" style="mix-blend-mode: normal"><path d="M229.11368,109.7466c-3.48525,-0.58088 -2.90438,-4.06613 -2.90438,-4.06613c1.00374,-5.86414 2.74048,-11.54793 4.3103,-17.286c0.49707,-1.81694 1.1997,-7.91919 2.41686,-8.74228c1.53618,-1.03883 13.46048,-2.41266 15.97327,-2.7384c4.67203,-0.60562 9.33292,-1.30413 14.01606,-1.8169c2.82248,-0.30904 5.78378,-1.67288 8.48158,-0.78753c7.01275,2.30137 7.83889,7.57843 10.01015,13.30143c2.76339,7.28372 2.22908,14.47043 1.31676,22.12987c-2.40339,0.95972 -4.6224,2.85028 -7.21017,2.87917c-8.30358,0.09268 -6.65974,-6.4994 -8.22972,-11.71165c-0.73171,-2.42921 -2.09325,-4.63797 -2.82666,-7.06666c-0.51786,-1.7149 0.62205,-4.3778 -0.91646,-5.29542c-3.33685,-1.99024 -7.81102,2.95096 -9.97845,4.39408c-1.07402,0.71511 -2.30544,1.1891 -3.33043,1.97286c-1.45255,1.11068 -3.27607,2.22487 -3.7691,3.98568c-0.83601,2.98574 -0.3162,6.99866 -2.78446,8.87516c-1.47209,1.11915 -3.67614,0.40499 -5.51421,0.60749h-3.53333v0c-0.66278,0 -1.28294,-0.18249 -1.81297,-0.49995c-0.46896,0.97493 -1.51153,2.23238 -3.71456,1.86522z" fill="#9966ff"/><path d="M262.40434,117.97256l-2.08669,3.4778c-0.61032,1.05848 -1.75351,1.77097 -3.06313,1.77097c-1.73682,0 -3.18095,-1.25313 -3.47755,-2.90457l-0.69383,-3.46915c0,0 -0.13168,-0.65837 0.00677,-1.45853c-1.1889,-0.25778 -2.30277,-0.63852 -3.28892,-1.14074c-0.33096,-0.16855 -5.56166,-6.76333 -5.90553,-7.19309c0,0 -2.20726,-2.75906 0.5518,-4.96632c0.54589,-0.43672 1.07017,-0.67902 1.56005,-0.78673c-0.79261,-0.98036 -1.66636,-1.9267 -1.4639,-3.06467c0.99262,-5.57945 4.48921,-4.67155 7.51803,-7.32003c2.73605,-2.39248 1.90238,-5.76785 7.31307,-5.85616c4.20949,-0.0687 10.1118,7.63365 11.17845,11.07016c0.61504,1.98149 0.72451,11.09542 -0.14076,12.8953c-1.40468,2.92193 -4.30051,4.88255 -7.63418,5.91074c0.53127,1.52671 -0.3737,3.03499 -0.3737,3.03499zM259.37453,92.12803c-0.26377,-0.05365 -0.21505,0.35815 -0.23874,0.71461c0.07889,-0.00526 0.15851,-0.00794 0.23874,-0.00794c0.11536,0 0.22941,0.00552 0.34193,0.01634c-0.04488,-0.3309 -0.06621,-0.66692 -0.34193,-0.723zM255.90855,108.645c0.28541,0.01792 0.58283,0.02898 0.88797,0.0326c-0.15413,-0.16437 -0.2927,-0.3435 -0.4134,-0.53501c-0.1949,0.20917 -0.35634,0.3803 -0.47456,0.50241z" fill="#ffeab8"/><path d="M267.07924,105.56841c0.69295,3.46472 -2.77177,4.15766 -2.77177,4.15766l-3.53333,0.70667c-2.99692,0.50097 -6.21766,0.15134 -9.07185,-0.89077c0,0 -3.28061,-1.31225 -1.96837,-4.59286c1.31225,-3.28061 4.59286,-1.96837 4.59286,-1.96837c1.53974,0.71138 3.41965,0.94836 5.06146,0.52256l3.53333,-0.70667c0,0 3.46472,-0.69295 4.15766,2.77177z" fill="#000000"/><path d="M250.89454,94.95469c0,-1.9514 1.58193,-3.53333 3.53333,-3.53333c1.9514,0 3.53333,1.58193 3.53333,3.53333c0,1.9514 -1.58193,3.53333 -3.53333,3.53333c-1.9514,0 -3.53333,-1.58193 -3.53333,-3.53333z" fill="#000000"/><path d="M260.78787,94.24802c0,-1.9514 1.58193,-3.53333 3.53333,-3.53333c1.9514,0 3.53333,1.58193 3.53333,3.53333c0,1.9514 -1.58193,3.53333 -3.53333,3.53333c-1.9514,0 -3.53333,-1.58193 -3.53333,-3.53333z" fill="#000000"/><path d="M277.63392,125.64326l0.51285,0.37584c0.12349,0.56072 0.30671,1.1155 0.51748,1.667c0.33018,0.66912 0.62612,1.36043 0.88058,2.06689c3.25473,1.01545 2.30705,4.33233 2.30705,4.33233l-0.87456,2.81359l0.22092,1.10456c0.0543,0.24618 0.08292,0.50199 0.08292,0.76448c0,0.58793 -0.1436,1.14234 -0.39764,1.63004c0.01086,0.18797 0.01814,0.37634 0.02218,0.56505l0.30685,-0.06137l0.69236,3.46178c0.0543,0.24618 0.08292,0.50199 0.08292,0.76448c0,1.9514 -1.58193,3.53333 -3.53333,3.53333c-0.9757,0 -1.85904,-0.39548 -2.49845,-1.03488l-0.08178,-0.08178c0.17799,1.19637 0.33089,2.39438 0.44302,3.59517c0.13141,1.40721 -0.01829,2.82677 0,4.24c0.0252,1.94747 1.32924,4.30647 0.13043,5.84143c-3.70968,4.74999 -13.42823,0.93586 -18.07133,0.14802c-1.30336,-0.01725 -2.64222,0.25091 -3.91008,-0.05171c-1.75994,-0.42007 -3.59513,-0.9562 -5.01444,-2.07845c-7.65546,-6.05321 -1.3591,-14.91469 -0.6602,-22.23262c0.14065,-1.47269 -0.0637,-3.04162 -0.2955,-4.5985c-0.6839,0 -1.38715,0 -2.07441,0c-0.78707,2.11999 -3.30061,2.11999 -3.30061,2.11999l-1.39961,-0.06862c-0.16044,-0.03297 -0.32251,-0.05991 -0.48594,-0.08173c-1.60982,2.2179 -3.42621,4.10132 -5.95283,4.33161c-8.4948,0.77427 -13.30799,-6.08677 -9.24471,-13.19298c3.66042,-6.40164 13.17455,-9.25939 19.90975,-9.36158c0,0 1.89713,0 2.91114,1.39012c1.47432,-0.22101 2.74219,0.72987 2.74219,0.72987c3.28942,2.57309 5.77218,2.83582 9.89333,2.82666c2.05723,-0.00456 5.72696,-0.19497 8.05808,0.75311c0.47288,-0.04883 0.95704,-0.14879 1.44314,-0.25765c0.52838,-0.31469 1.1458,-0.49545 1.80545,-0.49545c0.23935,0 0.47314,0.0238 0.69913,0.06915c0.59308,-0.01531 1.16302,0.07455 1.69048,0.35739c1.13962,0.61107 1.61807,1.90166 2.0933,3.19512l0.46376,0.61833l-0.18054,0.1354c0.02195,0.05578 0.04414,0.11132 0.06662,0.16654z" fill="#9966ff"/><path d="M280.57452,154.31465c-1.01456,0 -1.7378,-0.29132 -2.25338,-0.70667c-0.69439,0 -1.27995,0 -1.27995,0c-1.9514,0 -3.53333,-1.58193 -3.53333,-3.53333c0,-1.9514 1.58193,-3.53333 3.53333,-3.53333h3.53333c0,0 3.53333,0 3.53333,3.53333c0,0.23296 -0.01537,0.45055 -0.04405,0.65381l0.04405,0.05286c0,0 0,3.53333 -3.53333,3.53333z" fill="#ffeab8"/><path d="M228.70518,135.5649l1.44332,1.18417c0.28303,2.36837 2.45653,5.34288 0.84911,7.10513c-3.96268,4.34443 -13.32613,-2.50995 -14.0217,-5.69485c-0.17674,-0.80925 5.51539,-6.3661 6.68685,-7.54314c0,0 2.49845,-2.49845 4.99688,0c2.29531,2.29531 0.37323,4.59061 0.04553,4.94868z" fill="#ffeab8"/><path d="M228.28123,142.30133c0,-1.9514 1.58193,-3.53333 3.53333,-3.53333c1.9514,0 3.53333,1.58193 3.53333,3.53333c0,1.9514 -1.58193,3.53333 -3.53333,3.53333c-1.9514,0 -3.53333,-1.58193 -3.53333,-3.53333z" fill="#825b00"/><path d="M210.47259,122.62696c2.71438,-2.26198 4.97635,0.4524 4.97635,0.4524c1.50798,1.80959 5.55868,6.67041 7.06666,8.47999c0,0 2.26198,2.71438 -0.4524,4.97635c-2.71438,2.26198 -4.97635,-0.4524 -4.97635,-0.4524c-1.50798,-1.80959 -3.01598,-3.61918 -4.52396,-5.42877l-2.54269,-3.05123c0,0 -2.26198,-2.71438 0.4524,-4.97635z" fill="#825b00"/><path d="M213.72567,121.52392c0.13882,0.08276 0.27963,0.17713 0.42222,0.28408c2.82666,2.11999 0.70667,4.94666 0.70667,4.94666c-0.70667,0.94223 -1.41334,1.88444 -2.11999,2.82666l-2.09532,2.79376c-0.64295,0.87689 -1.68065,1.44623 -2.85134,1.44623c-1.73682,0 -3.18095,-1.25313 -3.47755,-2.90457l-0.69383,-3.46915l0.67501,-0.135c-0.02375,-0.08504 -0.04638,-0.17028 -0.06784,-0.2557c-3.84676,0.14375 -10.40303,-1.00394 -10.81715,-2.09471c-3.76125,-9.90684 2.62298,-6.94222 5.80219,-8.66842c0.22708,-0.1233 -0.3339,-0.39566 -0.47929,-0.60928c-0.59637,-0.87631 -1.16311,-1.77241 -1.74467,-2.65861l-2.09012,-3.48354c-0.33807,-0.54186 -0.53341,-1.18195 -0.53341,-1.86768c0,-1.9514 1.58193,-3.53333 3.53333,-3.53333c0.4922,0 0.96091,0.10064 1.38665,0.28247l3.45893,1.38357l-0.02209,0.05523c0.09346,0.01899 0.18677,0.03899 0.27993,0.06005c1.33497,0.30183 2.32096,1.5546 3.60071,1.99907l1.94307,-2.42886c0.64691,-0.82298 1.65145,-1.35157 2.77946,-1.35157c1.9514,0 3.53333,1.58193 3.53333,3.53333c0,0.4922 -0.10064,0.96091 -0.28247,1.38665l-0.57541,1.43852c0.95595,-0.44216 1.92512,-0.85958 2.87275,-1.31731l0.81179,0.26141v-0.35592h3.53333c1.9514,0 3.53333,1.58193 3.53333,3.53333c0,1.30961 -0.71249,2.45281 -1.77097,3.06313l-3.4778,2.08669l-0.13223,-0.2204c-1.09276,1.08502 -2.23373,2.11741 -3.44001,3.07007z" fill="#fffc00"/><path d="M250.24749,156.9157c1.29307,-0.52509 3.32972,0.45906 6.71228,4.31661c3.4816,3.97051 -0.70667,6.757 -1.47395,9.90487c-1.31571,5.39794 3.9595,18.24434 -8.1932,14.80666c-2.41501,-0.68314 -4.34164,-3.00696 -5.33714,-5.31085c-0.78869,-1.82531 0.2503,-3.97053 0.47293,-5.94644c0.67658,-6.00515 -0.10098,-11.23256 2.91271,-16.59467c0,0 1.81788,-3.02981 4.84769,-1.21192c0.01977,0.01186 0.03934,0.02377 0.0587,0.03574z" fill="#00caff"/><path d="M278.163,162.67616c2.75079,3.35249 9.34428,11.34625 7.19195,16.299c-2.4072,5.5393 -8.15408,4.44446 -11.88355,2.32074c-5.14345,-2.92891 -8.0658,-10.94741 -11.43324,-15.65634c0,0 -2.05371,-2.87518 0.82148,-4.9289c2.87518,-2.05371 4.9289,0.82148 4.9289,0.82148c0.34138,0.47844 0.67202,0.9632 0.99462,1.45259c0.28538,-1.66508 1.73591,-2.93223 3.48241,-2.93223c0.59345,0 1.15273,0.14631 1.64373,0.4048l3.61252,1.80627l-0.12164,0.24329z" fill="#00caff"/><path d="M245.37771,181.77979c0.98967,-1.50868 2.99318,-1.50868 2.99318,-1.50868l3.4182,0.37302c1.30655,0.65427 2.5037,1.49954 3.61894,2.46004l0.29489,-0.49148l3.00788,1.80473c1.05848,0.61032 1.77097,1.75351 1.77097,3.06313c0,1.9514 -1.58193,3.53333 -3.53333,3.53333h-4.28878c-3.13586,0 -12.93572,1.25415 -15.26129,-0.19918c-0.33547,-0.20965 -0.64262,-0.44944 -0.92712,-0.71331l-0.11058,0.13823l-3.03793,-2.43035c-0.82298,-0.64691 -1.35157,-1.65145 -1.35157,-2.77946c0,-1.9514 1.58193,-3.53333 3.53333,-3.53333c0.19052,0 0.37752,0.01508 0.55986,0.04411l4.04189,0.57742c1.76016,-0.00301 3.52086,-0.13294 5.27143,-0.33821z" fill="#005e75"/><path d="M271.531,179.02647c1.72156,-1.14771 3.10709,-0.61523 3.95979,0.02324c5.70759,0.05299 11.27528,0.61392 16.99336,0.60871h4.28878c1.9514,0 3.53333,1.58193 3.53333,3.53333c0,1.58943 -1.04949,2.93373 -2.49329,3.37778l-3.59881,1.19961l-0.04394,-0.1318c-0.1663,0.09364 -0.33534,0.18297 -0.50743,0.2675c-1.26924,0.62346 -2.82799,0.03748 -4.24207,0.04562c-4.96334,0.02859 -9.77968,-0.63021 -14.70441,-0.61268l-4.16527,-3.41145c0,0 -1.95994,-2.93992 0.97998,-4.89985z" fill="#005e75"/></g></g></svg>