<svg version="1.1" xmlns="http://www.w3.org/2000/svg" xmlns:xlink="http://www.w3.org/1999/xlink" width="84.39208" height="112.85218" viewBox="0,0,84.39208,112.85218"><g transform="translate(-195.75323,-75.63001)"><g data-paper-data="{&quot;isPaintingLayer&quot;:true}" fill-rule="nonzero" stroke="none" stroke-width="0.5" stroke-linecap="butt" stroke-linejoin="miter" stroke-miterlimit="10" stroke-dasharray="" stroke-dashoffset="0" style="mix-blend-mode: normal"><path d="M225.44347,104.41224c-2.8074,-0.46791 -2.33951,-3.27531 -2.33951,-3.27531c0.80852,-4.72363 2.20748,-9.30197 3.47198,-13.92403c0.4004,-1.46356 0.96636,-6.37898 1.9468,-7.04199c1.23741,-0.83678 10.84255,-1.94342 12.86662,-2.2058c3.76336,-0.48784 7.51776,-1.05049 11.29006,-1.46352c2.27353,-0.24893 4.6589,-1.34752 6.83199,-0.63438c5.64884,1.85377 6.3143,6.1045 8.06327,10.71443c2.22593,5.86711 1.79554,11.65607 1.06066,17.82583c-1.93596,0.77306 -3.72338,2.29593 -5.80787,2.31919c-6.68861,0.07465 -5.36448,-5.23533 -6.62912,-9.43384c-0.5894,-1.95675 -1.68613,-3.73594 -2.27691,-5.69226c-0.41714,-1.38137 0.50108,-3.52635 -0.73822,-4.26551c-2.68786,-1.60316 -6.29184,2.37704 -8.03774,3.53947c-0.86513,0.57602 -1.85705,0.95784 -2.68269,1.58916c-1.17005,0.89466 -2.63891,1.79215 -3.03604,3.2105c-0.67341,2.40504 -0.25471,5.63749 -2.24291,7.14903c-1.18578,0.90149 -2.96117,0.32622 -4.44175,0.48934h-2.84614v0c-0.53387,0 -1.03342,-0.14699 -1.46037,-0.40271c-0.37775,0.78531 -1.21756,1.79821 -2.99212,1.50246z" fill="#9966ff"/><path d="M252.25941,111.03833l-1.68085,2.8014c-0.49162,0.85262 -1.41247,1.42654 -2.46738,1.42654c-1.39902,0 -2.56228,-1.00942 -2.8012,-2.33966l-0.55889,-2.79444c0,0 -0.10607,-0.53033 0.00545,-1.17486c-0.95767,-0.20764 -1.85491,-0.51433 -2.64926,-0.91887c-0.26658,-0.13577 -4.47997,-5.44793 -4.75696,-5.7941c0,0 -1.77797,-2.22245 0.44449,-4.00041c0.43971,-0.35178 0.86203,-0.54696 1.25664,-0.63372c-0.63845,-0.78969 -1.34227,-1.55198 -1.17919,-2.46862c0.79956,-4.4943 3.6161,-3.76298 6.05584,-5.89635c2.20391,-1.92716 1.53238,-4.64606 5.89076,-4.71719c3.39078,-0.05534 8.14516,6.14898 9.00435,8.91713c0.49542,1.59611 0.58361,8.93746 -0.11338,10.38729c-1.13148,2.35365 -3.46409,3.93295 -6.14941,4.76116c0.42795,1.22978 -0.30102,2.44471 -0.30102,2.44471zM249.81887,90.22031c-0.21247,-0.04322 -0.17322,0.28849 -0.19231,0.57562c0.06355,-0.00423 0.12768,-0.0064 0.19231,-0.0064c0.09292,0 0.18479,0.00445 0.27542,0.01316c-0.03614,-0.26655 -0.05333,-0.53721 -0.27542,-0.58239zM247.027,103.5249c0.2299,0.01443 0.46947,0.02334 0.71528,0.02626c-0.12415,-0.1324 -0.23577,-0.27669 -0.333,-0.43096c-0.157,0.1685 -0.28704,0.30633 -0.38226,0.40469z" fill="#ffeab8"/><path d="M256.0251,101.04667c0.55818,2.79086 -2.23269,3.34903 -2.23269,3.34903l-2.84614,0.56923c-2.41405,0.40354 -5.00839,0.1219 -7.30747,-0.71753c0,0 -2.64256,-1.05704 -1.58554,-3.69959c1.05704,-2.64256 3.69959,-1.58554 3.69959,-1.58554c1.24027,0.57301 2.75457,0.76391 4.07706,0.42093l2.84614,-0.56923c0,0 2.79086,-0.55818 3.34903,2.23269z" fill="#000000"/><path d="M242.98816,92.49722c0,-1.57188 1.27426,-2.84614 2.84614,-2.84614c1.57188,0 2.84614,1.27426 2.84614,2.84614c0,1.57188 -1.27426,2.84614 -2.84614,2.84614c-1.57188,0 -2.84614,-1.27426 -2.84614,-2.84614z" fill="#000000"/><path d="M250.95732,91.92799c0,-1.57188 1.27426,-2.84614 2.84614,-2.84614c1.57188,0 2.84614,1.27426 2.84614,2.84614c0,1.57188 -1.27426,2.84614 -2.84614,2.84614c-1.57188,0 -2.84614,-1.27426 -2.84614,-2.84614z" fill="#000000"/><path d="M264.52699,117.21716l0.41311,0.30275c0.09946,0.45167 0.24705,0.89855 0.41684,1.34278c0.26596,0.53899 0.50435,1.09585 0.70931,1.6649c2.62172,0.81796 1.85836,3.48973 1.85836,3.48973l-0.70447,2.26638l0.17795,0.88974c0.04374,0.19829 0.06679,0.40435 0.06679,0.61579c0,0.47358 -0.11567,0.92017 -0.32031,1.31301c0.00874,0.15141 0.01461,0.30314 0.01786,0.45515l0.24716,-0.04943l0.55771,2.7885c0.04374,0.19829 0.06679,0.40435 0.06679,0.61579c0,1.57188 -1.27426,2.84614 -2.84614,2.84614c-0.78593,0 -1.49748,-0.31856 -2.01253,-0.83361l-0.06587,-0.06587c0.14337,0.96369 0.26653,1.9287 0.35686,2.89594c0.10585,1.13352 -0.01474,2.277 0,3.41536c0.0203,1.56871 1.07071,3.46891 0.10507,4.70532c-2.98819,3.82616 -10.81656,0.75385 -14.55663,0.11923c-1.04987,-0.01389 -2.12833,0.20211 -3.14961,-0.04166c-1.41765,-0.33837 -2.89593,-0.77024 -4.03917,-1.67421c-6.16654,-4.87592 -1.09477,-12.01393 -0.5318,-17.9086c0.1133,-1.18626 -0.05131,-2.45006 -0.23802,-3.70414c-0.55089,0 -1.11738,0 -1.67095,0c-0.634,1.70768 -2.65868,1.70768 -2.65868,1.70768l-1.1274,-0.05527c-0.12924,-0.02655 -0.25978,-0.04825 -0.39144,-0.06584c-1.29672,1.78654 -2.75984,3.30366 -4.79506,3.48914c-6.84265,0.62368 -10.71972,-4.90295 -7.4467,-10.62706c2.9485,-5.15659 10.61223,-7.45853 16.0375,-7.54085c0,0 1.52815,0 2.34495,1.11976c1.18758,-0.17803 2.20886,0.58792 2.20886,0.58792c2.64966,2.07266 4.64954,2.28429 7.96917,2.27691c1.65712,-0.00368 4.61313,-0.15705 6.49086,0.60664c0.38092,-0.03932 0.7709,-0.11985 1.16247,-0.20754c0.42561,-0.25348 0.92295,-0.3991 1.45431,-0.3991c0.1928,0 0.38112,0.01917 0.56316,0.0557c0.47772,-0.01233 0.93682,0.06005 1.36169,0.28789c0.91797,0.49222 1.30337,1.53181 1.68617,2.5737l0.37357,0.49807l-0.14543,0.10906c0.01768,0.04494 0.03556,0.08967 0.05366,0.13416z" fill="#9966ff"/><path d="M266.89566,140.31223c-0.81723,0 -1.39982,-0.23465 -1.81512,-0.56923c-0.55933,0 -1.03102,0 -1.03102,0c-1.57188,0 -2.84614,-1.27426 -2.84614,-2.84614c0,-1.57188 1.27426,-2.84614 2.84614,-2.84614h2.84614c0,0 2.84614,0 2.84614,2.84614c0,0.18766 -0.01237,0.36293 -0.03548,0.52664l0.03548,0.04258c0,0 0,2.84614 -2.84614,2.84614z" fill="#ffeab8"/><path d="M225.11442,125.20913l1.16261,0.95386c0.22798,1.90775 1.97875,4.30374 0.68398,5.72326c-3.19198,3.49948 -10.73432,-2.02179 -11.29461,-4.58726c-0.14237,-0.65186 4.44271,-5.12795 5.38633,-6.07607c0,0 2.01253,-2.01253 4.02503,0c1.8489,1.8489 0.30064,3.69779 0.03668,3.98622z" fill="#ffeab8"/><path d="M224.77292,130.63539c0,-1.57188 1.27426,-2.84614 2.84614,-2.84614c1.57188,0 2.84614,1.27426 2.84614,2.84614c0,1.57188 -1.27426,2.84614 -2.84614,2.84614c-1.57188,0 -2.84614,-1.27426 -2.84614,-2.84614z" fill="#825b00"/><path d="M210.42789,114.78749c2.18646,-1.82205 4.0085,0.36441 4.0085,0.36441c1.2147,1.45764 4.47757,5.37308 5.69226,6.83072c0,0 1.82205,2.18646 -0.36441,4.0085c-2.18646,1.82205 -4.0085,-0.36441 -4.0085,-0.36441c-1.2147,-1.45764 -2.42939,-2.91529 -3.64409,-4.37292l-2.04816,-2.45779c0,0 -1.82205,-2.18646 0.36441,-4.0085z" fill="#825b00"/><path d="M213.04827,113.89899c0.11182,0.06666 0.22524,0.14268 0.3401,0.22883c2.27691,1.70768 0.56923,3.98458 0.56923,3.98458c-0.56923,0.75897 -1.13845,1.51793 -1.70768,2.27691l-1.6878,2.25041c-0.5179,0.70635 -1.35377,1.16495 -2.29678,1.16495c-1.39902,0 -2.56228,-1.00942 -2.8012,-2.33966l-0.55889,-2.79444l0.54373,-0.10874c-0.01912,-0.06851 -0.03736,-0.13716 -0.05464,-0.20597c-3.0986,0.11579 -8.37974,-0.80869 -8.71332,-1.6873c-3.02972,-7.98005 2.11283,-5.59202 4.67372,-6.98249c0.18292,-0.09932 -0.26896,-0.31871 -0.38608,-0.49077c-0.48038,-0.70588 -0.93691,-1.42769 -1.40535,-2.14153l-1.68361,-2.80603c-0.27231,-0.43647 -0.42967,-0.95208 -0.42967,-1.50443c0,-1.57188 1.27426,-2.84614 2.84614,-2.84614c0.39648,0 0.77402,0.08107 1.11695,0.22754l2.7862,1.11448l-0.0178,0.04449c0.07529,0.0153 0.15045,0.03142 0.22548,0.04837c1.07534,0.24313 1.86955,1.25224 2.9004,1.61027l1.56517,-1.95647c0.52109,-0.66293 1.33026,-1.08871 2.23888,-1.08871c1.57188,0 2.84614,1.27426 2.84614,2.84614c0,0.39648 -0.08107,0.77402 -0.22754,1.11695l-0.4635,1.15874c0.77003,-0.35617 1.55069,-0.6924 2.31402,-1.06111l0.65391,0.21057v-0.28669h2.84614c1.57188,0 2.84614,1.27426 2.84614,2.84614c0,1.05491 -0.57392,1.97576 -1.42654,2.46738l-2.8014,1.68085l-0.10651,-0.17753c-0.88023,0.87399 -1.79929,1.7056 -2.77096,2.47297z" fill="#fffc00"/><path d="M250.05362,143.16806c3.13554,0.28832 6.12241,-0.01127 9.06214,0.56366c0.14105,-0.28852 0.34949,-0.58335 0.64435,-0.8782c2.01253,-2.01253 4.02503,0 4.02503,0l0.96799,1.17455c6.09171,3.11161 8.82229,6.64041 10.11171,13.36097c-1.0008,5.36647 -0.118,10.44935 -1.85373,15.69992c-0.79932,2.41794 -1.78534,6.35058 -4.14392,7.83816c-1.20232,0.75831 -2.82699,0.35771 -4.24842,0.36943c-1.37659,0.01134 -2.92926,0.39214 -4.11896,-0.30048c-2.69333,-1.56798 -3.16906,-3.10425 -3.25334,-5.10941c-0.0751,0.47561 -0.22858,0.92101 -0.51698,1.31325c-2.51696,3.42328 -13.66289,2.92303 -16.0981,-0.56923c-2.67961,-3.84275 1.22634,-7.26207 1.83892,-10.67224c0.48384,-2.69352 -0.17839,-6.06364 -0.58711,-8.7034c-0.34587,-2.23382 -0.0754,-4.62798 -0.94244,-6.71552c-0.7915,-1.90565 -2.00614,-3.66959 -2.45112,-5.68454c0,0 -0.55818,-2.79086 2.23269,-3.34903c1.15452,-0.23089 1.92695,0.11132 2.43587,0.59198c2.30037,0.34621 4.57923,0.85713 6.89545,1.07013zM257.29013,170.39975c0.27954,-4.10938 1.23888,-7.92947 1.82381,-11.99495c0.10493,-0.72935 -2.06615,-0.46838 -2.1956,0.25704c-0.2594,1.45359 0.30048,2.94289 0.30048,4.41944c0,2.41051 0.12028,4.88496 0.07132,7.31847zM257.21361,172.28523c-0.01065,0.23047 -0.0088,0.46638 -0.00036,0.70532c-0.00259,-0.23631 -0.00241,-0.47139 0.00036,-0.70532z" fill="#00caff"/><path d="M255.24238,177.17757c1.27283,-2.54566 3.81848,-1.27283 3.81848,-1.27283c3.78962,1.89796 6.8949,3.35478 11.28115,2.59701c3.04465,-0.526 4.24661,-3.39963 8.0349,-0.54471c1.49667,1.12792 2.46094,8.96001 1.15412,10.08139c-1.38237,1.1862 -3.62619,-0.35552 -5.43314,-0.58568c-5.89792,-0.75127 -12.40413,-0.25333 -17.93614,-2.37519l-0.5667,-0.44574c-0.68581,0.57398 -1.62691,1.14895 -2.86973,1.71725c-1.14922,0.5255 -2.49643,-0.41319 -3.75616,-0.51256c-4.83753,-0.38162 -9.56775,0.42566 -14.38544,-0.58885c-1.6756,-0.35285 -3.89186,0.00123 -4.95993,-1.33718c-4.24146,-5.31498 -0.51409,-7.5921 3.71849,-8.82406c3.06786,-0.89296 6.93921,0.49903 10.11133,0.51776c0.97831,-0.74722 2.27932,-0.53039 2.27932,-0.53039l3.63352,0.61442c1.80541,0.63217 3.94589,1.63382 5.51953,2.85512c0.00147,-0.40507 0.10367,-0.86034 0.35639,-1.36574z" fill="#005e75"/></g></g></svg>