<svg version="1.1" xmlns="http://www.w3.org/2000/svg" xmlns:xlink="http://www.w3.org/1999/xlink" width="470" height="344" viewBox="0,0,470,344"><defs><radialGradient cx="239.99838" cy="184.71794" r="5.79874" gradientUnits="userSpaceOnUse" id="color-1"><stop offset="0" stop-color="#feffbc"/><stop offset="1" stop-color="#ffe68d"/></radialGradient><linearGradient x1="239.99838" y1="181.3862" x2="239.99838" y2="189.40068" gradientUnits="userSpaceOnUse" id="color-2"><stop offset="0" stop-color="#ebc578" stop-opacity="0"/><stop offset="1" stop-color="#ebc578"/></linearGradient><linearGradient x1="240.01054" y1="174.82119" x2="240.01054" y2="190.15321" gradientUnits="userSpaceOnUse" id="color-3"><stop offset="0" stop-color="#0ca8ff"/><stop offset="1" stop-color="#006cd1"/></linearGradient><radialGradient cx="239.95777" cy="176.01915" r="9.13508" gradientUnits="userSpaceOnUse" id="color-4"><stop offset="0" stop-color="#2fb0ff"/><stop offset="1" stop-color="#2fb0ff" stop-opacity="0"/></radialGradient><radialGradient cx="238.18842" cy="183.871" r="1.21948" gradientUnits="userSpaceOnUse" id="color-5"><stop offset="0" stop-color="#747474"/><stop offset="1" stop-color="#2e2e2f"/></radialGradient><radialGradient cx="241.88255" cy="183.871" r="1.21949" gradientUnits="userSpaceOnUse" id="color-6"><stop offset="0" stop-color="#747474"/><stop offset="1" stop-color="#2e2e2f"/></radialGradient><radialGradient cx="238.18842" cy="183.871" r="1.21948" gradientUnits="userSpaceOnUse" id="color-7"><stop offset="0" stop-color="#747474"/><stop offset="1" stop-color="#2e2e2f"/></radialGradient><radialGradient cx="238.17278" cy="184.15956" r="1.40201" gradientUnits="userSpaceOnUse" id="color-8"><stop offset="0" stop-color="#636364"/><stop offset="1" stop-color="#2e2e2f"/></radialGradient><radialGradient cx="238.16718" cy="183.53673" r="0.58157" gradientUnits="userSpaceOnUse" id="color-9"><stop offset="0" stop-color="#ffffff"/><stop offset="1" stop-color="#ffffff" stop-opacity="0"/></radialGradient><radialGradient cx="241.88255" cy="183.871" r="1.21949" gradientUnits="userSpaceOnUse" id="color-10"><stop offset="0" stop-color="#747474"/><stop offset="1" stop-color="#2e2e2f"/></radialGradient><radialGradient cx="241.86692" cy="184.15956" r="1.40201" gradientUnits="userSpaceOnUse" id="color-11"><stop offset="0" stop-color="#636364"/><stop offset="1" stop-color="#2e2e2f"/></radialGradient><radialGradient cx="241.86132" cy="183.53673" r="0.58159" gradientUnits="userSpaceOnUse" id="color-12"><stop offset="0" stop-color="#ffffff"/><stop offset="1" stop-color="#ffffff" stop-opacity="0"/></radialGradient></defs><g transform="translate(-5,-8)"><g data-paper-data="{&quot;isPaintingLayer&quot;:true}" fill-rule="nonzero" stroke-linecap="butt" stroke-linejoin="miter" stroke-miterlimit="10" stroke-dasharray="" stroke-dashoffset="0" style="mix-blend-mode: normal"><g><path d="M245.29093,183.04684c0.35688,0.42387 0.85054,2.37702 0.15648,3.63065c-1.23102,2.22352 -4.64529,2.04421 -5.37354,2.04421c-3.52696,0 -4.73378,-0.77635 -5.43039,-2.26399c-0.31772,-0.6785 -0.8875,-2.86839 0.15437,-4.11956c1.15896,-1.39178 4.01899,-1.62748 5.27602,-1.62748c1.34884,0 4.09902,1.00828 5.21705,2.33615z" fill="url(#color-1)" stroke="none" stroke-width="0"/><path d="M245.44741,186.6775c-1.23102,2.22352 -4.64529,2.04421 -5.37354,2.04421c-3.52696,0 -4.73378,-0.77635 -5.43039,-2.26399c-0.31772,-0.6785 -0.8875,-2.86839 0.15437,-4.11956c1.15896,-1.39178 4.01899,-1.62748 5.27602,-1.62748c1.34884,0 4.09902,1.00828 5.21705,2.33615c0,0 0.85054,2.37702 0.15648,3.63065z" fill="url(#color-2)" stroke="none" stroke-width="0"/><path d="M247.58814,184.91953c-0.61527,0.65119 -1.284,1.45962 -2.14446,1.79031c-0.03668,0.01411 0.16051,-1.44428 0.16051,-1.44428c0,0 -0.51626,-1.13086 -1.95414,-1.98444c-1.02219,-0.60682 -2.54828,-1.03196 -3.71341,-0.9872c-1.36473,0.05863 -2.53515,0.4093 -3.53547,0.98867c-1.49922,0.86831 -2.09096,2.1004 -2.09096,2.1004c0,0 0.40202,1.18438 0.39694,1.18164c-1.07962,-0.58495 -1.75495,-1.07924 -2.24563,-1.68493c-1.35406,-1.32711 -1.69112,-3.86754 -1.45942,-5.62552c0.33775,-2.56257 1.84729,-5.12908 4.14855,-6.59547c1.67194,-1.06538 3.5316,-1.38387 4.85988,-1.38387c1.57813,0 3.97778,0.50072 5.86689,1.96605c1.88942,1.46557 2.59269,3.86427 3.0571,6.07663c0.21013,2.20235 -0.16002,4.34641 -1.34638,5.60203z" fill="url(#color-3)" stroke="none" stroke-width="0"/><path d="M247.58814,184.91953c-0.61527,0.65119 -1.30511,1.48073 -2.16557,1.81142c-0.03668,0.01411 0.18162,-1.46539 0.18162,-1.46539c0,0 -0.51626,-1.13086 -1.95414,-1.98444c-1.02219,-0.60682 -2.54828,-0.96865 -3.71341,-0.92388c-1.36473,0.05863 -2.53515,0.34598 -3.53547,0.92534c-1.49922,0.86831 -2.09096,2.1004 -2.09096,2.1004c0,0 0.42312,1.18438 0.41805,1.18164c-1.07962,-0.58495 -1.77606,-1.07924 -2.26674,-1.68493c-1.35406,-1.32711 -1.83939,-3.85233 -1.52274,-5.62552c0.45048,-2.52265 1.78396,-5.12908 4.08522,-6.59547c1.67194,-1.06538 3.65827,-1.38387 4.98654,-1.38387c1.57813,0 4.01998,0.50072 5.90911,1.96605c1.88942,1.46557 2.65237,3.90989 3.09933,6.07663c0.4433,2.14902 -0.24446,4.34641 -1.43082,5.60203z" fill="url(#color-4)" stroke="none" stroke-width="0"/><g stroke="#dcc67d" stroke-width="0.5"><g fill="url(#color-5)"><path d="M237.59431,185.03685v-1.80884c0,0 0.03555,-0.47123 0.56499,-0.47044c0.56994,0.00085 0.59194,0.47044 0.59194,0.47044v1.80884c0,0 -0.00651,0.52472 -0.58291,0.52472c-0.5508,0 -0.57404,-0.52472 -0.57404,-0.52472z"/></g><g fill="url(#color-6)"><path d="M241.28846,185.03685v-1.80884c0,0 0.03554,-0.47123 0.56498,-0.47044c0.56994,0.00085 0.59195,0.47044 0.59195,0.47044v1.80884c0,0 -0.00652,0.52472 -0.58291,0.52472c-0.5508,0 -0.57403,-0.52472 -0.57403,-0.52472z"/></g></g><g><g><path d="M237.59431,185.03685v-1.80884c0,0 0.03555,-0.47123 0.56499,-0.47044c0.56994,0.00085 0.59194,0.47044 0.59194,0.47044v1.80884c0,0 -0.00651,0.52472 -0.58291,0.52472c-0.5508,0 -0.57404,-0.52472 -0.57404,-0.52472z" fill="url(#color-7)" stroke="url(#color-8)" stroke-width="0.25"/><path d="M238.64612,183.53673c0,0.3212 -0.21443,0.58159 -0.47894,0.58159c-0.26452,0 -0.47896,-0.26038 -0.47896,-0.58159c0,-0.3212 0.21444,-0.58159 0.47896,-0.58159c0.26452,0 0.47894,0.26038 0.47894,0.58159z" fill="url(#color-9)" stroke="none" stroke-width="0"/><path d="M238.52904,183.53673c0,0.24268 -0.16201,0.43941 -0.36186,0.43941c-0.19986,0 -0.36189,-0.19673 -0.36189,-0.43941c0,-0.24268 0.16202,-0.43942 0.36189,-0.43942c0.19986,0 0.36186,0.19674 0.36186,0.43942z" fill="#ffffff" stroke="none" stroke-width="0"/></g><g><path d="M241.28846,185.03685v-1.80884c0,0 0.03554,-0.47123 0.56498,-0.47044c0.56994,0.00085 0.59195,0.47044 0.59195,0.47044v1.80884c0,0 -0.00651,0.52472 -0.58291,0.52472c-0.5508,0 -0.57403,-0.52472 -0.57403,-0.52472z" fill="url(#color-10)" stroke="url(#color-11)" stroke-width="0.25"/><path d="M242.34026,183.53673c0,0.3212 -0.21443,0.58159 -0.47895,0.58159c-0.26452,0 -0.47895,-0.26038 -0.47895,-0.58159c0,-0.3212 0.21444,-0.58159 0.47895,-0.58159c0.26452,0 0.47895,0.26038 0.47895,0.58159z" fill="url(#color-12)" stroke="none" stroke-width="0"/><path d="M242.22319,183.53673c0,0.24268 -0.16202,0.43941 -0.36187,0.43941c-0.19986,0 -0.36187,-0.19673 -0.36187,-0.43941c0,-0.24268 0.16202,-0.43942 0.36187,-0.43942c0.19986,0 0.36187,0.19674 0.36187,0.43942z" fill="#ffffff" stroke="none" stroke-width="0"/></g></g><path d="M244.15853,175.25921c0,1.84203 -1.87129,3.46195 -4.17965,3.46195c-2.30836,0 -4.17965,-1.61991 -4.17965,-3.46195c0,-1.84203 1.8713,-3.20863 4.17965,-3.20863c2.30836,0 4.17965,1.3666 4.17965,3.20863z" fill="#ffffff" stroke="none" stroke-width="0"/><path d="M232.29507,178.34118c0,1.42232 -0.05919,4.64406 -0.88659,4.64406c-0.23989,0 -0.70842,-1.62648 -0.5065,-3.41494c0.21022,-1.86198 1.28364,-3.97033 1.35086,-3.8889c0.48966,0.16887 0.04222,1.23746 0.04222,2.65978z" fill="#ffffff" stroke="none" stroke-width="0"/><path d="M247.6738,178.34118c0,-1.42232 -0.44743,-2.49091 0.04223,-2.65978c0.15167,-0.08143 1.14065,2.02692 1.35086,3.8889c0.20192,1.78846 -0.26661,3.41494 -0.5065,3.41494c-0.82741,0 -0.88659,-3.22175 -0.88659,-4.64406z" data-paper-data="{&quot;index&quot;:null}" fill="#ffffff" stroke="none" stroke-width="0"/></g><path d="M5,352v-344h470v344z" fill="none" stroke="none" stroke-width="0"/></g></g></svg>