<svg version="1.1" xmlns="http://www.w3.org/2000/svg" xmlns:xlink="http://www.w3.org/1999/xlink" width="91.89963" height="122.89153" viewBox="0,0,91.89963,122.89153"><g transform="translate(-193.75623,-74.10421)"><g data-paper-data="{&quot;isPaintingLayer&quot;:true}" fill-rule="nonzero" stroke="none" stroke-width="0.5" stroke-linecap="butt" stroke-linejoin="miter" stroke-miterlimit="10" stroke-dasharray="" stroke-dashoffset="0" style="mix-blend-mode: normal"><path d="M226.08772,105.44691c-3.05716,-0.50953 -2.54763,-3.56668 -2.54763,-3.56668c0.88044,-5.14384 2.40386,-10.12947 3.78085,-15.16271c0.43602,-1.59376 1.05233,-6.94645 2.11999,-7.66845c1.34749,-0.91122 11.8071,-2.11631 14.01123,-2.40203c4.09815,-0.53123 8.18654,-1.14394 12.29443,-1.59372c2.47579,-0.27108 5.07334,-1.4674 7.43976,-0.69081c6.15135,2.01868 6.87602,6.64755 8.78058,11.66759c2.42395,6.38904 1.95527,12.69299 1.15502,19.41161c-2.10817,0.84184 -4.05462,2.50017 -6.32452,2.52552c-7.28364,0.0813 -5.8417,-5.70107 -7.21884,-10.27308c-0.64183,-2.13082 -1.83612,-4.06828 -2.47945,-6.19865c-0.45425,-1.50425 0.54564,-3.84005 -0.80389,-4.64497c-2.92698,-1.74577 -6.85158,2.58849 -8.75277,3.85435c-0.9421,0.62726 -2.02225,1.04305 -2.92136,1.73053c-1.27413,0.97425 -2.87367,1.95158 -3.30613,3.49611c-0.73333,2.61899 -0.27736,6.139 -2.44243,7.78501c-1.29126,0.98168 -3.2246,0.35525 -4.83689,0.53287h-3.09932v0c-0.58137,0 -1.12535,-0.16007 -1.59028,-0.43854c-0.41135,0.85518 -1.32587,1.95818 -3.2583,1.63611z" fill="#c4a6ff"/><path d="M255.28921,112.66246l-1.83037,3.05061c-0.53536,0.92847 -1.53812,1.55344 -2.68687,1.55344c-1.52348,0 -2.79022,-1.09921 -3.05039,-2.54779l-0.60861,-3.04303c0,0 -0.1155,-0.5775 0.00594,-1.27938c-1.04286,-0.22612 -2.01992,-0.56009 -2.88494,-1.00063c-0.29031,-0.14785 -4.87851,-5.93258 -5.18013,-6.30954c0,0 -1.93613,-2.42016 0.48402,-4.3563c0.47883,-0.38308 0.93872,-0.59561 1.36843,-0.69009c-0.69525,-0.85993 -1.46168,-1.69004 -1.28408,-2.68823c0.8707,-4.89412 3.93779,-4.09773 6.59457,-6.4209c2.39997,-2.09861 1.6687,-5.05937 6.41479,-5.13683c3.69242,-0.06026 8.86974,6.69599 9.80538,9.71039c0.53949,1.73811 0.63552,9.73255 -0.12346,11.31134c-1.23214,2.56303 -3.77226,4.28282 -6.69646,5.18471c0.46602,1.33918 -0.32779,2.66219 -0.32779,2.66219zM252.63156,89.99246c-0.23137,-0.04706 -0.18863,0.31417 -0.20942,0.62684c0.0692,-0.00461 0.13905,-0.00696 0.20942,-0.00696c0.10119,0 0.20123,0.00485 0.29993,0.01433c-0.03936,-0.29026 -0.05808,-0.585 -0.29993,-0.6342zM249.59131,104.48063c0.25035,0.01572 0.51125,0.02541 0.77889,0.0286c-0.13519,-0.14418 -0.25675,-0.3013 -0.36262,-0.46931c-0.17096,0.18348 -0.31257,0.33358 -0.41627,0.4407z" fill="#ffeab8"/><path d="M259.38988,101.78193c0.60783,3.03914 -2.43131,3.64696 -2.43131,3.64696l-3.09932,0.61987c-2.62879,0.43943 -5.45393,0.13275 -7.95754,-0.78134c0,0 -2.87765,-1.15107 -1.7266,-4.02871c1.15107,-2.87765 4.02871,-1.7266 4.02871,-1.7266c1.35061,0.62399 2.99961,0.83187 4.43976,0.45838l3.09932,-0.61987c0,0 3.03914,-0.60783 3.64696,2.43131z" fill="#000000"/><path d="M245.19317,92.47193c0,-1.71171 1.38762,-3.09932 3.09932,-3.09932c1.71171,0 3.09932,1.38762 3.09932,3.09932c0,1.71171 -1.38762,3.09932 -3.09932,3.09932c-1.71171,0 -3.09932,-1.38762 -3.09932,-3.09932z" fill="#000000"/><path d="M253.87127,91.85206c0,-1.71171 1.38762,-3.09932 3.09932,-3.09932c1.71171,0 3.09932,1.38762 3.09932,3.09932c0,1.71171 -1.38762,3.09932 -3.09932,3.09932c-1.71171,0 -3.09932,-1.38762 -3.09932,-3.09932z" fill="#000000"/><path d="M268.64811,119.39097l0.44986,0.32968c0.10832,0.49185 0.26904,0.97848 0.45391,1.46224c0.28962,0.58693 0.54921,1.19333 0.77241,1.81301c2.85495,0.89072 2.02367,3.80019 2.02367,3.80019l-0.76713,2.46799l0.19378,0.96889c0.04762,0.21594 0.07274,0.44033 0.07274,0.67058c0,0.51572 -0.12596,1.00202 -0.3488,1.42982c0.00952,0.16489 0.01591,0.33011 0.01945,0.49564l0.26916,-0.05383l0.60733,3.03658c0.04762,0.21594 0.07274,0.44033 0.07274,0.67058c0,1.71171 -1.38762,3.09932 -3.09932,3.09932c-0.85586,0 -1.63069,-0.3469 -2.19156,-0.90776l-0.07173,-0.07173c0.15613,1.04942 0.29025,2.10027 0.38861,3.15356c0.11526,1.23436 -0.01603,2.47956 0,3.71919c0.02211,1.70827 1.16597,3.77749 0.11442,5.12391c-3.25402,4.16654 -11.77881,0.82091 -15.85159,0.12984c-1.14327,-0.01512 -2.31767,0.22009 -3.4298,-0.04536c-1.54377,-0.36847 -3.15354,-0.83876 -4.39849,-1.82315c-6.71512,-5.30967 -1.19216,-13.08269 -0.57911,-19.50174c0.12337,-1.2918 -0.05588,-2.66801 -0.2592,-4.03366c-0.59989,0 -1.21677,0 -1.81959,0c-0.69039,1.8596 -2.89519,1.8596 -2.89519,1.8596l-1.2277,-0.06019c-0.14074,-0.02892 -0.28289,-0.05254 -0.42626,-0.07169c-1.41208,1.94547 -3.00536,3.59754 -5.22162,3.79955c-7.45137,0.67916 -11.67334,-5.33912 -8.10916,-11.57246c3.2108,-5.61531 11.55628,-8.12203 17.46419,-8.21168c0,0 1.6641,0 2.55356,1.21938c1.29322,-0.19387 2.40536,0.64022 2.40536,0.64022c2.88538,2.25704 5.06316,2.48749 8.6781,2.47945c1.80454,-0.00401 5.02351,-0.17103 7.0683,0.6606c0.4148,-0.04283 0.83948,-0.13052 1.26587,-0.226c0.46347,-0.27604 1.00506,-0.4346 1.58368,-0.4346c0.20995,0 0.41502,0.02087 0.61325,0.06066c0.52023,-0.01343 1.02017,0.06539 1.48282,0.31349c0.99963,0.536 1.41931,1.66808 1.83617,2.80266l0.4068,0.54239l-0.15837,0.11877c0.01925,0.04893 0.03871,0.09764 0.05844,0.14609z" fill="#c4a6ff"/><path d="M271.2275,144.54056c-0.88994,0 -1.52435,-0.25553 -1.97659,-0.61987c-0.60909,0 -1.12273,0 -1.12273,0c-1.71171,0 -3.09932,-1.38762 -3.09932,-3.09932c0,-1.71171 1.38762,-3.09932 3.09932,-3.09932h3.09932c0,0 3.09932,0 3.09932,3.09932c0,0.20434 -0.01348,0.39522 -0.03864,0.5735l0.03864,0.04637c0,0 0,3.09932 -3.09932,3.09932z" fill="#ffeab8"/><path d="M225.72939,128.09389l1.26604,1.03872c0.24827,2.07746 2.15478,4.68659 0.74482,6.2324c-3.47595,3.81079 -11.68924,-2.20165 -12.29938,-4.99533c-0.15504,-0.70984 4.83792,-5.58414 5.86549,-6.6166c0,0 2.19156,-2.19156 4.3831,0c2.01337,2.01337 0.32739,4.02674 0.03994,4.34082z" fill="#ffeab8"/><path d="M225.35751,134.00287c0,-1.71171 1.38762,-3.09932 3.09932,-3.09932c1.71171,0 3.09932,1.38762 3.09932,3.09932c0,1.71171 -1.38762,3.09932 -3.09932,3.09932c-1.71171,0 -3.09932,-1.38762 -3.09932,-3.09932z" fill="#825b00"/><path d="M209.73635,116.74515c2.38096,-1.98414 4.36511,0.39682 4.36511,0.39682c1.32276,1.58732 4.87589,5.85106 6.19865,7.43837c0,0 1.98414,2.38096 -0.39682,4.36511c-2.38096,1.98414 -4.36511,-0.39682 -4.36511,-0.39682c-1.32276,-1.58732 -2.64552,-3.17462 -3.96828,-4.76195l-2.23037,-2.67644c0,0 -1.98414,-2.38096 0.39682,-4.36511z" fill="#825b00"/><path d="M212.58985,115.77759c0.12176,0.0726 0.24528,0.15537 0.37035,0.24918c2.47945,1.8596 0.61987,4.33905 0.61987,4.33905c-0.61987,0.82648 -1.23973,1.65296 -1.8596,2.47945l-1.83795,2.4506c-0.56397,0.76918 -1.47421,1.26859 -2.50111,1.26859c-1.52348,0 -2.79022,-1.09921 -3.05039,-2.54779l-0.60861,-3.04303l0.59209,-0.11842c-0.02083,-0.07459 -0.04069,-0.14936 -0.05951,-0.22429c-3.37426,0.1261 -9.1252,-0.88063 -9.48845,-1.83741c-3.29924,-8.68995 2.30079,-6.08949 5.0895,-7.60365c0.19918,-0.10815 -0.29289,-0.34706 -0.42042,-0.53443c-0.52311,-0.76868 -1.02025,-1.5547 -1.53037,-2.33204l-1.83338,-3.05565c-0.29654,-0.4753 -0.46788,-1.03677 -0.46788,-1.63827c0,-1.71171 1.38762,-3.09932 3.09932,-3.09932c0.43174,0 0.84288,0.08829 1.21633,0.24777l3.03406,1.21362l-0.01937,0.04844c0.08198,0.01666 0.16384,0.0342 0.24554,0.05267c1.17099,0.26476 2.03587,1.36364 3.15842,1.75353l1.70441,-2.13051c0.56745,-0.7219 1.4486,-1.18556 2.43805,-1.18556c1.71171,0 3.09932,1.38762 3.09932,3.09932c0,0.43174 -0.08829,0.84288 -0.24777,1.21633l-0.50473,1.26182c0.83853,-0.38785 1.68865,-0.75399 2.51989,-1.1555l0.71208,0.22931v-0.3122h3.09932c1.71171,0 3.09932,1.38762 3.09932,3.09932c0,1.14875 -0.62497,2.15153 -1.55344,2.68687l-3.05061,1.83037l-0.11599,-0.19332c-0.95853,0.95174 -1.95936,1.85733 -3.01746,2.69296z" fill="#fffc00"/><path d="M252.88718,147.65045c3.41448,0.31397 6.66706,-0.01228 9.8683,0.6138c0.15358,-0.31418 0.38058,-0.63525 0.70166,-0.95633c2.19156,-2.19156 4.3831,0 4.3831,0l1.0541,1.27903c6.63361,3.38842 9.60712,7.23114 11.01124,14.54955c-1.08982,5.84387 -0.1285,11.37892 -2.01864,17.09657c-0.87043,2.63303 -1.94415,6.91553 -4.51257,8.53545c-1.30928,0.82577 -3.07847,0.38954 -4.62636,0.40229c-1.49904,0.01235 -3.18984,0.42702 -4.48538,-0.3272c-2.93292,-1.70747 -3.45097,-3.3804 -3.54276,-5.56395c-0.08179,0.51791 -0.24891,1.00294 -0.56297,1.43007c-2.74087,3.72781 -14.87834,3.18307 -17.53019,-0.61987c-2.91799,-4.1846 1.33544,-7.90811 2.00251,-11.62165c0.52688,-2.93314 -0.19426,-6.60306 -0.63933,-9.47764c-0.37663,-2.43255 -0.08211,-5.03967 -1.02627,-7.31293c-0.86191,-2.07519 -2.1846,-3.99604 -2.66917,-6.19023c0,0 -0.60783,-3.03914 2.43131,-3.64696c1.25722,-0.25144 2.09838,0.12123 2.65257,0.64465c2.50501,0.37701 4.98658,0.93338 7.50887,1.16532zM260.76746,177.30465c0.3044,-4.47494 1.3491,-8.63486 1.98606,-13.06201c0.11426,-0.79423 -2.24994,-0.51004 -2.39092,0.2799c-0.28247,1.5829 0.3272,3.20468 0.3272,4.81259c0,2.62494 0.13098,5.31953 0.07766,7.96952zM260.68412,179.35788c-0.01159,0.25098 -0.00958,0.50787 -0.0004,0.76806c-0.00283,-0.25733 -0.00263,-0.51332 0.0004,-0.76806z" fill="#00caff"/><path d="M258.53755,184.68544c1.38606,-2.77212 4.15817,-1.38606 4.15817,-1.38606c4.12676,2.0668 7.50828,3.65322 12.28473,2.82805c3.31551,-0.57279 4.62439,-3.70207 8.74969,-0.59316c1.62982,1.22827 2.67986,9.75709 1.25681,10.97823c-1.50534,1.29172 -3.94877,-0.38714 -5.91646,-0.63778c-6.4226,-0.81811 -13.5076,-0.27586 -19.53174,-2.58649l-0.61712,-0.48539c-0.74682,0.62503 -1.77164,1.25117 -3.12502,1.87001c-1.25145,0.57225 -2.71851,-0.44995 -4.0903,-0.55816c-5.26788,-0.41556 -10.4189,0.46353 -15.66518,-0.64124c-1.82466,-0.38425 -4.23807,0.00134 -5.40116,-1.45613c-4.61878,-5.7878 -0.55983,-8.26749 4.04929,-9.60905c3.34077,-0.9724 7.55652,0.54343 11.01083,0.56382c1.06534,-0.81369 2.48209,-0.57756 2.48209,-0.57756l3.95676,0.66909c1.96603,0.68841 4.29692,1.77916 6.01054,3.10911c0.00161,-0.44111 0.11289,-0.93686 0.38808,-1.48724z" fill="#005e75"/></g></g></svg>