<svg version="1.1" xmlns="http://www.w3.org/2000/svg" xmlns:xlink="http://www.w3.org/1999/xlink" width="106.67075" height="116.00026" viewBox="0,0,106.67075,116.00026"><g transform="translate(-192.25475,-75.5164)"><g data-paper-data="{&quot;isPaintingLayer&quot;:true}" fill-rule="nonzero" stroke="none" stroke-width="0.5" stroke-linecap="butt" stroke-linejoin="miter" stroke-miterlimit="10" stroke-dasharray="" stroke-dashoffset="0" style="mix-blend-mode: normal"><path d="M228.64268,110.79151c-3.44071,-0.57346 -2.86727,-4.01417 -2.86727,-4.01417c0.99091,-5.78921 2.70546,-11.40036 4.25522,-17.06511c0.49071,-1.79372 1.18436,-7.81799 2.38597,-8.63057c1.51655,-1.02555 13.28848,-2.38183 15.76916,-2.70341c4.61233,-0.59788 9.21366,-1.28746 13.83695,-1.79368c2.78641,-0.30509 5.70987,-1.6515 8.3732,-0.77747c6.92313,2.27197 7.73872,7.48159 9.88224,13.13146c2.72808,7.19065 2.2006,14.28552 1.29993,21.84708c-2.37267,0.94746 -4.56333,2.81386 -7.11803,2.84238c-8.19747,0.0915 -6.57464,-6.41635 -8.12456,-11.56199c-0.72236,-2.39817 -2.0665,-4.57871 -2.79054,-6.97636c-0.51124,-1.69299 0.6141,-4.32185 -0.90475,-5.22775c-3.29421,-1.96481 -7.71121,2.91325 -9.85094,4.33793c-1.0603,0.70597 -2.27598,1.17391 -3.28788,1.94765c-1.43399,1.09649 -3.23421,2.19644 -3.72094,3.93475c-0.82533,2.94758 -0.31216,6.90923 -2.74888,8.76175c-1.45327,1.10485 -3.62917,0.39982 -5.44375,0.59973h-3.48818v0c-0.65431,0 -1.26654,-0.18015 -1.7898,-0.49356c-0.46296,0.96247 -1.49222,2.20386 -3.6671,1.84138z" fill="#c4a6ff"/><path d="M261.50793,118.91235l-2.06002,3.43336c-0.60252,1.04496 -1.7311,1.74834 -3.02399,1.74834c-1.71462,0 -3.1403,-1.23712 -3.43311,-2.86745l-0.68496,-3.42482c0,0 -0.13,-0.64996 0.00668,-1.43989c-1.17371,-0.25448 -2.27335,-0.63036 -3.24689,-1.12616c-0.32673,-0.1664 -5.49059,-6.6769 -5.83006,-7.10117c0,0 -2.17905,-2.7238 0.54475,-4.90286c0.53891,-0.43114 1.0565,-0.67034 1.54012,-0.77667c-0.78248,-0.96783 -1.64507,-1.90207 -1.4452,-3.02551c0.97994,-5.50816 4.43184,-4.61185 7.42196,-7.22649c2.70108,-2.36191 1.87807,-5.69414 7.21962,-5.78133c4.15569,-0.06782 9.98258,7.5361 11.03561,10.9287c0.60718,1.95617 0.71525,10.95363 -0.13896,12.73052c-1.38673,2.8846 -4.24555,4.82016 -7.53663,5.83521c0.52449,1.5072 -0.36893,2.99621 -0.36893,2.99621zM258.51684,93.39808c-0.2604,-0.05296 -0.21231,0.35358 -0.23569,0.70548c0.07789,-0.00519 0.15648,-0.00784 0.23569,-0.00784c0.11388,0 0.22648,0.00545 0.33756,0.01613c-0.0443,-0.32667 -0.06536,-0.6584 -0.33756,-0.71376zM255.09514,109.70399c0.28176,0.01769 0.57538,0.02861 0.87662,0.03219c-0.15216,-0.16227 -0.28896,-0.33911 -0.40811,-0.52818c-0.19241,0.2065 -0.35179,0.37544 -0.46849,0.49599z" fill="#ffeab8"/><path d="M266.1231,106.66671c0.68409,3.42044 -2.73635,4.10453 -2.73635,4.10453l-3.48818,0.69764c-2.95862,0.49457 -6.1382,0.14941 -8.95593,-0.87938c0,0 -3.23869,-1.29548 -1.94322,-4.53417c1.29548,-3.23869 4.53417,-1.94322 4.53417,-1.94322c1.52006,0.70229 3.37596,0.93624 4.99679,0.51588l3.48818,-0.69764c0,0 3.42044,-0.68409 4.10453,2.73635z" fill="#000000"/><path d="M250.14521,96.18862c0,-1.92647 1.56171,-3.48818 3.48818,-3.48818c1.92647,0 3.48818,1.56171 3.48818,3.48818c0,1.92647 -1.56171,3.48818 -3.48818,3.48818c-1.92647,0 -3.48818,-1.56171 -3.48818,-3.48818z" fill="#000000"/><path d="M259.91212,95.49098c0,-1.92647 1.56171,-3.48818 3.48818,-3.48818c1.92647,0 3.48818,1.56171 3.48818,3.48818c0,1.92647 -1.56171,3.48818 -3.48818,3.48818c-1.92647,0 -3.48818,-1.56171 -3.48818,-3.48818z" fill="#000000"/><path d="M276.54291,126.48504l0.5063,0.37104c0.12191,0.55356 0.30279,1.10125 0.51086,1.64569c0.32596,0.66057 0.61812,1.34305 0.86933,2.04047c3.21314,1.00248 2.27757,4.27697 2.27757,4.27697l-0.86338,2.77764l0.2181,1.09044c0.05361,0.24303 0.08186,0.49557 0.08186,0.75471c0,0.58042 -0.14176,1.12775 -0.39256,1.60921c0.01072,0.18557 0.01791,0.37153 0.02189,0.55783l0.30293,-0.06058l0.68352,3.41755c0.05361,0.24303 0.08186,0.49557 0.08186,0.75471c0,1.92647 -1.56171,3.48818 -3.48818,3.48818c-0.96324,0 -1.83529,-0.39043 -2.46652,-1.02166l-0.08073,-0.08073c0.17572,1.18108 0.32666,2.36379 0.43736,3.54923c0.12973,1.38923 -0.01806,2.79065 0,4.18582c0.02488,1.92259 1.31225,4.25143 0.12877,5.76678c-3.66228,4.68929 -13.25663,0.9239 -17.84041,0.14613c-1.28671,-0.01702 -2.60846,0.2477 -3.86012,-0.05105c-1.73745,-0.4147 -3.54919,-0.94399 -4.95036,-2.05189c-7.55763,-5.97585 -1.34174,-14.72411 -0.65176,-21.94852c0.13886,-1.45388 -0.06288,-3.00275 -0.29172,-4.53974c-0.67516,0 -1.36943,0 -2.0479,0c-0.77701,2.0929 -3.25843,2.0929 -3.25843,2.0929l-1.38172,-0.06774c-0.15839,-0.03255 -0.31838,-0.05914 -0.47973,-0.08069c-1.58924,2.18956 -3.38243,4.04891 -5.87676,4.27626c-8.38625,0.76437 -13.13794,-6.00899 -9.12658,-13.02439c3.61364,-6.31984 13.0062,-9.14107 19.65533,-9.24196c0,0 1.87288,0 2.87394,1.37236c1.45548,-0.21819 2.70715,0.72055 2.70715,0.72055c3.24738,2.54021 5.69842,2.79958 9.76691,2.79054c2.03094,-0.0045 5.65378,-0.19248 7.95511,0.74349c0.46684,-0.0482 0.94481,-0.14689 1.4247,-0.25436c0.52162,-0.31067 1.13116,-0.48912 1.78238,-0.48912c0.23629,0 0.4671,0.02349 0.6902,0.06827c0.5855,-0.01511 1.14816,0.0736 1.66887,0.35282c1.12505,0.60326 1.59739,1.87736 2.06655,3.15429l0.45783,0.61043l-0.17823,0.13367c0.02167,0.05507 0.04357,0.1099 0.06577,0.16442z" fill="#c4a6ff"/><path d="M279.44592,154.79005c-1.0016,0 -1.7156,-0.28759 -2.22458,-0.69764c-0.68551,0 -1.2636,0 -1.2636,0c-1.92647,0 -3.48818,-1.56171 -3.48818,-3.48818c0,-1.92647 1.56171,-3.48818 3.48818,-3.48818h3.48818c0,0 3.48818,0 3.48818,3.48818c0,0.22998 -0.01517,0.4448 -0.04349,0.64545l0.04349,0.05218c0,0 0,3.48818 -3.48818,3.48818z" fill="#ffeab8"/><path d="M228.2394,136.27989l1.42488,1.16904c0.27942,2.33811 2.42514,5.2746 0.83826,7.01434c-3.91205,4.28891 -13.15584,-2.47788 -13.84252,-5.62208c-0.17448,-0.79891 5.44491,-6.28475 6.6014,-7.44675c0,0 2.46652,-2.46652 4.93303,0c2.26598,2.26598 0.36846,4.53195 0.04495,4.88544z" fill="#ffeab8"/><path d="M227.82087,142.93024c0,-1.92647 1.56171,-3.48818 3.48818,-3.48818c1.92647,0 3.48818,1.56171 3.48818,3.48818c0,1.92647 -1.56171,3.48818 -3.48818,3.48818c-1.92647,0 -3.48818,-1.56171 -3.48818,-3.48818z" fill="#825b00"/><path d="M210.23979,123.50728c2.67969,-2.23307 4.91276,0.44662 4.91276,0.44662c1.48871,1.78647 5.48764,6.58517 6.97636,8.37163c0,0 2.23307,2.67969 -0.44662,4.91276c-2.67969,2.23307 -4.91276,-0.44662 -4.91276,-0.44662c-1.48871,-1.78647 -2.97744,-3.57293 -4.46615,-5.3594l-2.5102,-3.01224c0,0 -2.23307,-2.67969 0.44662,-4.91276z" fill="#825b00"/><path d="M213.45131,122.41834c0.13705,0.0817 0.27605,0.17487 0.41682,0.28045c2.79054,2.0929 0.69764,4.88345 0.69764,4.88345c-0.69764,0.93019 -1.39527,1.86036 -2.0929,2.79054l-2.06855,2.75806c-0.63474,0.86568 -1.65917,1.42775 -2.81491,1.42775c-1.71462,0 -3.1403,-1.23712 -3.43311,-2.86745l-0.68496,-3.42482l0.66638,-0.13328c-0.02344,-0.08396 -0.04579,-0.16811 -0.06697,-0.25243c-3.79761,0.14191 -10.27009,-0.99111 -10.67893,-2.06795c-3.71318,-9.78024 2.58946,-6.85351 5.72805,-8.55765c0.22418,-0.12172 -0.32964,-0.39061 -0.47317,-0.60149c-0.58875,-0.86511 -1.14825,-1.74976 -1.72238,-2.62464l-2.06341,-3.43903c-0.33375,-0.53493 -0.52659,-1.16685 -0.52659,-1.84381c0,-1.92647 1.56171,-3.48818 3.48818,-3.48818c0.48591,0 0.94863,0.09936 1.36893,0.27886l3.41473,1.36589l-0.02181,0.05453c0.09227,0.01875 0.18439,0.03849 0.27635,0.05929c1.31791,0.29797 2.2913,1.53473 3.55469,1.97353l1.91824,-2.39782c0.63865,-0.81247 1.63035,-1.3343 2.74395,-1.3343c1.92647,0 3.48818,1.56171 3.48818,3.48818c0,0.48591 -0.09936,0.94863 -0.27886,1.36893l-0.56806,1.42014c0.94373,-0.43651 1.90052,-0.84859 2.83605,-1.30047l0.80142,0.25807v-0.35138h3.48818c1.92647,0 3.48818,1.56171 3.48818,3.48818c0,1.29287 -0.70339,2.42146 -1.74834,3.02399l-3.43336,2.06002l-0.13054,-0.21758c-1.0788,1.07115 -2.20519,2.09036 -3.39605,3.03084z" fill="#fffc00"/><path d="M249.50643,157.35786c1.27655,-0.51838 3.28717,0.45319 6.62651,4.26145c3.43711,3.91978 -0.69764,6.67066 -1.45511,9.7783c-1.2989,5.32896 3.90891,18.0112 -8.0885,14.61745c-2.38415,-0.67441 -4.28616,-2.96854 -5.26894,-5.24298c-0.77861,-1.80198 0.2471,-3.91979 0.46688,-5.87045c0.66793,-5.92841 -0.09969,-11.08902 2.87549,-16.38261c0,0 1.79465,-2.99109 4.78574,-1.19643c0.01952,0.01171 0.03883,0.02347 0.05795,0.03529z" fill="#00caff"/><path d="M277.06522,163.04471c2.71564,3.30965 9.22487,11.20126 7.10005,16.09072c-2.37644,5.46852 -8.04988,4.38767 -11.7317,2.29108c-5.07773,-2.89148 -7.96273,-10.80751 -11.28714,-15.45628c0,0 -2.02747,-2.83844 0.81099,-4.86591c2.83844,-2.02747 4.86591,0.81099 4.86591,0.81099c0.33702,0.47233 0.66344,0.95089 0.98191,1.43403c0.28174,-1.6438 1.71373,-2.89476 3.43791,-2.89476c0.58586,0 1.138,0.14444 1.62273,0.39963l3.56636,1.78319l-0.12009,0.24018z" fill="#00caff"/><path d="M244.69888,181.90422c0.97703,-1.4894 2.95493,-1.4894 2.95493,-1.4894l3.37452,0.36826c1.28986,0.64591 2.47171,1.48037 3.57269,2.42861l0.29112,-0.4852l2.96944,1.78167c1.04496,0.60252 1.74834,1.7311 1.74834,3.02399c0,1.92647 -1.56171,3.48818 -3.48818,3.48818h-4.23398c-3.09579,0 -12.77042,1.23812 -15.06627,-0.19664c-0.33118,-0.20697 -0.63441,-0.4437 -0.91527,-0.70419l-0.10917,0.13646l-2.99911,-2.39929c-0.81247,-0.63865 -1.3343,-1.63035 -1.3343,-2.74395c0,-1.92647 1.56171,-3.48818 3.48818,-3.48818c0.18809,0 0.37269,0.01489 0.55271,0.04355l3.99024,0.57004c1.73767,-0.00297 3.47587,-0.13124 5.20407,-0.33388z" fill="#005e75"/><path d="M270.51796,179.18609c1.69956,-1.13304 3.06738,-0.60737 3.90919,0.02294c5.63465,0.05231 11.1312,0.60608 16.77621,0.60093h4.23398c1.92647,0 3.48818,1.56171 3.48818,3.48818c0,1.56912 -1.03608,2.89625 -2.46143,3.33462l-3.55282,1.18428l-0.04338,-0.13012c-0.16418,0.09244 -0.33106,0.18064 -0.50094,0.26408c-1.25302,0.61549 -2.79185,0.037 -4.18786,0.04504c-4.89992,0.02823 -9.65471,-0.62216 -14.51651,-0.60485l-4.11204,-3.36785c0,0 -1.9349,-2.90235 0.96745,-4.83724z" fill="#005e75"/></g></g></svg>