<svg version="1.1" xmlns="http://www.w3.org/2000/svg" xmlns:xlink="http://www.w3.org/1999/xlink" width="127.62613" height="107.90278" viewBox="0,0,127.62613,107.90278"><g transform="translate(-195.25624,-88.84722)"><g data-paper-data="{&quot;isPaintingLayer&quot;:true}" fill-rule="nonzero" stroke="none" stroke-width="0.5" stroke-linecap="butt" stroke-linejoin="miter" stroke-miterlimit="10" stroke-dasharray="" stroke-dashoffset="0" style="mix-blend-mode: normal"><path d="M229.20869,121.76133c-3.21042,-0.53508 -2.67536,-3.74549 -2.67536,-3.74549c0.92458,-5.40173 2.52438,-10.63732 3.97041,-15.92292c0.45787,-1.67367 1.10509,-7.29472 2.22627,-8.05291c1.41505,-0.95691 12.39906,-2.22241 14.7137,-2.52246c4.30362,-0.55787 8.59698,-1.20129 12.91083,-1.67363c2.59991,-0.28467 5.3277,-1.54097 7.81277,-0.72544c6.45976,2.1199 7.22076,6.98084 9.22081,12.25256c2.54549,6.70937 2.05331,13.32938 1.21293,20.38483c-2.21387,0.88405 -4.25791,2.62552 -6.64162,2.65213c-7.64881,0.08538 -6.13459,-5.9869 -7.58077,-10.78813c-0.67402,-2.23765 -1.92819,-4.27225 -2.60377,-6.50943c-0.47703,-1.57967 0.573,-4.03259 -0.84419,-4.87785c-3.07373,-1.8333 -7.19509,2.71827 -9.19161,4.04759c-0.98933,0.65872 -2.12365,1.09534 -3.06782,1.81728c-1.33801,1.0231 -3.01774,2.04943 -3.47189,3.67139c-0.77009,2.7503 -0.29127,6.44679 -2.5649,8.17531c-1.356,1.0309 -3.38627,0.37306 -5.07939,0.55959h-3.25471v0c-0.61052,0 -1.18177,-0.1681 -1.67,-0.46053c-0.43198,0.89805 -1.39234,2.05635 -3.42165,1.71814z" fill="#9966ff"/><path d="M259.87423,129.33864l-1.92214,3.20356c-0.56219,0.97502 -1.61523,1.63132 -2.82159,1.63132c-1.59986,0 -2.93012,-1.15431 -3.20332,-2.67553l-0.63912,-3.19559c0,0 -0.1213,-0.60646 0.00624,-1.34352c-1.09514,-0.23745 -2.12118,-0.58817 -3.02958,-1.05079c-0.30486,-0.15526 -5.1231,-6.23001 -5.43985,-6.62588c0,0 -2.0332,-2.5415 0.50829,-4.57471c0.50284,-0.40228 0.98578,-0.62547 1.43704,-0.72469c-0.73011,-0.90306 -1.53496,-1.77476 -1.34846,-2.82301c0.91436,-5.13949 4.13522,-4.30317 6.9252,-6.74281c2.52029,-2.20382 1.75237,-5.31303 6.7364,-5.39437c3.87755,-0.06329 9.31444,7.0317 10.29699,10.19723c0.56654,1.82524 0.66739,10.2205 -0.12965,11.87845c-1.29392,2.69153 -3.96139,4.49754 -7.0322,5.44465c0.48938,1.40632 -0.34423,2.79566 -0.34423,2.79566zM257.08334,105.53207c-0.24297,-0.04942 -0.19809,0.32991 -0.21992,0.65826c0.07267,-0.00485 0.14601,-0.00732 0.21992,-0.00732c0.10626,0 0.21132,0.00509 0.31497,0.01505c-0.04134,-0.30481 -0.06099,-0.61433 -0.31497,-0.66599zM253.89067,120.74661c0.2629,0.01651 0.53687,0.02669 0.81794,0.03004c-0.14197,-0.15141 -0.26962,-0.31641 -0.3808,-0.49283c-0.17953,0.19268 -0.32824,0.35031 -0.43714,0.46279z" fill="#ffeab8"/><path d="M264.1805,117.91261c0.6383,3.19151 -2.5532,3.82981 -2.5532,3.82981l-3.25471,0.65094c-2.7606,0.46146 -5.72737,0.1394 -8.3565,-0.82053c0,0 -3.02192,-1.20877 -1.81316,-4.23069c1.20877,-3.02192 4.23069,-1.81316 4.23069,-1.81316c1.41832,0.65528 3.15,0.87358 4.66235,0.48136l3.25471,-0.65094c0,0 3.19151,-0.6383 3.82981,2.5532z" fill="#000000"/><path d="M249.27203,108.13584c0,-1.79752 1.45719,-3.25471 3.25471,-3.25471c1.79752,0 3.25471,1.45719 3.25471,3.25471c0,1.79752 -1.45719,3.25471 -3.25471,3.25471c-1.79752,0 -3.25471,-1.45719 -3.25471,-3.25471z" fill="#000000"/><path d="M258.38523,107.48489c0,-1.79752 1.45719,-3.25471 3.25471,-3.25471c1.79752,0 3.25471,1.45719 3.25471,3.25471c0,1.79752 -1.45719,3.25471 -3.25471,3.25471c-1.79752,0 -3.25471,-1.45719 -3.25471,-3.25471z" fill="#000000"/><path d="M273.9029,136.40448l0.47241,0.34621c0.11375,0.51651 0.28252,1.02754 0.47667,1.53554c0.30415,0.61637 0.57675,1.25316 0.81114,1.9039c2.99808,0.93538 2.12514,3.99071 2.12514,3.99071l-0.80559,2.59173l0.2035,1.01746c0.05002,0.22676 0.07638,0.4624 0.07638,0.7042c0,0.54157 -0.13227,1.05226 -0.36628,1.5015c0.01,0.17315 0.01671,0.34667 0.02042,0.52049l0.28265,-0.05653l0.63777,3.18881c0.05002,0.22676 0.07638,0.4624 0.07638,0.7042c0,1.79752 -1.45719,3.25471 -3.25471,3.25471c-0.89877,0 -1.71244,-0.36429 -2.30144,-0.95328l-0.07532,-0.07532c0.16396,1.10203 0.3048,2.20558 0.40809,3.31167c0.12105,1.29625 -0.01685,2.60387 0,3.90566c0.02322,1.79391 1.22442,3.96688 0.12015,5.38081c-3.41716,4.37542 -12.36935,0.86207 -16.64633,0.13635c-1.20058,-0.01588 -2.43387,0.23112 -3.60176,-0.04764c-1.62116,-0.38695 -3.31164,-0.8808 -4.61903,-1.91455c-7.05179,-5.57588 -1.25193,-13.73861 -0.60814,-20.47948c0.12957,-1.35656 -0.05867,-2.80177 -0.2722,-4.23589c-0.62997,0 -1.27778,0 -1.91082,0c-0.725,1.95282 -3.04035,1.95282 -3.04035,1.95282l-1.28925,-0.06321c-0.14779,-0.03037 -0.29708,-0.05519 -0.44763,-0.07529c-1.48288,2.04301 -3.15604,3.77791 -5.48343,3.99004c-7.82495,0.71321 -12.2586,-5.6068 -8.51572,-12.15266c3.37178,-5.89685 12.13568,-8.52925 18.33978,-8.62338c0,0 1.74753,0 2.68158,1.2805c1.35806,-0.20359 2.52596,0.67232 2.52596,0.67232c3.03003,2.3702 5.31702,2.61221 9.1132,2.60377c1.89501,-0.00421 5.27537,-0.1796 7.42267,0.69372c0.43559,-0.04498 0.88157,-0.13706 1.32934,-0.23733c0.48671,-0.28987 1.05545,-0.45639 1.66308,-0.45639c0.22048,0 0.43583,0.02193 0.644,0.0637c0.54631,-0.0141 1.0713,0.06868 1.55718,0.32921c1.04975,0.56288 1.49047,1.75171 1.92823,2.94317l0.42719,0.56958l-0.1663,0.12472c0.02022,0.05139 0.04066,0.10254 0.06137,0.15341z" fill="#9966ff"/><path d="M276.61161,162.815c-0.93456,0 -1.60077,-0.26835 -2.07569,-0.65094c-0.63963,0 -1.17902,0 -1.17902,0c-1.79752,0 -3.25471,-1.45719 -3.25471,-3.25471c0,-1.79752 1.45719,-3.25471 3.25471,-3.25471h3.25471c0,0 3.25471,0 3.25471,3.25471c0,0.21459 -0.01415,0.41503 -0.04058,0.60225l0.04058,0.04869c0,0 0,3.25471 -3.25471,3.25471z" fill="#ffeab8"/><path d="M228.83241,145.54375l1.32951,1.0908c0.26072,2.18162 2.26282,4.92157 0.78216,6.54486c-3.65021,4.00185 -12.2753,-2.31203 -12.91603,-5.24579c-0.1628,-0.74544 5.08047,-5.8641 6.15957,-6.94833c0,0 2.30144,-2.30144 4.60286,0c2.11432,2.11432 0.34381,4.22862 0.04194,4.55846z" fill="#ffeab8"/><path d="M228.44187,151.74898c0,-1.79752 1.45719,-3.25471 3.25471,-3.25471c1.79752,0 3.25471,1.45719 3.25471,3.25471c0,1.79752 -1.45719,3.25471 -3.25471,3.25471c-1.79752,0 -3.25471,-1.45719 -3.25471,-3.25471z" fill="#825b00"/><path d="M212.03752,133.62603c2.50034,-2.08362 4.58395,0.41672 4.58395,0.41672c1.38907,1.66689 5.12036,6.14441 6.50943,7.81131c0,0 2.08362,2.50034 -0.41672,4.58395c-2.50034,2.08362 -4.58395,-0.41672 -4.58395,-0.41672c-1.38907,-1.66689 -2.77816,-3.33379 -4.16723,-5.00068l-2.3422,-2.81063c0,0 -2.08362,-2.50034 0.41672,-4.58395z" fill="#825b00"/><path d="M215.03409,132.60997c0.12787,0.07623 0.25757,0.16316 0.38892,0.26168c2.60377,1.95282 0.65094,4.55659 0.65094,4.55659c-0.65094,0.86793 -1.30189,1.73584 -1.95282,2.60377l-1.9301,2.57346c-0.59225,0.80774 -1.54812,1.33219 -2.6265,1.33219c-1.59986,0 -2.93012,-1.15431 -3.20332,-2.67553l-0.63912,-3.19559l0.62178,-0.12435c-0.02187,-0.07834 -0.04273,-0.15685 -0.06249,-0.23553c-3.54343,0.13241 -9.58271,-0.92478 -9.96417,-1.92954c-3.46466,-9.12564 2.41614,-6.39479 5.34467,-7.98487c0.20918,-0.11357 -0.30757,-0.36446 -0.4415,-0.56123c-0.54934,-0.8072 -1.0714,-1.63264 -1.6071,-2.44896l-1.92531,-3.20884c-0.31141,-0.49913 -0.49134,-1.08875 -0.49134,-1.7204c0,-1.79752 1.45719,-3.25471 3.25471,-3.25471c0.4534,0 0.88514,0.09271 1.27731,0.2602l3.18618,1.27447l-0.02035,0.05088c0.0861,0.0175 0.17205,0.03592 0.25785,0.05531c1.22971,0.27803 2.13794,1.43201 3.31677,1.84144l1.78985,-2.23732c0.5959,-0.75809 1.52123,-1.24499 2.56029,-1.24499c1.79752,0 3.25471,1.45719 3.25471,3.25471c0,0.4534 -0.09271,0.88514 -0.2602,1.27731l-0.53004,1.32509c0.88057,-0.40729 1.77331,-0.79179 2.64622,-1.21343l0.74778,0.2408v-0.32785h3.25471c1.79752,0 3.25471,1.45719 3.25471,3.25471c0,1.20634 -0.6563,2.2594 -1.63132,2.82159l-3.20356,1.92214l-0.1218,-0.20302c-1.00659,0.99946 -2.05759,1.95044 -3.16875,2.82798z" fill="#fffc00"/><path d="M255.55809,167.9588c0.16423,0.1979 0.33807,0.41718 0.52075,0.6523c3.0271,-0.36066 5.55688,-1.11036 8.84541,-1.74571c4.80106,-0.92758 9.2915,0.79215 13.95505,1.259c3.59672,0.36005 7.32844,-0.17417 10.94499,0.05037c5.44358,0.33796 14.04443,-0.54177 17.92175,4.35777c3.93083,4.96715 2.70307,10.82502 2.58422,16.64681c-1.2191,1.73806 -1.70191,4.38744 -3.6573,5.21418c-3.05221,1.29045 -13.58928,-0.68905 -17.22834,-0.90318c-9.04762,-0.53239 -18.08077,-1.29078 -27.15959,-1.2969c-5.01104,-0.00338 -12.68261,0.65202 -16.28784,-3.92486c-1.17883,-1.49654 -1.00944,-3.68458 -1.27651,-5.57083c-0.79793,-5.63556 1.36171,-9.91889 -2.5526,-14.50881c0,0 -2.0332,-2.5415 0.50829,-4.57471c2.5415,-2.0332 4.57471,0.50829 4.57471,0.50829c0.71222,0.92977 1.38894,1.92629 1.9762,2.97227c0.40886,-0.18507 0.86278,-0.28812 1.34079,-0.28812c0.2418,0 0.47744,0.02637 0.7042,0.07638l3.18881,0.63777l-0.10109,0.50545z" fill="#00caff"/><path d="M313.18654,195.33514c-0.43898,0.73701 -1.24645,1.41486 -2.73178,1.41486c-3.25471,0 -3.25471,-3.25471 -3.25471,-3.25471c0,-4.99056 0,-9.98112 0,-14.97168c0,-0.84458 -0.03106,-6.9678 0.11809,-7.37821c1.22682,-3.3756 5.05033,-9.15688 10.22399,-5.69381c1.92566,1.28897 1.38449,4.42439 1.9791,6.66404c1.04543,3.93772 1.75963,8.22193 2.5712,12.20336c0.30461,1.49441 1.07082,3.04937 0.68248,4.52425c-0.79714,3.02754 -4.90266,9.2281 -9.58837,6.4919z" fill="#005e75"/></g></g></svg>