<svg version="1.1" xmlns="http://www.w3.org/2000/svg" xmlns:xlink="http://www.w3.org/1999/xlink" width="328" height="205" viewBox="0,0,328,205"><defs><linearGradient x1="240.23712" y1="184.26308" x2="240.23712" y2="185.69761" gradientUnits="userSpaceOnUse" id="color-1"><stop offset="0" stop-color="#8c4911"/><stop offset="1" stop-color="#552b0a"/></linearGradient><linearGradient x1="233.74089" y1="179.85815" x2="232.27601" y2="179.85815" gradientUnits="userSpaceOnUse" id="color-2"><stop offset="0" stop-color="#965016"/><stop offset="1" stop-color="#714111"/></linearGradient><linearGradient x1="239.87826" y1="175.06154" x2="239.87826" y2="176.97943" gradientUnits="userSpaceOnUse" id="color-3"><stop offset="0" stop-color="#dc9a4f"/><stop offset="1" stop-color="#9c571c"/></linearGradient><linearGradient x1="246.01037" y1="180.51303" x2="247.47526" y2="180.51303" gradientUnits="userSpaceOnUse" id="color-4"><stop offset="0" stop-color="#965016"/><stop offset="1" stop-color="#733e10"/></linearGradient><linearGradient x1="226.65484" y1="184.19058" x2="226.65484" y2="185.59848" gradientUnits="userSpaceOnUse" id="color-5"><stop offset="0" stop-color="#8c4911"/><stop offset="1" stop-color="#552b0a"/></linearGradient><linearGradient x1="223.84043" y1="179.86739" x2="223.20579" y2="179.86739" gradientUnits="userSpaceOnUse" id="color-6"><stop offset="0" stop-color="#965016"/><stop offset="1" stop-color="#714111"/></linearGradient><linearGradient x1="226.49938" y1="175.15981" x2="226.49938" y2="177.0421" gradientUnits="userSpaceOnUse" id="color-7"><stop offset="0" stop-color="#dc9a4f"/><stop offset="1" stop-color="#9c571c"/></linearGradient><linearGradient x1="229.15601" y1="180.51012" x2="229.79065" y2="180.51012" gradientUnits="userSpaceOnUse" id="color-8"><stop offset="0" stop-color="#965016"/><stop offset="1" stop-color="#733e10"/></linearGradient><linearGradient x1="253.61674" y1="184.26205" x2="253.61674" y2="185.6962" gradientUnits="userSpaceOnUse" id="color-9"><stop offset="0" stop-color="#8c4911"/><stop offset="1" stop-color="#552b0a"/></linearGradient><linearGradient x1="250.7499" y1="179.85828" x2="250.10342" y2="179.85828" gradientUnits="userSpaceOnUse" id="color-10"><stop offset="0" stop-color="#965016"/><stop offset="1" stop-color="#714111"/></linearGradient><linearGradient x1="253.4584" y1="175.06293" x2="253.4584" y2="176.98031" gradientUnits="userSpaceOnUse" id="color-11"><stop offset="0" stop-color="#dc9a4f"/><stop offset="1" stop-color="#9c571c"/></linearGradient><linearGradient x1="256.16453" y1="180.51299" x2="256.81102" y2="180.51299" gradientUnits="userSpaceOnUse" id="color-12"><stop offset="0" stop-color="#965016"/><stop offset="1" stop-color="#733e10"/></linearGradient><linearGradient x1="231.29472" y1="195.5766" x2="231.29472" y2="197.01139" gradientUnits="userSpaceOnUse" id="color-13"><stop offset="0" stop-color="#8c4911"/><stop offset="1" stop-color="#5a2f11"/></linearGradient><linearGradient x1="224.7685" y1="192.8411" x2="223.29688" y2="192.8411" gradientUnits="userSpaceOnUse" id="color-14"><stop offset="0" stop-color="#965016"/><stop offset="1" stop-color="#714111"/></linearGradient><linearGradient x1="230.9342" y1="188.04356" x2="230.9342" y2="189.96181" gradientUnits="userSpaceOnUse" id="color-15"><stop offset="0" stop-color="#d78a4d"/><stop offset="1" stop-color="#9c571c"/></linearGradient><linearGradient x1="237.09455" y1="193.49611" x2="238.5662" y2="193.49611" gradientUnits="userSpaceOnUse" id="color-16"><stop offset="0" stop-color="#965016"/><stop offset="1" stop-color="#733e10"/></linearGradient><linearGradient x1="248.71315" y1="195.57561" x2="248.71315" y2="197.00994" gradientUnits="userSpaceOnUse" id="color-17"><stop offset="0" stop-color="#8c4911"/><stop offset="1" stop-color="#582e10"/></linearGradient><linearGradient x1="255.17982" y1="192.84099" x2="256.6402" y2="192.84099" gradientUnits="userSpaceOnUse" id="color-18"><stop offset="0" stop-color="#965016"/><stop offset="1" stop-color="#80460d"/></linearGradient><linearGradient x1="249.06131" y1="188.045" x2="249.06131" y2="189.96264" gradientUnits="userSpaceOnUse" id="color-19"><stop offset="0" stop-color="#d78a4d"/><stop offset="1" stop-color="#9c571c"/></linearGradient><linearGradient x1="242.94805" y1="193.49579" x2="241.48767" y2="193.49579" gradientUnits="userSpaceOnUse" id="color-20"><stop offset="0" stop-color="#965016"/><stop offset="1" stop-color="#65360e"/></linearGradient><linearGradient x1="231.2945" y1="171.13266" x2="231.2945" y2="172.66295" gradientUnits="userSpaceOnUse" id="color-21"><stop offset="0" stop-color="#8c4911"/><stop offset="1" stop-color="#5a2f11"/></linearGradient><linearGradient x1="224.76808" y1="168.21511" x2="223.29639" y2="168.21511" gradientUnits="userSpaceOnUse" id="color-22"><stop offset="0" stop-color="#965016"/><stop offset="1" stop-color="#714111"/></linearGradient><linearGradient x1="230.93395" y1="163.09829" x2="230.93395" y2="165.14421" gradientUnits="userSpaceOnUse" id="color-23"><stop offset="0" stop-color="#ffb35c"/><stop offset="1" stop-color="#9c571c"/></linearGradient><linearGradient x1="237.09447" y1="168.91372" x2="238.5662" y2="168.91372" gradientUnits="userSpaceOnUse" id="color-24"><stop offset="0" stop-color="#965016"/><stop offset="1" stop-color="#733e10"/></linearGradient><linearGradient x1="248.65736" y1="171.11979" x2="248.65736" y2="172.65007" gradientUnits="userSpaceOnUse" id="color-25"><stop offset="0" stop-color="#8c4911"/><stop offset="1" stop-color="#5a2f11"/></linearGradient><linearGradient x1="255.18375" y1="168.20224" x2="256.65542" y2="168.20224" gradientUnits="userSpaceOnUse" id="color-26"><stop offset="0" stop-color="#965016"/><stop offset="1" stop-color="#854c14"/></linearGradient><linearGradient x1="249.01788" y1="163.08543" x2="249.01788" y2="165.13135" gradientUnits="userSpaceOnUse" id="color-27"><stop offset="0" stop-color="#ffb35c"/><stop offset="1" stop-color="#9c571c"/></linearGradient><linearGradient x1="242.85734" y1="168.90085" x2="241.38566" y2="168.90085" gradientUnits="userSpaceOnUse" id="color-28"><stop offset="0" stop-color="#965016"/><stop offset="1" stop-color="#6f3c10"/></linearGradient><radialGradient cx="244.68456" cy="189.52893" r="4.76095" gradientUnits="userSpaceOnUse" id="color-29"><stop offset="0" stop-color="#feffbc"/><stop offset="1" stop-color="#ffe68d"/></radialGradient><linearGradient x1="244.69455" y1="181.40337" x2="244.69455" y2="193.99146" gradientUnits="userSpaceOnUse" id="color-30"><stop offset="0" stop-color="#0ca8ff"/><stop offset="1" stop-color="#006cd1"/></linearGradient><radialGradient cx="243.19853" cy="188.83355" r="1.00122" gradientUnits="userSpaceOnUse" id="color-31"><stop offset="0" stop-color="#747474"/><stop offset="1" stop-color="#2e2e2f"/></radialGradient><radialGradient cx="246.23153" cy="188.83355" r="1.00124" gradientUnits="userSpaceOnUse" id="color-32"><stop offset="0" stop-color="#747474"/><stop offset="1" stop-color="#2e2e2f"/></radialGradient><radialGradient cx="243.19853" cy="188.83355" r="1.00122" gradientUnits="userSpaceOnUse" id="color-33"><stop offset="0" stop-color="#747474"/><stop offset="1" stop-color="#2e2e2f"/></radialGradient><radialGradient cx="243.18107" cy="188.55911" r="0.47751" gradientUnits="userSpaceOnUse" id="color-34"><stop offset="0" stop-color="#ffffff"/><stop offset="1" stop-color="#ffffff" stop-opacity="0"/></radialGradient><radialGradient cx="246.23153" cy="188.83355" r="1.00124" gradientUnits="userSpaceOnUse" id="color-35"><stop offset="0" stop-color="#747474"/><stop offset="1" stop-color="#2e2e2f"/></radialGradient><radialGradient cx="246.21409" cy="188.55911" r="0.4775" gradientUnits="userSpaceOnUse" id="color-36"><stop offset="0" stop-color="#ffffff"/><stop offset="1" stop-color="#ffffff" stop-opacity="0"/></radialGradient><radialGradient cx="244.68456" cy="189.52893" r="4.76095" gradientUnits="userSpaceOnUse" id="color-37"><stop offset="0" stop-color="#feffbc"/><stop offset="1" stop-color="#ffe68d"/></radialGradient><linearGradient x1="244.68456" y1="186.79346" x2="244.68456" y2="193.37361" gradientUnits="userSpaceOnUse" id="color-38"><stop offset="0" stop-color="#ebc578" stop-opacity="0"/><stop offset="1" stop-color="#ebc578"/></linearGradient><linearGradient x1="244.69455" y1="181.40338" x2="244.69455" y2="193.99146" gradientUnits="userSpaceOnUse" id="color-39"><stop offset="0" stop-color="#0ca8ff"/><stop offset="1" stop-color="#006cd1"/></linearGradient><radialGradient cx="244.65122" cy="182.38694" r="7.5002" gradientUnits="userSpaceOnUse" id="color-40"><stop offset="0" stop-color="#2fb0ff"/><stop offset="1" stop-color="#2fb0ff" stop-opacity="0"/></radialGradient><radialGradient cx="243.19853" cy="188.83356" r="1.00122" gradientUnits="userSpaceOnUse" id="color-41"><stop offset="0" stop-color="#747474"/><stop offset="1" stop-color="#2e2e2f"/></radialGradient><radialGradient cx="243.18569" cy="189.07048" r="1.15109" gradientUnits="userSpaceOnUse" id="color-42"><stop offset="0" stop-color="#636364"/><stop offset="1" stop-color="#2e2e2f"/></radialGradient><radialGradient cx="243.18107" cy="188.55911" r="0.47751" gradientUnits="userSpaceOnUse" id="color-43"><stop offset="0" stop-color="#ffffff"/><stop offset="1" stop-color="#ffffff" stop-opacity="0"/></radialGradient><radialGradient cx="246.23153" cy="188.83356" r="1.00124" gradientUnits="userSpaceOnUse" id="color-44"><stop offset="0" stop-color="#747474"/><stop offset="1" stop-color="#2e2e2f"/></radialGradient><radialGradient cx="246.21869" cy="189.07048" r="1.15109" gradientUnits="userSpaceOnUse" id="color-45"><stop offset="0" stop-color="#636364"/><stop offset="1" stop-color="#2e2e2f"/></radialGradient><radialGradient cx="246.21409" cy="188.55911" r="0.4775" gradientUnits="userSpaceOnUse" id="color-46"><stop offset="0" stop-color="#ffffff"/><stop offset="1" stop-color="#ffffff" stop-opacity="0"/></radialGradient></defs><g transform="translate(-76,-77.5)"><g data-paper-data="{&quot;isPaintingLayer&quot;:true}" fill-rule="nonzero" stroke-linecap="butt" stroke-linejoin="miter" stroke-miterlimit="10" stroke-dasharray="" stroke-dashoffset="0" style="mix-blend-mode: normal"><path d="M76,282.5v-205h328v205z" fill="none" stroke="none" stroke-width="0"/><g stroke="none" stroke-width="0"><path d="M222.99503,195.47251l0.11111,-30.33421l1.49059,-2.24742h30.76725l1.64099,2.53405v30.00372l-1.50528,1.68047h-31.19159z" data-paper-data="{&quot;origPos&quot;:null}" fill="#502800"/><g data-paper-data="{&quot;origPos&quot;:null}"><path d="M232.29313,184.26308h15.15281v1.43452h-15.14728z" data-paper-data="{&quot;origPos&quot;:null}" fill="url(#color-1)"/><path d="M232.27601,185.67011v-10.6547l1.46489,1.96467v7.33098z" data-paper-data="{&quot;origPos&quot;:null,&quot;index&quot;:null}" fill="url(#color-2)"/><path d="M233.70262,184.26428v-7.43299h12.33736v7.43299z" data-paper-data="{&quot;origPos&quot;:null}" fill="#965016"/><path d="M233.70572,176.97943l-1.42855,-1.91789h15.20218l-1.46911,1.91789z" data-paper-data="{&quot;origPos&quot;:null}" fill="url(#color-3)"/><path d="M246.01037,184.28829v-7.3082l1.46489,-1.96467v10.68089z" data-paper-data="{&quot;origPos&quot;:null}" fill="url(#color-4)"/></g><g data-paper-data="{&quot;origPos&quot;:null}"><path d="M223.21322,184.19058h6.56474v1.40789h-6.56234z" data-paper-data="{&quot;origPos&quot;:null}" fill="url(#color-5)"/><path d="M223.20579,185.57149v-10.45695l1.49623,1.92821l-0.05068,7.19492z" data-paper-data="{&quot;origPos&quot;:null,&quot;index&quot;:null}" fill="url(#color-6)"/><path d="M224.63475,184.19175v-7.29504h3.77386v7.29504z" data-paper-data="{&quot;origPos&quot;:null}" fill="#965016"/><path d="M224.63609,177.0421l-1.4298,-1.88229h6.58613l-0.63647,1.88229z" data-paper-data="{&quot;origPos&quot;:null}" fill="url(#color-7)"/><path d="M228.39579,184.21532v-7.17257l1.39487,-1.92821v10.48265z" data-paper-data="{&quot;origPos&quot;:null}" fill="url(#color-8)"/></g><g data-paper-data="{&quot;origPos&quot;:null}"><path d="M250.11098,184.26205h6.68713v1.43414h-6.68469z" data-paper-data="{&quot;origPos&quot;:null}" fill="url(#color-9)"/><path d="M250.10342,185.66872v-10.65189l1.52412,1.96415l-0.05163,7.32905z" data-paper-data="{&quot;origPos&quot;:null,&quot;index&quot;:null}" fill="url(#color-10)"/><path d="M251.55902,184.26325v-7.43104h3.84422v7.43104z" data-paper-data="{&quot;origPos&quot;:null}" fill="#965016"/><path d="M251.56039,176.98031l-1.45645,-1.91738h6.70891l-0.64834,1.91738z" data-paper-data="{&quot;origPos&quot;:null}" fill="url(#color-11)"/><path d="M255.39013,184.28726v-7.30629l1.42087,-1.96415v10.67808z" data-paper-data="{&quot;origPos&quot;:null}" fill="url(#color-12)"/></g><g data-paper-data="{&quot;origPos&quot;:null}"><path d="M224.05266,196.58641v-1.00981h14.48406v1.43479h-14.09663z" data-paper-data="{&quot;origPos&quot;:null}" fill="url(#color-13)"/><path d="M223.29688,195.71971v-7.72228l1.47164,1.96505v5.75723l-0.72122,0.86462z" data-paper-data="{&quot;origPos&quot;:null,&quot;index&quot;:null}" fill="url(#color-14)"/><path d="M224.73005,195.7088v-5.89514h12.39423v5.89514z" data-paper-data="{&quot;origPos&quot;:null}" fill="#965016"/><path d="M224.73317,189.96181l-1.43512,-1.91826h15.27225l-1.4759,1.91826z" data-paper-data="{&quot;origPos&quot;:null}" fill="url(#color-15)"/><path d="M237.09455,195.71971v-5.75723l1.47164,-1.96505v9.03231z" data-paper-data="{&quot;origPos&quot;:null}" fill="url(#color-16)"/></g><g data-paper-data="{&quot;origPos&quot;:null}"><path d="M255.48328,197.00994h-13.94487v-1.43433h14.34948v1.00949z" data-paper-data="{&quot;origPos&quot;:null,&quot;index&quot;:null}" fill="url(#color-17)"/><path d="M255.89554,196.58302l-0.7157,-0.86434v-5.75538l1.46037,-1.96442v7.71979z" data-paper-data="{&quot;origPos&quot;:null,&quot;index&quot;:null}" fill="url(#color-18)"/><path d="M242.91853,195.70777v-5.89324h12.29945v5.89324z" data-paper-data="{&quot;origPos&quot;:null,&quot;index&quot;:null}" fill="#965016"/><path d="M242.9482,189.96264l-1.46461,-1.91764h15.15546l-1.42415,1.91764z" data-paper-data="{&quot;origPos&quot;:null,&quot;index&quot;:null}" fill="url(#color-19)"/><path d="M241.48767,197.02828v-9.0294l1.46039,1.96442v5.75538z" data-paper-data="{&quot;origPos&quot;:null,&quot;index&quot;:null}" fill="url(#color-20)"/></g><g data-paper-data="{&quot;origPos&quot;:null}"><path d="M224.05224,171.13267h14.48451v1.53028h-15.25115z" data-paper-data="{&quot;origPos&quot;:null}" fill="url(#color-21)"/><path d="M223.29639,172.63886v-7.6408l1.14044,-1.89521c0,0 2.61128,1.42179 2.6853,1.84984c0.05523,0.31933 -2.35407,0.0652 -2.35407,0.0652v6.2674z" data-paper-data="{&quot;origPos&quot;:null,&quot;index&quot;:null}" fill="url(#color-22)"/><path d="M225.34392,165.14421l-0.89415,-2.04593h14.12054l-1.47595,2.04593z" data-paper-data="{&quot;origPos&quot;:null}" fill="url(#color-23)"/><path d="M224.72965,171.27367v-6.28746h12.39461v6.28746z" data-paper-data="{&quot;origPos&quot;:null}" fill="#965016"/><path d="M237.09447,171.28531v-6.14038l1.45069,-2.05217l0.02098,9.58976z" data-paper-data="{&quot;origPos&quot;:null}" fill="url(#color-24)"/></g><g data-paper-data="{&quot;origPos&quot;:null}"><path d="M256.66625,172.65007h-15.25115v-1.53028h14.48451z" data-paper-data="{&quot;origPos&quot;:null}" fill="url(#color-25)"/><path d="M255.18375,171.27244v-6.2674c0,0 -2.86845,0.04346 -2.81371,-0.27299c0.07454,-0.43093 3.14496,-1.64206 3.14496,-1.64206l1.14044,1.8952v7.64081z" data-paper-data="{&quot;origPos&quot;:null,&quot;index&quot;:null}" fill="url(#color-26)"/><path d="M242.85747,165.13135l-1.47594,-2.04592h14.12054l-0.79229,2.04592z" data-paper-data="{&quot;origPos&quot;:null}" fill="url(#color-27)"/><path d="M242.82759,171.26078v-6.28746h12.39461v6.28746z" data-paper-data="{&quot;origPos&quot;:null}" fill="#965016"/><path d="M241.38566,172.66966l0.02097,-9.58976l1.45069,2.05217v6.14039z" data-paper-data="{&quot;origPos&quot;:null}" fill="url(#color-28)"/></g></g><g><g stroke="#000000" stroke-width="4"><path d="M249.02991,188.1569c0.29301,0.34801 0.69831,1.95162 0.12847,2.9809c-1.01071,1.82558 -3.81393,1.67836 -4.41184,1.67836c-2.89575,0 -3.88659,-0.6374 -4.45853,-1.8588c-0.26085,-0.55708 -0.72866,-2.35504 0.12674,-3.38229c0.95153,-1.1427 3.29973,-1.3362 4.33178,-1.3362c1.10744,0 3.36543,0.82781 4.28337,1.91804z" fill="url(#color-29)"/><path d="M249.15534,191.16433c-0.03012,0.01157 0.13178,-1.1858 0.13178,-1.1858c0,0 -0.42387,-0.92847 -1.6044,-1.62929c-0.83925,-0.49821 -2.09222,-0.84729 -3.04882,-0.81053c-1.12049,0.04813 -2.08144,0.33605 -2.90274,0.81174c-1.23091,0.71291 -1.71674,1.7245 -1.71674,1.7245c0,0 0.33007,0.97242 0.3259,0.97016c-0.8864,-0.48027 -1.44087,-0.88609 -1.84374,-1.38339c-1.11172,-1.08961 -1.38846,-3.17537 -1.19823,-4.61873c0.2773,-2.10395 1.51669,-4.21114 3.40609,-5.4151c1.37272,-0.87472 2.89955,-1.13619 3.99011,-1.13619c1.2957,0 3.26588,0.4111 4.8169,1.61419c1.55128,1.20328 2.12869,3.17269 2.50998,4.9891c0.17254,1.8082 -0.13139,3.56853 -1.10542,4.59945c0,0 -1.0542,1.19837 -1.76066,1.46989z" fill="url(#color-30)"/><g><g fill="url(#color-31)"><path d="M242.71074,189.79075v-1.48512c0,0 0.02918,-0.38689 0.46386,-0.38624c0.46794,0.0007 0.48602,0.38624 0.48602,0.38624v1.48512c0,0 -0.00534,0.43081 -0.47858,0.43081c-0.45222,0 -0.47129,-0.43081 -0.47129,-0.43081z"/></g><g fill="url(#color-32)"><path d="M245.74376,189.79075v-1.48512c0,0 0.02918,-0.38689 0.46388,-0.38624c0.46794,0.0007 0.486,0.38624 0.486,0.38624v1.48512c0,0 -0.00534,0.43081 -0.47858,0.43081c-0.45222,0 -0.4713,-0.43081 -0.4713,-0.43081z"/></g></g><g><g><path d="M242.71074,189.79075v-1.48512c0,0 0.02918,-0.38689 0.46386,-0.38624c0.46794,0.0007 0.48602,0.38624 0.48602,0.38624v1.48512c0,0 -0.00534,0.43081 -0.47858,0.43081c-0.45222,0 -0.47129,-0.43081 -0.47129,-0.43081z" fill="url(#color-33)"/><path d="M243.57431,188.55911c0,0.26371 -0.17606,0.4775 -0.39324,0.4775c-0.21718,0 -0.39323,-0.21379 -0.39323,-0.4775c0,-0.26371 0.17606,-0.4775 0.39323,-0.4775c0.21718,0 0.39324,0.21378 0.39324,0.4775z" fill="url(#color-34)"/><path d="M243.47819,188.55911c0,0.19925 -0.13303,0.36077 -0.29712,0.36077c-0.16409,0 -0.29711,-0.16152 -0.29711,-0.36077c0,-0.19925 0.13302,-0.36078 0.29711,-0.36078c0.16409,0 0.29712,0.16153 0.29712,0.36078z" fill="#ffffff"/></g><g><path d="M245.74376,189.79075v-1.48512c0,0 0.02918,-0.38689 0.46388,-0.38624c0.46794,0.0007 0.48601,0.38624 0.48601,0.38624v1.48512c0,0 -0.00534,0.43081 -0.47858,0.43081c-0.45222,0 -0.4713,-0.43081 -0.4713,-0.43081z" fill="url(#color-35)"/><path d="M246.60732,188.55911c0,0.26371 -0.17606,0.4775 -0.39324,0.4775c-0.21717,0 -0.39324,-0.21379 -0.39324,-0.4775c0,-0.26371 0.17606,-0.4775 0.39324,-0.4775c0.21718,0 0.39324,0.21378 0.39324,0.4775z" fill="url(#color-36)"/><path d="M246.5112,188.55911c0,0.19925 -0.13302,0.36077 -0.29711,0.36077c-0.16409,0 -0.29711,-0.16152 -0.29711,-0.36077c0,-0.19925 0.13302,-0.36078 0.29711,-0.36078c0.16409,0 0.29711,0.16153 0.29711,0.36078z" fill="#ffffff"/></g></g><path d="M248.10018,181.763c0,1.51236 -1.53639,2.84236 -3.43163,2.84236c-1.89524,0 -3.43163,-1.33 -3.43163,-2.84236c0,-1.51236 1.5364,-2.63439 3.43163,-2.63439c1.89524,0 3.43163,1.12203 3.43163,2.63439z" fill="#ffffff"/><path d="M238.35989,184.2934c0,1.16778 -0.04859,3.81293 -0.72792,3.81293c-0.19696,0 -0.58164,-1.3354 -0.41586,-2.80378c0.1726,-1.52875 1.05391,-3.25977 1.10911,-3.19292c0.40202,0.13865 0.03466,1.01599 0.03466,2.18376z" fill="#ffffff"/><path d="M250.98633,184.29339c0,-1.16778 -0.36736,-2.04511 0.03467,-2.18377c0.12453,-0.06686 0.93651,1.66417 1.10911,3.19292c0.16579,1.46839 -0.21889,2.80377 -0.41585,2.80377c-0.67933,0 -0.72792,-2.64515 -0.72792,-3.81292z" data-paper-data="{&quot;index&quot;:null}" fill="#ffffff"/></g><path d="M249.02991,188.15691c0.29301,0.34801 0.69831,1.95162 0.12847,2.9809c-1.01071,1.82558 -3.81393,1.67836 -4.41184,1.67836c-2.89575,0 -3.88659,-0.6374 -4.45853,-1.8588c-0.26085,-0.55708 -0.72866,-2.35504 0.12674,-3.38229c0.95153,-1.1427 3.29973,-1.3362 4.33178,-1.3362c1.10744,0 3.36543,0.82781 4.28337,1.91804z" fill="url(#color-37)" stroke="none" stroke-width="0"/><path d="M249.15839,191.1378c-1.0107,1.82558 -3.81394,1.67835 -4.41185,1.67835c-2.89575,0 -3.88659,-0.6374 -4.45853,-1.8588c-0.26085,-0.55708 -0.72866,-2.35504 0.12674,-3.38229c0.95153,-1.1427 3.29973,-1.3362 4.33179,-1.3362c1.10744,0 3.36542,0.82782 4.28337,1.91805c0,0 0.69831,1.95162 0.12847,2.9809z" fill="url(#color-38)" stroke="none" stroke-width="0"/><path d="M249.15534,191.16434c-0.03012,0.01157 0.13178,-1.1858 0.13178,-1.1858c0,0 -0.42387,-0.92847 -1.6044,-1.62929c-0.83925,-0.49821 -2.09222,-0.84729 -3.04882,-0.81053c-1.12049,0.04813 -2.08144,0.33605 -2.90274,0.81173c-1.23091,0.71291 -1.71674,1.7245 -1.71674,1.7245c0,0 0.33007,0.97242 0.3259,0.97016c-0.8864,-0.48027 -1.44087,-0.88609 -1.84374,-1.38338c-1.11172,-1.08961 -1.38846,-3.17537 -1.19823,-4.61873c0.2773,-2.10395 1.51669,-4.21115 3.40609,-5.4151c1.37272,-0.87472 2.89955,-1.1362 3.99011,-1.1362c1.2957,0 3.26588,0.41111 4.8169,1.6142c1.55128,1.20328 2.12869,3.17269 2.50998,4.9891c0.17254,1.8082 -0.13139,3.56854 -1.10542,4.59945c0,0 -1.0542,1.19837 -1.76066,1.46988z" fill="url(#color-39)" stroke="none" stroke-width="0"/><path d="M249.138,191.18166c-0.03012,0.01157 0.1491,-1.20313 0.1491,-1.20313c0,0 -0.42386,-0.92847 -1.60439,-1.62929c-0.83925,-0.49821 -2.09222,-0.79529 -3.04883,-0.75853c-1.12049,0.04813 -2.08143,0.28405 -2.90274,0.75974c-1.23091,0.71291 -1.71675,1.72449 -1.71675,1.72449c0,0 0.3474,0.97242 0.34323,0.97016c-0.8864,-0.48027 -1.45819,-0.88609 -1.86106,-1.38339c-1.11172,-1.08961 -1.5102,-3.16289 -1.25023,-4.61873c0.36986,-2.07119 1.4647,-4.21114 3.3541,-5.4151c1.37272,-0.87472 3.00355,-1.1362 4.09411,-1.1362c1.2957,0 3.30054,0.4111 4.85156,1.61419c1.55128,1.20328 2.17768,3.21014 2.54464,4.9891c0.36396,1.76442 -0.20071,3.56854 -1.17475,4.59945c0,0 -1.07153,1.21571 -1.77799,1.48722z" fill="url(#color-40)" stroke="none" stroke-width="0"/><g stroke-width="0"><g><path d="M242.71074,189.79076v-1.48512c0,0 0.02918,-0.38689 0.46386,-0.38625c0.46794,0.0007 0.48602,0.38625 0.48602,0.38625v1.48512c0,0 -0.00534,0.43081 -0.47858,0.43081c-0.45222,0 -0.47129,-0.43081 -0.47129,-0.43081z" fill="url(#color-41)" stroke="url(#color-42)"/><path d="M243.57431,188.55911c0,0.26371 -0.17606,0.4775 -0.39324,0.4775c-0.21718,0 -0.39323,-0.21379 -0.39323,-0.4775c0,-0.26371 0.17606,-0.47751 0.39323,-0.47751c0.21718,0 0.39324,0.21379 0.39324,0.47751z" fill="url(#color-43)" stroke="none"/><path d="M243.47819,188.55911c0,0.19925 -0.13303,0.36077 -0.29712,0.36077c-0.16409,0 -0.29711,-0.16152 -0.29711,-0.36077c0,-0.19925 0.13302,-0.36078 0.29711,-0.36078c0.16409,0 0.29712,0.16153 0.29712,0.36078z" fill="#ffffff" stroke="none"/></g><g><path d="M245.74376,189.79076v-1.48512c0,0 0.02918,-0.38689 0.46388,-0.38625c0.46794,0.0007 0.48601,0.38625 0.48601,0.38625v1.48512c0,0 -0.00534,0.43081 -0.47858,0.43081c-0.45222,0 -0.4713,-0.43081 -0.4713,-0.43081z" fill="url(#color-44)" stroke="url(#color-45)"/><path d="M246.60732,188.55911c0,0.26371 -0.17606,0.4775 -0.39324,0.4775c-0.21717,0 -0.39324,-0.21379 -0.39324,-0.4775c0,-0.26371 0.17606,-0.47751 0.39324,-0.47751c0.21718,0 0.39324,0.21379 0.39324,0.47751z" fill="url(#color-46)" stroke="none"/><path d="M246.5112,188.55911c0,0.19925 -0.13302,0.36077 -0.29711,0.36077c-0.16409,0 -0.29711,-0.16152 -0.29711,-0.36077c0,-0.19925 0.13302,-0.36078 0.29711,-0.36078c0.16409,0 0.29711,0.16153 0.29711,0.36078z" fill="#ffffff" stroke="none"/></g></g><path d="M248.10018,181.763c0,1.51236 -1.53639,2.84236 -3.43163,2.84236c-1.89524,0 -3.43163,-1.33 -3.43163,-2.84236c0,-1.51236 1.5364,-2.63439 3.43163,-2.63439c1.89524,0 3.43163,1.12202 3.43163,2.63439z" fill="#ffffff" stroke="none" stroke-width="0"/><path d="M238.35989,184.2934c0,1.16778 -0.04859,3.81293 -0.72792,3.81293c-0.19696,0 -0.58164,-1.3354 -0.41586,-2.80378c0.1726,-1.52875 1.05391,-3.25978 1.10911,-3.19292c0.40202,0.13865 0.03466,1.01599 0.03466,2.18377z" fill="#ffffff" stroke="none" stroke-width="0"/><path d="M250.98633,184.2934c0,-1.16778 -0.36736,-2.04511 0.03467,-2.18376c0.12453,-0.06686 0.93651,1.66416 1.10911,3.19291c0.16579,1.46839 -0.21889,2.80378 -0.41585,2.80378c-0.67933,0 -0.72792,-2.64515 -0.72792,-3.81293z" data-paper-data="{&quot;index&quot;:null}" fill="#ffffff" stroke="none" stroke-width="0"/></g></g></g></svg>