<svg version="1.1" xmlns="http://www.w3.org/2000/svg" xmlns:xlink="http://www.w3.org/1999/xlink" width="76.64198" height="83.66786" viewBox="0,0,76.64198,83.66786"><g transform="translate(-197.25473,-113.37854)"><g data-paper-data="{&quot;isPaintingLayer&quot;:true}" fill-rule="nonzero" stroke="none" stroke-width="0.5" stroke-linecap="butt" stroke-linejoin="miter" stroke-miterlimit="10" stroke-dasharray="" stroke-dashoffset="0" style="mix-blend-mode: normal"><path d="M223.33419,138.66043c-2.46598,-0.411 -2.05499,-2.87698 -2.05499,-2.87698c0.71019,-4.14916 1.93902,-8.17071 3.04974,-12.23067c0.3517,-1.28557 0.84884,-5.6032 1.71004,-6.18558c1.08692,-0.73502 9.52393,-1.70707 11.30185,-1.93755c3.30568,-0.42851 6.60349,-0.92273 9.91703,-1.28554c1.99704,-0.21866 4.0923,-1.18364 6.00112,-0.55722c4.96185,1.62833 5.54639,5.3621 7.08266,9.4114c1.95523,5.15358 1.57718,10.23852 0.93167,15.65794c-1.70051,0.67905 -3.27057,2.01671 -5.10154,2.03715c-5.87518,0.06558 -4.71208,-4.59864 -5.82292,-8.28655c-0.51772,-1.71878 -1.48107,-3.28159 -2,-5c-0.36641,-1.21337 0.44013,-3.0975 -0.64844,-3.74676c-2.36098,-1.40819 -5.52667,2.08795 -7.06023,3.10902c-0.75992,0.50597 -1.63121,0.84135 -2.35644,1.39589c-1.02775,0.78586 -2.31798,1.5742 -2.66682,2.82006c-0.59152,2.11255 -0.22373,4.95189 -1.97014,6.2796c-1.04157,0.79185 -2.60105,0.28655 -3.90157,0.42983h-2.5v0c-0.46895,0 -0.90774,-0.12912 -1.28276,-0.35374c-0.33181,0.68981 -1.06948,1.57952 -2.62823,1.31973z" fill="#9966ff"/><path d="M246.88892,144.48069l-1.47643,2.46071c-0.43183,0.74893 -1.24069,1.25305 -2.16731,1.25305c-1.22888,0 -2.25067,-0.88665 -2.46053,-2.05512l-0.49092,-2.45459c0,0 -0.09317,-0.46583 0.00479,-1.03198c-0.8412,-0.18239 -1.62932,-0.45178 -2.32707,-0.80713c-0.23417,-0.11926 -3.93514,-4.78538 -4.17844,-5.08945c0,0 -1.56174,-1.95217 0.39043,-3.51391c0.38624,-0.309 0.7572,-0.48044 1.10381,-0.55665c-0.56081,-0.69365 -1.17903,-1.36323 -1.03578,-2.1684c0.70233,-3.94773 3.17633,-3.30534 5.31936,-5.17927c1.93588,-1.69279 1.34602,-4.08103 5.17435,-4.14351c2.97841,-0.04861 7.15458,5.40117 7.90929,7.83267c0.43517,1.402 0.51263,7.85054 -0.09959,9.12404c-0.99388,2.06741 -3.04281,3.45464 -5.40155,4.18213c0.3759,1.08022 -0.26441,2.1474 -0.26441,2.1474zM244.74519,126.19445c-0.18663,-0.03796 -0.15216,0.25341 -0.16892,0.50562c0.05582,-0.00372 0.11215,-0.00562 0.16892,-0.00562c0.08162,0 0.16232,0.00391 0.24193,0.01156c-0.03175,-0.23413 -0.04685,-0.47188 -0.24193,-0.51156zM242.29284,137.881c0.20194,0.01268 0.41238,0.0205 0.62828,0.02307c-0.10905,-0.1163 -0.2071,-0.24304 -0.2925,-0.37855c-0.1379,0.148 -0.25213,0.26908 -0.33577,0.35548z" fill="#ffeab8"/><path d="M250.19664,135.70416c0.49029,2.45145 -1.96116,2.94174 -1.96116,2.94174l-2.5,0.5c-2.12046,0.35446 -4.39929,0.10708 -6.41877,-0.63026c0,0 -2.32119,-0.92848 -1.39272,-3.24967c0.92848,-2.32119 3.24967,-1.39272 3.24967,-1.39272c1.08944,0.50333 2.41957,0.67101 3.58123,0.36974l2.5,-0.5c0,0 2.45145,-0.49029 2.94174,1.96116z" fill="#000000"/><path d="M238.74519,128.19445c0,-1.38071 1.11929,-2.5 2.5,-2.5c1.38071,0 2.5,1.11929 2.5,2.5c0,1.38071 -1.11929,2.5 -2.5,2.5c-1.38071,0 -2.5,-1.11929 -2.5,-2.5z" fill="#000000"/><path d="M245.74519,127.69445c0,-1.38071 1.11929,-2.5 2.5,-2.5c1.38071,0 2.5,1.11929 2.5,2.5c0,1.38071 -1.11929,2.5 -2.5,2.5c-1.38071,0 -2.5,-1.11929 -2.5,-2.5z" fill="#000000"/><path d="M257.66458,149.90808l0.36287,0.26593c0.08737,0.39674 0.21701,0.78927 0.36614,1.17948c0.23362,0.47344 0.44301,0.96257 0.62305,1.46242c2.30288,0.71848 1.63235,3.06533 1.63235,3.06533l-0.61879,1.99075l0.15631,0.78153c0.03842,0.17418 0.05867,0.35518 0.05867,0.54091c0,0.41599 -0.1016,0.80826 -0.28135,1.15333c0.00768,0.133 0.01283,0.26628 0.01569,0.3998l0.21711,-0.04342l0.48988,2.44938c0.03842,0.17418 0.05867,0.35518 0.05867,0.54091c0,1.38071 -1.11929,2.5 -2.5,2.5c-0.69036,0 -1.31536,-0.27982 -1.76777,-0.73223l-0.05786,-0.05786c0.12594,0.84649 0.23412,1.69414 0.31346,2.54375c0.09298,0.99567 -0.01294,2.00008 0,3c0.01783,1.37793 0.9405,3.04703 0.09229,4.13309c-2.62478,3.36084 -9.50111,0.66217 -12.78633,0.10473c-0.92219,-0.0122 -1.8695,0.17753 -2.76657,-0.03659c-1.24524,-0.29722 -2.54373,-0.67656 -3.54795,-1.4706c-5.4166,-4.28293 -0.96163,-10.55286 -0.46712,-15.73064c0.09952,-1.042 -0.04507,-2.15209 -0.20908,-3.25366c-0.48389,0 -0.98148,0 -1.46774,0c-0.55689,1.5 -2.33534,1.5 -2.33534,1.5l-0.99029,-0.04855c-0.11352,-0.02333 -0.22819,-0.04239 -0.34383,-0.05783c-1.13902,1.56927 -2.42421,2.90188 -4.21191,3.06482c-6.01048,0.54783 -9.41604,-4.30668 -6.54107,-9.33466c2.58992,-4.52947 9.32162,-6.55146 14.0871,-6.62377c0,0 1.34231,0 2.05977,0.98358c1.04315,-0.15638 1.94023,0.51642 1.94023,0.51642c2.32742,1.82059 4.08409,2.00648 7,2c1.45559,-0.00323 4.0521,-0.13795 5.70148,0.53286c0.33459,-0.03455 0.67715,-0.10528 1.02109,-0.1823c0.37385,-0.22266 0.81071,-0.35056 1.27744,-0.35056c0.16935,0 0.33477,0.01684 0.49467,0.04893c0.41963,-0.01083 0.82289,0.05275 1.19609,0.25287c0.80633,0.43236 1.14486,1.34552 1.48111,2.2607l0.32813,0.4375l-0.12774,0.0958c0.01553,0.03947 0.03123,0.07876 0.04714,0.11784z" fill="#9966ff"/><path d="M259.74519,170.19445c-0.71785,0 -1.22958,-0.20612 -1.59437,-0.5c-0.49131,0 -0.90563,0 -0.90563,0c-1.38071,0 -2.5,-1.11929 -2.5,-2.5c0,-1.38071 1.11929,-2.5 2.5,-2.5h2.5c0,0 2.5,0 2.5,2.5c0,0.16483 -0.01087,0.31879 -0.03117,0.4626l0.03117,0.0374c0,0 0,2.5 -2.5,2.5z" fill="#ffeab8"/><path d="M223.04516,156.92811l1.02122,0.83786c0.20026,1.67574 1.73811,3.78034 0.60079,5.02722c-2.80379,3.07389 -9.42887,-1.77591 -9.92102,-4.02938c-0.12505,-0.57258 3.9024,-4.50432 4.73127,-5.33713c0,0 1.76777,-1.76777 3.53553,0c1.62404,1.62404 0.26408,3.24808 0.03221,3.50143z" fill="#ffeab8"/><path d="M222.74519,161.69445c0,-1.38071 1.11929,-2.5 2.5,-2.5c1.38071,0 2.5,1.11929 2.5,2.5c0,1.38071 -1.11929,2.5 -2.5,2.5c-1.38071,0 -2.5,-1.11929 -2.5,-2.5z" fill="#825b00"/><path d="M210.14473,147.7739c1.92055,-1.60046 3.52101,0.32009 3.52101,0.32009c1.06697,1.28037 3.93303,4.71963 5,6c0,0 1.60046,1.92055 -0.32009,3.52101c-1.92055,1.60046 -3.52101,-0.32009 -3.52101,-0.32009c-1.06697,-1.28037 -2.13395,-2.56074 -3.20092,-3.84111l-1.79908,-2.15889c0,0 -1.60046,-1.92055 0.32009,-3.52101z" fill="#825b00"/><path d="M212.44644,146.99345c0.09822,0.05856 0.19785,0.12533 0.29874,0.201c2,1.5 0.5,3.5 0.5,3.5c-0.5,0.66667 -1,1.33333 -1.5,2l-1.48254,1.97672c-0.45492,0.62044 -1.18914,1.02328 -2.01746,1.02328c-1.22888,0 -2.25067,-0.88665 -2.46053,-2.05512l-0.49092,-2.45459l0.4776,-0.09552c-0.0168,-0.06017 -0.03282,-0.12048 -0.048,-0.18092c-2.72177,0.10171 -7.36064,-0.71034 -7.65365,-1.48211c-2.66126,-7.00956 1.85588,-4.91195 4.10533,-6.13332c0.16067,-0.08724 -0.23625,-0.27995 -0.33912,-0.43109c-0.42196,-0.62003 -0.82296,-1.25406 -1.23444,-1.88109l-1.47886,-2.46477c-0.2392,-0.38339 -0.37741,-0.83629 -0.37741,-1.32147c0,-1.38071 1.11929,-2.5 2.5,-2.5c0.34826,0 0.67989,0.07121 0.98112,0.19986l2.44736,0.97894l-0.01563,0.03908c0.06613,0.01344 0.13215,0.02759 0.19806,0.04249c0.94456,0.21356 1.64219,1.09995 2.54767,1.41444l1.37482,-1.71853c0.45772,-0.5823 1.16848,-0.9563 1.9666,-0.9563c1.38071,0 2.5,1.11929 2.5,2.5c0,0.34826 -0.07121,0.67989 -0.19986,0.98112l-0.40713,1.01782c0.67638,-0.31285 1.36211,-0.60819 2.03261,-0.93206l0.57438,0.18496v-0.25183h2.5c1.38071,0 2.5,1.11929 2.5,2.5c0,0.92661 -0.50412,1.73548 -1.25305,2.16731l-2.46071,1.47643l-0.09356,-0.15594c-0.77318,0.7677 -1.58047,1.49817 -2.43397,2.17222z" fill="#fffc00"/><path d="M238.28737,172.03482c0.91491,-0.37153 2.35594,0.32481 4.74926,3.05421c2.4634,2.80933 -0.5,4.7809 -1.04289,7.00817c-0.93093,3.8193 2.80154,12.90874 -5.79708,10.47642c-1.70873,-0.48335 -3.07192,-2.12757 -3.77628,-3.75768c-0.55804,-1.29149 0.1771,-2.80934 0.33462,-4.20739c0.47871,-4.24893 -0.07145,-7.94757 2.06088,-11.74152c0,0 1.28624,-2.14373 3.42997,-0.85749c0.01399,0.00839 0.02783,0.01682 0.04153,0.02529z" fill="#00caff"/><path d="M256.47455,175.51753c2.45085,1.8461 8.31839,6.24224 7.66496,10.00685c-0.7308,4.21045 -4.86499,4.41665 -7.78372,3.57875c-4.02533,-1.15558 -7.37277,-6.18134 -10.47398,-8.85722c0,0 -1.8919,-1.63423 -0.25766,-3.52613c1.63423,-1.8919 3.52613,-0.25766 3.52613,-0.25766c0.31457,0.272 0.62281,0.55014 0.92629,0.83281c-0.08163,-1.19251 0.70428,-2.30584 1.90515,-2.59728c0.40804,-0.09903 0.81702,-0.09176 1.19776,0.00405l2.78534,0.63914l-0.04304,0.18758z" fill="#00caff"/><path d="M234.84177,189.62735c0.70024,-1.06746 2.11782,-1.06746 2.11782,-1.06746l2.41854,0.26393c0.92445,0.46293 1.77149,1.06099 2.56057,1.7406l0.20865,-0.34775l2.12822,1.27693c0.74893,0.43183 1.25305,1.24069 1.25305,2.16731c0,1.38071 -1.11929,2.5 -2.5,2.5h-3.03452c-2.21877,0 -9.15264,0.88737 -10.79809,-0.14093c-0.23736,-0.14834 -0.45468,-0.318 -0.65598,-0.5047l-0.07824,0.0978l-2.14948,-1.71959c-0.5823,-0.45772 -0.9563,-1.16848 -0.9563,-1.9666c0,-1.38071 1.11929,-2.5 2.5,-2.5c0.1348,0 0.26711,0.01067 0.39613,0.03121l2.85983,0.40855c1.2454,-0.00213 2.49118,-0.09406 3.72979,-0.2393z" fill="#005e75"/><path d="M254.72903,193.28267c0.59498,-1.3376 1.62482,-1.54352 2.37621,-1.48447c3.43241,-2.12804 6.9734,-3.89945 10.39006,-6.06625l2.56411,-1.62285c1.16667,-0.7384 2.71104,-0.39121 3.44944,0.77546c0.60143,0.95027 0.48266,2.1511 -0.21252,2.9629l-1.69768,2.07897l-0.07615,-0.06218c-0.064,0.11891 -0.13125,0.23628 -0.20215,0.35194c-0.52292,0.85302 -1.67657,1.0925 -2.51892,1.63245c-2.95659,1.89519 -6.08539,3.32379 -9.02308,5.19775l-3.78114,-0.46347c0,0 -2.28422,-1.01604 -1.26818,-3.30027z" fill="#005e75"/></g></g></svg>