<svg version="1.1" xmlns="http://www.w3.org/2000/svg" xmlns:xlink="http://www.w3.org/1999/xlink" width="328" height="205" viewBox="0,0,328,205"><defs><linearGradient x1="283.03175" y1="179.92032" x2="291.85833" y2="179.92032" gradientUnits="userSpaceOnUse" id="color-1"><stop offset="0" stop-color="#14b0f7"/><stop offset="1" stop-color="#16aaff"/></linearGradient><linearGradient x1="273.90522" y1="162.32548" x2="273.90522" y2="171.12691" gradientUnits="userSpaceOnUse" id="color-2"><stop offset="0" stop-color="#26ccf7"/><stop offset="1" stop-color="#31e0fb"/></linearGradient><linearGradient x1="273.88363" y1="188.89695" x2="273.88363" y2="197.67451" gradientUnits="userSpaceOnUse" id="color-3"><stop offset="0" stop-color="#139df5"/><stop offset="1" stop-color="#187ae3"/></linearGradient><linearGradient x1="239.93126" y1="162.32548" x2="239.93126" y2="171.12691" gradientUnits="userSpaceOnUse" id="color-4"><stop offset="0" stop-color="#26ccf7"/><stop offset="1" stop-color="#31e0fb"/></linearGradient><linearGradient x1="222.14165" y1="179.99518" x2="230.81702" y2="179.99518" gradientUnits="userSpaceOnUse" id="color-5"><stop offset="0" stop-color="#0889ef"/><stop offset="1" stop-color="#0aa4f0"/></linearGradient><linearGradient x1="239.90967" y1="188.89695" x2="239.90967" y2="197.67451" gradientUnits="userSpaceOnUse" id="color-6"><stop offset="0" stop-color="#139df5"/><stop offset="1" stop-color="#187ae3"/></linearGradient><radialGradient cx="239.8777" cy="180.05714" r="10.62935" gradientUnits="userSpaceOnUse" id="color-7"><stop offset="0" stop-color="#0fc5f5"/><stop offset="1" stop-color="#19cbfb"/></radialGradient><linearGradient x1="239.90292" y1="169.84809" x2="239.90292" y2="177.01179" gradientUnits="userSpaceOnUse" id="color-8"><stop offset="0" stop-color="#94f3ff"/><stop offset="1" stop-color="#94f3ff" stop-opacity="0"/></linearGradient></defs><g transform="translate(-76,-77.5)"><g data-paper-data="{&quot;isPaintingLayer&quot;:true}" fill-rule="nonzero" stroke="none" stroke-linecap="butt" stroke-linejoin="miter" stroke-miterlimit="10" stroke-dasharray="" stroke-dashoffset="0" style="mix-blend-mode: normal"><path d="M76,282.5v-205h328v205z" fill="none" stroke-width="0"/><g><path d="M283.06849,188.97202l-0.03673,-17.86156l7.89681,-7.85818l0.92978,0.9806l-0.09985,31.21454l-1.09246,1.14094z" fill="url(#color-1)" stroke-width="0"/><path d="M251.85503,171.12691l2.38465,-8.80142h35.74229l0.96511,0.89532l-7.87084,7.9061z" fill="url(#color-2)" stroke-width="0"/><path d="M256.46896,197.67451l-4.57815,-8.77545l31.1569,-0.00212l7.67138,7.67445l-1.15864,1.05778z" fill="url(#color-3)" stroke-width="0"/><path d="M230.7342,171.12691l-7.8448,-8.03939l0.71118,-0.76203h33.86643l-0.37495,8.80142z" fill="url(#color-4)" stroke-width="0"/><path d="M222.14165,196.15305v-32.21012l0.78455,-0.87728l7.89082,8.14245l-0.0206,17.70982l-7.72455,8.00679z" fill="url(#color-5)" stroke-width="0"/><path d="M223.954,197.67451l-0.87981,-0.76235l7.69579,-8.01309l33.35699,-0.00212l-7.08147,8.73223z" fill="url(#color-6)" stroke-width="0"/><g><g><path d="M229.24836,172.63504c0,-1.52705 1.60271,-2.92299 2.90684,-2.92299c2.09302,0 45.79444,0.09749 49.4107,0.09749c1.62776,0 2.86881,1.22199 2.86881,2.96961c0,1.99612 0,10.89428 0,14.33866c0,1.97011 -1.33591,3.2844 -3.45371,3.2844c-3.39185,0 -46.74552,0 -48.73254,0c-1.90986,0 -3.09755,-1.80175 -3.00008,-2.99195c0.04146,-0.50612 0,-12.8253 0,-14.77522z" data-paper-data="{&quot;origPos&quot;:null}" fill="url(#color-7)" stroke-width="0"/><g data-paper-data="{&quot;origPos&quot;:null}" fill="none" stroke-width="1" font-family="sans-serif" font-weight="normal" font-size="12" text-anchor="start"/></g><path d="M229.2075,177.01179c0,0 0,-2.91183 0,-4.21696c0,-1.58622 1.43179,-2.94674 2.76071,-2.94674c2.44151,0 44.67572,0 49.33016,0c1.92672,0 3.22762,1.04438 3.22762,2.84926c0,1.29789 0,4.31445 0,4.31445z" fill="url(#color-8)" stroke-width="0"/></g></g></g></g></svg>