<svg version="1.1" xmlns="http://www.w3.org/2000/svg" xmlns:xlink="http://www.w3.org/1999/xlink" width="328" height="205" viewBox="0,0,328,205"><defs><linearGradient x1="256.91677" y1="162.90135" x2="256.91677" y2="172.31126" gradientUnits="userSpaceOnUse" id="color-1"><stop offset="0" stop-color="#e8f6ff"/><stop offset="1" stop-color="#9babb6"/></linearGradient><linearGradient x1="256.91677" y1="232.00791" x2="256.91677" y2="222.59799" gradientUnits="userSpaceOnUse" id="color-2"><stop offset="0" stop-color="#546266"/><stop offset="1" stop-color="#95a6af"/></linearGradient><linearGradient x1="223.04064" y1="197.77554" x2="232.45051" y2="197.79116" gradientUnits="userSpaceOnUse" id="color-3"><stop offset="0" stop-color="#83929d"/><stop offset="1" stop-color="#8fa5b3"/></linearGradient><linearGradient x1="291.74546" y1="197.78802" x2="282.33549" y2="197.77242" gradientUnits="userSpaceOnUse" id="color-4"><stop offset="0" stop-color="#75828a"/><stop offset="1" stop-color="#94a8b6"/></linearGradient><linearGradient x1="256.92268" y1="219.38571" x2="256.92268" y2="213.57288" gradientUnits="userSpaceOnUse" id="color-5"><stop offset="0" stop-color="#8c9ba5"/><stop offset="1" stop-color="#d5e3ea"/></linearGradient><linearGradient x1="256.92268" y1="176.69632" x2="256.92268" y2="182.5091" gradientUnits="userSpaceOnUse" id="color-6"><stop offset="0" stop-color="#97a7b1"/><stop offset="1" stop-color="#5b696e"/></linearGradient><linearGradient x1="235.99628" y1="197.84276" x2="241.80906" y2="197.83311" gradientUnits="userSpaceOnUse" id="color-7"><stop offset="0" stop-color="#8fa5b3"/><stop offset="1" stop-color="#71818a"/></linearGradient><linearGradient x1="278.43747" y1="197.83506" x2="272.62468" y2="197.84467" gradientUnits="userSpaceOnUse" id="color-8"><stop offset="0" stop-color="#94a8b6"/><stop offset="1" stop-color="#7b9099"/></linearGradient><radialGradient cx="240.25103" cy="178.65938" r="6.52249" gradientUnits="userSpaceOnUse" id="color-9"><stop offset="0" stop-color="#bfcad1"/><stop offset="1" stop-color="#627380"/></radialGradient><radialGradient cx="274.31298" cy="178.65938" r="6.52251" gradientUnits="userSpaceOnUse" id="color-10"><stop offset="0" stop-color="#bfcad1"/><stop offset="1" stop-color="#627380"/></radialGradient><radialGradient cx="240.49263" cy="213.92919" r="6.52248" gradientUnits="userSpaceOnUse" id="color-11"><stop offset="0" stop-color="#b5c0c7"/><stop offset="1" stop-color="#5f707d"/></radialGradient><radialGradient cx="274.55455" cy="213.92919" r="6.52249" gradientUnits="userSpaceOnUse" id="color-12"><stop offset="0" stop-color="#b5c0c7"/><stop offset="1" stop-color="#5f707d"/></radialGradient></defs><g transform="translate(-76,-77.5)"><g data-paper-data="{&quot;isPaintingLayer&quot;:true}" fill-rule="nonzero" stroke="none" stroke-linecap="butt" stroke-linejoin="miter" stroke-miterlimit="10" stroke-dasharray="" stroke-dashoffset="0" style="mix-blend-mode: normal"><g><path d="M231.79067,172.31126l-7.86615,-7.50135l1.41172,-1.90858h63.1611l2.0363,1.91464l-7.56866,7.49527z" data-paper-data="{&quot;origPos&quot;:null}" fill="url(#color-1)" stroke-width="0"/><path d="M282.96499,222.59799l7.5416,7.43214l-2.00924,1.97779h-63.1611l-1.42538,-1.55302l7.8798,-7.85692z" data-paper-data="{&quot;origPos&quot;:null,&quot;index&quot;:null}" fill="url(#color-2)" stroke-width="0"/><path d="M232.40893,222.99955l-8.04908,7.98669l-1.37149,-1.52675l0.10456,-63.36791l1.31869,-1.82419l8.082,7.39028z" data-paper-data="{&quot;origPos&quot;:null,&quot;origRot&quot;:0}" fill="url(#color-3)" stroke-width="0"/><path d="M282.37865,171.72427l7.61875,-7.37953l1.80031,1.86274l-0.10458,62.57083l-1.64369,1.74423l-7.75553,-7.62405z" data-paper-data="{&quot;origPos&quot;:null,&quot;index&quot;:null,&quot;origRot&quot;:0}" fill="url(#color-4)" stroke-width="0"/><path d="M231.76252,223.13681v-51.41019h51.22661v51.41019z" data-paper-data="{&quot;origPos&quot;:null}" fill="#96a7b3" stroke-width="NaN"/><g><g data-paper-data="{&quot;origPos&quot;:null,&quot;index&quot;:null}"><path d="M273.01354,213.57288l4.67541,4.63006l-1.25789,1.18274h-39.01668l-0.87209,-1.17897l4.85916,-4.63382z" data-paper-data="{&quot;origPos&quot;:null}" fill="url(#color-5)" stroke-width="0"/><path d="M241.40144,182.5091l-4.86761,-4.85347l0.88051,-0.95936h39.01668l1.24118,1.22179l-4.6587,4.59104z" data-paper-data="{&quot;origPos&quot;:null,&quot;index&quot;:null}" fill="url(#color-6)" stroke-width="0"/><path d="M241.83568,213.97664l-4.99251,4.56522l-0.8146,-1.12684l-0.06459,-39.14444l0.8472,-0.94315l4.97219,4.93364z" data-paper-data="{&quot;origPos&quot;:null,&quot;origRot&quot;:0}" fill="url(#color-7)" stroke-width="0"/><path d="M272.59898,182.32349l4.79088,-4.70961l1.01536,1.07748l0.06462,38.65207l-1.1121,1.15069l-4.70635,-4.55859z" data-paper-data="{&quot;origPos&quot;:null,&quot;index&quot;:null,&quot;origRot&quot;:0}" fill="url(#color-8)" stroke-width="0"/><path d="M273.02845,182.17626v31.75778h-31.64436v-31.75778z" data-paper-data="{&quot;origPos&quot;:null}" fill="#90a1ac" stroke-width="NaN"/></g><path d="M233.81552,180.48568c0,-3.60227 2.92023,-6.52248 6.5225,-6.52248c3.60227,0 6.52251,2.92022 6.52251,6.52248c0,3.60227 -2.92023,6.52251 -6.52251,6.52251c-3.60227,0 -6.5225,-2.92023 -6.5225,-6.52251z" data-paper-data="{&quot;origPos&quot;:null}" fill="url(#color-9)" stroke-width="0"/><path d="M267.87744,180.48568c0,-3.60227 2.92024,-6.52248 6.52251,-6.52248c3.60227,0 6.52249,2.92022 6.52249,6.52248c0,3.60227 -2.92022,6.52251 -6.52249,6.52251c-3.60227,0 -6.52251,-2.92023 -6.52251,-6.52251z" data-paper-data="{&quot;origPos&quot;:null}" fill="url(#color-10)" stroke-width="0"/><path d="M234.05711,215.75549c0,-3.60227 2.92023,-6.52251 6.5225,-6.52251c3.60227,0 6.52251,2.92023 6.52251,6.52251c0,3.60227 -2.92024,6.52249 -6.52251,6.52249c-3.60227,0 -6.5225,-2.92022 -6.5225,-6.52249z" data-paper-data="{&quot;origPos&quot;:null}" fill="url(#color-11)" stroke-width="0"/><path d="M268.11903,215.75549c0,-3.60227 2.92023,-6.52251 6.52251,-6.52251c3.60227,0 6.52249,2.92023 6.52249,6.52251c0,3.60227 -2.92022,6.52249 -6.52249,6.52249c-3.60227,0 -6.52251,-2.92022 -6.52251,-6.52249z" data-paper-data="{&quot;origPos&quot;:null}" fill="url(#color-12)" stroke-width="0"/></g></g><path d="M76,282.5v-205h328v205z" fill="none" stroke-width="0"/></g></g></svg>