<svg version="1.1" xmlns="http://www.w3.org/2000/svg" xmlns:xlink="http://www.w3.org/1999/xlink" width="328" height="205" viewBox="0,0,328,205"><defs><linearGradient x1="253.10403" y1="184.11333" x2="263.89458" y2="184.11333" gradientUnits="userSpaceOnUse" id="color-1"><stop offset="0" stop-color="#835115"/><stop offset="1" stop-color="#664011"/></linearGradient><radialGradient cx="260.62335" cy="182.77513" r="7.90168" gradientUnits="userSpaceOnUse" id="color-2"><stop offset="0" stop-color="#5a390f"/><stop offset="1" stop-color="#5a390f" stop-opacity="0"/></radialGradient><linearGradient x1="253.10403" y1="184.11333" x2="257.43722" y2="184.11333" gradientUnits="userSpaceOnUse" id="color-3"><stop offset="0" stop-color="#b87a27"/><stop offset="1" stop-color="#b87a27" stop-opacity="0"/></linearGradient><linearGradient x1="253.01912" y1="129.87996" x2="263.89459" y2="129.87996" gradientUnits="userSpaceOnUse" id="color-4"><stop offset="0" stop-color="#b06e14"/><stop offset="1" stop-color="#9a6321"/></linearGradient><radialGradient cx="261.4448" cy="131.41965" r="6.28735" gradientUnits="userSpaceOnUse" id="color-5"><stop offset="0" stop-color="#75450d"/><stop offset="1" stop-color="#75450d" stop-opacity="0"/></radialGradient><linearGradient x1="261.07662" y1="130.43002" x2="263.79553" y2="130.43002" gradientUnits="userSpaceOnUse" id="color-6"><stop offset="0" stop-color="#8f5404" stop-opacity="0"/><stop offset="1" stop-color="#8f5404"/></linearGradient><radialGradient cx="256.38584" cy="127.10126" r="5.00227" gradientUnits="userSpaceOnUse" id="color-7"><stop offset="0" stop-color="#e2a949"/><stop offset="1" stop-color="#b77c2d"/></radialGradient><linearGradient x1="225.22981" y1="133.72715" x2="291.42909" y2="133.72715" gradientUnits="userSpaceOnUse" id="color-8"><stop offset="0" stop-color="#c88829"/><stop offset="1" stop-color="#83561a"/></linearGradient><linearGradient x1="289.13689" y1="146.66491" x2="286.8004" y2="150.13118" gradientUnits="userSpaceOnUse" id="color-9"><stop offset="0" stop-color="#b27830"/><stop offset="1" stop-color="#81582a"/></linearGradient><linearGradient x1="289.70194" y1="131.11631" x2="289.70194" y2="146.23989" gradientUnits="userSpaceOnUse" id="color-10"><stop offset="0" stop-color="#b07222"/><stop offset="1" stop-color="#a56b22"/></linearGradient><linearGradient x1="287.59756" y1="152.41118" x2="287.59756" y2="175.40821" gradientUnits="userSpaceOnUse" id="color-11"><stop offset="0" stop-color="#966324"/><stop offset="1" stop-color="#875314"/></linearGradient><linearGradient x1="285.67919" y1="149.56545" x2="287.49944" y2="152.36811" gradientUnits="userSpaceOnUse" id="color-12"><stop offset="0" stop-color="#865723"/><stop offset="1" stop-color="#9d6a2c"/></linearGradient><radialGradient cx="226.92189" cy="140.11398" r="11.70382" gradientUnits="userSpaceOnUse" id="color-13"><stop offset="0" stop-color="#d1892a"/><stop offset="1" stop-color="#d9a350"/></radialGradient><linearGradient x1="230.36294" y1="159.619" x2="230.36294" y2="162.22454" gradientUnits="userSpaceOnUse" id="color-14"><stop offset="0" stop-color="#c18641"/><stop offset="1" stop-color="#9c662c"/></linearGradient><radialGradient cx="230.10167" cy="167.36845" r="6.59535" gradientUnits="userSpaceOnUse" id="color-15"><stop offset="0" stop-color="#d0a14d"/><stop offset="1" stop-color="#bb8342"/></radialGradient><linearGradient x1="230.43941" y1="174.22999" x2="287.6486" y2="174.22999" gradientUnits="userSpaceOnUse" id="color-16"><stop offset="0" stop-color="#865213"/><stop offset="1" stop-color="#935c1f"/></linearGradient><radialGradient cx="255.2404" cy="155.56904" r="28.71792" gradientUnits="userSpaceOnUse" id="color-17"><stop offset="0" stop-color="#835823"/><stop offset="1" stop-color="#6a3c0e"/></radialGradient><linearGradient x1="232.40214" y1="167.14932" x2="285.41988" y2="167.14932" gradientUnits="userSpaceOnUse" id="color-18"><stop offset="0" stop-color="#a76823"/><stop offset="1" stop-color="#8c5a24"/></linearGradient><linearGradient x1="226.76907" y1="145.91671" x2="288.96283" y2="145.91671" gradientUnits="userSpaceOnUse" id="color-19"><stop offset="0" stop-color="#a86b25"/><stop offset="1" stop-color="#9b6422"/></linearGradient><linearGradient x1="231.18846" y1="163.99669" x2="286.68839" y2="163.99669" gradientUnits="userSpaceOnUse" id="color-20"><stop offset="0" stop-color="#bc7f3a"/><stop offset="1" stop-color="#a87033"/></linearGradient><linearGradient x1="254.04724" y1="173.99921" x2="286.49566" y2="173.99921" gradientUnits="userSpaceOnUse" id="color-21"><stop offset="0" stop-color="#9d6a33"/><stop offset="1" stop-color="#ae7331"/></linearGradient><linearGradient x1="242.65695" y1="157.35197" x2="242.65695" y2="167.88937" gradientUnits="userSpaceOnUse" id="color-22"><stop offset="0" stop-color="#c07f36"/><stop offset="1" stop-color="#bc7c38"/></linearGradient><linearGradient x1="227.03444" y1="146.63635" x2="254.78435" y2="146.63635" gradientUnits="userSpaceOnUse" id="color-23"><stop offset="0" stop-color="#c38336"/><stop offset="1" stop-color="#bc8444"/></linearGradient><linearGradient x1="263.26554" y1="134.97111" x2="263.26554" y2="149.15444" gradientUnits="userSpaceOnUse" id="color-24"><stop offset="0" stop-color="#c88840"/><stop offset="1" stop-color="#b27837"/></linearGradient><linearGradient x1="286.1402" y1="157.07687" x2="289.4804" y2="157.07687" gradientUnits="userSpaceOnUse" id="color-25"><stop offset="0" stop-color="#9e6528"/><stop offset="1" stop-color="#ac7221"/></linearGradient><linearGradient x1="285.03249" y1="172.13099" x2="287.77319" y2="172.13099" gradientUnits="userSpaceOnUse" id="color-26"><stop offset="0" stop-color="#9f682b"/><stop offset="1" stop-color="#9b6720"/></linearGradient></defs><g transform="translate(-76,-77.5)"><g data-paper-data="{&quot;isPaintingLayer&quot;:true}" fill-rule="nonzero" stroke="none" stroke-linecap="butt" stroke-linejoin="miter" stroke-miterlimit="10" stroke-dasharray="" stroke-dashoffset="0" style="mix-blend-mode: normal"><path d="M76,282.5v-205h328v205z" fill="none" stroke-width="0"/><g><g><path d="M253.10403,196.68805v-20.09181h10.79046v20.09181z" fill="url(#color-1)" stroke-width="0"/><path d="M258.26565,191.05916c0,0 -5.2253,-6.50108 -5.2253,-9.30357c0,-2.71757 5.2253,-2.20684 5.2253,-2.20684h4.71551l1.01958,3.05871l-0.12745,8.45172z" fill="url(#color-2)" stroke-width="0"/><path d="M253.10403,196.68805v-20.09181h4.33316v20.09181z" fill="url(#color-3)" stroke-width="0"/><g><g><path d="M253.01912,139.04198l0.16993,-3.22865c0,0 0.02669,-2.02582 2.08569,-3.58596c3.22135,-1.76515 6.96431,-1.35228 6.96431,-1.35228l1.65549,1.09166l-0.08497,7.07521z" fill="url(#color-4)" stroke-width="NaN"/><path d="M255.15738,136.47725c0,-1.38203 0.76204,-3.84753 0.76204,-3.84753c0,0 1.92778,-0.70303 2.7704,-0.83164c1.06856,-0.16309 3.63545,-0.23819 3.63545,-0.23819l1.54627,0.37598l-0.0478,4.20153l-0.00687,3.0322c0,0 -0.26865,5.78966 -2.37213,5.78966c-3.47242,0 -6.28736,-3.79752 -6.28736,-8.482z" fill="url(#color-5)" stroke-width="0"/><path d="M261.07662,138.51799v-6.98405c0,0 0.78097,0.06804 1.24262,0.01996c0.44394,-0.04624 1.52722,0.3652 1.52722,0.3652l-0.05097,6.59889z" fill="url(#color-6)" stroke-width="0"/></g><path d="M253.78268,133.88786c0,0 0.8799,-1.64462 2.75709,-2.38113c1.95875,-0.7685 5.72448,-0.69033 5.72448,-0.69033l1.62494,1.14702c0,0 -1.6443,-0.91002 -5.8429,0.05392c-2.17301,0.37045 -4.2636,1.87051 -4.2636,1.87051z" fill="url(#color-7)" stroke-width="0"/><g><path d="M291.42909,136.16295l-2.54892,1.16522l-62.04818,4.07828l-1.60218,-0.65543z" fill="url(#color-8)" stroke-width="0"/><path d="M284.47456,155.16014l3.52603,-4.17997l2.74854,0.15923l-3.32211,3.97607z" fill="url(#color-9)" stroke-width="0"/><path d="M287.98561,151.29749l0.71371,-14.0361l2.71885,-1.08755l-0.67972,15.02168z" fill="url(#color-10)" stroke-width="0"/><path d="M285.25824,178.20008l1.64265,-20.73129l3.03607,0.1926l-2.29969,22.80441z" fill="url(#color-11)" stroke-width="0"/><path d="M287.04452,157.63592l-2.72658,-2.57611l3.17548,-0.02387l2.44338,2.63275z" fill="url(#color-12)" stroke-width="0"/><path d="M228.11562,164.75445l-2.80989,-23.94576l1.45046,0.53811c0,0 1.19769,0.61733 1.38074,1.68839c0.58051,3.39658 2.61259,21.67679 2.61259,21.67679z" fill="url(#color-13)" stroke-width="0"/><path d="M230.13637,167.19721l-2.03915,-2.43564l2.69053,-0.08497l1.84088,2.60558z" fill="url(#color-14)" stroke-width="0"/><path d="M230.48399,180.32774c0,0 -1.45702,-4.73502 -1.53669,-9.18238c-0.0667,-1.96309 1.21807,-4.00832 1.21807,-4.00832l2.4852,0.12744l-0.31861,10.89667z" fill="url(#color-15)" stroke-width="0"/><path d="M230.43941,180.42048l1.75591,-2.26573l53.07434,-0.05664l2.379,2.37899z" fill="url(#color-16)" stroke-width="0"/><path d="M232.59746,167.36001c0,0 -0.46416,-0.61213 -0.84587,-1.07866c-0.38298,-0.46806 -1.00919,-1.60479 -1.00919,-1.60479l57.31123,-13.39604l-3.41557,3.90837z" fill="url(#color-17)" stroke-width="NaN"/><path d="M232.31435,178.1601c0,0 -0.80864,-4.89199 -0.75424,-6.92246c0.04624,-1.72636 0.95107,-4.0011 0.95107,-4.0011l52.33091,-12.20937l2.08885,2.44058l-1.61304,20.70369z" fill="url(#color-18)" stroke-width="0"/><path d="M230.74538,164.68757c0,0 -2.47964,-19.04339 -2.9553,-21.83644c-0.111,-0.6518 -1.02103,-1.51174 -1.02103,-1.51174l62.19384,-4.07828l-0.91761,14.07008z" fill="url(#color-19)" stroke-width="0"/></g></g></g><g stroke-width="0"><path d="M232.06281,178.10619l-0.34975,-2.77998c0,0 18.99146,-4.98511 24.82886,-6.63363c10.15161,-2.8669 30.1465,-8.95254 30.1465,-8.95254l-0.51388,7.06597c0,0 -18.63002,6.17855 -26.918,8.21429c-6.75343,1.65882 -19.15548,3.10254 -19.15548,3.10254z" fill="url(#color-20)"/><path d="M254.04724,180.41495c0,0 14.78089,-1.57644 24.2262,-2.71627c5.50083,-0.66383 6.70186,-1.14198 6.70186,-1.14198l-0.02132,1.14198l1.54167,1.76189l-14.24676,0.94155z" fill="url(#color-21)"/><path d="M231.49097,172.94697c0,0 -0.14682,-1.32143 -0.14682,-1.98215c0,-0.66072 0.44047,-1.98213 0.44047,-1.98213c0,0 3.15993,-0.67155 7.37069,-1.90337c1.60183,-0.4686 4.2472,-2.0046 4.2472,-2.0046c0,0 11.03481,-2.79045 11.00438,-2.66074c-0.68762,2.93034 -5.24954,4.65998 -5.24954,4.65998z" fill="url(#color-22)"/><path d="M228.13969,146.37523l-0.66804,-4.05972c0,0 14.55467,1.96921 20.44272,6.31214c6.60981,4.87529 6.87007,10.4749 6.87007,10.4749l-8.05094,1.9699c0,0 3.32329,-6.20947 -9.14901,-10.8123c-4.10217,-1.51389 -9.44479,-3.88493 -9.44479,-3.88493z" fill="url(#color-23)"/><path d="M275.0916,154.21203c0,0 -0.36836,-2.3897 -3.75459,-4.1385c-5.1864,-2.6785 -33.24541,-9.57695 -33.24541,-9.57695l14.8,-0.97638c0,0 25.36653,4.5709 31.41682,7.49032c3.07935,1.48585 2.29428,4.54465 2.29428,4.54465z" fill="url(#color-24)"/><path d="M286.1402,166.83654l0.4625,-7.14305l3.13472,-2.13265l-0.65091,6.86041z" fill="url(#color-25)"/><path d="M284.94684,177.93087l-0.04284,-1.35609l3.26891,-3.01197l-0.44251,4.28241l-1.2419,1.61304z" fill="url(#color-26)"/></g><g stroke-width="0"><path d="M242.11246,155.5988l9.59973,-13.57202l8.74851,12.05877l5.34936,-7.23422l7.65005,27.23283l-26.01708,-6.5355l5.21496,-4.99834z" fill="#ffffff"/><path d="M245.46998,154.88948l6.5259,-8.22833l9.22141,11.8696l2.88408,-5.47837l5.78929,17.55927l-17.3385,-5.08294l4.78741,-3.59314z" fill="#d9200b"/></g></g></g></g></svg>