<svg version="1.1" xmlns="http://www.w3.org/2000/svg" xmlns:xlink="http://www.w3.org/1999/xlink" width="328" height="205" viewBox="0,0,328,205"><defs><radialGradient cx="255.53605" cy="196.00916" r="22.676" gradientUnits="userSpaceOnUse" id="color-1"><stop offset="0" stop-color="#027908"/><stop offset="1" stop-color="#168a20"/></radialGradient></defs><g transform="translate(-76,-77.5)"><g data-paper-data="{&quot;isPaintingLayer&quot;:true}" fill-rule="nonzero" stroke="none" stroke-width="0" stroke-linecap="butt" stroke-linejoin="miter" stroke-miterlimit="10" stroke-dasharray="" stroke-dashoffset="0" style="mix-blend-mode: normal"><path d="M76,282.5v-205h328v205z" fill="none"/><g><path d="M235.07323,197.62529c0,0 -10.33627,-4.06884 -11.0226,-4.33904c-0.2288,-0.09005 -0.50738,-0.51009 -0.45693,-0.68886c0.15135,-0.53635 0.25383,-0.89927 0.41631,-1.47486c0.06927,-0.24543 0.47228,-0.74439 0.66094,-0.81835c0.56601,-0.22188 3.68245,-1.4435 3.68245,-1.4435c0,0 1.2763,-0.54153 2.09316,-0.88814c0.34618,-0.14687 0.44654,-0.74496 0.16494,-0.98126c-1.4314,-1.20111 -3.08247,-2.63285 -3.65441,-3.09202c-1.3272,-1.06552 -0.05914,-1.67111 0.16242,-1.73012c0.66461,-0.17703 2.83002,-0.75383 2.83002,-0.75383l11.2815,0.58834l2.29069,-5.73504c0,0 8.73832,-2.84757 9.56655,-3.11746c0.27607,-0.08994 1.04736,-0.07886 1.26493,0.0182c0.65274,0.29122 13.50301,6.02469 13.50301,6.02469c0,0 12.22803,-0.7404 12.94804,-0.784c0.24002,-0.01451 0.81411,0.30285 0.94154,0.52049c0.81633,1.3943 1.76574,3.01592 2.09172,3.57273c0.10868,0.18561 0.5075,0.48 0.65414,0.48281c2.01198,0.03882 4.59738,0.0887 5.15544,0.09947c0.18602,0.0036 0.51062,0.26082 0.53236,0.4219c0.10913,0.80833 0.20164,1.65968 0.27961,2.23725c0.02598,0.19252 -0.0829,0.50673 -0.17854,0.62155c-0.97854,1.17453 -2.09402,2.51345 -2.50738,3.0096c-0.13776,0.16537 -0.13316,0.64211 0.00754,0.78191c0.78689,0.78166 1.63881,1.6279 2.0163,2.00287c0.12583,0.12499 0.07087,0.60036 -0.09017,0.77963c-0.72456,0.80659 -1.42175,1.58282 -1.85659,2.06689c-0.14493,0.16135 -0.79471,0.51455 -1.06568,0.57927c-0.81289,0.19414 -8.5366,2.03883 -8.5366,2.03883z" fill="#189323"/><path d="M235.9906,197.48008c0,0 -1.87871,-3.59979 -2.4889,-4.76893c-0.20342,-0.3897 -0.03685,-1.13855 0.27315,-1.22809c0.6903,-0.19942 1.07849,-0.31155 1.76881,-0.51095c0.33109,-0.09563 0.59133,-0.72619 0.42687,-1.03418c-0.49339,-0.92393 -1.39203,-2.60661 -2.28294,-4.27496c-0.13181,-0.24679 -0.15144,-0.44835 0.06694,-0.62629c0.18551,-0.15117 0.47598,-0.2171 0.71496,-0.18624c1.34707,0.17392 10.69327,0.88723 10.69327,0.88723l1.18522,-5.21753c0,0 6.83802,-2.13541 8.18326,-2.57381c0.44842,-0.14614 1.78979,-0.08855 2.19993,0.09445c1.23041,0.54896 10.13809,4.52333 10.13809,4.52333l11.46332,9.14846v5.76757z" fill="url(#color-1)"/><path d="M232.12303,171.90658c-0.11317,-2.07854 1.95596,-4.11178 4.36877,-4.11178c2.4128,0 4.88274,0.65955 4.88274,3.76913c0,7.22135 -4.19744,5.48236 -4.19744,5.48236c0,0 -4.88274,0.40537 -5.05406,-5.13972z" fill="#ffd806"/><path d="M238.46195,177.47461c0,0.36863 -0.06488,0.78116 -0.25527,1.19978c-0.66485,1.46175 -2.8601,2.99765 -9.16755,2.99765c-2.46012,0 -4.28311,-2.37026 -4.28311,-4.02613c0,-1.65584 2.16563,-3.51213 4.62574,-3.51213c8.62778,0 9.08016,1.68497 9.08016,3.34081z" fill="#ffd806"/><path d="M245.48628,182.443c0,3.3282 -3.74591,4.36877 -6.25331,4.36877c-2.50743,0 -4.54009,-2.41115 -4.54009,-4.54009c0,-4.69881 2.03266,-5.91067 4.54009,-5.91067c2.50743,0 6.25331,-1.35797 6.25331,6.082z" fill="#ffd806"/><path d="M251.4173,174.08234c0.49895,2.46242 -2.1332,3.84092 -5.29742,4.48207c-2.82841,0.57309 -5.42191,-0.4458 -5.75074,-2.06867c-0.32883,-1.62287 -3.20818,-3.45789 4.32176,-4.9836c3.83588,-0.77724 6.22744,0.10779 6.72639,2.57021z" fill="#ffd806"/><path d="M242.42329,176.3743c0.10435,1.47232 -1.57725,2.81333 -3.75597,2.99522c-2.17872,0.18188 -4.02951,-0.86422 -4.13385,-2.33652c-0.10435,-1.47232 1.57725,-2.81333 3.75597,-2.99522c2.17872,-0.18188 4.02951,0.86422 4.13385,2.33652z" fill="#ffffff"/><path d="M270.15117,176.48878c1.21742,-1.51474 4.43047,-2.91029 6.77401,-1.11178c2.12584,1.63143 1.80645,4.4818 -0.13247,6.64231c-4.50275,5.01737 -6.33479,1.19188 -6.33479,1.19188c0,0 -3.64526,-2.76288 -0.30676,-6.72242z" fill="#ffd806"/><path d="M271.08358,184.30997c-0.22986,0.25613 -0.53216,0.5023 -0.92547,0.67444c-1.37336,0.60107 -3.8563,0.29939 -8.23869,-3.63351c-1.70926,-1.53395 -1.49795,-4.31749 -0.46546,-5.46797c1.03247,-1.15048 4.47782,-1.08988 6.18707,0.44408c5.99453,5.37969 4.47503,6.83248 3.44256,7.98296z" fill="#ffd806"/><path d="M273.06187,191.55446c-2.07524,2.31242 -5.5225,1.2871 -7.26464,-0.27634c-1.74214,-1.56346 -1.45522,-5.28934 -0.12774,-6.76852c2.92985,-3.2647 4.90199,-2.05608 6.64413,-0.49263c1.74214,1.56346 5.38732,2.36824 0.74824,7.53751z" fill="#ffd806"/><path d="M282.20008,190.03114c-1.18874,2.02199 -3.87709,1.33855 -6.47534,-0.18898c-2.32252,-1.36543 -3.48914,-3.69048 -2.70569,-5.02308c0.78344,-1.3326 -0.07292,-4.40291 6.11019,-0.76782c3.14979,1.85177 4.25959,3.95789 3.07085,5.97988z" fill="#ffd806"/><path d="M274.64401,186.10788c-0.88054,1.13308 -2.96807,1.01143 -4.66263,-0.2717c-1.69453,-1.28313 -2.35442,-3.24186 -1.47388,-4.37495c0.88054,-1.13308 2.96807,-1.01143 4.66263,0.2717c1.69453,1.28313 2.35442,3.24186 1.47388,4.37496z" fill="#ffffff"/></g></g></g></svg>