<svg version="1.1" xmlns="http://www.w3.org/2000/svg" xmlns:xlink="http://www.w3.org/1999/xlink" width="328" height="205" viewBox="0,0,328,205"><defs><linearGradient x1="273.80298" y1="166.69365" x2="273.80298" y2="227.55818" gradientUnits="userSpaceOnUse" id="color-1"><stop offset="0" stop-color="#13b22b"/><stop offset="1" stop-color="#06610f"/></linearGradient><linearGradient x1="273.8212" y1="166.45137" x2="273.8212" y2="173.11323" gradientUnits="userSpaceOnUse" id="color-2"><stop offset="0" stop-color="#01c300"/><stop offset="1" stop-color="#01c300" stop-opacity="0"/></linearGradient><linearGradient x1="273.79708" y1="227.61876" x2="273.79708" y2="216.41487" gradientUnits="userSpaceOnUse" id="color-3"><stop offset="0" stop-color="#019601"/><stop offset="1" stop-color="#019601" stop-opacity="0"/></linearGradient><linearGradient x1="273.79708" y1="186.19451" x2="273.79708" y2="203.99967" gradientUnits="userSpaceOnUse" id="color-4"><stop offset="0" stop-color="#2ab346"/><stop offset="1" stop-color="#2ab346" stop-opacity="0"/></linearGradient><linearGradient x1="273.79708" y1="186.37622" x2="273.79708" y2="174.0216" gradientUnits="userSpaceOnUse" id="color-5"><stop offset="0" stop-color="#2ab346"/><stop offset="1" stop-color="#2ab346" stop-opacity="0"/></linearGradient><linearGradient x1="226.61434" y1="226.07581" x2="287.58811" y2="226.07581" gradientUnits="userSpaceOnUse" id="color-6"><stop offset="0" stop-color="#13b22b"/><stop offset="1" stop-color="#06610f"/></linearGradient><linearGradient x1="287.64875" y1="226.07741" x2="276.42475" y2="226.07741" gradientUnits="userSpaceOnUse" id="color-7"><stop offset="0" stop-color="#019601"/><stop offset="1" stop-color="#019601" stop-opacity="0"/></linearGradient><linearGradient x1="246.15017" y1="226.07741" x2="263.98729" y2="226.07741" gradientUnits="userSpaceOnUse" id="color-8"><stop offset="0" stop-color="#2ab346"/><stop offset="1" stop-color="#2ab346" stop-opacity="0"/></linearGradient><linearGradient x1="239.90586" y1="166.69365" x2="239.90586" y2="227.55818" gradientUnits="userSpaceOnUse" id="color-9"><stop offset="0" stop-color="#13b22b"/><stop offset="1" stop-color="#06610f"/></linearGradient><linearGradient x1="239.88798" y1="166.45137" x2="239.88798" y2="173.11323" gradientUnits="userSpaceOnUse" id="color-10"><stop offset="0" stop-color="#01c300"/><stop offset="1" stop-color="#01c300" stop-opacity="0"/></linearGradient><linearGradient x1="239.91164" y1="227.61876" x2="239.91164" y2="216.41487" gradientUnits="userSpaceOnUse" id="color-11"><stop offset="0" stop-color="#019601"/><stop offset="1" stop-color="#019601" stop-opacity="0"/></linearGradient><linearGradient x1="239.91164" y1="186.19451" x2="239.91164" y2="203.99967" gradientUnits="userSpaceOnUse" id="color-12"><stop offset="0" stop-color="#2ab346"/><stop offset="1" stop-color="#2ab346" stop-opacity="0"/></linearGradient><linearGradient x1="239.91164" y1="186.37622" x2="239.91164" y2="174.0216" gradientUnits="userSpaceOnUse" id="color-13"><stop offset="0" stop-color="#2ab346"/><stop offset="1" stop-color="#2ab346" stop-opacity="0"/></linearGradient><linearGradient x1="226.61625" y1="226.09291" x2="287.59001" y2="226.09291" gradientUnits="userSpaceOnUse" id="color-14"><stop offset="0" stop-color="#13b22b"/><stop offset="1" stop-color="#06610f"/></linearGradient><linearGradient x1="226.37352" y1="226.08788" x2="233.04733" y2="226.08787" gradientUnits="userSpaceOnUse" id="color-15"><stop offset="0" stop-color="#01c300"/><stop offset="1" stop-color="#01c300" stop-opacity="0"/></linearGradient><linearGradient x1="287.6507" y1="226.09453" x2="276.42669" y2="226.09453" gradientUnits="userSpaceOnUse" id="color-16"><stop offset="0" stop-color="#019601"/><stop offset="1" stop-color="#019601" stop-opacity="0"/></linearGradient><linearGradient x1="246.15209" y1="226.09453" x2="263.98923" y2="226.09453" gradientUnits="userSpaceOnUse" id="color-17"><stop offset="0" stop-color="#2ab346"/><stop offset="1" stop-color="#2ab346" stop-opacity="0"/></linearGradient><linearGradient x1="246.33412" y1="226.09453" x2="233.95736" y2="226.09453" gradientUnits="userSpaceOnUse" id="color-18"><stop offset="0" stop-color="#2ab346"/><stop offset="1" stop-color="#2ab346" stop-opacity="0"/></linearGradient></defs><g transform="translate(-76,-77.50002)"><g data-paper-data="{&quot;isPaintingLayer&quot;:true}" fill-rule="nonzero" stroke="none" stroke-width="0" stroke-linecap="butt" stroke-linejoin="miter" stroke-miterlimit="10" stroke-dasharray="" stroke-dashoffset="0" style="mix-blend-mode: normal"><g><g><g><path d="M292.35422,227.55818h-35.69491v-60.86451h35.69491z" data-paper-data="{&quot;origPos&quot;:null}" fill="url(#color-1)"/><path d="M292.39063,173.11318h-35.73132v-6.66181h35.73131z" data-paper-data="{&quot;origPos&quot;:null}" fill="url(#color-2)"/><path d="M292.34241,227.61876h-35.68311v-11.20391h35.68311z" data-paper-data="{&quot;origPos&quot;:null,&quot;index&quot;:null}" fill="url(#color-3)"/><path d="M292.34241,203.99967h-35.68311v-17.80515h35.68311z" data-paper-data="{&quot;origPos&quot;:null}" fill="url(#color-4)"/><path d="M292.34241,186.37621h-35.68311v-12.35459h35.68311z" data-paper-data="{&quot;origPos&quot;:null,&quot;index&quot;:null}" fill="url(#color-5)"/></g><g><path d="M256.74285,221.33886c19.90119,0.14993 30.84524,5.95016 30.84524,5.95016v4.70136h-30.84446c0,0 -0.26137,-10.65348 -0.00078,-10.65152z" data-paper-data="{&quot;origPos&quot;:null}" fill="url(#color-6)"/><path d="M283.1474,225.37489c2.88736,1.08119 4.50138,1.91414 4.50138,1.91414v4.70136h-11.22402v-8.39948c0,0 4.70793,1.02956 6.72264,1.78398z" data-paper-data="{&quot;origPos&quot;:null,&quot;index&quot;:null}" fill="url(#color-7)"/><path d="M256.74508,221.37354l7.24218,0.58197v10.03487h-7.24365z" data-paper-data="{&quot;origPos&quot;:null}" fill="url(#color-8)"/></g></g><g><g data-paper-data="{&quot;index&quot;:null}"><path d="M221.69573,166.69365h35.01267v60.86451h-35.01268z" data-paper-data="{&quot;origPos&quot;:null}" fill="url(#color-9)"/><path d="M221.66004,166.45137h35.04835v6.66181h-35.04836z" data-paper-data="{&quot;origPos&quot;:null}" fill="url(#color-10)"/><path d="M221.70728,216.41487h35.00111v11.20391h-35.00111z" data-paper-data="{&quot;origPos&quot;:null,&quot;index&quot;:null}" fill="url(#color-11)"/><path d="M221.70728,186.19451h35.00111v17.80515h-35.00111z" data-paper-data="{&quot;origPos&quot;:null}" fill="url(#color-12)"/><path d="M221.70728,174.0216h35.00111v12.35459h-35.00111z" data-paper-data="{&quot;origPos&quot;:null,&quot;index&quot;:null}" fill="url(#color-13)"/></g><g><path d="M226.56479,227.51159c0,0 9.92483,-6.15856 29.39358,-6.15856c0.26366,0 0.5258,0.001 0.78641,0.00296c0.03955,0.04722 0.00077,10.65152 0.00077,10.65152h-30.12928l-0.05145,-4.49592z" data-paper-data="{&quot;origPos&quot;:null}" fill="url(#color-14)"/><path d="M226.37353,227.58865c0,0 1.75679,-0.95771 2.82311,-1.39674c1.15168,-0.4742 3.85064,-1.35117 3.85064,-1.35117v7.16678h-6.67375v-4.41887z" data-paper-data="{&quot;origPos&quot;:null}" fill="url(#color-15)"/><path d="" data-paper-data="{&quot;origPos&quot;:null,&quot;index&quot;:null}" fill="url(#color-16)"/><path d="M246.1521,221.97261c0,0 6.17228,-0.61636 9.18881,-0.61636c0.4196,0 1.40611,0.03438 1.40611,0.03438l-0.00148,10.61683h-10.59343v-10.03487z" data-paper-data="{&quot;origPos&quot;:null}" fill="url(#color-17)"/><path d="M239.99422,223.03008c2.08742,-0.41581 6.33988,-1.05743 6.33988,-1.05743v10.03487h-12.37676v-7.56945c0,0 3.99994,-1.00224 6.03687,-1.40798z" data-paper-data="{&quot;origPos&quot;:null,&quot;index&quot;:null}" fill="url(#color-18)"/></g></g></g><path d="M76,282.50002v-205h328v205z" fill="none"/></g></g></svg>