<svg version="1.1" xmlns="http://www.w3.org/2000/svg" xmlns:xlink="http://www.w3.org/1999/xlink" width="328" height="205" viewBox="0,0,328,205"><defs><linearGradient x1="240.23712" y1="184.26308" x2="240.23712" y2="185.69761" gradientUnits="userSpaceOnUse" id="color-1"><stop offset="0" stop-color="#8c4911"/><stop offset="1" stop-color="#552b0a"/></linearGradient><linearGradient x1="233.74089" y1="179.85815" x2="232.27601" y2="179.85815" gradientUnits="userSpaceOnUse" id="color-2"><stop offset="0" stop-color="#965016"/><stop offset="1" stop-color="#714111"/></linearGradient><linearGradient x1="239.87826" y1="175.06154" x2="239.87826" y2="176.97943" gradientUnits="userSpaceOnUse" id="color-3"><stop offset="0" stop-color="#dc9a4f"/><stop offset="1" stop-color="#9c571c"/></linearGradient><linearGradient x1="246.01037" y1="180.51303" x2="247.47526" y2="180.51303" gradientUnits="userSpaceOnUse" id="color-4"><stop offset="0" stop-color="#965016"/><stop offset="1" stop-color="#733e10"/></linearGradient><linearGradient x1="226.65484" y1="184.19058" x2="226.65484" y2="185.59848" gradientUnits="userSpaceOnUse" id="color-5"><stop offset="0" stop-color="#8c4911"/><stop offset="1" stop-color="#552b0a"/></linearGradient><linearGradient x1="223.84043" y1="179.86739" x2="223.20579" y2="179.86739" gradientUnits="userSpaceOnUse" id="color-6"><stop offset="0" stop-color="#965016"/><stop offset="1" stop-color="#714111"/></linearGradient><linearGradient x1="226.49938" y1="175.15981" x2="226.49938" y2="177.0421" gradientUnits="userSpaceOnUse" id="color-7"><stop offset="0" stop-color="#dc9a4f"/><stop offset="1" stop-color="#9c571c"/></linearGradient><linearGradient x1="229.15601" y1="180.51012" x2="229.79065" y2="180.51012" gradientUnits="userSpaceOnUse" id="color-8"><stop offset="0" stop-color="#965016"/><stop offset="1" stop-color="#733e10"/></linearGradient><linearGradient x1="253.61674" y1="184.26205" x2="253.61674" y2="185.6962" gradientUnits="userSpaceOnUse" id="color-9"><stop offset="0" stop-color="#8c4911"/><stop offset="1" stop-color="#552b0a"/></linearGradient><linearGradient x1="250.7499" y1="179.85828" x2="250.10342" y2="179.85828" gradientUnits="userSpaceOnUse" id="color-10"><stop offset="0" stop-color="#965016"/><stop offset="1" stop-color="#714111"/></linearGradient><linearGradient x1="253.4584" y1="175.06293" x2="253.4584" y2="176.98031" gradientUnits="userSpaceOnUse" id="color-11"><stop offset="0" stop-color="#dc9a4f"/><stop offset="1" stop-color="#9c571c"/></linearGradient><linearGradient x1="256.16453" y1="180.51299" x2="256.81102" y2="180.51299" gradientUnits="userSpaceOnUse" id="color-12"><stop offset="0" stop-color="#965016"/><stop offset="1" stop-color="#733e10"/></linearGradient><linearGradient x1="231.29472" y1="195.5766" x2="231.29472" y2="197.01139" gradientUnits="userSpaceOnUse" id="color-13"><stop offset="0" stop-color="#8c4911"/><stop offset="1" stop-color="#5a2f11"/></linearGradient><linearGradient x1="224.7685" y1="192.8411" x2="223.29688" y2="192.8411" gradientUnits="userSpaceOnUse" id="color-14"><stop offset="0" stop-color="#965016"/><stop offset="1" stop-color="#714111"/></linearGradient><linearGradient x1="230.9342" y1="188.04356" x2="230.9342" y2="189.96181" gradientUnits="userSpaceOnUse" id="color-15"><stop offset="0" stop-color="#d78a4d"/><stop offset="1" stop-color="#9c571c"/></linearGradient><linearGradient x1="237.09455" y1="193.49611" x2="238.5662" y2="193.49611" gradientUnits="userSpaceOnUse" id="color-16"><stop offset="0" stop-color="#965016"/><stop offset="1" stop-color="#733e10"/></linearGradient><linearGradient x1="248.71315" y1="195.57561" x2="248.71315" y2="197.00994" gradientUnits="userSpaceOnUse" id="color-17"><stop offset="0" stop-color="#8c4911"/><stop offset="1" stop-color="#582e10"/></linearGradient><linearGradient x1="255.17982" y1="192.84099" x2="256.6402" y2="192.84099" gradientUnits="userSpaceOnUse" id="color-18"><stop offset="0" stop-color="#965016"/><stop offset="1" stop-color="#80460d"/></linearGradient><linearGradient x1="249.06131" y1="188.045" x2="249.06131" y2="189.96264" gradientUnits="userSpaceOnUse" id="color-19"><stop offset="0" stop-color="#d78a4d"/><stop offset="1" stop-color="#9c571c"/></linearGradient><linearGradient x1="242.94805" y1="193.49579" x2="241.48767" y2="193.49579" gradientUnits="userSpaceOnUse" id="color-20"><stop offset="0" stop-color="#965016"/><stop offset="1" stop-color="#65360e"/></linearGradient><linearGradient x1="231.2945" y1="171.13266" x2="231.2945" y2="172.66295" gradientUnits="userSpaceOnUse" id="color-21"><stop offset="0" stop-color="#8c4911"/><stop offset="1" stop-color="#5a2f11"/></linearGradient><linearGradient x1="224.76808" y1="168.21511" x2="223.29639" y2="168.21511" gradientUnits="userSpaceOnUse" id="color-22"><stop offset="0" stop-color="#965016"/><stop offset="1" stop-color="#714111"/></linearGradient><linearGradient x1="230.93395" y1="163.09829" x2="230.93395" y2="165.14421" gradientUnits="userSpaceOnUse" id="color-23"><stop offset="0" stop-color="#ffb35c"/><stop offset="1" stop-color="#9c571c"/></linearGradient><linearGradient x1="237.09447" y1="168.91372" x2="238.5662" y2="168.91372" gradientUnits="userSpaceOnUse" id="color-24"><stop offset="0" stop-color="#965016"/><stop offset="1" stop-color="#733e10"/></linearGradient><linearGradient x1="248.65736" y1="171.11979" x2="248.65736" y2="172.65007" gradientUnits="userSpaceOnUse" id="color-25"><stop offset="0" stop-color="#8c4911"/><stop offset="1" stop-color="#5a2f11"/></linearGradient><linearGradient x1="255.18375" y1="168.20224" x2="256.65542" y2="168.20224" gradientUnits="userSpaceOnUse" id="color-26"><stop offset="0" stop-color="#965016"/><stop offset="1" stop-color="#854c14"/></linearGradient><linearGradient x1="249.01788" y1="163.08543" x2="249.01788" y2="165.13135" gradientUnits="userSpaceOnUse" id="color-27"><stop offset="0" stop-color="#ffb35c"/><stop offset="1" stop-color="#9c571c"/></linearGradient><linearGradient x1="242.85734" y1="168.90085" x2="241.38566" y2="168.90085" gradientUnits="userSpaceOnUse" id="color-28"><stop offset="0" stop-color="#965016"/><stop offset="1" stop-color="#6f3c10"/></linearGradient><radialGradient cx="244.74573" cy="189.60232" r="4.77048" gradientUnits="userSpaceOnUse" id="color-29"><stop offset="0" stop-color="#feffbc"/><stop offset="1" stop-color="#ffe68d"/></radialGradient><linearGradient x1="244.74573" y1="186.86139" x2="244.74573" y2="193.45469" gradientUnits="userSpaceOnUse" id="color-30"><stop offset="0" stop-color="#ebc578" stop-opacity="0"/><stop offset="1" stop-color="#ebc578"/></linearGradient><linearGradient x1="244.75573" y1="181.4605" x2="244.75573" y2="194.07378" gradientUnits="userSpaceOnUse" id="color-31"><stop offset="0" stop-color="#5fdd29"/><stop offset="1" stop-color="#357e12"/></linearGradient><radialGradient cx="243.25671" cy="188.90555" r="1.00323" gradientUnits="userSpaceOnUse" id="color-32"><stop offset="0" stop-color="#747474"/><stop offset="1" stop-color="#2e2e2f"/></radialGradient><radialGradient cx="243.23923" cy="188.63056" r="0.47846" gradientUnits="userSpaceOnUse" id="color-33"><stop offset="0" stop-color="#ffffff"/><stop offset="1" stop-color="#ffffff" stop-opacity="0"/></radialGradient><radialGradient cx="246.29579" cy="188.90555" r="1.00323" gradientUnits="userSpaceOnUse" id="color-34"><stop offset="0" stop-color="#747474"/><stop offset="1" stop-color="#2e2e2f"/></radialGradient><radialGradient cx="246.27831" cy="188.63056" r="0.47845" gradientUnits="userSpaceOnUse" id="color-35"><stop offset="0" stop-color="#ffffff"/><stop offset="1" stop-color="#ffffff" stop-opacity="0"/></radialGradient><radialGradient cx="244.74572" cy="189.60232" r="4.77048" gradientUnits="userSpaceOnUse" id="color-36"><stop offset="0" stop-color="#feffbc"/><stop offset="1" stop-color="#ffe68d"/></radialGradient><linearGradient x1="244.74572" y1="186.86138" x2="244.74572" y2="193.45469" gradientUnits="userSpaceOnUse" id="color-37"><stop offset="0" stop-color="#ebc578" stop-opacity="0"/><stop offset="1" stop-color="#ebc578"/></linearGradient><linearGradient x1="244.75573" y1="181.4605" x2="244.75573" y2="194.07378" gradientUnits="userSpaceOnUse" id="color-38"><stop offset="0" stop-color="#5fdd29"/><stop offset="1" stop-color="#357e12"/></linearGradient><radialGradient cx="244.71231" cy="182.44604" r="7.51521" gradientUnits="userSpaceOnUse" id="color-39"><stop offset="0" stop-color="#4dff00"/><stop offset="1" stop-color="#4dff00" stop-opacity="0"/></radialGradient><radialGradient cx="243.2567" cy="188.90555" r="1.00323" gradientUnits="userSpaceOnUse" id="color-40"><stop offset="0" stop-color="#747474"/><stop offset="1" stop-color="#2e2e2f"/></radialGradient><radialGradient cx="243.24385" cy="189.14295" r="1.15339" gradientUnits="userSpaceOnUse" id="color-41"><stop offset="0" stop-color="#636364"/><stop offset="1" stop-color="#2e2e2f"/></radialGradient><radialGradient cx="243.23923" cy="188.63056" r="0.47846" gradientUnits="userSpaceOnUse" id="color-42"><stop offset="0" stop-color="#ffffff"/><stop offset="1" stop-color="#ffffff" stop-opacity="0"/></radialGradient><radialGradient cx="246.29579" cy="188.90555" r="1.00323" gradientUnits="userSpaceOnUse" id="color-43"><stop offset="0" stop-color="#747474"/><stop offset="1" stop-color="#2e2e2f"/></radialGradient><radialGradient cx="246.28293" cy="189.14295" r="1.15339" gradientUnits="userSpaceOnUse" id="color-44"><stop offset="0" stop-color="#636364"/><stop offset="1" stop-color="#2e2e2f"/></radialGradient><radialGradient cx="246.27831" cy="188.63056" r="0.47846" gradientUnits="userSpaceOnUse" id="color-45"><stop offset="0" stop-color="#ffffff"/><stop offset="1" stop-color="#ffffff" stop-opacity="0"/></radialGradient></defs><g transform="translate(-76,-77.5)"><g data-paper-data="{&quot;isPaintingLayer&quot;:true}" fill-rule="nonzero" stroke-linecap="butt" stroke-linejoin="miter" stroke-miterlimit="10" stroke-dasharray="" stroke-dashoffset="0" style="mix-blend-mode: normal"><path d="M76,282.5v-205h328v205z" fill="none" stroke="none" stroke-width="0"/><g stroke="none" stroke-width="0"><path d="M222.99503,195.47251l0.11111,-30.33421l1.49059,-2.24742h30.76725l1.64099,2.53405v30.00372l-1.50528,1.68047h-31.19159z" data-paper-data="{&quot;origPos&quot;:null}" fill="#502800"/><g data-paper-data="{&quot;origPos&quot;:null}"><path d="M232.29313,184.26308h15.15281v1.43452h-15.14728z" data-paper-data="{&quot;origPos&quot;:null}" fill="url(#color-1)"/><path d="M232.27601,185.67011v-10.6547l1.46489,1.96467v7.33098z" data-paper-data="{&quot;origPos&quot;:null,&quot;index&quot;:null}" fill="url(#color-2)"/><path d="M233.70262,184.26428v-7.43299h12.33736v7.43299z" data-paper-data="{&quot;origPos&quot;:null}" fill="#965016"/><path d="M233.70572,176.97943l-1.42855,-1.91789h15.20218l-1.46911,1.91789z" data-paper-data="{&quot;origPos&quot;:null}" fill="url(#color-3)"/><path d="M246.01037,184.28829v-7.3082l1.46489,-1.96467v10.68089z" data-paper-data="{&quot;origPos&quot;:null}" fill="url(#color-4)"/></g><g data-paper-data="{&quot;origPos&quot;:null}"><path d="M223.21322,184.19058h6.56474v1.40789h-6.56234z" data-paper-data="{&quot;origPos&quot;:null}" fill="url(#color-5)"/><path d="M223.20579,185.57149v-10.45695l1.49623,1.92821l-0.05068,7.19492z" data-paper-data="{&quot;origPos&quot;:null,&quot;index&quot;:null}" fill="url(#color-6)"/><path d="M224.63475,184.19175v-7.29504h3.77386v7.29504z" data-paper-data="{&quot;origPos&quot;:null}" fill="#965016"/><path d="M224.63609,177.0421l-1.4298,-1.88229h6.58613l-0.63647,1.88229z" data-paper-data="{&quot;origPos&quot;:null}" fill="url(#color-7)"/><path d="M228.39579,184.21532v-7.17257l1.39487,-1.92821v10.48265z" data-paper-data="{&quot;origPos&quot;:null}" fill="url(#color-8)"/></g><g data-paper-data="{&quot;origPos&quot;:null}"><path d="M250.11098,184.26205h6.68713v1.43414h-6.68469z" data-paper-data="{&quot;origPos&quot;:null}" fill="url(#color-9)"/><path d="M250.10342,185.66872v-10.65189l1.52412,1.96415l-0.05163,7.32905z" data-paper-data="{&quot;origPos&quot;:null,&quot;index&quot;:null}" fill="url(#color-10)"/><path d="M251.55902,184.26325v-7.43104h3.84422v7.43104z" data-paper-data="{&quot;origPos&quot;:null}" fill="#965016"/><path d="M251.56039,176.98031l-1.45645,-1.91738h6.70891l-0.64834,1.91738z" data-paper-data="{&quot;origPos&quot;:null}" fill="url(#color-11)"/><path d="M255.39013,184.28726v-7.30629l1.42087,-1.96415v10.67808z" data-paper-data="{&quot;origPos&quot;:null}" fill="url(#color-12)"/></g><g data-paper-data="{&quot;origPos&quot;:null}"><path d="M224.05266,196.58641v-1.00981h14.48406v1.43479h-14.09663z" data-paper-data="{&quot;origPos&quot;:null}" fill="url(#color-13)"/><path d="M223.29688,195.71971v-7.72228l1.47164,1.96505v5.75723l-0.72122,0.86462z" data-paper-data="{&quot;origPos&quot;:null,&quot;index&quot;:null}" fill="url(#color-14)"/><path d="M224.73005,195.7088v-5.89514h12.39423v5.89514z" data-paper-data="{&quot;origPos&quot;:null}" fill="#965016"/><path d="M224.73317,189.96181l-1.43512,-1.91826h15.27225l-1.4759,1.91826z" data-paper-data="{&quot;origPos&quot;:null}" fill="url(#color-15)"/><path d="M237.09455,195.71971v-5.75723l1.47164,-1.96505v9.03231z" data-paper-data="{&quot;origPos&quot;:null}" fill="url(#color-16)"/></g><g data-paper-data="{&quot;origPos&quot;:null}"><path d="M255.48328,197.00994h-13.94487v-1.43433h14.34948v1.00949z" data-paper-data="{&quot;origPos&quot;:null,&quot;index&quot;:null}" fill="url(#color-17)"/><path d="M255.89554,196.58302l-0.7157,-0.86434v-5.75538l1.46037,-1.96442v7.71979z" data-paper-data="{&quot;origPos&quot;:null,&quot;index&quot;:null}" fill="url(#color-18)"/><path d="M242.91853,195.70777v-5.89324h12.29945v5.89324z" data-paper-data="{&quot;origPos&quot;:null,&quot;index&quot;:null}" fill="#965016"/><path d="M242.9482,189.96264l-1.46461,-1.91764h15.15546l-1.42415,1.91764z" data-paper-data="{&quot;origPos&quot;:null,&quot;index&quot;:null}" fill="url(#color-19)"/><path d="M241.48767,197.02828v-9.0294l1.46039,1.96442v5.75538z" data-paper-data="{&quot;origPos&quot;:null,&quot;index&quot;:null}" fill="url(#color-20)"/></g><g data-paper-data="{&quot;origPos&quot;:null}"><path d="M224.05224,171.13267h14.48451v1.53028h-15.25115z" data-paper-data="{&quot;origPos&quot;:null}" fill="url(#color-21)"/><path d="M223.29639,172.63886v-7.6408l1.14044,-1.89521c0,0 2.61128,1.42179 2.6853,1.84984c0.05523,0.31933 -2.35407,0.0652 -2.35407,0.0652v6.2674z" data-paper-data="{&quot;origPos&quot;:null,&quot;index&quot;:null}" fill="url(#color-22)"/><path d="M225.34392,165.14421l-0.89415,-2.04593h14.12054l-1.47595,2.04593z" data-paper-data="{&quot;origPos&quot;:null}" fill="url(#color-23)"/><path d="M224.72965,171.27367v-6.28746h12.39461v6.28746z" data-paper-data="{&quot;origPos&quot;:null}" fill="#965016"/><path d="M237.09447,171.28531v-6.14038l1.45069,-2.05217l0.02098,9.58976z" data-paper-data="{&quot;origPos&quot;:null}" fill="url(#color-24)"/></g><g data-paper-data="{&quot;origPos&quot;:null}"><path d="M256.66625,172.65007h-15.25115v-1.53028h14.48451z" data-paper-data="{&quot;origPos&quot;:null}" fill="url(#color-25)"/><path d="M255.18375,171.27244v-6.2674c0,0 -2.86845,0.04346 -2.81371,-0.27299c0.07454,-0.43093 3.14496,-1.64206 3.14496,-1.64206l1.14044,1.8952v7.64081z" data-paper-data="{&quot;origPos&quot;:null,&quot;index&quot;:null}" fill="url(#color-26)"/><path d="M242.85747,165.13135l-1.47594,-2.04592h14.12054l-0.79229,2.04592z" data-paper-data="{&quot;origPos&quot;:null}" fill="url(#color-27)"/><path d="M242.82759,171.26078v-6.28746h12.39461v6.28746z" data-paper-data="{&quot;origPos&quot;:null}" fill="#965016"/><path d="M241.38566,172.66966l0.02097,-9.58976l1.45069,2.05217v6.14039z" data-paper-data="{&quot;origPos&quot;:null}" fill="url(#color-28)"/></g></g><g><g><path d="M249.09977,188.22755c0.29359,0.3487 0.69971,1.95553 0.12874,2.98686c-1.01272,1.82924 -3.82157,1.68171 -4.42068,1.68171c-2.90155,0 -3.89437,-0.63869 -4.46745,-1.86253c-0.26139,-0.55819 -0.73012,-2.35976 0.127,-3.38906c0.95344,-1.14499 3.30632,-1.33888 4.34045,-1.33888c1.10966,0 3.37216,0.82947 4.29194,1.92189z" fill="url(#color-29)" stroke="#000000" stroke-width="4"/><path d="M249.2285,191.21441c-1.01272,1.82924 -3.82157,1.68171 -4.42068,1.68171c-2.90155,0 -3.89437,-0.63869 -4.46745,-1.86253c-0.26139,-0.55819 -0.73012,-2.35976 0.127,-3.38906c0.95344,-1.14499 3.30632,-1.33888 4.34045,-1.33888c1.10966,0 3.37216,0.82947 4.29194,1.92189c0,0 0.69971,1.95553 0.12874,2.98686z" fill="url(#color-30)" stroke="#000000" stroke-width="4"/><path d="M249.22545,191.24099c-0.03017,0.01159 0.13205,-1.18818 0.13205,-1.18818c0,0 -0.42472,-0.93033 -1.60762,-1.63254c-0.84094,-0.49921 -2.09641,-0.84898 -3.05492,-0.81214c-1.12273,0.04824 -2.08561,0.33673 -2.90855,0.81336c-1.23336,0.71434 -1.72018,1.72794 -1.72018,1.72794c0,0 0.33074,0.97437 0.32657,0.9721c-0.88817,-0.48123 -1.44375,-0.88787 -1.84743,-1.38616c-1.11395,-1.09179 -1.39125,-3.18174 -1.20063,-4.62798c0.27786,-2.10816 1.51972,-4.21957 3.41291,-5.42594c1.37547,-0.87647 2.90537,-1.13847 3.99811,-1.13847c1.29829,0 3.27241,0.41192 4.82654,1.61742c1.55437,1.20569 2.13294,3.17903 2.515,4.99908c0.17288,1.81182 -0.13164,3.57568 -1.10763,4.60866c0,0 -1.05634,1.20078 -1.76422,1.47284z" fill="url(#color-31)" stroke="#000000" stroke-width="4"/><g fill="none" stroke="none" stroke-width="1" font-family="sans-serif" font-weight="normal" font-size="12" text-anchor="start"><g/><g/></g><g stroke="#000000" stroke-width="4"><g><path d="M242.76796,189.86467v-1.48809c0,0 0.02924,-0.38766 0.4648,-0.38702c0.46888,0.0007 0.48698,0.38702 0.48698,0.38702v1.48809c0,0 -0.00536,0.43167 -0.47954,0.43167c-0.45312,0 -0.47224,-0.43167 -0.47224,-0.43167z" fill="url(#color-32)"/><path d="M243.63326,188.63056c0,0.26424 -0.17642,0.47845 -0.39402,0.47845c-0.21761,0 -0.39402,-0.21421 -0.39402,-0.47845c0,-0.26424 0.17642,-0.47845 0.39402,-0.47845c0.21761,0 0.39402,0.21421 0.39402,0.47845z" fill="url(#color-33)"/><path d="M243.53694,188.63056c0,0.19965 -0.1333,0.3615 -0.29771,0.3615c-0.16442,0 -0.29771,-0.16186 -0.29771,-0.3615c0,-0.19965 0.13329,-0.3615 0.29771,-0.3615c0.16442,0 0.29771,0.16185 0.29771,0.3615z" fill="#ffffff"/></g><g><path d="M245.80704,189.86467v-1.48809c0,0 0.02924,-0.38766 0.46479,-0.38702c0.46888,0.0007 0.48698,0.38702 0.48698,0.38702v1.48809c0,0 -0.00536,0.43167 -0.47954,0.43167c-0.45312,0 -0.47224,-0.43167 -0.47224,-0.43167z" fill="url(#color-34)"/><path d="M246.67234,188.63056c0,0.26424 -0.17642,0.47845 -0.39402,0.47845c-0.21761,0 -0.39402,-0.21421 -0.39402,-0.47845c0,-0.26424 0.17641,-0.47845 0.39402,-0.47845c0.21761,0 0.39402,0.21421 0.39402,0.47845z" fill="url(#color-35)"/><path d="M246.57601,188.63056c0,0.19965 -0.13329,0.3615 -0.29771,0.3615c-0.16442,0 -0.29771,-0.16186 -0.29771,-0.3615c0,-0.19965 0.13329,-0.3615 0.29771,-0.3615c0.16442,0 0.29771,0.16185 0.29771,0.3615z" fill="#ffffff"/></g></g><path d="M248.16818,181.82085c0,1.5154 -1.53948,2.84805 -3.4385,2.84805c-1.89902,0 -3.4385,-1.33265 -3.4385,-2.84805c0,-1.5154 1.53948,-2.63966 3.4385,-2.63966c1.89902,0 3.4385,1.12426 3.4385,2.63966z" fill="#ffffff" stroke="#000000" stroke-width="4"/><path d="M238.4084,184.35631c0,1.17011 -0.04869,3.82056 -0.72938,3.82056c-0.19736,0 -0.5828,-1.33807 -0.41669,-2.80938c0.17295,-1.53181 1.05602,-3.2663 1.11134,-3.19931c0.40283,0.13893 0.03473,1.01802 0.03473,2.18814z" fill="#ffffff" stroke="#000000" stroke-width="4"/><path d="M251.06011,184.35631c0,-1.17011 -0.3681,-2.04921 0.03473,-2.18814c0.12478,-0.06699 0.93838,1.6675 1.11133,3.19931c0.16611,1.47132 -0.21933,2.80938 -0.41668,2.80938c-0.68069,0 -0.72938,-2.65045 -0.72938,-3.82056z" data-paper-data="{&quot;index&quot;:null}" fill="#ffffff" stroke="#000000" stroke-width="4"/></g><g><path d="M249.09977,188.22755c0.29359,0.34871 0.69971,1.95552 0.12874,2.98686c-1.01272,1.82924 -3.82157,1.68172 -4.42068,1.68172c-2.90155,0 -3.89437,-0.63868 -4.46745,-1.86253c-0.26139,-0.55819 -0.73012,-2.35976 0.127,-3.38906c0.95344,-1.14499 3.30632,-1.33888 4.34045,-1.33888c1.10966,0 3.37217,0.82948 4.29194,1.92189z" fill="url(#color-36)" stroke="none" stroke-width="0"/><path d="M249.2285,191.21441c-1.01272,1.82924 -3.82157,1.68172 -4.42068,1.68172c-2.90155,0 -3.89437,-0.63868 -4.46745,-1.86253c-0.26139,-0.55819 -0.73012,-2.35976 0.127,-3.38906c0.95344,-1.14499 3.30632,-1.33888 4.34045,-1.33888c1.10966,0 3.37217,0.82948 4.29194,1.92189c0,0 0.69971,1.95552 0.12874,2.98686z" fill="url(#color-37)" stroke="none" stroke-width="0"/><path d="M250.98964,189.76815c-0.50617,0.53572 -1.05632,1.20078 -1.76419,1.47284c-0.03018,0.0116 0.13204,-1.18817 0.13204,-1.18817c0,0 -0.42472,-0.93033 -1.60762,-1.63255c-0.84094,-0.49921 -2.0964,-0.84898 -3.05492,-0.81215c-1.12274,0.04823 -2.08561,0.33672 -2.90855,0.81336c-1.23337,0.71433 -1.72018,1.72794 -1.72018,1.72794c0,0 0.33073,0.97437 0.32656,0.9721c-0.88817,-0.48123 -1.44375,-0.88787 -1.84743,-1.38615c-1.11395,-1.09179 -1.39125,-3.18173 -1.20063,-4.62798c0.27786,-2.10816 1.51972,-4.21958 3.41291,-5.42594c1.37546,-0.87647 2.90536,-1.13847 3.99811,-1.13847c1.29829,0 3.27241,0.41192 4.82654,1.61743c1.55437,1.20569 2.13295,3.17903 2.51501,4.99909c0.17288,1.81182 -0.13165,3.57568 -1.10764,4.60866z" fill="url(#color-38)" stroke="none" stroke-width="0"/><path d="M250.98964,189.76815c-0.50617,0.53572 -1.07369,1.21815 -1.78156,1.49021c-0.03018,0.0116 0.14941,-1.20554 0.14941,-1.20554c0,0 -0.42472,-0.93033 -1.60762,-1.63255c-0.84094,-0.49921 -2.0964,-0.79688 -3.05492,-0.76005c-1.12274,0.04823 -2.08561,0.28462 -2.90855,0.76126c-1.23337,0.71433 -1.72018,1.72794 -1.72018,1.72794c0,0 0.3481,0.97437 0.34392,0.9721c-0.88817,-0.48123 -1.46112,-0.88787 -1.8648,-1.38615c-1.11395,-1.09179 -1.51322,-3.16922 -1.25273,-4.62798c0.3706,-2.07533 1.46763,-4.21958 3.36081,-5.42594c1.37546,-0.87647 3.00956,-1.13847 4.1023,-1.13847c1.29829,0 3.30715,0.41192 4.86127,1.61743c1.55437,1.20569 2.18205,3.21657 2.54974,4.99909c0.36469,1.76795 -0.20112,3.57568 -1.1771,4.60866z" fill="url(#color-39)" stroke="none" stroke-width="0"/><g fill="none" stroke="none" stroke-width="1" font-family="sans-serif" font-weight="normal" font-size="12" text-anchor="start"><g/><g/></g><g stroke-width="0"><g><path d="M242.76795,189.86467v-1.48809c0,0 0.02924,-0.38767 0.4648,-0.38702c0.46888,0.0007 0.48698,0.38702 0.48698,0.38702v1.48809c0,0 -0.00536,0.43167 -0.47954,0.43167c-0.45312,0 -0.47225,-0.43167 -0.47225,-0.43167z" fill="url(#color-40)" stroke="url(#color-41)"/><path d="M243.63325,188.63056c0,0.26424 -0.17641,0.47846 -0.39402,0.47846c-0.21761,0 -0.39402,-0.21421 -0.39402,-0.47846c0,-0.26424 0.17641,-0.47846 0.39402,-0.47846c0.21761,0 0.39402,0.21421 0.39402,0.47846z" fill="url(#color-42)" stroke="none"/><path d="M243.53694,188.63056c0,0.19965 -0.13329,0.3615 -0.29771,0.3615c-0.16442,0 -0.29771,-0.16185 -0.29771,-0.3615c0,-0.19965 0.13329,-0.3615 0.29771,-0.3615c0.16442,0 0.29771,0.16185 0.29771,0.3615z" fill="#ffffff" stroke="none"/></g><g><path d="M245.80703,189.86467v-1.48809c0,0 0.02924,-0.38767 0.4648,-0.38702c0.46888,0.0007 0.48698,0.38702 0.48698,0.38702v1.48809c0,0 -0.00536,0.43167 -0.47954,0.43167c-0.45312,0 -0.47225,-0.43167 -0.47225,-0.43167z" fill="url(#color-43)" stroke="url(#color-44)"/><path d="M246.67233,188.63056c0,0.26424 -0.17641,0.47846 -0.39402,0.47846c-0.21761,0 -0.39402,-0.21421 -0.39402,-0.47846c0,-0.26424 0.17641,-0.47846 0.39402,-0.47846c0.21761,0 0.39402,0.21421 0.39402,0.47846z" fill="url(#color-45)" stroke="none"/><path d="M246.57601,188.63056c0,0.19965 -0.13329,0.3615 -0.29771,0.3615c-0.16442,0 -0.29771,-0.16185 -0.29771,-0.3615c0,-0.19965 0.13329,-0.3615 0.29771,-0.3615c0.16442,0 0.29771,0.16185 0.29771,0.3615z" fill="#ffffff" stroke="none"/></g></g><path d="M248.16818,181.82085c0,1.51539 -1.53947,2.84805 -3.4385,2.84805c-1.89903,0 -3.4385,-1.33266 -3.4385,-2.84805c0,-1.51539 1.53947,-2.63966 3.4385,-2.63966c1.89903,0 3.4385,1.12427 3.4385,2.63966z" fill="#ffffff" stroke="none" stroke-width="0"/><path d="M238.4084,184.35631c0,1.17011 -0.04869,3.82056 -0.72938,3.82056c-0.19736,0 -0.5828,-1.33807 -0.41669,-2.80938c0.17295,-1.53182 1.05602,-3.2663 1.11134,-3.19931c0.40283,0.13893 0.03473,1.01803 0.03473,2.18814z" fill="#ffffff" stroke="none" stroke-width="0"/><path d="M251.06011,184.35631c0,-1.17011 -0.3681,-2.04921 0.03473,-2.18814c0.12478,-0.06699 0.93839,1.66749 1.11134,3.19931c0.16612,1.47132 -0.21933,2.80938 -0.41669,2.80938c-0.68069,0 -0.72938,-2.65045 -0.72938,-3.82056z" data-paper-data="{&quot;index&quot;:null}" fill="#ffffff" stroke="none" stroke-width="0"/></g></g></g></g></svg>