<svg version="1.1" xmlns="http://www.w3.org/2000/svg" xmlns:xlink="http://www.w3.org/1999/xlink" width="328" height="205" viewBox="0,0,328,205"><defs><linearGradient x1="240.23712" y1="184.26308" x2="240.23712" y2="185.69761" gradientUnits="userSpaceOnUse" id="color-1"><stop offset="0" stop-color="#8c4911"/><stop offset="1" stop-color="#552b0a"/></linearGradient><linearGradient x1="233.74089" y1="179.85815" x2="232.27601" y2="179.85815" gradientUnits="userSpaceOnUse" id="color-2"><stop offset="0" stop-color="#965016"/><stop offset="1" stop-color="#714111"/></linearGradient><linearGradient x1="239.87826" y1="175.06154" x2="239.87826" y2="176.97943" gradientUnits="userSpaceOnUse" id="color-3"><stop offset="0" stop-color="#dc9a4f"/><stop offset="1" stop-color="#9c571c"/></linearGradient><linearGradient x1="246.01037" y1="180.51303" x2="247.47526" y2="180.51303" gradientUnits="userSpaceOnUse" id="color-4"><stop offset="0" stop-color="#965016"/><stop offset="1" stop-color="#733e10"/></linearGradient><linearGradient x1="226.65484" y1="184.19058" x2="226.65484" y2="185.59848" gradientUnits="userSpaceOnUse" id="color-5"><stop offset="0" stop-color="#8c4911"/><stop offset="1" stop-color="#552b0a"/></linearGradient><linearGradient x1="223.84043" y1="179.86739" x2="223.20579" y2="179.86739" gradientUnits="userSpaceOnUse" id="color-6"><stop offset="0" stop-color="#965016"/><stop offset="1" stop-color="#714111"/></linearGradient><linearGradient x1="226.49938" y1="175.15981" x2="226.49938" y2="177.0421" gradientUnits="userSpaceOnUse" id="color-7"><stop offset="0" stop-color="#dc9a4f"/><stop offset="1" stop-color="#9c571c"/></linearGradient><linearGradient x1="229.15601" y1="180.51012" x2="229.79065" y2="180.51012" gradientUnits="userSpaceOnUse" id="color-8"><stop offset="0" stop-color="#965016"/><stop offset="1" stop-color="#733e10"/></linearGradient><linearGradient x1="253.61674" y1="184.26205" x2="253.61674" y2="185.6962" gradientUnits="userSpaceOnUse" id="color-9"><stop offset="0" stop-color="#8c4911"/><stop offset="1" stop-color="#552b0a"/></linearGradient><linearGradient x1="250.7499" y1="179.85828" x2="250.10342" y2="179.85828" gradientUnits="userSpaceOnUse" id="color-10"><stop offset="0" stop-color="#965016"/><stop offset="1" stop-color="#714111"/></linearGradient><linearGradient x1="253.4584" y1="175.06293" x2="253.4584" y2="176.98031" gradientUnits="userSpaceOnUse" id="color-11"><stop offset="0" stop-color="#dc9a4f"/><stop offset="1" stop-color="#9c571c"/></linearGradient><linearGradient x1="256.16453" y1="180.51299" x2="256.81102" y2="180.51299" gradientUnits="userSpaceOnUse" id="color-12"><stop offset="0" stop-color="#965016"/><stop offset="1" stop-color="#733e10"/></linearGradient><linearGradient x1="231.29472" y1="195.5766" x2="231.29472" y2="197.01139" gradientUnits="userSpaceOnUse" id="color-13"><stop offset="0" stop-color="#8c4911"/><stop offset="1" stop-color="#5a2f11"/></linearGradient><linearGradient x1="224.7685" y1="192.8411" x2="223.29688" y2="192.8411" gradientUnits="userSpaceOnUse" id="color-14"><stop offset="0" stop-color="#965016"/><stop offset="1" stop-color="#714111"/></linearGradient><linearGradient x1="230.9342" y1="188.04356" x2="230.9342" y2="189.96181" gradientUnits="userSpaceOnUse" id="color-15"><stop offset="0" stop-color="#d78a4d"/><stop offset="1" stop-color="#9c571c"/></linearGradient><linearGradient x1="237.09455" y1="193.49611" x2="238.5662" y2="193.49611" gradientUnits="userSpaceOnUse" id="color-16"><stop offset="0" stop-color="#965016"/><stop offset="1" stop-color="#733e10"/></linearGradient><linearGradient x1="248.71315" y1="195.57561" x2="248.71315" y2="197.00994" gradientUnits="userSpaceOnUse" id="color-17"><stop offset="0" stop-color="#8c4911"/><stop offset="1" stop-color="#582e10"/></linearGradient><linearGradient x1="255.17982" y1="192.84099" x2="256.6402" y2="192.84099" gradientUnits="userSpaceOnUse" id="color-18"><stop offset="0" stop-color="#965016"/><stop offset="1" stop-color="#80460d"/></linearGradient><linearGradient x1="249.06131" y1="188.045" x2="249.06131" y2="189.96264" gradientUnits="userSpaceOnUse" id="color-19"><stop offset="0" stop-color="#d78a4d"/><stop offset="1" stop-color="#9c571c"/></linearGradient><linearGradient x1="242.94805" y1="193.49579" x2="241.48767" y2="193.49579" gradientUnits="userSpaceOnUse" id="color-20"><stop offset="0" stop-color="#965016"/><stop offset="1" stop-color="#65360e"/></linearGradient><linearGradient x1="231.2945" y1="171.13266" x2="231.2945" y2="172.66295" gradientUnits="userSpaceOnUse" id="color-21"><stop offset="0" stop-color="#8c4911"/><stop offset="1" stop-color="#5a2f11"/></linearGradient><linearGradient x1="224.76808" y1="168.21511" x2="223.29639" y2="168.21511" gradientUnits="userSpaceOnUse" id="color-22"><stop offset="0" stop-color="#965016"/><stop offset="1" stop-color="#714111"/></linearGradient><linearGradient x1="230.93395" y1="163.09829" x2="230.93395" y2="165.14421" gradientUnits="userSpaceOnUse" id="color-23"><stop offset="0" stop-color="#ffb35c"/><stop offset="1" stop-color="#9c571c"/></linearGradient><linearGradient x1="237.09447" y1="168.91372" x2="238.5662" y2="168.91372" gradientUnits="userSpaceOnUse" id="color-24"><stop offset="0" stop-color="#965016"/><stop offset="1" stop-color="#733e10"/></linearGradient><linearGradient x1="248.65736" y1="171.11979" x2="248.65736" y2="172.65007" gradientUnits="userSpaceOnUse" id="color-25"><stop offset="0" stop-color="#8c4911"/><stop offset="1" stop-color="#5a2f11"/></linearGradient><linearGradient x1="255.18375" y1="168.20224" x2="256.65542" y2="168.20224" gradientUnits="userSpaceOnUse" id="color-26"><stop offset="0" stop-color="#965016"/><stop offset="1" stop-color="#854c14"/></linearGradient><linearGradient x1="249.01788" y1="163.08543" x2="249.01788" y2="165.13135" gradientUnits="userSpaceOnUse" id="color-27"><stop offset="0" stop-color="#ffb35c"/><stop offset="1" stop-color="#9c571c"/></linearGradient><linearGradient x1="242.85734" y1="168.90085" x2="241.38566" y2="168.90085" gradientUnits="userSpaceOnUse" id="color-28"><stop offset="0" stop-color="#965016"/><stop offset="1" stop-color="#6f3c10"/></linearGradient><radialGradient cx="238.91722" cy="190.05959" r="3.28259" gradientUnits="userSpaceOnUse" id="color-29"><stop offset="0" stop-color="#79cc37"/><stop offset="1" stop-color="#479115"/></radialGradient><radialGradient cx="238.96114" cy="189.87048" r="2.97512" gradientUnits="userSpaceOnUse" id="color-30"><stop offset="0" stop-color="#76c935"/><stop offset="1" stop-color="#64b927"/></radialGradient><linearGradient x1="241.90697" y1="191.25851" x2="235.66001" y2="187.85108" gradientUnits="userSpaceOnUse" id="color-31"><stop offset="0" stop-color="#509b20"/><stop offset="1" stop-color="#64b927"/></linearGradient><radialGradient cx="246.71389" cy="189.87048" r="2.97512" gradientUnits="userSpaceOnUse" id="color-32"><stop offset="0" stop-color="#76c935"/><stop offset="1" stop-color="#64b927"/></radialGradient><linearGradient x1="242.7626" y1="187.70446" x2="242.7626" y2="192.69016" gradientUnits="userSpaceOnUse" id="color-33"><stop offset="0" stop-color="#76c934"/><stop offset="1" stop-color="#398b10"/></linearGradient><linearGradient x1="241.93863" y1="192.68307" x2="243.60038" y2="191.1482" gradientUnits="userSpaceOnUse" id="color-34"><stop offset="0" stop-color="#2a650b"/><stop offset="1" stop-color="#2a650b" stop-opacity="0"/></linearGradient><radialGradient cx="242.96576" cy="183.0649" r="8.31827" gradientUnits="userSpaceOnUse" id="color-35"><stop offset="0" stop-color="#ff441f"/><stop offset="1" stop-color="#ab2d14"/></radialGradient><radialGradient cx="242.96576" cy="182.86723" r="7.99289" gradientUnits="userSpaceOnUse" id="color-36"><stop offset="0" stop-color="#ff441f"/><stop offset="1" stop-color="#e03b1a"/></radialGradient><radialGradient cx="242.96576" cy="182.83429" r="6.3746" gradientUnits="userSpaceOnUse" id="color-37"><stop offset="0" stop-color="#e6cc27"/><stop offset="1" stop-color="#ffea29"/></radialGradient><radialGradient cx="242.96576" cy="182.83429" r="5.27445" gradientUnits="userSpaceOnUse" id="color-38"><stop offset="0" stop-color="#ac991d"/><stop offset="1" stop-color="#ac991d" stop-opacity="0"/></radialGradient><radialGradient cx="242.8498" cy="182.05243" r="3.9017" gradientUnits="userSpaceOnUse" id="color-39"><stop offset="0" stop-color="#fefefe"/><stop offset="1" stop-color="#bbbbbb"/></radialGradient><radialGradient cx="242.85513" cy="182.12269" r="3.65102" gradientUnits="userSpaceOnUse" id="color-40"><stop offset="0" stop-color="#fefefe"/><stop offset="1" stop-color="#fefefe" stop-opacity="0"/></radialGradient><radialGradient cx="242.85902" cy="182.17896" r="3.46818" gradientUnits="userSpaceOnUse" id="color-41"><stop offset="0" stop-color="#fefefe"/><stop offset="1" stop-color="#fefefe" stop-opacity="0"/></radialGradient><radialGradient cx="241.22838" cy="182.42331" r="1.57216" gradientUnits="userSpaceOnUse" id="color-42"><stop offset="0" stop-color="#747474"/><stop offset="1" stop-color="#2e2e2f"/></radialGradient><radialGradient cx="241.2163" cy="181.79452" r="0.52098" gradientUnits="userSpaceOnUse" id="color-43"><stop offset="0" stop-color="#ffffff"/><stop offset="1" stop-color="#ffffff" stop-opacity="0"/></radialGradient><radialGradient cx="244.61038" cy="182.42331" r="1.57216" gradientUnits="userSpaceOnUse" id="color-44"><stop offset="0" stop-color="#747474"/><stop offset="1" stop-color="#2e2e2f"/></radialGradient><radialGradient cx="244.59831" cy="181.79452" r="0.52098" gradientUnits="userSpaceOnUse" id="color-45"><stop offset="0" stop-color="#ffffff"/><stop offset="1" stop-color="#ffffff" stop-opacity="0"/></radialGradient><radialGradient cx="238.91722" cy="190.05958" r="3.28259" gradientUnits="userSpaceOnUse" id="color-46"><stop offset="0" stop-color="#79cc37"/><stop offset="1" stop-color="#479115"/></radialGradient><radialGradient cx="238.96115" cy="189.87048" r="2.97512" gradientUnits="userSpaceOnUse" id="color-47"><stop offset="0" stop-color="#76c935"/><stop offset="1" stop-color="#64b927"/></radialGradient><linearGradient x1="241.90697" y1="191.25851" x2="235.66002" y2="187.85108" gradientUnits="userSpaceOnUse" id="color-48"><stop offset="0" stop-color="#509b20"/><stop offset="1" stop-color="#64b927"/></linearGradient><radialGradient cx="246.75781" cy="190.05958" r="3.28259" gradientUnits="userSpaceOnUse" id="color-49"><stop offset="0" stop-color="#79cc37"/><stop offset="1" stop-color="#479115"/></radialGradient><radialGradient cx="246.71389" cy="189.87048" r="2.97512" gradientUnits="userSpaceOnUse" id="color-50"><stop offset="0" stop-color="#76c935"/><stop offset="1" stop-color="#64b927"/></radialGradient><linearGradient x1="243.76806" y1="191.25851" x2="250.01502" y2="187.85108" gradientUnits="userSpaceOnUse" id="color-51"><stop offset="0" stop-color="#509b20"/><stop offset="1" stop-color="#64b927"/></linearGradient><linearGradient x1="242.7626" y1="187.70446" x2="242.7626" y2="192.69016" gradientUnits="userSpaceOnUse" id="color-52"><stop offset="0" stop-color="#76c934"/><stop offset="1" stop-color="#398b10"/></linearGradient><linearGradient x1="241.93863" y1="192.68306" x2="243.60038" y2="191.1482" gradientUnits="userSpaceOnUse" id="color-53"><stop offset="0" stop-color="#2a650b"/><stop offset="1" stop-color="#2a650b" stop-opacity="0"/></linearGradient><radialGradient cx="242.96575" cy="183.06489" r="8.31827" gradientUnits="userSpaceOnUse" id="color-54"><stop offset="0" stop-color="#ff441f"/><stop offset="1" stop-color="#ab2d14"/></radialGradient><radialGradient cx="242.96575" cy="182.86724" r="7.99289" gradientUnits="userSpaceOnUse" id="color-55"><stop offset="0" stop-color="#ff441f"/><stop offset="1" stop-color="#e03b1a"/></radialGradient><radialGradient cx="242.96575" cy="182.8343" r="6.3746" gradientUnits="userSpaceOnUse" id="color-56"><stop offset="0" stop-color="#e6cc27"/><stop offset="1" stop-color="#ffea29"/></radialGradient><radialGradient cx="242.96575" cy="182.8343" r="5.27445" gradientUnits="userSpaceOnUse" id="color-57"><stop offset="0" stop-color="#ac991d"/><stop offset="1" stop-color="#ac991d" stop-opacity="0"/></radialGradient><radialGradient cx="242.8498" cy="182.05243" r="3.9017" gradientUnits="userSpaceOnUse" id="color-58"><stop offset="0" stop-color="#fefefe"/><stop offset="1" stop-color="#bbbbbb"/></radialGradient><radialGradient cx="242.85513" cy="182.12269" r="3.65102" gradientUnits="userSpaceOnUse" id="color-59"><stop offset="0" stop-color="#fefefe"/><stop offset="1" stop-color="#fefefe" stop-opacity="0"/></radialGradient><radialGradient cx="242.85902" cy="182.17896" r="3.46818" gradientUnits="userSpaceOnUse" id="color-60"><stop offset="0" stop-color="#fefefe"/><stop offset="1" stop-color="#fefefe" stop-opacity="0"/></radialGradient><radialGradient cx="241.22838" cy="182.42331" r="1.57216" gradientUnits="userSpaceOnUse" id="color-61"><stop offset="0" stop-color="#747474"/><stop offset="1" stop-color="#2e2e2f"/></radialGradient><radialGradient cx="241.21631" cy="181.79452" r="0.52098" gradientUnits="userSpaceOnUse" id="color-62"><stop offset="0" stop-color="#ffffff"/><stop offset="1" stop-color="#ffffff" stop-opacity="0"/></radialGradient><radialGradient cx="244.61038" cy="182.42331" r="1.57216" gradientUnits="userSpaceOnUse" id="color-63"><stop offset="0" stop-color="#747474"/><stop offset="1" stop-color="#2e2e2f"/></radialGradient><radialGradient cx="244.59831" cy="181.79452" r="0.52098" gradientUnits="userSpaceOnUse" id="color-64"><stop offset="0" stop-color="#ffffff"/><stop offset="1" stop-color="#ffffff" stop-opacity="0"/></radialGradient><radialGradient cx="248.82789" cy="190.75233" r="2.83547" gradientUnits="userSpaceOnUse" id="color-65"><stop offset="0" stop-color="#feffbc"/><stop offset="1" stop-color="#ffe68d"/></radialGradient><linearGradient x1="248.8279" y1="189.12317" x2="248.8279" y2="193.0421" gradientUnits="userSpaceOnUse" id="color-66"><stop offset="0" stop-color="#ebc578" stop-opacity="0"/><stop offset="1" stop-color="#ebc578"/></linearGradient><linearGradient x1="248.83384" y1="185.91301" x2="248.83384" y2="193.41007" gradientUnits="userSpaceOnUse" id="color-67"><stop offset="0" stop-color="#f20000"/><stop offset="1" stop-color="#740000"/></linearGradient><radialGradient cx="247.94286" cy="190.33818" r="0.5963" gradientUnits="userSpaceOnUse" id="color-68"><stop offset="0" stop-color="#747474"/><stop offset="1" stop-color="#2e2e2f"/></radialGradient><radialGradient cx="247.93247" cy="190.17474" r="0.28438" gradientUnits="userSpaceOnUse" id="color-69"><stop offset="0" stop-color="#ffffff"/><stop offset="1" stop-color="#ffffff" stop-opacity="0"/></radialGradient><radialGradient cx="249.74922" cy="190.33819" r="0.5963" gradientUnits="userSpaceOnUse" id="color-70"><stop offset="0" stop-color="#747474"/><stop offset="1" stop-color="#2e2e2f"/></radialGradient><radialGradient cx="249.73883" cy="190.17474" r="0.28439" gradientUnits="userSpaceOnUse" id="color-71"><stop offset="0" stop-color="#ffffff"/><stop offset="1" stop-color="#ffffff" stop-opacity="0"/></radialGradient><radialGradient cx="248.82789" cy="190.75233" r="2.83547" gradientUnits="userSpaceOnUse" id="color-72"><stop offset="0" stop-color="#feffbc"/><stop offset="1" stop-color="#ffe68d"/></radialGradient><linearGradient x1="248.82789" y1="189.12317" x2="248.82789" y2="193.0421" gradientUnits="userSpaceOnUse" id="color-73"><stop offset="0" stop-color="#ebc578" stop-opacity="0"/><stop offset="1" stop-color="#ebc578"/></linearGradient><linearGradient x1="248.83384" y1="185.91301" x2="248.83384" y2="193.41007" gradientUnits="userSpaceOnUse" id="color-74"><stop offset="0" stop-color="#f20000"/><stop offset="1" stop-color="#740000"/></linearGradient><radialGradient cx="247.94286" cy="190.33818" r="0.5963" gradientUnits="userSpaceOnUse" id="color-75"><stop offset="0" stop-color="#747474"/><stop offset="1" stop-color="#2e2e2f"/></radialGradient><radialGradient cx="247.93521" cy="190.47929" r="0.68555" gradientUnits="userSpaceOnUse" id="color-76"><stop offset="0" stop-color="#636364"/><stop offset="1" stop-color="#2e2e2f"/></radialGradient><radialGradient cx="247.93247" cy="190.17473" r="0.28438" gradientUnits="userSpaceOnUse" id="color-77"><stop offset="0" stop-color="#ffffff"/><stop offset="1" stop-color="#ffffff" stop-opacity="0"/></radialGradient><radialGradient cx="249.74922" cy="190.33818" r="0.5963" gradientUnits="userSpaceOnUse" id="color-78"><stop offset="0" stop-color="#747474"/><stop offset="1" stop-color="#2e2e2f"/></radialGradient><radialGradient cx="249.74157" cy="190.47929" r="0.68555" gradientUnits="userSpaceOnUse" id="color-79"><stop offset="0" stop-color="#636364"/><stop offset="1" stop-color="#2e2e2f"/></radialGradient><radialGradient cx="249.73883" cy="190.17473" r="0.28439" gradientUnits="userSpaceOnUse" id="color-80"><stop offset="0" stop-color="#ffffff"/><stop offset="1" stop-color="#ffffff" stop-opacity="0"/></radialGradient><radialGradient cx="248.80803" cy="186.49879" r="4.46688" gradientUnits="userSpaceOnUse" id="color-81"><stop offset="0" stop-color="#ff2929"/><stop offset="1" stop-color="#ff2929" stop-opacity="0"/></radialGradient></defs><g transform="translate(-76,-77.5)"><g data-paper-data="{&quot;isPaintingLayer&quot;:true}" fill-rule="nonzero" stroke-linecap="butt" stroke-linejoin="miter" stroke-miterlimit="10" stroke-dasharray="" stroke-dashoffset="0" style="mix-blend-mode: normal"><path d="M76,282.5v-205h328v205z" fill="none" stroke="none" stroke-width="0"/><g stroke="none" stroke-width="0"><path d="M222.99503,195.47251l0.11111,-30.33421l1.49059,-2.24742h30.76725l1.64099,2.53405v30.00372l-1.50528,1.68047h-31.19159z" data-paper-data="{&quot;origPos&quot;:null}" fill="#502800"/><g data-paper-data="{&quot;origPos&quot;:null}"><path d="M232.29313,184.26308h15.15281v1.43452h-15.14728z" data-paper-data="{&quot;origPos&quot;:null}" fill="url(#color-1)"/><path d="M232.27601,185.67011v-10.6547l1.46489,1.96467v7.33098z" data-paper-data="{&quot;origPos&quot;:null,&quot;index&quot;:null}" fill="url(#color-2)"/><path d="M233.70262,184.26428v-7.43299h12.33736v7.43299z" data-paper-data="{&quot;origPos&quot;:null}" fill="#965016"/><path d="M233.70572,176.97943l-1.42855,-1.91789h15.20218l-1.46911,1.91789z" data-paper-data="{&quot;origPos&quot;:null}" fill="url(#color-3)"/><path d="M246.01037,184.28829v-7.3082l1.46489,-1.96467v10.68089z" data-paper-data="{&quot;origPos&quot;:null}" fill="url(#color-4)"/></g><g data-paper-data="{&quot;origPos&quot;:null}"><path d="M223.21322,184.19058h6.56474v1.40789h-6.56234z" data-paper-data="{&quot;origPos&quot;:null}" fill="url(#color-5)"/><path d="M223.20579,185.57149v-10.45695l1.49623,1.92821l-0.05068,7.19492z" data-paper-data="{&quot;origPos&quot;:null,&quot;index&quot;:null}" fill="url(#color-6)"/><path d="M224.63475,184.19175v-7.29504h3.77386v7.29504z" data-paper-data="{&quot;origPos&quot;:null}" fill="#965016"/><path d="M224.63609,177.0421l-1.4298,-1.88229h6.58613l-0.63647,1.88229z" data-paper-data="{&quot;origPos&quot;:null}" fill="url(#color-7)"/><path d="M228.39579,184.21532v-7.17257l1.39487,-1.92821v10.48265z" data-paper-data="{&quot;origPos&quot;:null}" fill="url(#color-8)"/></g><g data-paper-data="{&quot;origPos&quot;:null}"><path d="M250.11098,184.26205h6.68713v1.43414h-6.68469z" data-paper-data="{&quot;origPos&quot;:null}" fill="url(#color-9)"/><path d="M250.10342,185.66872v-10.65189l1.52412,1.96415l-0.05163,7.32905z" data-paper-data="{&quot;origPos&quot;:null,&quot;index&quot;:null}" fill="url(#color-10)"/><path d="M251.55902,184.26325v-7.43104h3.84422v7.43104z" data-paper-data="{&quot;origPos&quot;:null}" fill="#965016"/><path d="M251.56039,176.98031l-1.45645,-1.91738h6.70891l-0.64834,1.91738z" data-paper-data="{&quot;origPos&quot;:null}" fill="url(#color-11)"/><path d="M255.39013,184.28726v-7.30629l1.42087,-1.96415v10.67808z" data-paper-data="{&quot;origPos&quot;:null}" fill="url(#color-12)"/></g><g data-paper-data="{&quot;origPos&quot;:null}"><path d="M224.05266,196.58641v-1.00981h14.48406v1.43479h-14.09663z" data-paper-data="{&quot;origPos&quot;:null}" fill="url(#color-13)"/><path d="M223.29688,195.71971v-7.72228l1.47164,1.96505v5.75723l-0.72122,0.86462z" data-paper-data="{&quot;origPos&quot;:null,&quot;index&quot;:null}" fill="url(#color-14)"/><path d="M224.73005,195.7088v-5.89514h12.39423v5.89514z" data-paper-data="{&quot;origPos&quot;:null}" fill="#965016"/><path d="M224.73317,189.96181l-1.43512,-1.91826h15.27225l-1.4759,1.91826z" data-paper-data="{&quot;origPos&quot;:null}" fill="url(#color-15)"/><path d="M237.09455,195.71971v-5.75723l1.47164,-1.96505v9.03231z" data-paper-data="{&quot;origPos&quot;:null}" fill="url(#color-16)"/></g><g data-paper-data="{&quot;origPos&quot;:null}"><path d="M255.48328,197.00994h-13.94487v-1.43433h14.34948v1.00949z" data-paper-data="{&quot;origPos&quot;:null,&quot;index&quot;:null}" fill="url(#color-17)"/><path d="M255.89554,196.58302l-0.7157,-0.86434v-5.75538l1.46037,-1.96442v7.71979z" data-paper-data="{&quot;origPos&quot;:null,&quot;index&quot;:null}" fill="url(#color-18)"/><path d="M242.91853,195.70777v-5.89324h12.29945v5.89324z" data-paper-data="{&quot;origPos&quot;:null,&quot;index&quot;:null}" fill="#965016"/><path d="M242.9482,189.96264l-1.46461,-1.91764h15.15546l-1.42415,1.91764z" data-paper-data="{&quot;origPos&quot;:null,&quot;index&quot;:null}" fill="url(#color-19)"/><path d="M241.48767,197.02828v-9.0294l1.46039,1.96442v5.75538z" data-paper-data="{&quot;origPos&quot;:null,&quot;index&quot;:null}" fill="url(#color-20)"/></g><g data-paper-data="{&quot;origPos&quot;:null}"><path d="M224.05224,171.13267h14.48451v1.53028h-15.25115z" data-paper-data="{&quot;origPos&quot;:null}" fill="url(#color-21)"/><path d="M223.29639,172.63886v-7.6408l1.14044,-1.89521c0,0 2.61128,1.42179 2.6853,1.84984c0.05523,0.31933 -2.35407,0.0652 -2.35407,0.0652v6.2674z" data-paper-data="{&quot;origPos&quot;:null,&quot;index&quot;:null}" fill="url(#color-22)"/><path d="M225.34392,165.14421l-0.89415,-2.04593h14.12054l-1.47595,2.04593z" data-paper-data="{&quot;origPos&quot;:null}" fill="url(#color-23)"/><path d="M224.72965,171.27367v-6.28746h12.39461v6.28746z" data-paper-data="{&quot;origPos&quot;:null}" fill="#965016"/><path d="M237.09447,171.28531v-6.14038l1.45069,-2.05217l0.02098,9.58976z" data-paper-data="{&quot;origPos&quot;:null}" fill="url(#color-24)"/></g><g data-paper-data="{&quot;origPos&quot;:null}"><path d="M256.66625,172.65007h-15.25115v-1.53028h14.48451z" data-paper-data="{&quot;origPos&quot;:null}" fill="url(#color-25)"/><path d="M255.18375,171.27244v-6.2674c0,0 -2.86845,0.04346 -2.81371,-0.27299c0.07454,-0.43093 3.14496,-1.64206 3.14496,-1.64206l1.14044,1.8952v7.64081z" data-paper-data="{&quot;origPos&quot;:null,&quot;index&quot;:null}" fill="url(#color-26)"/><path d="M242.85747,165.13135l-1.47594,-2.04592h14.12054l-0.79229,2.04592z" data-paper-data="{&quot;origPos&quot;:null}" fill="url(#color-27)"/><path d="M242.82759,171.26078v-6.28746h12.39461v6.28746z" data-paper-data="{&quot;origPos&quot;:null}" fill="#965016"/><path d="M241.38566,172.66966l0.02097,-9.58976l1.45069,2.05217v6.14039z" data-paper-data="{&quot;origPos&quot;:null}" fill="url(#color-28)"/></g></g><g><g><g stroke="#000000" stroke-width="4"><g><g data-paper-data="{&quot;index&quot;:null}"><path d="M239.98083,192.20805c-1.00722,-0.10908 -1.98959,-0.5032 -2.37664,-0.70093c-0.47186,-0.24106 -1.24477,-0.95381 -1.63503,-1.7406c-0.31869,-0.64251 -0.29988,-1.37115 -0.33452,-1.62862c-0.00232,-0.01722 1.88719,-0.77771 4.18862,0.36969c2.21381,1.10373 2.37657,2.99268 2.37657,3.30683c0,0 -1.11622,0.51305 -2.219,0.39363z" data-paper-data="{&quot;index&quot;:null}" fill="url(#color-29)"/><path d="M239.92512,191.8177c-0.91288,-0.09886 -1.80323,-0.45607 -2.15403,-0.63528c-0.42766,-0.21848 -1.12818,-0.86446 -1.48188,-1.57756c-0.28884,-0.58232 -0.27179,-1.24272 -0.30319,-1.47607c-0.0021,-0.0156 1.71043,-0.70487 3.79628,0.33507c2.00645,1.00034 2.15396,2.71236 2.15396,2.99708c0,0 -1.01165,0.465 -2.01114,0.35676z" data-paper-data="{&quot;index&quot;:null}" fill="url(#color-30)"/><path d="M238.95796,189.72501c-0.97885,-0.52812 -2.92566,-1.55899 -2.92566,-1.55899c0,0 2.18551,0.79712 3.22387,1.31258c1.05761,0.52502 2.75071,1.59674 2.75071,1.59674l-0.19982,0.36633c0,0 -1.80803,-1.15498 -2.8491,-1.71667z" fill="url(#color-31)"/></g><g fill="url(#color-32)"><path d="M243.73876,191.46093c0,-0.28473 0.14752,-1.99674 2.15396,-2.99708c2.08585,-1.03993 3.79838,-0.35067 3.79628,-0.33507c-0.0314,0.23335 -0.01436,0.89375 -0.30319,1.47607c-0.3537,0.7131 -1.05422,1.35909 -1.48188,1.57756c-0.3508,0.17921 -1.24115,0.53642 -2.15403,0.63528c-0.99949,0.10824 -2.01115,-0.06199 -2.01115,-0.35677z" data-paper-data="{&quot;index&quot;:null}"/></g><g><path d="M241.63154,192.31658v-4.61211h2.26213v4.61211c0,0 -0.22138,0.36256 -1.12008,0.37336c-0.90929,0.01095 -1.14205,-0.37336 -1.14205,-0.37336z" fill="url(#color-33)"/><path d="M241.81321,192.49038c-0.13384,-0.09418 -0.18324,-0.20434 -0.18324,-0.20434l0.0008,-3.64991l2.27374,2.71794l-0.0204,0.96263c0,0 -0.18507,0.28072 -0.74222,0.35252c-0.55282,0.07124 -1.02194,-0.05471 -1.02194,-0.05471c0,0 -0.22097,-0.06378 -0.30674,-0.12413z" fill="url(#color-34)"/></g></g><g><path d="M251.28403,183.0649c0,3.49937 -3.72421,6.33616 -8.31827,6.33616c-4.59406,0 -8.31827,-2.8368 -8.31827,-6.33616c0,-3.49937 3.72422,-6.33616 8.31827,-6.33616c4.59406,0 8.31827,2.8368 8.31827,6.33616z" fill="url(#color-35)"/><path d="M250.95864,182.86723c0,3.36248 -3.57853,6.08832 -7.99289,6.08832c-4.41435,0 -7.99289,-2.72583 -7.99289,-6.08831c0,-3.36248 3.57854,-6.08832 7.99289,-6.08832c4.41435,0 7.99289,2.72583 7.99289,6.08832z" fill="url(#color-36)"/><path d="M249.34035,182.83429c0,2.66435 -2.854,4.82423 -6.3746,4.82423c-3.52059,0 -6.3746,-2.15988 -6.3746,-4.82423c0,-2.66435 2.85401,-4.82423 6.3746,-4.82423c3.52059,0 6.3746,2.15988 6.3746,4.82423z" fill="url(#color-37)"/><path d="M248.24021,182.83429c0,2.15988 -2.36145,3.91081 -5.27445,3.91081c-2.913,0 -5.27445,-1.75093 -5.27445,-3.91081c0,-2.15988 2.36145,-3.91081 5.27445,-3.91081c2.913,0 5.27445,1.75093 5.27445,3.91081z" fill="url(#color-38)"/><g><path d="M246.83451,182.80135c0,1.51835 -1.74685,2.74921 -3.9017,2.74921c-2.15485,0 -3.9017,-1.23087 -3.9017,-2.74921c0,-1.51835 1.74685,-2.74921 3.9017,-2.74921c2.15485,0 3.9017,1.23087 3.9017,2.74921z" fill="url(#color-39)"/><path d="M246.58383,182.80135c0,1.37588 -1.63462,2.49126 -3.65102,2.49126c-2.0164,0 -3.65102,-1.11537 -3.65102,-2.49126c0,-1.37588 1.63462,-2.49126 3.65102,-2.49126c2.0164,0 3.65102,1.11537 3.65102,2.49126z" fill="url(#color-40)"/><path d="M246.40099,182.80135c0,1.26182 -1.55275,2.28472 -3.46818,2.28472c-1.91542,0 -3.46818,-1.0229 -3.46818,-2.28472c0,-1.26182 1.55276,-2.28472 3.46818,-2.28472c1.91542,0 3.46818,1.0229 3.46818,2.28472z" fill="url(#color-41)"/></g><g><g><path d="M240.46246,181.81986c0,0 0.04582,-0.61588 0.72838,-0.61502c0.73478,0.00093 0.76315,0.61502 0.76315,0.61502v1.82916c0,0 -0.00838,0.62432 -0.75149,0.62432c-0.71009,0 -0.74005,-0.62432 -0.74005,-0.62432z" fill="url(#color-42)"/><g><path d="M241.64535,181.79452c0,0.2818 -0.19209,0.51024 -0.42904,0.51024c-0.23695,0 -0.42904,-0.22844 -0.42904,-0.51024c0,-0.2818 0.19209,-0.51024 0.42904,-0.51024c0.23695,0 0.42904,0.22844 0.42904,0.51024z" fill="url(#color-43)"/><path d="M241.54047,181.79452c0,0.21291 -0.14513,0.38552 -0.32416,0.38552c-0.17903,0 -0.32416,-0.1726 -0.32416,-0.38552c0,-0.21291 0.14513,-0.38551 0.32416,-0.38551c0.17903,0 0.32416,0.1726 0.32416,0.38551z" fill="#ffffff"/></g></g><g><path d="M243.84446,181.81986c0,0 0.04582,-0.61589 0.72839,-0.61502c0.73478,0.00093 0.76315,0.61502 0.76315,0.61502v1.82916c0,0 -0.00838,0.62432 -0.75149,0.62432c-0.71009,0 -0.74005,-0.62432 -0.74005,-0.62432z" fill="url(#color-44)"/><g><path d="M245.02735,181.79452c0,0.2818 -0.19209,0.51024 -0.42904,0.51024c-0.23695,0 -0.42904,-0.22844 -0.42904,-0.51024c0,-0.2818 0.19209,-0.51024 0.42904,-0.51024c0.23695,0 0.42904,0.22844 0.42904,0.51024z" fill="url(#color-45)"/><path d="M244.92247,181.79452c0,0.21291 -0.14513,0.38552 -0.32416,0.38552c-0.17903,0 -0.32416,-0.1726 -0.32416,-0.38552c0,-0.21291 0.14513,-0.38551 0.32416,-0.38551c0.17903,0 0.32416,0.1726 0.32416,0.38551z" fill="#ffffff"/></g></g></g></g></g><g stroke="none"><g stroke-width="0"><g data-paper-data="{&quot;index&quot;:null}"><path d="M242.19982,191.81441c0,0.32524 -1.11621,0.51307 -2.219,0.39364c-1.00722,-0.10908 -1.98959,-0.50321 -2.37664,-0.70093c-0.47186,-0.24106 -1.24477,-0.95381 -1.63503,-1.7406c-0.31869,-0.64251 -0.29988,-1.37114 -0.33453,-1.62861c-0.00232,-0.01722 1.88719,-0.77772 4.18861,0.36969c2.21381,1.10373 2.37657,2.99268 2.37657,3.30683z" data-paper-data="{&quot;index&quot;:null}" fill="url(#color-46)"/><path d="M241.93627,191.46093c0,0.29477 -1.01166,0.46501 -2.01115,0.35677c-0.91288,-0.09886 -1.80323,-0.45607 -2.15403,-0.63528c-0.42767,-0.21848 -1.12818,-0.86446 -1.48188,-1.57756c-0.28884,-0.58232 -0.27179,-1.24271 -0.30319,-1.47607c-0.0021,-0.0156 1.71042,-0.70487 3.79628,0.33507c2.00645,1.00034 2.15396,2.71236 2.15396,2.99708z" data-paper-data="{&quot;index&quot;:null}" fill="url(#color-47)"/><path d="M238.95796,189.72501c-0.97885,-0.52812 -2.92567,-1.55899 -2.92567,-1.55899c0,0 2.18551,0.79712 3.22387,1.31258c1.05761,0.52502 2.75072,1.59674 2.75072,1.59674l-0.19982,0.36634c0,0 -1.80803,-1.15497 -2.8491,-1.71667z" fill="url(#color-48)"/></g><g><path d="M243.47522,191.81441c0,-0.31415 0.16277,-2.2031 2.37657,-3.30683c2.30142,-1.14741 4.19093,-0.38691 4.18861,-0.36969c-0.03464,0.25747 -0.01584,0.98611 -0.33453,1.62861c-0.39025,0.7868 -1.16316,1.49954 -1.63503,1.7406c-0.38705,0.19774 -1.36942,0.59186 -2.37664,0.70093c-1.10279,0.11942 -2.219,-0.0684 -2.219,-0.39364z" data-paper-data="{&quot;index&quot;:null}" fill="url(#color-49)"/><path d="M243.73876,191.46093c0,-0.28473 0.14752,-1.99674 2.15396,-2.99708c2.08585,-1.03993 3.79837,-0.35067 3.79628,-0.33507c-0.0314,0.23336 -0.01435,0.89374 -0.30319,1.47607c-0.3537,0.7131 -1.05421,1.35909 -1.48188,1.57756c-0.3508,0.17921 -1.24115,0.53642 -2.15403,0.63528c-0.99949,0.10824 -2.01115,-0.06199 -2.01115,-0.35677z" data-paper-data="{&quot;index&quot;:null}" fill="url(#color-50)"/><path d="M243.86797,191.44168l-0.19982,-0.36634c0,0 1.69311,-1.07173 2.75072,-1.59674c1.03835,-0.51545 3.22387,-1.31258 3.22387,-1.31258c0,0 -1.94682,1.03087 -2.92567,1.55899c-1.04107,0.56169 -2.8491,1.71667 -2.8491,1.71667z" fill="url(#color-51)"/></g><g><path d="M241.63154,192.31658v-4.61211h2.26213v4.61211c0,0 -0.22137,0.36256 -1.12008,0.37336c-0.90929,0.01095 -1.14205,-0.37336 -1.14205,-0.37336z" fill="url(#color-52)"/><path d="M242.11997,192.6145c0,0 -0.22098,-0.06377 -0.30675,-0.12412c-0.13383,-0.09418 -0.18324,-0.20434 -0.18324,-0.20434l0.0008,-3.64991l2.27374,2.71794l-0.0204,0.96263c0,0 -0.18507,0.28072 -0.74222,0.35252c-0.55281,0.07124 -1.02194,-0.05471 -1.02194,-0.05471z" fill="url(#color-53)"/></g></g><g><path d="M251.28403,183.06489c0,3.49937 -3.72421,6.33616 -8.31827,6.33616c-4.59406,0 -8.31827,-2.8368 -8.31827,-6.33616c0,-3.49937 3.72421,-6.33616 8.31827,-6.33616c4.59406,0 8.31827,2.8368 8.31827,6.33616z" fill="url(#color-54)" stroke-width="NaN"/><path d="M250.95865,182.86724c0,3.36248 -3.57854,6.08831 -7.99289,6.08831c-4.41435,0 -7.99289,-2.72583 -7.99289,-6.08831c0,-3.36248 3.57854,-6.08831 7.99289,-6.08831c4.41435,0 7.99289,2.72583 7.99289,6.08831z" fill="url(#color-55)" stroke-width="NaN"/><path d="M249.34036,182.8343c0,2.66435 -2.854,4.82424 -6.3746,4.82424c-3.52059,0 -6.3746,-2.15989 -6.3746,-4.82424c0,-2.66435 2.854,-4.82424 6.3746,-4.82424c3.52059,0 6.3746,2.15989 6.3746,4.82424z" fill="url(#color-56)" stroke-width="NaN"/><path d="M248.24021,182.8343c0,2.15988 -2.36145,3.91081 -5.27445,3.91081c-2.913,0 -5.27445,-1.75093 -5.27445,-3.91081c0,-2.15988 2.36145,-3.91081 5.27445,-3.91081c2.913,0 5.27445,1.75093 5.27445,3.91081z" fill="url(#color-57)" stroke-width="NaN"/><g><path d="M246.83451,182.80135c0,1.51835 -1.74685,2.74921 -3.9017,2.74921c-2.15485,0 -3.9017,-1.23086 -3.9017,-2.74921c0,-1.51835 1.74685,-2.74921 3.9017,-2.74921c2.15485,0 3.9017,1.23086 3.9017,2.74921z" fill="url(#color-58)" stroke-width="NaN"/><path d="M246.58383,182.80135c0,1.37588 -1.63462,2.49126 -3.65102,2.49126c-2.01641,0 -3.65102,-1.11538 -3.65102,-2.49126c0,-1.37588 1.63462,-2.49126 3.65102,-2.49126c2.01641,0 3.65102,1.11538 3.65102,2.49126z" fill="url(#color-59)" stroke-width="NaN"/><path d="M246.401,182.80135c0,1.26181 -1.55275,2.28472 -3.46818,2.28472c-1.91542,0 -3.46818,-1.0229 -3.46818,-2.28472c0,-1.26181 1.55275,-2.28472 3.46818,-2.28472c1.91542,0 3.46818,1.0229 3.46818,2.28472z" fill="url(#color-60)" stroke-width="NaN"/></g><g stroke-width="0"><g><path d="M240.46246,181.81986c0,0 0.04582,-0.61588 0.72839,-0.61502c0.73478,0.00092 0.76315,0.61502 0.76315,0.61502v1.82916c0,0 -0.00839,0.62432 -0.75149,0.62432c-0.7101,0 -0.74005,-0.62432 -0.74005,-0.62432z" fill="url(#color-61)"/><g><path d="M241.64535,181.79452c0,0.2818 -0.19208,0.51024 -0.42904,0.51024c-0.23696,0 -0.42904,-0.22845 -0.42904,-0.51024c0,-0.2818 0.19209,-0.51024 0.42904,-0.51024c0.23696,0 0.42904,0.22845 0.42904,0.51024z" fill="url(#color-62)"/><path d="M241.54047,181.79452c0,0.21291 -0.14514,0.38552 -0.32416,0.38552c-0.17903,0 -0.32417,-0.1726 -0.32417,-0.38552c0,-0.21291 0.14514,-0.38552 0.32417,-0.38552c0.17903,0 0.32416,0.1726 0.32416,0.38552z" fill="#ffffff"/></g></g><g><path d="M243.84446,181.81986c0,0 0.04582,-0.61588 0.72839,-0.61502c0.73478,0.00092 0.76315,0.61502 0.76315,0.61502v1.82916c0,0 -0.00839,0.62432 -0.75149,0.62432c-0.7101,0 -0.74005,-0.62432 -0.74005,-0.62432z" fill="url(#color-63)"/><g><path d="M245.02735,181.79452c0,0.2818 -0.19208,0.51024 -0.42904,0.51024c-0.23696,0 -0.42904,-0.22845 -0.42904,-0.51024c0,-0.2818 0.19209,-0.51024 0.42904,-0.51024c0.23696,0 0.42904,0.22845 0.42904,0.51024z" fill="url(#color-64)"/><path d="M244.92247,181.79452c0,0.21291 -0.14514,0.38552 -0.32416,0.38552c-0.17903,0 -0.32416,-0.1726 -0.32416,-0.38552c0,-0.21291 0.14514,-0.38552 0.32416,-0.38552c0.17903,0 0.32416,0.1726 0.32416,0.38552z" fill="#ffffff"/></g></g></g></g></g></g><g><g><path d="M251.41585,189.9352c0.17451,0.20726 0.41589,1.16232 0.07652,1.77533c-0.60194,1.08726 -2.27146,0.99957 -2.62756,0.99957c-1.72462,0 -2.31473,-0.37962 -2.65535,-1.10704c-0.15536,-0.33178 -0.43396,-1.40259 0.07549,-2.01439c0.5667,-0.68056 1.96521,-0.7958 2.57987,-0.7958c0.65956,0 2.00434,0.49302 2.55103,1.14232z" fill="url(#color-65)" stroke="#000000" stroke-width="4"/><path d="M251.49236,191.71052c-0.60194,1.08726 -2.27146,0.99958 -2.62756,0.99958c-1.72462,0 -2.31473,-0.37962 -2.65535,-1.10704c-0.15536,-0.33178 -0.43396,-1.40259 0.07548,-2.01439c0.5667,-0.68056 1.96521,-0.7958 2.57987,-0.7958c0.65956,0 2.00434,0.49303 2.55103,1.14232c0,0 0.4159,1.16232 0.07652,1.77532z" fill="url(#color-66)" stroke="#000000" stroke-width="4"/><path d="M251.49054,191.72632c-0.01794,0.0069 0.07849,-0.70622 0.07849,-0.70622c0,0 -0.25245,-0.55297 -0.95554,-0.97035c-0.49983,-0.29673 -1.24605,-0.50462 -1.81578,-0.48273c-0.66733,0.02867 -1.23964,0.20014 -1.72878,0.48344c-0.73309,0.42458 -1.02244,1.02705 -1.02244,1.02705c0,0 0.19658,0.57914 0.1941,0.5778c-0.52791,-0.28603 -0.85813,-0.52772 -1.09807,-0.8239c-0.6621,-0.64893 -0.82693,-1.89115 -0.71362,-2.75077c0.16515,-1.25305 0.90329,-2.50802 2.02856,-3.22506c0.81755,-0.52095 1.72688,-0.67668 2.37639,-0.67668c0.77167,0 1.94505,0.24484 2.86879,0.96136c0.92389,0.71663 1.26778,1.88955 1.49486,2.97135c0.10276,1.0769 -0.07824,2.1253 -0.65835,2.73928c0,0 -0.62785,0.71372 -1.0486,0.87543z" fill="url(#color-67)" stroke="#000000" stroke-width="4"/><g fill="none" stroke="none" stroke-width="1" font-family="sans-serif" font-weight="normal" font-size="12" text-anchor="start"><g/><g/></g><g stroke="#000000" stroke-width="4"><g><path d="M247.65235,190.90826v-0.88449c0,0 0.01738,-0.23042 0.27627,-0.23003c0.27869,0.00042 0.28945,0.23003 0.28945,0.23003v0.88449c0,0 -0.00318,0.25658 -0.28503,0.25658c-0.26933,0 -0.2807,-0.25658 -0.2807,-0.25658z" fill="url(#color-68)"/><path d="M248.16666,190.17474c0,0.15706 -0.10485,0.28438 -0.2342,0.28438c-0.12934,0 -0.2342,-0.12732 -0.2342,-0.28438c0,-0.15706 0.10486,-0.28439 0.2342,-0.28439c0.12934,0 0.2342,0.12733 0.2342,0.28439z" fill="url(#color-69)"/><path d="M248.10942,190.17474c0,0.11867 -0.07923,0.21487 -0.17695,0.21487c-0.09773,0 -0.17695,-0.0962 -0.17695,-0.21487c0,-0.11867 0.07923,-0.21487 0.17695,-0.21487c0.09773,0 0.17695,0.09621 0.17695,0.21487z" fill="#ffffff"/></g><g><path d="M249.45871,190.90826v-0.88449c0,0 0.01738,-0.23042 0.27627,-0.23003c0.27869,0.00042 0.28945,0.23003 0.28945,0.23003v0.88449c0,0 -0.00318,0.25658 -0.28503,0.25658c-0.26933,0 -0.28069,-0.25658 -0.28069,-0.25658z" fill="url(#color-70)"/><path d="M249.97303,190.17474c0,0.15706 -0.10486,0.28438 -0.2342,0.28438c-0.12934,0 -0.2342,-0.12732 -0.2342,-0.28438c0,-0.15706 0.10486,-0.28439 0.2342,-0.28439c0.12934,0 0.2342,0.12733 0.2342,0.28439z" fill="url(#color-71)"/><path d="M249.91578,190.17474c0,0.11867 -0.07923,0.21487 -0.17696,0.21487c-0.09773,0 -0.17695,-0.0962 -0.17695,-0.21487c0,-0.11867 0.07923,-0.21487 0.17695,-0.21487c0.09773,0 0.17696,0.0962 0.17696,0.21487z" fill="#ffffff"/></g></g><path d="M250.86213,186.12719c0,0.90072 -0.91503,1.69282 -2.04377,1.69282c-1.12874,0 -2.04377,-0.79211 -2.04377,-1.69282c0,-0.90072 0.91503,-1.56895 2.04377,-1.56895c1.12874,0 2.04377,0.66824 2.04377,1.56895z" fill="#ffffff" stroke="#000000" stroke-width="4"/><path d="M245.06112,187.63422c0,0.69549 -0.02895,2.27086 -0.43353,2.27086c-0.11731,0 -0.34641,-0.79532 -0.24767,-1.66984c0.1028,-0.91048 0.62768,-1.94142 0.66055,-1.9016c0.23943,0.08258 0.02065,0.6051 0.02065,1.30059z" fill="#ffffff" stroke="#000000" stroke-width="4"/><path d="M252.58102,187.63422c0,-0.69549 -0.21879,-1.21801 0.02065,-1.30058c0.07416,-0.03982 0.55775,0.99112 0.66055,1.9016c0.09874,0.87452 -0.13037,1.66984 -0.24767,1.66984c-0.40458,0 -0.43353,-1.57537 -0.43353,-2.27086z" data-paper-data="{&quot;index&quot;:null}" fill="#ffffff" stroke="#000000" stroke-width="4"/></g><g><path d="M251.41584,189.9352c0.17451,0.20726 0.4159,1.16232 0.07652,1.77532c-0.60194,1.08726 -2.27146,0.99958 -2.62755,0.99958c-1.72461,0 -2.31472,-0.37962 -2.65535,-1.10704c-0.15536,-0.33178 -0.43397,-1.40259 0.07548,-2.01438c0.56671,-0.68056 1.96521,-0.7958 2.57987,-0.7958c0.65956,0 2.00434,0.49302 2.55104,1.14233z" fill="url(#color-72)" stroke="none" stroke-width="0"/><path d="M251.49236,191.71052c-0.60194,1.08726 -2.27146,0.99958 -2.62755,0.99958c-1.72461,0 -2.31472,-0.37962 -2.65535,-1.10704c-0.15536,-0.33178 -0.43397,-1.40259 0.07549,-2.01438c0.56671,-0.68056 1.96521,-0.7958 2.57987,-0.7958c0.65956,0 2.00434,0.49302 2.55104,1.14233c0,0 0.41589,1.16232 0.07652,1.77532z" fill="url(#color-73)" stroke="none" stroke-width="0"/><path d="M252.53914,190.85089c-0.30086,0.31842 -0.62785,0.71372 -1.0486,0.87543c-0.01794,0.00689 0.07849,-0.70623 0.07849,-0.70623c0,0 -0.25245,-0.55296 -0.95554,-0.97035c-0.49983,-0.29672 -1.24605,-0.50461 -1.81578,-0.48272c-0.66733,0.02867 -1.23964,0.20014 -1.72878,0.48344c-0.73309,0.42458 -1.02244,1.02705 -1.02244,1.02705c0,0 0.19658,0.57914 0.1941,0.5778c-0.52791,-0.28603 -0.85813,-0.52773 -1.09807,-0.8239c-0.6621,-0.64893 -0.82693,-1.89115 -0.71362,-2.75077c0.16515,-1.25305 0.90329,-2.50802 2.02856,-3.22506c0.81755,-0.52095 1.72688,-0.67668 2.37639,-0.67668c0.77168,0 1.94505,0.24484 2.86879,0.96136c0.92389,0.71663 1.26778,1.88955 1.49486,2.97135c0.10276,1.0769 -0.07824,2.1253 -0.65835,2.73928z" fill="url(#color-74)" stroke="none" stroke-width="0"/><g fill="none" stroke="none" stroke-width="1" font-family="sans-serif" font-weight="normal" font-size="12" text-anchor="start"><g/><g/></g><g stroke-width="0"><g><path d="M247.65235,190.90826v-0.88449c0,0 0.01738,-0.23042 0.27627,-0.23003c0.2787,0.00042 0.28945,0.23003 0.28945,0.23003v0.88449c0,0 -0.00318,0.25658 -0.28503,0.25658c-0.26933,0 -0.28069,-0.25658 -0.28069,-0.25658z" fill="url(#color-75)" stroke="url(#color-76)"/><path d="M248.16666,190.17473c0,0.15706 -0.10486,0.28439 -0.2342,0.28439c-0.12935,0 -0.2342,-0.12733 -0.2342,-0.28439c0,-0.15706 0.10486,-0.28438 0.2342,-0.28438c0.12935,0 0.2342,0.12732 0.2342,0.28438z" fill="url(#color-77)" stroke="none"/><path d="M248.10942,190.17473c0,0.11867 -0.07922,0.21487 -0.17695,0.21487c-0.09773,0 -0.17695,-0.0962 -0.17695,-0.21487c0,-0.11867 0.07922,-0.21487 0.17695,-0.21487c0.09773,0 0.17695,0.0962 0.17695,0.21487z" fill="#ffffff" stroke="none"/></g><g><path d="M249.45871,190.90826v-0.88449c0,0 0.01738,-0.23042 0.27627,-0.23003c0.2787,0.00042 0.28945,0.23003 0.28945,0.23003v0.88449c0,0 -0.00318,0.25658 -0.28503,0.25658c-0.26933,0 -0.28069,-0.25658 -0.28069,-0.25658z" fill="url(#color-78)" stroke="url(#color-79)"/><path d="M249.97303,190.17473c0,0.15706 -0.10486,0.28439 -0.2342,0.28439c-0.12934,0 -0.2342,-0.12733 -0.2342,-0.28439c0,-0.15706 0.10486,-0.28438 0.2342,-0.28438c0.12935,0 0.2342,0.12732 0.2342,0.28438z" fill="url(#color-80)" stroke="none"/><path d="M249.91578,190.17473c0,0.11867 -0.07922,0.21487 -0.17695,0.21487c-0.09773,0 -0.17695,-0.0962 -0.17695,-0.21487c0,-0.11867 0.07922,-0.21487 0.17695,-0.21487c0.09773,0 0.17695,0.0962 0.17695,0.21487z" fill="#ffffff" stroke="none"/></g></g><path d="M252.53914,190.85089c-0.30086,0.31842 -0.63818,0.72404 -1.05892,0.88574c-0.01794,0.00689 0.08881,-0.71655 0.08881,-0.71655c0,0 -0.25245,-0.55297 -0.95554,-0.97035c-0.49983,-0.29672 -1.24605,-0.47365 -1.81578,-0.45176c-0.66733,0.02867 -1.23964,0.16918 -1.72878,0.45248c-0.73309,0.42458 -1.02244,1.02705 -1.02244,1.02705c0,0 0.2069,0.57914 0.20442,0.5778c-0.52791,-0.28603 -0.86846,-0.52773 -1.1084,-0.8239c-0.6621,-0.64893 -0.89942,-1.88372 -0.74459,-2.75077c0.22028,-1.23353 0.87232,-2.50802 1.99759,-3.22506c0.81755,-0.52095 1.78881,-0.67668 2.43831,-0.67668c0.77168,0 1.96569,0.24484 2.88944,0.96136c0.92389,0.71663 1.29696,1.91186 1.51551,2.97135c0.21677,1.05083 -0.11954,2.12531 -0.69965,2.73929z" fill="url(#color-81)" stroke="none" stroke-width="0"/><path d="M250.86213,186.12719c0,0.90072 -0.91503,1.69282 -2.04377,1.69282c-1.12875,0 -2.04377,-0.79211 -2.04377,-1.69282c0,-0.90072 0.91503,-1.56895 2.04377,-1.56895c1.12875,0 2.04377,0.66824 2.04377,1.56895z" fill="#ffffff" stroke="none" stroke-width="0"/><path d="M245.06112,187.63422c0,0.69549 -0.02894,2.27086 -0.43352,2.27086c-0.11731,0 -0.34641,-0.79532 -0.24767,-1.66984c0.1028,-0.91047 0.62768,-1.94142 0.66055,-1.9016c0.23943,0.08258 0.02064,0.60509 0.02064,1.30058z" fill="#ffffff" stroke="none" stroke-width="0"/><path d="M252.58102,187.63421c0,-0.69549 -0.21879,-1.21801 0.02064,-1.30058c0.07417,-0.03982 0.55775,0.99112 0.66055,1.9016c0.09874,0.87452 -0.13037,1.66984 -0.24767,1.66984c-0.40458,0 -0.43352,-1.57537 -0.43352,-2.27086z" data-paper-data="{&quot;index&quot;:null}" fill="#ffffff" stroke="none" stroke-width="0"/></g></g></g></g></g></svg>