<svg version="1.1" xmlns="http://www.w3.org/2000/svg" xmlns:xlink="http://www.w3.org/1999/xlink" width="328" height="205" viewBox="0,0,328,205"><defs><linearGradient x1="239.76595" y1="196.98165" x2="239.76595" y2="192.35704" gradientUnits="userSpaceOnUse" id="color-1"><stop offset="0" stop-color="#4a2207"/><stop offset="1" stop-color="#7e3f11"/></linearGradient><linearGradient x1="239.76595" y1="163.01835" x2="239.76595" y2="167.64296" gradientUnits="userSpaceOnUse" id="color-2"><stop offset="0" stop-color="#b56d39"/><stop offset="1" stop-color="#834314"/></linearGradient><linearGradient x1="223.11706" y1="180.15772" x2="227.74167" y2="180.16539" gradientUnits="userSpaceOnUse" id="color-3"><stop offset="0" stop-color="#885229"/><stop offset="1" stop-color="#804212"/></linearGradient><linearGradient x1="256.88293" y1="180.16385" x2="252.25831" y2="180.15617" gradientUnits="userSpaceOnUse" id="color-4"><stop offset="0" stop-color="#5b2a08"/><stop offset="1" stop-color="#743a10"/></linearGradient></defs><g transform="translate(-76,-77.5)"><g data-paper-data="{&quot;isPaintingLayer&quot;:true}" fill-rule="nonzero" stroke="none" stroke-linecap="butt" stroke-linejoin="miter" stroke-miterlimit="10" stroke-dasharray="" stroke-dashoffset="0" style="mix-blend-mode: normal"><g><path d="M252.56764,192.35704l3.70642,3.65261l-0.98747,0.97202h-31.04134l-0.70053,-0.76325l3.87264,-3.86138z" data-paper-data="{&quot;origPos&quot;:null,&quot;index&quot;:null}" fill="url(#color-1)" stroke-width="0"/><g><path d="M227.41738,167.64296l-3.86592,-3.68663l0.6938,-0.938h31.04134l1.00076,0.94097l-3.71971,3.68365z" data-paper-data="{&quot;origPos&quot;:null}" fill="url(#color-2)" stroke-width="0"/><path d="M227.72123,192.55439l-3.95582,3.92516l-0.67404,-0.75034l0.05138,-31.14298l0.64809,-0.89652l3.97201,3.63205z" data-paper-data="{&quot;origPos&quot;:null,&quot;origRot&quot;:0}" fill="url(#color-3)" stroke-width="0"/><path d="M252.27951,167.35446l3.74434,-3.62676l0.88478,0.91547l-0.0514,30.75125l-0.80782,0.85723l-3.81155,-3.74694z" data-paper-data="{&quot;origPos&quot;:null,&quot;index&quot;:null,&quot;origRot&quot;:0}" fill="url(#color-4)" stroke-width="0"/><path d="M227.40356,192.62185v-25.26622h25.17598v25.26622z" data-paper-data="{&quot;origPos&quot;:null}" fill="#804010" stroke-width="NaN"/><path d="M225.6552,167.07925c0,-0.90196 0.73118,-1.63315 1.63313,-1.63315c0.90196,0 1.63315,0.73118 1.63315,1.63315c0,0.90196 -0.73118,1.63315 -1.63315,1.63315c-0.90196,0 -1.63313,-0.73118 -1.63313,-1.63315z" data-paper-data="{&quot;origPos&quot;:null}" fill="#392118" stroke-width="0"/><path d="M225.60526,192.99223c0,-0.90196 0.73118,-1.63316 1.63315,-1.63316c0.90196,0 1.63316,0.73119 1.63316,1.63316c0,0.90196 -0.73119,1.63314 -1.63316,1.63314c-0.90196,0 -1.63315,-0.73118 -1.63315,-1.63314z" data-paper-data="{&quot;origPos&quot;:null}" fill="#392118" stroke-width="0"/><g data-paper-data="{&quot;origPos&quot;:null}" fill="#392118" stroke-width="0"><path d="M251.14429,167.11392c0,-0.90196 0.73119,-1.63315 1.63316,-1.63315c0.90196,0 1.63315,0.73119 1.63315,1.63315c0,0.90196 -0.73118,1.63316 -1.63315,1.63316c-0.90196,0 -1.63316,-0.73119 -1.63316,-1.63316z" data-paper-data="{&quot;origPos&quot;:null}"/><path d="M251.09437,193.02689c0,-0.90196 0.73119,-1.63315 1.63316,-1.63315c0.90196,0 1.63315,0.73118 1.63315,1.63315c0,0.90196 -0.73118,1.63313 -1.63315,1.63313c-0.90196,0 -1.63316,-0.73117 -1.63316,-1.63313z" data-paper-data="{&quot;origPos&quot;:null}"/></g></g></g><path d="M76,282.5v-205h328v205z" fill="none" stroke-width="0"/></g></g></svg>