<svg version="1.1" xmlns="http://www.w3.org/2000/svg" xmlns:xlink="http://www.w3.org/1999/xlink" width="80.29253" height="107.37016" viewBox="0,0,80.29253,107.37016"><g transform="translate(-193.75626,-89.62556)"><g data-paper-data="{&quot;isPaintingLayer&quot;:true}" fill-rule="nonzero" stroke="none" stroke-width="0.5" stroke-linecap="butt" stroke-linejoin="miter" stroke-miterlimit="10" stroke-dasharray="" stroke-dashoffset="0" style="mix-blend-mode: normal"><path d="M222.0042,117.00965c-2.67103,-0.44517 -2.22586,-3.1162 -2.22586,-3.1162c0.76924,-4.49416 2.10025,-8.8501 3.30333,-13.24764c0.38094,-1.39247 0.91942,-6.0691 1.85223,-6.69991c1.1773,-0.79614 10.31585,-1.84901 12.2416,-2.09866c3.58055,-0.46414 7.15257,-0.99946 10.74162,-1.39243c2.1631,-0.23684 4.43257,-1.28206 6.5001,-0.60356c5.37443,1.76373 6.00758,5.80795 7.67158,10.19396c2.11781,5.5821 1.70832,11.08985 1.00914,16.95989c-1.84191,0.73551 -3.54251,2.1844 -5.52573,2.20654c-6.3637,0.07103 -5.10389,-4.98102 -6.30709,-8.97558c-0.56077,-1.86169 -1.60422,-3.55446 -2.16631,-5.41574c-0.39688,-1.31426 0.47673,-3.35506 -0.70236,-4.0583c-2.5573,-1.52528 -5.98621,2.26155 -7.64729,3.36754c-0.82311,0.54804 -1.76685,0.91131 -2.55238,1.51196c-1.11321,0.85121 -2.51072,1.70509 -2.88856,3.05455c-0.6407,2.2882 -0.24233,5.36364 -2.13396,6.80174c-1.12818,0.8577 -2.81732,0.31038 -4.22599,0.46557h-2.70788v0c-0.50794,0 -0.98321,-0.13985 -1.38943,-0.38315c-0.3594,0.74717 -1.15841,1.71086 -2.84678,1.42947z" fill="#9966ff"/><path d="M247.51751,123.31387l-1.5992,2.66532c-0.46774,0.8112 -1.34385,1.35725 -2.34752,1.35725c-1.33106,0 -2.43781,-0.96038 -2.66512,-2.226l-0.53174,-2.65869c0,0 -0.10092,-0.50456 0.00519,-1.11779c-0.91114,-0.19755 -1.7648,-0.48934 -2.52056,-0.87424c-0.25364,-0.12917 -4.26235,-5.18329 -4.52588,-5.51264c0,0 -1.6916,-2.11448 0.42289,-3.80609c0.41835,-0.33469 0.82016,-0.52039 1.19559,-0.60294c-0.60744,-0.75133 -1.27707,-1.47658 -1.1219,-2.3487c0.76073,-4.27599 3.44044,-3.58017 5.76166,-5.60993c2.09684,-1.83355 1.45794,-4.42037 5.60459,-4.48804c3.22607,-0.05265 7.74948,5.85028 8.56694,8.48396c0.47136,1.51857 0.55526,8.50331 -0.10787,9.88269c-1.07652,2.23932 -3.29581,3.74189 -5.85068,4.52987c0.40715,1.17004 -0.28639,2.32596 -0.28639,2.32596zM245.19553,103.50712c-0.20215,-0.04112 -0.16481,0.27448 -0.18297,0.54767c0.06046,-0.00402 0.12148,-0.00608 0.18297,-0.00608c0.0884,0 0.17582,0.00424 0.26205,0.01252c-0.03439,-0.25359 -0.05074,-0.51112 -0.26205,-0.5541zM242.53926,116.16541c0.21873,0.01374 0.44667,0.0222 0.68052,0.02499c-0.11811,-0.12597 -0.22433,-0.26324 -0.31682,-0.41003c-0.14937,0.1603 -0.27309,0.29145 -0.36369,0.38504z" fill="#ffeab8"/><path d="M251.10026,113.80757c0.53105,2.65529 -2.12423,3.18635 -2.12423,3.18635l-2.70788,0.54158c-2.29677,0.38393 -4.76509,0.11599 -6.95249,-0.68266c0,0 -2.5142,-1.00568 -1.50852,-3.51987c1.00568,-2.5142 3.51987,-1.50852 3.51987,-1.50852c1.18003,0.54518 2.62076,0.7268 3.87901,0.40048l2.70788,-0.54158c0,0 2.65529,-0.53105 3.18635,2.12423z" fill="#000000"/><path d="M238.69662,105.67343c0,-1.49551 1.21236,-2.70788 2.70788,-2.70788c1.49551,0 2.70788,1.21236 2.70788,2.70788c0,1.49551 -1.21236,2.70788 -2.70788,2.70788c-1.49551,0 -2.70788,-1.21236 -2.70788,-2.70788z" fill="#000000"/><path d="M246.27867,105.13185c0,-1.49551 1.21236,-2.70788 2.70788,-2.70788c1.49551,0 2.70788,1.21236 2.70788,2.70788c0,1.49551 -1.21236,2.70788 -2.70788,2.70788c-1.49551,0 -2.70788,-1.21236 -2.70788,-2.70788z" fill="#000000"/><path d="M259.18916,129.19256l0.39304,0.28804c0.09464,0.42973 0.23505,0.8549 0.39658,1.27755c0.25305,0.51281 0.47985,1.04262 0.67485,1.58402c2.49437,0.77822 1.76808,3.32021 1.76808,3.32021l-0.67024,2.15628l0.16931,0.84651c0.04162,0.18866 0.06355,0.38471 0.06355,0.58588c0,0.45058 -0.11005,0.87547 -0.30475,1.24923c0.00831,0.14406 0.0139,0.28842 0.017,0.43304l0.23517,-0.04703l0.53062,2.65305c0.04162,0.18866 0.06355,0.38471 0.06355,0.58588c0,1.49551 -1.21236,2.70788 -2.70788,2.70788c-0.74777,0 -1.42473,-0.30308 -1.91476,-0.79312l-0.06267,-0.06267c0.13642,0.91688 0.25359,1.835 0.33952,2.75526c0.10071,1.07846 -0.01401,2.16638 0,3.24945c0.01932,1.4925 1.01871,3.30039 0.09996,4.47676c-2.84303,3.64029 -10.29112,0.71723 -13.84951,0.11343c-0.99887,-0.01321 -2.02495,0.19229 -2.99661,-0.03964c-1.34878,-0.32194 -2.75525,-0.73281 -3.84296,-1.59288c-5.86699,-4.63905 -1.04159,-11.43033 -0.50596,-17.03864c0.10779,-1.12864 -0.04882,-2.33103 -0.22647,-3.52421c-0.52413,0 -1.06309,0 -1.58978,0c-0.6032,1.62472 -2.52952,1.62472 -2.52952,1.62472l-1.07264,-0.05259c-0.12296,-0.02527 -0.24716,-0.04591 -0.37242,-0.06264c-1.23373,1.69975 -2.62578,3.14317 -4.56213,3.31966c-6.51026,0.59338 -10.19899,-4.66478 -7.08496,-10.11084c2.80527,-4.90609 10.09671,-7.09622 15.25844,-7.17454c0,0 1.45392,0 2.23104,1.06536c1.12989,-0.16939 2.10156,0.55936 2.10156,0.55936c2.52094,1.97198 4.42368,2.17332 7.58205,2.16631c1.57662,-0.0035 4.38903,-0.14942 6.17556,0.57716c0.36241,-0.03742 0.73346,-0.11403 1.10599,-0.19745c0.40494,-0.24117 0.87812,-0.37971 1.38366,-0.37971c0.18343,0 0.3626,0.01823 0.53581,0.053c0.45453,-0.01173 0.89132,0.05713 1.29555,0.2739c0.87338,0.46831 1.24005,1.4574 1.60426,2.44867l0.35542,0.47389l-0.13837,0.10377c0.01682,0.04275 0.03382,0.08531 0.05106,0.12764z" fill="#9966ff"/><path d="M261.44277,151.16572c-0.77754,0 -1.33182,-0.22326 -1.72695,-0.54158c-0.53217,0 -0.98093,0 -0.98093,0c-1.49551,0 -2.70788,-1.21236 -2.70788,-2.70788c0,-1.49551 1.21236,-2.70788 2.70788,-2.70788h2.70788c0,0 2.70788,0 2.70788,2.70788c0,0.17854 -0.01177,0.3453 -0.03376,0.50106l0.03376,0.0405c0,0 0,2.70788 -2.70788,2.70788z" fill="#ffeab8"/><path d="M221.69114,136.79629l1.10614,0.90753c0.21691,1.81508 1.88263,4.09467 0.65075,5.44523c-3.03693,3.32948 -10.21288,-1.92357 -10.74595,-4.36443c-0.13545,-0.62019 4.22689,-4.87886 5.12467,-5.78091c0,0 1.91476,-1.91476 3.8295,0c1.75908,1.75908 0.28604,3.51816 0.03489,3.79257z" fill="#ffeab8"/><path d="M221.36623,141.95895c0,-1.49551 1.21236,-2.70788 2.70788,-2.70788c1.49551,0 2.70788,1.21236 2.70788,2.70788c0,1.49551 -1.21236,2.70788 -2.70788,2.70788c-1.49551,0 -2.70788,-1.21236 -2.70788,-2.70788z" fill="#825b00"/><path d="M207.71804,126.8809c2.08024,-1.73353 3.81378,0.3467 3.81378,0.3467c1.15569,1.38683 4.26006,5.11206 5.41574,6.4989c0,0 1.73353,2.08024 -0.3467,3.81378c-2.08024,1.73353 -3.81378,-0.3467 -3.81378,-0.3467c-1.15569,-1.38683 -2.31138,-2.77367 -3.46708,-4.1605l-1.94868,-2.3384c0,0 -1.73353,-2.08024 0.3467,-3.81378z" fill="#825b00"/><path d="M210.21114,126.03556c0.10639,0.06343 0.21431,0.13575 0.32358,0.21771c2.16631,1.62472 0.54158,3.79102 0.54158,3.79102c-0.54158,0.7221 -1.08315,1.4442 -1.62472,2.16631l-1.60581,2.14108c-0.49274,0.67203 -1.28802,1.10836 -2.18521,1.10836c-1.33106,0 -2.43781,-0.96038 -2.66512,-2.226l-0.53174,-2.65869l0.51732,-0.10347c-0.0182,-0.06517 -0.03555,-0.1305 -0.05199,-0.19596c-2.94809,0.11017 -7.97267,-0.7694 -8.29005,-1.60534c-2.88254,-7.5924 2.01019,-5.32038 4.44669,-6.6433c0.17403,-0.09449 -0.25589,-0.30323 -0.36732,-0.46693c-0.45705,-0.67158 -0.89139,-1.35834 -1.33709,-2.03749l-1.60182,-2.66972c-0.25908,-0.41527 -0.40879,-0.90583 -0.40879,-1.43134c0,-1.49551 1.21236,-2.70788 2.70788,-2.70788c0.37721,0 0.73642,0.07714 1.0627,0.21648l2.65085,1.06034l-0.01693,0.04233c0.07163,0.01456 0.14314,0.02988 0.21453,0.04603c1.0231,0.23132 1.77874,1.19141 2.7595,1.53205l1.48914,-1.86142c0.49577,-0.63073 1.26564,-1.03582 2.13012,-1.03582c1.49551,0 2.70788,1.21236 2.70788,2.70788c0,0.37721 -0.07714,0.73642 -0.21648,1.0627l-0.44099,1.10245c0.73262,-0.33886 1.47537,-0.65876 2.20163,-1.00956l0.62215,0.20034v-0.27277h2.70788c1.49551,0 2.70788,1.21236 2.70788,2.70788c0,1.00365 -0.54604,1.87979 -1.35725,2.34752l-2.66532,1.5992l-0.10133,-0.16891c-0.83747,0.83153 -1.71189,1.62274 -2.63635,2.35284z" fill="#fffc00"/><path d="M245.41887,153.88282c2.98322,0.27432 5.825,-0.01072 8.62193,0.53628c0.13419,-0.2745 0.33252,-0.55502 0.61304,-0.83555c1.91476,-1.91476 3.8295,0 3.8295,0l0.92097,1.11749c5.79579,2.96046 8.39373,6.31784 9.6205,12.71192c-0.95217,5.10578 -0.11227,9.94174 -1.76368,14.93725c-0.76049,2.30048 -1.6986,6.04209 -3.94262,7.45741c-1.14392,0.72147 -2.68965,0.34034 -4.04205,0.35148c-1.30971,0.01079 -2.78696,0.37309 -3.91887,-0.28588c-2.56249,-1.49182 -3.01511,-2.95345 -3.09531,-4.86121c-0.07146,0.4525 -0.21747,0.87627 -0.49187,1.24946c-2.3947,3.25698 -12.99918,2.78104 -15.3161,-0.54158c-2.54944,-3.65608 1.16676,-6.90931 1.7496,-10.15382c0.46034,-2.56268 -0.16974,-5.76909 -0.55859,-8.2806c-0.32906,-2.12532 -0.07173,-4.40316 -0.89665,-6.3893c-0.75305,-1.81309 -1.90868,-3.49133 -2.33205,-5.4084c0,0 -0.53105,-2.65529 2.12423,-3.18635c1.09843,-0.21968 1.83335,0.10591 2.31754,0.56322c2.18861,0.32939 4.35677,0.81549 6.56048,1.01813zM252.30384,179.79167c0.26596,-3.90975 1.17871,-7.54427 1.73522,-11.41226c0.09984,-0.69392 -1.96578,-0.44562 -2.08894,0.24455c-0.24679,1.38298 0.28588,2.79993 0.28588,4.20475c0,2.2934 0.11444,4.64767 0.06785,6.96295zM252.23104,181.58556c-0.01013,0.21927 -0.00837,0.44372 -0.00035,0.67106c-0.00247,-0.22483 -0.0023,-0.44849 0.00035,-0.67106z" fill="#00caff"/><path d="M250.35558,186.24025c1.211,-2.422 3.63299,-1.211 3.63299,-1.211c3.60554,1.80576 6.55998,3.19182 10.73315,2.47086c2.89676,-0.50044 4.04032,-3.23449 7.64459,-0.51824c1.42397,1.07313 2.3414,8.52475 1.09806,9.59165c-1.31521,1.12857 -3.45003,-0.33825 -5.1692,-0.55722c-5.61142,-0.71478 -11.80156,-0.24102 -17.06485,-2.25982l-0.53917,-0.42408c-0.6525,0.54609 -1.54789,1.09315 -2.73033,1.63382c-1.09339,0.49997 -2.37516,-0.39312 -3.5737,-0.48766c-4.60255,-0.36308 -9.10298,0.405 -13.68664,-0.56024c-1.5942,-0.33571 -3.7028,0.00117 -4.719,-1.27222c-4.03543,-5.05679 -0.48912,-7.22329 3.53785,-8.39542c2.91883,-0.84958 6.60212,0.47479 9.62015,0.49261c0.93078,-0.71092 2.16859,-0.50462 2.16859,-0.50462l3.45701,0.58458c1.71772,0.60146 3.75422,1.55445 5.2514,2.71643c0.0014,-0.3854 0.09863,-0.81854 0.33907,-1.2994z" fill="#005e75"/></g></g></svg>