<svg version="1.1" xmlns="http://www.w3.org/2000/svg" xmlns:xlink="http://www.w3.org/1999/xlink" width="328" height="205" viewBox="0,0,328,205"><defs><linearGradient x1="239.83713" y1="166.42362" x2="239.83713" y2="227.45835" gradientUnits="userSpaceOnUse" id="color-1"><stop offset="0" stop-color="#13b22b"/><stop offset="1" stop-color="#06610f"/></linearGradient><linearGradient x1="239.81924" y1="166.18066" x2="239.81924" y2="172.86113" gradientUnits="userSpaceOnUse" id="color-2"><stop offset="0" stop-color="#01c300"/><stop offset="1" stop-color="#01c300" stop-opacity="0"/></linearGradient><linearGradient x1="239.84291" y1="227.51906" x2="239.84291" y2="216.28385" gradientUnits="userSpaceOnUse" id="color-3"><stop offset="0" stop-color="#019601"/><stop offset="1" stop-color="#019601" stop-opacity="0"/></linearGradient><linearGradient x1="239.84291" y1="185.979" x2="239.84291" y2="203.83394" gradientUnits="userSpaceOnUse" id="color-4"><stop offset="0" stop-color="#2ab346"/><stop offset="1" stop-color="#2ab346" stop-opacity="0"/></linearGradient><linearGradient x1="239.84291" y1="186.16122" x2="239.84291" y2="173.77207" gradientUnits="userSpaceOnUse" id="color-5"><stop offset="0" stop-color="#2ab346"/><stop offset="1" stop-color="#2ab346" stop-opacity="0"/></linearGradient><linearGradient x1="226.53688" y1="167.74039" x2="287.55947" y2="167.74039" gradientUnits="userSpaceOnUse" id="color-6"><stop offset="0" stop-color="#13b22b"/><stop offset="1" stop-color="#06610f"/></linearGradient><linearGradient x1="226.29398" y1="167.74545" x2="232.97312" y2="167.74546" gradientUnits="userSpaceOnUse" id="color-7"><stop offset="0" stop-color="#01c300"/><stop offset="1" stop-color="#01c300" stop-opacity="0"/></linearGradient><linearGradient x1="287.62018" y1="167.73875" x2="276.38719" y2="167.73875" gradientUnits="userSpaceOnUse" id="color-8"><stop offset="0" stop-color="#019601"/><stop offset="1" stop-color="#019601" stop-opacity="0"/></linearGradient><linearGradient x1="246.08836" y1="167.73875" x2="263.93976" y2="167.73875" gradientUnits="userSpaceOnUse" id="color-9"><stop offset="0" stop-color="#2ab346"/><stop offset="1" stop-color="#2ab346" stop-opacity="0"/></linearGradient><linearGradient x1="246.27054" y1="167.73875" x2="233.88386" y2="167.73875" gradientUnits="userSpaceOnUse" id="color-10"><stop offset="0" stop-color="#2ab346"/><stop offset="1" stop-color="#2ab346" stop-opacity="0"/></linearGradient><linearGradient x1="273.66276" y1="166.42363" x2="273.66276" y2="227.45835" gradientUnits="userSpaceOnUse" id="color-11"><stop offset="0" stop-color="#13b22b"/><stop offset="1" stop-color="#06610f"/></linearGradient><linearGradient x1="273.6811" y1="166.18067" x2="273.6811" y2="172.86113" gradientUnits="userSpaceOnUse" id="color-12"><stop offset="0" stop-color="#01c300"/><stop offset="1" stop-color="#01c300" stop-opacity="0"/></linearGradient><linearGradient x1="273.65681" y1="227.51907" x2="273.65681" y2="216.28385" gradientUnits="userSpaceOnUse" id="color-13"><stop offset="0" stop-color="#019601"/><stop offset="1" stop-color="#019601" stop-opacity="0"/></linearGradient><linearGradient x1="273.65681" y1="185.979" x2="273.65681" y2="203.83396" gradientUnits="userSpaceOnUse" id="color-14"><stop offset="0" stop-color="#2ab346"/><stop offset="1" stop-color="#2ab346" stop-opacity="0"/></linearGradient><linearGradient x1="273.65681" y1="186.16122" x2="273.65681" y2="173.77208" gradientUnits="userSpaceOnUse" id="color-15"><stop offset="0" stop-color="#2ab346"/><stop offset="1" stop-color="#2ab346" stop-opacity="0"/></linearGradient><linearGradient x1="226.18598" y1="167.75757" x2="287.53205" y2="167.75757" gradientUnits="userSpaceOnUse" id="color-16"><stop offset="0" stop-color="#13b22b"/><stop offset="1" stop-color="#06610f"/></linearGradient><linearGradient x1="287.59309" y1="167.75593" x2="276.30054" y2="167.75593" gradientUnits="userSpaceOnUse" id="color-17"><stop offset="0" stop-color="#019601"/><stop offset="1" stop-color="#019601" stop-opacity="0"/></linearGradient><linearGradient x1="245.84111" y1="167.75593" x2="263.78713" y2="167.75593" gradientUnits="userSpaceOnUse" id="color-18"><stop offset="0" stop-color="#2ab346"/><stop offset="1" stop-color="#2ab346" stop-opacity="0"/></linearGradient></defs><g transform="translate(-76,-77.50002)"><g data-paper-data="{&quot;isPaintingLayer&quot;:true}" fill-rule="nonzero" stroke="none" stroke-width="0" stroke-linecap="butt" stroke-linejoin="miter" stroke-miterlimit="10" stroke-dasharray="" stroke-dashoffset="0" style="mix-blend-mode: normal"><path d="M76,282.50002v-205h328v205z" fill="none"/><g><g><g data-paper-data="{&quot;index&quot;:null}"><path d="M221.61254,166.42362h35.04058v61.03467h-35.04059z" data-paper-data="{&quot;origPos&quot;:null}" fill="url(#color-1)"/><path d="M221.57683,166.18066h35.07629v6.68044h-35.0763z" data-paper-data="{&quot;origPos&quot;:null}" fill="url(#color-2)"/><path d="M221.6241,216.28385h35.02902v11.23523h-35.02902z" data-paper-data="{&quot;origPos&quot;:null,&quot;index&quot;:null}" fill="url(#color-3)"/><path d="M221.6241,185.979h35.02902v17.85492h-35.02902z" data-paper-data="{&quot;origPos&quot;:null}" fill="url(#color-4)"/><path d="M221.6241,173.77207h35.02902v12.38913h-35.02902z" data-paper-data="{&quot;origPos&quot;:null,&quot;index&quot;:null}" fill="url(#color-5)"/></g><g data-paper-data="{&quot;index&quot;:null}"><path d="M255.9025,172.49353c-19.48433,0 -29.4171,-6.17578 -29.4171,-6.17578l0.05149,-4.27443h30.1534c0,0 0.03883,10.39989 -0.00077,10.44724c-0.26081,0.00197 -0.52317,0.00297 -0.78703,0.00297z" data-paper-data="{&quot;origPos&quot;:null}" fill="url(#color-6)"/><path d="M229.11935,167.64115c-1.06717,-0.44028 -2.82537,-1.40066 -2.82537,-1.40066v-4.19716h6.6791v6.95275c0,0 -2.70112,-0.87941 -3.85372,-1.35494z" data-paper-data="{&quot;origPos&quot;:null}" fill="url(#color-7)"/><path d="" data-paper-data="{&quot;origPos&quot;:null,&quot;index&quot;:null}" fill="url(#color-8)"/><path d="M246.08836,171.87219v-9.82887h10.60192l0.0015,10.41245c0,0 -0.98729,0.03448 -1.40724,0.03448c-3.01893,0 -9.19618,-0.61808 -9.19618,-0.61808z" data-paper-data="{&quot;origPos&quot;:null}" fill="url(#color-9)"/><path d="M233.88388,169.39989v-7.35655h12.38666v9.82887c0,0 -4.25586,-0.64342 -6.34496,-1.0604c-2.03857,-0.4069 -6.0417,-1.41192 -6.0417,-1.41192z" data-paper-data="{&quot;origPos&quot;:null,&quot;index&quot;:null}" fill="url(#color-10)"/></g></g><g><g><path d="M292.32715,227.45834h-35.91274v-61.03468h35.91274z" data-paper-data="{&quot;origPos&quot;:null}" fill="url(#color-11)"/><path d="M292.36379,172.86109h-35.94937v-6.68044h35.94936z" data-paper-data="{&quot;origPos&quot;:null}" fill="url(#color-12)"/><path d="M292.31529,227.51907h-35.90087v-11.23524h35.90087z" data-paper-data="{&quot;origPos&quot;:null,&quot;index&quot;:null}" fill="url(#color-13)"/><path d="M292.31529,203.83394h-35.90087v-17.85492h35.90087z" data-paper-data="{&quot;origPos&quot;:null}" fill="url(#color-14)"/><path d="M292.31529,186.16121h-35.90087v-12.38913h35.90087z" data-paper-data="{&quot;origPos&quot;:null,&quot;index&quot;:null}" fill="url(#color-15)"/></g><g data-paper-data="{&quot;index&quot;:null}"><path d="M256.49925,162.06052h31.03279v4.48044c0,0 -11.01087,5.81645 -31.03358,5.96679c-0.26219,0.00197 0.00079,-10.44723 0.00079,-10.44723z" data-paper-data="{&quot;origPos&quot;:null}" fill="url(#color-16)"/><path d="M276.30054,170.24941v-8.1889h11.29255v4.48043c0,0 -1.62387,0.83528 -4.52886,1.91949c-2.02701,0.75654 -6.76369,1.78896 -6.76369,1.78896z" data-paper-data="{&quot;origPos&quot;:null,&quot;index&quot;:null}" fill="url(#color-17)"/><path d="M256.49925,162.06052h7.28789v9.82887l-7.2864,0.5836z" data-paper-data="{&quot;origPos&quot;:null}" fill="url(#color-18)"/></g></g></g></g></g></svg>