<svg version="1.1" xmlns="http://www.w3.org/2000/svg" xmlns:xlink="http://www.w3.org/1999/xlink" width="328" height="205" viewBox="0,0,328,205"><defs><linearGradient x1="239.96686" y1="178.5223" x2="239.96686" y2="193.37816" gradientUnits="userSpaceOnUse" id="color-1"><stop offset="0" stop-color="#13b22b"/><stop offset="1" stop-color="#06610f"/></linearGradient><linearGradient x1="239.96478" y1="178.46315" x2="239.96478" y2="180.08918" gradientUnits="userSpaceOnUse" id="color-2"><stop offset="0" stop-color="#01c300"/><stop offset="1" stop-color="#01c300" stop-opacity="0"/></linearGradient><linearGradient x1="239.96267" y1="193.39294" x2="239.96267" y2="190.65828" gradientUnits="userSpaceOnUse" id="color-3"><stop offset="0" stop-color="#019601"/><stop offset="1" stop-color="#019601" stop-opacity="0"/></linearGradient><linearGradient x1="239.96267" y1="183.28209" x2="239.96267" y2="187.62798" gradientUnits="userSpaceOnUse" id="color-4"><stop offset="0" stop-color="#2ab346"/><stop offset="1" stop-color="#2ab346" stop-opacity="0"/></linearGradient><linearGradient x1="239.96267" y1="183.32642" x2="239.96267" y2="180.31091" gradientUnits="userSpaceOnUse" id="color-5"><stop offset="0" stop-color="#2ab346"/><stop offset="1" stop-color="#2ab346" stop-opacity="0"/></linearGradient><linearGradient x1="246.67281" y1="179.21717" x2="246.67281" y2="192.62895" gradientUnits="userSpaceOnUse" id="color-6"><stop offset="0" stop-color="#13b22b"/><stop offset="1" stop-color="#06610f"/></linearGradient><linearGradient x1="246.67931" y1="179.16378" x2="246.67931" y2="180.63173" gradientUnits="userSpaceOnUse" id="color-7"><stop offset="0" stop-color="#01c300"/><stop offset="1" stop-color="#01c300" stop-opacity="0"/></linearGradient><linearGradient x1="246.68579" y1="192.6423" x2="246.68579" y2="190.17346" gradientUnits="userSpaceOnUse" id="color-8"><stop offset="0" stop-color="#019601"/><stop offset="1" stop-color="#019601" stop-opacity="0"/></linearGradient><linearGradient x1="246.67336" y1="183.51427" x2="246.67337" y2="187.43771" gradientUnits="userSpaceOnUse" id="color-9"><stop offset="0" stop-color="#2ab346"/><stop offset="1" stop-color="#2ab346" stop-opacity="0"/></linearGradient><linearGradient x1="246.67336" y1="183.55429" x2="246.67336" y2="180.8319" gradientUnits="userSpaceOnUse" id="color-10"><stop offset="0" stop-color="#2ab346"/><stop offset="1" stop-color="#2ab346" stop-opacity="0"/></linearGradient><linearGradient x1="238.11474" y1="178.46538" x2="238.11474" y2="193.39518" gradientUnits="userSpaceOnUse" id="color-11"><stop offset="0" stop-color="#4dd14f"/><stop offset="1" stop-color="#39b037"/></linearGradient><radialGradient cx="238.08506" cy="184.63058" r="7.4649" gradientUnits="userSpaceOnUse" id="color-12"><stop offset="0" stop-color="#9fe3a1"/><stop offset="1" stop-color="#9fe3a1" stop-opacity="0"/></radialGradient><radialGradient cx="238.60276" cy="189.82158" r="7.46132" gradientUnits="userSpaceOnUse" id="color-13"><stop offset="0" stop-color="#198826"/><stop offset="1" stop-color="#41d148"/></radialGradient><radialGradient cx="241.70669" cy="189.80885" r="7.4703" gradientUnits="userSpaceOnUse" id="color-14"><stop offset="0" stop-color="#104625"/><stop offset="1" stop-color="#009e00"/></radialGradient><radialGradient cx="242.25432" cy="189.80885" r="7.4703" gradientUnits="userSpaceOnUse" id="color-15"><stop offset="0" stop-color="#0e3e21"/><stop offset="1" stop-color="#009600"/></radialGradient></defs><g transform="translate(-76,-77.5)"><g data-paper-data="{&quot;isPaintingLayer&quot;:true}" fill-rule="nonzero" stroke-linecap="butt" stroke-linejoin="miter" stroke-miterlimit="10" stroke-dasharray="" stroke-dashoffset="0" style="mix-blend-mode: normal"><path d="M76,282.5v-205h328v205z" fill="none" stroke="none" stroke-width="0"/><g><path d="M224.26579,191.2197c0,-6.57685 0,-18.41778 0,-22.16905c0,-2.24096 2.43368,-4.78487 4.60463,-4.78487c2.21722,0 15.18311,0 22.25917,0c2.74572,0 4.60463,2.4887 4.60463,4.69475c0,3.72175 0,15.54716 0,22.16905c0,2.75153 -2.4887,4.60463 -4.69475,4.60463c-3.72175,0 -15.54716,0 -22.16905,0c-2.75153,0 -4.60463,-1.81325 -4.60463,-4.51452z" fill="#ec6700" stroke="#ce5a00" stroke-width="2.5"/><g data-paper-data="{&quot;index&quot;:null}" stroke="none" stroke-width="0"><g data-paper-data="{&quot;origPos&quot;:null}"><path d="M241.46253,193.37816h-2.53547v-14.85588h2.53546z" data-paper-data="{&quot;origPos&quot;:null}" fill="url(#color-1)"/><path d="M241.45833,180.08918h-2.53126v-1.62601h2.53126z" data-paper-data="{&quot;origPos&quot;:null}" fill="url(#color-2)"/><path d="M241.45414,193.39295h-2.52707l0.00001,-2.73467h2.52707z" data-paper-data="{&quot;origPos&quot;:null,&quot;index&quot;:null}" fill="url(#color-3)"/><path d="M241.45414,187.62798h-2.52707v-4.3459h2.52707z" data-paper-data="{&quot;origPos&quot;:null}" fill="url(#color-4)"/><path d="M241.45414,183.32642h-2.52708v-3.01552h2.52707z" data-paper-data="{&quot;origPos&quot;:null,&quot;index&quot;:null}" fill="url(#color-5)"/></g><g data-paper-data="{&quot;origPos&quot;:null}"><path d="M252.30138,192.62896h-9.86453v-13.41179h9.86453z" data-paper-data="{&quot;origPos&quot;:null}" fill="url(#color-6)"/><path d="M252.32073,180.63174h-9.87144v-1.46796h9.87144z" data-paper-data="{&quot;origPos&quot;:null}" fill="url(#color-7)"/><path d="M252.32128,192.64229h-9.85956v-2.46883h9.85956z" data-paper-data="{&quot;origPos&quot;:null,&quot;index&quot;:null}" fill="url(#color-8)"/><path d="M252.30885,187.43771h-9.85956v-3.92345h9.85955z" data-paper-data="{&quot;origPos&quot;:null}" fill="url(#color-9)"/><path d="M252.30885,183.55429h-9.85955v-2.72239h9.85956z" data-paper-data="{&quot;origPos&quot;:null,&quot;index&quot;:null}" fill="url(#color-10)"/></g><g data-paper-data="{&quot;origPos&quot;:null}"><path d="M238.92706,193.39518h-0.43748l-0.27545,-0.37766v-14.15789l0.30785,-0.39423h0.40507z" data-paper-data="{&quot;origPos&quot;:null}" fill="url(#color-11)"/><path d="M238.92705,192.762h-0.71292v-13.92057l0.27545,-0.37603h0.43747z" data-paper-data="{&quot;origPos&quot;:null}" fill="url(#color-12)"/></g><path d="M239.113,193.38819h-0.35993v-14.92264h0.35994z" data-paper-data="{&quot;origPos&quot;:null}" fill="url(#color-13)"/><path d="M241.83596,193.39661h-0.3921l-0.00001,-14.9406h0.39211z" data-paper-data="{&quot;origPos&quot;:null}" fill="url(#color-14)"/><path d="M242.47758,192.6404l-0.43049,0.7477l-0.24678,0.00852l-0.00001,-14.9406l0.23988,0.00886l0.4374,0.70288z" data-paper-data="{&quot;origPos&quot;:null}" fill="url(#color-15)"/></g><g data-paper-data="{&quot;index&quot;:null}" fill="#73ff00" stroke="none" stroke-width="0"><path d="M226.94161,187.26175v-2.49281h8.96781v2.49281z"/><path d="M234.65233,186.03755l-4.28346,-4.32656l3.03145,0.00219l4.30729,4.30729z"/><path d="M237.70759,186.01017l-4.30729,4.30729l-3.03145,0.00221l4.28346,-4.32656z" data-paper-data="{&quot;index&quot;:null}"/></g><text transform="translate(226.58847,175.67326) scale(0.3153,0.27414)" font-size="40" xml:space="preserve" fill="#a64700" fill-rule="nonzero" stroke="#a64700" stroke-width="2" stroke-linecap="butt" stroke-linejoin="miter" stroke-miterlimit="10" stroke-dasharray="" stroke-dashoffset="0" font-family="Sans Serif" font-weight="normal" text-anchor="start" style="mix-blend-mode: normal"><tspan x="0" dy="0">En</tspan></text></g></g></g></svg>