<svg version="1.1" xmlns="http://www.w3.org/2000/svg" xmlns:xlink="http://www.w3.org/1999/xlink" width="367.63251" height="269.05377" viewBox="0,0,367.63251,269.05377"><g transform="translate(-43.23548,-16.32984)"><g data-paper-data="{&quot;isPaintingLayer&quot;:true}" fill-rule="nonzero" stroke="none" stroke-width="0.5" stroke-linecap="butt" stroke-linejoin="miter" stroke-miterlimit="10" stroke-dasharray="" stroke-dashoffset="0" style="mix-blend-mode: normal"><path d="M408.90379,283.41942c-4.41942,4.41942 -8.83883,0 -8.83883,0l-1,-1c-1.09753,-1.09753 -1.882,-2.58858 -3.23502,-3.34915c-3.14913,-1.77023 -6.61496,-2.94918 -9.71402,-4.80567c-1.88037,-1.12643 -3.32118,-2.87928 -5.14477,-4.09549c-4.97822,-3.32012 -6.21172,-3.05804 -10.22611,-6.16113c-8.28781,-6.40641 -16.54077,-13.1364 -25.48445,-18.65357c-3.7118,-2.28973 -7.86984,-3.76873 -11.71008,-5.83581c-8.64929,-4.65565 -17.94821,-8.96312 -26.26438,-14.1489c-3.49667,-2.18044 -6.65642,-4.86948 -10.13315,-7.08158c-3.50545,-2.23037 -16.90949,-9.27146 -19.75879,-10.85552c-8.03443,-4.46672 -15.78289,-9.43563 -23.82567,-13.90447c-11.66189,-5.83216 -22.9552,-11.99943 -33.69396,-19.42601c-5.73881,-3.96877 -10.78009,-9.12257 -16.67599,-12.78555c-1.39086,-0.86411 -3.0619,-1.25955 -4.36862,-2.2463c-2.73587,-2.06597 -4.60375,-5.12967 -7.30799,-7.23688c-2.8741,-2.23956 -6.37325,-3.5493 -9.40603,-5.56879c-7.43052,-4.94788 -14.37105,-10.71145 -22.42663,-14.67443c0,0 -5.59017,-2.79508 -2.79508,-8.38525c2.79508,-5.59017 8.38525,-2.79508 8.38525,-2.79508c8.42064,4.26326 15.76968,10.11622 23.57337,15.32557c3.43587,2.29361 7.33138,3.89717 10.59397,6.43121c2.5047,1.94539 4.14652,4.87141 6.69201,6.76312c1.07891,0.8018 2.49329,1.03838 3.63138,1.7537c6.1234,3.84869 11.36396,9.08362 17.32401,13.21445c10.27886,7.12414 21.13555,12.98991 32.30604,18.57399c8.15904,4.53218 16.02295,9.56795 24.17433,14.09553c3.89989,2.16614 16.08737,8.50651 20.24121,11.14448c3.39089,2.15345 6.46283,4.78579 9.86685,6.91842c12.07779,7.5668 25.88784,12.56209 38.02553,20.01529c9.29362,5.70679 17.9548,12.64193 26.51555,19.34643c2.26761,1.77592 8.72961,5.14295 9.77389,5.83887c1.72822,1.1517 3.07511,2.83478 4.85523,3.90451c3.29231,1.97846 6.99394,3.21542 10.28598,5.19433c0.35656,0.21433 4.14309,4.02895 4.76498,4.65085l1,1c0,0 4.41942,4.41942 0,8.83883z" fill="#825b00"/><path d="M169.81564,129.82473c2.43222,2.89956 4.3608,5.7868 6.91946,9.78522c2.50693,3.91759 5.69092,7.98786 7.55807,12.08343c1.37587,3.01795 2.48147,14.07422 0.43778,15.89239c-2.54865,2.2674 -6.9416,0.79946 -10.23334,-0.09562c-2.1179,-0.5759 -3.28919,-2.94237 -5.15998,-4.0901c-1.35194,-0.82942 -7.38536,-2.44989 -8.50768,-3.32977c-1.62127,-1.27105 -2.46549,-3.31621 -3.9023,-4.79258c-1.45476,-1.4948 -3.45529,-2.44239 -4.73892,-4.08649c-2.75416,-3.52757 -4.85354,-7.52064 -7.26628,-11.28996c-0.94876,-1.48221 -2.11842,-2.87099 -3.22544,-4.28673c-2.33126,3.10323 -4.97434,5.98651 -7.7932,8.80491c-2.10848,2.10813 -4.7873,3.60906 -6.80909,5.80046c-1.96813,2.13323 -3.11283,4.93619 -5.07215,7.0775c-2.78137,3.03971 -6.35375,5.25176 -9.40565,8.01974c-2.7197,2.46668 -16.03288,14.82241 -19.27779,16.60259c-0.039,0.02139 -0.07808,0.0426 -0.11723,0.06361l0.0125,0.01667l-3.94949,2.96212c-1.05309,0.80778 -2.37073,1.28788 -3.80051,1.28788c-3.45178,0 -6.25,-2.79822 -6.25,-6.25c0,-0.39062 0.03583,-0.77287 0.1044,-1.14364l0.95554,-5.73327c0.34277,-3.39844 0.54513,-6.81411 1.03263,-10.19479c0.41681,-2.89049 1.6129,-5.64191 1.93785,-8.54416c0.17885,-1.59736 -0.25327,-3.26079 0.13678,-4.8201c0.44222,-1.76791 1.64044,-3.26033 2.30856,-4.95582c1.90318,-4.82973 4.35122,-11.36414 5.73747,-16.22682c0.54534,-1.91296 0.45795,-3.96613 0.97108,-5.88799c0.8461,-3.16898 2.11816,-6.2094 3.09489,-9.34058c1.61394,-5.1739 3.77165,-9.82447 3.72081,-15.15285c-0.02545,-2.66655 -0.14715,-5.3374 0,-8c0.0142,-0.25701 0.6099,-0.38855 0.47575,-0.60823c-0.92739,-1.51861 -8.40465,-4.00478 -8.64016,-4.11567c-5.96548,-2.80888 -11.79894,-5.92252 -17.43192,-9.34981c-2.83732,-2.81619 -6.46344,-4.72717 -9.44877,-7.38595c-1.31138,-1.16794 -1.95082,-2.94901 -3.19281,-4.19049c-1.4867,-1.48607 -3.44614,-2.44304 -4.93151,-3.93043c-1.58938,-1.59154 -2.74612,-3.56755 -4.23763,-5.25116c-1.39536,-1.57507 -3.18314,-2.80654 -4.41321,-4.51382c-4.027,-5.5893 -7.41116,-16.77243 1.1696,-21.19056c3.86445,-1.98976 10.86076,0.45533 15.27184,1.43839c12.09829,2.69623 24.88201,3.22645 36.60525,7.16847c3.31377,1.11428 6.75064,1.92655 9.92424,3.39315c3.23043,1.49286 4.19745,5.11817 7.35191,3.53537c0.83165,-0.25501 2.63847,-0.62997 3.32801,-1.41867c0.79105,-0.90481 1.14988,-2.15045 2,-3c0.89035,-0.88976 2.23252,-1.2326 3.12432,-2.12092c2.6143,-2.60409 4.50916,-5.91741 7.33267,-8.29305c5.01503,-4.21954 14.52188,-6.87788 19.99505,-8.67116c4.0952,-1.34179 8.17674,-2.86181 12.43028,-3.55349c4.76112,-0.77422 10.00127,-2.68678 14.44789,-0.81722c2.65569,1.11657 2.70986,10.73995 1.86345,13.26703c-0.29943,0.894 -1.60181,1.1454 -2,2c-0.20235,0.43429 0.48681,0.89626 0.42893,1.37187c-0.42999,3.53312 -2.46068,6.72476 -3.03388,10.23749c-0.30935,1.8958 0.22305,3.85098 0.03388,5.76251c-0.13535,1.36769 -0.86191,2.63259 -1,4c-0.32287,3.19705 -0.12257,6.51566 -1.09868,9.57713c-0.30949,2.8727 -0.52231,5.75746 -0.92848,8.61809c-0.16496,1.16177 -0.16494,2.41015 -0.48337,3.53246c0.35403,0.13754 0.71044,0.254 1.07101,0.30551c4.88428,0.69772 10.22529,1.01619 15.04751,2.22135c1.32334,0.33073 2.28762,1.6297 3.6248,1.89902c1.66054,0.33444 3.39125,-0.28336 5.07955,-0.1459c3.59963,0.29308 7.07193,1.47812 10.63212,2.08497c2.87227,0.48959 5.83623,0.45765 8.66353,1.16191c1.3236,0.3297 2.30275,1.5632 3.6248,1.89902c1.10898,0.28169 2.30702,-0.3213 3.43093,-0.10678c2.8569,0.5453 5.65586,1.39776 8.39889,2.36475c2.75396,0.97084 3.65618,2.24553 6.24081,2.75914c4.24657,0.84386 9.00357,0.15727 12.79179,2.25364c0.38771,0.21456 0.74865,0.46081 1.08765,0.73303l0.08086,-0.12129l2.91934,1.94623c1.72313,1.11284 2.86378,3.05026 2.86378,5.25409c0,2.8115 -1.8564,5.18941 -4.4103,5.97485l-2.86328,0.95443l-0.03089,-0.09268l-0.19811,0.16416c-4.44652,1.11163 -8.73538,2.7837 -13.14325,4.03987c-6.32936,1.80376 -13.85024,3.11369 -20.1695,4.21464c-9.38525,1.63511 -18.41459,2.64611 -27.45825,5.67401c-5.99762,2.00806 -11.63503,4.26876 -17.41607,6.77223c-1.43157,0.61994 -2.91882,1.26255 -4.22909,2.12323zM170.21846,24.98912c-0.02415,-0.01735 -0.02808,-0.01931 0,0z" fill="#ff5000"/></g></g></svg>