<svg version="1.1" xmlns="http://www.w3.org/2000/svg" xmlns:xlink="http://www.w3.org/1999/xlink" width="328" height="205" viewBox="0,0,328,205"><defs><linearGradient x1="239.76421" y1="163.06017" x2="239.76421" y2="167.67341" gradientUnits="userSpaceOnUse" id="color-1"><stop offset="0" stop-color="#f7e555"/><stop offset="1" stop-color="#fac800"/></linearGradient><linearGradient x1="239.76421" y1="196.93981" x2="239.76421" y2="192.32659" gradientUnits="userSpaceOnUse" id="color-2"><stop offset="0" stop-color="#715304"/><stop offset="1" stop-color="#f8b50a"/></linearGradient><linearGradient x1="222.99226" y1="180.15733" x2="227.65104" y2="180.16499" gradientUnits="userSpaceOnUse" id="color-3"><stop offset="0" stop-color="#c89c2b"/><stop offset="1" stop-color="#f5c42e"/></linearGradient><linearGradient x1="257.00775" y1="180.16342" x2="252.34892" y2="180.15581" gradientUnits="userSpaceOnUse" id="color-4"><stop offset="0" stop-color="#b28209"/><stop offset="1" stop-color="#ffba0a"/></linearGradient><radialGradient cx="244.68456" cy="189.52893" r="4.76095" gradientUnits="userSpaceOnUse" id="color-5"><stop offset="0" stop-color="#feffbc"/><stop offset="1" stop-color="#ffe68d"/></radialGradient><linearGradient x1="244.69455" y1="181.40337" x2="244.69455" y2="193.99146" gradientUnits="userSpaceOnUse" id="color-6"><stop offset="0" stop-color="#0ca8ff"/><stop offset="1" stop-color="#006cd1"/></linearGradient><radialGradient cx="243.19853" cy="188.83355" r="1.00122" gradientUnits="userSpaceOnUse" id="color-7"><stop offset="0" stop-color="#747474"/><stop offset="1" stop-color="#2e2e2f"/></radialGradient><radialGradient cx="246.23153" cy="188.83355" r="1.00124" gradientUnits="userSpaceOnUse" id="color-8"><stop offset="0" stop-color="#747474"/><stop offset="1" stop-color="#2e2e2f"/></radialGradient><radialGradient cx="243.19853" cy="188.83355" r="1.00122" gradientUnits="userSpaceOnUse" id="color-9"><stop offset="0" stop-color="#747474"/><stop offset="1" stop-color="#2e2e2f"/></radialGradient><radialGradient cx="243.18107" cy="188.55911" r="0.47751" gradientUnits="userSpaceOnUse" id="color-10"><stop offset="0" stop-color="#ffffff"/><stop offset="1" stop-color="#ffffff" stop-opacity="0"/></radialGradient><radialGradient cx="246.23153" cy="188.83355" r="1.00124" gradientUnits="userSpaceOnUse" id="color-11"><stop offset="0" stop-color="#747474"/><stop offset="1" stop-color="#2e2e2f"/></radialGradient><radialGradient cx="246.21409" cy="188.55911" r="0.4775" gradientUnits="userSpaceOnUse" id="color-12"><stop offset="0" stop-color="#ffffff"/><stop offset="1" stop-color="#ffffff" stop-opacity="0"/></radialGradient><radialGradient cx="244.68456" cy="189.52893" r="4.76095" gradientUnits="userSpaceOnUse" id="color-13"><stop offset="0" stop-color="#feffbc"/><stop offset="1" stop-color="#ffe68d"/></radialGradient><linearGradient x1="244.68456" y1="186.79346" x2="244.68456" y2="193.37361" gradientUnits="userSpaceOnUse" id="color-14"><stop offset="0" stop-color="#ebc578" stop-opacity="0"/><stop offset="1" stop-color="#ebc578"/></linearGradient><linearGradient x1="244.69455" y1="181.40338" x2="244.69455" y2="193.99146" gradientUnits="userSpaceOnUse" id="color-15"><stop offset="0" stop-color="#0ca8ff"/><stop offset="1" stop-color="#006cd1"/></linearGradient><radialGradient cx="244.65122" cy="182.38694" r="7.5002" gradientUnits="userSpaceOnUse" id="color-16"><stop offset="0" stop-color="#2fb0ff"/><stop offset="1" stop-color="#2fb0ff" stop-opacity="0"/></radialGradient><radialGradient cx="243.19853" cy="188.83356" r="1.00122" gradientUnits="userSpaceOnUse" id="color-17"><stop offset="0" stop-color="#747474"/><stop offset="1" stop-color="#2e2e2f"/></radialGradient><radialGradient cx="243.18569" cy="189.07048" r="1.15109" gradientUnits="userSpaceOnUse" id="color-18"><stop offset="0" stop-color="#636364"/><stop offset="1" stop-color="#2e2e2f"/></radialGradient><radialGradient cx="243.18107" cy="188.55911" r="0.47751" gradientUnits="userSpaceOnUse" id="color-19"><stop offset="0" stop-color="#ffffff"/><stop offset="1" stop-color="#ffffff" stop-opacity="0"/></radialGradient><radialGradient cx="246.23153" cy="188.83356" r="1.00124" gradientUnits="userSpaceOnUse" id="color-20"><stop offset="0" stop-color="#747474"/><stop offset="1" stop-color="#2e2e2f"/></radialGradient><radialGradient cx="246.21869" cy="189.07048" r="1.15109" gradientUnits="userSpaceOnUse" id="color-21"><stop offset="0" stop-color="#636364"/><stop offset="1" stop-color="#2e2e2f"/></radialGradient><radialGradient cx="246.21409" cy="188.55911" r="0.4775" gradientUnits="userSpaceOnUse" id="color-22"><stop offset="0" stop-color="#ffffff"/><stop offset="1" stop-color="#ffffff" stop-opacity="0"/></radialGradient></defs><g transform="translate(-76,-77.5)"><g data-paper-data="{&quot;isPaintingLayer&quot;:true}" fill-rule="nonzero" stroke-linecap="butt" stroke-linejoin="miter" stroke-miterlimit="10" stroke-dasharray="" stroke-dashoffset="0" style="mix-blend-mode: normal"><path d="M76,282.5v-205h328v205z" fill="none" stroke="none" stroke-width="0"/><g stroke="none"><g data-paper-data="{&quot;origPos&quot;:null}"><path d="M227.32436,167.67341l-3.89449,-3.67755l0.69893,-0.93568h31.27082l1.00816,0.93865l-3.74721,3.67458z" data-paper-data="{&quot;origPos&quot;:null}" fill="url(#color-1)" stroke-width="0"/><path d="M252.66058,192.32659l3.73381,3.6436l-0.99476,0.96963h-31.27082l-0.70571,-0.76136l3.90126,-3.85187z" data-paper-data="{&quot;origPos&quot;:null,&quot;index&quot;:null}" fill="url(#color-2)" stroke-width="0"/><path d="M227.63044,192.52346l-3.98506,3.91549l-0.67902,-0.7485l0.05177,-31.06623l0.65288,-0.8943l4.00138,3.6231z" data-paper-data="{&quot;origPos&quot;:null,&quot;origRot&quot;:0}" fill="url(#color-3)" stroke-width="0"/><path d="M252.3703,167.38565l3.77202,-3.61783l0.89132,0.91321l-0.05178,30.67547l-0.81378,0.85511l-3.83973,-3.73771z" data-paper-data="{&quot;origPos&quot;:null,&quot;index&quot;:null,&quot;origRot&quot;:0}" fill="url(#color-4)" stroke-width="0"/><path d="M227.31042,192.59075v-25.20395h25.3621v25.20395z" data-paper-data="{&quot;origPos&quot;:null}" fill="#f8c01c" stroke-width="NaN"/><path d="M225.54916,167.11112c0,-0.89974 0.73659,-1.62912 1.64521,-1.62912c0.90863,0 1.64522,0.72938 1.64522,1.62912c0,0.89974 -0.7366,1.62912 -1.64522,1.62912c-0.90863,0 -1.64521,-0.72939 -1.64521,-1.62912z" data-paper-data="{&quot;origPos&quot;:null}" fill="#615929" stroke-width="0"/><path d="M225.49884,192.96022c0,-0.89974 0.73659,-1.62912 1.64522,-1.62912c0.90863,0 1.64522,0.72938 1.64522,1.62912c0,0.89974 -0.7366,1.62911 -1.64522,1.62911c-0.90863,0 -1.64522,-0.72937 -1.64522,-1.62911z" data-paper-data="{&quot;origPos&quot;:null}" fill="#615929" stroke-width="0"/><g data-paper-data="{&quot;origPos&quot;:null}" fill="#615929" stroke-width="0"><path d="M251.2267,167.14567c0,-0.89974 0.7366,-1.62912 1.64523,-1.62912c0.90863,0 1.64523,0.72938 1.64523,1.62912c0,0.89974 -0.73659,1.62913 -1.64523,1.62913c-0.90863,0 -1.64523,-0.72939 -1.64523,-1.62913z" data-paper-data="{&quot;origPos&quot;:null}"/><path d="M251.17638,192.99479c0,-0.89974 0.73659,-1.62912 1.64522,-1.62912c0.90863,0 1.64522,0.72938 1.64522,1.62912c0,0.89974 -0.7366,1.62912 -1.64522,1.62912c-0.90863,0 -1.64522,-0.72938 -1.64522,-1.62912z" data-paper-data="{&quot;origPos&quot;:null}"/></g></g><g data-paper-data="{&quot;origPos&quot;:null}" fill="#c49821" stroke-width="0"><g data-paper-data="{&quot;origPos&quot;:null}"><path d="M237.93138,193.06241v-3.53364h6.60845v3.53365z" data-paper-data="{&quot;origPos&quot;:null}"/><path d="M238.06355,186.25687c0,0 0,-2.93981 0,-5.15651c0,-1.15703 2.10296,-2.95779 3.19849,-2.95779c1.52678,0 3.27779,0 3.27779,0v8.11431z" data-paper-data="{&quot;origPos&quot;:null}"/><path d="M251.88841,173.95455v5.1565l-3.53792,2.9578h-3.62565v-8.11429z" data-paper-data="{&quot;origPos&quot;:null,&quot;index&quot;:null}"/><path d="M244.72487,176.2056v-8.11431h3.62565l3.53792,2.9578v5.15651z" data-paper-data="{&quot;origPos&quot;:null,&quot;index&quot;:null}"/><path d="M243.21811,182.04268v-3.87392h1.58603v3.87392z" data-paper-data="{&quot;origPos&quot;:null}"/><path d="M234.91793,172.4364v-4.31891h10.41492v4.31891z" data-paper-data="{&quot;origPos&quot;:null}"/><path d="M229.39325,178.09023c0,0 0,-3.81304 0,-6.53027c0,-1.41828 2.1888,-3.41628 3.32904,-3.41628c1.5891,0 3.41157,0 3.41157,0v9.94655z" data-paper-data="{&quot;origPos&quot;:null,&quot;index&quot;:null}"/></g><path d="M238.07955,186.24434l-0.98333,-1.09092l0.73351,-0.79663l1.35758,1.22568z" data-paper-data="{&quot;origRot&quot;:0,&quot;origPos&quot;:null}"/><path d="M237.94346,193.04944l-0.98334,-1.09092l0.73352,-0.79663l1.35758,1.22568z" data-paper-data="{&quot;origRot&quot;:0,&quot;origPos&quot;:null}"/><path d="M243.57931,188.46681l0.98335,1.09092l-0.73352,0.79662l-1.35759,-1.22568z" data-paper-data="{&quot;origRot&quot;:0,&quot;origPos&quot;:null,&quot;index&quot;:null}"/><path d="M229.38815,178.08421l-0.98333,-1.09092l0.73351,-0.79663l1.35758,1.22568z" data-paper-data="{&quot;origRot&quot;:0,&quot;origPos&quot;:null}"/></g><g data-paper-data="{&quot;origPos&quot;:null}" fill="#ffffff" stroke-width="0"><path d="M236.94908,191.97744v-3.53365h6.60845v3.53365z" data-paper-data="{&quot;origPos&quot;:null}"/><path d="M237.08126,185.17189v-5.1565l3.19849,-2.9578h3.27779v8.1143z" data-paper-data="{&quot;origPos&quot;:null}"/><path d="M250.90614,172.86957v5.1565l-3.53792,2.95779h-3.62564v-8.11429z" data-paper-data="{&quot;origPos&quot;:null,&quot;index&quot;:null}"/><path d="M243.74255,175.12064v-8.11429h3.62564l3.53792,2.95779v5.15651z" data-paper-data="{&quot;origPos&quot;:null,&quot;index&quot;:null}"/><path d="M242.23583,180.99138v-3.90761h1.58603v3.90761z" data-paper-data="{&quot;origPos&quot;:null}"/><path d="M233.9356,171.35142v-4.31891h10.41492v4.31891z" data-paper-data="{&quot;origPos&quot;:null}"/><path d="M228.41098,177.00522v-6.53028l3.32903,-3.41627h3.41157v9.94655z" data-paper-data="{&quot;origPos&quot;:null,&quot;index&quot;:null}"/></g></g><g><g stroke="#000000" stroke-width="4"><path d="M249.02991,188.1569c0.29301,0.34801 0.69831,1.95162 0.12847,2.9809c-1.01071,1.82558 -3.81393,1.67836 -4.41184,1.67836c-2.89575,0 -3.88659,-0.6374 -4.45853,-1.8588c-0.26085,-0.55708 -0.72866,-2.35504 0.12674,-3.38229c0.95153,-1.1427 3.29973,-1.3362 4.33178,-1.3362c1.10744,0 3.36543,0.82781 4.28337,1.91804z" fill="url(#color-5)"/><path d="M249.15534,191.16433c-0.03012,0.01157 0.13178,-1.1858 0.13178,-1.1858c0,0 -0.42387,-0.92847 -1.6044,-1.62929c-0.83925,-0.49821 -2.09222,-0.84729 -3.04882,-0.81053c-1.12049,0.04813 -2.08144,0.33605 -2.90274,0.81174c-1.23091,0.71291 -1.71674,1.7245 -1.71674,1.7245c0,0 0.33007,0.97242 0.3259,0.97016c-0.8864,-0.48027 -1.44087,-0.88609 -1.84374,-1.38339c-1.11172,-1.08961 -1.38846,-3.17537 -1.19823,-4.61873c0.2773,-2.10395 1.51669,-4.21114 3.40609,-5.4151c1.37272,-0.87472 2.89955,-1.13619 3.99011,-1.13619c1.2957,0 3.26588,0.4111 4.8169,1.61419c1.55128,1.20328 2.12869,3.17269 2.50998,4.9891c0.17254,1.8082 -0.13139,3.56853 -1.10542,4.59945c0,0 -1.0542,1.19837 -1.76066,1.46989z" fill="url(#color-6)"/><g><g fill="url(#color-7)"><path d="M242.71074,189.79075v-1.48512c0,0 0.02918,-0.38689 0.46386,-0.38624c0.46794,0.0007 0.48602,0.38624 0.48602,0.38624v1.48512c0,0 -0.00534,0.43081 -0.47858,0.43081c-0.45222,0 -0.47129,-0.43081 -0.47129,-0.43081z"/></g><g fill="url(#color-8)"><path d="M245.74376,189.79075v-1.48512c0,0 0.02918,-0.38689 0.46388,-0.38624c0.46794,0.0007 0.486,0.38624 0.486,0.38624v1.48512c0,0 -0.00534,0.43081 -0.47858,0.43081c-0.45222,0 -0.4713,-0.43081 -0.4713,-0.43081z"/></g></g><g><g><path d="M242.71074,189.79075v-1.48512c0,0 0.02918,-0.38689 0.46386,-0.38624c0.46794,0.0007 0.48602,0.38624 0.48602,0.38624v1.48512c0,0 -0.00534,0.43081 -0.47858,0.43081c-0.45222,0 -0.47129,-0.43081 -0.47129,-0.43081z" fill="url(#color-9)"/><path d="M243.57431,188.55911c0,0.26371 -0.17606,0.4775 -0.39324,0.4775c-0.21718,0 -0.39323,-0.21379 -0.39323,-0.4775c0,-0.26371 0.17606,-0.4775 0.39323,-0.4775c0.21718,0 0.39324,0.21378 0.39324,0.4775z" fill="url(#color-10)"/><path d="M243.47819,188.55911c0,0.19925 -0.13303,0.36077 -0.29712,0.36077c-0.16409,0 -0.29711,-0.16152 -0.29711,-0.36077c0,-0.19925 0.13302,-0.36078 0.29711,-0.36078c0.16409,0 0.29712,0.16153 0.29712,0.36078z" fill="#ffffff"/></g><g><path d="M245.74376,189.79075v-1.48512c0,0 0.02918,-0.38689 0.46388,-0.38624c0.46794,0.0007 0.48601,0.38624 0.48601,0.38624v1.48512c0,0 -0.00534,0.43081 -0.47858,0.43081c-0.45222,0 -0.4713,-0.43081 -0.4713,-0.43081z" fill="url(#color-11)"/><path d="M246.60732,188.55911c0,0.26371 -0.17606,0.4775 -0.39324,0.4775c-0.21717,0 -0.39324,-0.21379 -0.39324,-0.4775c0,-0.26371 0.17606,-0.4775 0.39324,-0.4775c0.21718,0 0.39324,0.21378 0.39324,0.4775z" fill="url(#color-12)"/><path d="M246.5112,188.55911c0,0.19925 -0.13302,0.36077 -0.29711,0.36077c-0.16409,0 -0.29711,-0.16152 -0.29711,-0.36077c0,-0.19925 0.13302,-0.36078 0.29711,-0.36078c0.16409,0 0.29711,0.16153 0.29711,0.36078z" fill="#ffffff"/></g></g><path d="M248.10018,181.763c0,1.51236 -1.53639,2.84236 -3.43163,2.84236c-1.89524,0 -3.43163,-1.33 -3.43163,-2.84236c0,-1.51236 1.5364,-2.63439 3.43163,-2.63439c1.89524,0 3.43163,1.12203 3.43163,2.63439z" fill="#ffffff"/><path d="M238.35989,184.2934c0,1.16778 -0.04859,3.81293 -0.72792,3.81293c-0.19696,0 -0.58164,-1.3354 -0.41586,-2.80378c0.1726,-1.52875 1.05391,-3.25977 1.10911,-3.19292c0.40202,0.13865 0.03466,1.01599 0.03466,2.18376z" fill="#ffffff"/><path d="M250.98633,184.29339c0,-1.16778 -0.36736,-2.04511 0.03467,-2.18377c0.12453,-0.06686 0.93651,1.66417 1.10911,3.19292c0.16579,1.46839 -0.21889,2.80377 -0.41585,2.80377c-0.67933,0 -0.72792,-2.64515 -0.72792,-3.81292z" data-paper-data="{&quot;index&quot;:null}" fill="#ffffff"/></g><path d="M249.02991,188.15691c0.29301,0.34801 0.69831,1.95162 0.12847,2.9809c-1.01071,1.82558 -3.81393,1.67836 -4.41184,1.67836c-2.89575,0 -3.88659,-0.6374 -4.45853,-1.8588c-0.26085,-0.55708 -0.72866,-2.35504 0.12674,-3.38229c0.95153,-1.1427 3.29973,-1.3362 4.33178,-1.3362c1.10744,0 3.36543,0.82781 4.28337,1.91804z" fill="url(#color-13)" stroke="none" stroke-width="0"/><path d="M249.15839,191.1378c-1.0107,1.82558 -3.81394,1.67835 -4.41185,1.67835c-2.89575,0 -3.88659,-0.6374 -4.45853,-1.8588c-0.26085,-0.55708 -0.72866,-2.35504 0.12674,-3.38229c0.95153,-1.1427 3.29973,-1.3362 4.33179,-1.3362c1.10744,0 3.36542,0.82782 4.28337,1.91805c0,0 0.69831,1.95162 0.12847,2.9809z" fill="url(#color-14)" stroke="none" stroke-width="0"/><path d="M249.15534,191.16434c-0.03012,0.01157 0.13178,-1.1858 0.13178,-1.1858c0,0 -0.42387,-0.92847 -1.6044,-1.62929c-0.83925,-0.49821 -2.09222,-0.84729 -3.04882,-0.81053c-1.12049,0.04813 -2.08144,0.33605 -2.90274,0.81173c-1.23091,0.71291 -1.71674,1.7245 -1.71674,1.7245c0,0 0.33007,0.97242 0.3259,0.97016c-0.8864,-0.48027 -1.44087,-0.88609 -1.84374,-1.38338c-1.11172,-1.08961 -1.38846,-3.17537 -1.19823,-4.61873c0.2773,-2.10395 1.51669,-4.21115 3.40609,-5.4151c1.37272,-0.87472 2.89955,-1.1362 3.99011,-1.1362c1.2957,0 3.26588,0.41111 4.8169,1.6142c1.55128,1.20328 2.12869,3.17269 2.50998,4.9891c0.17254,1.8082 -0.13139,3.56854 -1.10542,4.59945c0,0 -1.0542,1.19837 -1.76066,1.46988z" fill="url(#color-15)" stroke="none" stroke-width="0"/><path d="M249.138,191.18166c-0.03012,0.01157 0.1491,-1.20313 0.1491,-1.20313c0,0 -0.42386,-0.92847 -1.60439,-1.62929c-0.83925,-0.49821 -2.09222,-0.79529 -3.04883,-0.75853c-1.12049,0.04813 -2.08143,0.28405 -2.90274,0.75974c-1.23091,0.71291 -1.71675,1.72449 -1.71675,1.72449c0,0 0.3474,0.97242 0.34323,0.97016c-0.8864,-0.48027 -1.45819,-0.88609 -1.86106,-1.38339c-1.11172,-1.08961 -1.5102,-3.16289 -1.25023,-4.61873c0.36986,-2.07119 1.4647,-4.21114 3.3541,-5.4151c1.37272,-0.87472 3.00355,-1.1362 4.09411,-1.1362c1.2957,0 3.30054,0.4111 4.85156,1.61419c1.55128,1.20328 2.17768,3.21014 2.54464,4.9891c0.36396,1.76442 -0.20071,3.56854 -1.17475,4.59945c0,0 -1.07153,1.21571 -1.77799,1.48722z" fill="url(#color-16)" stroke="none" stroke-width="0"/><g stroke-width="0"><g><path d="M242.71074,189.79076v-1.48512c0,0 0.02918,-0.38689 0.46386,-0.38625c0.46794,0.0007 0.48602,0.38625 0.48602,0.38625v1.48512c0,0 -0.00534,0.43081 -0.47858,0.43081c-0.45222,0 -0.47129,-0.43081 -0.47129,-0.43081z" fill="url(#color-17)" stroke="url(#color-18)"/><path d="M243.57431,188.55911c0,0.26371 -0.17606,0.4775 -0.39324,0.4775c-0.21718,0 -0.39323,-0.21379 -0.39323,-0.4775c0,-0.26371 0.17606,-0.47751 0.39323,-0.47751c0.21718,0 0.39324,0.21379 0.39324,0.47751z" fill="url(#color-19)" stroke="none"/><path d="M243.47819,188.55911c0,0.19925 -0.13303,0.36077 -0.29712,0.36077c-0.16409,0 -0.29711,-0.16152 -0.29711,-0.36077c0,-0.19925 0.13302,-0.36078 0.29711,-0.36078c0.16409,0 0.29712,0.16153 0.29712,0.36078z" fill="#ffffff" stroke="none"/></g><g><path d="M245.74376,189.79076v-1.48512c0,0 0.02918,-0.38689 0.46388,-0.38625c0.46794,0.0007 0.48601,0.38625 0.48601,0.38625v1.48512c0,0 -0.00534,0.43081 -0.47858,0.43081c-0.45222,0 -0.4713,-0.43081 -0.4713,-0.43081z" fill="url(#color-20)" stroke="url(#color-21)"/><path d="M246.60732,188.55911c0,0.26371 -0.17606,0.4775 -0.39324,0.4775c-0.21717,0 -0.39324,-0.21379 -0.39324,-0.4775c0,-0.26371 0.17606,-0.47751 0.39324,-0.47751c0.21718,0 0.39324,0.21379 0.39324,0.47751z" fill="url(#color-22)" stroke="none"/><path d="M246.5112,188.55911c0,0.19925 -0.13302,0.36077 -0.29711,0.36077c-0.16409,0 -0.29711,-0.16152 -0.29711,-0.36077c0,-0.19925 0.13302,-0.36078 0.29711,-0.36078c0.16409,0 0.29711,0.16153 0.29711,0.36078z" fill="#ffffff" stroke="none"/></g></g><path d="M248.10018,181.763c0,1.51236 -1.53639,2.84236 -3.43163,2.84236c-1.89524,0 -3.43163,-1.33 -3.43163,-2.84236c0,-1.51236 1.5364,-2.63439 3.43163,-2.63439c1.89524,0 3.43163,1.12202 3.43163,2.63439z" fill="#ffffff" stroke="none" stroke-width="0"/><path d="M238.35989,184.2934c0,1.16778 -0.04859,3.81293 -0.72792,3.81293c-0.19696,0 -0.58164,-1.3354 -0.41586,-2.80378c0.1726,-1.52875 1.05391,-3.25978 1.10911,-3.19292c0.40202,0.13865 0.03466,1.01599 0.03466,2.18377z" fill="#ffffff" stroke="none" stroke-width="0"/><path d="M250.98633,184.2934c0,-1.16778 -0.36736,-2.04511 0.03467,-2.18376c0.12453,-0.06686 0.93651,1.66416 1.10911,3.19291c0.16579,1.46839 -0.21889,2.80378 -0.41585,2.80378c-0.67933,0 -0.72792,-2.64515 -0.72792,-3.81293z" data-paper-data="{&quot;index&quot;:null}" fill="#ffffff" stroke="none" stroke-width="0"/></g></g></g></svg>