<svg version="1.1" xmlns="http://www.w3.org/2000/svg" xmlns:xlink="http://www.w3.org/1999/xlink" width="81.34963" height="108.78372" viewBox="0,0,81.34963,108.78372"><g transform="translate(-195.75326,-79.69849)"><g data-paper-data="{&quot;isPaintingLayer&quot;:true}" fill-rule="nonzero" stroke="none" stroke-width="0.5" stroke-linecap="butt" stroke-linejoin="miter" stroke-miterlimit="10" stroke-dasharray="" stroke-dashoffset="0" style="mix-blend-mode: normal"><path d="M224.3731,107.44309c-2.70619,-0.45104 -2.25516,-3.15722 -2.25516,-3.15722c0.77936,-4.55332 2.1279,-8.96662 3.34681,-13.42206c0.38596,-1.4108 0.93153,-6.14901 1.87662,-6.78812c1.1928,-0.80662 10.45166,-1.87335 12.40276,-2.12629c3.62768,-0.47025 7.24674,-1.01262 10.88305,-1.41076c2.19157,-0.23996 4.49093,-1.29894 6.58569,-0.6115c5.44518,1.78694 6.08667,5.88442 7.77258,10.32817c2.14569,5.6556 1.73081,11.23585 1.02243,17.18319c-1.86615,0.7452 -3.58915,2.21316 -5.59848,2.23559c-6.44748,0.07197 -5.17109,-5.04659 -6.39012,-9.09375c-0.56816,-1.88621 -1.62534,-3.60125 -2.19481,-5.48706c-0.4021,-1.33156 0.483,-3.39923 -0.71161,-4.11174c-2.59097,-1.54536 -6.06502,2.29134 -7.74796,3.41187c-0.83394,0.55526 -1.7901,0.92331 -2.58598,1.53186c-1.12787,0.8624 -2.54377,1.72755 -2.92659,3.09477c-0.64913,2.31833 -0.24552,5.43426 -2.16206,6.89129c-1.14303,0.86898 -2.85442,0.31446 -4.28163,0.4717h-2.74352v0c-0.51463,0 -0.99616,-0.1417 -1.40772,-0.38819c-0.36413,0.757 -1.17366,1.73338 -2.88425,1.44829z" fill="#c4a6ff"/><path d="M250.2223,113.83028l-1.62025,2.70041c-0.47389,0.82188 -1.36154,1.37511 -2.37842,1.37511c-1.34859,0 -2.46991,-0.97303 -2.70021,-2.25531l-0.53873,-2.6937c0,0 -0.10225,-0.5112 0.00525,-1.13251c-0.92314,-0.20016 -1.78803,-0.49579 -2.55375,-0.88575c-0.25698,-0.13088 -4.31846,-5.25153 -4.58546,-5.58521c0,0 -1.71387,-2.14233 0.42847,-3.8562c0.42386,-0.33909 0.83096,-0.52723 1.21133,-0.61087c-0.61544,-0.76122 -1.29388,-1.49602 -1.13667,-2.37962c0.77075,-4.33227 3.48573,-3.62732 5.83752,-5.68378c2.12446,-1.85768 1.47714,-4.47856 5.67838,-4.54712c3.26854,-0.05335 7.85151,5.92729 8.67973,8.59565c0.47756,1.53857 0.56257,8.61526 -0.10929,10.01282c-1.0907,2.26879 -3.33921,3.79115 -5.92771,4.58951c0.41252,1.18545 -0.29017,2.35658 -0.29017,2.35658zM247.86975,93.76278c-0.20481,-0.04166 -0.16698,0.27809 -0.18537,0.55486c0.06125,-0.00408 0.12307,-0.00617 0.18537,-0.00617c0.08957,0 0.17812,0.00429 0.2655,0.01268c-0.03484,-0.25694 -0.05141,-0.51785 -0.2655,-0.56139zM245.17851,106.58773c0.22161,0.01392 0.45255,0.02249 0.68948,0.02532c-0.11967,-0.12763 -0.22728,-0.26672 -0.32099,-0.41543c-0.15133,0.16241 -0.27669,0.2953 -0.36848,0.39011z" fill="#ffeab8"/><path d="M253.85222,104.19884c0.53805,2.69025 -2.15219,3.2283 -2.15219,3.2283l-2.74352,0.54871c-2.32701,0.38899 -4.82782,0.11751 -7.04402,-0.69165c0,0 -2.5473,-1.01893 -1.52839,-3.56622c1.01893,-2.5473 3.56622,-1.52839 3.56622,-1.52839c1.19556,0.55236 2.65526,0.73637 3.93007,0.40575l2.74352,-0.54871c0,0 2.69025,-0.53805 3.2283,2.15219z" fill="#000000"/><path d="M241.28529,95.9576c0,-1.51521 1.22832,-2.74352 2.74352,-2.74352c1.51521,0 2.74352,1.22832 2.74352,2.74352c0,1.51521 -1.22832,2.74352 -2.74352,2.74352c-1.51521,0 -2.74352,-1.22832 -2.74352,-2.74352z" fill="#000000"/><path d="M248.96716,95.4089c0,-1.51521 1.22832,-2.74352 2.74352,-2.74352c1.51521,0 2.74352,1.22832 2.74352,2.74352c0,1.51521 -1.22832,2.74352 -2.74352,2.74352c-1.51521,0 -2.74352,-1.22832 -2.74352,-2.74352z" fill="#000000"/><path d="M262.04761,119.78637l0.39822,0.29183c0.09588,0.43539 0.23815,0.86615 0.4018,1.29438c0.25637,0.51956 0.48616,1.05634 0.68374,1.60487c2.52721,0.78847 1.79136,3.36392 1.79136,3.36392l-0.67907,2.18466l0.17154,0.85765c0.04217,0.19115 0.06438,0.38977 0.06438,0.5936c0,0.45651 -0.1115,0.88699 -0.30875,1.26568c0.00843,0.14596 0.01408,0.29222 0.01722,0.43875l0.23826,-0.04766l0.5376,2.68798c0.04217,0.19115 0.06438,0.38977 0.06438,0.5936c0,1.51521 -1.22832,2.74352 -2.74352,2.74352c-0.7576,0 -1.4435,-0.30707 -1.93997,-0.80356l-0.0635,-0.0635c0.13821,0.92895 0.25693,1.85917 0.34399,2.79153c0.10204,1.09266 -0.0142,2.19491 0,3.29223c0.01957,1.51215 1.03212,3.34385 0.10128,4.53569c-2.88046,3.68822 -10.42661,0.72667 -14.03185,0.11494c-1.01202,-0.01339 -2.05161,0.19482 -3.03606,-0.04015c-1.36654,-0.32618 -2.79152,-0.74246 -3.89356,-1.61385c-5.94423,-4.70013 -1.0553,-11.58081 -0.51262,-17.26296c0.10922,-1.1435 -0.04946,-2.36173 -0.22945,-3.5706c-0.53103,0 -1.07709,0 -1.61072,0c-0.61114,1.64612 -2.56283,1.64612 -2.56283,1.64612l-1.08675,-0.05327c-0.12459,-0.0256 -0.25042,-0.04652 -0.37732,-0.06346c-1.24997,1.72213 -2.66035,3.18456 -4.62219,3.36336c-6.59596,0.60119 -10.33326,-4.7262 -7.17823,-10.24395c2.8422,-4.97069 10.22964,-7.18964 15.45932,-7.269c0,0 1.47307,0 2.26042,1.07939c1.14477,-0.17161 2.12923,0.56672 2.12923,0.56672c2.55413,1.99794 4.48192,2.20193 7.68187,2.19481c1.59737,-0.00355 4.44682,-0.15139 6.25686,0.58477c0.36718,-0.03791 0.74311,-0.11554 1.12055,-0.20006c0.41027,-0.24435 0.88968,-0.38471 1.40188,-0.38471c0.18585,0 0.36738,0.01848 0.54285,0.0537c0.4605,-0.01189 0.90304,0.05789 1.3126,0.27751c0.88487,0.47448 1.25639,1.47659 1.62539,2.48092l0.3601,0.48011l-0.14019,0.10513c0.01704,0.04331 0.03427,0.08643 0.05173,0.12932z" fill="#c4a6ff"/><path d="M264.3309,142.04882c-0.78778,0 -1.34936,-0.2262 -1.74968,-0.54871c-0.53917,0 -0.99385,0 -0.99385,0c-1.51521,0 -2.74352,-1.22832 -2.74352,-2.74352c0,-1.51521 1.22832,-2.74352 2.74352,-2.74352h2.74352c0,0 2.74352,0 2.74352,2.74352c0,0.18088 -0.01193,0.34984 -0.03421,0.50766l0.03421,0.04105c0,0 0,2.74352 -2.74352,2.74352z" fill="#ffeab8"/><path d="M224.05592,127.49021l1.12069,0.91948c0.21977,1.83898 1.90741,4.14859 0.65932,5.51692c-3.07691,3.37331 -10.34734,-1.9489 -10.88742,-4.42188c-0.13723,-0.62835 4.28254,-4.94309 5.19214,-5.85701c0,0 1.93997,-1.93997 3.87992,0c1.78224,1.78224 0.2898,3.56447 0.03534,3.8425z" fill="#ffeab8"/><path d="M223.72672,132.72084c0,-1.51521 1.22832,-2.74352 2.74352,-2.74352c1.51521,0 2.74352,1.22832 2.74352,2.74352c0,1.51521 -1.22832,2.74352 -2.74352,2.74352c-1.51521,0 -2.74352,-1.22832 -2.74352,-2.74352z" fill="#825b00"/><path d="M209.89886,117.44429c2.10763,-1.75635 3.86399,0.35127 3.86399,0.35127c1.1709,1.40509 4.31614,5.17937 5.48706,6.58446c0,0 1.75635,2.10763 -0.35127,3.86399c-2.10763,1.75635 -3.86399,-0.35127 -3.86399,-0.35127c-1.1709,-1.40509 -2.34182,-2.81018 -3.51272,-4.21527l-1.97433,-2.36918c0,0 -1.75635,-2.10763 0.35127,-3.86399z" fill="#825b00"/><path d="M212.42478,116.58782c0.10779,0.06426 0.21712,0.13754 0.32784,0.22059c2.19481,1.64612 0.54871,3.84093 0.54871,3.84093c-0.54871,0.73161 -1.09741,1.4632 -1.64612,2.19481l-1.62696,2.16927c-0.49923,0.68087 -1.30498,1.12295 -2.21397,1.12295c-1.34859,0 -2.46991,-0.97303 -2.70021,-2.25531l-0.53873,-2.6937l0.52412,-0.10482c-0.01844,-0.06603 -0.03602,-0.13222 -0.05268,-0.19854c-2.9869,0.11162 -8.07765,-0.77953 -8.39919,-1.62648c-2.92049,-7.69236 2.03666,-5.39043 4.50523,-6.73076c0.17632,-0.09573 -0.25926,-0.30722 -0.37215,-0.47308c-0.46306,-0.68042 -0.90313,-1.37621 -1.35469,-2.06433l-1.62291,-2.70486c-0.2625,-0.42073 -0.41417,-0.91776 -0.41417,-1.4502c0,-1.51521 1.22832,-2.74352 2.74352,-2.74352c0.38218,0 0.74612,0.07814 1.07669,0.21933l2.68575,1.07429l-0.01716,0.04289c0.07257,0.01475 0.14502,0.03027 0.21735,0.04662c1.03657,0.23437 1.80216,1.20709 2.79584,1.55222l1.50875,-1.88594c0.50231,-0.63903 1.2823,-1.04946 2.15817,-1.04946c1.51521,0 2.74352,1.22832 2.74352,2.74352c0,0.38218 -0.07814,0.74612 -0.21933,1.07669l-0.44679,1.11697c0.74227,-0.34332 1.4948,-0.66743 2.23061,-1.02285l0.63033,0.20297v-0.27636h2.74352c1.51521,0 2.74352,1.22832 2.74352,2.74352c0,1.01687 -0.55322,1.90454 -1.37511,2.37842l-2.70041,1.62025l-0.10267,-0.17113c-0.8485,0.84248 -1.73443,1.6441 -2.67107,2.38381z" fill="#fffc00"/><path d="M248.09603,144.8017c3.0225,0.27793 5.90168,-0.01086 8.73544,0.54334c0.13596,-0.27811 0.33689,-0.56232 0.62111,-0.84655c1.93997,-1.93997 3.87992,0 3.87992,0l0.93309,1.1322c5.87209,2.99943 8.50424,6.40102 9.74717,12.87927c-0.96471,5.173 -0.11375,10.07263 -1.78691,15.13391c-0.7705,2.33077 -1.72098,6.12164 -3.99453,7.55559c-1.15897,0.73098 -2.72507,0.34482 -4.09526,0.35611c-1.32696,0.01093 -2.82365,0.378 -3.97046,-0.28964c-2.59623,-1.51146 -3.0548,-2.99234 -3.13606,-4.92521c-0.07239,0.45845 -0.22034,0.88781 -0.49834,1.2659c-2.42622,3.29986 -13.17032,2.81766 -15.51775,-0.54871c-2.583,-3.70421 1.18213,-7.00027 1.77262,-10.2875c0.46641,-2.59642 -0.17196,-5.84504 -0.56595,-8.38962c-0.33339,-2.15329 -0.07268,-4.46113 -0.90845,-6.47341c-0.76297,-1.83695 -1.93381,-3.5373 -2.36276,-5.4796c0,0 -0.53805,-2.69025 2.15219,-3.2283c1.1129,-0.22258 1.85749,0.1073 2.34805,0.57064c2.21744,0.33373 4.41413,0.82622 6.64685,1.03154zM255.07165,171.05166c0.26946,-3.96122 1.19422,-7.64359 1.75807,-11.56251c0.10114,-0.70306 -1.99166,-0.45148 -2.11644,0.24777c-0.25005,1.40119 0.28964,2.83679 0.28964,4.26011c0,2.3236 0.11594,4.70886 0.06874,7.05462zM254.99789,172.86917c-0.01026,0.22216 -0.00849,0.44956 -0.00035,0.67988c-0.0025,-0.22779 -0.00233,-0.45439 0.00035,-0.67988z" fill="#00caff"/><path d="M253.09774,177.58513c1.22694,-2.45388 3.68082,-1.22694 3.68082,-1.22694c3.65301,1.82953 6.64633,3.23383 10.87445,2.50339c2.93489,-0.50704 4.09352,-3.27707 7.74524,-0.52506c1.44272,1.08726 2.37222,8.63699 1.11252,9.71794c-1.33253,1.14343 -3.49546,-0.3427 -5.23725,-0.56456c-5.68531,-0.7242 -11.95694,-0.24419 -17.28952,-2.28958l-0.54627,-0.42966c-0.66109,0.55329 -1.56826,1.10754 -2.76627,1.65533c-1.10778,0.50655 -2.40643,-0.39829 -3.62075,-0.49409c-4.66313,-0.36786 -9.22282,0.41032 -13.86682,-0.56762c-1.6152,-0.34013 -3.75156,0.00119 -4.78112,-1.28898c-4.08856,-5.12337 -0.49556,-7.3184 3.58444,-8.50595c2.95725,-0.86077 6.68905,0.48104 9.7468,0.49909c0.94304,-0.72028 2.19715,-0.51127 2.19715,-0.51127l3.50253,0.59227c1.74033,0.60938 3.80363,1.57491 5.32054,2.7522c0.00143,-0.39047 0.09993,-0.82931 0.34353,-1.31651z" fill="#005e75"/></g></g></svg>