<svg version="1.1" xmlns="http://www.w3.org/2000/svg" xmlns:xlink="http://www.w3.org/1999/xlink" width="328" height="205" viewBox="0,0,328,205"><defs><linearGradient x1="240.23712" y1="184.26308" x2="240.23712" y2="185.69761" gradientUnits="userSpaceOnUse" id="color-1"><stop offset="0" stop-color="#8c4911"/><stop offset="1" stop-color="#552b0a"/></linearGradient><linearGradient x1="233.74089" y1="179.85815" x2="232.27601" y2="179.85815" gradientUnits="userSpaceOnUse" id="color-2"><stop offset="0" stop-color="#965016"/><stop offset="1" stop-color="#714111"/></linearGradient><linearGradient x1="239.87826" y1="175.06154" x2="239.87826" y2="176.97943" gradientUnits="userSpaceOnUse" id="color-3"><stop offset="0" stop-color="#dc9a4f"/><stop offset="1" stop-color="#9c571c"/></linearGradient><linearGradient x1="246.01037" y1="180.51303" x2="247.47526" y2="180.51303" gradientUnits="userSpaceOnUse" id="color-4"><stop offset="0" stop-color="#965016"/><stop offset="1" stop-color="#733e10"/></linearGradient><linearGradient x1="226.65484" y1="184.19058" x2="226.65484" y2="185.59848" gradientUnits="userSpaceOnUse" id="color-5"><stop offset="0" stop-color="#8c4911"/><stop offset="1" stop-color="#552b0a"/></linearGradient><linearGradient x1="223.84043" y1="179.86739" x2="223.20579" y2="179.86739" gradientUnits="userSpaceOnUse" id="color-6"><stop offset="0" stop-color="#965016"/><stop offset="1" stop-color="#714111"/></linearGradient><linearGradient x1="226.49938" y1="175.15981" x2="226.49938" y2="177.0421" gradientUnits="userSpaceOnUse" id="color-7"><stop offset="0" stop-color="#dc9a4f"/><stop offset="1" stop-color="#9c571c"/></linearGradient><linearGradient x1="229.15601" y1="180.51012" x2="229.79065" y2="180.51012" gradientUnits="userSpaceOnUse" id="color-8"><stop offset="0" stop-color="#965016"/><stop offset="1" stop-color="#733e10"/></linearGradient><linearGradient x1="253.61674" y1="184.26205" x2="253.61674" y2="185.6962" gradientUnits="userSpaceOnUse" id="color-9"><stop offset="0" stop-color="#8c4911"/><stop offset="1" stop-color="#552b0a"/></linearGradient><linearGradient x1="250.7499" y1="179.85828" x2="250.10342" y2="179.85828" gradientUnits="userSpaceOnUse" id="color-10"><stop offset="0" stop-color="#965016"/><stop offset="1" stop-color="#714111"/></linearGradient><linearGradient x1="253.4584" y1="175.06293" x2="253.4584" y2="176.98031" gradientUnits="userSpaceOnUse" id="color-11"><stop offset="0" stop-color="#dc9a4f"/><stop offset="1" stop-color="#9c571c"/></linearGradient><linearGradient x1="256.16453" y1="180.51299" x2="256.81102" y2="180.51299" gradientUnits="userSpaceOnUse" id="color-12"><stop offset="0" stop-color="#965016"/><stop offset="1" stop-color="#733e10"/></linearGradient><linearGradient x1="231.29472" y1="195.5766" x2="231.29472" y2="197.01139" gradientUnits="userSpaceOnUse" id="color-13"><stop offset="0" stop-color="#8c4911"/><stop offset="1" stop-color="#5a2f11"/></linearGradient><linearGradient x1="224.7685" y1="192.8411" x2="223.29688" y2="192.8411" gradientUnits="userSpaceOnUse" id="color-14"><stop offset="0" stop-color="#965016"/><stop offset="1" stop-color="#714111"/></linearGradient><linearGradient x1="230.9342" y1="188.04356" x2="230.9342" y2="189.96181" gradientUnits="userSpaceOnUse" id="color-15"><stop offset="0" stop-color="#d78a4d"/><stop offset="1" stop-color="#9c571c"/></linearGradient><linearGradient x1="237.09455" y1="193.49611" x2="238.5662" y2="193.49611" gradientUnits="userSpaceOnUse" id="color-16"><stop offset="0" stop-color="#965016"/><stop offset="1" stop-color="#733e10"/></linearGradient><linearGradient x1="248.71315" y1="195.57561" x2="248.71315" y2="197.00994" gradientUnits="userSpaceOnUse" id="color-17"><stop offset="0" stop-color="#8c4911"/><stop offset="1" stop-color="#582e10"/></linearGradient><linearGradient x1="255.17982" y1="192.84099" x2="256.6402" y2="192.84099" gradientUnits="userSpaceOnUse" id="color-18"><stop offset="0" stop-color="#965016"/><stop offset="1" stop-color="#80460d"/></linearGradient><linearGradient x1="249.06131" y1="188.045" x2="249.06131" y2="189.96264" gradientUnits="userSpaceOnUse" id="color-19"><stop offset="0" stop-color="#d78a4d"/><stop offset="1" stop-color="#9c571c"/></linearGradient><linearGradient x1="242.94805" y1="193.49579" x2="241.48767" y2="193.49579" gradientUnits="userSpaceOnUse" id="color-20"><stop offset="0" stop-color="#965016"/><stop offset="1" stop-color="#65360e"/></linearGradient><linearGradient x1="231.2945" y1="171.13266" x2="231.2945" y2="172.66295" gradientUnits="userSpaceOnUse" id="color-21"><stop offset="0" stop-color="#8c4911"/><stop offset="1" stop-color="#5a2f11"/></linearGradient><linearGradient x1="224.76808" y1="168.21511" x2="223.29639" y2="168.21511" gradientUnits="userSpaceOnUse" id="color-22"><stop offset="0" stop-color="#965016"/><stop offset="1" stop-color="#714111"/></linearGradient><linearGradient x1="230.93395" y1="163.09829" x2="230.93395" y2="165.14421" gradientUnits="userSpaceOnUse" id="color-23"><stop offset="0" stop-color="#ffb35c"/><stop offset="1" stop-color="#9c571c"/></linearGradient><linearGradient x1="237.09447" y1="168.91372" x2="238.5662" y2="168.91372" gradientUnits="userSpaceOnUse" id="color-24"><stop offset="0" stop-color="#965016"/><stop offset="1" stop-color="#733e10"/></linearGradient><linearGradient x1="248.65736" y1="171.11979" x2="248.65736" y2="172.65007" gradientUnits="userSpaceOnUse" id="color-25"><stop offset="0" stop-color="#8c4911"/><stop offset="1" stop-color="#5a2f11"/></linearGradient><linearGradient x1="255.18375" y1="168.20224" x2="256.65542" y2="168.20224" gradientUnits="userSpaceOnUse" id="color-26"><stop offset="0" stop-color="#965016"/><stop offset="1" stop-color="#854c14"/></linearGradient><linearGradient x1="249.01788" y1="163.08543" x2="249.01788" y2="165.13135" gradientUnits="userSpaceOnUse" id="color-27"><stop offset="0" stop-color="#ffb35c"/><stop offset="1" stop-color="#9c571c"/></linearGradient><linearGradient x1="242.85734" y1="168.90085" x2="241.38566" y2="168.90085" gradientUnits="userSpaceOnUse" id="color-28"><stop offset="0" stop-color="#965016"/><stop offset="1" stop-color="#6f3c10"/></linearGradient><radialGradient cx="243.92492" cy="170.93765" r="10.32909" gradientUnits="userSpaceOnUse" id="color-29"><stop offset="0" stop-color="#f4d815"/><stop offset="1" stop-color="#f1cc09"/></radialGradient><linearGradient x1="240" y1="169.67091" x2="240" y2="190.32908" gradientUnits="userSpaceOnUse" id="color-30"><stop offset="0" stop-color="#e1b219" stop-opacity="0"/><stop offset="1" stop-color="#e1b219"/></linearGradient><radialGradient cx="233.26387" cy="175.84604" r="9.49403" gradientUnits="userSpaceOnUse" id="color-31"><stop offset="0" stop-color="#fcc208"/><stop offset="1" stop-color="#f6d613"/></radialGradient><radialGradient cx="239.62032" cy="172.78695" r="7.52832" gradientUnits="userSpaceOnUse" id="color-32"><stop offset="0" stop-color="#d29505"/><stop offset="1" stop-color="#feda10"/></radialGradient><linearGradient x1="240.00007" y1="173.79762" x2="240.00007" y2="186.20359" gradientUnits="userSpaceOnUse" id="color-33"><stop offset="0" stop-color="#f5cb13"/><stop offset="1" stop-color="#fbca07"/></linearGradient><radialGradient cx="237.11044" cy="180.1382" r="4.66534" gradientUnits="userSpaceOnUse" id="color-34"><stop offset="0" stop-color="#fbfc77"/><stop offset="1" stop-color="#fbfc77" stop-opacity="0"/></radialGradient><linearGradient x1="240.04786" y1="180.07699" x2="241.11404" y2="180.07699" gradientUnits="userSpaceOnUse" id="color-35"><stop offset="0" stop-color="#f9db1f"/><stop offset="1" stop-color="#f8dc1b"/></linearGradient><linearGradient x1="239.01746" y1="180.0792" x2="240.05675" y2="180.0792" gradientUnits="userSpaceOnUse" id="color-36"><stop offset="0" stop-color="#f3c717"/><stop offset="1" stop-color="#efc913"/></linearGradient><linearGradient x1="240.04811" y1="175.90057" x2="240.04811" y2="178.78749" gradientUnits="userSpaceOnUse" id="color-37"><stop offset="0" stop-color="#d5a202"/><stop offset="1" stop-color="#d5a202" stop-opacity="0"/></linearGradient><linearGradient x1="238.72129" y1="175.92204" x2="238.72129" y2="184.23635" gradientUnits="userSpaceOnUse" id="color-38"><stop offset="0" stop-color="#f6cb12"/><stop offset="1" stop-color="#facb0c"/></linearGradient><radialGradient cx="242.52605" cy="182.18923" r="3.36807" gradientUnits="userSpaceOnUse" id="color-39"><stop offset="0" stop-color="#e2b902"/><stop offset="1" stop-color="#e2b902" stop-opacity="0"/></radialGradient><radialGradient cx="243.92492" cy="170.93765" r="10.32909" gradientUnits="userSpaceOnUse" id="color-40"><stop offset="0" stop-color="#f4d815"/><stop offset="1" stop-color="#f1cc09"/></radialGradient><linearGradient x1="240" y1="169.67091" x2="240" y2="190.32909" gradientUnits="userSpaceOnUse" id="color-41"><stop offset="0" stop-color="#e1b219" stop-opacity="0"/><stop offset="1" stop-color="#e1b219"/></linearGradient><radialGradient cx="233.26387" cy="175.84604" r="9.49402" gradientUnits="userSpaceOnUse" id="color-42"><stop offset="0" stop-color="#fcc208"/><stop offset="1" stop-color="#f6d613"/></radialGradient><radialGradient cx="239.62032" cy="172.78696" r="7.52832" gradientUnits="userSpaceOnUse" id="color-43"><stop offset="0" stop-color="#d29505"/><stop offset="1" stop-color="#feda10"/></radialGradient><linearGradient x1="240.00007" y1="173.79762" x2="240.00007" y2="186.20359" gradientUnits="userSpaceOnUse" id="color-44"><stop offset="0" stop-color="#f5cb13"/><stop offset="1" stop-color="#fbca07"/></linearGradient><radialGradient cx="237.11044" cy="180.1382" r="4.66534" gradientUnits="userSpaceOnUse" id="color-45"><stop offset="0" stop-color="#fbfc77"/><stop offset="1" stop-color="#fbfc77" stop-opacity="0"/></radialGradient><linearGradient x1="240.04786" y1="180.077" x2="241.11404" y2="180.077" gradientUnits="userSpaceOnUse" id="color-46"><stop offset="0" stop-color="#f9db1f"/><stop offset="1" stop-color="#f8dc1b"/></linearGradient><linearGradient x1="239.01746" y1="180.0792" x2="240.05675" y2="180.0792" gradientUnits="userSpaceOnUse" id="color-47"><stop offset="0" stop-color="#f3c717"/><stop offset="1" stop-color="#efc913"/></linearGradient><linearGradient x1="240.04811" y1="175.90057" x2="240.04811" y2="178.78749" gradientUnits="userSpaceOnUse" id="color-48"><stop offset="0" stop-color="#d5a202"/><stop offset="1" stop-color="#d5a202" stop-opacity="0"/></linearGradient><linearGradient x1="238.72129" y1="175.92204" x2="238.72129" y2="184.23636" gradientUnits="userSpaceOnUse" id="color-49"><stop offset="0" stop-color="#f6cb12"/><stop offset="1" stop-color="#facb0c"/></linearGradient><radialGradient cx="242.52605" cy="182.18923" r="3.36807" gradientUnits="userSpaceOnUse" id="color-50"><stop offset="0" stop-color="#e2b902"/><stop offset="1" stop-color="#e2b902" stop-opacity="0"/></radialGradient></defs><g transform="translate(-76,-77.5)"><g data-paper-data="{&quot;isPaintingLayer&quot;:true}" fill-rule="nonzero" stroke-linecap="butt" stroke-linejoin="miter" stroke-miterlimit="10" stroke-dasharray="" stroke-dashoffset="0" style="mix-blend-mode: normal"><path d="M76,282.5v-205h328v205z" fill="none" stroke="none" stroke-width="0"/><g stroke="none" stroke-width="0"><path d="M222.99503,195.47251l0.11111,-30.33421l1.49059,-2.24742h30.76725l1.64099,2.53405v30.00372l-1.50528,1.68047h-31.19159z" data-paper-data="{&quot;origPos&quot;:null}" fill="#502800"/><g data-paper-data="{&quot;origPos&quot;:null}"><path d="M232.29313,184.26308h15.15281v1.43452h-15.14728z" data-paper-data="{&quot;origPos&quot;:null}" fill="url(#color-1)"/><path d="M232.27601,185.67011v-10.6547l1.46489,1.96467v7.33098z" data-paper-data="{&quot;origPos&quot;:null,&quot;index&quot;:null}" fill="url(#color-2)"/><path d="M233.70262,184.26428v-7.43299h12.33736v7.43299z" data-paper-data="{&quot;origPos&quot;:null}" fill="#965016"/><path d="M233.70572,176.97943l-1.42855,-1.91789h15.20218l-1.46911,1.91789z" data-paper-data="{&quot;origPos&quot;:null}" fill="url(#color-3)"/><path d="M246.01037,184.28829v-7.3082l1.46489,-1.96467v10.68089z" data-paper-data="{&quot;origPos&quot;:null}" fill="url(#color-4)"/></g><g data-paper-data="{&quot;origPos&quot;:null}"><path d="M223.21322,184.19058h6.56474v1.40789h-6.56234z" data-paper-data="{&quot;origPos&quot;:null}" fill="url(#color-5)"/><path d="M223.20579,185.57149v-10.45695l1.49623,1.92821l-0.05068,7.19492z" data-paper-data="{&quot;origPos&quot;:null,&quot;index&quot;:null}" fill="url(#color-6)"/><path d="M224.63475,184.19175v-7.29504h3.77386v7.29504z" data-paper-data="{&quot;origPos&quot;:null}" fill="#965016"/><path d="M224.63609,177.0421l-1.4298,-1.88229h6.58613l-0.63647,1.88229z" data-paper-data="{&quot;origPos&quot;:null}" fill="url(#color-7)"/><path d="M228.39579,184.21532v-7.17257l1.39487,-1.92821v10.48265z" data-paper-data="{&quot;origPos&quot;:null}" fill="url(#color-8)"/></g><g data-paper-data="{&quot;origPos&quot;:null}"><path d="M250.11098,184.26205h6.68713v1.43414h-6.68469z" data-paper-data="{&quot;origPos&quot;:null}" fill="url(#color-9)"/><path d="M250.10342,185.66872v-10.65189l1.52412,1.96415l-0.05163,7.32905z" data-paper-data="{&quot;origPos&quot;:null,&quot;index&quot;:null}" fill="url(#color-10)"/><path d="M251.55902,184.26325v-7.43104h3.84422v7.43104z" data-paper-data="{&quot;origPos&quot;:null}" fill="#965016"/><path d="M251.56039,176.98031l-1.45645,-1.91738h6.70891l-0.64834,1.91738z" data-paper-data="{&quot;origPos&quot;:null}" fill="url(#color-11)"/><path d="M255.39013,184.28726v-7.30629l1.42087,-1.96415v10.67808z" data-paper-data="{&quot;origPos&quot;:null}" fill="url(#color-12)"/></g><g data-paper-data="{&quot;origPos&quot;:null}"><path d="M224.05266,196.58641v-1.00981h14.48406v1.43479h-14.09663z" data-paper-data="{&quot;origPos&quot;:null}" fill="url(#color-13)"/><path d="M223.29688,195.71971v-7.72228l1.47164,1.96505v5.75723l-0.72122,0.86462z" data-paper-data="{&quot;origPos&quot;:null,&quot;index&quot;:null}" fill="url(#color-14)"/><path d="M224.73005,195.7088v-5.89514h12.39423v5.89514z" data-paper-data="{&quot;origPos&quot;:null}" fill="#965016"/><path d="M224.73317,189.96181l-1.43512,-1.91826h15.27225l-1.4759,1.91826z" data-paper-data="{&quot;origPos&quot;:null}" fill="url(#color-15)"/><path d="M237.09455,195.71971v-5.75723l1.47164,-1.96505v9.03231z" data-paper-data="{&quot;origPos&quot;:null}" fill="url(#color-16)"/></g><g data-paper-data="{&quot;origPos&quot;:null}"><path d="M255.48328,197.00994h-13.94487v-1.43433h14.34948v1.00949z" data-paper-data="{&quot;origPos&quot;:null,&quot;index&quot;:null}" fill="url(#color-17)"/><path d="M255.89554,196.58302l-0.7157,-0.86434v-5.75538l1.46037,-1.96442v7.71979z" data-paper-data="{&quot;origPos&quot;:null,&quot;index&quot;:null}" fill="url(#color-18)"/><path d="M242.91853,195.70777v-5.89324h12.29945v5.89324z" data-paper-data="{&quot;origPos&quot;:null,&quot;index&quot;:null}" fill="#965016"/><path d="M242.9482,189.96264l-1.46461,-1.91764h15.15546l-1.42415,1.91764z" data-paper-data="{&quot;origPos&quot;:null,&quot;index&quot;:null}" fill="url(#color-19)"/><path d="M241.48767,197.02828v-9.0294l1.46039,1.96442v5.75538z" data-paper-data="{&quot;origPos&quot;:null,&quot;index&quot;:null}" fill="url(#color-20)"/></g><g data-paper-data="{&quot;origPos&quot;:null}"><path d="M224.05224,171.13267h14.48451v1.53028h-15.25115z" data-paper-data="{&quot;origPos&quot;:null}" fill="url(#color-21)"/><path d="M223.29639,172.63886v-7.6408l1.14044,-1.89521c0,0 2.61128,1.42179 2.6853,1.84984c0.05523,0.31933 -2.35407,0.0652 -2.35407,0.0652v6.2674z" data-paper-data="{&quot;origPos&quot;:null,&quot;index&quot;:null}" fill="url(#color-22)"/><path d="M225.34392,165.14421l-0.89415,-2.04593h14.12054l-1.47595,2.04593z" data-paper-data="{&quot;origPos&quot;:null}" fill="url(#color-23)"/><path d="M224.72965,171.27367v-6.28746h12.39461v6.28746z" data-paper-data="{&quot;origPos&quot;:null}" fill="#965016"/><path d="M237.09447,171.28531v-6.14038l1.45069,-2.05217l0.02098,9.58976z" data-paper-data="{&quot;origPos&quot;:null}" fill="url(#color-24)"/></g><g data-paper-data="{&quot;origPos&quot;:null}"><path d="M256.66625,172.65007h-15.25115v-1.53028h14.48451z" data-paper-data="{&quot;origPos&quot;:null}" fill="url(#color-25)"/><path d="M255.18375,171.27244v-6.2674c0,0 -2.86845,0.04346 -2.81371,-0.27299c0.07454,-0.43093 3.14496,-1.64206 3.14496,-1.64206l1.14044,1.8952v7.64081z" data-paper-data="{&quot;origPos&quot;:null,&quot;index&quot;:null}" fill="url(#color-26)"/><path d="M242.85747,165.13135l-1.47594,-2.04592h14.12054l-0.79229,2.04592z" data-paper-data="{&quot;origPos&quot;:null}" fill="url(#color-27)"/><path d="M242.82759,171.26078v-6.28746h12.39461v6.28746z" data-paper-data="{&quot;origPos&quot;:null}" fill="#965016"/><path d="M241.38566,172.66966l0.02097,-9.58976l1.45069,2.05217v6.14039z" data-paper-data="{&quot;origPos&quot;:null}" fill="url(#color-28)"/></g></g><g><g stroke="#000000" stroke-width="3.5"><path d="M249.16525,179.99999c0,5.7046 -4.10342,10.3291 -9.16525,10.3291c-5.06183,0 -9.16525,-4.62449 -9.16525,-10.32909c0,-5.7046 4.10342,-10.32909 9.16525,-10.32909c5.06183,0 9.16525,4.62449 9.16525,10.3291z" fill="url(#color-29)"/><path d="M249.16525,179.99999c0,5.7046 -4.10342,10.3291 -9.16525,10.3291c-5.06183,0 -9.16525,-4.62449 -9.16525,-10.32909c0,-5.7046 4.10342,-10.32909 9.16525,-10.32909c5.06183,0 9.16525,4.62449 9.16525,10.3291z" fill="url(#color-30)"/><path d="M248.42428,179.99999c0,5.24341 -3.77167,9.49403 -8.42428,9.49403c-4.6526,0 -8.42428,-4.25062 -8.42428,-9.49403c0,-5.24341 3.77167,-9.49403 8.42428,-9.49403c4.6526,0 8.42428,4.25062 8.42428,9.49403z" fill="url(#color-31)"/><path d="M246.69122,179.99999c0,4.15777 -2.99076,7.52832 -6.68005,7.52832c-3.68929,0 -6.68005,-3.37054 -6.68005,-7.52832c0,-4.15777 2.99075,-7.52831 6.68005,-7.52831c3.68929,0 6.68005,3.37054 6.68005,7.52831z" fill="url(#color-32)"/><g><g><path d="M245.50413,180.0006c0,3.42582 -2.46425,6.20299 -5.50406,6.20299c-3.0398,0 -5.50405,-2.77717 -5.50405,-6.20299c0,-3.42582 2.46425,-6.20298 5.50405,-6.20298c3.03981,0 5.50406,2.77717 5.50406,6.20298z" fill="url(#color-33)"/><path d="M232.4451,180.1382c0,-3.99228 2.08874,-7.22866 4.66534,-7.22866c2.5766,0 4.66534,3.23638 4.66534,7.22866c0,3.99228 -2.08875,7.22866 -4.66534,7.22866c-2.5766,0 -4.66534,-3.23637 -4.66534,-7.22866z" fill="url(#color-34)"/></g><path d="M240.04786,184.3417v-8.52941h1.06617v8.52941z" fill="url(#color-35)"/></g><path d="M239.01746,184.23635v-8.31432h1.03929v8.31432z" fill="url(#color-36)"/><path d="M239.00883,178.78749v-2.88691h2.07858v2.88691z" fill="url(#color-37)"/><path d="M238.4301,184.23635v-8.31432h0.58238v8.31432z" fill="url(#color-38)"/><path d="M239.15798,182.18923c0,-1.86013 1.50793,-3.36807 3.36807,-3.36807c1.86013,0 3.36807,1.50793 3.36807,3.36807c0,1.86013 -1.50793,3.36807 -3.36807,3.36807c-1.86013,0 -3.36807,-1.50793 -3.36807,-3.36807z" fill="url(#color-39)"/></g><g stroke="none" stroke-width="0"><path d="M249.16525,179.99999c0,5.7046 -4.10342,10.32909 -9.16525,10.32909c-5.06183,0 -9.16525,-4.62449 -9.16525,-10.32909c0,-5.7046 4.10342,-10.32909 9.16525,-10.32909c5.06183,0 9.16525,4.62449 9.16525,10.32909z" fill="url(#color-40)"/><path d="M249.16525,179.99999c0,5.7046 -4.10342,10.32909 -9.16525,10.32909c-5.06183,0 -9.16525,-4.62449 -9.16525,-10.32909c0,-5.7046 4.10342,-10.32909 9.16525,-10.32909c5.06183,0 9.16525,4.62449 9.16525,10.32909z" fill="url(#color-41)"/><path d="M248.42428,179.99999c0,5.24341 -3.77168,9.49402 -8.42428,9.49402c-4.65259,0 -8.42428,-4.25061 -8.42428,-9.49402c0,-5.24341 3.77168,-9.49402 8.42428,-9.49402c4.6526,0 8.42428,4.25061 8.42428,9.49402z" fill="url(#color-42)"/><path d="M246.69122,179.99999c0,4.15778 -2.99076,7.52832 -6.68005,7.52832c-3.68929,0 -6.68005,-3.37054 -6.68005,-7.52832c0,-4.15778 2.99076,-7.52832 6.68005,-7.52832c3.68929,0 6.68005,3.37054 6.68005,7.52832z" fill="url(#color-43)"/><g><g><path d="M245.50413,180.0006c0,3.42582 -2.46425,6.20298 -5.50405,6.20298c-3.0398,0 -5.50405,-2.77717 -5.50405,-6.20298c0,-3.42582 2.46425,-6.20298 5.50405,-6.20298c3.0398,0 5.50405,2.77717 5.50405,6.20298z" fill="url(#color-44)"/><path d="M232.4451,180.1382c0,-3.99228 2.08874,-7.22866 4.66534,-7.22866c2.5766,0 4.66534,3.23638 4.66534,7.22866c0,3.99228 -2.08874,7.22866 -4.66534,7.22866c-2.5766,0 -4.66534,-3.23638 -4.66534,-7.22866z" fill="url(#color-45)"/></g><path d="M240.04786,184.3417v-8.52941h1.06618v8.52941z" fill="url(#color-46)"/></g><path d="M239.01746,184.23636v-8.31432h1.03929v8.31432z" fill="url(#color-47)"/><path d="M239.00883,178.78749v-2.88691h2.07858v2.88691z" fill="url(#color-48)"/><path d="M238.4301,184.23636v-8.31432h0.58238v8.31432z" fill="url(#color-49)"/><path d="M239.15798,182.18923c0,-1.86013 1.50794,-3.36807 3.36807,-3.36807c1.86013,0 3.36807,1.50794 3.36807,3.36807c0,1.86013 -1.50794,3.36807 -3.36807,3.36807c-1.86013,0 -3.36807,-1.50794 -3.36807,-3.36807z" fill="url(#color-50)"/></g></g></g></g></svg>