<svg version="1.1" xmlns="http://www.w3.org/2000/svg" xmlns:xlink="http://www.w3.org/1999/xlink" width="328" height="205" viewBox="0,0,328,205"><defs><linearGradient x1="239.76421" y1="163.06017" x2="239.76421" y2="167.67341" gradientUnits="userSpaceOnUse" id="color-1"><stop offset="0" stop-color="#f7e555"/><stop offset="1" stop-color="#fac800"/></linearGradient><linearGradient x1="239.76421" y1="196.93981" x2="239.76421" y2="192.32659" gradientUnits="userSpaceOnUse" id="color-2"><stop offset="0" stop-color="#715304"/><stop offset="1" stop-color="#f8b50a"/></linearGradient><linearGradient x1="222.99226" y1="180.15733" x2="227.65104" y2="180.16499" gradientUnits="userSpaceOnUse" id="color-3"><stop offset="0" stop-color="#c89c2b"/><stop offset="1" stop-color="#f5c42e"/></linearGradient><linearGradient x1="257.00775" y1="180.16342" x2="252.34892" y2="180.15581" gradientUnits="userSpaceOnUse" id="color-4"><stop offset="0" stop-color="#b28209"/><stop offset="1" stop-color="#ffba0a"/></linearGradient><linearGradient x1="241.15" y1="185.41905" x2="250.65" y2="185.41905" gradientUnits="userSpaceOnUse" id="color-5"><stop offset="0" stop-color="#006ae2"/><stop offset="1" stop-color="#4c94e0"/></linearGradient><linearGradient x1="240.55" y1="189.93333" x2="251.25" y2="189.93333" gradientUnits="userSpaceOnUse" id="color-6"><stop offset="0" stop-color="#b5b5b5"/><stop offset="1" stop-color="#dddddd"/></linearGradient><linearGradient x1="241.15" y1="181.06905" x2="250.65" y2="181.06905" gradientUnits="userSpaceOnUse" id="color-7"><stop offset="0" stop-color="#006ae2"/><stop offset="1" stop-color="#4c94e0"/></linearGradient><linearGradient x1="241.15" y1="185.41905" x2="250.65" y2="185.41905" gradientUnits="userSpaceOnUse" id="color-8"><stop offset="0" stop-color="#006ae2"/><stop offset="1" stop-color="#4c94e0"/></linearGradient><linearGradient x1="240.55" y1="189.93334" x2="251.25" y2="189.93334" gradientUnits="userSpaceOnUse" id="color-9"><stop offset="0" stop-color="#b5b5b5"/><stop offset="1" stop-color="#dddddd"/></linearGradient><linearGradient x1="241.15" y1="181.06905" x2="250.65" y2="181.06905" gradientUnits="userSpaceOnUse" id="color-10"><stop offset="0" stop-color="#006ae2"/><stop offset="1" stop-color="#4c94e0"/></linearGradient></defs><g transform="translate(-76,-77.5)"><g data-paper-data="{&quot;isPaintingLayer&quot;:true}" fill-rule="nonzero" stroke-linecap="butt" stroke-linejoin="miter" stroke-miterlimit="10" stroke-dasharray="" stroke-dashoffset="0" style="mix-blend-mode: normal"><path d="M76,282.5v-205h328v205z" fill="none" stroke="none" stroke-width="0"/><g stroke="none"><g data-paper-data="{&quot;origPos&quot;:null}"><path d="M227.32436,167.67341l-3.89449,-3.67755l0.69893,-0.93568h31.27082l1.00816,0.93865l-3.74721,3.67458z" data-paper-data="{&quot;origPos&quot;:null}" fill="url(#color-1)" stroke-width="0"/><path d="M252.66058,192.32659l3.73381,3.6436l-0.99476,0.96963h-31.27082l-0.70571,-0.76136l3.90126,-3.85187z" data-paper-data="{&quot;origPos&quot;:null,&quot;index&quot;:null}" fill="url(#color-2)" stroke-width="0"/><path d="M227.63044,192.52346l-3.98506,3.91549l-0.67902,-0.7485l0.05177,-31.06623l0.65288,-0.8943l4.00138,3.6231z" data-paper-data="{&quot;origPos&quot;:null,&quot;origRot&quot;:0}" fill="url(#color-3)" stroke-width="0"/><path d="M252.3703,167.38565l3.77202,-3.61783l0.89132,0.91321l-0.05178,30.67547l-0.81378,0.85511l-3.83973,-3.73771z" data-paper-data="{&quot;origPos&quot;:null,&quot;index&quot;:null,&quot;origRot&quot;:0}" fill="url(#color-4)" stroke-width="0"/><path d="M227.31042,192.59075v-25.20395h25.3621v25.20395z" data-paper-data="{&quot;origPos&quot;:null}" fill="#f8c01c" stroke-width="NaN"/><path d="M225.54916,167.11112c0,-0.89974 0.73659,-1.62912 1.64521,-1.62912c0.90863,0 1.64522,0.72938 1.64522,1.62912c0,0.89974 -0.7366,1.62912 -1.64522,1.62912c-0.90863,0 -1.64521,-0.72939 -1.64521,-1.62912z" data-paper-data="{&quot;origPos&quot;:null}" fill="#615929" stroke-width="0"/><path d="M225.49884,192.96022c0,-0.89974 0.73659,-1.62912 1.64522,-1.62912c0.90863,0 1.64522,0.72938 1.64522,1.62912c0,0.89974 -0.7366,1.62911 -1.64522,1.62911c-0.90863,0 -1.64522,-0.72937 -1.64522,-1.62911z" data-paper-data="{&quot;origPos&quot;:null}" fill="#615929" stroke-width="0"/><g data-paper-data="{&quot;origPos&quot;:null}" fill="#615929" stroke-width="0"><path d="M251.2267,167.14567c0,-0.89974 0.7366,-1.62912 1.64523,-1.62912c0.90863,0 1.64523,0.72938 1.64523,1.62912c0,0.89974 -0.73659,1.62913 -1.64523,1.62913c-0.90863,0 -1.64523,-0.72939 -1.64523,-1.62913z" data-paper-data="{&quot;origPos&quot;:null}"/><path d="M251.17638,192.99479c0,-0.89974 0.73659,-1.62912 1.64522,-1.62912c0.90863,0 1.64522,0.72938 1.64522,1.62912c0,0.89974 -0.7366,1.62912 -1.64522,1.62912c-0.90863,0 -1.64522,-0.72938 -1.64522,-1.62912z" data-paper-data="{&quot;origPos&quot;:null}"/></g></g><g data-paper-data="{&quot;origPos&quot;:null}" fill="#c49821" stroke-width="0"><g data-paper-data="{&quot;origPos&quot;:null}"><path d="M237.93138,193.06241v-3.53364h6.60845v3.53365z" data-paper-data="{&quot;origPos&quot;:null}"/><path d="M238.06355,186.25687c0,0 0,-2.93981 0,-5.15651c0,-1.15703 2.10296,-2.95779 3.19849,-2.95779c1.52678,0 3.27779,0 3.27779,0v8.11431z" data-paper-data="{&quot;origPos&quot;:null}"/><path d="M251.88841,173.95455v5.1565l-3.53792,2.9578h-3.62565v-8.11429z" data-paper-data="{&quot;origPos&quot;:null,&quot;index&quot;:null}"/><path d="M244.72487,176.2056v-8.11431h3.62565l3.53792,2.9578v5.15651z" data-paper-data="{&quot;origPos&quot;:null,&quot;index&quot;:null}"/><path d="M243.21811,182.04268v-3.87392h1.58603v3.87392z" data-paper-data="{&quot;origPos&quot;:null}"/><path d="M234.91793,172.4364v-4.31891h10.41492v4.31891z" data-paper-data="{&quot;origPos&quot;:null}"/><path d="M229.39325,178.09023c0,0 0,-3.81304 0,-6.53027c0,-1.41828 2.1888,-3.41628 3.32904,-3.41628c1.5891,0 3.41157,0 3.41157,0v9.94655z" data-paper-data="{&quot;origPos&quot;:null,&quot;index&quot;:null}"/></g><path d="M238.07955,186.24434l-0.98333,-1.09092l0.73351,-0.79663l1.35758,1.22568z" data-paper-data="{&quot;origRot&quot;:0,&quot;origPos&quot;:null}"/><path d="M237.94346,193.04944l-0.98334,-1.09092l0.73352,-0.79663l1.35758,1.22568z" data-paper-data="{&quot;origRot&quot;:0,&quot;origPos&quot;:null}"/><path d="M243.57931,188.46681l0.98335,1.09092l-0.73352,0.79662l-1.35759,-1.22568z" data-paper-data="{&quot;origRot&quot;:0,&quot;origPos&quot;:null,&quot;index&quot;:null}"/><path d="M229.38815,178.08421l-0.98333,-1.09092l0.73351,-0.79663l1.35758,1.22568z" data-paper-data="{&quot;origRot&quot;:0,&quot;origPos&quot;:null}"/></g><g data-paper-data="{&quot;origPos&quot;:null}" fill="#ffffff" stroke-width="0"><path d="M236.94908,191.97744v-3.53365h6.60845v3.53365z" data-paper-data="{&quot;origPos&quot;:null}"/><path d="M237.08126,185.17189v-5.1565l3.19849,-2.9578h3.27779v8.1143z" data-paper-data="{&quot;origPos&quot;:null}"/><path d="M250.90614,172.86957v5.1565l-3.53792,2.95779h-3.62564v-8.11429z" data-paper-data="{&quot;origPos&quot;:null,&quot;index&quot;:null}"/><path d="M243.74255,175.12064v-8.11429h3.62564l3.53792,2.95779v5.15651z" data-paper-data="{&quot;origPos&quot;:null,&quot;index&quot;:null}"/><path d="M242.23583,180.99138v-3.90761h1.58603v3.90761z" data-paper-data="{&quot;origPos&quot;:null}"/><path d="M233.9356,171.35142v-4.31891h10.41492v4.31891z" data-paper-data="{&quot;origPos&quot;:null}"/><path d="M228.41098,177.00522v-6.53028l3.32903,-3.41627h3.41157v9.94655z" data-paper-data="{&quot;origPos&quot;:null,&quot;index&quot;:null}"/></g></g><g><g stroke="#000000"><path d="M241.15,189.36905v-7.9h9.5v7.9z" fill="url(#color-5)" stroke-width="3"/><path d="M240.55,191.28333v-2.7h10.7v2.7z" fill="url(#color-6)" stroke-width="3"/><path d="M250.65,181.06905c0,2.20914 -2.12664,4 -4.75,4c-2.62336,0 -4.75,-1.79086 -4.75,-4c0,-2.20914 2.12664,-4 4.75,-4c2.62336,0 4.75,1.79086 4.75,4z" fill="url(#color-7)" stroke-width="3"/><text transform="translate(243.23571,185.46548) scale(0.22141,0.192)" font-size="40" xml:space="preserve" fill="#ffffff" fill-rule="nonzero" stroke="#000000" stroke-width="6" stroke-linecap="butt" stroke-linejoin="miter" stroke-miterlimit="10" stroke-dasharray="" stroke-dashoffset="0" font-family="Sans Serif" font-weight="normal" text-anchor="start" style="mix-blend-mode: normal"><tspan x="0" dy="0">P</tspan></text></g><g><path d="M241.15,189.36905v-7.9h9.5v7.9z" fill="url(#color-8)" stroke="none" stroke-width="0"/><path d="M240.55,191.28334v-2.7h10.7v2.7z" fill="url(#color-9)" stroke="none" stroke-width="NaN"/><path d="M250.65,181.06905c0,2.20914 -2.12665,4 -4.75,4c-2.62335,0 -4.75,-1.79086 -4.75,-4c0,-2.20914 2.12665,-4 4.75,-4c2.62335,0 4.75,1.79086 4.75,4z" fill="url(#color-10)" stroke="none" stroke-width="0"/><text transform="translate(243.23571,185.46548) scale(0.22141,0.192)" font-size="40" xml:space="preserve" fill="#ffffff" fill-rule="nonzero" stroke="#ffffff" stroke-width="3" stroke-linecap="butt" stroke-linejoin="miter" stroke-miterlimit="10" stroke-dasharray="" stroke-dashoffset="0" font-family="Sans Serif" font-weight="normal" text-anchor="start" style="mix-blend-mode: normal"><tspan x="0" dy="0">P</tspan></text></g></g></g></g></svg>