<svg version="1.1" xmlns="http://www.w3.org/2000/svg" xmlns:xlink="http://www.w3.org/1999/xlink" width="142.55803" height="149.79814" viewBox="0,0,142.55803,149.79814"><g transform="translate(-158.23888,-74.47842)"><g data-paper-data="{&quot;isPaintingLayer&quot;:true}" fill-rule="nonzero" stroke="none" stroke-width="0.5" stroke-linecap="butt" stroke-linejoin="miter" stroke-miterlimit="10" stroke-dasharray="" stroke-dashoffset="0" style="mix-blend-mode: normal"><path d="M183.01556,87.0881c0.07023,-0.00813 0.14062,-0.0157 0.21118,-0.02274c-0.10491,-0.02123 -0.20974,-0.04231 -0.3144,-0.062c0.03433,0.02839 0.06873,0.05665 0.10322,0.08474zM162.19415,88.18171c-0.00291,-3.53575 1.0661,-6.76711 5.00441,-9.49828c1.53392,-1.06376 3.46267,-1.44681 5.28468,-1.85273c0.71513,-0.15932 1.49829,0.42904 2.18999,0.18747c1.13465,-0.39626 1.82903,-1.72929 3,-2c1.50037,-0.34686 10.97279,-0.26817 12.81115,-0.26817c7.33333,0 14.66667,0 22,0c11.75174,0 23.79847,-0.625 35.5155,0.0213c2.02451,0.11167 3.97846,0.84351 6,1c2.40886,0.18647 4.85329,-0.29389 7.24814,0.02553c5.25467,0.70085 10.33612,2.59993 15.62471,2.96525c2.12007,0.14645 4.26065,-0.17615 6.37529,0.03475c1.36758,0.13639 2.63789,0.81687 4,1c2.19425,0.29501 4.59098,-0.43816 6.62813,0.42893c2.04368,0.86987 3.65907,2.66326 4.9248,4.48843c2.53602,3.6569 1.93343,8.16973 1.93343,12.28582c0,8 0,16 0,24c0,16.40326 0.37293,32.74393 -1.06528,49.08386c-0.38292,4.35043 -0.28388,8.75914 -1.04035,13.06037c-0.62451,3.55087 -2.20735,6.87014 -3.08014,10.36827c-1.40593,5.63498 -2.88745,12.23786 -3.84464,18.10336c-0.36136,2.21431 0.38548,4.83324 -0.90302,6.66996c-1.57974,2.25188 -4.48425,3.21946 -6.9248,4.48843c-3.52874,1.83477 -5.51613,1.441 -9.39177,1.47575c-6.66531,0.05976 -13.33454,0 -20,0c-19,0 -38,0 -57,0c-6.85599,0 -12.92919,0.16339 -19.61586,-1.03042c-2.34026,-0.41782 -5.24238,0.40795 -7.03858,-1.14932c-2.22516,-1.92917 -2.99492,-5.18717 -3.59556,-8.07026c-0.28176,-1.35247 0.90935,-2.6303 1.0807,-4.00114c0.16537,-1.32293 -0.06533,-2.66572 -0.0807,-3.99886c-0.03923,-3.40234 0.47168,-7.02354 0.03042,-10.38414c-0.46285,-3.52499 -1.01116,-7.06066 -1.03042,-10.61586c0.03759,-1.27269 0.37924,-2.57303 0.11277,-3.81808c-0.37567,-1.75531 -1.63529,-3.24239 -2,-5c-0.14904,-0.71823 -0.11277,-9.36756 -0.11277,-10.18192c0,-8.04593 0.69356,-16.47074 0.0213,-24.4845c-0.36853,-4.39304 -1.64154,-8.67904 -2.00557,-13.07245c-0.27326,-3.29788 0.30518,-6.63196 0.00557,-9.92755c-0.68387,-7.52231 -2.31869,-15.39345 -4.70057,-22.53908c0,0 -1.90563,-5.71688 3.63904,-7.79471z" fill="#ff6f00"/><path d="M196.64554,195.83883c-6.4596,-6.4596 -3.47759,-12.9192 -1.40415,-15.92874c0.35773,-1.57543 0.55209,-3.19686 0.77443,-4.79621c-0.0538,-7.03775 -0.03145,-14.07595 -0.03145,-21.11389c0,-2.4374 0.56045,-5.61954 0.16141,-7.99772c-0.17443,-1.03956 -0.86513,-1.95457 -1,-3c-0.3271,-2.53541 0.56827,-7.29095 0,-10c-0.2164,-1.03164 -0.86513,-1.95457 -1,-3c-0.38386,-2.97534 0.41541,-6.0289 0,-9c-0.14596,-1.04394 -0.87842,-1.95294 -1,-3c-0.26928,-2.31913 -0.1076,-4.66819 -0.16141,-7.00228c0,0 0,-12.5 12.5,-12.5c12.5,0 12.5,12.5 12.5,12.5c-0.10854,2.01577 0.60576,3.99251 0.83859,5.99772c0.34602,2.97998 -0.49645,6.04136 0,9c0.17443,1.03956 0.8486,1.95684 1,3c0.46337,3.19269 -0.5246,6.87355 0,10c0.17443,1.03956 0.86513,1.95457 1,3c0.49415,3.83027 0.16141,8.10648 0.16141,12.00228c0,7.62879 0.00931,15.25742 -0.03145,22.88611c-0.63737,4.39565 -1.25521,8.83678 -2.61001,13.06673l-4.01971,5.88599c0,0 -8.83883,8.83883 -17.67767,0z" fill="#ffffff"/><path d="M254.48438,197.5c-12.5,0 -12.5,-12.5 -12.5,-12.5c0,-2 0,-6 0,-8c0,-5.66667 0,-11.33333 0,-17c0,-2.00878 0.58777,-5.96518 0.16141,-7.99772c-0.55336,-2.63796 -1.11309,-5.30734 -1.16141,-8.00228c-0.10824,-6.03682 0.88888,-12.8008 0.06083,-18.76828c-0.87746,-6.3236 -1.15546,-10.94908 0.31239,-17.26342c0,0 3.0317,-12.12678 15.15848,-9.09509c12.12678,3.0317 9.09509,15.15848 9.09509,15.15848c-0.80823,2.79973 -0.02028,5.84158 0.31239,8.73658c0.08479,0.73787 0.06083,8.91759 0.06083,9.23172c0,3.98488 -0.96354,9.17381 -0.16141,12.99772c0.2164,1.03164 0.8486,1.95684 1,3c1.35363,9.32671 0.16141,19.57358 0.16141,29.00228c0,2 0,4 0,6v2c0,0 0,12.5 -12.5,12.5z" fill="#ffffff"/></g></g></svg>