<svg version="1.1" xmlns="http://www.w3.org/2000/svg" xmlns:xlink="http://www.w3.org/1999/xlink" width="176.41265" height="203.15678" viewBox="0,0,176.41265,203.15678"><g transform="translate(-240.13035,-28.47318)"><g data-paper-data="{&quot;isPaintingLayer&quot;:true}" fill-rule="nonzero" stroke="none" stroke-linecap="butt" stroke-linejoin="miter" stroke-miterlimit="10" stroke-dasharray="" stroke-dashoffset="0" style="mix-blend-mode: normal"><path d="" fill="#00ff72" stroke-width="0.5"/><path d="M258.26111,28.52416c5.74636,0.21283 11.473,0.9909 17.22328,0.97585c11.66667,0 23.33333,0 35,0c5.84097,0 11.76635,-0.89781 17.52265,0.09309c11.63867,2.00348 22.9742,5.48442 34.45181,8.26597c10.10876,2.44981 23.12968,6.48261 28.90304,15.98221c1.12087,1.84431 1.20751,4.14852 1.96839,6.16814c0.91424,2.4267 2.35622,4.65791 3.05147,7.15617c3.85558,13.85449 5.09926,28.30801 7.38393,42.50634c0.42497,2.64101 1.46896,5.15259 1.95681,7.78271c1.57212,8.47572 3.29975,16.94325 4.21931,25.51436c0.99925,9.31386 -0.41663,18.01076 -2,27.06201c0.12102,8.43598 0.53047,17.00337 1.76613,25.35457c0.80271,5.42511 3.87594,10.70152 3.18281,16.14171c-0.53114,4.16879 -2.6982,8.24104 -5.56751,11.31154c-2.73979,2.9319 -6.85789,4.20459 -10.50201,5.88473c-7.37813,3.40172 -16.47127,2.97155 -24.33683,2.77644c-4.87588,-0.12095 -9.80914,0.2525 -14.6223,-0.53635c-2.91713,-0.4781 -5.18683,-3.15462 -8.11146,-3.58447c-2.16524,-0.31824 -5.13855,-0.20004 -7.26396,-0.04059c-2.63177,0.19745 -5.6339,2.22212 -7.87419,0.82702c-4.90977,-3.05749 -9.6257,-7.48555 -11.56726,-12.93389c-1.18641,-3.32927 2.25093,-6.70072 3.37639,-10.05108c1.38729,-3.64056 3.45917,-7.2331 3.60537,-11.21165c0.13427,-3.65389 -0.1761,-7.31507 -0.04259,-10.96899c0.05146,-1.40824 1.09133,-2.86591 0.59631,-4.18528c-0.67825,-1.80772 -2.77464,-2.73435 -3.80512,-4.36714c-2.75605,-4.36693 -4.36185,-9.54099 -7.82893,-13.36789c-4.44656,-4.90804 -9.6926,-9.08217 -13.89776,-14.19855c-1.28417,-1.56243 -1.34077,-3.84345 -2.36456,-5.58762c-2.37829,-4.05174 -5.92362,-7.78576 -10.3228,-9.49302c-2.79905,-1.08627 -6.87926,-0.23493 -9.72359,0.06066c-8.38054,0.87093 -16.74802,1.88123 -25.14315,2.59793c-5.7313,0.48929 -11.46066,1.0636 -17.19787,1.48559c-0.11512,-1.30178 0.18745,-2.63094 0.18745,-3.94468c0,-4.33334 0,-8.66666 0,-13c0,-3.90809 -1.05929,-9.22429 0.48684,-12.83772c0.48474,-1.72749 1.69935,-3.16127 2.49632,-4.76877c1.85797,-3.74755 4.15196,-8.68645 4.88772,-12.79169c1.59628,-8.90662 -1.16361,-18.45693 0.0542,-27.37999c0.72328,-5.29954 2.16807,-10.38396 2.9458,-15.62002c0.49853,-3.35632 0.12912,-7.1925 0.12912,-10.60182c-0.06442,-2.29579 0.00025,-4.43384 -0.34213,-6.46284c2.37426,-0.06098 4.74824,-0.1008 7.11886,-0.013z" fill="#00ff72" stroke-width="0.5"/><path d="" fill="#00ff72" stroke-width="0.5"/><path d="" fill="#00ff72" stroke-width="0.5"/><path d="" fill="#00ff72" stroke-width="0.5"/><text transform="translate(260.19078,80.59019) rotate(20.57318) scale(0.93337,0.93337)" font-size="40" xml:space="preserve" fill="#ffffff" fill-rule="nonzero" stroke="none" stroke-width="1" stroke-linecap="butt" stroke-linejoin="miter" stroke-miterlimit="10" stroke-dasharray="" stroke-dashoffset="0" font-family="Sans Serif" font-weight="normal" text-anchor="start" style="mix-blend-mode: normal"><tspan x="0" dy="0">Mini</tspan></text><text transform="translate(334.12106,104.19363) rotate(69.19659) scale(0.93832,0.93832)" font-size="40" xml:space="preserve" fill="#ffffff" fill-rule="nonzero" stroke="none" stroke-width="1" stroke-linecap="butt" stroke-linejoin="miter" stroke-miterlimit="10" stroke-dasharray="" stroke-dashoffset="0" font-family="Sans Serif" font-weight="normal" text-anchor="start" style="mix-blend-mode: normal"><tspan x="0" dy="0">Games</tspan></text></g></g></svg>