<svg version="1.1" xmlns="http://www.w3.org/2000/svg" xmlns:xlink="http://www.w3.org/1999/xlink" width="255.80081" height="114.42661" viewBox="0,0,255.80081,114.42661"><g transform="translate(-14.23437,-50.61607)"><g data-paper-data="{&quot;isPaintingLayer&quot;:true}" fill="#ff0000" fill-rule="nonzero" stroke="none" stroke-width="0.5" stroke-linecap="butt" stroke-linejoin="miter" stroke-miterlimit="10" stroke-dasharray="" stroke-dashoffset="0" style="mix-blend-mode: normal"><path d="M45.30832,93.51349c0.5068,-0.33244 1.17981,-0.55319 2.07357,-0.55319c3.61872,0 3.61872,3.61872 3.61872,3.61872l-3.61872,4.19772c-1.36486,0 -5.99879,0.00349 -6.23211,-0.02711c-1.6852,-0.22106 -3.30182,-0.80814 -4.95273,-1.21221c-6.43926,-1.19582 -13.31429,-2.87867 -18.4972,-7.26096c-2.66966,-2.25727 -2.8696,-5.85388 -2.88648,-9.01434c-0.01298,-2.42948 -0.11905,-4.91455 -0.14548,-7.38914c-0.2647,-0.48043 -0.43351,-1.0932 -0.43351,-1.8748c0,-0.82713 0.18906,-1.4652 0.48075,-1.95743c0.02552,-0.60811 0.06149,-1.21345 0.11058,-1.81502c0.09548,-1.17008 0.47931,-2.30425 0.579,-3.47397c0.27136,-3.1842 -0.64374,-6.48447 0.99485,-9.51499c0.71764,-1.32726 1.9604,-2.30809 3.09311,-3.30487c1.27852,-1.12508 2.52646,-2.40897 4.11056,-3.0343c1.27055,-0.50155 2.72717,-0.17383 4.0928,-0.20399c5.49406,-0.12134 9.03383,1.2391 12.98075,5.11287c1.7141,1.76769 2.71845,3.50517 4.19056,5.35638c1.06,1.33297 2.36852,2.54303 3.0343,4.11056c0.45865,1.07987 0.19568,2.3406 0.20399,3.51381c0.00795,1.12271 0.1788,2.29275 -0.15527,3.36463c-1.2588,4.03896 -4.92584,5.68145 -8.67375,6.57632c-2.15307,0.51408 -5.29888,0.12325 -7.52761,0.04673c-0.92944,-0.03191 -1.89254,0.10406 -2.78564,-0.15527c-0.66826,-0.19405 -1.06047,-0.99502 -1.73699,-1.15799c-0.78757,-0.18973 -1.61566,0.12876 -2.42533,0.15527c-0.93769,0.03071 -1.87578,0.03654 -2.81404,0.0326c0.03243,1.10934 0.06381,2.21252 0.06381,3.29662c0,1.76875 -0.29991,3.76982 0.26965,5.48398c0.45045,1.35568 2.85363,1.95605 3.54977,2.29534c1.9127,0.93223 3.77207,2.02311 5.80138,2.66296c1.9538,0.61604 4.03417,0.71614 6.05126,1.07421c2.82343,0.72286 5.00481,0.97725 7.58545,1.05085zM22.08892,70.37947c0.13205,0 0.26409,0 0.39614,0c1.55832,0 5.97225,-0.02649 6.83861,0.15527c0.68104,0.14288 1.09391,0.89212 1.73699,1.15799c0.74864,0.30951 1.61523,-0.15527 2.42533,-0.15527c0.579,0 1.15799,0 1.73699,0c1.36782,0 5.41504,0.52401 5.80048,-1.4829c0.08027,-0.41797 -0.16396,-0.84182 -0.15527,-1.26733c0.00774,-0.37879 0.37294,-0.77904 0.20399,-1.11816c-0.16648,-0.33418 -2.71181,-2.71704 -2.99491,-3.13489c-0.82294,-1.21465 -1.45519,-2.59874 -2.51814,-3.61005c-0.46839,-0.48117 -0.87512,-1.03125 -1.40517,-1.44351c-2.37025,-1.84353 -3.54733,-1.44069 -6.45793,-1.54956c-0.56939,-0.0213 -1.17047,-0.42139 -1.69716,-0.20399c-0.71421,0.29479 -1.1076,1.07801 -1.6794,1.59767c-0.50127,0.45556 -1.19266,0.7449 -1.53885,1.32709c-0.65017,1.0934 -0.11902,6.15619 -0.16314,6.69689c-0.08338,1.02177 -0.38664,2.01616 -0.52856,3.03075z"/><path d="M49.55312,101.211c0,-3.61872 3.61872,-3.61872 3.61872,-3.61872l0.90558,0.09681c1.45768,-0.82054 2.9966,-1.50018 4.55994,-2.09521c0.40731,-0.15502 0.93143,-0.10751 1.23959,-0.41567c0.30816,-0.30816 0.2552,-0.8344 0.41567,-1.23959c0.28035,-0.70788 0.69119,-1.36635 0.90571,-2.09687c0.54968,-1.87193 -0.68959,-4.28194 -0.48902,-6.37297c-1.60652,-1.60116 -3.12842,-3.14894 -4.99558,-4.4635c-2.97732,-2.09614 -5.12851,-2.77415 -6.55391,-6.44173c-0.72442,-1.86396 -0.06523,-4.2746 0.66875,-6.00314c2.51802,-5.92999 8.47707,-7.83176 13.81748,-10.50276c1.50262,-0.75153 2.91806,-1.85354 4.57901,-2.10633c0.39227,-0.0597 5.6881,-0.04673 6.36961,-0.04673c0,0 3.61872,0 3.61872,3.61872c0,3.61872 -3.61872,3.61872 -3.61872,3.61872c-1.73684,0 -3.47763,-0.16692 -5.2103,-0.04673c-0.7502,0.05204 -2.05409,1.21027 -2.36894,1.36764c-2.34263,1.17096 -4.58025,2.1834 -6.89128,3.44352c-2.40433,1.31098 -2.63283,1.19137 -3.60906,3.42359c-0.14211,0.32494 -0.70594,0.66406 -0.48924,0.94481c1.58563,2.05425 4.48925,3.08893 6.46492,4.77952c2.24235,1.91879 3.60927,3.80373 5.14543,6.3171c0.14634,3.11186 1.37415,6.77532 0.66897,9.83892c-0.29559,1.28415 -0.85247,2.49924 -1.41027,3.69308c-0.54866,1.17427 -0.98382,2.47588 -1.90031,3.39237c-2.10355,2.10355 -6.583,3.19569 -9.25436,4.43707l-2.5684,0.09681c0,0 -3.61872,0 -3.61872,-3.61872z"/><path d="M95.55718,102.1317c-0.80859,-0.4043 -1.31418,-0.9096 -1.61769,-1.4402c-3.50518,-0.67801 -7.15555,-1.53029 -10.00096,-3.58326c-1.08605,-0.78358 -1.7612,-2.02757 -2.5039,-3.14197c-0.83746,-1.25659 -1.8136,-2.49425 -2.22141,-3.94823c-0.16554,-0.59019 -0.1313,-6.87544 -0.1313,-7.91391c0,-3.87817 -0.28976,-7.23583 1.56113,-10.9238c1.81765,-3.62175 6.84611,-7.24042 10.25843,-9.09177c0.98709,-0.53555 2.19914,-0.52986 3.21359,-1.01156c0.35095,-0.16664 0.46374,-0.63444 0.76624,-0.87823c0.63437,-0.51126 1.34927,-0.91363 2.02391,-1.37044c0,0 3.01096,-2.00731 5.01827,1.00365c2.00731,3.01096 -1.00365,5.01827 -1.00365,5.01827c-1.06977,0.69756 -1.86625,1.79504 -2.99981,2.38329c-1.17033,0.60734 -2.57131,0.68323 -3.73435,1.30442c-1.83611,0.98068 -6.03977,3.80371 -7.11145,5.96212c-1.57694,3.17604 -0.6807,7.69976 -0.75485,11.07804c-0.01837,0.83695 -0.34027,1.69737 -0.1313,2.50802c0.18532,0.71893 0.84054,1.22412 1.25256,1.84173c0.3289,0.49301 0.47552,1.16341 0.97007,1.49c2.73951,1.80909 6.94832,2.14967 10.05353,2.77071l1.948,6.32479c0,0 -1.61834,3.23668 -4.85503,1.61834z"/><path d="M173.16872,120.89685c0,3.61872 -3.61872,3.61872 -3.61872,3.61872l-2.30233,-0.1857c-3.11495,-1.04377 -6.17636,-0.71511 -9.294,-1.74716c-5.82125,-1.92703 -10.95142,-7.76907 -12.22195,-13.73945c-0.06406,-0.30101 -0.1033,-0.65149 -0.12179,-1.0385c-0.31673,-0.08002 -0.63121,-0.16849 -0.9431,-0.26578c0,0 -3.43302,-1.14434 -2.28868,-4.57736c0.87279,-2.61837 3.07693,-2.57403 4.07387,-2.40554c0.234,-1.09849 0.46466,-1.97525 0.61627,-2.38806c0.65807,-1.79177 1.9304,-3.28651 2.97914,-4.88937c-1.29957,0.52846 -2.74155,0.76798 -4.11591,1.06092c-3.09551,0.6598 -4.81968,0.6498 -7.39295,0.64707c-0.22071,1.81717 -0.31301,3.65946 -0.80981,5.41617c-0.51152,1.80876 -1.21713,3.55739 -1.77741,5.35164c-0.42936,1.37498 -0.7112,2.79581 -1.1909,4.15406c-0.24378,0.69026 -0.85911,1.24611 -0.97174,1.96943c-0.06595,0.42354 0.3195,0.79552 0.47926,1.19328c0,0 0.87767,3.51068 -2.63301,4.38835c-3.51068,0.87767 -4.38835,-2.63301 -4.38835,-2.63301c-0.22625,-1.14623 -0.7854,-2.27522 -0.67874,-3.43868c0.12325,-1.3444 0.93546,-2.53387 1.34424,-3.82053c0.45619,-1.4359 0.92121,-2.86923 1.37795,-4.30509c-1.46367,1.55822 -3.73009,0.80275 -3.73009,0.80275l-2.49512,-0.93375c-0.90821,-0.83968 -3.31256,-2.91712 -3.75677,-4.00943c-0.96033,-2.36145 -0.09225,-5.07903 0.29592,-7.40809c-1.03688,0.48338 -2.22256,0.61899 -3.32161,0.95705l-2.88133,-0.7647c0,0 -2.93122,-0.97707 -2.47375,-3.83406c-1.73058,-0.80249 -3.39408,-1.71744 -4.4687,-3.19237c-3.17292,-4.35488 -0.40132,-10.39268 3.86833,-12.80176c2.24983,-1.26943 3.07894,-1.09296 5.37645,-1.11945c1.26694,-0.01461 4.41377,-0.04224 5.1815,0.42819c1.22037,0.74779 1.97222,2.10595 2.70122,3.33763c0.13346,0.22549 0.25015,0.45683 0.35205,0.69303c0.90763,-3.33691 2.39286,-6.09885 4.83929,-8.60991c0,0 2.55882,-2.55882 5.11765,0c2.55882,2.55882 0,5.11765 0,5.11765c-1.55827,1.48916 -2.59865,3.41545 -3.0398,5.54778c-0.14916,0.72095 0.11961,1.50601 -0.10854,2.20598c-0.26039,0.79887 -0.97672,1.3819 -1.31207,2.15231c-0.89563,2.05758 -0.85657,4.62473 -1.65242,6.73949c-0.2529,0.67203 -0.85738,1.19492 -1.03002,1.89189c-0.16549,0.66809 0.14493,1.38252 0.05008,2.06423c-0.08411,0.60449 -0.48655,1.13371 -0.579,1.73699c-0.0877,0.57231 0.10976,1.16078 0.04673,1.73633c-0.01623,0.14815 -0.31721,0.2091 -0.27546,0.35216c0.03491,0.11964 0.27199,-0.08825 0.37355,-0.01601c0.22057,0.15689 0.33443,0.4257 0.50164,0.63854l0.97885,0.22425c0,0 2.15118,0.71706 2.48022,2.7188c0.1373,-0.45682 0.27245,-0.9143 0.40489,-1.37258c0.8475,-2.9325 0.35565,-4.09065 1.15145,-7.50194c1.2409,-5.31927 4.06594,-10.12234 6.74312,-14.80843c1.05623,-1.84881 1.68252,-4.28005 3.54338,-5.31491c3.354,-1.86521 9.52396,0.3066 11.72625,3.19771c0.72475,0.95144 0.85011,2.23592 1.27517,3.35387c0.04713,3.50431 0.61517,7.97567 -0.82259,11.45565c1.0404,-0.32927 2.18234,-0.42215 3.26296,-0.58121c2.98521,-0.43941 9.10108,-0.00917 11.22368,1.84106c1.04662,0.91231 0.67484,2.69969 0.85757,4.07604c0.37001,2.78703 -0.77083,6.27569 -2.42005,8.48486c-1.98212,2.65509 -4.15214,3.40302 -7.13487,4.25348c-2.25108,0.64185 -4.64296,1.13173 -7.04913,1.3271c1.11484,3.21318 4.05125,6.34208 7.21179,7.40852c1.42047,0.4793 2.99273,0.2119 4.4787,0.41024c1.6089,0.21475 3.21726,0.80625 4.75517,1.31658l0.01365,-0.1857c0,0 3.61872,0 3.61872,3.61872zM153.72381,101.03671c1.55822,-0.23321 3.0751,-0.60682 4.39251,-0.98414c0.86305,-0.24719 1.81127,-0.30359 2.58325,-0.76185c1.09258,-0.64858 1.6399,-2.58818 1.78484,-3.73283c0.00151,-0.01193 0.00266,-0.02398 0.00347,-0.03615c-0.63393,0.13114 -1.42984,0.04431 -1.62282,0.04405c-0.84615,-0.00112 -1.69226,-0.02238 -2.5384,-0.01761c-0.44091,0.00248 -0.95566,-0.20577 -1.32216,0.03935c-0.40697,0.27218 -0.45458,0.86729 -0.68187,1.30094c-0.83488,1.29717 -1.96934,2.44475 -2.50465,3.89152c-0.0315,0.08514 -0.06292,0.17073 -0.09417,0.25672zM140.62057,87.69087c1.30821,-0.1118 2.61393,-0.2588 3.91227,-0.4523c0.91128,-0.13582 1.86332,-0.2041 2.70068,-0.58842c0.46696,-0.21432 0.76124,-1.78121 0.776,-2.09318c0.09336,-1.97319 -0.02024,-3.95115 0.01961,-5.92615c0.26344,-0.27001 0.12252,-0.05536 -0.42868,-0.27198c-0.48539,-0.19076 -1.01585,-0.31202 -1.47897,-0.54583c-0.01148,0.11054 -0.03674,0.21834 -0.07542,0.31751c-0.25286,0.6483 -0.81269,1.13284 -1.15799,1.73699c-1.20855,2.11448 -2.94596,4.39728 -3.87347,6.59558c-0.16743,0.39684 -0.2895,0.80926 -0.39403,1.22778zM117.59104,83.25752c-0.00371,-1.54218 -0.17124,-3.08515 -0.24869,-4.6267c-0.00734,-0.14603 -0.10188,-0.2788 -0.17513,-0.41295c-0.79578,-0.00587 -2.54514,-0.37084 -3.03533,0.01659c-0.60237,0.47609 -1.49572,1.37212 -1.913,2.02335c-0.10359,0.16168 2.24397,1.52375 2.27421,1.53866c1.02217,0.50388 2.0769,0.95328 3.09794,1.46106z"/><path d="M214.27742,123.21284c0,3.61872 -3.61872,3.61872 -3.61872,3.61872h-1.73699c-5.17833,-0.02805 -12.1432,-0.48303 -15.7073,-5.0244c-1.10778,-1.41152 -1.03194,-3.45895 -1.216,-5.2438c-0.22798,-2.21076 -0.01013,-4.44495 -0.01233,-6.66743c-0.00274,-2.7737 -0.01877,-5.54822 -0.00856,-8.32236c-0.34204,-0.50971 -0.57044,-1.19044 -0.57044,-2.09957c0,-0.9455 0.24704,-1.64396 0.61203,-2.15993c0.00419,-0.24525 0.00875,-0.49048 0.0137,-0.73571c2.0671,-6.1375 7.91396,-11.8214 13.86038,-14.38066c1.99362,-0.85803 4.82209,-0.82144 7.08149,-0.81732c2.78466,0.00508 8.03332,0.03006 9.88361,2.66081c0.83318,1.18462 0.72247,2.84829 0.65595,4.29504c-0.21202,4.61082 -5.0873,8.65924 -9.0816,10.17893c-2.40047,0.9133 -4.88913,1.58253 -7.36949,2.249c-2.42895,0.65266 -5.11993,1.42285 -7.79821,1.89373c0.0018,2.41537 -0.03891,4.83393 -0.04141,7.23803c-0.0021,2.0235 0.00598,4.04706 -0.01233,6.07048c-0.00514,0.56836 -0.42611,1.27108 -0.058,1.70415c0.55144,0.64877 1.53016,0.77455 2.3525,0.99533c2.40608,0.64599 4.92478,0.9455 7.41601,0.92822h1.73699c0,0 3.61872,0 3.61872,3.61872zM201.48573,94.62771c3.54887,-0.79789 5.96515,-1.31793 10.19585,-2.80673c1.32358,-0.46577 3.18911,-1.74681 4.20142,-2.97574c-0.31384,-0.10501 -0.62895,-0.2108 -0.94892,-0.245c-1.50611,-0.161 -5.21283,-0.20025 -6.45783,0.35828c-2.63973,1.18425 -5.02058,3.55608 -6.99052,5.6692z"/><path d="M239.36565,138.50957c-2.55882,-2.55882 0,-5.11765 0,-5.11765l1.15799,-1.15799c0.82233,-0.75491 1.49103,-1.71894 1.90037,-2.75747c-0.04986,-4.383 2.88341,-7.53907 4.18355,-11.491c0.82152,-2.49713 1.26535,-5.59436 0.98923,-8.22637c-0.24116,-2.2988 -1.58918,-3.63001 -3.26736,-5.11679c-0.44513,-0.39436 -0.84636,-1.0123 -1.4396,-1.05379c-6.23455,-0.43596 -9.82498,3.35052 -13.27065,8.1344c-1.35323,1.87878 -2.06552,4.24736 -3.72242,5.8646l-1.67899,2.79831c-0.62506,1.08407 -1.79589,1.81378 -3.13715,1.81378c-1.99857,0 -3.61872,-1.62016 -3.61872,-3.61872c0,-0.60779 0.14984,-1.18058 0.4146,-1.68346l1.10311,-2.20621c0.9745,-2.14252 1.86596,-4.32483 2.92469,-6.42699c1.00469,-1.99486 2.48843,-3.75798 3.26108,-5.85366c0.51138,-1.38703 0.16288,-2.96991 0.52085,-4.40421c0.60353,-2.41816 1.59225,-4.72375 2.34993,-7.09813c0.91578,-2.86986 1.42184,-5.8595 2.33033,-8.73167c0.74072,-2.34175 1.5705,-4.65996 2.53905,-6.91702c0.19408,-0.45227 0.80136,-0.67522 0.92352,-1.15197c0.1533,-0.59829 -0.10352,-1.23089 -0.15527,-1.84633c0,0 0,-3.61872 3.61872,-3.61872c3.61872,0 3.61872,3.61872 3.61872,3.61872c-0.05176,1.31454 0.16021,2.66646 -0.15527,3.94363c-0.21643,0.87617 -1.03733,1.4923 -1.39246,2.322c-0.81135,1.89556 -1.48403,3.85094 -2.09291,5.82089c-0.87995,2.84697 -1.39027,5.80113 -2.30163,8.6382c-0.57777,1.79858 -1.30899,3.5509 -1.86714,5.35415c0.87623,-0.48341 1.80062,-0.89809 2.78029,-1.22999c0.74824,-0.2535 1.58016,-0.03665 2.36828,-0.09127c2.06272,-0.14295 4.14852,-0.87189 6.1827,-0.50131c1.63255,0.29741 3.02972,1.41542 4.35036,2.42019c6.80739,5.1792 7.2112,13.84404 4.66982,21.39658c-1.23227,3.66211 -3.88208,6.51241 -3.9224,10.51084c-0.56345,1.40091 -0.91558,2.90668 -1.69036,4.20273c-0.54474,0.91124 -1.46615,1.53582 -2.19922,2.30373l-1.15799,1.15799c0,0 -2.55882,2.55882 -5.11765,0z"/><path d="M259.1496,131.89777c0,-2.89321 2.31315,-3.47327 3.24068,-3.58956c-0.11,-0.14423 -0.31534,-0.30046 -0.29897,-0.46407c0.06077,-0.60728 0.52312,-1.12924 0.579,-1.73699c0.12368,-1.34519 -0.03834,-2.70148 -0.04673,-4.05231c-0.03714,-5.98234 0,-11.96649 0,-17.94887c0,-3.35875 0.13892,-5.42651 -0.50872,-8.55424c0,0 -0.70969,-3.54845 2.83876,-4.25814c3.54845,-0.70969 4.25814,2.83876 4.25814,2.83876c1.32996,6.83887 0.64927,14.02886 0.64927,20.97454c0,4.66075 0.29186,9.36774 -0.62572,13.89656c-0.18506,0.91339 0.16818,1.99143 -0.33531,2.77567c-0.81568,1.27052 -2.25429,2.00908 -3.38143,3.01362l-2.75023,0.72374c0,0 -3.61872,0 -3.61872,-3.61872zM262.45237,128.42266l-1.27629,0.58013c0.41685,-0.15345 0.9752,-0.11178 1.25053,-0.46035c0.03053,-0.03865 0.03628,-0.07862 0.02576,-0.11978z"/><path d="M261.46558,71.68221c0,-1.99857 1.62016,-3.61872 3.61872,-3.61872c1.99857,0 3.61872,1.62016 3.61872,3.61872c0,1.99857 -1.62016,3.61872 -3.61872,3.61872c-1.99857,0 -3.61872,-1.62016 -3.61872,-3.61872z"/><path d="M63.01477,113.22516c3.61872,0 3.61872,3.61872 3.61872,3.61872l-0.25882,2.50195c-0.9364,2.33452 -1.81358,4.76807 -3.16489,6.90837c-2.61605,4.14351 -5.20186,6.74122 -8.23437,10.61805c-1.78464,2.28153 -2.82082,5.06934 -4.4549,7.46101c-1.33555,1.95472 -3.10462,3.59821 -4.36712,5.60089c-1.24793,1.97959 -1.70576,4.42616 -3.12626,6.28581c-0.02832,0.03707 -0.05689,0.07392 -0.08571,0.11053l0.01654,0.00993l-1.70286,2.8381c-0.62506,1.08407 -1.79589,1.81378 -3.13715,1.81378c-1.62784,0 -3.00465,-1.07484 -3.45941,-2.55355l-0.55261,-1.65782l0.09045,-0.03015l-0.15493,-0.18538c-0.39116,-1.98541 -1.28708,-3.84354 -1.74353,-5.81496c-0.36481,-1.57565 -0.30245,-3.2264 -0.62059,-4.81214c-0.27638,-1.3776 -0.88299,-2.67509 -1.15799,-4.05297c-0.29509,-1.47855 -0.18081,-3.02737 -0.54702,-4.48993c-0.40052,-1.5996 -1.33719,-3.03218 -1.73699,-4.63197c-0.38264,-1.53112 -0.23368,-3.16072 -0.59441,-4.69715c-0.40192,-1.71183 -1.18516,-3.31306 -1.68232,-4.9997c-0.57246,-1.94213 -0.74915,-5.60041 -2.55839,-7.13787c0,0 -2.55882,-2.55882 0,-5.11765c2.55882,-2.55882 5.11765,0 5.11765,0c2.86967,3.05478 3.23177,6.2874 4.38956,10.23201c0.53609,1.82647 1.35482,3.56951 1.79165,5.42222c0.35199,1.49287 0.19144,3.07881 0.56358,4.56679c0.40008,1.59971 1.33762,3.03208 1.73699,4.63197c0.38855,1.55655 0.29573,3.20096 0.61097,4.774c0.27609,1.37766 0.8833,2.67503 1.15799,4.05297c0.19988,1.00267 0.22103,2.03499 0.32165,3.05347c0.31433,-0.49282 0.63284,-0.98097 0.9396,-1.46819c1.30941,-2.07967 3.12843,-3.79934 4.51602,-5.8277c1.65246,-2.41555 2.71751,-5.21906 4.50642,-7.53538c2.58708,-3.3498 5.6807,-6.62283 7.97751,-10.2258c1.03348,-1.62121 1.90856,-4.03279 2.62507,-5.82954l-0.25882,0.18597c0,0 0,-3.61872 3.61872,-3.61872z"/><path d="M60.16074,162.5709c-1.14434,-3.43302 2.28868,-4.57736 2.28868,-4.57736l2.30167,-0.71797c5.56986,-0.08663 11.66883,-0.6928 17.14904,-1.69407c0.07697,-0.01406 4.82995,-1.35413 4.86398,-2.15154c0.10915,-2.5572 -0.65441,-5.74648 -0.192,-8.38244c-0.08871,-0.00556 -0.17518,-0.02468 -0.25043,-0.05607c-0.64222,-0.26792 -1.09477,-0.89007 -1.73699,-1.15799c-1.54206,-0.64333 -3.38905,-0.60739 -4.76541,-1.55472l-1.65782,-0.55261c-1.4787,-0.45476 -2.55355,-1.83157 -2.55355,-3.45941c0,-1.99857 1.62016,-3.61872 3.61872,-3.61872h2.31598c3.2748,0.0052 7.03022,0.85014 9.49155,-1.72173c1.86279,-1.94645 0.60043,-5.77796 -0.15157,-7.88975c-0.26459,-0.74303 -0.06376,-1.99714 -0.82053,-2.21939c-4.15057,-1.21895 -9.77931,-1.26733 -14.01073,-0.14659c0,0 -3.51068,0.87767 -4.38835,-2.63301c-0.87767,-3.51068 2.63301,-4.38835 2.63301,-4.38835c3.8745,-0.92927 8.16719,-0.94356 12.13512,-0.67794c1.62927,0.10907 5.71017,0.58057 7.43591,1.68934c2.4733,1.58907 2.77966,3.21584 3.81143,5.88655c2.43755,6.30957 2.12964,14.85605 -4.79864,18.17964c1.8424,3.28658 1.0518,8.57468 0.96647,12.01483c-0.02306,0.9297 0.1706,1.91461 -0.15527,2.78564c-2.60833,6.97193 -11.71048,7.30934 -17.72311,8.07179c-3.34551,0.42424 -6.68017,0.89493 -10.05751,0.82051l-1.1723,0.44002c0,0 -3.43302,1.14434 -4.57736,-2.28868z"/></g></g></svg>