<svg version="1.1" xmlns="http://www.w3.org/2000/svg" xmlns:xlink="http://www.w3.org/1999/xlink" width="355.12094" height="191.89476" viewBox="0,0,355.12094,191.89476"><g transform="translate(-57.98439,-68.50001)"><g data-paper-data="{&quot;isPaintingLayer&quot;:true}" fill-rule="nonzero" stroke="none" stroke-width="0.5" stroke-linecap="butt" stroke-linejoin="miter" stroke-miterlimit="10" stroke-dasharray="" stroke-dashoffset="0" style="mix-blend-mode: normal"><path d="M77.68716,70.43731c1.20673,-0.32911 2.53501,0.06269 3.79723,0.06269c7.63604,0 15.63541,-0.67088 23.23172,0.06083c7.91178,0.76211 15.69181,2.97537 23.44983,4.23018c6.73776,1.08979 14.26715,2.29299 21.09518,2.73314c2.47988,0.15986 4.98709,-0.25458 7.455,0.03668c10.32129,1.21814 20.3199,4.28997 30.75625,4.97827c29.16808,1.92372 58.5816,0.95109 87.78875,0.98505c27.23732,3.33537 54.82568,1.97585 82.22328,1.97585c8,0 16,0 24,0c9.82087,0 19.70689,-1.79886 27.44317,6.30998c4.35706,4.56687 3.99831,9.75149 4.05683,15.19002c0.11831,10.99724 0,22.00208 0,33c0,22.46551 0.27668,44.95265 -0.00693,67.41598c-0.15974,12.65226 -1.87017,25.28037 -2.21862,37.94787c-2.86127,4.58856 -4.1728,10.6376 -8.5838,13.76568c-3.72389,2.64081 -9.12571,0.32001 -13.69065,0.37047c-13.99622,0.15471 -28.00306,0.0063 -42,0c-8.49989,-0.00382 -16.98783,-0.64005 -25.47971,-1.00921c-12.66717,-0.55067 -25.43289,-0.33452 -38.08672,-1.00363c-3.91562,-0.20705 -42.29491,-3.93023 -45.85503,-4.27161c-27.98369,-2.68335 -55.81414,-5.12103 -83.87078,-6.78668c-8.60361,-1.03569 -17.25744,-1.71627 -25.81082,-3.10706c-5.82194,-0.94665 -11.39963,-3.23561 -17.2609,-3.89645c-5.51049,-0.6213 -11.09065,0.06155 -16.63604,0.07464c-3.43992,0.00812 -21.97424,1.01495 -26.30888,-2.35948c-7.83646,-6.10052 -5.63369,-11.75548 -6.16696,-19.3638c-0.43827,-6.25287 -1.0172,-12.50852 -1.02416,-18.77672c-0.02866,-25.83955 0.8644,-51.85523 0.00432,-77.67139c-0.44982,-13.50177 -1.989,-26.83026 -2.00432,-40.3286c0,0 0,-12.5 12.5,-12.5c3.11092,0 5.44761,0.77423 7.20277,1.93731z" fill="#00ff72"/><path d="M386.98438,171c0,12.5 -12.5,12.5 -12.5,12.5h-3c-12.03621,0 -23.96398,-1 -36,-1c-18.31694,0 -37.24109,1.0351 -55.56643,-0.01284c-12.16058,-0.6954 -24.18708,-2.94012 -36.31968,-4.01861c-7.72071,-0.6863 -17.61091,0.03145 -25.11389,0.03145c-13.85173,0 -28.16152,-1.0174 -41.96899,-0.04259c-3.9838,0.28126 -9.4453,2.32527 -12.9431,2.86698c-9.92526,1.53715 -15.09199,1.17141 -25.08791,1.17561c-4.83043,0.00203 -9.78642,0.29417 -14.70997,0.26071c0.02622,0.14129 0.05205,0.28266 0.07748,0.42412c0.83309,4.63383 -0.19392,9.42583 0.11337,14.12391c0.77299,11.81818 2.63479,23.53987 3.94267,35.31086l0.07645,2.38039c0,0 0,12.5 -12.5,12.5c-12.5,0 -12.5,-12.5 -12.5,-12.5l0.07645,0.38039c-0.10693,-0.9624 -4.02329,-36.154 -4.05733,-36.68914c-0.25128,-3.95089 0.83039,-7.98269 0.11337,-11.87609c-1.48171,-8.04568 -4.6033,-15.70273 -6.71374,-23.60682c-0.64934,-2.43192 -1.88583,-4.71652 -2.25735,-7.20607c-1.17346,-7.8635 -0.11535,-16.44177 -1.0593,-24.40783c-1.26061,-10.63831 -4.05808,-20.79736 -4.10211,-31.59445c0,0 0,-12.5 12.5,-12.5c12.5,0 12.5,12.5 12.5,12.5c-0.05593,9.67489 2.78224,18.86535 3.89789,28.40555c0.46759,3.9985 0.85108,8.00932 1.08927,12.02802c0.22809,3.84828 -0.76315,7.75842 -0.14857,11.56415c0.27107,1.67853 1.28478,3.15646 1.74265,4.79393c0.04329,0.15482 0.08682,0.3096 0.13057,0.46432c1.16135,0.45528 2.52882,0.25371 3.78819,0.24403c5.99982,-0.04612 12,-0.00262 18,0c7.45341,0.00325 13.58928,0.35912 20.91209,-0.82439c5.0608,-0.81793 9.94724,-2.71824 15.0569,-3.13302c14.48319,-1.17568 29.50098,-0.04259 44.03101,-0.04259c8.19172,0 18.57957,-0.6767 26.88611,0.03145c11.924,1.01654 23.73252,3.29921 35.68032,3.98139c17.94634,1.02468 36.49869,-0.01284 54.43357,-0.01284c12.03761,0 23.96691,1 36,1h3c0,0 12.5,0 12.5,12.5z" fill="#ffffff"/></g></g></svg>