<svg version="1.1" xmlns="http://www.w3.org/2000/svg" xmlns:xlink="http://www.w3.org/1999/xlink" width="277.3712" height="249.04006" viewBox="0,0,277.3712,249.04006"><g transform="translate(-104.61432,-45.49932)"><g data-paper-data="{&quot;isPaintingLayer&quot;:true}" fill-rule="nonzero" stroke="none" stroke-width="0.5" stroke-linecap="butt" stroke-linejoin="miter" stroke-miterlimit="10" stroke-dasharray="" stroke-dashoffset="0" style="mix-blend-mode: normal"><path d="M113.95823,52.88161c3.92912,-2.78841 12.17847,-2.41564 16.52616,-2.3816c2.27764,0.01783 4.49932,-0.73967 6.76828,-0.93917c4.3824,-0.38533 8.33563,-0.44505 12.70443,-0.96718c5.19716,-0.62114 10.19287,-2.56058 15.40472,-3.04314c0.63551,-0.05884 14.75696,-0.05051 18.12257,-0.05051c13,0 26,0 39,0c3.15526,0 22.50386,-0.01015 23.09032,0.04764c5.98388,0.58961 11.826,2.19524 17.77165,3.09181c5.36154,0.8085 10.78798,1.15461 16.14031,2.02195c4.77828,0.77432 9.42234,2.33082 14.22944,2.89943c7.53691,0.89151 15.17883,-0.06083 22.76828,-0.06083c8.33333,0 16.66667,0 25,0c12.26445,0 25.43453,-2.9669 33.18034,9.90983c2.17833,3.62129 0.99572,13.14164 1.30053,17.89892c0.19301,3.01229 0.82641,5.98654 1,9c0.63284,10.98548 0.02386,22.16232 -0.07452,33.16397c2.87194,11.1688 4.08218,14.17628 5.06221,26.64118c0.04062,0.51663 0.03199,23.83451 0.03145,24.88611c-0.00623,11.91701 -0.46609,23.85672 -2.11417,35.68556c-0.58067,4.16765 -1.22872,8.34143 -2.27691,12.4167c-2.69621,10.48259 -5.33216,12.80291 -6.68921,23.3122c-0.36652,2.8384 0.06722,5.7236 0.08029,8.58554c0.02587,5.66661 0.08318,11.33394 0,17c-0.11874,8.08887 0.45109,13.77172 -7.49214,20.35084c-3.2117,2.66015 -14.69703,2.14916 -19.00786,2.14916c-14,0 -28,0 -42,0c-42.01828,0 -83.98975,-1 -126,-1c-13.94626,0 -29.01524,1.12583 -43,0c-6.13358,-0.49378 -12.92759,0.62489 -18.30888,-2.35947c-6.66144,-3.69431 -6.44928,-13.65366 -6.17828,-19.70696c0.28795,-6.43199 1.57496,-12.78666 2.01131,-19.21029c0.87974,-12.95086 -0.02415,-26.24303 -0.02415,-39.22328c0,-16.66666 0,-33.33334 0,-50c0,-9.35578 0.59568,-18.8891 0.02415,-28.22328c-0.28292,-4.62061 -1.55948,-9.13573 -1.98156,-13.74572c-0.42928,-4.68864 -0.10602,-9.45437 -0.892,-14.09655c-0.83128,-4.90971 -2.54201,-9.66725 -3.08103,-14.61757c-0.94683,-8.69549 -0.06956,-18.48468 -0.06956,-27.31688c0,0 0,-10.02202 8.97384,-12.1184z" fill="#ff0000"/><path d="M296.98438,107c0,12.5 -12.5,12.5 -12.5,12.5c-1,0 -4,0 -5,0c-25.17351,0 -50.72917,1.05488 -75.88611,-0.03145c-2.35483,-0.10169 -4.65048,-0.81215 -7,-1c-7.63054,-0.61009 -15.44142,0.74844 -23.06702,-0.00494c-9.53898,-0.94242 -19.83648,-2.61296 -28.99971,-5.60507c0,0 -11.85854,-3.95285 -7.90569,-15.81139c3.95285,-11.85854 15.81139,-7.90569 15.81139,-7.90569c6.97977,2.40538 15.76757,3.66083 23.00029,4.39493c7.54438,0.76574 15.36252,-0.56727 22.93298,-0.00494c2.35055,0.1746 4.64523,0.89687 7,1c7.69726,0.33713 15.40925,-0.03145 23.11389,-0.03145c17,0 34,0 51,0c1,0 2,0 3,0h2c0,0 12.5,0 12.5,12.5z" fill="#ffffff"/><path d="M275.92136,160.51767c2.2113,0.13977 12.06301,1.3852 12.06301,12.48233c0,12.5 -12.5,12.5 -12.5,12.5l-4.0317,-0.37322c-5.105,-1.32289 -10.25804,-0.87025 -15.33226,-1.70142c-3.98384,-0.65257 -7.94447,-1.50976 -11.81828,-2.64576c-2.07477,-0.60843 -3.88778,-2.29658 -6.04948,-2.34043c-9.7751,-0.19829 -19.87242,0.62689 -29.65439,0.02939c-2.35264,-0.14371 -4.64609,-0.87887 -7,-1c-4.5411,-0.23369 -9.10229,0.21109 -13.64118,-0.06221c-1.37188,-0.0826 -2.6441,-0.77545 -4,-1c-3.72684,-0.61721 -10.15099,0.09366 -13.47271,0.09366c-6.66667,0 -13.33333,0 -20,0c0,0 -12.5,0 -12.5,-12.5c0,-12.5 12.5,-12.5 12.5,-12.5c6.66667,0 13.33333,0 20,0c5.13113,0 11.33516,-0.57225 16.52729,0.09366c1.3632,0.17484 2.62788,0.92134 4,1c4.11291,0.23578 8.24399,-0.26154 12.35882,-0.06221c2.35426,0.11405 4.6478,0.84926 7,1c10.07756,0.64581 20.25877,-0.6736 30.34561,0.02939c6.83141,0.4761 11.48807,4.10636 18.13224,5.0138c5.66708,0.774 11.40176,0.79189 17.07303,1.94303z" fill="#ffffff"/><path d="M295.98438,241c0,12.5 -12.5,12.5 -12.5,12.5c-15,0 -38,0 -53,0c-5.56376,0 -11.1392,0.34147 -16.69125,-0.01913c-7.42778,-0.48243 -14.86531,-0.98698 -22.30875,-0.98087c-9.33332,0.00766 -18.66668,0 -28,0c-5.94033,0 -11.22926,0.0697 -16.95285,-1.64146c0,0 -11.85854,-3.95285 -7.90569,-15.81139c3.95285,-11.85854 15.81139,-7.90569 15.81139,-7.90569c2.3995,1.18885 6.39138,0.35854 9.04715,0.35854c9.33332,0 18.66668,-0.00723 28,0c7.90439,0.00612 15.80537,0.47855 23.69125,1.01913c5.09097,0.34899 10.20583,-0.01913 15.30875,-0.01913c15,0 30,0 45,0h8c0,0 12.5,0 12.5,12.5z" fill="#ffffff"/><path d="M329.98438,109c0,-6.90356 5.59644,-12.5 12.5,-12.5c6.90356,0 12.5,5.59644 12.5,12.5c0,6.90356 -5.59644,12.5 -12.5,12.5c-6.90356,0 -12.5,-5.59644 -12.5,-12.5z" fill="#ffffff"/><path d="M325.98438,178c0,-6.90356 5.59644,-12.5 12.5,-12.5c6.90356,0 12.5,5.59644 12.5,12.5c0,6.90356 -5.59644,12.5 -12.5,12.5c-6.90356,0 -12.5,-5.59644 -12.5,-12.5z" fill="#ffffff"/><path d="M326.98438,246c0,-6.90356 5.59644,-12.5 12.5,-12.5c6.90356,0 12.5,5.59644 12.5,12.5c0,6.90356 -5.59644,12.5 -12.5,12.5c-6.90356,0 -12.5,-5.59644 -12.5,-12.5z" fill="#ffffff"/></g></g></svg>