<svg version="1.1" xmlns="http://www.w3.org/2000/svg" xmlns:xlink="http://www.w3.org/1999/xlink" width="533.96969" height="422.52814" viewBox="0,0,533.96969,422.52814"><g transform="translate(32.17622,34.93994)"><g data-paper-data="{&quot;isPaintingLayer&quot;:true}" fill="#360000" fill-rule="nonzero" stroke="none" stroke-width="0.5" stroke-linecap="butt" stroke-linejoin="miter" stroke-miterlimit="10" stroke-dasharray="" stroke-dashoffset="0" style="mix-blend-mode: normal"><path d="M12.49906,-21.42643c4.59847,0 8.90697,1.24155 12.60856,3.40772l1.84456,0.49853l0.92805,1.07458l2.14886,-1.85583l0.59426,-0.18908l1.87011,-1.45453l3.41728,-0.22782l2.7121,-0.86294l3.78185,-0.37819l3.07001,-0.7675l1.27585,-0.18671l1.252,-0.30846l8.27892,-1.1827l6.87044,-2.29015l0.37068,-0.0837l0.35132,-0.14487l15.01502,-4.5045l1.41178,-0.27413l0.12225,-0.04874l1.16208,-0.20065l1.15765,-0.22479l0.13159,0.00218l1.41718,-0.24469l20.77972,-1.48427l16.2756,-1.4796l1.13449,0.01022l1.1289,-0.11289h13.51351l0.77806,0.07781l0.7814,-0.02912l24.02402,1.5015l0.05143,0.00841l0.05209,-0.00172l22.52252,1.5015l0.9302,0.15607l0.94236,0.03982l20.49839,2.92834l14.4897,1.44897l1.19847,0.24211l1.21684,0.1193l12.5876,2.51752h95.23898l12.13735,-1.34859l1.38379,-0.01521l1.377,-0.1377h8.73382l8.46393,-1.20913l8.72231,-1.45372l0.68139,-0.04468l0.6678,-0.14256l13.51351,-1.5015l1.38379,-0.01521l1.377,-0.1377h59.4925l5.03325,-0.83888l2.64363,-0.88121l3.82932,-0.86469l2.66394,-0.03649l1.41244,-0.38174l1.27617,0.34491l3.66489,-0.0502l7.35517,3.0286l2.1569,0.58295l0.40903,0.47361l0.57865,0.23827l1.2351,1.86187l5.19909,6.02l1.11131,3.4927l0.73077,1.10161l0.0845,1.46067l0.80779,2.53877l0.39063,3.90625v67.82218l1.29596,12.95958l1.36689,8.20136l0.01909,0.29114l0.0698,0.2833l1.4604,10.22277l1.45372,8.72231l0.13494,2.05789l0.20521,2.05208v7.45257l1.30845,10.46759l0.03837,1.55405l0.15468,1.54681v45.04505l-0.20521,2.05208l-0.13494,2.05789l-1.16135,6.9681v97.96398l1.16135,6.9681l0.13494,2.05789l0.18996,1.89958l0.41182,1.29429l0.24947,0.46958l0.93754,3.26101l1.0288,3.23337l0.05291,0.5291l0.47257,1.64371l-0.17122,1.36976l0.03637,0.36368v49.54955l-0.12456,1.24556l0.45501,2.2483l-2.49559,5.98941l-0.95987,3.01673l-0.57406,0.6647l-0.3378,0.81072l-2.26898,2.20766l-4.24103,4.91067l-2.21443,0.59849l-1.05836,0.66844l-3.003,1.5015l-0.95916,0.3654l-1.48748,0.90628l-5.07045,0.72956l-5.06079,0.79385l-1.68822,-0.42876l-1.02421,-0.06716l-6.9681,-1.16135h-23.98398l-4.49674,0.89935l-5.42887,1.35722l-1.92359,0.2815l-0.23355,0.07431l-0.86604,0.0866l-0.86118,0.12603l-0.2446,-0.01545l-1.81003,0.181l-3.07001,0.7675l-0.98886,0.14471l-0.96455,0.26157l-18.01802,3.003l-0.29114,0.01909l-0.2833,0.0698l-10.51051,1.5015l-1.77138,0.07485l-1.76416,0.17642h-18.01802l-1.40259,-0.14026l-0.1227,0.011l-1.18922,-0.14219l-1.19174,-0.11917l-0.1174,-0.03735l-1.39962,-0.16735l-12.86029,-2.85784l-17.35796,-2.89299l-0.17816,-0.04831l-0.184,-0.01479l-30.81515,-5.60275h-6.1872l-15.79579,2.63263l-16.33567,2.97012l-2.23803,0.17984l-2.2341,0.22341h-36.03604l-1.2407,-0.12407h-1.24689l-13.77431,-1.37743h-18.21769l-10.46759,1.30845l-1.55405,0.03837l-1.54681,0.15468h-15.13189l-12.13735,1.34859l-1.38379,0.01521l-1.377,0.1377h-89.1161l-5.08009,1.01602l-2.45169,0.24036l-2.45122,0.24512h-10.61482l-1.9318,0.9659l-0.47891,0.41361l-0.95783,0.30476l-0.36183,0.18092l-3.66855,1.39754l-1.83527,0.28789l-1.77027,0.56327l-3.90625,0.39063h-0.40454l-0.993,0.15576l-0.61332,-0.15576h-20.51166l-3.90625,-0.39062l-1.82192,-0.5797l-3.17743,-0.06033l-2.46351,-1.73452l-1.13088,-0.35983l-2.73515,-2.36218l-2.95502,-2.08058l-0.62336,-1.00984l-2.28022,-1.96928l-0.82917,-3.06793l-1.00428,-1.62693l-1.32637,-3.69488l-3.003,-12.01201l-0.2815,-1.92359l-0.07431,-0.23355l-0.0866,-0.86604l-0.12603,-0.86118l0.01545,-0.2446l-0.19344,-1.93443v-6.99814l-0.15576,-0.61332l0.15576,-0.993v-0.40454l0.39063,-3.90625l0.56327,-1.77027l0.28789,-1.83527l1.39754,-3.66855l0.18092,-0.36183l0.21769,-0.68416l0.71152,-2.84607l0.32476,-0.90469l0.21172,-0.93761l0.21858,-0.65575v-34.41454l-1.16135,-6.9681l-0.13494,-2.05789l-0.20521,-2.05208v-3.53052l-1.01602,-5.08009l-0.24036,-2.45169l-0.24512,-2.45122v-76.57658l0.20521,-2.05208l0.13494,-2.05789l1.16135,-6.9681v-12.94595l0.20521,-2.05208l0.13494,-2.05789l1.5015,-9.00901l0.37034,-1.36562l0.25141,-1.39243l2.88857,-10.10999l2.15554,-8.62215v-0.9175l-0.15576,-0.61332l0.15576,-0.993v-0.40454l0.39063,-3.90625l0.56327,-1.77027l0.28789,-1.83527l0.35275,-0.92597l0.2976,-2.976l0.02641,-0.08302l0.00119,-0.08711l0.86469,-3.82932l0.21858,-0.65575v-2.9412l-0.15576,-0.61332l0.15576,-0.993v-0.40454l0.39063,-3.90625l0.56327,-1.77027l0.28789,-1.83527l0.25972,-0.68177v-29.34397l0.19344,-1.93443l-0.01545,-0.2446l0.12603,-0.86118l0.0866,-0.86604l0.07431,-0.23355l0.2815,-1.92359l0.75506,-3.02026v-1.42686l0.17642,-1.76416l0.07485,-1.77138l1.5015,-10.51051l0.53711,-2.18005l0.49454,-2.19011l0.21858,-0.65575v-34.9821c0,-4.16768 1.01982,-8.09717 2.82353,-11.55253l0.30147,-0.94747l0.73403,-0.84993c1.33033,-2.1023 2.96558,-3.99248 4.8436,-5.60838l1.84425,-2.13544l1.84456,-0.49853c3.70159,-2.16617 8.01009,-3.40772 12.60856,-3.40772z"/></g></g></svg>