<svg version="1.1" xmlns="http://www.w3.org/2000/svg" xmlns:xlink="http://www.w3.org/1999/xlink" width="340.12412" height="215.32358" viewBox="0,0,340.12412,215.32358"><g transform="translate(-72.86758,-25.46038)"><g data-paper-data="{&quot;isPaintingLayer&quot;:true}" fill-rule="nonzero" stroke="none" stroke-width="0.5" stroke-linecap="butt" stroke-linejoin="miter" stroke-miterlimit="10" stroke-dasharray="" stroke-dashoffset="0" style="mix-blend-mode: normal"><path d="M192.39875,233.1198c-0.85002,0.39738 -1.80668,0.73799 -2.88267,1.00698c-12.12678,3.0317 -15.15848,-9.09509 -15.15848,-9.09509c-1.74738,-8.12335 -2.87127,-9.81025 0.61132,-19.89422c0.97625,-2.82677 3.58398,-4.79167 5.25256,-7.27351c2.5942,-3.85858 5.22097,-7.69626 7.7371,-11.60619c4.15391,-6.45496 7.84063,-13.19935 11.84344,-19.74909c1.18929,-1.94602 4.98319,-8.64143 6.70217,-10.20387c6.62858,-6.02497 10.60749,-7.9324 18.53794,-10.98884c5.49531,-2.11793 11.33892,-3.12017 17.31417,-1.48159c19.68704,5.39872 31.57824,20.11729 44.25617,34.62581c2.95043,3.00412 6.32151,5.64635 8.85128,9.01236c2.5675,3.41621 4.37998,7.34727 6.30971,11.16024c4.06074,8.02363 8.09122,19.51219 2.5635,28.05986c-1.74583,2.69962 -5.73623,2.91917 -8.48042,4.59407c-1.36449,0.83281 -2.34682,2.27131 -3.81271,2.90894c-3.10768,1.35175 -6.42488,2.1899 -9.72095,2.9778c-17.40855,4.16139 -35.90659,4.48483 -53.63261,2.19712c-2.79546,-0.36078 -5.40545,-1.73264 -8.20815,-2.03198c-1.49998,-0.16021 -3.03414,0.29775 -4.52501,0.06775c-2.7166,-0.41909 -5.28282,-1.5847 -8,-2c-0.27807,-0.0425 -7.92387,0.24035 -8.47271,0.09366c-2.4082,-0.64368 -4.75195,-1.49567 -7.08563,-2.3802z" fill="#00ff72"/><path d="M234.01582,92.11389c0.20037,-3.93571 1.50817,-7.73951 2.06221,-11.64118c1.26528,-8.91033 1.75091,-17.95225 2.75784,-26.9296c-0.37619,-0.01875 -0.75226,-0.04103 -1.12821,-0.06726c-8.04271,-0.56112 -15.98916,-2.09092 -24,-3c-0.66034,-0.07494 -1.38811,0.26439 -2.01206,0.10174c-1.38851,1.36187 -2.75621,2.75876 -4.34709,3.86912c-6.54104,4.56532 -19.07966,9.70988 -25.18635,12.14503c-8.97652,3.57954 -18.17417,6.58214 -27.1855,10.07314c-2.95208,1.14364 -6.0521,1.97509 -8.83619,3.48225c-10.2808,5.5655 -20.4353,13.62701 -30.38201,19.66424c-2.19981,1.33519 -4.73351,2.04796 -6.96521,3.32915c-3.56793,2.04831 -7.37041,9.65103 -8.86703,12.89276c-2.92384,6.33317 -1.5923,11.88112 -2.1674,18.60287c1.92093,4.02394 3.61139,8.36272 4.13189,12.83655c0.21285,1.82947 -0.26797,3.69412 -0.06775,5.52501c0.11459,1.04785 0.88934,1.95173 1,3c0.28008,2.65323 0.14115,5.33439 0.16141,8.00228c0.03699,4.87226 0.08661,9.7724 0.76686,14.59708c0.00705,0.05001 0.02022,0.10548 0.03743,0.16456c0.72715,0.20963 1.41923,0.63695 2.00459,1.09783c0.55349,0.4358 9.59262,9.14165 10.83165,10.83165c1.05502,1.43902 1.75069,3.11446 2.49261,4.73724c0.09021,0.19731 -0.21891,0.54431 -0.02955,0.65018c1.5543,0.86892 3.56071,0.44195 5.24228,1.0278c1.21904,0.42471 2.25601,1.34741 3.51798,1.61921c1.30344,0.28073 2.70474,-0.31635 4,0c3.15922,0.7716 6.13643,2.0678 9.04864,3.49093c0.49487,-0.48988 0.9955,-0.9738 1.3008,-1.58862c0.51745,-1.04205 0.26605,-2.34806 0.73823,-3.4114c0.85322,-1.92145 2.20972,-3.58093 3.19208,-5.43967c1.15921,-2.19335 1.00071,-4.91023 2.06969,-7.14894c0.74755,-1.56555 2.35814,-2.61484 3.09106,-4.18729c1.35139,-2.89933 1.31067,-6.31788 2.64716,-9.22411c3.73959,-8.1318 9.13553,-15.20376 13.91536,-22.7881c5.72071,-9.07727 7.84953,-20.21885 16.18582,-27.6421c2.75247,-2.451 6.13377,-4.08791 9.20065,-6.13186c3.5043,-1.01119 6.8797,-2.71346 10.5129,-3.03358c8.33813,-0.73469 16.74471,0.15515 25.11109,-0.1053c1.81441,-0.05648 3.62748,-0.14067 5.43951,-0.24533c-0.54657,-6.00423 -0.74935,-10.04319 -0.28539,-19.15631zM263.88785,54.55043c-1.2358,9.62699 -1.62298,19.39872 -2.99713,28.97686c-0.49887,3.47723 -1.78603,6.84926 -1.93779,10.35882c-0.31799,7.3534 -0.18062,10.64134 0.23845,15.24814c8.97758,-1.12646 23.10548,-3.57561 32.324,-2.59166c3.06314,0.32695 6.23592,0.50223 9.09187,1.6569c10.52156,4.25393 17.86229,10.98698 23.6772,20.50698c0.81764,1.33861 0.62145,3.21562 1.63544,4.41238c3.64245,4.29899 8.34618,7.60136 12.10224,11.80145c4.33195,4.84407 6.91832,11.00623 10.17107,16.63211c1.91086,3.30498 5.04245,5.99333 6.19488,9.63286c1.19035,3.7593 0.50845,7.87244 0.59631,11.81472c0.16934,7.59845 0.49364,13.08919 -1.12519,20.01304c3.09838,0.46291 6.20399,1.27909 9.87185,2.64137c0.6093,0.2263 0.72868,1.31945 1.37564,1.38194c2.4543,0.23709 4.91369,-0.44443 7.3777,-0.53635c3.48862,-0.13014 7.00076,0.45827 10.47271,0.09366c1.33944,-0.14067 2.61067,-0.64881 3.90999,-1.01818c-0.74676,-2.11225 -1.55804,-4.65607 -1.60624,-4.96105c-1.70092,-10.76323 -2.32603,-21.75956 -2.23387,-32.64543c1.21984,-7.59949 2.89951,-15.16632 2,-22.93799c-0.87385,-7.55002 -2.36426,-15.01837 -3.78069,-22.48564c-0.52601,-2.77305 -1.59275,-5.43096 -2.04319,-8.21729c-1.24261,-7.68656 -1.7431,-15.48242 -3.02956,-23.16176c-0.92089,-5.49709 -2.07384,-10.96741 -3.58651,-16.33191c-0.67414,-2.39076 -2.14155,-4.49458 -2.94853,-6.84383c-0.06146,-0.17892 -0.14642,-0.42013 -0.21629,-0.6687c-1.09799,-0.62081 -2.09812,-1.48942 -3.25028,-2.00696c-2.07736,-0.93314 -4.24036,-1.66944 -6.40392,-2.38018c-11.21667,-3.6847 -23.19042,-6.11988 -34.80627,-8.52785c-4.72542,-0.97958 -9.65147,0.09309 -14.47735,0.09309c-11.66667,0 -23.33333,0 -35,0c-3.59224,-0.00805 -7.1898,0.17149 -10.77672,-0.02415c-0.26909,-0.01468 -0.53765,-0.03547 -0.80579,-0.06109c-0.00814,0.08864 -0.01402,0.13568 -0.01402,0.13568zM150.81826,226.57456c-5.85558,5.64002 -13.92406,1.60578 -13.92406,1.60578l-2,-1c-2.5915,-1.30141 -4.92,-3.39004 -7.77367,-3.90589c-1.31207,-0.23718 -2.69978,0.29532 -4,0c-2.24463,-0.50983 -4.29134,-1.67422 -6.48202,-2.38079c-5.25097,-1.69361 -7.08371,-0.62784 -12.75772,-4.9722c-3.44503,-2.63772 -5.10369,-7.02021 -7.53694,-10.61258c-1.36633,-2.01721 -3.23505,-3.68569 -5.16835,-5.16835c-1.50345,-1.15301 -3.62133,-1.43239 -4.96365,-2.76955c-2.11369,-2.10556 -3.82308,-4.64635 -5.1589,-7.31406c-4.71828,-9.42266 -1.73007,-20.23226 -2.90716,-30.05464c-0.12542,-1.0466 -0.88196,-1.95254 -1,-3c-0.24171,-2.14487 0.09993,-4.32306 -0.06775,-6.47499c-0.2402,-3.08256 -3.13876,-9.16966 -3.86811,-11.16345c-0.16318,-5.32773 -0.644,-17.64627 -0.06414,-21.36612c1.7769,-11.39892 8.49402,-22.07091 16.10831,-30.42695c1.5296,-1.67861 3.0367,-3.4443 4.9214,-4.7113c2.81358,-1.89145 6.14098,-2.90459 9.03479,-4.67085c13.8273,-8.43957 16.7913,-12.38804 31.61799,-20.33576c10.03409,-5.37868 29.11534,-10.9317 37.97832,-14.4446c6.6783,-2.64699 14.49497,-5.80077 20.81365,-9.85497c3.70062,-2.3744 6.90291,-5.60483 10.91129,-7.41183c0.88285,-0.39799 8.58681,-0.85059 10.72957,-0.6173c8.0149,0.87261 15.95729,2.43888 24,3c6.31798,0.44079 12.67101,-0.23441 19,0c5.74636,0.21283 11.473,0.9909 17.22328,0.97585c11.66667,0 23.33333,0 35,0c5.84097,0 11.76635,-0.89781 17.52265,0.09309c11.63867,2.00348 22.9742,5.48442 34.45181,8.26597c10.10876,2.44981 23.12968,6.48261 28.90304,15.98221c1.12087,1.84431 1.20751,4.14852 1.96839,6.16814c0.91424,2.4267 2.35622,4.65791 3.05147,7.15617c3.85558,13.85449 5.09926,28.30801 7.38393,42.50634c0.42497,2.64101 1.46896,5.15259 1.95681,7.78271c1.57212,8.47572 3.29975,16.94325 4.21931,25.51436c0.99925,9.31386 -0.41663,18.01076 -2,27.06201c0.12102,8.43598 0.53047,17.00337 1.76613,25.35457c0.80271,5.42511 3.87594,10.70152 3.18281,16.14171c-0.53114,4.16879 -2.6982,8.24104 -5.56751,11.31154c-2.73979,2.9319 -6.85789,4.20459 -10.50201,5.88473c-7.37813,3.40172 -16.47127,2.97155 -24.33683,2.77644c-4.87588,-0.12095 -9.80914,0.2525 -14.6223,-0.53635c-2.91713,-0.4781 -5.18683,-3.15462 -8.11146,-3.58447c-2.16524,-0.31824 -5.13855,-0.20004 -7.26396,-0.04059c-2.63177,0.19745 -5.6339,2.22212 -7.87419,0.82702c-4.90977,-3.05749 -9.6257,-7.48555 -11.56726,-12.93389c-1.18641,-3.32927 2.25093,-6.70072 3.37639,-10.05108c1.38729,-3.64056 3.45917,-7.2331 3.60537,-11.21165c0.13427,-3.65389 -0.1761,-7.31507 -0.04259,-10.96899c0.05146,-1.40824 1.09133,-2.86591 0.59631,-4.18528c-0.67825,-1.80772 -2.77464,-2.73435 -3.80512,-4.36714c-2.75605,-4.36693 -4.36185,-9.54099 -7.82893,-13.36789c-4.44656,-4.90804 -9.6926,-9.08217 -13.89776,-14.19855c-1.28417,-1.56243 -1.34077,-3.84345 -2.36456,-5.58762c-2.37829,-4.05174 -5.92362,-7.78576 -10.3228,-9.49302c-2.79905,-1.08627 -6.87926,-0.23493 -9.72359,0.06066c-8.38054,0.87093 -16.74802,1.88123 -25.14315,2.59793c-9.12099,0.77867 -18.23703,1.77268 -27.38771,2.02538c-8.79333,0.24284 -17.89885,-1.48825 -26.37601,0.86111c-5.88976,3.93052 -6.93097,10.01132 -9.99013,16.08952c-1.40241,2.78643 -2.97907,5.48565 -4.6234,8.13653c-2.83775,4.57482 -5.51479,9.25233 -8.49261,13.73724c-0.52151,0.78544 -1.48279,1.21172 -2,2c-2.59669,3.95765 -3.19577,10.3292 -4.94487,14.25056c-0.65119,1.45992 -2.15139,2.40504 -2.90894,3.81271c-1.12435,2.08928 -0.90465,4.71161 -1.93031,6.85106c-0.77171,1.60974 -2.08238,2.92927 -2.80792,4.56033c-0.64472,1.44938 -0.54989,3.171 -1.26177,4.5886c-1.44732,2.8821 -3.70773,5.31199 -5.10638,8.21802c0,0 -2.94882,5.89763 -8.84645,6.98439z" fill="#00ff72"/></g></g></svg>