<svg version="1.1" xmlns="http://www.w3.org/2000/svg" xmlns:xlink="http://www.w3.org/1999/xlink" width="222" height="239" viewBox="0,0,222,239"><g transform="translate(-95.48437,-50)"><g data-paper-data="{&quot;isPaintingLayer&quot;:true}" fill-rule="nonzero" stroke-linecap="butt" stroke-linejoin="miter" stroke-miterlimit="10" stroke-dasharray="" stroke-dashoffset="0" style="mix-blend-mode: normal"><path d="M316.48438,169.5c0,65.44574 -49.24868,118.5 -110,118.5c-60.75132,0 -110,-53.05426 -110,-118.5c0,-65.44574 49.24868,-118.5 110,-118.5c60.75132,0 110,53.05426 110,118.5z" fill="#9966ff" stroke="#000000" stroke-width="2"/><path d="M259.4608,183.07073c5.92927,1.97642 3.95285,7.90569 3.95285,7.90569l-0.75997,2.02472c0.02481,2.75505 -0.54067,5.49003 -1.03586,8.20032c-1.4973,8.19499 -0.54802,11.21596 -6.06684,19.45806c-3.86755,5.77601 -14.35582,10.16145 -19.92742,12.21299c-12.80468,4.71487 -27.45536,4.55238 -40.76691,2.25054c-4.77227,-0.82522 -9.8745,-0.62003 -14.29503,-2.59856c-2.98411,-1.33562 -4.68298,-4.56471 -6.95722,-6.91347c-8.6907,-8.97547 -17.12123,-18.22583 -25.67533,-27.3318c0,0 -4.27922,-4.5553 0.27608,-8.83452c4.5553,-4.27922 8.83452,0.27608 8.83452,0.27608c5.70563,6.07373 11.41126,12.14747 17.11689,18.2212c2.85281,3.03687 5.76222,6.02154 8.55844,9.1106c1.28882,1.42379 1.91282,3.70022 3.69213,4.42293c3.23656,1.3146 6.93871,0.82141 10.39905,1.3005c11.44652,1.58481 23.51035,2.4222 34.53902,-1.64853c1.00603,-0.37133 12.0518,-4.56648 14.07258,-7.78701c3.75178,-5.97925 4.84134,-15.34207 4.8973,-22.34161l1.24003,-3.97528c0,0 1.97642,-5.92927 7.90569,-3.95285z" fill="#000000" stroke="none" stroke-width="0.5"/><path d="M182.5852,130.42782c0.0962,0.47434 0.14917,0.99677 0.14917,1.57218c0,6.25 -6.25,6.25 -6.25,6.25l-6.92927,-8.22642c0.92831,-2.4732 0.33741,-5.27958 0.73968,-7.89046c0.38382,-2.49112 1.62526,-4.79437 2.04564,-7.27959c1.04698,-6.18956 0.90151,-9.29989 0.89395,-14.85353c0,0 0,-6.25 6.25,-6.25c6.25,0 6.25,6.25 6.25,6.25c-0.00802,6.6025 0.14885,9.51032 -1.10605,17.14647c-0.37831,2.30206 -1.60014,4.41452 -1.95436,6.72041c-0.31046,2.02106 0.23266,4.1052 -0.02029,6.13426c-0.01786,0.1433 -0.04096,0.28547 -0.06847,0.42668z" fill="#000000" stroke="none" stroke-width="0.5"/><path d="M220.48438,161.25c-6.25,0 -6.25,-6.25 -6.25,-6.25v-2c0.03278,-13.98953 3.05862,-27.9037 5.03887,-41.69596c0.69885,-4.86743 0.64788,-9.81333 0.97497,-14.71978c0,0 0.41574,-6.23616 6.6519,-5.82041c6.23616,0.41574 5.82041,6.6519 5.82041,6.6519c-0.33957,5.09355 -0.31084,10.22557 -1.02503,15.28022c-1.87706,13.28483 -5.00002,26.82735 -4.96113,40.30404v2c0,0 0,6.25 -6.25,6.25z" fill="#000000" stroke="none" stroke-width="0.5"/></g></g></svg>