<svg version="1.1" xmlns="http://www.w3.org/2000/svg" xmlns:xlink="http://www.w3.org/1999/xlink" width="447.3556" height="220.14903" viewBox="0,0,447.3556,220.14903"><g transform="translate(-17.51077,-49.3768)"><g data-paper-data="{&quot;isPaintingLayer&quot;:true}" fill-rule="nonzero" stroke="none" stroke-width="0.5" stroke-linecap="butt" stroke-linejoin="miter" stroke-miterlimit="10" stroke-dasharray="" stroke-dashoffset="0" style="mix-blend-mode: normal"><path d="M32.65908,68.74921c4.61363,-3.11418 11.05773,-6.55537 14.0041,-7.27218c3.8202,-0.92939 9.40735,-0.33439 13.38242,-0.33439c9.6653,0 20.35472,-1.14042 29.89894,0.33439c1.10603,0.17091 1.89286,1.35975 3.003,1.5015c3.02418,0.38616 6.09136,-0.33439 9.1401,-0.33439c6.50651,0 13.01301,0 19.51952,0c7.25086,0 14.83954,-0.59207 22.05203,0.04259c3.03271,0.26686 5.97402,1.26201 9.00901,1.5015c6.14376,0.4848 12.32566,-0.04259 18.48851,-0.04259c4.49602,0 9.02873,0.66944 13.48772,0.09366c4.46916,-0.57709 8.72534,-2.35526 13.19097,-2.95903c5.77229,-0.78043 21.86691,-2.00132 28.28443,-2.96401c2.43645,-0.36549 4.75557,-1.47564 7.21622,-1.59844c12.25984,-0.61185 26.38707,1.03719 39.03664,-0.04825c3.52612,-0.30257 6.98138,-1.23638 10.51051,-1.5015c13.64676,-1.0252 27.73348,-0.03145 41.42665,-0.03145c11.01101,0 22.02202,0 33.03303,0c6.93178,0 14.62041,0.58478 21.49152,0.04259c3.03499,-0.23949 5.97454,-1.25553 9.00901,-1.5015c12.43976,-1.00835 25.0993,0.90835 37.53754,0c13.55134,-0.98964 24.53325,-10.36461 36.69706,2.14553c2.58274,2.65628 2.35947,9.23605 2.35947,13.31488c0,14.01401 0,28.02803 0,42.04204c0,14.09089 0.97526,28.60536 -0.01552,42.66471c-0.64081,9.09325 -2.25239,18.09695 -3.01164,27.18107c-0.18759,2.24449 0.29437,4.53385 -0.0695,6.75658c-0.66677,4.07302 -2.28594,7.94755 -3.003,12.01201c-0.81165,4.60058 0.58667,9.693 0.06221,14.37384c-0.46862,4.18247 -1.00204,8.36487 -1.80444,12.49631c-0.24595,1.26635 -1.11644,2.36241 -1.32852,3.63487c-0.29465,1.76792 0.17833,3.6166 -0.17298,5.37414c-0.21936,1.09744 -1.21221,1.92188 -1.5015,3.003c-0.42678,1.59496 0.09914,3.42701 -0.61712,4.91463c-1.02271,2.12409 -2.93856,3.68722 -4.41097,5.52834c-1.68805,2.11075 -2.82255,4.8266 -5.07039,6.32726c-1.90615,1.27255 -4.51522,0.84867 -6.70273,1.53248c-1.06818,0.33391 -2.002,1.001 -3.003,1.5015c-1.001,0 -2.03189,-0.24278 -3.003,0c-1.08574,0.27143 -1.90558,1.28202 -3.003,1.5015c-1.47234,0.29447 -3.03216,-0.29447 -4.5045,0c-1.09742,0.21948 -1.91402,1.24339 -3.003,1.5015c-1.4123,0.33474 -2.91563,0.00404 -4.34762,0.24073c-8.94186,1.47798 -16.81721,5.29313 -26.02181,6.05707c-7.03113,0.58355 -14.12934,-0.5026 -21.16591,0.01114c-3.52968,0.2577 -6.98138,1.23638 -10.51051,1.5015c-6.67996,0.50182 -13.67163,0.03145 -20.40563,0.03145c-2.61234,0 -11.11569,0.03026 -12.51279,-0.16141c-1.85891,-0.25502 -3.53423,-1.30661 -5.37414,-1.67448c-3.47039,-0.69387 -7.0777,-0.64076 -10.51051,-1.5015c-4.88077,-1.22381 -9.55727,-3.15234 -14.3359,-4.7285c-2.84999,-0.85515 -5.64149,-1.93738 -8.54997,-2.56544c-0.90363,-0.19513 -1.84632,0.11241 -2.77074,0.12082c-7.00672,0.06374 -14.01401,0 -21.02102,0c-13.12632,0 -26.71398,0.85496 -39.81576,-0.02415c-7.14686,-0.47955 -14.13784,-2.41805 -21.27531,-3.02144c-13.80133,-1.16673 -28.76329,0.04259 -42.51254,0.04259c-25.52553,0 -51.05105,0 -76.57658,0c-13.90214,0 -28.19531,0.93684 -42.04204,0c-4.72333,-0.31957 -10.01344,0.55841 -14.07915,-1.86686c-8.72404,-5.20407 -7.42986,-14.62623 -7.42986,-22.64515c0,-7.50751 0,-15.01502 0,-22.52252c0,-2.54089 0.63311,-6.0419 0.16141,-8.50823c-0.29732,-1.55454 -1.22888,-2.94544 -1.5015,-4.5045c-0.2098,-1.1998 -0.16141,-8.10882 -0.16141,-9.50979c0,-7.25948 -0.17287,-13.9747 1.59516,-21.04681c0.13081,-6.7153 3.48937,-12.59915 4.47168,-19.22395c0.77976,-5.25878 -0.06083,-11.42518 -0.06083,-16.7863c0,-5.9452 0.74952,-12.4167 0.06083,-18.2878c-0.29732,-2.53468 -1.25721,-4.96716 -1.5015,-7.50751c-0.69474,-7.22465 -0.06083,-14.96839 -0.06083,-22.25274c0,0 0,-11.22631 10.639,-12.40094z" fill="#ffd200"/><path d="M37.5366,183.75375c0,-12.5 12.5,-12.5 12.5,-12.5h4.5045c4.52845,0 9.28897,0.39916 13.78329,0.06083c0.20502,-0.01543 0.41474,-0.05847 0.62718,-0.11953c-0.01859,-1.31291 0.13024,-2.64528 0.11655,-3.95782c-0.04323,-4.14607 -0.54006,-8.66293 -0.08712,-12.80751c-1.05213,-0.68027 -2.00309,-1.5598 -3.0472,-2.25587c-6.73999,0.60429 -6.9185,1.01789 -16.39905,-6.87126c-7.82897,-6.5148 -11.02116,-16.28015 -8.66077,-25.98232c0.33658,-1.38347 2.95415,-6.74834 3.98828,-8.72426c0.8288,-1.58362 1.43034,-3.32153 2.54131,-4.72171c1.7096,-2.15463 3.63044,-4.18947 5.83465,-5.83465c1.79376,-1.33883 4.18168,-1.70614 6.00601,-3.003c1.5216,-1.08167 2.42646,-2.86987 3.88852,-4.03075c2.16797,-1.72138 4.47032,-3.30961 6.93747,-4.56517c12.56168,-6.39274 27.95896,-4.27406 41.52793,-4.27406c0,0 12.5,0 12.5,12.5c0,12.5 -12.5,12.5 -12.5,12.5c-6.50585,0 -13.01395,0.05083 -19.51952,0c-3.78778,-0.0296 -7.49908,0.06135 -11.02462,1.73194c-2.47744,1.17395 -5.85072,5.45695 -7.19202,6.41909c-1.81877,1.30464 -4.01517,1.97997 -6.00601,3.003c-0.47061,0.24183 -0.41275,0.97457 -0.63304,1.45565c-0.46594,1.01755 -0.91611,2.04916 -1.5015,3.003c-0.1581,0.25762 -0.83031,0.50489 -0.8233,0.96749c0.00378,0.24951 0.43279,0.24901 0.65531,0.36196c1.2866,0.65305 2.48229,1.54629 3.87158,1.93579c1.20642,0.33824 2.50226,0.13464 3.75339,0.20196c1.5015,1.001 2.83741,2.31213 4.5045,3.003c1.87818,0.77835 4.32069,0.11761 5.95234,1.33052c2.49755,1.85658 3.98841,4.79063 5.74124,7.36205c1.55365,2.27923 3.26634,4.54505 4.15528,7.15629c0.71403,2.09745 0.4297,4.41221 0.53635,6.6253c0.21593,4.48075 0.03491,9.0267 0,13.51351c-0.05947,7.64438 0.7571,14.39867 -4.25098,21.33511c-2.00817,2.78142 -5.5121,4.22795 -8.69682,5.50332c-8.33227,3.33678 -17.83409,2.17809 -26.57923,2.17809h-4.5045c0,0 -12.5,0 -12.5,-12.5z" fill="#ffffff"/><path d="M189.50606,198.59859c-8.83883,8.83883 -17.67767,0 -17.67767,0l-3.84301,-4.75017c-1.36923,-2.73847 -2.57728,-5.69039 -4.13554,-8.32509c-1.14918,-1.94304 -2.72231,-3.65173 -3.62306,-5.72167c-0.92586,-2.12766 -0.9874,-4.55029 -1.79364,-6.7261c-0.77677,-2.09628 -2.02991,-3.98687 -2.92147,-6.03696c-1.16119,-2.6701 -5.03671,-2.8402 -7.50445,-4.47802c0.06895,0.56175 0.11494,1.12075 0.11494,1.67365c0,4.5045 0,9.00901 0,13.51351c0,1.81128 0.11377,10.03882 -0.33439,11.88092c-0.28173,1.15803 -0.7851,2.24154 -1.31956,3.3146c-0.50985,3.41027 -2.72484,10.81799 -12.34755,10.81799c-12.5,0 -12.5,-12.5 -12.5,-12.5l1.31966,-7.09167c1.18638,-0.65439 0.18184,-4.57837 0.18184,-6.42184c0,-4.5045 0,-9.00901 0,-13.51351c0,-4.80262 -0.64169,-10.16384 0.33439,-14.88392c0.22664,-1.09596 1.34464,-1.8949 1.5015,-3.003c0.25328,-1.78923 -0.43541,-3.60959 -0.31023,-5.41231c0.49363,-7.10896 2.38788,-16.81419 3.003,-24.02402c0.3413,-4.00038 -1.02233,-18.30217 -0.02415,-18.7428v-4.5045c0,-6.90356 5.59644,-12.5 12.5,-12.5c6.90356,0 12.5,5.59644 12.5,12.5v4.5045c1.70735,4.16839 0.00536,9.00901 0,13.51351c-0.00195,1.63447 0.08247,3.27284 0.05987,4.90664c2.44155,-1.25315 5.26764,-1.8424 7.58601,-3.33014c1.64396,-1.05496 2.55641,-2.9831 4.07676,-4.20952c0.87107,-0.70267 2.12909,-0.80237 3.003,-1.5015c1.65813,-1.3265 2.83148,-3.19683 4.5045,-4.5045c1.20417,-0.9412 2.73976,-1.36551 4.0378,-2.17235c7.39216,-4.59487 11.3026,-9.18918 20.67371,-9.16468c2.73213,0.00714 5.13804,1.85981 7.70706,2.78971c0,0 11.18034,5.59017 5.59017,16.77051c-3.91926,7.83851 -10.5863,7.43368 -14.22172,6.49135c-2.83606,2.13949 -6.41476,3.2961 -9.16926,5.56651c-1.63857,1.3506 -2.84637,3.178 -4.5045,4.5045c-0.87391,0.69913 -2.12655,0.80556 -3.003,1.5015c-1.79652,1.42653 -2.96926,3.61242 -4.93225,4.79949c-1.76343,1.06639 -4.13351,0.74708 -5.92478,1.76602c-0.53626,0.30505 0.07853,1.38858 -0.36847,1.81382c-1.13907,1.08362 -2.3316,2.11048 -3.55974,3.09514c0.13416,0.07536 0.2685,0.15038 0.40302,0.22502c0.5005,1.5015 0.40132,3.36669 1.5015,4.5045c0.92966,0.96145 2.78098,0.27857 3.87171,1.0525c2.24317,1.59164 4.12506,3.68002 5.83465,5.83465c2.78437,3.50919 4.49968,7.79229 6.08754,11.98106c0.64069,1.69014 0.51084,3.61885 1.20937,5.28591c0.52303,1.24824 1.67827,2.13188 2.38295,3.28734c1.85312,3.03853 3.2801,6.50618 4.87347,9.69292l-0.84,-1.74716c0,0 8.83883,8.83883 0,17.67767z" fill="#ffffff"/><path d="M230.21678,199.25676c-12.5,0 -12.5,-12.5 -12.5,-12.5v-1.5015c0.11146,-1.9583 -0.0875,-3.95935 0.33439,-5.87491c0.58411,-2.65209 2.40473,-4.97237 2.76227,-7.66439c0.78778,-5.93141 1.77998,-12.56669 3.37169,-18.35742c0.62435,-2.27143 2.10191,-4.24309 2.76621,-6.50316c0.20234,-0.68838 -0.19411,-1.42385 -0.22555,-2.14066c-0.10963,-2.5001 0,-5.00501 0,-7.50751c0,-10.48632 0.44732,-20.64095 -1.33143,-30.97805c0,0 -2.05499,-12.32992 10.27494,-14.38491c12.32992,-2.05499 14.38491,10.27494 14.38491,10.27494c1.91242,11.7787 1.67158,23.17147 1.67158,35.08802c0,4.20779 0.66683,10.41523 -0.22555,14.37586c-0.66729,2.96162 -2.44642,5.5815 -3.2398,8.51186c-1.27673,4.71562 -1.75625,9.96958 -2.63432,14.67561c-0.55528,2.97601 -1.2792,5.92663 -2.18428,8.81554c-0.18136,0.57887 -1.28983,1.44777 -0.72506,1.66918v1.5015c0,0 0,12.5 -12.5,12.5z" fill="#ffffff"/><path d="M354.8414,82.66517c12.5,0 12.5,12.5 12.5,12.5v3.003c0,6.62559 1.0139,14.36995 -0.33439,20.88993c-0.22664,1.09596 -1.22826,1.91772 -1.5015,3.003c-0.13563,0.53868 0.33439,1.0771 0.33439,1.63259c0,1.96147 0.20249,3.98834 -0.33439,5.87491c-0.76955,2.70421 -2.56936,5.01926 -3.51893,7.66563c-1.2306,3.4296 -1.69435,7.10993 -3.003,10.51051c-1.79356,4.66065 -5.83333,10.18758 -6.8186,15.48876c-0.23612,1.27041 0.13277,2.61717 -0.17298,3.87264c-0.26482,1.08737 -1.2754,1.90693 -1.5015,3.003c-0.35414,1.71678 0.35314,3.59219 -0.20196,5.25489c-0.72958,2.18531 -2.63677,3.81765 -3.53522,5.93912c-0.87402,2.06377 -0.64911,4.53435 -1.7315,6.49687c-1.62357,2.94375 -4.32439,5.16181 -6.22716,7.93329c-1.905,2.77473 -3.4486,5.78098 -5.1729,8.67147c-5.62784,0.1642 -11.58248,2.38957 -16.88352,0.49261c-5.17044,-1.85023 -6.29272,-8.96735 -7.97986,-13.3571c-0.64,-1.66519 -1.65749,-3.19132 -2.11862,-4.91463c-0.25875,-0.96698 0.05652,-2.0036 0,-3.003c-0.00801,-0.1416 -0.06529,0.5149 -0.14727,0.39917c-1.30489,-1.84209 -2.72818,-3.64918 -3.62306,-5.72167c-0.27774,-0.64323 -2.47825,-9.98191 -3.50859,-11.6893c-0.6436,-1.06653 -2.0497,-1.51775 -2.70802,-2.57526c-1.45041,-2.32992 -2.634,-4.84469 -3.52659,-7.43997c-0.19257,-0.55992 0.69069,-1.23941 0.37026,-1.73733c-0.28382,-0.44103 -0.61081,-0.85027 -0.96318,-1.24067c0.10388,5.00068 0.1097,10.00294 -0.32783,14.85132c-0.25589,2.83557 -1.15203,5.57786 -1.62011,8.38621c-0.62437,3.74601 -0.87009,7.55662 -1.65645,11.272c-0.16687,0.78845 -1.16953,1.30641 -1.17632,2.1123c-0.0077,0.91387 0.75833,1.66307 1.13749,2.4946c0,0 3.0317,12.12678 -9.09509,15.15848c-12.12678,3.0317 -15.15848,-9.09509 -15.15848,-9.09509c-0.62184,-3.17247 -1.85786,-6.28458 -1.86551,-9.51741c-0.00563,-2.37817 1.38134,-4.56061 1.82668,-6.89671c1.03641,-5.43666 2.22366,-10.86642 2.72945,-16.37783c0.90825,-9.8969 -0.06083,-20.34877 -0.06083,-30.29981c0,-1.40096 -0.04839,-8.30998 0.16141,-9.50979c0.27262,-1.55907 1.19127,-2.95248 1.5015,-4.5045c0.25328,-1.2671 -0.22251,-2.64248 0.17298,-3.87264c0.68508,-2.13089 2.26478,-3.89294 3.003,-6.00601c0.18321,-0.52441 -0.33439,-1.0771 -0.33439,-1.63259c0,-2.37124 0.01532,-4.84125 0.39915,-7.20548c-0.13257,-0.75994 -0.05741,-1.37395 0.35953,-1.73863c0.1939,-0.75734 0.4373,-1.49769 0.74282,-2.21374v-2.35567c0,-6.90356 5.59644,-12.5 12.5,-12.5c6.90356,0 12.5,5.59644 12.5,12.5v1.8626c0.9221,1.44101 0.46001,3.4436 0.98329,5.08608c0.83847,2.6318 2.33389,5.03586 3.05887,7.70115c0.75401,2.77202 0.54645,5.75391 1.35112,8.51165c0.50207,1.72066 1.79099,3.11283 2.51872,4.75086c1.27915,2.87922 2.50956,5.7894 3.49367,8.78234c0.45599,1.38679 0.09562,3.03058 0.80927,4.30409c1.80784,3.22611 4.87172,5.64824 6.59993,8.9177c0.51646,0.97705 0.50154,2.144 0.43262,3.2827c4.12136,3.3443 5.43279,8.67245 7.1732,13.52553c0.55207,1.53943 0.4016,3.28896 1.03926,4.79495c0.08387,0.19807 0.18502,0.38615 0.29841,0.56718c0.13936,-0.19505 0.254,-0.40386 0.33053,-0.63406c0.39537,-1.18918 -0.43864,-2.52349 -0.20196,-3.75411c0.21136,-1.09901 1.22126,-1.91951 1.5015,-3.003c0.17866,-0.69073 -0.32,-1.43522 -0.17298,-2.13337c0.18089,-0.85902 3.2203,-10.49145 3.7931,-11.79027c1.31839,-2.98944 3.23103,-5.7073 4.40331,-8.757c1.30736,-3.40108 1.74002,-7.0927 3.003,-10.51051c0.57859,-1.56573 1.7638,-2.842 2.48708,-4.34638c0.05188,-0.1079 -0.33439,-0.01137 -0.33439,-0.13109c0,-2.46133 -0.09431,-4.95271 0.33439,-7.37642c0.19493,-1.10205 1.11094,-1.95421 1.5015,-3.003c0.36665,-0.98457 -0.33439,-2.08347 -0.33439,-3.13409c0,-4.004 0,-8.00801 0,-12.01201v-3.003c0,0 0,-12.5 12.5,-12.5z" fill="#ffffff"/><path d="M349.84891,194.26426c0,-12.5 12.5,-12.5 12.5,-12.5h1.5015c1.9583,0.11146 3.96903,-0.12928 5.87491,0.33439c5.31932,1.2941 9.53787,5.20123 15.1719,5.76527c4.97165,0.49773 9.99272,-0.09366 14.98923,-0.09366c3.003,0 6.00601,0 9.00901,0c0.25065,0 0.50776,-0.01908 0.76892,-0.05008c1.43239,-6.77683 5.41803,-11.23825 9.02316,-16.96584c0.33467,-0.53169 0.37173,-1.1487 0.317,-1.79549c-1.34545,-0.82819 -2.51099,-1.94881 -3.91643,-2.67086c-1.76266,-0.90558 -3.64634,-1.56903 -5.53401,-2.17211c-2.13012,-0.68054 -4.41143,-0.86473 -6.49697,-1.67161c-4.42723,-1.71286 -8.36877,-4.49002 -12.44777,-6.91819c-2.62224,-1.56098 -5.84644,-2.28568 -8.00445,-4.4434c-2.88636,-2.88597 -5.08687,-6.50129 -6.69412,-10.25318c-0.87247,-2.03665 -0.35757,-4.41687 -0.53635,-6.6253c0,-5.02257 -0.89218,-12.21772 0.95151,-16.79555c0.88071,-2.18679 3.05421,-3.60041 4.41097,-5.52834c0.87685,-1.24598 1.18696,-2.8961 2.27105,-3.96666c1.85476,-1.8316 8.64799,-6.27701 11.44623,-8.1341c4.7723,-3.16721 9.6408,-5.9026 14.8571,-8.28722c1.8912,-0.86456 3.68844,-2.04892 5.72126,-2.48677c2.40615,-0.51827 4.91636,-0.25513 7.37642,-0.33439c8.84381,-0.28492 18.40689,-0.52871 26.74079,2.88691c2.49327,1.02185 4.08138,3.51918 6.12207,5.27876c0,0 8.83883,8.83883 0,17.67767c-8.83883,8.83883 -17.67767,0 -17.67767,0c0.22571,-1.41427 -2.77212,-0.86804 -4.20418,-0.88593c-3.61027,-0.04509 -7.36879,0.30316 -10.98101,0.04259c-0.55406,-0.03997 -1.07958,-0.38684 -1.63259,-0.33439c-1.2801,0.12141 -2.13616,1.44567 -3.28775,2.01773c-3.1501,1.56483 -6.245,3.26818 -9.16693,5.22629c-1.49909,1.00461 -2.95033,2.08591 -4.5045,3.003c-0.64443,0.38027 -1.54893,0.33526 -2.06728,0.87491c-0.50032,0.52088 -0.24166,1.50902 -0.73195,2.03935c-0.17475,0.18902 -0.33226,0.34736 -0.47389,0.47824c-0.07732,0.41443 -0.16964,0.83401 -0.16964,1.22189c0,1.46738 0,2.93476 0,4.40214c0.9679,0.3085 1.88883,0.82334 2.78309,1.303c4.09688,2.19744 4.31594,3.57361 8.57325,5.09382c1.78102,0.63597 3.72698,0.71551 5.51504,1.3314c8.89291,3.0631 21.16597,8.64565 25.72065,17.62063c1.18333,2.33175 0.82087,5.17499 0.95151,7.78655c0.33393,6.67556 0.08822,9.81212 -2.77256,16.0024c-1.51408,3.27622 -4.58721,5.69042 -6.00601,9.00901c-3.50813,8.2056 -2.10926,13.46951 -10.66331,20.15626c-2.56181,2.00258 -6.34609,1.48002 -9.57464,1.86686c-4.77657,0.57233 -10.18108,0 -15.01502,0c-9.02287,0 -17.25178,0.45829 -26.01737,-2c-1.9623,-0.55032 -3.89981,-1.2005 -5.7932,-1.95451c-1.31419,-0.52335 -2.58744,-1.15746 -3.80963,-1.86966c-0.13071,-0.07617 -0.36062,-0.32269 -0.41584,-0.18184h-1.5015c0,0 -12.5,0 -12.5,-12.5z" fill="#ffffff"/></g></g></svg>