<svg version="1.1" xmlns="http://www.w3.org/2000/svg" xmlns:xlink="http://www.w3.org/1999/xlink" width="540.36638" height="400.90416" viewBox="0,0,540.36638,400.90416"><g transform="translate(34.88684,16.67952)"><g data-paper-data="{&quot;isPaintingLayer&quot;:true}" fill-rule="nonzero" stroke="none" stroke-width="0.5" stroke-linecap="butt" stroke-linejoin="miter" stroke-miterlimit="10" stroke-dasharray="" stroke-dashoffset="0" style="mix-blend-mode: normal"><path d="M336.63851,162.25119c-0.32434,0.2536 -0.65627,0.49694 -0.99527,0.73075c-0.78477,0.76848 -1.63778,1.46884 -2.57574,2.0844c-0.65602,0.43053 -1.33083,0.81598 -2.02206,1.16198c-0.10449,0.51486 -0.22906,1.02856 -0.37207,1.53786c-0.08793,0.05226 -0.17587,0.1045 -0.26383,0.15671c0.07411,-0.00369 0.14822,-0.00733 0.22234,-0.01089c-0.87345,3.03059 -2.39746,5.89358 -4.23336,7.90065c-1.77333,1.93867 -3.8688,3.4341 -6.1623,4.65555c3.10485,-0.10428 6.1975,-0.15099 9.25367,-0.1934c0.52258,-0.00725 1.04689,-0.0209 1.57266,-0.03988c8.3666,-1.97434 16.7343,-3.94389 25.10399,-5.90482c7.64457,-1.79103 15.7354,-8.44397 22.94353,-5.33107c0.65978,0.28493 1.03903,0.68939 1.20253,1.18578c2.28866,-0.33191 4.58312,-0.6325 6.87764,-0.9326l5.96454,3.7449c0.00669,-1.59345 0.04587,-3.15206 0.12613,-4.56235c0.82437,-0.11644 1.64811,-0.23636 2.47093,-0.3612c7.80095,-1.18357 15.60228,-2.36467 23.40382,-3.54444c0.14801,-2.04782 -0.28034,-4.14901 0.0967,-6.16978c0.49811,-2.66958 2.34582,-4.98086 2.76227,-7.66439c0.38376,-2.4729 -0.32874,-5.02669 0,-7.50751c0.27109,-2.04574 1.20968,-3.96312 1.5015,-6.006c0.23474,-1.6433 -0.20323,-3.34178 0.06775,-4.9795c0.25837,-1.56149 1.20418,-2.94996 1.50151,-4.5045c0.43886,-2.29461 -0.16141,-4.67053 -0.16141,-7.00673c0,-1.87614 0.00171,-3.75011 0.01351,-5.62353c-3.62426,1.17206 -7.25923,2.30542 -10.91425,3.37887c0.37797,2.32387 -1.82773,6.50227 -1.97131,9.20051l5.25193,8.54715c-1.98843,0 -3.97687,0 -5.96531,0c0.69063,0.15412 1.34028,0.42414 1.93031,0.85991c1.88034,1.38874 3.43021,3.10901 4.81828,4.9916c-4.50273,1.60434 -9.49475,2.09545 -14.41612,2.74132l-1.89441,2.3808c0.53195,-0.76099 1.07165,-1.54244 1.57104,-2.33812c-2.36039,0.31353 -4.70168,0.66911 -6.96196,1.20693c-13.66448,3.25134 -27.1539,7.46489 -41.04921,9.51659c-1.97468,0.29157 -3.95522,0.5346 -5.93959,0.74588c-1.28391,0.79564 -2.56737,1.59202 -3.85118,2.38782c5.94644,-0.46211 11.88377,-0.80655 17.79371,-0.93574c8.50164,-0.18584 17.00734,-0.00869 25.51101,-0.01045c2.5499,-0.00053 5.10039,-0.02245 7.65121,-0.05592c0.89783,-2.47202 1.76457,-4.96674 3.08396,-7.23168c0.47233,-0.81083 1.05721,-1.66355 1.67489,-2.5478c1.5259,3.26229 3.8006,6.30692 5.1782,9.61232c4.21343,-0.07731 8.42677,-0.1512 12.63878,-0.17722l-10.18199,5.88077c-4.94336,0 -9.88673,0 -14.83008,0c0.16589,-0.43299 0.36556,-0.85531 0.57639,-1.27435c-11.33013,0.30664 -30.92712,0.83628 -38.39131,1.03796c-4.36921,-0.69357 -8.66998,-1.74285 -12.94839,-2.90833c-1.3181,0.81546 -2.63706,1.62948 -3.95774,2.44065c-0.90219,-0.08233 -1.80414,-0.1713 -2.70583,-0.26547zM406.05594,214.61097c3.70544,-0.26031 7.5513,-0.1842 11.36055,-0.05962c0,-0.48138 0,-0.96275 0,-1.44413c-3.80724,0.36832 -7.59861,0.84277 -11.36055,1.50375zM408.71817,216.13966l3.02682,1.19879c-1.87782,3.04008 -3.40552,6.36896 -5.07362,9.58203c-1.54692,-2.49343 -2.78183,-5.14722 -3.65719,-7.76964c-0.23023,-0.68972 -0.43544,-1.38623 -0.62085,-2.08813c-4.3731,0.64745 -8.74432,1.30922 -13.11757,1.95566c-0.37885,2.05289 -1.23894,4.39592 -1.24784,6.22578l8.72445,8.21277c-1.27139,0.63569 -2.47861,1.44006 -3.74391,2.09175c5.12935,-0.40792 10.25875,-0.81525 15.38821,-1.22188l0.49881,0.14739v-0.15735h7.9666c0.20065,-1.68098 0.40016,-3.36325 0.59701,-5.04752c0.36681,-3.13851 -0.04259,-6.31964 -0.04259,-9.4795c0,-1.66824 0,-3.33647 0,-5.0047c-2.89788,0.46429 -5.79507,0.93456 -8.69831,1.35457zM385.90942,228.51976c-2.77661,-2.42524 -10.17829,-4.91147 -10.77849,-7.30801c-0.45716,0.09884 -0.91326,0.19745 -1.36767,0.2957l0.22501,-0.34065c-1.35235,0.17602 -2.70534,0.34729 -4.05907,0.51295c-8.37149,1.02441 -16.77526,1.78261 -25.16375,2.6625c-0.04037,0.13619 -0.08474,0.27389 -0.1332,0.41309c-0.34182,-0.09364 -0.6832,-0.19079 -1.02423,-0.29086c-1.58409,0.16846 -3.16755,0.34189 -4.75006,0.52292c0.45009,-0.54049 0.85717,-1.16932 1.48255,-1.41154c0.06642,-0.02572 0.13284,-0.05142 0.19928,-0.07711c-2.98978,-0.98852 -5.96873,-2.06454 -8.98727,-2.82071l2.16974,-4.22837c-4.03438,0.56202 -8.06835,1.12713 -12.10287,1.68812c0.46111,1.91961 -0.34578,4.5172 -1.18998,7.06693c4.28884,-0.00518 8.57763,0.02562 12.86547,0.10308c0.43406,0.00784 0.86905,0.08754 1.30335,0.1874c-1.62345,0.2021 -3.2456,0.41469 -4.8661,0.64059c-3.39537,0.47332 -6.77391,1.04944 -10.14405,1.67713c-0.22228,0.74805 -0.40757,1.46766 -0.51992,2.13763c-0.40235,2.39918 -0.22458,5.99246 -2.49842,6.85708c-4.59428,1.74696 -9.51327,2.22887 -14.46776,2.57246c-0.3007,0.91643 -0.68999,1.72687 -1.14336,2.4436c4.65683,-0.00272 9.31309,-0.01436 13.96889,-0.03406c23.51553,-1.8847 47.03111,-3.76872 70.54759,-5.64146zM214.37414,241.51217c-3.20916,0.13539 -6.41896,0.28081 -9.61787,0.25587c-0.04406,0.17793 -0.09079,0.35664 -0.14021,0.53608c0.90471,-0.11372 1.81127,-0.21374 2.72003,-0.29753c2.29381,-0.21148 4.59275,-0.31811 6.89479,-0.36155c0.04778,-0.04426 0.09553,-0.08855 0.14327,-0.13287zM218.67526,229.85491c2.39808,-0.33033 4.78471,-0.66422 7.16302,-0.99998l-0.31439,-0.41969c1.54045,-0.3667 3.08184,-0.72958 4.62362,-1.09083c0.03149,-0.02348 0.063,-0.04693 0.09453,-0.07034c0.08318,-0.00346 0.16635,-0.00687 0.24953,-0.01024c3.54083,-0.82908 7.08355,-1.65044 10.62166,-2.49063c-2.26944,0.00298 -4.72188,0.00518 -7.22445,0.00678c1.19987,-0.74806 2.4335,-1.444 3.70801,-2.07681c1.9935,-0.9898 4.09289,-1.63956 6.25808,-2.07787c0.00926,-0.60808 0.02009,-1.20461 0.02889,-1.78535c0.01312,-0.86543 0.1634,-1.85341 0.43553,-2.84447c2.10218,-0.05293 4.20413,-0.11137 6.30597,-0.17412c-0.18995,1.26442 -0.32693,2.51001 -0.1059,3.45433c0.03949,0.16871 0.10545,0.34541 0.19172,0.52775c2.41338,-0.14866 4.85473,-0.20708 7.27513,-0.33219c1.37128,-0.61418 2.74167,-1.21885 4.11106,-1.73862c-0.36178,-0.68769 -0.84274,-1.47561 -1.2125,-2.24683c0.7364,-0.02582 1.47282,-0.05194 2.20926,-0.0783l-2.46527,-0.50311c-0.39823,-1.00731 -0.49477,-1.93221 0.25698,-2.49737c2.0776,-1.56194 4.54324,-2.0674 7.1166,-2.17316l-10.31265,-3.72115c1.94955,-1.55233 3.89232,-3.11501 5.84498,-4.66262c1.26722,0.4308 2.49918,0.93073 3.6565,1.52272c0.49846,-1.56221 1.45148,-3.38152 2.24419,-5.11017c-0.58774,0.11857 -1.1755,0.23712 -1.76326,0.35565c0.79217,-0.60727 1.58783,-1.20923 2.38804,-1.80425c0.03381,-0.08559 0.06672,-0.17066 0.09864,-0.25518c-4.43487,0.57218 -8.88986,1.04116 -13.30777,1.69773c-2.75584,0.40956 -5.51172,0.79871 -8.26784,1.16961c0.63227,-1.2892 1.22255,-2.61946 1.81942,-3.94327c-3.58664,0.02848 -7.19564,-0.0226 -10.67885,0.36002c-3.0514,0.33519 -6.1107,0.69544 -9.17581,1.06867l8.56815,2.87618c2.36666,0.00206 4.62828,0.00471 6.67421,0.00809c-1.60965,0.20955 -3.2194,0.41315 -4.8293,0.61121l5.99728,2.01318c0.51419,-0.83947 0.98832,-1.71812 1.4393,-2.61939c4.17819,0.0093 6.97499,0.02279 7.07493,0.04223c0.9825,0.19116 1.99446,0.39556 3.01643,0.62452c-3.61843,0.72767 -7.23711,1.45412 -10.85607,2.17909l2.25702,0.75764c-0.05166,0.07921 -0.10306,0.15863 -0.15421,0.23827l-2.52543,-0.91126c-6.88452,1.37892 -13.7701,2.7525 -20.65703,4.11913c-0.38743,0.76471 -0.73443,1.53028 -0.99456,2.29769l-3.23134,7.1506c6.69667,-0.00105 13.38587,-0.09918 20.07219,-0.25654c-0.86711,1.17711 -1.81724,2.28422 -2.89471,3.28402c-3.90604,3.62446 -12.64813,3.25382 -17.5924,4.89348c-0.5248,0.17404 -1.04378,0.36331 -1.55834,0.56412c-1.11429,0.00001 -2.18009,-0.00003 -3.18093,-0.00012l-1.76324,2.93874l-0.34918,-0.20951c-0.44255,0.89987 -0.96633,1.75884 -1.59043,2.5673c1.76125,0.04445 3.50517,0.00876 5.20495,-0.22538zM183.04553,205.89136c-3.62482,0.28744 -7.25255,0.57339 -10.88362,0.86275l-2.70819,-1.50468c1.09882,-0.93767 2.19817,-1.87467 3.2991,-2.80973c-2.30274,0.06478 -5.0209,0.14091 -7.95499,0.22289l-5.16847,-2.87162c6.85567,-1.1018 13.70624,-2.45293 20.56942,-3.60131c0.74526,-0.61583 1.49229,-1.2295 2.24137,-1.84063c-0.12965,-0.26664 -0.25311,-0.54265 -0.37391,-0.82268c-8.05537,1.40987 -16.11076,2.81968 -24.16603,4.23009c-0.29152,0.05104 -0.58365,0.10791 -0.87633,0.16998c0.02438,-0.03148 0.04874,-0.063 0.07305,-0.09456c-4.24076,1.19903 -8.48308,2.39255 -12.7247,3.58856c0.53821,0.01363 1.07606,0.02037 1.61325,0.01408c-2.19735,0.69433 -4.37931,1.24178 -6.51879,1.38355c-0.62357,0.19053 -1.24549,0.392 -1.86621,0.60142c-4.66671,0.12954 -7.84695,0.21768 -8.06838,0.22383l-1.0772,-0.68479c0.88162,0.02712 1.76152,0.01894 2.637,-0.07957c1.0154,-0.11426 1.99393,-0.43755 2.97263,-0.7576c-0.11703,-0.04266 -0.23383,-0.08739 -0.35041,-0.13421c-4.01745,-1.61343 2.52101,-8.28351 3.78151,-12.42527l-2.07727,-2.61742c-2.39155,1.28156 -5.00811,2.68313 -7.68101,4.11455c-0.56007,3.23495 -1.8203,6.47621 -2.72003,9.71422l-2.63219,-1.67329l-1.83693,-4.19162c-0.87313,0.46743 -1.73591,0.9293 -2.58222,1.38234l-5.23823,-3.32997c0.37588,-0.36719 0.74485,-0.74421 1.10838,-1.12896c-7.39732,5.17803 -14.45966,10.09361 -15.18247,10.49289c0.8059,0.27592 1.61606,0.5176 2.4598,0.55435c1.43939,0.06269 2.87928,0.10018 4.31953,0.11943c-1.03709,0.55497 -1.69252,0.90568 -1.85486,0.99257l-4.30646,0.27247c-0.73905,-0.2574 -1.48033,-0.49741 -2.22499,-0.7111l0.63439,-1.26881c-0.32411,-0.1036 -0.59359,-0.29534 -0.81919,-0.5579c0.31743,0.0908 0.63222,0.19551 0.94609,0.30409l3.06683,-6.13372c-1.77897,0.82076 -3.45172,1.56044 -5.1229,2.24419c-0.06556,-0.55258 -0.11658,-1.12865 -0.1655,-1.7081l-18.87377,0.88833c0.60546,-2.37841 1.22812,-4.74722 2.0453,-7.00738c-1.3978,0.15375 -2.8177,0.25602 -4.22088,0.41853c0.311,-2.2875 0.57558,-4.60198 0.99232,-6.82801c-1.72474,1.45246 -3.45408,2.89945 -5.18935,4.33934c-3.59228,1.70906 -7.18359,3.42014 -10.77524,5.13053c-0.00892,0.35632 -0.01635,0.71284 -0.02247,1.06926c0.39252,1.28927 1.11409,2.49406 1.33139,3.82534c0.07722,0.47314 0.02921,0.95426 -0.04242,1.43658c-0.42612,0.35721 -0.86024,0.66034 -1.30708,0.88754c0.00309,0.66376 0.00631,1.32016 0.00809,1.9669c0.24164,-0.11454 0.4868,-0.22266 0.73579,-0.32372c0.15529,-0.06303 0.31141,-0.12483 0.46834,-0.18542c0.29159,1.02235 1.40357,1.78925 1.4658,2.856c0.00545,0.09348 0.01044,0.18697 0.01496,0.28045c-0.71579,-0.02151 -1.43005,-0.01908 -2.14056,0.03385c-0.0924,0.00689 -0.18472,0.01443 -0.27696,0.02258c0.66151,3.05208 2.15931,6.89384 -0.26606,7.03953c-2.76454,0.16607 -4.218,-2.87412 -5.77952,-5.65004c0.17793,-0.15442 0.35629,-0.30818 0.53531,-0.46089c-0.24001,0.04602 -0.48015,0.09097 -0.72051,0.13414c-0.54458,-0.95242 -1.10883,-1.85672 -1.75173,-2.5687l-5.82402,1.64375l-4.52804,-0.65138c0.14641,0.60075 0.29288,1.203 0.43424,1.8068l-3.38674,0.95587c0,2.59781 0,5.19563 0,7.79345c0,3.68178 0.07041,17.33506 -0.33439,19.38843c-0.23336,1.18374 -0.73966,2.27581 -1.31668,3.34602c1.28695,-0.64475 2.56566,-1.30277 3.82605,-1.98503c7.92606,-4.29038 15.39806,-9.68795 23.93553,-12.5761c1.27111,-0.43 48.82651,-8.17209 51.32554,-8.58168c10.16835,-1.62258 27.13763,-4.94707 37.82177,-1.15205c5.63578,-1.30146 11.40456,-2.16369 17.03728,-3.47186c4.75223,-1.10368 8.54621,-1.98103 11.93656,-2.76138zM42.23222,129.59535c-0.23893,0.07048 -0.47781,0.13923 -0.71664,0.20592c0,0.01546 0,0.03092 0,0.04638c0.23501,-0.08263 0.47382,-0.16665 0.71664,-0.2523zM43.26131,100.0934c0.25401,-0.64025 0.47655,-1.28475 0.64989,-1.93538c0.69988,-2.6269 0.86033,-5.36859 1.30298,-8.05084c1.77866,-10.77784 3.04156,-24.08078 9.40192,-33.35468c0.92488,-1.34854 2.38983,-3.0081 4.19118,-4.8314c0.00555,0.01462 0.0111,0.02925 0.01664,0.04387v0c0.00005,0.00013 0.00009,0.00025 0.00014,0.00038c0.0046,0.0102 0.04835,-0.04177 0.12,-0.13882c-0.00655,-0.0085 -0.01236,-0.01716 -0.01741,-0.02601c0.04314,-0.04348 0.08647,-0.08705 0.12998,-0.13071c0.41475,-0.58893 1.26978,-1.89892 1.6131,-2.48557c0.67807,-1.15866 1.64043,-2.24538 1.86686,-3.56864c0.11351,-0.66331 -1.24952,-1.17718 -0.9515,-1.78054c0.24579,-0.49762 1.29359,0.01166 1.59503,0.47767c0.47031,0.72706 0.91881,1.47355 1.33646,2.23763c1.71145,-1.52164 3.50839,-3.05908 5.30115,-4.5475c0.94184,-1.38421 1.89861,-2.53527 2.85127,-3.32101c1.39096,-1.14723 2.88292,-2.14684 4.43389,-3.06021c-4.19463,0.09469 -8.40096,0.34564 -12.55206,-0.18997c-3.13942,-0.40507 -5.90504,-2.3822 -9.00901,-3.003c-1.96312,-0.39263 -4.02412,0.28312 -6.006,0c-1.56681,-0.22383 -2.9748,-1.0953 -4.50451,-1.50151c-2.16716,-0.57548 -4.68281,-0.30658 -6.68669,-1.202c0.08612,3.30211 0.16795,6.6022 0.16795,9.88443c0,5.50551 0,11.01101 0,16.51651c0,2.93073 -0.43442,6.53024 -0.04259,9.47951c0.40095,3.0179 1.1982,5.97973 1.5015,9.00901c0.19279,1.92548 -0.23251,3.88209 -0.01824,5.80529c0.28259,2.53637 1.29505,4.96381 1.5015,7.50751c0.34377,4.23561 0.41327,8.56097 0.3767,12.90542c0.47663,-0.24647 0.95325,-0.49295 1.42986,-0.73946zM113.43333,35.07068c4.73175,1.30683 9.73347,1.62639 14.35908,3.26984c5.00118,1.77689 7.6146,2.86935 9.60186,4.15188c5.21,-1.59835 10.97641,-1.5904 16.61243,-1.95159l7.66654,-11.92971c2.32733,0 4.65466,0 6.98199,0c7.95426,-2.48477 16.66666,-0.00317 25,0c0.05944,0 0.11888,0 0.17832,0c5.15412,-0.00195 10.31305,-0.1716 15.46776,-0.19186c6.51623,-0.38256 13.06594,-1.098 19.41398,0.19186c2.18222,0.4434 4.32587,1.02227 6.44285,1.69481c0.19909,0.02557 0.39817,0.05117 0.59725,0.07678c0.62177,-0.05269 1.19162,-0.101 1.70054,-0.14416l-0.09166,0.35089c2.35473,0.30176 4.70991,0.59782 7.06799,0.85892c18.24641,2.02041 36.00373,4.11497 54.21316,6.44935c2.80233,0.35925 5.59914,0.7837 8.39461,1.22391c5.24811,0 10.49621,0 15.74432,0c12.30548,-0.00189 24.49128,0 25,0h75.30423c1.40141,0.85314 -0.56536,2.25777 -2.22244,3.90015c0.00844,-1.28965 -72.96334,-2.59734 -73.08179,-3.90015h72.68533c-0.03076,-0.3383 -0.05019,-0.67627 -0.05019,-1.01351c0,-0.17781 -0.02498,-0.40653 -0.06163,-0.65904c-4.92703,0.14749 -9.87132,0.16405 -14.49119,-0.44814c-2.04573,-0.27108 -3.9508,-1.31542 -6.00601,-1.5015c-3.32452,-0.301 -6.68615,0.30973 -10.01423,0.05106c-6.97234,-0.54192 -13.79823,-2.39546 -20.76673,-2.98456c-11.59731,-0.98041 -23.60957,0.02415 -35.25932,0.02415c-0.95579,0 -11.09648,0.03108 -12.0378,-0.09365c-2.04573,-0.27108 -3.96312,-1.20968 -6.00601,-1.5015c-1.6433,-0.23474 -3.35811,0.28817 -4.97949,-0.06776c-3.09183,-0.67872 -5.96389,-2.13854 -9.00901,-3.003c-3.69158,-1.04798 -7.67378,0.1614 -11.51123,0.1614c-8.19049,0 -17.11143,0.65609 -25.25574,-0.06083c-2.54223,-0.22378 -4.97282,-1.20418 -7.5075,-1.5015c-5.49207,-0.64422 -12.02635,0.37662 -17.40897,0.04531c-5.02047,-0.30901 -9.99398,-1.20189 -15.01502,-1.5015c-5.69565,-0.33986 -11.65128,0.01552 -17.39535,0.01552c-2.3362,0 -4.73682,-0.71395 -7.00673,-0.16141c-1.53781,0.37434 -2.93079,1.33283 -4.5045,1.5015c-3.64992,0.39118 -7.3406,0.12942 -11.01128,0.16141c-12.30423,0.10724 -25.54354,-1.58421 -37.51175,1.40784c-6.82202,-0.11471 -13.11605,2.48762 -20.1607,3.06521c-3.28736,0.26954 -6.59788,0.1181 -9.89513,0.03145c-0.55531,-0.01459 -1.09231,-0.46354 -1.63259,-0.33439c-0.69909,0.16711 -1.12422,0.97216 -1.81821,1.1593c-2.15477,0.58105 -4.36077,0.92066 -6.57786,1.20963c2.0968,0.74867 4.07459,1.45504 5.85782,1.94754zM423.41392,39.12162c0.1513,0 0.72505,0 1.22511,0c1.02083,2.06103 0.13219,4.35402 -2.23006,5.48048c-0.6067,0.28932 -1.25736,0.38436 -1.92983,0.38297c0.12561,-0.23519 0.22515,-0.47915 0.27473,-0.73987c0.07711,-0.4055 0.10958,-0.81356 0.11226,-1.22344c-0.60827,0.60287 -1.1748,1.23778 -1.5177,1.88921c-0.98372,-0.11134 -1.98694,-0.30888 -2.94547,-0.30888c-4.00401,0 -8.00851,0.0638 -12.01201,0c-1.71598,-0.02734 -3.46648,-0.58941 -5.14366,-0.22554c-1.86531,0.40469 -3.47799,1.57689 -5.23729,2.3239c0.31487,-0.02134 0.62974,-0.04268 0.94461,-0.06402l8.81607,4.78283c4.13971,-0.21299 8.27954,-0.41716 12.41936,-0.60888c-0.10863,0.2771 -0.20155,0.54799 -0.27506,0.81123l3.15277,4.1497c0.25649,-1.67175 0.09644,-3.38735 0.03077,-5.09353c3.46751,-0.15554 6.935,-0.30174 10.40241,-0.43649c-0.04278,-1.06374 -0.07243,-2.10917 -0.07243,-3.12418c0,-3.52864 0.48626,-6.70189 -0.47849,-9.96251c-2.15768,0.05841 -4.35958,0.14957 -6.57446,0.22796c0.37132,0.53475 0.73507,1.12667 1.03839,1.73906zM423.01115,85.72382c-1.55521,0.46003 -3.10431,0.94343 -4.65234,1.43099l6.90166,1.32421c0.85588,-0.28216 1.71204,-0.5643 2.56865,-0.84605c-0.03811,-1.03393 -0.08315,-2.07697 -0.12715,-3.12456c-1.58029,0.3661 -3.14896,0.75932 -4.69082,1.2154zM423.63674,102.0259c-1.08468,1.97747 -2.22264,3.90848 -3.49179,5.72512l0.24841,0.14459c-0.2513,0.1701 -0.49954,0.3548 -0.74532,0.55127c-0.70729,0.96859 -1.45613,1.90095 -2.25893,2.78627l7.55064,3.49504c0.01867,-2.68327 0.05904,-5.36561 0.14566,-8.05178c0.53561,-1.7448 1.20445,-3.44976 1.81751,-5.17054c-1.0892,0.16603 -2.17789,0.33991 -3.26617,0.52003zM404.568,65.06103c0.34856,-0.09361 0.69686,-0.18847 1.04492,-0.28439c-0.28785,-0.02334 -0.57578,-0.04739 -0.86379,-0.07187c-0.06028,0.11885 -0.12065,0.23761 -0.18113,0.35626zM339.34434,162.51665c4.62754,0.42228 9.26154,0.66988 13.90109,0.54886c0.01286,-0.00034 1.12346,-0.03034 3.00504,-0.08118c0.53028,0.08417 1.06157,0.16312 1.59395,0.23639c8.25552,1.13618 16.66667,0 25,0c3.74032,0 7.48065,0 11.22097,0c-0.14256,0.3721 -0.26019,0.75208 -0.33853,1.14461c-0.21021,1.05329 -0.35464,2.46542 -0.44593,4.06941c-2.02765,0.28639 -4.05919,0.55173 -6.09068,0.81744l-3.98474,-2.50186c-8.44422,0.22096 -29.42461,0.76958 -32.23011,0.84708c-6.77534,0.18718 -13.57704,-0.01104 -20.34352,0.31457c0.014,-0.04856 0.02783,-0.09717 0.04149,-0.14581c2.90449,-1.72635 5.79183,-3.48113 8.67097,-5.24952zM350.06381,87.07431l0.1708,-0.68116l1.36489,0.62878c4.26477,-0.14692 8.52914,-0.30564 12.79354,-0.46341c-1.80653,-0.94342 -4.03232,-1.86631 -5.55819,-2.82345c-2.98177,0.43704 -5.78647,0.84533 -8.23475,1.20046l0.55579,-2.21653c1.56169,-1.16639 3.07698,-2.39949 4.6314,-3.57632c-12.98949,0.65493 -25.97897,1.30987 -38.96846,1.9648c-11.80614,0.59526 -23.63701,0.78792 -35.44163,1.38922l7.98442,5.6666c16.52744,-2.33684 33.05589,-4.66649 49.58815,-6.96885l8.96504,4.13002c-3.29246,0.4762 -5.57961,0.80459 -6.21168,0.89669c-17.99883,2.62269 -36.0556,4.45922 -54.14379,6.05296c-2.54764,2.64487 -5.00302,5.42899 -7.91468,7.52451c4.48384,0.04053 8.96304,0.01448 13.40974,-0.49706c7.05595,-0.81172 24.3345,-7.52642 33.2437,-9.13369c6.4694,-3.95355 12.89855,-2.74185 20.8127,-2.9962c0.98437,-0.03163 1.9687,-0.06414 2.95301,-0.09735zM337.09293,114.45163c-0.57659,0.25829 -1.16298,0.49528 -1.75786,0.71383c-1.07727,0.96219 -2.00692,1.57023 -2.57563,0.82609c-5.95029,1.66171 -12.5154,1.9842 -18.50046,3.55365c-2.50946,0.65805 -4.99651,1.44298 -7.49229,2.18312c1.83364,-0.01566 3.66925,-0.02389 5.50714,-0.0241c2.50862,-0.00029 23.65244,-0.98349 36.67573,1.07681c0.24118,-2.29778 1.0089,-4.72801 1.70478,-7.02723c-2.05107,0.35344 -3.73105,0.64267 -4.80535,0.82786zM114.00504,152.84717c-1.48189,0.83494 -2.96288,1.67165 -4.44322,2.50949c-3.79222,3.37883 -7.89903,6.43922 -11.85681,9.64969c1.12805,-0.01266 2.24348,0.034 3.33088,0.20733c1.77532,-1.18492 3.55702,-2.36017 5.3498,-3.51857c2.59979,-1.67985 5.35134,-3.14719 8.07042,-4.65688c-0.09155,-0.53075 -0.16457,-1.05419 -0.21979,-1.56429c-0.09841,-0.90926 -0.17535,-1.78428 -0.23127,-2.62677zM175.92284,133.20645c2.03856,-1.3338 4.10315,-2.61848 6.27914,-3.60686c-0.17264,-0.89162 -0.25724,-1.8138 -0.26647,-2.75387c-2.92918,0.0674 -5.85835,0.13492 -8.78751,0.20264c-1.25577,0.39621 -2.52222,0.75877 -3.80188,1.07958c-5.3193,1.33353 -10.64864,2.6249 -15.98634,3.88029c-1.70607,0.75371 -3.39923,1.53007 -5.07614,2.33482c1.92861,3.04863 2.7752,6.66995 2.84237,10.41509c4.69228,-3.47695 10.57651,-6.2237 15.79245,-8.60694c2.88031,-1.31606 5.90658,-2.24068 9.00438,-2.94474zM322.91765,111.00333l-6.03939,-1.46915c-21.30862,3.02658 -42.62215,6.01903 -63.9329,9.03033c-4.97893,0.70355 -9.96564,1.35599 -14.95327,2.00221c1.70372,0.27245 3.4055,0.55566 5.10398,0.85707c9.86746,-1.37247 19.7456,-2.67321 29.61027,-4.06439c14.57278,-2.05514 29.03174,-5.25882 43.72261,-6.13505c2.16122,-0.12891 4.32436,-0.1947 6.4887,-0.22102zM204.03931,78.91393c1.7038,-0.52877 3.40759,-1.05753 5.11139,-1.58629c0.62528,-0.39872 1.25056,-0.79746 1.8758,-1.19625c-5.92575,0.69254 -11.85176,1.67887 -17.7774,1.62449c-2.83918,0.47146 -5.65636,1.02431 -8.40936,1.81585c3.6009,-0.4287 7.19916,-0.86525 10.79357,-1.31454zM88.00437,89.15448c0.05576,1.37296 0.10759,2.80235 0.13175,4.21914c6.99807,-1.56316 14.00409,-3.08237 21.07518,-4.24071c0.65185,-0.32694 1.2993,-0.65149 1.9404,-0.97268c-2.23843,-0.01441 -4.47802,-0.11029 -6.71422,-0.0194c-1.12152,0.04559 -8.16007,0.59596 -16.43311,1.01365zM135.56749,103.91105l6.28301,2.24098c1.29502,-2.86311 2.79227,-5.55705 4.83563,-7.79415c-2.43329,1.21437 -4.86657,2.42878 -7.29896,3.64496c-1.27531,0.63765 -2.54851,1.27364 -3.81968,1.9082zM154.63539,94.38804c9.02035,-2.94813 26.15305,-8.2752 36.38452,-11.44312c-5.73071,0.37656 -11.47028,0.66559 -17.17483,1.25586c-4.05553,2.15162 -8.00164,4.56238 -12.09724,6.62172c-2.36938,1.19137 -4.74047,2.37934 -7.11245,3.56553zM137.90205,150.96137c-0.13187,0.30504 1.37293,1.36758 1.08799,1.01215c-0.25257,-0.31506 -0.64561,-0.65904 -1.08799,-1.01215zM200.80894,127.04836c0.49244,-0.03324 0.99165,-0.06677 1.49672,-0.1005c0.82641,-0.1651 1.65753,-0.315 2.48964,-0.4522c-0.01255,-0.05725 -0.02502,-0.11538 -0.0374,-0.17431c-0.77357,0.0178 -1.54714,0.03559 -2.32071,0.05337c-0.05311,0.02402 -0.1065,0.04718 -0.16022,0.06932c-0.48926,0.20165 -0.9786,0.40308 -1.46803,0.60433zM406.18654,136.3571c0.01956,-0.0545 0.0392,-0.10897 0.05893,-0.16341c-4.79511,0 -9.59022,0 -14.38533,0c-0.76755,0.3169 -1.5333,0.58826 -2.30668,0.83008c4.38835,-0.13902 8.77702,-0.26092 13.16713,-0.30341c1.10888,-0.01073 2.28565,-0.18926 3.46596,-0.36326zM347.9148,85.32446c0.8341,-0.12064 1.73272,-0.25076 2.6853,-0.38894l-0.3655,1.45763zM197.11134,163.83572c0.27675,-0.28142 0.55387,-0.56226 0.83177,-0.84181c-0.20574,-0.04184 -0.41432,-0.08415 -0.62537,-0.12706c-0.32846,0.3252 -0.66952,0.63412 -1.02173,0.92837c0.27177,0.01352 0.54355,0.02702 0.81533,0.0405zM145.81474,68.88629c-0.02091,-0.00011 -0.04181,-0.00026 -0.06271,-0.00046c-0.33209,0.85419 -0.68577,1.69426 -1.06905,2.51498c1.21861,-0.60892 2.46394,-1.23103 3.72086,-1.85871zM57.07276,150.48686c-0.02587,0.13044 -0.05202,0.26178 -0.07843,0.39405c4.77534,-1.65878 9.53395,-3.35925 14.24132,-5.18873l-1.30902,-0.57764c-4.28863,1.78177 -8.57855,3.56041 -12.85387,5.37232zM496.42794,268.86885c-0.72499,5.45687 0.65391,11.22614 -0.01824,16.71723c-0.57262,4.67804 -2.31809,9.15111 -3.03582,13.80908c-0.37982,2.46501 0.09366,4.98762 0.09366,7.48172c0,7.50751 0,15.01502 0,22.52253c-0.03715,1.84345 0.06778,3.69774 0.02043,5.54041c2.34366,0.16201 11.99158,1.49584 11.99158,12.4776c0,9.70447 -7.53413,11.8748 -10.90404,12.36018c-3.49786,1.59612 -7.25509,3.06592 -11.01331,4.24255c-3.07488,2.78681 -7.08612,4.27402 -12.24239,3.3474c-1.59512,0.56437 -3.21147,1.06716 -4.86651,1.39747c-1.63701,0.32671 -3.33606,0.14558 -5.00528,0.16141c-7.50717,0.07121 -15.01501,0 -22.52252,0c-6.00601,0 -12.01202,0 -18.01802,0c-6.77573,0 -12.64713,-0.78377 -19.01874,1.3401c-2.55206,0 -4.98406,1.12042 -7.50751,1.50151c-3.12597,0.47208 -6.3607,-0.42173 -9.48399,0.06775c-2.03873,0.31951 -3.95657,1.26004 -6.00601,1.5015c-8.13622,0.95859 -16.52366,-0.68494 -24.6652,0.06221c-5.94862,0.54591 -11.71451,2.54066 -17.67241,2.97361c-4.9022,0.35624 -9.83016,0.08121 -14.74523,0.06083c-3.17036,-0.01315 -6.3847,0.37259 -9.50979,-0.16141c-3.12022,-0.53317 -5.89225,-2.45 -9.00901,-3.003c-5.25675,-0.93268 -10.67689,0.16141 -16.01574,0.16141c-5.50551,0 -11.01373,0.17291 -16.51652,0c-1.54845,-0.04865 -3.10415,-0.56838 -4.63559,-0.33438c-1.10631,0.16904 -1.89319,1.35724 -3.00301,1.5015c-3.26591,0.42453 -6.58576,0.11532 -9.87864,0.17298c-18.60576,7.4414 -39.74593,12.69538 -59.67864,7.13257c-3.74507,-1.04517 -6.95927,-3.47498 -10.50741,-5.06516c-4.99667,-2.23937 -14.41867,-6.99411 -18.77223,-8.2464c-3.40414,-0.97919 -6.65834,2.52841 -10.14082,3.17599c-4.064,0.75571 -9.66028,0.16141 -14.01429,0.16141c-8.51808,0 -17.03309,-0.02738 -25.55132,-0.09366c-10.66508,-2.60054 -21.50328,-4.54887 -32.39185,-5.9438c-1.69283,-0.21686 -3.41765,0.15424 -5.11989,0.03145c-0.55406,-0.03996 -1.09391,-0.47001 -1.63259,-0.33439c-1.08528,0.27324 -1.90704,1.27486 -3.003,1.5015c-1.92083,0.39722 -3.91406,0.28539 -5.87492,0.33439c-4.41988,0.11044 -10.04521,-0.7431 -14.51424,-0.1614c-1.88329,0.24514 -3.37247,1.78371 -5.17295,2.38797c-0.89055,0.29888 -7.97533,1.8917 -10.0638,2.82793c-3.35968,1.50612 -6.41793,3.72872 -9.927,4.8433c-11.78082,3.74191 -25.96837,3.10728 -37.17762,-1.84029c-2.42282,-1.06939 -5.32309,-1.36338 -7.30838,-3.11617c-2.90219,-2.5623 -4.56468,-6.25428 -6.84701,-9.38142c-1.07162,-4.12633 -2.5389,-8.20544 -2.83854,-12.29935c-2.45415,-3.18307 -4.51478,-6.51009 -5.20118,-8.65479c-0.82751,-2.58564 -0.42117,-5.41442 -0.53635,-8.1268c-0.19559,-4.60618 0.14803,-8.96343 0.58448,-13.3578c0.01864,-1.88752 0.21528,-3.79134 0.57412,-5.66155c0.1366,-1.40794 0.26358,-2.83161 0.36705,-4.27989c0.22003,-3.07992 -0.24136,-6.18648 0.01844,-9.2633c0.84739,-10.0357 3.57059,-20.00574 4.5045,-30.03003c0.61811,-6.63462 -0.08831,-13.32682 -0.04259,-19.99001c0.03334,-4.85854 0.19634,-9.90491 -1.3401,-14.51423c0.05766,-1.71212 0.3674,-3.43435 0.17298,-5.13637c-0.05314,-0.46522 -0.70588,-0.65849 -0.88438,-1.09137c-0.77692,-1.88411 -1.38544,-3.83626 -1.95451,-5.7932c-2.51339,-8.64317 -4.93864,-18.87793 -3.3401,-28.01964c0.27262,-1.55907 1.2413,-2.94332 1.5015,-4.5045c0.24685,-1.48107 -0.24685,-3.02344 0,-4.50451c0.2602,-1.56118 1.12716,-2.96669 1.5015,-4.5045c0.60195,-2.47287 -0.39635,-5.20063 0.37495,-7.62603c0.54688,-1.71972 2.42339,-2.79554 3.00301,-4.5045c0.40252,-1.18678 -0.49573,-2.53585 -0.20197,-3.75412c0.52469,-2.17594 2.10621,-3.9552 3.00301,-6.006c0.78445,-1.79388 -0.50294,-3.92291 -0.27356,-5.86732c0.3667,-3.10843 1.5481,-6.15064 1.44067,-9.27879c0,-6.74904 -0.84384,-14.22868 0.33439,-20.88993c0.19493,-1.10205 1.29241,-1.90355 1.5015,-3.003c0.19628,-1.03213 -0.33439,-2.08347 -0.33439,-3.1341c0,-2.9614 -0.11785,-5.95125 0.33439,-8.87792c0.17091,-1.10603 1.37949,-1.89052 1.5015,-3.003c0.69709,-6.356 -0.80118,-12.80632 -0.2918,-19.18011c0.58405,-7.30812 3.47963,-14.26527 4.55557,-21.51731c0.36603,-2.4671 -0.07807,-4.98766 -0.09366,-7.48171c-0.01563,-2.50245 -0.10945,-5.0074 0,-7.50751c0.00523,-0.1196 0.38451,-0.02236 0.33439,-0.13109c-0.81592,-1.7703 -2.26127,-3.26878 -2.76881,-5.15082c-1.06525,-3.95011 -1.17025,-8.09988 -1.89064,-12.12718c-1.37045,-7.6615 -3.11703,-15.3486 -3.18245,-23.13144c0,0 0,-12.5 12.5,-12.5c0.18355,0 0.36439,0.0027 0.54259,0.00801c0.0909,-0.20004 0.18721,-0.40193 0.28909,-0.60568c5.59017,-11.18034 16.77051,-5.59017 16.77051,-5.59017c0.45052,0.81676 2.09353,0.43432 3.88934,0.22443c4.34844,-0.50823 8.66506,-1.51759 13.04302,-1.54409c9.00818,-0.05452 18.01865,0 27.02703,0c2.5025,0 5.01255,-0.19427 7.50751,0c1.3034,0.10149 2.63094,0.90512 3.8852,0.53635c1.7313,-0.50902 2.78478,-2.45612 4.5045,-3.003c2.11146,-0.67146 4.41687,-0.35757 6.6253,-0.53635c6.00601,0 12.01202,0 18.01802,0c2.83659,0 5.77947,0.93605 8.50823,0.16141c3.04512,-0.86446 5.90742,-2.37044 9.00901,-3.003c2.12583,-0.43356 4.33742,-0.1296 6.50678,-0.16141c37.02026,-0.54265 74.08627,0 111.11111,0c12.51252,0 25.02502,0 37.53754,0c5.73178,0 17.67816,-1.11884 24.5248,0.16141c3.11151,0.58182 5.85309,2.75764 9.00901,3.003c9.05239,0.70379 18.34919,-1.00369 27.41237,-0.12996c3.52274,0.33961 6.99044,1.13525 10.51051,1.5015c5.86025,0.60974 12.9505,-0.03145 18.6334,-0.03145c8.50851,0 17.01702,0 25.52553,0c4.38104,0 18.32375,-0.00202 18.70927,0.01913c4.52542,0.24826 8.99041,1.21414 13.51351,1.5015c7.26245,0.46139 14.55418,-0.01913 21.83127,-0.01913c5.64644,0 11.52829,0.55113 17.1319,0.03144c5.63004,-0.52214 12.16487,-1.17199 18.00795,-2.59339c2.23282,-2.92642 7.39794,-7.67461 15.49536,-3.6259c0.04784,0.02392 0.09539,0.04795 0.14262,0.07207c1.62917,-0.85333 3.68499,-1.39174 6.27923,-1.39174c12.5,0 12.5,12.5 12.5,12.5v1.50151c-0.00204,0.13916 -0.0036,0.27834 -0.00472,0.41755c-0.02855,3.53269 0.21966,7.08219 -0.15669,10.59374c-0.16866,1.57371 -1.20418,2.94996 -1.5015,4.50451c-0.79202,4.14109 0.16404,10.39874 0.16141,14.51424c-0.00653,10.2113 -0.82358,20.40855 -1.51434,30.59646c-0.29582,4.36299 0.52183,8.43079 -0.32155,12.81599c-0.51288,2.66678 -2.34582,4.98086 -2.76227,7.66439c-0.30573,1.97007 0.09366,3.98656 0.09366,5.98022c0,6.50651 0,13.01301 0,19.51952c0,3.99553 -0.55975,8.01797 -0.09366,11.98622c0.24073,2.04953 1.16655,3.96976 1.50151,6.00601c0.09067,0.55118 -0.37933,1.11726 -0.24073,1.65838c0.15447,0.60308 0.86172,0.94777 1.05945,1.53808c0.43589,1.30131 3.48692,13.5443 3.68579,14.82155c0.73461,4.71814 0.09366,10.27058 0.09366,15.04081c0,5.26352 0.57431,11.24799 -0.33439,16.38542c-0.19493,1.10205 -1.18936,1.92827 -1.5015,3.00301c-0.1114,0.38354 0.33896,0.7655 0.29179,1.16209c-0.35956,3.02312 -1.1856,5.98102 -1.5015,9.00901c-0.67557,6.47545 0.04259,13.48108 0.04259,19.99002c0,2.93871 0.068,9.606 -0.33439,11.88092c-0.19493,1.10205 -1.29242,1.90356 -1.5015,3.00301c-0.19628,1.03213 0.3112,2.08373 0.33439,3.1341c0.05792,2.62352 0.03992,5.24787 0.02063,7.87225c-0.02406,0.02373 -0.04812,0.04764 -0.07218,0.0717c-5.41695,5.41695 -2.53434,10.8339 -0.88928,13.07182c-0.23448,0.23268 -0.42561,0.49225 -0.54616,0.75395c-2.22983,4.84092 -1.48694,11.39302 -1.22598,16.56385c0.57139,1.29204 1.15556,2.69014 1.7947,4.09865c-0.23454,1.21085 -0.46359,2.42266 -0.62583,3.64384z" fill="#360000"/><path d="M441.72467,31.33879l2.78792,4.18188l0.75861,1.42798l0.11103,0.14106l0.47188,0.95618l0.50025,0.94165l0.0496,0.17252l0.71559,1.45002l4.5045,12.01201l1.00582,3.79469l0.02798,0.55121l0.16734,0.52594l0.39063,3.90625v37.53754l-0.19344,1.93443l0.01545,0.2446l-0.12603,0.86118l-0.0866,0.86604l-0.07431,0.23355l-0.2815,1.92359l-4.19172,16.76686l-0.99305,6.95133l0.06005,0.48038l-0.25576,0.88959l-0.13036,0.9125l-0.93913,3.81175l-0.71337,1.47697l-0.45321,1.57637l-1.84178,3.46688l-0.51131,0.76696l-0.40257,0.8335l-0.27132,0.23631l-1.03932,3.11795l3.51023,-0.93606l1.70448,-0.2767l0.66071,-0.14919l0.28212,-0.00386l1.22769,-0.1993l2.98249,0.14163l4.52513,-0.06199l0.76005,0.31296l0.74046,0.03516l3.672,1.78174l5.32724,2.19357l0.38281,0.57707l0.83387,0.40461l3.86189,6.67407l3.19771,4.82042l0.04537,0.78422l0.39342,0.67991l-0.01944,5.78459l0.44534,7.69799l-0.47389,0.79654l-0.00233,0.69249l-3.24271,4.76194l-2.08681,3.50762l-0.59907,0.43661l-0.46264,0.67939l-3.81335,2.43701l-2.41299,1.75862l-1.13494,0.50877l-0.23775,0.15194l-0.63386,0.23878l-1.57572,0.70636l-9.00901,3.003l-0.84533,0.19088l-0.81341,0.29897l-17.20788,4.44074l1.53397,0.44102l1.81028,2.16514l6.1879,5.3441l0.8214,3.03919l0.78383,0.93748l0.90014,5.29322l1.40087,5.18324l-0.31883,1.17967l0.5278,3.10368l-3.37887,7.44531l-0.73634,2.72447l-7.10584,6.13686l-0.12844,0.11738l-0.0235,0.01383l-1.33598,1.1538l-1.3577,0.432l-0.66584,0.39199l-19.51952,9.00901l-2.19398,0.75821l-0.25172,0.13066l-0.63849,0.17698l-0.62622,0.21642l-0.28142,0.03518l-2.23695,0.62007l-43.54354,7.50751l-2.12644,0.15137l-2.12124,0.21212h-9.22656l-0.7931,0.33046l-1.63285,-0.33046h-1.86101l-3.90625,-0.39062l-6.70598,-2.13372l-0.56811,-0.11498l-0.11492,-0.10235l-1.20474,-0.38332l-8.59375,-7.42187l-0.32804,-1.21373l-0.93889,-0.8362l-0.16777,-0.66061l-40.37313,2.69154l-2.58231,-0.08551l-3.7763,0.27631l-2.80474,-1.61123l-3.51684,-0.86617l-6.44366,-4.85583l-0.21679,-0.12454l-0.03934,-0.06847l-2.36862,-1.78495l-1.99217,-5.80605l-3.05765,-5.32257l0.21644,-2.95796l-0.02563,-0.07469l0.04903,-0.24517l0.12839,-1.75463c-1.28084,0.35396 -2.564,0.70035 -3.8482,1.04336c-5.48583,2.80334 -11.20114,5.23991 -16.73126,7.92096c-7.70333,3.73464 -15.41774,7.44638 -23.12661,11.16957l-0.758,-0.0944l0.12099,0.34053l-10.27386,3.65022c-1.38486,0.52889 -2.8879,0.81859 -4.4586,0.81859c-4.09131,0 -7.72353,-1.96558 -10.00387,-5.00393c-1.11344,0.32509 -2.29118,0.49943 -3.50965,0.49943c-6.90356,0 -12.5,-5.59644 -12.5,-12.5c0,-1.40869 0.23302,-2.76296 0.66263,-4.02636c-7.83062,0.54264 -15.85942,-0.47969 -19.41262,-6.25552l-1.12112,0.35672l-0.09752,0.00975l-1.50464,0.46985l-0.23101,-0.02356l-4.42638,3.04314l-3.44021,1.89111l-0.11032,0.03343l-0.09602,0.06378l-3.64864,1.44872l-21.02102,6.00601l-2.04088,0.36849l-1.70215,0.59341l-6.65216,-0.45877l-2.48236,-0.07388l-0.24664,-0.11433l-1.94696,-0.13427l-2.41644,-1.88835l-5.692,-2.63848l-1.63185,-2.70841l-1.22211,0.81474l-0.58929,0.31306l-2.48953,2.06851l-3.458,0.34282l-5.59724,1.60921l-4.70384,-0.58798l-0.50163,0.04973l-1.16202,3.77656l-0.39803,0.94627l-0.28453,0.98635l-3.003,7.50751l-0.80672,1.54891l-0.53019,1.66633l-5.45422,6.31541l-0.75274,0.91472l-0.0674,0.03491l-1.14752,1.32871l-2.96433,0.80117l-5.90343,3.05789l-3.77538,-0.442l-1.80998,0.48919l-4.57636,-1.23686l-4.7084,-0.55123l-1.49885,-1.12641l-3.66951,-0.99176l-4.34552,-5.03166l-2.45476,-1.84479l-0.57198,-1.65985l-0.04961,-0.05744l-0.35918,-1.12885l-2.71863,-7.88936l0.12658,-1.74405l-0.17377,-1.73773v-7.50751l0.11289,-1.1289l-0.01022,-1.13449l1.5015,-16.51652l0.58002,-3.01056l0.01734,-0.23887l0.08637,-0.29941l0.05895,-0.30599l0.09298,-0.22072l0.84975,-2.94581l5.71942,-14.29856v-30.5876l-0.85621,-7.70585l-4.01198,-8.02396l-0.16527,-0.43384l-0.23321,-0.40143l-7.50751,-16.51652l-0.74404,-2.19397l-0.12915,-0.25225l-0.17405,-0.6418l-0.21357,-0.62975l-0.03352,-0.2814l-0.60636,-2.23594l-1.5015,-9.00901l-0.13494,-2.05789l-0.20521,-2.05208v-18.01802l0.19344,-1.93443l-0.01545,-0.2446l0.12603,-0.86118l0.0866,-0.86604l0.07431,-0.23355l0.2815,-1.92359l2.46068,-9.84271l1.35276,-20.29141l0.27057,-1.61259l0.15954,-1.62733l1.5015,-7.50751l1.14912,-3.75379l0.45991,-0.83107l0.26245,-0.91287l1.84178,-3.46688l3.003,-4.5045l0.84737,-1.03158l0.74835,-1.10552l7.50751,-9.00901l2.14968,-2.1113l0.15483,-0.19353l0.25805,-0.21197l0.23825,-0.234l0.20893,-0.13333l2.32829,-1.91253l4.5045,-3.003l3.46688,-1.84178l0.3407,-0.09795l0.30166,-0.18621l3.69488,-1.32637l12.01201,-3.003l1.92359,-0.2815l0.23355,-0.07431l0.86604,-0.0866l0.86118,-0.12603l0.2446,0.01545l1.93443,-0.19344l27.11194,0l0.18089,-1.40327l2.63056,-4.46398l1.39241,-2.81235l0.53316,-0.45528l1.20873,-2.05118l2.69245,-1.28013l4.20076,-3.58713l4.38362,-0.49433l2.2444,-1.0671l4.13042,0.34823l4.11897,-0.46448l2.27357,1.00343l4.39581,0.37061l4.30018,3.46734l2.72745,1.20375l1.26605,2.01631l0.54578,0.44007l1.47111,2.772l2.75531,4.38808l0.28053,1.77921l0.0833,0.29021h57.20475l3.90625,0.39063l0.08302,0.02641l0.08711,0.00119l3.82932,0.86469l2.64363,0.88121l5.03325,0.83888h9.94295l2.05208,0.20521l2.05789,0.13494l6.9681,1.16135h6.93995l1.377,0.1377l1.38379,0.01521l13.51351,1.5015l1.06169,0.22665l1.08043,0.10592l7.50751,1.5015l0.96844,0.29646l0.99668,0.17996l7.14386,2.0411h20.52265l3.90625,0.39063l0.08302,0.02641l0.08711,0.00119l3.82932,0.86469l0.65575,0.21858l64.87469,0l15.03143,-5.78132l14.86028,-5.94411l1.21833,-0.35144l1.43731,-0.74344l11.32476,-0.82864l2.61409,1.50171l6.90758,2.38032l2.09987,2.79418l1.3605,0.78157l2.50864,4.36689l3.02561,4.02601l0.18244,1.55838l1.74108,3.03076l-0.0418,0.57133c1.90864,1.60568 3.57368,3.49163 4.93172,5.59444zM285.05292,163.18338l-0.07075,-4.26278l-0.38495,-1.42431l0.34041,-1.2595l-0.03436,-2.07044l0.7483,-3.85375l4.42683,-14.75609l-17.76695,1.9036c-6.12952,3.6057 -10.78804,6.34411 -11.24387,6.61182c-2.43287,1.42881 -5.01517,2.62643 -7.30745,4.27137c-4.39331,3.15265 -8.7179,6.39787 -13.00799,9.68957l-1.08141,2.09074l-0.97044,1.18609l-0.21174,0.44437l-0.34321,0.2339l-0.96053,1.17398l-19.51952,19.51952l-1.9066,1.55994l-1.90357,1.56364l-28.49884,18.99923c7.28786,-1.42171 14.5323,-3.06265 21.80659,-4.55383c1.8152,-0.3721 3.6519,-0.66507 5.4905,-0.95067c12.79023,-5.95654 25.40447,-12.34859 38.57261,-17.40661c6.84722,-2.63009 13.88295,-4.73492 20.86455,-6.99057c4.72286,-1.95798 9.58148,-3.85248 15.49559,-6.0604zM232.18693,116.61607l0.14818,-0.93466l-0.0638,-6.31633l1.72112,-4.13753l0.53879,-3.39851l2.49908,-2.67344l0.9297,-1.35143l16.51652,-19.51952l1.7691,-1.71157l0.17666,-0.22684l0.45131,-0.3807l0.42434,-0.41054l0.24353,-0.15284l1.88151,-1.58716l10.94348,-7.5041l-2.1718,-0.39213l-9.53759,-2.72503l-5.45146,-1.09029l-11.05908,-1.22879l-7.62438,0l-2.05208,-0.20521l-2.05789,-0.13494l-2.85225,-0.47538l3.35657,4.60552l0.34527,0.38112l0.08977,0.42503l1.36218,3.0387l1.5015,4.5045l0.86469,3.82932l0.00119,0.08711l0.02641,0.08302l0.37309,3.73091l0.01753,0.05335l-0.00567,0.06525l0.00567,0.05674v3.003l-0.39062,3.90625l-0.30382,0.95486l-0.08681,0.99826l-1.14183,3.75601l-5.64963,13.55911l-0.17992,1.79925l-0.24036,2.45169l-0.19946,0.99732l1.96701,5.90103c0.97478,-0.53436 1.95031,-1.06737 2.92614,-1.59987zM70.93311,56.37016l-3.63761,0.9094l-2.96044,3.55252l-0.17243,0.86213l-1.36389,20.45842l0.89257,-0.89257l1.50463,-1.23106l0.16203,-0.18388l0.69806,-0.51983l0.67362,-0.55114l0.21769,-0.1126l1.55923,-1.16113l7.50751,-4.5045l0.86936,-0.41007l0.8127,-0.51328l4.20743,-2.10372l0.47891,-0.41361l0.95783,-0.30476l0.36183,-0.18092l3.66855,-1.39754l1.83527,-0.28789l1.77027,-0.56327l2.09888,-0.20989l-0.1506,-10.2408zM373.80481,115.32924l3.04599,2.13841l1.21692,2.64801l1.93823,2.17626l0.73823,3.64772l0.31388,0.683l7.87423,-4.42925l0.55964,-0.24505l0.51655,-0.32624l3.003,-1.5015l3.66855,-1.39754l1.52322,-0.23894l0.04916,-0.09254l0.71019,-4.97136l0.30846,-1.252l0.18671,-1.27585l3.75807,-15.03227l0,-6.86964l-0.58341,1.40018l-1.25708,1.22311l-2.02838,2.47914l-2.74634,2.74634l-0.18768,0.337l-0.65925,0.50993l-0.91123,0.91123l-3.03835,2.48592l-1.33536,0.6907l-1.18919,0.91983l-3.28495,1.58674l-12.69913,10.47678z" fill="#360000"/><path d="M56.21679,90.26486c2.87942,-1.29892 6.084,-1.86089 8.85249,-3.38197c0.52717,-0.28964 0.1408,-1.23981 0.47263,-1.7415c1.64634,-2.48904 3.31059,-5.01048 5.40165,-7.1396c1.62474,-1.65432 4.06066,-2.38002 5.62698,-4.08976c2.62363,-2.86387 3.0451,-7.74651 3.05775,-11.54644c-0.90671,-0.30406 -1.70683,-0.92498 -2.55589,-1.38124c-1.5007,-0.80643 -3.31733,-1.23731 -4.45448,-2.50591c-2.16731,-2.41783 -3.30238,-5.60085 -5.18423,-8.24694c-1.00416,-1.41197 -2.74695,-2.35387 -3.57331,-3.83447c-0.37564,0.5392 -0.7524,1.07715 -1.10973,1.62368c-1.15328,1.76391 -1.82793,4.07573 -3.62137,5.18253c-1.80345,1.11298 -4.17478,0.78516 -6.28882,0.93343c-7.94661,0.55737 -16.05608,0 -24.02402,0c0,0 -2.44467,0 -4.27613,-1.52894c0.00991,0.4326 0.01562,0.86119 0.01562,1.28494c0,5.50551 0,11.01101 0,16.51652c0,2.13393 -0.91992,5.38963 1.54032,6.69544c3.40372,1.80658 7.56351,1.48076 11.35445,2.17198c3.1112,0.56728 6.22152,1.43939 9.38375,1.3991h3.003c0,0 6.25,0 6.25,6.25c0,1.7895 -0.51237,3.06663 -1.24371,3.97809c0.45529,-0.21796 0.91279,-0.43132 1.37304,-0.63894zM67.67449,18.22488c2.10576,-2.05609 4.66503,-3.70972 7.37884,-4.84856c0.77172,-0.32385 6.34714,-0.26817 7.81716,-0.26817c6.81621,0 13.74774,-0.22391 20.53303,0c5.26826,0.17385 10.77965,-0.71673 15.78582,0.93343c2.12378,0.70005 2.53723,3.68299 3.80585,5.52449c0,0 2.79508,5.59017 -2.79508,8.38525c-5.59017,2.79508 -8.38525,-2.79508 -8.38525,-2.79508c3.55114,-2.12985 0.11571,0.08536 -8.41133,0.45191c-6.74475,0.28994 -13.73614,0 -20.53303,0c-2.09722,0 -4.29038,-0.83155 -5.82502,0.88927c-2.16648,2.42931 -1.30548,8.13235 -1.43849,10.87875c-0.05878,1.21371 -0.85162,2.45869 -0.47575,3.61423c0.27361,0.84117 1.63865,0.83027 2.15504,1.54845c1.51279,2.10394 2.28332,4.68505 3.82478,6.76807c0.32305,0.43654 1.05423,0.27887 1.55153,0.4971c2.22232,0.97519 7.63766,3.91641 8.52749,5.30735c1.14205,1.78519 0.62229,4.19255 0.93343,6.28882c-0.06351,7.14453 -1.2056,14.72071 -5.95606,20.52119c-1.70234,2.07862 -4.46604,3.0388 -6.38504,4.91925c-1.44336,1.41436 -2.48051,3.19493 -3.60735,4.87241c-0.92169,1.37207 -1.15906,3.34169 -2.53037,4.26451c-3.70754,2.49497 -8.13456,3.70407 -12.16853,5.62704c-4.03868,1.92522 -8.03186,3.94449 -12.04778,5.91673l-1.14378,-0.29329l0.05535,0.51045l-3.74596,0.40622c-0.24992,0.0304 -0.50439,0.04605 -0.76252,0.04605c-3.45178,0 -6.25,-2.79822 -6.25,-6.25c0,-2.73432 1.75588,-5.05854 4.2016,-5.90659c0.21066,-0.50528 0.42133,-1.01055 0.63199,-1.51583l4.3449,-1.34332c-3.89019,-0.04324 -7.73428,-0.90887 -11.56275,-1.60318c-7.92515,-1.43726 -15.27665,-1.48059 -20.46002,-8.49916c-3.53372,-4.78485 -2.68124,-10.15525 -2.68124,-15.66645c0,-6.00601 0,-12.01201 0,-18.01802c0,-1.1244 -0.02306,-12.42525 0.0807,-13.01315c0.41631,-2.3588 1.56949,-4.52612 2.35423,-6.78918c1.97593,-1.83048 3.54496,-4.23563 5.9278,-5.49143c2.39041,-1.25978 8.51436,-0.47575 11.40078,-0.47575c5.76008,0 11.56193,-0.64619 17.28016,0.04683c2.04863,0.24828 3.97377,1.14297 6.00601,1.5015c3.03843,0.53605 5.24675,-1.93668 8.52818,0.8866c0.05494,0.04727 0.10935,0.09514 0.16325,0.1436c0.64054,-3.07926 1.80586,-5.94958 3.87745,-7.9723zM24.2299,43.44593c1.85152,-1.80925 4.58654,-1.80925 4.58654,-1.80925c5.66817,0 11.33634,0 17.0045,0c2.07019,0 4.15772,-0.25139 6.21657,-0.08691c0.60061,-1.09966 1.8603,-1.81259 2.32864,-2.98175c0.10807,-0.26979 0.1062,-0.55711 0.06442,-0.85132c-2.39044,-0.32271 -4.86086,-1.38656 -6.85825,-1.64487c-1.73309,-0.22413 -3.49485,0.04163 -5.24236,0.04683c-3.50349,0.01041 -7.00701,0 -10.51051,0c-1.22156,0 -6.62284,-0.43888 -6.69544,0.03882c-0.66816,2.28615 -0.87719,4.76344 -0.8941,7.28845z" fill="#ff0000"/><path d="M132.66403,83.92271c0,6.25 -6.25,6.25 -6.25,6.25h-1.5015c-2.60524,0 -9.82958,0.03432 -10.82016,-0.26817c-9.74046,-2.97445 -15.66041,-14.2438 -13.28066,-23.9343c1.16661,-4.75051 4.70986,-9.6723 8.43437,-12.64332c0.8749,-0.6979 2.10135,-0.83853 3.003,-1.5015c2.13121,-1.56705 3.53665,-3.95976 5.56543,-5.65733c1.91925,-1.60592 4.05102,-2.94228 6.00601,-4.5045c1.6178,-1.29279 2.81678,-3.20803 4.70624,-4.05566c1.64709,-0.7389 3.59652,-0.31717 5.39477,-0.47575c0,0 6.25,0 6.25,6.25c0,6.25 -6.25,6.25 -6.25,6.25c-0.63493,-0.4942 -1.30803,0.94186 -1.911,1.47459c-1.87538,1.65695 -4.08006,2.90661 -6.00601,4.5045c-0.97583,0.80961 -1.7756,1.81071 -2.6786,2.70083c-1.24597,1.22821 -2.37599,2.594 -3.76798,3.65385c-1.4673,1.11719 -3.54433,1.56971 -4.59018,3.08868c-2.35091,3.41441 -3.0963,8.14526 0.39367,11.03169c0.76961,0.63652 1.38258,1.61941 2.35322,1.85457c2.33345,0.56532 4.79691,-0.26817 7.19786,-0.26817h1.5015c0,0 6.25,0 6.25,6.25z" fill="#ff0000"/><path d="M273.14534,116.74782c-2.79508,5.59017 -8.38525,2.79508 -8.38525,2.79508l-1.64387,-1.00887c-5.36491,0.5724 -11.23889,0.16719 -16.58206,0.16719c-11.41443,0 -25.54807,1.18814 -32.34359,-10.47169c-1.49046,-2.55735 -2.42403,-4.61237 -3.0038,-6.48397c-1.77946,-0.62507 -3.93563,-2.13988 -3.93563,-5.81086c0,-3.09108 1.52876,-4.65339 3.07412,-5.44303c0.00576,-0.50078 0.00959,-1.02115 0.00959,-1.56411c1.17475,-3.65152 2.40762,-7.1347 4.10674,-10.33687c-1.52599,1.18983 -2.78416,2.83215 -4.55468,3.59874c-1.65662,0.71728 -3.59652,0.31717 -5.39477,0.47575h-1.43202c-0.46342,2.47431 -0.89479,4.96063 -1.53969,7.37866c-1.67524,6.28122 -4.37624,12.77767 -4.2918,19.40437c0,0 0,6.25 -6.25,6.25c-6.25,0 -6.25,-6.25 -6.25,-6.25c0.01669,-1.98565 0.19382,-3.91992 0.48183,-5.82347l-0.17229,-0.10574c-2.31481,0.24698 -5.766,0.73559 -7.51916,-0.57234c-4.07907,-3.04313 -5.65504,-6.20618 -6.18852,-9.79682c-1.395,-0.02316 -2.53268,-0.06533 -2.80883,-0.14135c-4.90483,-1.35023 -13.08605,-5.67577 -15.89262,-10.30449c-2.5602,-4.2224 -2.43493,-6.52798 -2.43493,-10.79333c0,-4.237 -0.12668,-7.81383 3.02991,-11.60252c2.86711,-3.44123 6.80613,-3.87248 10.72759,-3.65649c1.99627,0.10995 4.34964,-0.45597 5.95212,0.73953c5.62472,4.19624 5.9077,7.77791 6.36005,12.21363c0.28977,-0.61739 0.61415,-1.21639 0.98426,-1.78917c0.45328,-0.70148 2.13045,0.0954 2.40802,-0.69231c0.42295,-1.20025 -0.99006,-2.45616 -0.85273,-3.72133c0.22275,-2.05218 1.14821,-3.97133 1.89655,-5.89514c0.28633,-0.73607 1.09394,-1.26361 1.19294,-2.04719c0.25378,-2.00865 -0.11146,-4.0477 -0.16719,-6.07155c0,0 0,-6.25 6.25,-6.25c6.25,0 6.25,6.25 6.25,6.25c-0.05573,2.98115 0.28447,5.9962 -0.16719,8.94346c-0.3863,2.52071 -2.48475,4.55937 -2.91651,7.07269c-0.47036,2.73803 0.22267,5.72913 -0.85273,8.29069c-0.55175,1.31424 -2.59966,1.29335 -3.59798,2.31069c-0.32958,0.33585 -0.01751,0.94148 -0.05379,1.41063c-0.11337,1.46608 0.2188,3.05744 -0.39505,4.39364c-0.55943,1.21772 -2.02377,1.78138 -2.86663,2.8222c0.05796,0.17604 0.10939,0.35991 0.15357,0.55196c0.09521,0.07099 0.17727,0.14822 0.18582,0.24008c0.13904,1.49505 0.07061,3.00466 0,4.5045c-0.0085,0.18052 -0.19225,0.76092 -0.28321,1.27288c0.01127,-0.00819 0.02427,-0.01347 0.03921,-0.01537c1.46883,-0.18711 2.95931,0.11146 4.43896,0.16719l0.23386,0.10691c0.44089,-1.53656 0.88406,-3.08265 1.30189,-4.64977c1.67761,-6.29197 2.28207,-12.93556 4.82609,-18.92983c0.6085,-1.43376 2.12608,-2.35442 2.73689,-3.7872c0.28771,-0.67489 -0.33915,-1.47518 -0.18747,-2.19299c0.51607,-2.44228 2.71861,-9.04041 4.75288,-10.92579c4.18218,-3.87606 11.10685,-4.14932 16.43143,-3.33208c2.51878,0.38659 5.62052,0.02868 7.42242,1.83058c1.8019,1.8019 1.54719,4.88995 1.83058,7.42242c0.39516,3.53126 -0.28552,7.24123 -1.62081,10.55905c2.926,-0.36174 9.66944,-0.29253 11.88733,-0.29253c4.14505,0 12.16129,-0.25967 14.92993,1.83058c1.86464,1.40776 1.91136,7.61856 1.83058,10.42542c-0.06061,2.10624 0.4114,4.32113 -0.26817,6.31566c-2.2473,6.59577 -9.64377,13.26118 -16.55788,14.78217c-1.73399,0.38145 -3.56344,-0.08807 -5.3246,0.13678c-2.43384,0.31073 -4.78198,1.15758 -7.21425,1.46692c0.61104,0.82321 1.38822,1.51502 2.3767,2.01194c5.51394,2.77195 10.39994,2.06957 16.2337,2.06957c7.48678,0 14.97504,-0.11461 22.45698,0.16719l4.36213,1.99414c0,0 5.59017,2.79508 2.79508,8.38525zM223.09868,89.74691c0.09907,-0.0099 0.19809,-0.02048 0.29708,-0.03177c2.53562,-0.28921 4.97421,-1.1926 7.50751,-1.5015c3.32059,-0.40491 4.65019,0.19221 7.47193,-1.85368c0.55636,-0.40339 3.51423,-3.72543 3.67862,-4.24839c0.09156,-0.29126 -0.06796,-1.29898 -0.22521,-2.39148c-2.82077,0.77693 -5.88303,0.16172 -8.80798,-0.05788c-1.13232,-0.08501 -2.44493,-1.2691 -3.35503,-0.59007c-3.28997,2.45469 -5.15154,6.7993 -6.56692,10.67478zM209.13505,67.0571c0.66088,-0.30244 1.33201,-0.58856 1.9743,-0.92065c0.82562,-0.04889 1.89203,0.43815 2.47686,-0.14667c0.58482,-0.58482 -0.08815,-1.68383 0.14667,-2.47686c0.22424,-0.7573 1.07196,-1.26671 1.19294,-2.04719c0.05852,-0.37749 0.03254,-0.76811 -0.02805,-1.16279c-0.47317,-0.07684 -0.94446,-0.15028 -1.39665,-0.16026c-1.03494,-0.02285 -2.88086,-1.34332 -3.08809,-0.32908c-0.2854,1.39678 -0.99135,2.68783 -1.25312,4.08923c-0.19156,1.02549 0.11057,2.13343 -0.02486,3.15427zM183.38213,91.63845c-0.00246,0.11381 0.00753,0.21254 0.03507,0.2873c0.04381,0.11894 -0.00763,-0.07039 -0.03507,-0.2873zM164.93423,77.52299c-0.49511,-2.14596 -0.87716,-4.32 -1.19623,-6.49794c-0.12691,-0.86627 0.57005,-1.79133 0.26747,-2.6129c-0.08542,-0.23193 0.17917,0.65724 -0.05389,0.73953c-0.36306,0.12819 -0.78424,0.10662 -1.16765,-0.00784c0.27707,2.31125 -0.80387,4.77293 0.47821,6.98854c0.37596,0.64971 1.00042,1.06223 1.6721,1.39061z" fill="#ff0000"/><path d="M362.39376,131.97076c0,6.25 -6.25,6.25 -6.25,6.25h-4.5045c-3.98996,0 -8.01928,0.09896 -12.01201,0c-2.60645,-0.0646 -5.31501,0.46464 -7.81716,-0.26817c-2.35354,-0.68929 -4.23038,-2.488 -6.26557,-3.8563c-5.6974,-3.83049 -11.18393,-7.96897 -16.65744,-12.1131c-2.50376,-1.89566 -5.45602,-3.38246 -7.36313,-5.8775c-3.87312,-5.06714 -2.7057,-12.77987 -2.68124,-18.66945c0.01145,-2.75707 -0.36493,-5.54498 0.04683,-8.27115c0.64699,-4.28366 2.12422,-8.40058 3.10844,-12.61954c0.66044,-2.83105 0.75991,-5.82318 1.82499,-8.5281c1.85508,-4.71123 4.85216,-6.77875 8.02965,-10.33964c2.92328,-3.27601 5.46215,-6.90826 8.61461,-9.96437c1.59307,-1.54438 3.67497,-2.48729 5.51246,-3.73093c1.56803,-0.72621 2.9944,-1.92752 4.70409,-2.17862c6.14027,-0.90182 12.42171,0.50727 18.56833,1.36472c2.76303,0.38544 5.89463,-0.63502 8.33926,0.70912c2.56498,1.41031 3.84806,4.43434 5.45958,6.87793c2.78693,4.2259 3.29374,11.61185 2.17862,16.58501c-0.24487,1.09204 -1.21989,1.91986 -1.5015,3.003c-0.33306,1.28102 0.28184,2.77418 -0.30856,3.95882c-0.89794,1.80172 -2.65719,3.02545 -3.94386,4.57366c-1.65742,1.99431 -2.62492,4.78525 -4.88728,6.05254c-2.11369,1.18401 -4.81697,0.52854 -7.23083,0.73556c-2.77375,0.23788 -5.55343,0.40066 -8.33028,0.599c-8.43913,0.60279 -16.49733,0.90647 -24.92554,0.90647c0,0 -0.87596,0 -1.97201,-0.32793c-0.33482,1.27174 -0.62979,2.55165 -0.83382,3.85059c-0.34884,2.22078 0.03603,4.49588 0.04683,6.74386c0.01202,2.50247 0.03104,5.0052 0,7.50751c-0.00806,0.64954 -0.31533,3.22463 0.32177,3.85307c1.33017,1.31209 3.12564,2.04953 4.64888,3.13151c3.38444,2.40401 6.71493,4.88309 10.07214,7.32498c2.10132,1.52841 4.21929,3.03422 6.30346,4.58594c0.93187,0.6938 1.62215,1.84563 2.74344,2.1497c1.3523,0.36672 2.79469,-0.21601 4.19486,-0.26817c3.97863,-0.14823 8.03964,0 12.01201,0h4.5045c0,0 6.25,0 6.25,6.25zM314.90015,74.66876c7.83928,-0.0186 15.36333,-0.31139 23.23652,-0.87376c2.925,-0.20893 5.843,-0.65415 8.77529,-0.62282c0.6414,0.00685 1.26913,1.12583 1.77818,0.73556c0.83622,-0.64108 0.50038,-2.1033 1.11873,-2.95647c0.49115,-0.67766 1.68549,-0.68496 2.06214,-1.43234c0.31058,-0.61627 -0.46721,-1.37557 -0.30856,-2.04719c0.25728,-1.08918 1.18784,-1.9287 1.5015,-3.003c0.42723,-1.46328 -0.22293,-3.0467 -0.16719,-4.57005c0.02508,-0.68553 -0.49492,-4.7612 -1.20362,-5.00004c-1.18156,-0.39821 -2.42901,0.79727 -3.67275,0.70912c-2.54568,-0.18042 -4.97166,-1.21429 -7.50751,-1.5015c-2.74501,-0.3109 -5.92511,-0.7903 -8.25911,0.68761c-4.43416,2.88515 -7.64565,7.33064 -11.15172,11.29212c-1.03387,1.16817 -5.04043,4.72116 -5.7306,6.71498c-0.21076,0.60886 -0.35724,1.23411 -0.47131,1.86779z" fill="#ff0000"/><path d="M419.45082,149.98878c1.65069,0.73148 4.5045,1.19108 4.5045,4.5045c0,6.25 -6.25,6.25 -6.25,6.25l-4.29659,-0.65983c-1.8415,-1.26862 -4.31942,-1.92216 -5.52449,-3.80585c-1.0804,-1.68882 -0.93343,-6.81004 -0.93343,-9.29183c0,-9.00901 0,-18.01802 0,-27.02703c0,-8.50851 0,-17.01702 0,-25.52553c0,-0.05179 -0.00475,-0.59127 -0.00573,-1.32919c-0.19126,0.4411 -0.10758,1.03325 -0.35059,1.46323c-0.8879,1.57104 -2.06143,2.96504 -3.003,4.5045c-1.35973,2.22314 -1.58761,5.00395 -2.87257,7.27113c-2.30874,4.07355 -5.35946,7.71844 -7.45346,11.90643c-1.64343,3.28687 -3.37755,7.04062 -6.23081,9.45861l-1.21615,2.4323c-1.00215,2.11404 -3.15571,3.57602 -5.65072,3.57602c-3.45178,0 -6.25,-2.79822 -6.25,-6.25c0,-0.74227 0.1294,-1.45432 0.36686,-2.11483l1.45537,-4.3661l0.22796,0.07599l-0.07294,-0.49134c0.35306,-0.70611 3.80012,-6.98999 4.10945,-9.11988c0.21581,-1.48591 -0.24685,-3.02343 0,-4.5045c0.2602,-1.56119 1.2413,-2.94332 1.5015,-4.5045c0.24685,-1.48107 -0.26938,-3.02737 0,-4.5045c0.50964,-2.7946 2.31391,-5.20956 3.08949,-7.94232c0.80094,-2.82214 -0.16719,-9.31998 -0.16719,-12.07756c0,-5.00444 -0.02137,-10.01063 0,-15.01502c0.01159,-2.71409 0.48335,-5.46117 0.06041,-8.14213c-0.76373,-4.84115 -2.98692,-9.47997 -3.06341,-14.3804c0,0 0,-6.25 6.25,-6.25c6.25,0 6.25,6.25 6.25,6.25c-0.12235,4.32642 2.29943,8.36653 2.94259,12.64663c1.16681,7.76487 0.06041,16.93587 0.06041,24.89091c0,2.22034 0.2177,4.87197 0.30435,7.51686c0.28623,-0.52154 0.61386,-1.01078 1.03825,-1.42577c1.27349,-1.24531 3.06467,-1.81748 4.62734,-2.67225c2.591,-1.41727 8.56253,-4.27821 10.77751,-3.3421c2.87444,1.2148 4.37565,4.62931 5.60788,7.49632c0.19536,0.45453 0.16719,7.23728 0.16719,8.94346c0,8.50851 0,17.01702 0,25.52553c0,7.50751 0,15.01502 0,22.52252c0,2.02104 0.52977,4.13044 0.30577,6.11412c0.2556,0.07945 0.52211,0.17683 0.79144,0.29618c-0.05076,0.14792 -0.49362,0.41141 -0.95352,0.61166c-0.04092,0.16301 -0.08856,0.32491 -0.14369,0.48555z" fill="#ff0000"/><path d="M443.23085,163.74628c-6.25,0 -6.25,-6.25 -6.25,-6.25l0.0807,-4.00414c0.5005,-1.5015 1.3012,-2.93451 1.5015,-4.5045c0.33507,-2.62631 -0.29365,-5.32216 0.08649,-7.94232c0.16069,-1.10756 1.34433,-1.89494 1.5015,-3.003c0.30505,-2.1506 -0.3281,-4.34968 -0.15147,-6.51461c0.63125,-7.73731 3.41684,-15.16114 4.53561,-22.84311c0.61249,-4.20562 -0.55178,-8.52999 -0.04683,-12.74987c0.21715,-1.81472 1.27175,-3.52922 1.17974,-5.35457c-0.027,-0.53556 -0.94044,0.51555 -1.41066,0.77333c0,0 -5.92927,-1.97642 -3.95285,-7.90569c1.97642,-5.92927 7.90569,-3.95285 7.90569,-3.95285c2.53278,1.25878 6.26616,1.28138 7.59834,3.77633c1.27664,2.39091 1.19475,12.5918 1.17974,17.16795c-0.01068,3.25757 0.40603,6.5467 -0.04683,9.77265c-1.04948,7.47607 -3.83374,14.67971 -4.4734,22.20193c-0.24012,2.82373 0.25161,5.6953 -0.15147,8.50041c-0.15918,1.10777 -1.34586,1.89473 -1.5015,3.003c-0.3279,2.33483 0.37253,4.73237 0.08649,7.07269c-0.19202,1.57103 -1.001,3.003 -1.5015,4.5045l0.0807,2.00186c0,0 0,6.25 -6.25,6.25z" fill="#ff0000"/><path d="M447.73535,63.14568c-6.25,0 -6.25,-6.25 -6.25,-6.25l0.65983,1.29358c-0.66471,-1.45404 -1.61285,-2.80949 -1.99414,-4.36213c-1.11724,-4.54949 -0.16719,-10.27639 -0.16719,-14.94947c0,-3.18404 -0.55449,-7.37984 0.16719,-10.44496c0.66042,-2.80492 2.25528,-5.31092 3.15654,-8.04798c0,0 1.97642,-5.92927 7.90569,-3.95285c5.92927,1.97642 3.95285,7.90569 3.95285,7.90569c-0.80065,2.3779 -2.16443,4.55329 -2.84947,6.96704c-0.41619,1.46645 0.16719,3.04568 0.16719,4.57005c0,2.5025 0,5.00501 0,7.50751c0,3.39302 -0.85921,6.44546 0.84167,9.21693l0.65983,4.29659c0,0 0,6.25 -6.25,6.25z" fill="#ff0000"/></g></g></svg>