<svg version="1.1" xmlns="http://www.w3.org/2000/svg" xmlns:xlink="http://www.w3.org/1999/xlink" width="134.33956" height="97.76516" viewBox="0,0,134.33956,97.76516"><g transform="translate(-172.69736,-143.0188)"><g data-paper-data="{&quot;isPaintingLayer&quot;:true}" fill="#00ff72" fill-rule="nonzero" stroke="none" stroke-width="0.5" stroke-linecap="butt" stroke-linejoin="miter" stroke-miterlimit="10" stroke-dasharray="" stroke-dashoffset="0" style="mix-blend-mode: normal"><path d="M192.39875,233.1198c-0.85002,0.39738 -1.80668,0.73799 -2.88267,1.00698c-12.12678,3.0317 -15.15848,-9.09509 -15.15848,-9.09509c-1.74738,-8.12335 -2.87127,-9.81025 0.61132,-19.89422c0.97625,-2.82677 3.58398,-4.79167 5.25256,-7.27351c2.5942,-3.85858 5.22097,-7.69626 7.7371,-11.60619c4.15391,-6.45496 7.84063,-13.19935 11.84344,-19.74909c1.18929,-1.94602 4.98319,-8.64143 6.70217,-10.20387c6.62858,-6.02497 10.60749,-7.9324 18.53794,-10.98884c5.49531,-2.11793 11.33892,-3.12017 17.31417,-1.48159c19.68704,5.39872 31.57824,20.11729 44.25617,34.62581c2.95043,3.00412 6.32151,5.64635 8.85128,9.01236c2.5675,3.41621 4.37998,7.34727 6.30971,11.16024c4.06074,8.02363 8.09122,19.51219 2.5635,28.05986c-1.74583,2.69962 -5.73623,2.91917 -8.48042,4.59407c-1.36449,0.83281 -2.34682,2.27131 -3.81271,2.90894c-3.10768,1.35175 -6.42488,2.1899 -9.72095,2.9778c-17.40855,4.16139 -35.90659,4.48483 -53.63261,2.19712c-2.79546,-0.36078 -5.40545,-1.73264 -8.20815,-2.03198c-1.49998,-0.16021 -3.03414,0.29775 -4.52501,0.06775c-2.7166,-0.41909 -5.28282,-1.5847 -8,-2c-0.27807,-0.0425 -7.92387,0.24035 -8.47271,0.09366c-2.4082,-0.64368 -4.75195,-1.49567 -7.08563,-2.3802z"/></g></g></svg>