<svg version="1.1" xmlns="http://www.w3.org/2000/svg" xmlns:xlink="http://www.w3.org/1999/xlink" width="426.5" height="172.5" viewBox="0,0,426.5,172.5"><g transform="translate(-16.2344,-29.75)"><g data-paper-data="{&quot;isPaintingLayer&quot;:true}" fill-rule="nonzero" stroke-linecap="butt" stroke-linejoin="miter" stroke-miterlimit="10" stroke-dasharray="" stroke-dashoffset="0" style="mix-blend-mode: normal"><path d="M16.4844,202v-172h426v172z" fill="#350000" stroke="#000000" stroke-width="0.5"/><path d="M144.48439,106.48214c0,30.08966 -24.17662,54.48214 -54,54.48214c-29.82338,0 -54,-24.39248 -54,-54.48214c0,-30.08965 24.17662,-54.48214 54,-54.48214c29.82338,0 54,24.39249 54,54.48214z" fill="#ff0000" stroke="#000000" stroke-width="2"/><path d="M87.59153,86.71429c0,9.05352 -7.12347,16.39286 -15.91071,16.39286c-8.78724,0 -15.91071,-7.33933 -15.91071,-16.39286c0,-9.05352 7.12347,-16.39286 15.91071,-16.39286c8.78724,0 15.91071,7.33933 15.91071,16.39286z" fill="#ffffff" stroke="#000000" stroke-width="2"/><path d="M125.19867,87.19643c0,9.58608 -7.12347,17.35714 -15.91071,17.35714c-8.78724,0 -15.91071,-7.77106 -15.91071,-17.35714c0,-9.58608 7.12347,-17.35714 15.91071,-17.35714c8.78724,0 15.91071,7.77106 15.91071,17.35714z" fill="#ffffff" stroke="#000000" stroke-width="2"/><path d="M74.57367,86.23214c0,2.39652 -1.29518,4.33929 -2.89286,4.33929c-1.59768,0 -2.89286,-1.94277 -2.89286,-4.33929c0,-2.39652 1.29518,-4.33929 2.89286,-4.33929c1.59768,0 2.89286,1.94277 2.89286,4.33929z" fill="#000000" stroke="#000000" stroke-width="2"/><path d="M111.21653,85.75c0,2.92908 -1.07932,5.30357 -2.41071,5.30357c-1.3314,0 -2.41071,-2.37449 -2.41071,-5.30357c0,-2.92908 1.07932,-5.30357 2.41071,-5.30357c1.3314,0 2.41071,2.37449 2.41071,5.30357z" fill="#000000" stroke="#000000" stroke-width="2"/><path d="M61.4989,143.23882c-1.07811,-0.53905 -0.53905,-1.61716 -0.53905,-1.61716l0.55141,-1.08488c1.1279,-1.72455 2.31736,-3.4627 3.34131,-5.24893c0.377,-0.65765 0.58675,-1.4123 1.0288,-2.02811c0.87533,-1.21942 2.20531,-2.05851 3.11231,-3.25455c0.54511,-0.71882 0.78562,-1.67524 1.45075,-2.28471c0.46552,-0.42656 1.18553,-0.43539 1.77229,-0.66859c1.68762,-0.67071 3.30724,-1.42465 5.0383,-1.98672c3.03354,-0.60933 6.1736,-1.5695 9.24068,-1.9419c1.94641,-0.23634 4.0526,-0.00892 6.01621,-0.00609c2.42459,0.00349 4.9315,-0.13625 7.34748,0.10061c3.17414,0.31118 6.32822,1.12095 9.51399,1.34775c3.18696,0.22688 6.14824,-0.12289 9.31166,0.50252c0,0 1.18195,0.23639 0.94556,1.41834c-0.23639,1.18195 -1.41834,0.94556 -1.41834,0.94556c-3.048,-0.61732 -5.92961,-0.24322 -9.00977,-0.46177c-3.20838,-0.22764 -6.38375,-1.03675 -9.57948,-1.3533c-2.33672,-0.23147 -4.76929,-0.08562 -7.11425,-0.08899c-1.87542,-0.0027 -3.89233,-0.23667 -5.75001,-0.0083c-2.95326,0.36306 -5.96973,1.29572 -8.8935,1.87779c-1.64393,0.53566 -3.16643,1.34101 -4.79181,1.90787c-0.36476,0.12721 -0.84708,0.02286 -1.12056,0.2957c-0.49957,0.4984 -0.61029,1.28223 -1.02985,1.84964c-0.88361,1.19496 -2.2231,2.00799 -3.08565,3.21826c-0.39434,0.55331 -0.5635,1.23862 -0.89977,1.82903c-1.03927,1.82475 -2.2588,3.59923 -3.40869,5.35822l-0.41287,0.84369c0,0 -0.53905,1.07811 -1.61716,0.53905z" fill="#000000" stroke="none" stroke-width="0.5"/><text transform="translate(189.48438,120.5) scale(1.23673,1.23673)" font-size="40" xml:space="preserve" fill="#ffffff" fill-rule="nonzero" stroke="none" stroke-width="1" stroke-linecap="butt" stroke-linejoin="miter" stroke-miterlimit="10" stroke-dasharray="" stroke-dashoffset="0" font-family="Sans Serif" font-weight="normal" text-anchor="start" style="mix-blend-mode: normal"><tspan x="0" dy="0">Tolisxris</tspan></text></g></g></svg>