<svg version="1.1" xmlns="http://www.w3.org/2000/svg" xmlns:xlink="http://www.w3.org/1999/xlink" width="523.24559" height="347.40858" viewBox="0,0,523.24559,347.40858"><g transform="translate(30.26121,13.64752)"><g data-paper-data="{&quot;isPaintingLayer&quot;:true}" fill="#360000" fill-rule="nonzero" stroke="none" stroke-width="0.5" stroke-linecap="butt" stroke-linejoin="miter" stroke-miterlimit="10" stroke-dasharray="" stroke-dashoffset="0" style="mix-blend-mode: normal"><path d="M83.92354,119.23172c-0.19472,1.53713 0.13582,3.14584 -0.27355,4.64019c-0.59455,2.1703 -2.7778,3.88064 -2.82702,6.13037c-0.13001,5.94223 0.76496,12.07062 0,18c-0.13487,1.04543 -0.84755,1.95699 -1,3c-0.49676,3.39862 -0.42524,6.87259 -1.0434,10.25123c-0.69483,3.7977 -2.15472,7.4148 -3.25753,11.11468c-0.68431,2.29581 -0.29868,4.78668 -0.63132,7.1591c-0.25675,1.83117 -1.0237,3.62735 -0.90634,5.47271c0,8.3225 -0.56853,18.14359 -4.86686,25.57164c-0.74743,1.29166 -1.95336,2.25738 -2.96636,3.35322c-1.89901,2.05432 -3.28292,4.81228 -5.76855,6.09607c-8.46303,4.37101 -20.95767,0.5712 -26.53136,-6.44929c-2.00637,-2.52717 -1.91434,-9.7472 -1.86686,-13.57164c0.03725,-3.00101 -0.16982,-6.01937 0.16141,-9.00228c0.5238,-4.71708 2.41966,-8.87655 2.86275,-13.77444c0.36121,-3.99291 -0.02415,-8.2052 -0.02415,-12.22328c0,-7.30524 -0.09506,-14.34959 1.09366,-21.52729c0.46158,-2.78712 -0.25809,-5.66876 0.06775,-8.47499c0.12158,-1.04706 0.7836,-1.96836 1,-3c0.35793,-1.70633 -0.30166,-3.49761 -0.10057,-5.22944c0.57291,-4.93404 1.30399,-9.8132 2.31681,-14.62393c-2.26149,0.21452 -4.54402,0.35565 -6.87764,0.35565c-11.33333,0 -22.66667,0 -34,0h-2c0,0 -12.23092,0 -12.49564,-12.09855c-3.76417,0.59057 -9.26836,0.02141 -12.6847,-6.81128c-5.59017,-11.18034 5.59017,-16.77051 5.59017,-16.77051l7.59017,-2.31966c0.33257,0.0538 0.66515,0.1076 0.99772,0.16141c9.98014,-3.32671 21.49948,-2.16141 32.00228,-2.16141c3.06328,0 7.00223,0.66404 9.99772,0.16141c1.03956,-0.17443 1.95684,-0.8486 3,-1c2.79579,-0.40577 5.66719,0.24431 8.47499,-0.06775c5.15679,-0.57312 10.25539,-2.53576 15.49628,-3.05106c5.91939,-0.58202 12.08149,-0.04259 18.03101,-0.04259c1.87057,0 6.66795,-0.03225 8.00228,0.16141c1.04316,0.1514 1.96044,0.82557 3,1c2.31094,0.38776 4.69644,-0.34519 7.02873,-0.11882c4.03621,0.39176 7.95643,1.69339 12,2c4.72003,0.3579 9.48359,-0.37605 14.20071,0.01824c3.92625,0.32818 7.7238,1.69935 11.65439,1.97061c3.95413,0.27289 7.93798,-0.30113 11.89061,-0.00729c8.49963,0.63186 16.68423,0.97585 25.22328,0.97585c0,0 6.86104,0 10.41689,5.08311c5.08311,3.55585 5.08311,10.41689 5.08311,10.41689c-0.21329,2.63985 1.5614,5.30486 0.96855,7.88611c-0.93087,4.05294 -2.84186,7.89291 -5.09758,11.38642c-1.0114,1.5664 -2.99319,2.22568 -4.44612,3.39424c-1.28548,1.03389 -2.26911,2.51767 -3.76613,3.21072c-9.83789,4.55454 -18.91907,1.94807 -28.65358,-0.876c-2.36596,-0.68638 -4.48165,-2.11924 -6.869,-2.72705c-0.70015,-0.17825 -1.45368,0.26684 -2.16345,0.13189c-2.5491,-0.48468 -5.10289,-1.05633 -7.52963,-1.97492c-0.66897,-0.25322 -0.92037,-1.15859 -1.56538,-1.46778c-0.19718,-0.09452 -0.16011,0.51465 -0.3777,0.53635c-2.6535,0.26465 -5.33333,0 -8,0c-8.66667,0 -17.33333,0 -26,0c-0.44061,0 -0.89097,-0.01008 -1.34858,-0.02674c-0.71981,3.24353 -1.78921,6.41906 -2.21225,9.75846z"/><path d="M468.77964,24.4956c1.83954,1.28456 3.49183,3.33721 4.56328,6.55155c3.95285,11.85854 -7.90569,15.81139 -7.90569,15.81139l-1.46095,0.3704c-1,0.66667 -2,1.33333 -3,2c-2.27299,0.75766 -4.21058,2.31221 -6.43497,3.20249c-3.65513,1.4629 -7.80831,1.1701 -11.59564,2.24534c-0.80407,0.22828 -1.21847,1.18507 -1.96939,1.55217c-4.23791,2.07178 -8.81065,2.64128 -13.28354,3.8523c-2.24877,0.60885 -4.35353,1.7559 -6.64901,2.15394c-14.00334,2.42818 -28.42756,1.26481 -42.55934,1.26481c-23,0 -46,0 -69,0c-8,0 -16,0 -24,0c-3.33333,0 -6.66669,0.01331 -10,0c-1.74401,-0.00697 -3.59328,0.53677 -5.23172,-0.06083c-5.08723,-1.85549 -11.66636,-2.60049 -14.57966,-7.16508c-4.32152,-6.77102 0.39427,-16.23245 4.97254,-21.11292c6.7097,-7.15259 16.23061,-8.48947 25.31154,-9.56751c4.20549,-0.49925 8.34804,-2.33554 12.52501,-2.93225c2.33333,-0.33333 4.76393,-0.25464 7,-1c8.55577,-0.23007 16.9644,-0.79938 25.52257,-1.1522c11.46948,-0.47284 23.14856,0.86754 34.59359,0.02224c2.35062,-0.17361 4.64793,-0.84729 7,-1c4.32423,-0.28076 8.68303,0.37622 13,0c2.34812,-0.20463 4.64689,-0.8643 7,-1c6.58766,-0.37989 13.23974,0.76431 19.7958,0.01619c15.70296,-1.79186 32.37554,-7.09027 48.04316,-2.40618c0,0 6.68214,2.22738 8.34241,8.35414z"/><path d="M-21.01562,1c0,-12.5 12.5,-12.5 12.5,-12.5h1c1.3441,0.21744 2.64734,-0.66438 3.99772,-0.83859c1.59836,-0.20621 9.05537,-0.16141 11.00228,-0.16141c6,0 12,0 18,0c2.30948,0 5.2067,0.46893 7.47271,0.09366c7.17488,-1.18824 14.23337,-1.09366 21.52729,-1.09366c5.57708,0 11.47597,-0.42195 17.00228,0.16141c1.04827,0.11066 1.9606,0.82462 3,1c3.229,0.54484 6.74463,0.46318 10,1c1.04005,0.17151 1.96044,0.82557 3,1c6.53816,1.09707 13.89627,-0.96155 20.52501,-0.06775c2.72409,0.36731 5.28282,1.5847 8,2c7.91211,1.2093 10.20828,-5.57639 20.31154,3.56751c3.5284,3.19336 3.17513,9.09329 3.49976,13.84111c0.15517,2.26934 -1.08211,4.4603 -2.10965,6.48962c-2.89877,5.72487 -6.38293,9.09735 -12.60664,11.47176c-2.06919,0.78942 -4.41487,0.35757 -6.6223,0.53635c-13.22257,0 -26.32114,-1.26392 -39.51948,-2.0108c-6.22747,-0.3524 -12.50013,0.5115 -18.71224,-0.05003c-5.61618,-0.50767 -11.03125,-2.5469 -16.65439,-2.97061c-7.24735,-0.54611 -14.84001,0.03145 -22.11389,0.03145c-3.42737,0 -8.93826,-1.18178 -12.04715,0.35854c0,0 -11.85854,3.95285 -15.81139,-7.90569c-0.17022,-0.51065 -0.31112,-1.00665 -0.4249,-1.4883c-0.23853,0.01575 -0.47737,0.02773 -0.71655,0.03545h-1c0,0 -12.5,0 -12.5,-12.5z"/><path d="M312.45337,160.54259c4.40817,-0.46487 8.73269,-1.58627 13.14489,-2.01114c9.41626,-0.90674 19.43889,-0.03145 28.88611,-0.03145c18,0 36,0 54,0c5.66667,0 11.33333,0 17,0c2.33319,0 4.71423,0.64041 6.99772,0.16141c5.0346,-1.0561 10.63286,-2.31786 15.78582,-0.2099c2.3667,0.96816 4.24717,2.90154 6.05529,4.70966c1.80812,1.80812 4.02568,3.5914 4.70966,6.05529c2.42011,8.71796 1.04442,15.76312 -5.96107,21.71738c-5.54985,4.71705 -14.02341,3.56617 -20.58742,3.56617c-6.99367,0 -14.00627,0.10982 -21,0c-2.78862,-0.04379 -5.61277,0.2326 -8.36384,-0.22555c-1.77067,-0.29488 -3.24314,-1.63168 -5,-2c-1.19787,-0.25113 -2.44775,0.28773 -3.66716,0.18295c-2.22669,-0.19133 -4.41285,-0.71122 -6.61927,-1.06682c-8.39029,-0.83406 -16.7226,-2.23053 -25.12644,-2.91474c-10.90601,-0.88793 -22.27135,0.02415 -33.22328,0.02415c-5.02703,0 -11.01386,0.79176 -16,0c-0.05474,-0.00869 -0.05228,-0.04171 -0.01546,-0.08767c-0.75662,0.58608 -1.46131,1.27053 -2.36224,1.55132c-3.56739,1.11185 -7.96928,0.85341 -11.62002,1.37494c-0.82737,0.1182 -1.65203,0.2664 -2.47642,0.41723c-0.01563,0.75613 -0.02586,1.50523 -0.02586,2.24417c0,5.86533 0.75175,12.21627 -0.16141,18.00228c-0.43278,2.74222 -1.43133,5.36522 -2.21181,8.02942c-0.70036,2.39071 -1.01719,4.96187 -2.24928,7.12704c-3.84625,6.75903 -11.78266,12.23609 -19.64578,12.28043c-3.92237,0.02212 -8.42485,0.08413 -11.5406,-2.29864c-6.57956,-5.03172 -5.99013,-9.91133 -6.19112,-16.14053c0,-22.42089 -1.09493,-45.12917 0.0108,-67.51948c0.50058,-10.13644 0.9296,-20.29438 2.13307,-30.37157c0.31153,-2.60854 1.55174,-5.03949 1.94978,-7.63624c0.57945,-3.78021 -0.09366,-7.64835 -0.09366,-11.47271c0,0 0,-11.83989 11.52303,-12.47362c0.98353,-3.69899 3.81656,-9.02638 11.97697,-9.02638c12.5,0 12.5,12.5 12.5,12.5c0,21.50632 0,43.86217 0,65.50153c5.73625,0.03465 11.80055,0.63883 17.46899,0.04106zM270.6379,214.69543c-0.12919,-0.04378 -0.25768,-0.08853 -0.38525,-0.1346c-0.13261,-0.04789 0.23227,0.16306 0.32813,0.31543c0.00972,-0.01058 0.01845,-0.02222 0.02609,-0.035c0.02803,-0.04697 0.03619,-0.09572 0.03103,-0.14583z"/><path d="M150.15446,202.37528c0.6,-1.06072 1.41438,-2.13742 2.49108,-3.21411c8.83883,-8.83883 17.67767,0 17.67767,0l4.66117,9.83883c-1.74805,-2.02818 1.18604,1.32449 1.46365,2.3777c0.64399,2.44313 0.53635,7.72382 0.53635,10.6223c-0.21744,1.3441 0.64303,2.65026 0.83859,3.99772c0.67524,4.65253 0.8325,12.86236 -0.06414,17.36612c-0.41703,2.09471 -1.66967,3.9452 -2.23679,6.00435c-1.37474,4.99148 -2.59224,11.45682 -2.53766,16.63181c0.04907,4.65241 0.53701,9.9201 -0.09366,14.52729c-0.29783,2.17575 -1.12262,4.24826 -1.66095,6.37827c3.0768,0.35724 6.12457,0.3643 9.25688,0.75584c1.67615,0.20952 3.30853,0.83859 4.99772,0.83859c2.69537,0 5.33524,0.77158 8.00228,1.16141c3.49631,0.51104 7.07522,0.42284 10.54309,1.10049c1.01276,0.1979 1.95288,0.75482 2.98192,0.83176c2.56102,0.19147 5.14429,-0.23569 7.70443,-0.03282c7.20657,0.57105 14.22141,2.91548 21.29557,4.03282c5.79051,0.91459 12.57168,-0.09366 18.47271,-0.09366c10.54407,0 21.5153,-0.79875 32.03101,0.04259c3.40625,0.27253 6.81496,0.55617 10.20071,1.01824c1.03799,0.14166 1.94398,0.97192 2.99156,0.96332c1.14986,-0.00944 2.20994,-1.38984 3.29701,-1.01495c5.405,1.86397 12.00606,2.90237 15.43728,7.47568c2.59427,3.45778 0.43739,8.67859 -0.09903,12.96796c-1.14684,9.17043 -11.73069,14.91525 -19.85626,16.38575c-3.76119,0.68066 -8.16589,0.16141 -12.00228,0.16141c-7.32108,0 -14.95912,0.62606 -22.23172,-0.06083c-1.69214,-0.15982 -3.30999,-0.81898 -5,-1c-2.98294,-0.3195 -6.01834,0.33125 -9,0c-3.15236,-0.35021 -6.16531,-1.52151 -9.29557,-2.03282c-7.25833,-1.18562 -15.12902,0.9984 -22.47499,-0.06775c-4.50791,-0.65425 -8.38348,-1.83859 -12.99772,-1.83859c-7.13899,0 -14.94052,0.8635 -22.00228,-0.16141c-1.04316,-0.1514 -1.96266,-0.81282 -3,-1c-1.52052,-0.27436 -3.14892,0.09738 -4.62002,-0.37494c-1.62073,-0.52037 -2.87142,-1.85846 -4.43462,-2.53222c-2.27837,-0.98201 -4.60463,-0.70271 -6.94536,-1.09284c-1.03975,-0.17329 -1.96044,-0.82557 -3,-1c-8.27292,-1.38815 -17.71709,4.80509 -25.89595,-0.31766c-9.78545,-6.12902 -8.70483,-14.11309 -8.37623,-23.38478c1.26574,-3.44615 2.17295,-7.01515 3.38079,-10.48202c0.42471,-1.21904 1.34741,-2.25601 1.61921,-3.51798c0.28073,-1.30344 -0.28924,-2.69842 0,-4c0.3894,-1.75231 1.56464,-3.25854 2,-5c0.24254,-0.97014 -0.24254,-2.02986 0,-3c0.43536,-1.74146 1.53657,-3.2658 2,-5c0.16137,-0.60385 -0.24017,-1.24741 -0.16471,-1.86788c0.20521,-1.68724 0.796,-3.31261 1,-5c0.39092,-3.23348 -0.43352,-6.55762 0.10057,-9.77056c0.34571,-2.07965 1.67944,-3.91633 2,-6c0.85205,-5.53833 0.16905,-11.19262 0.95941,-16.73149c0.34281,-2.40237 1.55901,-4.6137 2,-7c0.21192,-1.14674 -0.19373,-2.33949 -0.05999,-3.49796c0.24203,-2.09642 0.78794,-4.14649 1.18191,-6.21973c0,0 1.32975,-6.64876 6.92735,-9.17327z"/><path d="M-14.15333,313.54338c-3.28332,-0.2445 -6.99397,-1.85588 -9.54264,-6.95321c-5.59017,-11.18034 5.59017,-16.77051 5.59017,-16.77051l7.59017,-2.31966c3.7622,0.1425 7.16363,-0.95227 11,-1c13.32859,-0.16584 26.67052,0 40,0c5.81133,0 11.36391,-0.02134 17.00228,1.16141c1.9574,0.4106 4.02666,-0.32545 6,0c2.08009,0.34306 3.92342,1.63631 6,2c2.91225,0.51005 7.16361,-0.36593 10,0c1.04543,0.13487 1.96044,0.82557 3,1c7.60324,1.27579 11.10409,-2.924 19.27025,3.96762c2.93976,2.48093 4.26772,6.60574 5.06606,10.3687c1.76804,8.33359 -1.76758,13.05539 -8.17986,17.87978c-1.62684,1.22398 -3.91877,1.12302 -5.82191,1.84606c-1.86517,0.70862 -3.52695,1.96743 -5.46492,2.44205c-1.59753,0.39124 -6.60097,0.33439 -8.87191,0.33439c-4.22363,0 -8.8392,0.41718 -13.00228,-0.16141c-2.46788,-0.34299 -4.74692,-1.68697 -7.22944,-1.89943c-10.6859,-0.91452 -22.04411,0.06083 -32.76828,0.06083c-6.23995,0 -12.79059,-0.60235 -18.99772,-0.16141c-1.43814,0.10216 -2.68165,1.06402 -4.04943,1.51995c0,0 -11.85854,3.95285 -15.81139,-7.90569c-0.67591,-2.02772 -0.88951,-3.82429 -0.77916,-5.40947z"/><path d="M492.98438,290c0,8.02972 -5.15811,10.90133 -8.84743,11.92828c-0.91516,0.62232 -1.84662,1.21208 -2.86903,1.62022c-3.44761,1.37624 -7.22463,1.72689 -10.78126,2.7901c-3.73581,0 -3.76647,0.6517 -7.50743,1.66291c-3.08472,0.83382 -6.32927,0.88514 -9.49257,1.33709c-1.0435,0.14909 -1.95401,0.86955 -3,1c-5.86037,0.73085 -11.90204,0.56707 -17.77056,1.10057c-1.69269,0.15388 -3.30939,0.82472 -5,1c-4.57629,0.47447 -10.16514,-1.07218 -14.49796,-0.05999c-7.1876,1.6791 -13.43489,3.58284 -20.95705,4.09667c-9.49028,0.64827 -19.25934,0.02415 -28.77672,0.02415c-3.94628,-1.22039 -9.20256,-0.48114 -11.83883,-3.66117c-8.23805,-9.9372 -2.85834,-24.12457 7.05529,-29.38733c2.01004,-1.06705 4.54273,-0.38042 6.78126,-0.7901c1.03687,-0.18976 1.95457,-0.86513 3,-1c3.28818,-0.42422 7.19281,0.46147 10.47499,-0.06775c9.00442,-1.45187 17.7364,-4.76095 26.82316,-5.97695c10.35093,-1.38517 20.82361,-1.69358 31.25855,-2.10876c9.80709,-0.39021 20.35335,1.32117 29.99413,-0.7652c0,0 8.59683,-1.71937 12.83114,4.9214l0.62031,-0.16414c0,0 12.5,0 12.5,12.5z"/></g></g></svg>