<svg version="1.1" xmlns="http://www.w3.org/2000/svg" xmlns:xlink="http://www.w3.org/1999/xlink" width="231" height="272.25" viewBox="0,0,231,272.25"><g transform="translate(-91.48438,-45)"><g data-paper-data="{&quot;isPaintingLayer&quot;:true}" fill-rule="nonzero" stroke-linecap="butt" stroke-linejoin="miter" stroke-miterlimit="10" stroke-dasharray="" stroke-dashoffset="0" style="mix-blend-mode: normal"><path d="M321.48438,165.5c0,65.99803 -51.2634,119.5 -114.5,119.5c-63.2366,0 -114.5,-53.50197 -114.5,-119.5c0,-65.99803 51.2634,-119.5 114.5,-119.5c63.2366,0 114.5,53.50197 114.5,119.5z" fill="#a5ff00" stroke="#000000" stroke-width="2"/><path d="M196.4844,116c0,17.67311 -12.98374,32 -29,32c-16.01626,0 -29,-14.32689 -29,-32c0,-17.67311 12.98374,-32 29,-32c16.01626,0 29,14.32689 29,32z" fill="#ffffff" stroke="#000000" stroke-width="2"/><path d="M274.48438,116.5c0,17.94925 -13.2076,32.5 -29.5,32.5c-16.2924,0 -29.5,-14.55075 -29.5,-32.5c0,-17.94925 13.2076,-32.5 29.5,-32.5c16.2924,0 29.5,14.55075 29.5,32.5z" fill="#ffffff" stroke="#000000" stroke-width="2"/><path d="M167.4844,112c0,4.97056 -0.89543,9 -2,9c-1.10457,0 -2,-4.02944 -2,-9c0,-4.97056 0.89543,-9 2,-9c1.10457,0 2,4.02944 2,9z" fill="#000000" stroke="#000000" stroke-width="2"/><path d="M239.48439,112c0,5.52285 -0.67157,10 -1.5,10c-0.82843,0 -1.5,-4.47715 -1.5,-10c0,-5.52285 0.67157,-10 1.5,-10c0.82843,0 1.5,4.47715 1.5,10z" fill="#000000" stroke="#000000" stroke-width="2"/><path d="M261.98438,221c0,2.5 -2.5,2.5 -2.5,2.5l-3.40046,-0.03228c-3.8743,-1.27197 -6.98733,-0.82587 -11.00057,-1.69636c-1.68595,-0.36569 -3.22091,-1.24837 -4.87618,-1.73441c-6.33436,-1.85998 -12.84853,-2.43765 -19.12325,-4.56923c-4.18106,-0.09432 -6.66239,-2.19667 -10.6467,-3.51487c-5.85293,-1.93643 -9.83372,-2.45285 -15.95285,-2.45285c-2.14596,0 -4.33194,-0.47819 -6.43757,-0.06409c-3.96103,0.77899 -7.96203,3.92484 -12.02017,5.00037c-8.68885,2.30281 -17.64562,2.06372 -26.54226,2.06372c0,0 -2.5,0 -2.5,-2.5c0,-2.5 2.5,-2.5 2.5,-2.5c8.45951,0 16.99829,0.28456 25.26354,-1.89744c4.17962,-1.10341 8.05278,-4.197 12.17403,-5.03847c0.38267,-0.07813 6.44699,-0.06409 7.56243,-0.06409c4.59728,0 8.25735,-0.19531 12.69897,1.0997c0.06797,0.01982 9.17482,3.04838 9.39941,3.15451c0.96865,0.45773 1.61033,1.51242 2.62608,1.85306c0.84604,0.28372 1.784,-0.04999 2.676,-0.07499c6.4891,2.12562 13.19961,2.79055 19.73063,4.70709c1.54313,0.45284 2.96411,1.30151 4.53473,1.64713c3.77765,0.83128 7.03335,0.39208 10.73464,1.64578l2.59954,-0.03228c0,0 2.5,0 2.5,2.5z" fill="#000000" stroke="none" stroke-width="0.5"/><text transform="translate(159.48438,311) scale(0.5,0.5)" font-size="40" xml:space="preserve" fill="#ffffff" fill-rule="nonzero" stroke="none" stroke-width="1" stroke-linecap="butt" stroke-linejoin="miter" stroke-miterlimit="10" stroke-dasharray="" stroke-dashoffset="0" font-family="Sans Serif" font-weight="normal" text-anchor="start" style="mix-blend-mode: normal"><tspan x="0" dy="0">Panagiot</tspan></text></g></g></svg>