<svg version="1.1" xmlns="http://www.w3.org/2000/svg" xmlns:xlink="http://www.w3.org/1999/xlink" width="203.10933" height="217.9344" viewBox="0,0,203.10933,217.9344"><g transform="translate(-114.70978,-49.16691)"><g data-paper-data="{&quot;isPaintingLayer&quot;:true}" fill-rule="nonzero" stroke-width="0.5" stroke-linecap="butt" stroke-linejoin="miter" stroke-miterlimit="10" stroke-dasharray="" stroke-dashoffset="0" style="mix-blend-mode: normal"><path d="M317.56911,158.13411c0,60.04285 -45.35564,108.7172 -101.30466,108.7172c-55.94902,0 -101.30466,-48.67435 -101.30466,-108.7172c0,-60.04285 45.35564,-108.7172 101.30466,-108.7172c55.94902,0 101.30466,48.67435 101.30466,108.7172z" fill="#ef00ff" stroke="#000000"/><path d="M208.8519,113.65889c0,15.82948 -11.72609,28.66181 -26.19096,28.66181c-14.46487,0 -26.19096,-12.83233 -26.19096,-28.66181c0,-15.82948 11.72609,-28.66181 26.19096,-28.66181c14.46487,0 26.19096,12.83233 26.19096,28.66181z" fill="#ffffff" stroke="#000000"/><path d="M270.18718,112.72886c0,15.82948 -11.72609,28.66181 -26.19096,28.66181c-14.46487,0 -26.19096,-12.83233 -26.19096,-28.66181c0,-15.82948 11.72609,-28.6618 26.19096,-28.6618c14.46487,0 26.19096,12.83232 26.19096,28.66181z" fill="#ffffff" stroke="#000000"/><path d="M189.08514,112.17638c0,4.63967 -3.31871,8.40087 -7.41254,8.40087c-4.09383,0 -7.41254,-3.7612 -7.41254,-8.40087c0,-4.63967 3.31871,-8.40087 7.41254,-8.40087c4.09383,0 7.41254,3.7612 7.41254,8.40087z" fill="#000000" stroke="#000000"/><path d="M251.40876,114.21137c0,4.63967 -3.3187,8.40087 -7.41253,8.40087c-4.09383,0 -7.41254,-3.7612 -7.41254,-8.40087c0,-4.63967 3.31871,-8.40087 7.41254,-8.40087c4.09383,0 7.41253,3.7612 7.41253,8.40087z" fill="#000000" stroke="#000000"/><path d="M271.43718,223.36443c0,6.25 -6.25,6.25 -6.25,6.25h-2.96501c-6.16375,0 -12.90534,0.89292 -18.79123,-1.06904c-3.34029,0 -5.74955,-1.44553 -8.89504,-1.97668c-2.84104,-0.47974 -6.0113,0.44478 -8.89504,0c-1.02963,-0.15881 -1.94044,-0.79967 -2.96501,-0.98834c-1.86617,-0.34365 -3.81199,0.28728 -5.69254,0.03388c-1.34617,-0.1814 -2.61063,-0.78294 -3.95335,-0.98834c-2.88381,-0.44115 -6.18845,0.04683 -9.11974,0.04683c-5.60058,0 -11.20199,0.09597 -16.80175,0c-2.58156,-0.04424 -5.21419,0.26168 -7.74118,-0.26817c-1.16255,-0.24376 -1.82126,-1.6561 -2.96501,-1.97668c-1.00847,-0.28266 -2.08703,0.17878 -3.13054,0.26817c0,0 -6.25,0 -6.25,-6.25c0,-6.25 6.25,-6.25 6.25,-6.25c2.25095,0.08939 4.55792,-0.23886 6.75284,0.26817c1.15736,0.26735 1.81029,1.69818 2.96501,1.97668c1.33752,0.32258 2.74335,-0.2375 4.11888,-0.26817c2.63491,-0.05876 5.27114,0 7.90671,0c8.05,0 15.62217,-0.16923 23.49542,1.03517c2.03223,0.31088 4.13568,-0.27951 6.16752,0.03388c1.02963,0.15881 1.94044,0.79967 2.96501,0.98834c2.82101,0.51948 6.0267,-0.47491 8.89504,0c3.65238,0.60472 5.22102,1.97668 8.89504,1.97668c5.28535,1.76178 11.23664,0.90763 16.78895,0.90763h2.96501c0,0 6.25,0 6.25,6.25z" fill="#000000" stroke="none"/></g></g></svg>