<svg version="1.1" xmlns="http://www.w3.org/2000/svg" xmlns:xlink="http://www.w3.org/1999/xlink" width="230" height="278.51188" viewBox="0,0,230,278.51188"><g transform="translate(-108.48438,-12.48811)"><g data-paper-data="{&quot;isPaintingLayer&quot;:true}" fill-rule="nonzero" stroke-linejoin="miter" stroke-miterlimit="10" stroke-dasharray="" stroke-dashoffset="0" style="mix-blend-mode: normal"><path d="M337.48439,168c0,67.37874 -51.03954,122 -114,122c-62.96046,0 -114,-54.62126 -114,-122c0,-67.37874 51.03954,-122 114,-122c62.96046,0 114,54.62126 114,122z" fill="#fff700" stroke="#000000" stroke-width="2" stroke-linecap="butt"/><path d="M218.48439,120c0,17.12082 -12.31217,31 -27.5,31c-15.18783,0 -27.5,-13.87918 -27.5,-31c0,-17.12082 12.31217,-31 27.5,-31c15.18783,0 27.5,13.87918 27.5,31z" fill="#ffffff" stroke="#000000" stroke-width="2" stroke-linecap="butt"/><path d="M284.48438,120.5c0,17.39697 -12.75988,31.5 -28.5,31.5c-15.74012,0 -28.5,-14.10303 -28.5,-31.5c0,-17.39697 12.75988,-31.5 28.5,-31.5c15.74012,0 28.5,14.10303 28.5,31.5z" fill="#ffffff" stroke="#000000" stroke-width="2" stroke-linecap="butt"/><path d="M320.48438,159.5c2.5,0 2.5,2.5 2.5,2.5l-0.26393,3.11803c-1.17204,2.33552 -1.66965,5.01562 -3.10944,7.1963c-1.42187,2.15352 -3.69426,3.69411 -4.96435,5.94048c-1.92438,3.40363 -1.77386,4.36608 -4.22892,7.33015c-2.78999,3.36844 -5.92648,5.89169 -8.4887,9.49358c-2.06935,2.06647 -3.60898,4.6213 -5.67689,6.68921c-2.80809,2.8081 -6.17032,4.66554 -8.83441,7.81721c-1.78627,2.11319 -3.23226,4.56559 -5.34839,6.34839c-3.12727,2.63466 -6.91584,4.93304 -9.81721,7.83441c-1.13696,1.13696 -1.83272,2.64943 -2.87913,3.87024c-3.06833,3.57972 -6.78756,6.79645 -10.12087,10.12976c-1.80212,1.80212 -3.27807,4.03106 -5.45343,5.35886c-1.00472,0.61326 -2.24518,0.71783 -3.33115,1.17193c-2.25858,0.94442 -3.9904,2.85708 -6.13635,4.03522c-2.3193,1.27331 -4.90817,1.98729 -7.29261,3.13401c-8.59499,3.38932 -16.49456,3.03222 -25.55423,3.03222c-6.97487,0 -13.69381,0.05395 -20.09838,-3.25421c-1.31132,-0.67733 -2.61023,-1.45015 -3.66939,-2.47803c-0.78596,-0.76274 -0.89486,-2.09638 -1.74972,-2.781c-0.76132,-0.60971 -1.95988,-0.3593 -2.79685,-0.86014c-0.85883,-0.51393 -1.3147,-1.54332 -2.14744,-2.09852c-1.24033,-0.82693 -2.76477,-1.16547 -4,-2c-3.41172,-2.30497 -5.82546,-5.89217 -9.30599,-8.26034c-2.62904,-3.84406 -5.28236,-7.56056 -8.16559,-11.18279c-3.6699,-4.61052 -8.95457,-8.33113 -12.19327,-13.27064c-0.43218,-0.65914 -1.7677,-5.37852 -2.18308,-6.35762c-0.63395,-1.49431 -1.69261,-2.81732 -2.12342,-4.38233c-0.09182,-0.33355 -0.06688,-7.50038 -0.06688,-7.57438c0,-5.05937 -0.44317,-9.92981 1.12829,-14.79057c0,0 0.79057,-2.37171 3.16228,-1.58114c2.37171,0.79057 1.58114,3.16228 1.58114,3.16228c-1.46493,4.22938 -0.87171,8.76169 -0.87171,13.20943c0,2.14199 -0.68135,4.37366 -0.06688,6.42562c0.3897,1.30138 1.3366,2.37112 1.87658,3.61767c0.78539,1.81311 0.70426,4.00953 1.81692,5.64238c0.7146,1.04869 1.89029,1.70107 2.7362,2.64703c2.91326,3.25784 6.33222,6.67534 9.07054,10.08234c2.79356,3.47573 5.40523,7.04746 7.83441,10.81721c3.31184,2.15649 5.49267,5.63711 8.69401,7.73966c1.24601,0.81834 2.75963,1.17314 4,2c0.7363,0.49084 1.09428,1.44533 1.85256,1.90148c0.97114,0.5842 2.31788,0.43228 3.20315,1.13986c1.71657,1.37203 2.5975,3.79483 4.58089,4.74097c5.9074,2.81804 11.52606,2.74579 17.90162,2.74579c8.30978,0 15.69682,0.51499 23.54851,-2.61229c2.24949,-1.08211 4.70278,-1.73134 6.88943,-2.93539c2.2871,-1.25937 4.17038,-3.24292 6.57888,-4.25087c0.85924,-0.35959 1.86513,-0.35728 2.66885,-0.82807c1.86869,-1.0946 3.0152,-3.10978 4.54657,-4.64114c3.24952,-3.24952 6.88782,-6.38038 9.87913,-9.87024c1.12291,-1.31007 1.90079,-2.90968 3.12087,-4.12976c3.01335,-3.01334 6.90286,-5.46601 10.18279,-8.16559c1.88387,-1.55054 3.07293,-3.79126 4.65161,-5.65161c1.93633,-2.2818 4.03086,-4.45497 6.34839,-6.34839c0.8678,-0.70899 2.02482,-1.04202 2.81721,-1.83441c1.96956,-1.96956 3.42597,-4.41094 5.39418,-6.38185c2.53825,-3.56819 5.659,-6.12175 8.44023,-9.43535c1.95504,-2.32926 2.18696,-3.92401 3.77108,-6.66985c1.3124,-2.27483 3.56696,-3.88232 5.03565,-6.05952c1.378,-2.04276 1.79156,-4.59826 2.89056,-6.8037l-0.26393,-0.88197c0,0 0,-2.5 2.5,-2.5z" fill="#000000" stroke="none" stroke-width="0.5" stroke-linecap="butt"/><path d="M190.48439,126.5c-2.5,0 -2.5,-2.5 -2.5,-2.5l0.12829,-1.20943c-0.70585,-2.18329 -1.10651,-4.49612 -1.12829,-6.79057c0,0 0,-2.5 2.5,-2.5c2.5,0 2.5,2.5 2.5,2.5c-0.02186,1.76049 0.29547,3.54578 0.87171,5.20943l0.12829,2.79057c0,0 0,2.5 -2.5,2.5z" fill="#000000" stroke="none" stroke-width="0.5" stroke-linecap="butt"/><path d="M257.60242,127.23607c-2.23607,1.11804 -3.35411,-1.11803 -3.35411,-1.11803l-1.13564,-2.32747c-0.80718,-2.49671 -1.10904,-5.16669 -1.12829,-7.79057c0,0 0,-2.5 2.5,-2.5c2.5,0 2.5,2.5 2.5,2.5c-0.01875,2.09002 0.18763,4.23444 0.87171,6.20943l0.86436,1.67253c0,0 1.11804,2.23607 -1.11803,3.35411z" fill="#000000" stroke="none" stroke-width="0.5" stroke-linecap="butt"/><path d="M294.98438,69c-12.4264,0 -22.5,-9.17816 -22.5,-20.5c0,-11.32183 10.0736,-20.5 22.5,-20.5c12.4264,0 22.5,9.17817 22.5,20.5c0,11.32184 -10.0736,20.5 -22.5,20.5z" fill="#ffa000" stroke="#000000" stroke-width="2" stroke-linecap="butt"/><path d="M290.48438,28l7,-13l5,15" fill="none" stroke="#ffa000" stroke-width="2" stroke-linecap="round"/><path d="M311.48438,36l14,-5l-8,14" fill="none" stroke="#ffa000" stroke-width="2" stroke-linecap="round"/><path d="M294.44344,26.56072c-0.05858,0.06895 -0.12224,0.138 -0.19129,0.20705c-1.76777,1.76777 -3.53553,0 -3.53553,0l0.76777,-5.26777c0.12159,0.00115 0.26347,-0.00032 0.42189,-0.00298c0.46288,-0.44654 1.26611,-0.52965 2.07811,-0.47017v-2.02685c0,-1.38071 1.11929,-2.5 2.5,-2.5c1.38071,0 2.5,1.11929 2.5,2.5v3c0,0 0,0.20612 -0.05919,0.5c0.7692,0 1.55919,0 1.55919,0c1.38071,0 2.5,1.11929 2.5,2.5c0,1.38071 -1.11929,2.5 -2.5,2.5h-3v-0.11016c-0.13244,0.0296 -0.26589,0.05569 -0.40046,0.07788c-0.91858,0.15148 -1.74449,-0.60464 -2.64049,-0.907z" fill="#ffa000" stroke="none" stroke-width="0.5" stroke-linecap="butt"/><path d="M313.91584,40.07045c-0.55878,0.43336 -1.40861,0.73605 -2.54948,0.16562c-2.23607,-1.11803 -1.11803,-3.3541 -1.11803,-3.3541l3.64849,-1.93202l-0.34577,-0.53492c0.31789,0.08055 0.6422,0.14652 0.97011,0.20431l0.73101,-0.3871c0.20354,0.20516 0.41814,0.40113 0.63444,0.59569c0.11539,0.01645 0.23075,0.03297 0.34596,0.04983l0.63859,-0.95788l0.91415,0.60943c0.7674,-1.73609 2.57123,-2.93697 3.93134,-4.29707c0,0 1.76777,-1.76777 3.53553,0c1.76777,1.76777 0,3.53553 0,3.53553c-1.2709,1.2709 -2.46721,2.41234 -3.71352,3.50317c2.90879,3.02671 1.28363,6.74331 -4.86559,6.09375c-1.4298,-0.15103 -1.92175,-2.01517 -2.75721,-3.29423z" fill="#ffa000" stroke="none" stroke-width="0.5" stroke-linecap="butt"/><path d="M285.98438,42c0,-1.38071 1.11929,-2.5 2.5,-2.5c1.38071,0 2.5,1.11929 2.5,2.5c0,1.38071 -1.11929,2.5 -2.5,2.5c-1.38071,0 -2.5,-1.11929 -2.5,-2.5z" fill="#000000" stroke="none" stroke-width="0.5" stroke-linecap="butt"/><path d="M299.98438,47c0,-1.38071 1.11929,-2.5 2.5,-2.5c1.38071,0 2.5,1.11929 2.5,2.5c0,1.38071 -1.11929,2.5 -2.5,2.5c-1.38071,0 -2.5,-1.11929 -2.5,-2.5z" fill="#000000" stroke="none" stroke-width="0.5" stroke-linecap="butt"/><path d="M296.25215,64.76777c-1.76777,1.76777 -3.53553,0 -3.53553,0l-1.60394,-1.9772c-0.45514,-1.49293 -1.26018,-2.95239 -2.39606,-4.0228c0,0 -0.09813,-0.09813 -0.22503,-0.27127c-0.76456,0.02531 -1.88292,-0.21795 -2.37891,-1.70593c-0.01719,-0.05158 -0.03289,-0.1024 -0.04715,-0.15249c-1.88281,0.22469 -3.74698,0.70513 -5.53399,1.31477l-1.25658,0.41886c0,0 -2.17467,0.72489 -3.05338,-1.29595c-0.30784,0.08567 -0.62264,0.18373 -0.94662,0.29595l-1.79057,0.12829c0,0 -2.5,0 -2.5,-2.5c0,-2.5 2.5,-2.5 2.5,-2.5l0.20943,0.12829c3.08933,-0.99877 5.54285,-1.11342 8.58684,-1.12659c-0.9708,-0.84062 -1.99498,-1.63575 -3.18302,-2.42158l-1.38102,-1.31236c0,0 -1.76777,-1.76777 0,-3.53553c1.76777,-1.76777 3.53553,0 3.53553,0l0.61898,0.68764c2.86163,1.92084 4.96213,3.89348 7.38102,6.31236c0,0 0.20405,0.20405 0.40417,0.54282c0.31244,0.14373 0.63142,0.36256 0.87843,0.69574c0.83369,-0.05164 1.67172,-0.12815 2.46107,0.07442c2.25284,-0.56404 4.49533,-1.18122 6.69799,-1.91691l3,-1c0,0 2.37171,-0.79057 3.16228,1.58114c0.79057,2.37171 -1.58114,3.16228 -1.58114,3.16228l-3,1c-0.98247,0.32687 -1.97212,0.63231 -2.96678,0.92111c0.28701,0.32436 1.51927,1.89965 -0.05602,3.47495c-1.03138,1.03138 -2.06276,0.85927 -2.74306,0.53691c0.12404,0.29931 0.23975,0.6012 0.34701,0.90476l0.39606,0.0228c0,0 1.76777,1.76777 0,3.53553z" fill="#000000" stroke="none" stroke-width="0.5" stroke-linecap="butt"/></g></g></svg>