<svg version="1.1" xmlns="http://www.w3.org/2000/svg" xmlns:xlink="http://www.w3.org/1999/xlink" width="212.00438" height="219.91108" viewBox="0,0,212.00438,219.91108"><g transform="translate(-116.68645,-43.23688)"><g data-paper-data="{&quot;isPaintingLayer&quot;:true}" fill-rule="nonzero" stroke-width="0.5" stroke-linecap="butt" stroke-linejoin="miter" stroke-miterlimit="10" stroke-dasharray="" stroke-dashoffset="0" style="mix-blend-mode: normal"><path d="M328.44083,153.19242c0,60.5887 -47.34687,109.70554 -105.75219,109.70554c-58.40532,0 -105.75219,-49.11684 -105.75219,-109.70554c0,-60.5887 47.34687,-109.70554 105.75219,-109.70554c58.40532,0 105.75219,49.11684 105.75219,109.70554z" fill="#5a00ff" stroke="#000000"/><path d="M210.82858,101.30466c0,13.91902 -11.2836,25.20262 -25.20262,25.20262c-13.91902,0 -25.20262,-11.2836 -25.20262,-25.20262c0,-13.91902 11.2836,-25.20262 25.20262,-25.20262c13.91902,0 25.20262,11.2836 25.20262,25.20262z" fill="#ffffff" stroke="#000000"/><path d="M277.10555,102.35131c0,13.91903 -11.2836,25.20263 -25.20263,25.20263c-13.91903,0 -25.20262,-11.2836 -25.20262,-25.20263c0,-13.91903 11.28359,-25.20262 25.20262,-25.20262c13.91903,0 25.20263,11.2836 25.20263,25.20262z" fill="#ffffff" stroke="#000000"/><path d="M192.05015,99.32799c0,5.73136 -3.98245,10.37755 -8.89504,10.37755c-4.9126,0 -8.89504,-4.64619 -8.89504,-10.37755c0,-5.73136 3.98245,-10.37755 8.89504,-10.37755c4.9126,0 8.89504,4.64619 8.89504,10.37755z" fill="#000000" stroke="#000000"/><path d="M256.35045,103.33965c0,5.73136 -3.98245,10.37755 -8.89504,10.37755c-4.9126,0 -8.89505,-4.64619 -8.89505,-10.37755c0,-5.73136 3.98245,-10.37756 8.89505,-10.37756c4.9126,0 8.89504,4.64619 8.89504,10.37756z" fill="#000000" stroke="#000000"/><path d="M269.6066,232.72554c-4.41942,4.41942 -8.83883,0 -8.83883,0l-1.97668,-1.97668c-1.35137,-1.35137 -2.27506,-3.24682 -3.96284,-4.14335c-1.56679,-0.83227 -3.40051,-1.09788 -4.94169,-1.97668c-0.62301,-0.35524 -0.72003,-1.39754 -1.39599,-1.63714c-2.70469,-0.9587 -5.78506,-0.63948 -8.42693,-1.75973c-2.84988,-1.20846 -6.0391,-2.94866 -8.48903,-4.89421c-0.51687,-0.41046 -0.70369,-1.21071 -1.30007,-1.4935c-1.70038,-0.80626 -3.59344,-1.11918 -5.39016,-1.67877c-4.44372,-2.91867 -9.21772,-6.65756 -14.24754,-8.64773c-1.79501,-0.71024 -3.84666,-0.36518 -5.75109,-0.68082c-1.02778,-0.17035 -1.93526,-0.83039 -2.96501,-0.98834c-3.78955,-0.58127 -6.57267,0.80699 -10.09983,1.80813c-3.19978,0.90821 -5.99936,1.61967 -8.65671,3.77433c-3.29043,2.66798 -5.6807,6.74273 -9.20304,9.13192c-1.49564,1.01449 -3.20847,1.66439 -4.81271,2.49658c0,0 -5.59017,2.79508 -8.38525,-2.79508c-2.79508,-5.59017 2.79508,-8.38525 2.79508,-8.38525c6.14701,-2.89424 9.51121,-9.25585 15.47145,-12.66391c7.01059,-4.00866 16.78767,-6.79946 24.89328,-5.7053c1.03244,0.13937 1.93756,0.81607 2.96501,0.98834c2.69203,0.45137 5.52023,0.36342 8.08564,1.29585c5.5383,2.01298 10.58442,5.87211 15.40261,9.14235c2.15663,0.75819 4.44082,1.2216 6.4699,2.27458c1.07048,0.55552 1.71439,1.70288 2.65329,2.45986c1.36918,1.10388 3.85941,2.36374 5.34771,3.01249c2.93852,1.28091 6.37413,1.03547 9.36316,2.19363c1.07243,0.41553 1.55922,1.74482 2.55736,2.31622c1.53969,0.88141 3.42153,1.06201 4.94169,1.97668c0.60943,0.36669 5.48043,5.29992 5.92054,5.74003l1.97668,1.97668c0,0 4.41942,4.41942 0,8.83883z" fill="#000000" stroke="none"/></g></g></svg>