<svg version="1.1" xmlns="http://www.w3.org/2000/svg" xmlns:xlink="http://www.w3.org/1999/xlink" width="324.86533" height="177.78743" viewBox="0,0,324.86533,177.78743"><g transform="translate(-0.84917,-22.22331)"><g data-paper-data="{&quot;isPaintingLayer&quot;:true}" fill="#ff0000" fill-rule="nonzero" stroke="none" stroke-width="0.5" stroke-linecap="butt" stroke-linejoin="miter" stroke-miterlimit="10" stroke-dasharray="" stroke-dashoffset="0" style="mix-blend-mode: normal"><path d="M38.46393,62.0725c0,6.01758 -6.01758,6.01758 -6.01758,6.01758h-1.44422c-1.46053,0 -7.65063,0.02727 -8.43102,-0.12289c-1.4392,-0.27693 -2.69405,-1.16258 -4.08101,-1.63622c-1.60857,-0.54931 -3.38471,-0.64911 -4.89501,-1.429c-1.13681,-0.58703 -1.85142,-1.77119 -2.85038,-2.57059c-1.79892,-1.43955 -3.66248,-2.808 -5.34858,-4.37818c-0.9776,-0.91039 -2.29386,-1.5252 -2.99604,-2.66162c-1.68259,-2.72315 -1.64968,-6.09791 -1.46533,-9.1204c0.40556,-6.64946 2.67573,-15.09927 7.99083,-19.58833c3.8319,-3.23636 8.81828,-2.78679 13.41233,-2.70443c4.64776,1.44979 9.54626,2.52742 13.11642,6.22419c3.49926,3.62335 3.24769,10.39293 0.87803,14.54363c-1.24188,2.17527 -1.97007,2.82396 -3.4822,4.3507c-0.80782,0.81562 -2.49098,2.52102 -3.21584,2.90705c-3.2407,1.72585 -7.10207,1.80525 -10.72794,1.76667c0.16701,0.30386 0.31945,0.61878 0.61841,0.7583c0.86119,0.4019 1.90233,0.20703 2.80749,0.49662c0.93302,0.29851 1.70058,1.04806 2.65867,1.25222c0.86204,0.18368 1.76011,-0.10487 2.64132,-0.12289c1.12305,-0.02296 2.24656,0 3.36984,0h1.44422c0,0 6.01758,0 6.01758,6.01757zM14.063,41.41939c0.04399,0.01302 0.06722,0.02076 0.06722,0.02076c1.31891,0.65347 5.63283,0.1625 6.76239,0.1726c0.80354,0.00718 1.59594,-0.19042 2.39177,-0.30174c0.05945,-0.00832 0.12751,-0.00995 0.19265,-0.00053c0.62796,-0.82439 1.66907,-1.3331 2.19486,-2.24982c0.06727,-0.11729 0.20448,-0.6438 0.3072,-1.06156c-0.47254,-0.23923 -0.89985,-0.61034 -1.39228,-0.81121c-1.36253,-0.55583 -2.79902,-0.9126 -4.17671,-1.42971c-0.80197,0.0259 -1.60358,0.0693 -2.40593,0.0777c-0.23488,0.00246 -1.30919,-0.11998 -1.51235,0.10631c-1.34587,1.49904 -1.75223,3.66479 -2.42882,5.4772z"/><path d="M87.73045,64.40195c-3.60186,3.60186 -7.20371,1.10587 -8.2247,0.25465c-2.86072,-1.3786 -5.8218,-2.55645 -8.60828,-4.07879c-1.09399,-0.59768 -2.23463,-1.2458 -3.00567,-2.22536c-0.08157,-0.10363 -0.16104,-0.20788 -0.23842,-0.31274c-0.43552,0.4174 -0.88271,0.8218 -1.34944,1.20444c-1.25342,1.02759 -2.75383,1.7104 -4.11627,2.58834c-5.03014,3.24134 -10.09145,6.5399 -16.26194,6.73899h-0.48141c0,0 -6.01757,0 -6.01757,-6.01758c0,-6.01758 6.01757,-6.01758 6.01757,-6.01758h0.48141c0.74595,0.12068 1.49425,-0.28506 2.19413,-0.56999c2.84747,-1.15926 4.95661,-2.58843 7.53986,-4.24476c1.02312,-0.65601 2.04233,-1.47712 3.15881,-1.94756c-0.05743,-0.06318 -0.11759,-0.12382 -0.18116,-0.18132c-0.8851,-0.8005 -2.00392,-1.30236 -2.94281,-2.03902c-3.07497,-2.41266 -3.75677,-3.21719 -6.3214,-5.77781c-0.81017,-0.8089 -3.09232,-3.01448 -3.4575,-3.82266c-0.82909,-1.83485 -1.35348,-4.53169 -1.19344,-6.69069c0.09302,-1.25487 -0.15262,-2.64685 0.45806,-3.74705c4.37426,-7.88063 14.32156,-4.60561 21.44591,-4.67756c0,0 6.01757,0 6.01757,6.01758c0,6.01758 -6.01757,6.01757 -6.01757,6.01757c-2.56691,-0.01652 -5.03576,-0.41885 -7.58996,-0.47494c0.34988,0.38548 0.70644,0.7638 1.08766,1.11448c2.11911,1.94933 4.66178,3.40039 6.78862,5.34128c0.41064,0.37474 0.77117,0.79756 1.11414,1.23687c0.36069,-0.56903 0.75099,-1.11894 1.16698,-1.64535c4.4482,-5.6289 11.21467,-7.91855 17.49042,-10.77365c1.24688,-0.56726 2.39606,-1.38403 3.71285,-1.76158c1.56942,-0.44998 3.23244,-0.46209 4.84866,-0.69314c0,0 5.97111,-0.74639 6.7175,5.22472c0.74639,5.97111 -5.22472,6.71749 -5.22472,6.71749c-0.95128,0.08989 -1.93467,0.00865 -2.85384,0.26967c-0.75405,0.21413 -1.35256,0.79782 -2.06402,1.12686c-5.68675,2.63001 -7.55823,2.72424 -11.7511,5.95132c-0.38167,0.29375 -2.26423,2.19008 -2.55181,2.85472c-0.1337,0.30899 -0.05953,0.66597 -0.06817,1.00681c3.34346,1.44859 5.28041,2.43781 8.23573,3.91456l2.04533,1.60862c0,0 4.25507,4.25507 0,8.51014z"/><path d="M147.22694,70.69599c-0.72064,1.55481 -1.53992,3.24982 -2.57302,5.23169c-1.92745,3.69757 -4.47024,9.75091 -9.24836,11.25765c-1.51683,0.47832 -3.15313,-0.41949 -4.72969,-0.62923c0,0 -1.80279,-0.60093 -3.0445,-2.14048c-2.10481,0.35555 -4.00199,-0.59304 -4.00199,-0.59304l-2.52674,-1.60862c-2.35031,-2.39219 -4.08206,-3.79835 -5.35555,-7.32533c-0.4708,-1.30389 -0.21141,-2.76534 -0.2582,-4.15083c-0.04678,-1.38508 -0.02686,-3.1779 0.10002,-4.8856c-0.7698,0.6058 -1.57846,1.16802 -2.27799,1.8526c-0.8221,0.80453 -1.28926,1.98171 -2.24669,2.61925c-2.84672,1.89559 -4.26116,1.54452 -7.31496,1.60213l-3.79427,-0.52674c0,0 -5.95709,-0.85101 -5.10608,-6.80811c0.23699,-1.65897 0.86999,-2.78994 1.66004,-3.55833c-0.22352,-0.812 -0.40318,-1.64126 -0.6104,-2.45123c-1.02979,-4.02504 -1.30827,-9.23621 1.57542,-12.68625c2.80435,-3.35511 4.75641,-4.28074 8.1688,-5.4182c2.66887,-0.88962 5.65102,-1.8213 8.43639,0.10851c2.00979,1.39246 2.98576,3.92311 4.0032,6.14639c0.59917,1.3093 0.60057,2.82152 0.75587,4.253c0.12767,1.17682 0.22119,2.50837 0.23475,3.87999c1.0257,-2.46722 1.97169,-4.72796 2.15788,-5.17698c0.76917,-1.85498 1.35059,-3.79821 2.29748,-5.56908c0.55972,-1.04679 1.49715,-1.84462 2.18422,-2.81262c0.71883,-1.01274 1.19445,-2.20529 2.02975,-3.12434c0.6859,-0.75469 1.6409,-1.2114 2.46136,-1.8171c0,0 5.00693,-3.33795 8.34487,1.66898c3.33795,5.00693 -1.66897,8.34487 -1.66897,8.34487c-0.71418,0.18148 -0.86964,1.1901 -1.28577,1.79824c-0.49031,0.71656 -1.25956,1.23474 -1.66702,2.00144c-0.67988,1.27932 -1.01256,2.71517 -1.55377,4.05904c-1.83576,4.55833 -4.60529,8.96409 -4.85817,13.94445c-0.0432,0.85079 0.07491,1.7063 0.00921,2.55566c-0.0183,0.23653 -0.34236,0.44142 -0.2582,0.66323c0.3888,1.02472 1.56137,1.53853 2.34694,2.30279l-0.60112,-0.64581c0,0 1.20669,0.60335 2.19167,1.81004c0.76679,-1.56379 1.98518,-2.94263 2.7797,-4.50607c1.29742,-2.55303 2.51521,-5.14069 3.73022,-7.72552c-0.70336,-1.57106 -1.62562,-5.00043 2.11852,-7.49652c0.68802,-0.45868 1.34452,-0.75979 1.96518,-0.93797c2.106,-4.10078 4.42536,-8.0867 7.28403,-11.799c3.43164,-4.45634 10.79068,-9.21877 16.15582,-3.8418c1.76031,1.76419 1.96033,4.59889 2.62301,7.00138c0.67021,2.42981 0.8921,9.26388 0.27492,11.19177c-0.61886,1.93311 -2.36888,3.30105 -3.42957,5.03161c-1.62931,2.65832 -1.93726,6.56055 -4.63426,8.12498c-5.60905,3.2536 -9.2908,2.70086 -12.84397,0.78507zM152.22758,60.04107c0.39653,0.17595 0.78975,0.25755 0.9997,-0.03012c0.65551,-0.89815 0.60261,-2.11617 0.79479,-3.23713c-0.11171,0.19295 -0.22229,0.38654 -0.33165,0.58085c-0.53852,0.95677 -1.02162,1.8465 -1.46284,2.6864zM156.79385,52.3741c-0.43848,0.6531 -0.87077,1.31033 -1.29331,1.97352c0.48342,-0.41711 0.97012,-0.83073 1.21666,-1.39913c0.07995,-0.18432 0.09616,-0.37698 0.07665,-0.57439z"/><path d="M205.83932,102.79471c-2.69114,5.38228 -8.07342,2.69114 -8.07342,2.69114l-0.17459,-0.15492c-1.88942,-0.93613 -4.27471,0.25368 -6.32062,-0.25669c-4.61357,-1.15091 -9.4884,-2.14293 -13.43457,-4.79574c-8.6474,-5.81322 -9.52094,-10.14217 -10.34025,-19.00459c-0.20517,-2.21929 -0.30452,-4.48765 0.06257,-6.68596c0.07571,-0.45342 0.17644,-0.90076 0.29496,-1.34378c-0.09458,-1.5765 0.53174,-2.81296 1.27458,-3.70936c0.21879,-0.58669 0.43259,-1.17459 0.62339,-1.76808c1.81247,-4.72055 4.10093,-9.43878 7.86019,-13.01448c1.11926,-1.06461 2.71583,-1.50375 3.92096,-2.47007c1.2239,-0.98136 1.90091,-2.66674 3.31982,-3.33584c1.52219,-0.7178 3.33371,-0.49555 5.01378,-0.59391c4.39769,-0.25749 9.87958,1.5924 13.23535,4.49078c1.03225,0.89156 1.55332,2.24301 2.2962,3.38693c2.93929,4.52603 4.87459,5.5532 1.19756,11.53334c-0.89428,1.45441 -2.75603,2.06477 -4.31676,2.75696c-7.29405,3.23495 -15.58266,3.83012 -22.93316,6.79254c-0.05743,1.02848 0.09617,2.07613 0.15544,3.10776c0.27487,4.78463 -0.05531,6.76038 5.06475,9.87976c2.61387,1.59249 5.7092,2.30436 8.71011,2.90676c1.87536,0.37646 3.83274,-0.17207 5.73833,-0.00639c0.82604,0.07182 1.58882,0.47501 2.38323,0.71251l1.75103,0.8079c0,0 5.38228,2.69114 2.69114,8.07342zM187.27481,62.62809c0.50674,-0.13411 1.01367,-0.27045 1.52051,-0.41027c1.34208,-0.37023 2.65629,-0.83941 3.97105,-1.30505c-0.51095,-0.24259 -1.02032,-0.48804 -1.56692,-0.62176c-0.41536,-0.10161 -0.88558,0.24556 -1.28347,0.11559c-0.06536,0.33049 -0.14182,0.6528 -0.38159,0.86528c-0.65646,0.58177 -1.47342,0.94851 -2.25958,1.3562z"/><path d="M299.55535,131.7903c0.2044,0.92983 1.15044,6.44296 -4.72953,8.02618c-6.42883,1.731 -8.15983,-4.69783 -8.15983,-4.69783l-0.36636,-2.12521c0.04226,-2.34428 -0.65302,-4.20465 -0.46993,-6.64029c0.37262,-4.95685 1.72416,-9.93882 1.89294,-14.89278c0.08333,-2.44592 -1.32681,-4.51738 -1.59141,-6.87816c-0.34952,-0.04612 -0.69155,-0.12156 -0.95928,-0.33172c-0.81807,-0.64212 -1.40662,-1.52702 -2.07611,-2.32787c-0.00375,0.00213 -0.00752,0.00426 -0.0113,0.00639c-0.78826,0.44518 -1.6499,0.75259 -2.43305,1.20671c-1.04742,0.60735 -1.91611,1.55696 -3.04125,1.99211l-0.69475,0.79249c-0.84309,0.99043 -1.98448,1.74462 -3.33536,2.10836c-3.55055,0.95601 -7.20383,-1.14728 -8.15983,-4.69783c-0.36373,-1.35089 -0.28461,-2.71664 0.1486,-3.94306l0.29675,-0.88074c-0.42296,-6.8738 2.26297,-13.19242 3.6052,-19.81471c0.10917,-0.53865 0.17699,-1.08441 0.23835,-1.63127c-1.4456,1.89782 -3.5663,3.20819 -5.39308,4.75502c-1.26532,1.07142 -2.51239,2.193 -3.94044,3.03542c-3.96879,2.34123 -9.78757,3.43884 -13.87638,4.54397c-3.94198,1.06544 -7.88604,2.12336 -11.82905,3.18504c0,0 -1.06011,0.28544 -2.43526,0.19401c0.3767,1.30587 0.87472,2.58911 1.77269,3.56684c1.14148,1.24286 3.75643,2.61235 5.25911,3.31097c1.16724,0.54267 2.56163,-0.29334 3.84863,-0.31693c1.94542,-0.03566 3.89367,0.12161 5.83719,0.02843c1.69818,-0.08142 3.46373,0.10214 5.08354,-0.41425l1.02861,-0.27696c0,0 6.42883,-1.731 8.15983,4.69783c1.731,6.42883 -4.69783,8.15983 -4.69783,8.15983l-1.02861,0.27696c-4.69065,1.17734 -9.3682,0.75677 -14.12218,0.8412c-3.82157,0.06788 -4.05246,1.04956 -8.29699,-0.35621c-1.61591,-0.53518 -3.00504,-1.60045 -4.4919,-2.42921c-1.99678,-1.11299 -4.67052,-2.57657 -6.19283,-4.30826c-1.4709,-1.67319 -2.85918,-3.46552 -3.86086,-5.45543c-0.81682,-1.62266 -1.0298,-3.48443 -1.51985,-5.23374c-1.60964,-5.74576 -2.8458,-11.33664 -0.82127,-17.25117c1.22429,-3.57668 3.04894,-6.92779 4.84592,-10.2538c1.12418,-2.08074 4.26894,-6.15724 6.30652,-7.60586c1.73959,-1.23676 3.76052,-2.02026 5.64078,-3.03038c6.55981,-2.42956 13.42355,-5.37368 20.56177,-3.63133c3.54354,0.86494 7.0894,3.05025 9.78836,5.46038c1.48223,1.3236 3.26196,2.43851 4.29114,4.13842c1.05116,1.73621 1.7411,4.20567 1.84261,6.5425c0.4511,-1.60594 0.88059,-3.21621 1.16202,-4.85822c0.3361,-1.96096 0.26615,-3.97184 0.49751,-5.94789c0,0 0.78041,-6.6119 7.39231,-5.83149c6.6119,0.78041 5.83149,7.39231 5.83149,7.39231c-0.25628,2.15138 -0.20571,4.33901 -0.57038,6.47469c-0.62713,3.67275 -1.94657,7.19837 -2.68677,10.85001c-0.27766,1.36976 -0.32129,2.78019 -0.60064,4.1496c-0.48299,2.36773 -1.24309,4.69801 -1.93169,7.03248c3.82932,-0.8679 7.17776,0.19399 10.64134,2.7577c0.95727,0.70856 1.47574,1.88814 2.3738,2.6704c1.13459,0.98829 2.76633,1.41545 3.68498,2.60713c0.97647,1.26668 2.05536,5.66346 2.53659,7.47151c0.74189,2.78737 1.25175,4.3616 1.23758,7.59593c-0.01362,3.10846 -0.69067,6.17853 -1.05521,9.26557c-0.0805,0.68171 -1.21795,5.89286 -0.9964,7.07744c0.23823,1.27375 0.46135,2.55739 0.56945,3.84876zM231.63524,79.60788c3.8006,-1.02362 7.60036,-2.05055 11.40205,-3.07006c3.53801,-0.9488 7.4231,-1.19677 10.53337,-3.13169c1.61397,-1.00406 3.03775,-2.29374 4.62997,-3.33011c-0.03618,0.01856 -0.06906,0.03339 -0.09512,0.04182c-0.14083,0.04555 0.33014,-0.28937 0.21851,-0.38657c-0.43989,-0.38302 -1.00975,-0.58737 -1.48507,-0.92542c-1.43668,-1.02178 -2.80554,-2.33883 -4.57294,-2.8078c-3.69245,-0.97977 -8.65681,1.71234 -11.87915,2.89722c-1.02094,0.50649 -2.1089,0.89587 -3.06281,1.51948c-1.28657,0.84109 -2.06186,2.31727 -2.79254,3.6696c-0.8575,1.58706 -2.02187,3.49968 -2.89627,5.52352z"/><path d="M313.1817,144.85246c-2.7902,-3.13883 -1.84041,-6.05775 -0.75872,-7.78525c-0.21103,-2.94024 -1.24473,-6.13437 -1.69112,-8.91722c-0.52869,-3.29593 -0.82234,-6.46094 -0.64395,-9.81292c0.06717,-1.26222 0.51611,-2.48693 0.56241,-3.75009c0.06293,-1.71693 -0.29282,-3.43407 -0.20784,-5.15005c0,0 0.3908,-6.64631 7.03712,-6.25551c6.64631,0.3908 6.25551,7.03712 6.25551,7.03712c-0.11852,1.55112 0.28121,3.10667 0.22758,4.66139c-0.04966,1.43942 -0.49092,2.84386 -0.5847,4.28108c-0.11573,1.77359 0.11591,4.64 0.42461,6.44716c0.81163,4.75133 2.08851,9.57521 1.89155,14.42051l-3.11313,5.37646c0,0 -4.97599,4.42332 -9.39931,-0.55268z"/><path d="M305.43699,79.86947c-0.95601,-3.55055 1.14728,-7.20383 4.69783,-8.15983c3.55055,-0.95601 7.20383,1.14728 8.15983,4.69783c0.95601,3.55055 -1.14728,7.20383 -4.69783,8.15983c-3.55055,0.95601 -7.20383,-1.14728 -8.15983,-4.69783z"/><path d="M86.85875,107.013c8.69896,5.7993 2.89966,14.49826 2.89966,14.49826l-1.67278,2.50916c-0.76219,1.11271 -1.43618,2.29127 -2.28656,3.33812c-0.21434,0.26386 -0.69896,0.24406 -0.86452,0.54096c-0.42939,0.77 -0.37795,1.7561 -0.83639,2.50916c-0.95219,1.56415 -2.34075,2.87497 -3.07419,4.55286c-2.04665,3.31102 -3.70831,6.75855 -5.52113,10.2107c-1.82132,3.46833 -1.61605,7.78698 -3.5108,11.21575c-7.4421,13.46739 -10.35228,12.42261 -21.24424,22.82095c-6.88547,6.57343 -12.18561,18.61002 -25.14828,11.89547c-3.21002,-1.66276 -2.9962,-6.58506 -4.29091,-9.96038c-1.46293,-3.81388 -2.09012,-7.89804 -3.08034,-11.86104c-4.55002,-18.2099 -7.91809,-36.51483 -9.48024,-55.21194c0,0 -0.86823,-10.41873 9.5505,-11.28696c10.41873,-0.86823 11.28696,9.5505 11.28696,9.5505c1.16236,13.98641 3.42932,27.53414 6.47763,41.2532c0.65582,2.95154 1.38996,5.8845 2.14422,8.81273c3.09088,-2.62188 6.43767,-4.96241 9.29463,-7.83531c2.2505,-2.26305 4.31969,-4.78499 5.82383,-7.5999c1.72806,-3.23396 1.58667,-7.22805 3.18031,-10.53033c1.86148,-3.8573 4.01805,-7.8371 6.18829,-11.53538c0.78538,-1.47588 1.43565,-3.03203 2.35615,-4.42764c0.30185,-0.45765 0.98281,-0.58361 1.26076,-1.05616c0.44699,-0.75992 0.3695,-1.76131 0.83639,-2.50916c1.0086,-1.61555 2.52452,-2.87359 3.54002,-4.4848l1.67278,-2.50916c0,0 5.7993,-8.69896 14.49826,-2.89966z"/><path d="M92.35068,189.31408c0,-10.45485 10.45485,-10.45485 10.45485,-10.45485h0.83639c9.91841,0 20.09698,0.59759 29.94189,-0.67305c1.65884,-0.2141 3.21774,-1.049 4.81461,-1.57375c0.00588,-0.21896 0.00503,-0.43743 -0.01079,-0.65463c-0.25134,-3.45292 -1.36549,-5.56474 -4.61442,-7.86634c-4.2368,-3.00141 -9.94393,-4.00317 -13.47994,-7.80521c-0.1725,-0.18547 -0.34024,-0.37432 -0.50354,-0.56631l-0.09644,0.12055l-4.10652,-3.28522c-2.43514,-1.91415 -3.99917,-4.88652 -3.99917,-8.2242c0,-5.77405 4.68079,-10.45485 10.45485,-10.45485h5.01833c6.55877,0 13.1631,-0.70712 19.69815,-0.33901c0.00644,-0.2406 0.01008,-0.48119 0.00785,-0.72176c-0.00121,-0.13042 -0.04629,-0.27949 -0.09551,-0.42908c-0.19506,-0.12997 -0.38816,-0.31222 -0.55728,-0.43029c-0.76537,-0.53438 -1.30692,-1.40262 -2.15929,-1.78318c-3.51568,-1.56969 -7.34808,-2.30399 -10.99976,-3.52429c-2.1052,-0.7035 -4.12469,-1.84962 -6.33517,-2.05099c-3.04306,-0.27721 -6.55725,0.07833 -9.59563,0.07833c0,0 -10.45485,0 -10.45485,-10.45485c0,-10.45485 10.45485,-10.45485 10.45485,-10.45485c3.84448,0 8.36562,-0.37558 12.15045,0.07833c5.21254,0.62514 10.48123,2.94711 15.41091,4.64012c5.93563,2.03848 13.02891,4.25721 17.46879,9.21675c1.57743,1.76205 3.01793,3.72276 3.9391,5.90096c1.74224,4.11969 1.70989,8.07622 1.63221,12.36478c-0.12419,6.85681 0.58596,12.37989 -6.63118,17.2573c-2.09357,1.41485 -4.75054,1.48411 -7.38476,1.4942c3.22254,4.50953 5.11287,9.74861 5.61645,15.51446c0.3813,4.36576 0.16684,10.43795 -2.15781,14.37729c-4.13205,7.00218 -12.40039,8.80472 -19.80278,10.15874c-10.81217,1.97773 -22.60438,0.99973 -33.62358,0.99973h-0.83639c0,0 -10.45485,0 -10.45485,-10.45485z"/></g></g></svg>