<svg version="1.1" xmlns="http://www.w3.org/2000/svg" xmlns:xlink="http://www.w3.org/1999/xlink" width="446.44078" height="205.78737" viewBox="0,0,446.44078,205.78737"><g transform="translate(-28.25098,-65.79771)"><g data-paper-data="{&quot;isPaintingLayer&quot;:true}" fill-rule="nonzero" stroke="none" stroke-width="0.5" stroke-linecap="butt" stroke-linejoin="miter" stroke-miterlimit="10" stroke-dasharray="" stroke-dashoffset="0" style="mix-blend-mode: normal"><path d="M30.27566,85.55501c-1.05707,-1.71943 -1.74807,-3.96739 -1.74807,-6.90635c0,-12.5 12.5,-12.5 12.5,-12.5c2.5025,0 12.51251,0 15.01502,0c23.52352,0 47.04705,0 70.57057,0c12.51215,0 25.68973,-0.80225 38.22879,0.01913c4.52253,0.29625 8.99329,1.1719 13.51351,1.5015c7.25782,0.52921 14.55418,-0.01913 21.83127,-0.01913c10.51051,0 21.02102,0 31.53153,0c1.10718,0 21.32234,-0.00967 21.90713,0.03145c3.6685,0.25792 7.26268,1.20291 10.92495,1.5379c7.19857,0.65844 14.41548,1.14248 21.63795,1.44058c4.70552,0.19422 9.44,-0.40842 14.12855,0.03567c6.24941,0.59192 12.35753,2.24507 18.58146,3.06252c5.14011,0.6751 10.32567,0.94149 15.4885,1.41223c4.31569,-0.00428 8.63142,-0.02991 12.94708,-0.01284c2.49408,0.00987 5.02435,0.52014 7.48172,0.09366c5.94295,-1.03141 11.585,-3.49631 17.54303,-4.43675c16.39653,-2.5881 33.51805,-1.66291 50.05033,-1.66291c6.00601,0 12.01776,-0.26267 18.01802,0c0.55496,0.02429 1.09391,0.47001 1.63259,0.33439c1.08528,-0.27324 1.88974,-1.6162 3.003,-1.5015c5.00191,0.51532 10.83595,0.12563 14.71375,3.32678c4.63049,3.8225 3.66117,15.18207 3.66117,20.85085c0,8.2271 0.6278,16.86998 -0.04259,25.05503c-0.64767,7.90767 -2.44793,15.69912 -2.97593,23.61569c-0.31926,4.78682 0.01552,9.59489 0.01552,14.39234c0,7.50751 0,15.01502 0,22.52252c0,3.66036 -0.4224,7.3404 -0.04259,10.98101c0.3159,3.02799 1.20684,5.97888 1.5015,9.00901c0.15516,1.59557 -0.5577,3.25423 -0.15799,4.8067c0.90025,3.49654 2.75749,6.67641 3.98843,10.07066c2.35907,6.50498 3.91496,13.30907 5.05108,20.13469c0.5563,3.34214 1.28678,6.66219 1.62899,10.03299c0.18551,1.82726 -0.28058,3.68747 -0.05106,5.50972c0.94309,7.48761 5.7819,10.70169 -2.06601,19.37513c-2.77206,3.06366 -7.79449,2.83092 -11.84184,3.66117c-1.96117,0.4023 -4.004,0 -6.00601,0c-6.50651,0 -13.01301,0 -19.51952,0c-5.7668,0 -12.01806,0.61514 -17.74824,-0.06083c-2.53449,-0.29899 -4.96927,-1.2362 -7.50751,-1.5015c-8.55187,-0.89387 -17.19685,0.06083 -25.79531,0.06083c-6.91711,0 -13.86589,0.60128 -20.75124,-0.06083c-2.54034,-0.24429 -4.96424,-1.28978 -7.50751,-1.5015c-3.42476,-0.28511 -6.89252,0.38217 -10.3098,0.01824c-6.46317,-0.6883 -12.84503,-2.00592 -19.24052,-3.16522c-4.68443,-0.84914 -9.25024,-2.44789 -13.99322,-2.85903c-9.5636,-0.82899 -19.19885,0.06083 -28.79831,0.06083c-23.52352,0 -47.04705,0 -70.57057,0c-13.66062,0 -27.61686,0.94218 -41.2318,-0.01913c-3.53684,-0.24973 -22.41368,-2.50744 -26.63736,-3.1146c-2.75742,-0.39639 -5.45482,-1.27067 -8.23693,-1.41336c-18.03158,-0.92486 -36.46379,0.04259 -54.52455,0.04259c-9.00901,0 -18.06872,0.95441 -27.02703,0c-6.52728,-0.69541 -14.21008,0.42258 -19.34935,-3.66117c-3.91803,-3.11334 -3.19004,-9.58752 -3.60033,-14.57506c-0.19642,-2.38775 2.72693,-11.9302 3.003,-15.01502c0.62309,-6.96224 -0.06083,-14.28776 -0.06083,-21.2908c0,-10.01001 0,-20.02002 0,-30.03003c0,-3.99553 0.54974,-8.01681 0.09366,-11.98622c-0.20613,-1.79402 -1.09089,-3.45596 -1.38263,-5.23806c-0.7343,-4.48551 -1.33385,-8.99928 -1.68988,-13.53053c-0.3462,-4.40617 0.47705,-8.86334 0.01844,-13.25922c-0.3159,-3.02799 -1.2734,-5.97314 -1.5015,-9.00901c-0.69243,-9.21568 -0.04259,-18.79436 -0.04259,-28.05803c0,0 0,-3.36777 1.74807,-6.60716z" fill="#ff0000"/><path d="M219.48438,84.5c12.5,0 12.5,12.5 12.5,12.5l-0.06083,5.23172c-2.65732,13.8983 -2.47324,28.0452 -5.13134,41.95173c-2.13758,11.18329 -5.74884,21.72767 -6.8711,33.07266c-0.7278,7.35741 -0.64722,14.77249 -0.94365,22.15987c-0.22136,5.51653 0.90593,11.3972 -1.14443,16.52333c-0.14044,0.35112 -0.29235,0.69564 -0.45465,1.0342l0.23278,0.0582l-0.93658,3.74633c-1.26323,5.56651 -6.24143,9.72198 -12.1902,9.72198c-4.40766,0 -8.2825,-2.2813 -10.50817,-5.72756l-1.63234,-2.44851c-1.20408,-1.47211 -2.59332,-2.83176 -3.40798,-4.54038c-0.43038,-0.90265 0.23267,-2.02744 0,-3c-0.06139,-0.25659 -0.4492,0.74716 -0.59203,0.52534c-1.57217,-2.44161 -2.72425,-5.1298 -4.03981,-7.71871c-1.18769,-2.33726 -2.5188,-4.6153 -3.46935,-7.05863c-0.87984,-2.26158 -1.07775,-4.75537 -2,-7c-1.30577,-3.17806 -3.1802,-6.09334 -4.65472,-9.19671c-1.17629,-2.47568 -4.06037,-11.26408 -6.90933,-13.88752c-1.48593,-1.3683 -3.39892,-2.25697 -4.76208,-3.74761c-2.48684,-2.71941 -4.3629,-5.94463 -6.70386,-8.79059c-2.78697,-3.3882 -6.21683,-6.26486 -8.67117,-9.90125c-0.45295,-0.6711 -0.88202,-1.35709 -1.29174,-2.05484c-0.32795,4.13207 -1.33625,8.01426 -1.91825,12.2787c-1.09125,7.99578 0.40294,17.08538 1.03668,24.99156c0.45493,5.67539 -0.67807,11.3847 0.71449,17.01162c0.72326,2.92247 2.06409,5.66188 2.89091,8.55675c1.09234,3.8245 0.88634,8.03907 3.31938,11.2746c0,0 6.93375,10.40063 -3.46688,17.33438c-10.40063,6.93375 -17.33438,-3.46688 -17.33438,-3.46688c-3.93411,-6.17851 -4.71825,-11.85948 -6.68062,-18.7254c-0.9107,-3.18638 -2.37807,-6.21092 -3.10909,-9.44325c-1.63986,-7.25096 -0.66042,-13.79912 -1.28551,-20.98838c-0.81138,-9.33178 -2.08415,-19.58225 -0.96332,-29.00844c0.40138,-3.37557 1.60951,-6.62316 2,-10c0.27936,-2.41578 -0.01748,-4.86421 0.03282,-7.29557c1.15081,-4.88845 2.68511,-9.19691 2.9305,-14.24943c0.15289,-3.14798 -0.18877,-6.31139 0.03668,-9.455c0.12158,-1.69532 0.80975,-3.31101 1,-5c0.45077,-4.00178 0.17893,-6.70005 1.93917,-10.4366v-1.33168c0,-6.90356 5.59644,-12.5 12.5,-12.5c4.73286,0 8.85137,2.63035 10.97343,6.50894l3.87961,6.78932l-0.30366,0.17352c0.31546,0.34405 0.62256,0.69679 0.92049,1.0591c3.08019,3.74578 2.75886,9.30189 4.34412,13.88505c1.01953,2.94756 5.97864,16.40471 8.53685,20.0762c2.08142,2.98721 5.01233,5.28992 7.32883,8.09875c1.89724,2.30046 3.27836,5.01392 5.29614,7.20941c1.5218,1.65582 3.68687,2.62393 5.23792,4.25239c1.55615,1.6338 6.041,9.02384 6.87761,10.68259c0.98707,1.95706 1.97375,3.91568 2.94721,5.88091c0.27091,-2.5271 0.51276,-4.55577 0.65854,-5.32721c1.58952,-8.41179 4.399,-16.56188 5.99508,-24.97242c2.5159,-13.25756 2.07271,-26.83505 4.86866,-40.04827l-0.06083,-2.76828c0,0 0,-12.5 12.5,-12.5zM212.1136,207.06981c-0.04394,0.32235 -0.08745,0.64561 -0.08666,0.96139c0.0162,0.01228 0.03237,0.02459 0.04851,0.03695c0.02435,-0.28638 0.05262,-0.77029 0.0757,-0.99301z" fill="#ffffff"/><path d="M288.72372,124.51713c-1.02648,0.98764 -2.1056,1.92685 -3.06782,2.97599c-1.92143,2.09499 -3.66614,4.346 -5.54436,6.47981c-3.7398,4.24871 -3.83225,8.24575 -6.63616,13.98087c-1.07834,2.20564 -2.43459,2.77746 -2.88715,5.16817c-0.84069,4.44103 -1.13409,8.96839 -1.70338,13.45229c-0.77687,6.11887 -1.22762,8.72173 -0.92463,14.64901c0.09294,1.81806 0.46028,3.61319 0.61037,5.42725c0.15788,0.04077 0.3169,0.09052 0.45916,0.11137c1.50165,0.22007 2.99043,0.52046 4.48564,0.78069c2.58,-0.02211 5.24157,0.80708 7.73868,0.15799c2.7564,-0.71649 5.25556,-2.23899 8,-3c0.52765,-0.14631 1.09321,0.52233 1.60801,0.33577c0.76075,-0.27569 1.0714,-1.32811 1.83876,-1.58484c1.03919,-0.34769 2.30296,0.35704 3.28488,-0.1294c0.5223,-0.25875 0.1507,-1.17746 0.40843,-1.70026c0.45154,-0.91596 1.12411,-1.70525 1.6896,-2.55559c4.36951,-6.57054 9.21031,-11.16987 7.99428,-19.53896c-1.28372,-8.83495 -6.40277,-14.89565 -10.55123,-22.51218c-2.34437,-4.30425 -4.33472,-8.42334 -6.80308,-12.49798zM298.51528,100.05753l4.55652,2.00864c1.6044,2.00003 3.20881,4.00005 4.81321,6.00008c3.66265,5.49397 6.39744,11.13526 9.55694,16.91864c1.59782,2.92476 3.15862,5.87161 4.8538,8.74103c1.45291,2.45931 3.61041,4.54513 4.62005,7.21717c1.8887,4.9985 3.16961,10.24724 3.97492,15.52963c1.04593,6.86072 0.18276,16.61865 -3.1774,23.01918c-0.61425,1.17004 -7.67713,11.71896 -8.82831,13.44186c-2.83669,4.24551 -5.61423,8.69607 -9.90197,11.74414c-1.89383,1.34629 -4.5533,1.01875 -6.71512,1.8706c-1.49211,0.58796 -2.63449,1.92412 -4.16124,2.41516c-1.39775,0.44955 -2.97419,-0.04588 -4.39199,0.33577c-2.7501,0.74029 -5.21288,2.4143 -8,3c-1.49658,0.3145 -12.67036,0.16763 -14.26132,0.15799c-2.99008,-0.48518 -11.47317,-1.56017 -14.34114,-3.17069c-3.15391,-1.77109 -6.3112,-3.84152 -8.54932,-6.68313c-8.13296,-10.32597 -5.95142,-27.23235 -4.47901,-39.17786c0.68125,-5.52694 0.93516,-11.14792 2.29662,-16.54771c0.97612,-3.87147 3.28184,-7.2838 5.11285,-10.83183c1.71995,-3.33282 1.96697,-7.31616 3.78957,-10.59397c1.74731,-3.1424 9.76075,-12.46875 12.02991,-14.94534c1.47828,-1.61341 9.58587,-9.73592 11.45176,-10.62148c2.98592,-1.41713 6.44319,-1.47689 9.66478,-2.21533c0,0 5.78103,-0.96351 10.08589,2.38745z" fill="#ffffff"/></g></g></svg>