<svg version="1.1" xmlns="http://www.w3.org/2000/svg" xmlns:xlink="http://www.w3.org/1999/xlink" width="422.21694" height="196.33158" viewBox="0,0,422.21694,196.33158"><g transform="translate(-38.98439,-51.49998)"><g data-paper-data="{&quot;isPaintingLayer&quot;:true}" fill-rule="nonzero" stroke="none" stroke-width="0.5" stroke-linecap="butt" stroke-linejoin="miter" stroke-miterlimit="10" stroke-dasharray="" stroke-dashoffset="0" style="mix-blend-mode: normal"><path d="M150.63387,148.52152c-1.98273,0.12697 -3.90876,0.12883 -5.82368,0.1397c1.70621,0.08485 3.42544,0.15775 5.15281,0.21655c0.21919,-0.12028 0.44291,-0.23892 0.67087,-0.35625zM229.55947,199.7384c-0.0294,-0.08395 -0.05832,-0.1682 -0.08677,-0.25277c-0.08786,-0.11732 -0.17371,-0.23624 -0.25749,-0.3567c-0.30604,0.14972 -0.61091,0.29589 -0.91085,0.43687c0.41833,0.05801 0.83669,0.11577 1.25511,0.1726zM56.56951,52.35529c3.30497,-0.51498 6.22645,0.68678 8.18709,1.8732c2.51221,-0.34955 5.16497,0.27151 7.72779,0.27151c5,0 10,0 15,0c14.82591,0 29.41751,0.93622 44.23172,1.06083c5.33023,1.06605 9.96557,0.25256 15.29557,1.03282c5.98404,0.87601 11.69361,3.29924 17.70443,3.96718c5.03113,0.55907 10.66774,-0.06083 15.76828,-0.06083c10.54108,0 21.46169,0.88308 31.96899,0.04259c2.02113,-0.16167 3.97998,-0.82495 6,-1c5.58885,-0.48432 11.4094,-0.04259 17.03101,-0.04259c13,0 26,0 39,0c9.91249,0.01712 19.54999,-1.41408 29.43357,-1.98716c7.14078,-0.41405 14.41205,-0.03351 21.56643,-0.01284c3.97691,0.01149 7.91635,0.79284 11.88611,1.03145c11.60341,0.69744 23.48268,-0.08492 35.11389,-0.03145c3.76053,0.01729 7.48841,0.70093 11.23172,1.06083c5.87688,0.56503 13.04349,-0.06083 18.76828,-0.06083c11,0 22,0 33,0c1.97987,0 10.29476,-0.13455 11.6223,0.53635c3.91508,1.97854 7.88262,4.47207 10.39863,8.06543c1.72458,2.46303 1.21689,5.90291 1.47907,8.89822c0.79337,9.06414 -0.4107,18.39244 -0.0108,27.48052c0.17645,4.00998 0.82002,7.99017 1,12c0.23915,5.32797 -0.30132,10.67519 0,16c0.71993,12.72208 1.68326,25.52452 0.98664,38.2962c-0.14636,2.68343 -0.80221,5.31987 -1,8c-0.52073,7.05615 0.58714,14.18741 -0.13725,21.22556c-0.25084,2.43716 -1.61381,4.63378 -2.20719,7.01087c-1.90848,7.64537 -2.09895,15.4925 -4.79281,22.98913c-0.05766,1.28988 0.40158,2.71335 -0.17298,3.86963c-2.07659,4.17911 -3.93915,8.85959 -7.59397,11.76122c-3.07484,2.44117 -15.03425,1.86686 -18.57164,1.86686c-8.66667,0 -17.33333,0 -26,0c-5.48791,0 -12.41646,0.50972 -17.6223,-0.53635c-0.91688,-0.18424 -1.60362,-0.91126 -2.34543,-1.52164c0.01981,0.03259 0.01337,0.05415 -0.03227,0.05799c-2.32513,0.19554 -4.66667,0 -7,0c-4.38587,0 -9.39787,-0.57596 -13.76828,-0.06083c-3.76762,0.44408 -7.4552,1.41553 -11.20071,2.01824c-25.67258,0.27126 -51.35759,0.04259 -77.03101,0.04259c-12.85907,0 -26.07964,0.76657 -38.88611,-0.03145c-14.26522,-0.88892 -28.49081,-4.27768 -42.80514,-4.98768c-0.9189,-0.04558 -19.10536,0.09935 -20.23845,-0.01549c-6.9132,-0.7007 -13.72644,-2.18714 -20.61979,-3.06179c-7.15278,-0.90756 -14.46365,-0.7533 -21.50949,-2.28367c-4.03487,-0.87638 -7.59498,-3.24178 -11.39246,-4.86267c-9.51817,0.30608 -19.02538,0.24274 -28.54855,0.24274c-3.33301,0 -6.69332,-0.59716 -9.99772,-0.16141c-4.10148,0.54087 -8.10168,1.80816 -12.22556,2.13725c-1.74442,0.13921 -3.50654,-0.22665 -5.24943,-0.0695c-2.02648,0.18272 -4.08406,1.74952 -6.007,1.08445c-4.98223,-1.72318 -10.74648,-3.53429 -13.70063,-7.90062c-3.44191,-5.08725 1.12405,-13.26921 1.74117,-18.82189c0.41722,-3.75402 -0.06083,-8.00446 -0.06083,-11.76828c0,-9.66667 0,-19.33333 0,-29c0,-17 0,-34 0,-51c0,-8.39513 1.07611,-17.48647 0.06083,-25.76828c-0.38219,-3.11762 -1.38946,-6.13016 -1.89943,-9.22944c-1.03991,-6.31992 -1.16141,-11.73681 -1.16141,-18.00228c0,0 0,-12.5 12.5,-12.5c1.99713,0 3.67518,0.31908 5.08512,0.85529z" fill="#29ff00"/><path d="M113.53153,70.14146c11.85854,-3.95285 15.81139,7.90569 15.81139,7.90569l1.48005,4.95057c0.25765,12.77388 -0.70858,24.0889 -5.26504,36.23945c-0.44779,2.36057 -0.52305,4.82343 -1.34337,7.08172c-0.77391,2.13054 -2.43552,3.84086 -3.37377,5.90431c-1.66537,3.66257 -2.38043,7.72204 -4.15833,11.33133c-0.80504,1.63431 -2.08507,3.01138 -2.84167,4.66867c-0.75868,1.66183 -1.0197,3.51281 -1.67239,5.21905c-2.43062,6.35403 -5.76328,12.58815 -7.70223,19.11958c-1.31717,4.43693 -2.60184,8.95611 -4.80145,13.02833c-1.33853,2.47806 -2.22598,5.38937 -4.34151,7.24866c-8.2374,7.23972 -23.16066,7.88786 -32.41047,1.7943c-9.39738,-6.19078 -15.46392,-16.58802 -15.92836,-27.63314c0,-8.08419 1,-15.9176 1,-24c0,-2.30948 0.46893,-5.2067 0.09366,-7.47271c-1.19117,-7.19256 -1.17834,-14.18039 -1.09366,-21.52729c0.03459,-3.00104 -0.28807,-6.03488 0.16141,-9.00228c0.39181,-2.5867 1.63179,-4.97323 2.33709,-7.49257c1.38936,-4.96281 2.56779,-9.98351 3.98245,-14.93917c0,0 3.43401,-12.01905 15.45306,-8.58504c12.01905,3.43401 8.58504,15.45306 8.58504,15.45306c-1.42863,4.99556 -2.5585,10.07407 -4.01755,15.06083c-0.44971,1.53703 -1.41303,2.92558 -1.66291,4.50743c-0.26007,1.64636 0.1345,3.33116 0.16141,4.99772c0.07393,4.57945 -0.84127,9.95844 -0.09366,14.47271c0.22455,1.3559 0.82516,2.6368 1,4c1.46403,11.41515 -0.90634,23.16239 -0.90634,34.52729c-0.77532,2.1868 2.66508,5.25595 4.07164,6.36686c0.15611,0.1233 0.99718,0.12085 1.67573,0.12024c0.6316,-1.18738 1.47791,-2.27792 1.92922,-3.54381c0.51302,-1.43897 0.39881,-3.04302 0.84162,-4.50513c1.45783,-4.81356 3.51377,-9.4263 5.38199,-14.09592c1.80076,-4.50099 3.24327,-9.14944 5.24339,-13.56545c0.8522,-1.88155 2.22147,-3.49047 3.15833,-5.33133c1.02506,-2.01418 3.43408,-9.77166 3.84167,-10.66867c0.67091,-1.47651 2.07124,-2.57182 2.62623,-4.09569c0.566,-1.55411 0.43775,-3.27885 0.65663,-4.91828c1,-2.66667 2.28483,-5.24325 3,-8c1.6438,-6.33633 1.4828,-11.51503 1.73496,-17.76055l-0.51995,-1.04943c0,0 -3.95285,-11.85854 7.90569,-15.81139z" fill="#ffffff"/><path d="M292.48438,189.5c-12.5,0 -12.5,-12.5 -12.5,-12.5v-3c0.12744,-3.70425 -0.96831,-7.23236 -1,-11c-0.02589,-3.07769 -0.00616,-6.1589 0.02422,-9.24124c-2.91318,4.21617 -5.99078,8.2093 -8.55426,10.78112c-4.31554,4.32958 -7.8769,11.12975 -13.93896,11.91753c-5.35369,0.69573 -10.45285,-4.15084 -13.90851,-8.29867c-2.27251,-2.72771 -2.75377,-6.50439 -3.20161,-10.14291c-0.91623,1.53044 -1.8568,3.04412 -2.91548,4.47696c-2.26398,3.06412 -5.02752,5.72589 -7.49973,8.62461c-3.65994,4.29136 -7.03728,8.83157 -10.89616,12.94495c-2.35141,2.50649 -5.35657,4.33034 -7.77069,6.77649c0,0 -8.83883,8.83883 -17.67767,0c-2.24162,-2.24162 -3.34624,-4.48324 -3.7464,-6.58068c-0.14602,0.12312 -0.30568,0.23349 -0.48093,0.32926c-5.7331,3.13322 -12.55142,7.23326 -18.83206,5.43351c-4.54137,-1.30136 -4.28867,-8.41921 -6.37623,-12.65709c-0.59448,-1.20683 -1.30997,-2.37819 -1.66877,-3.67477c-1.03072,-3.72466 -1.93737,-7.49906 -2.48213,-11.32512c-0.47055,-3.30484 0.32161,-6.7909 -0.6123,-9.99577c-0.59753,-2.05053 -1.81242,-3.91112 -2.23679,-6.00435c-0.02837,-0.13991 -0.04743,-0.28067 -0.059,-0.4221c-2.03292,3.96468 -4.52497,7.72568 -6.51942,11.71436c-1.55777,3.11538 -2.34588,6.57335 -3.85806,9.71111c-1.77383,3.68065 -3.72037,7.29546 -5.97886,10.70029c-1.34232,2.02364 -4.15047,3.53605 -4.18343,5.96419c0,0 -3.0317,12.12678 -15.15848,9.09509c-12.12678,-3.0317 -9.09509,-15.15848 -9.09509,-15.15848c0.66046,-2.20927 0.85947,-4.61326 1.98138,-6.62781c1.52939,-2.74624 4.08527,-4.79675 5.8352,-7.408c1.54651,-2.30772 2.85166,-4.77987 4.02114,-7.29971c1.55641,-3.35352 2.48861,-6.98207 4.14194,-10.28889c2.29678,-4.5938 5.68333,-8.67996 7.36937,-13.53129c0.83671,-2.4075 1.2138,-4.96503 2.12808,-7.34415c1.44323,-3.75553 3.66436,-7.27265 4.45569,-11.21736c1.16272,-5.79611 0.73306,-12.04799 3.11275,-17.45945c1.54145,-3.50529 2.20018,-8.55283 5.77237,-9.93218c5.72112,-2.20913 13.1027,-2.50706 18.38856,0.60278c4.10016,2.41225 3.66937,8.78538 5.2155,13.28424c2.00376,5.83044 1.98175,12.19326 3.03473,18.19853c0.68547,4.12327 0.59782,8.38323 1.63373,12.43269c0.43254,1.69086 1.81843,3.04775 2.20196,4.75039c0.40355,1.79149 -0.24607,3.70631 0.10884,5.50807c0.02511,0.12746 0.05688,0.25276 0.09418,0.37628c1.7532,-2.33588 3.6227,-4.5967 5.2704,-7.00531c3.60351,-5.26762 6.35774,-11.07038 9.68844,-16.51459c0.92122,-1.50579 2.39934,-2.66646 3.12403,-4.27607c0.59312,-1.31738 0.27309,-2.90094 0.72508,-4.27316c0.69029,-2.09568 2.00039,-4.00222 2.38425,-6.17501c-0.03434,-3.25598 -0.06083,-6.51212 -0.06083,-9.76828v-2c0,0 0,-12.5 12.5,-12.5c12.5,0 12.5,12.5 12.5,12.5v2c0,4.07729 -0.0307,8.15454 -0.06083,12.23172c-0.53858,2.60833 -0.83697,5.27804 -1.61575,7.82499c-0.4359,1.42556 -1.52433,2.58722 -2,4c-0.62403,1.85344 -0.46161,3.9483 -1.27492,5.72684c-1.26622,2.76896 -3.32792,5.10209 -4.87597,7.72393c-3.44029,5.82664 -6.49017,11.9013 -10.31156,17.48541c-2.41239,3.52517 -5.41533,6.65012 -7.57969,10.33279c-2.93931,5.00124 -4.27574,8.79109 -5.81687,13.07251c2.42148,-2.21318 5.19502,-4.05536 7.42607,-6.46052c3.24646,-3.49981 6.01926,-7.41176 9.10384,-11.05505c2.11749,-2.50102 4.56007,-4.73446 6.50027,-7.37539c2.56063,-3.48544 4.42999,-7.44251 6.9619,-10.94886c2.5975,-3.59718 6.01326,-6.65037 8.08593,-10.57347c1.75612,-3.32394 4.00352,-6.45631 5.13416,-10.04159c0.11378,-0.3608 0.22108,-0.724 0.3243,-1.08869c0.08121,-0.41283 0.18921,-0.81455 0.32788,-1.20358c0.49115,-1.85509 0.94502,-3.72349 1.67124,-5.4899v-1.16112c0,-6.90356 5.59644,-12.5 12.5,-12.5c6.90356,0 12.5,5.59644 12.5,12.5v4c2.09686,6.29058 0.22116,13.22581 0.01749,19.88971c0.42714,-0.76704 0.83764,-1.54297 1.22808,-2.32918c3.24439,-6.53311 3.75571,-13.47612 7.44889,-19.84466c1.75044,-3.01847 4.38351,-5.43007 6.57526,-8.1451l0.60701,-0.19405l-0.21556,-0.21556l2,-2c2.26206,-2.26206 5.38706,-3.66117 8.83883,-3.66117c6.90356,0 12.5,5.59644 12.5,12.5l0,4.71778c1.59132,6.81923 0.7855,13.98529 0.99646,20.98486c0.24274,8.05403 0.00354,16.22754 0.00354,24.29737c0,2.4676 -0.39939,5.3284 -0.06083,7.76828c0.42573,3.06809 1.01631,6.13455 1.06083,9.23172v3c0,0 0,12.5 -12.5,12.5z" fill="#ffffff"/><path d="M450.34292,164.95285c-1.09885,3.29655 -2.80864,5.37122 -4.70478,6.64861l4.19419,2.0971c4.22807,2.0043 7.15204,6.31141 7.15204,11.30145c0,6.90356 -5.59644,12.5 -12.5,12.5c-1.48455,0 -2.90865,-0.25879 -4.22965,-0.73373l-2.72319,-0.90773l-1.96547,-1.34228l-2.67185,-1.33593l0.18217,-0.36435l-1.37233,-0.9372l-0.06153,0.58252c-3.73357,-3.06615 -7.06752,-6.60413 -10.85079,-9.60874c-1.81986,-1.4453 -4.23821,-2.18085 -5.91091,-3.7539c0.06776,0.59926 0.10356,1.23239 0.10356,1.90133c0,12.5 -12.5,12.5 -12.5,12.5l-12.40063,-5.56625c-2.15036,-3.22554 -3.20185,-3.00012 -1.18679,-2.99992c-4.27346,-0.64762 -5.70583,-4.28 -8.25141,-7.095c-1.60076,-1.77018 -4.14699,-2.79014 -5.1821,-4.94061c-1.61594,-3.35719 -2.05918,-13.42345 -1.35825,-17.63199c0.33522,-2.01274 1.20895,-3.90263 1.74074,-5.87185c-3.28773,2.97146 -6.84183,5.70139 -10.05268,8.74615c-1.33333,0.66667 -2.74119,1.20149 -4,2c-1.59459,1.01151 -2.7308,2.82015 -4.52534,3.40797c-2.79866,0.91673 -5.84669,0.73291 -8.78354,0.95151c-7.63782,0.5685 -16.67913,0.91799 -23.57164,-2.86686c-1.79678,-0.98666 -7.66574,-7.14952 -8.44929,-8.73491c-1.17578,-2.379 -1.34743,-5.13372 -2.06031,-7.68987c-2.02079,-7.24584 -1.41875,-14.71079 -1.41875,-22.20835c0,-7.46595 0.28099,-13.81129 2.64146,-20.95285c0,0 3.95285,-11.85854 15.81139,-7.90569c11.85854,3.95285 7.90569,15.81139 7.90569,15.81139c-1.53915,4.56516 -1.35854,8.16955 -1.35854,13.04715c0,3.77543 -0.65822,9.90214 -0.16141,13.99772c0.10168,0.83823 0.42211,1.67093 0.60265,2.50232c0.01987,0.00035 0.03947,0.00035 0.05876,-0.00004c3.14709,-0.06351 6.4175,-0.85028 9.46359,-0.14144c1.02471,-0.58268 2.1697,-0.97017 3.22753,-1.49909c3.01579,-3.40862 7.11373,-5.74291 10.14584,-9.13702c0.87491,-0.97936 0.9593,-2.44949 1.31714,-3.71305c0.74899,-2.64473 1.13077,-5.39232 2,-8c0.80277,-2.40832 2.1278,-4.61595 3,-7c0.60242,-1.64662 0.72974,-3.4522 1.41446,-5.06633c0.38747,-0.91339 1.47837,-1.45143 1.75466,-2.40436c0.89704,-3.09397 0.83563,-6.4237 1.81823,-9.49157l4.01971,-5.88599c0,0 8.83883,-8.83883 17.67767,0c0.12061,0.12061 0.23793,0.24122 0.35202,0.36181c5.79953,-1.30233 10.81145,2.87426 10.81145,2.87426c1.61318,1.38049 3.09692,2.92847 4.83955,4.14146c1.15713,0.80544 2.64278,1.05526 3.79449,1.86844c1.4231,1.0048 2.82315,2.04099 4.21042,3.09458c0.69995,0.23947 1.40036,0.47314 2.10608,0.63975c0,0 5.85664,1.95221 7.96632,7.22859l1.91966,1.79112c0,0 8.83883,8.83883 0,17.67767c-7.94934,7.94934 -15.89868,1.59996 -17.41813,0.24152c-0.26291,0.27085 -0.51592,0.55077 -0.75392,0.84451c-1.51321,1.86761 -2.4706,4.14562 -4,6c-1.26007,1.52782 -3.17762,2.46243 -4.31594,4.083c-2.92668,4.16659 -2.15174,9.14783 -2.97166,13.72591c-0.42781,2.3887 -1.51769,4.62171 -2,7c-0.0357,0.17602 0.03176,1.04586 0.10362,2.02947c0.80251,0.85154 1.41295,1.89761 1.97897,2.93415c1.05494,0.42196 2.07872,0.92576 3.12565,1.36878c1.19902,1.49468 2.40247,2.98916 3.57054,4.5095c0.77146,0.30491 1.56582,0.69625 2.3341,1.19853c-0.238,-0.62966 -0.45692,-1.26486 -0.65768,-1.90228c-0.71186,-2.26018 -0.46726,-4.74193 -0.27355,-7.10363c0.05466,-0.6664 0.12692,-1.32185 0.21619,-1.96674c-1.24903,-0.90337 -2.45834,-1.88004 -3.61586,-2.9627c0,0 -8.83883,-8.83883 0,-17.67767c6.40434,-6.40434 12.80868,-3.52792 15.85075,-1.45755c1.54572,-1.46813 3.19342,-2.87954 4.9193,-4.25058c3.52139,-2.79742 6.66103,-6.26524 10.73197,-8.1766c2.52637,-1.18616 5.55789,-0.51762 8.33683,-0.77644c0,0 12.5,0 12.5,12.5c0,12.5 -12.5,12.5 -12.5,12.5c0.76753,-1.76927 0.44579,-0.92569 -0.81068,0.68898c3.22488,1.83616 8.4992,6.27394 5.66922,14.76387z" fill="#ffffff"/></g></g></svg>