<svg version="1.1" xmlns="http://www.w3.org/2000/svg" xmlns:xlink="http://www.w3.org/1999/xlink" width="172.86137" height="203.15678" viewBox="0,0,172.86137,203.15678"><g transform="translate(-240.13035,-28.47317)"><g data-paper-data="{&quot;isPaintingLayer&quot;:true}" fill="#00ff72" fill-rule="nonzero" stroke="none" stroke-width="0.5" stroke-linecap="butt" stroke-linejoin="miter" stroke-miterlimit="10" stroke-dasharray="" stroke-dashoffset="0" style="mix-blend-mode: normal"><path d=""/><path d="M258.26111,28.52416c5.74636,0.21283 11.473,0.9909 17.22328,0.97585c11.66667,0 23.33333,0 35,0c5.84097,0 11.76635,-0.89781 17.52265,0.09309c11.63867,2.00348 22.9742,5.48442 34.45181,8.26597c10.10876,2.44981 23.12968,6.48261 28.90304,15.98221c1.12087,1.84431 1.20751,4.14852 1.96839,6.16814c0.91424,2.4267 2.35622,4.65791 3.05147,7.15617c3.85558,13.85449 5.09926,28.30801 7.38393,42.50634c0.42497,2.64101 1.46896,5.15259 1.95681,7.78271c1.57212,8.47572 3.29975,16.94325 4.21931,25.51436c0.99925,9.31386 -0.41663,18.01076 -2,27.06201c0.12102,8.43598 0.53047,17.00337 1.76613,25.35457c0.80271,5.42511 3.87594,10.70152 3.18281,16.14171c-0.53114,4.16879 -2.6982,8.24104 -5.56751,11.31154c-2.73979,2.9319 -6.85789,4.20459 -10.50201,5.88473c-7.37813,3.40172 -16.47127,2.97155 -24.33683,2.77644c-4.87588,-0.12095 -9.80914,0.2525 -14.6223,-0.53635c-2.91713,-0.4781 -5.18683,-3.15462 -8.11146,-3.58447c-2.16524,-0.31824 -5.13855,-0.20004 -7.26396,-0.04059c-2.63177,0.19745 -5.6339,2.22212 -7.87419,0.82702c-4.90977,-3.05749 -9.6257,-7.48555 -11.56726,-12.93389c-1.18641,-3.32927 2.25093,-6.70072 3.37639,-10.05108c1.38729,-3.64056 3.45917,-7.2331 3.60537,-11.21165c0.13427,-3.65389 -0.1761,-7.31507 -0.04259,-10.96899c0.05146,-1.40824 1.09133,-2.86591 0.59631,-4.18528c-0.67825,-1.80772 -2.77464,-2.73435 -3.80512,-4.36714c-2.75605,-4.36693 -4.36185,-9.54099 -7.82893,-13.36789c-4.44656,-4.90804 -9.6926,-9.08217 -13.89776,-14.19855c-1.28417,-1.56243 -1.34077,-3.84345 -2.36456,-5.58762c-2.37829,-4.05174 -5.92362,-7.78576 -10.3228,-9.49302c-2.79905,-1.08627 -6.87926,-0.23493 -9.72359,0.06066c-8.38054,0.87093 -16.74802,1.88123 -25.14315,2.59793c-5.7313,0.48929 -11.46065,1.0636 -17.19787,1.48559c-0.11512,-1.30178 0.18745,-2.63094 0.18745,-3.94468c0,-4.33333 0,-8.66667 0,-13c0,-3.90809 -1.0593,-9.22429 0.48683,-12.83772c0.48474,-1.72749 1.69935,-3.16127 2.49632,-4.76876c1.85797,-3.74754 4.15196,-8.68645 4.88772,-12.79169c1.59628,-8.90661 -1.16361,-18.45693 0.0542,-27.37999c0.72327,-5.29954 2.16807,-10.38396 2.9458,-15.62001c0.49853,-3.35632 0.12913,-7.19251 0.12913,-10.60182c-0.06442,-2.2958 0.00025,-4.43384 -0.34213,-6.46284c2.37426,-0.06099 4.74825,-0.1008 7.11886,-0.013zM263.88785,54.55043c-1.2358,9.62699 -1.62298,19.39872 -2.99713,28.97686c-0.49887,3.47723 -1.78603,6.84926 -1.93779,10.35882c-0.31799,7.3534 -0.18062,10.64134 0.23845,15.24814c8.97758,-1.12646 23.10548,-3.57561 32.324,-2.59166c3.06314,0.32695 6.23592,0.50223 9.09187,1.6569c10.52156,4.25393 17.86229,10.98698 23.6772,20.50698c0.81764,1.33861 0.62145,3.21562 1.63544,4.41238c3.64245,4.29899 8.34618,7.60136 12.10224,11.80145c4.33195,4.84407 6.91832,11.00623 10.17107,16.63211c1.91086,3.30498 5.04245,5.99333 6.19488,9.63286c1.19035,3.7593 0.50845,7.87244 0.59631,11.81472c0.16934,7.59845 0.49364,13.08919 -1.12519,20.01304c3.09838,0.46291 6.20399,1.27909 9.87185,2.64137c0.6093,0.2263 0.72868,1.31945 1.37564,1.38194c2.4543,0.23709 4.91369,-0.44443 7.3777,-0.53635c3.48862,-0.13014 7.00076,0.45827 10.47271,0.09366c1.33944,-0.14067 2.61067,-0.64881 3.90999,-1.01818c-0.74676,-2.11225 -1.55804,-4.65607 -1.60624,-4.96105c-1.70092,-10.76323 -2.32603,-21.75956 -2.23387,-32.64543c1.21984,-7.59949 2.89951,-15.16632 2,-22.93799c-0.87385,-7.55002 -2.36426,-15.01837 -3.78069,-22.48564c-0.52601,-2.77305 -1.59275,-5.43096 -2.04319,-8.21729c-1.24261,-7.68656 -1.7431,-15.48242 -3.02956,-23.16176c-0.92089,-5.49709 -2.07384,-10.96741 -3.58651,-16.33191c-0.67414,-2.39076 -2.14155,-4.49458 -2.94853,-6.84383c-0.06146,-0.17892 -0.14642,-0.42013 -0.21629,-0.6687c-1.09799,-0.62081 -2.09812,-1.48942 -3.25028,-2.00696c-2.07736,-0.93314 -4.24036,-1.66944 -6.40392,-2.38018c-11.21667,-3.6847 -23.19042,-6.11988 -34.80627,-8.52785c-4.72542,-0.97958 -9.65147,0.09309 -14.47735,0.09309c-11.66667,0 -23.33333,0 -35,0c-3.59224,-0.00805 -7.1898,0.17149 -10.77672,-0.02415c-0.26909,-0.01468 -0.53765,-0.03547 -0.80579,-0.06109c-0.00814,0.08864 -0.01402,0.13568 -0.01402,0.13568z"/><path d=""/><path d=""/><path d=""/></g></g></svg>