<svg version="1.1" xmlns="http://www.w3.org/2000/svg" xmlns:xlink="http://www.w3.org/1999/xlink" width="422.21694" height="196.33158" viewBox="0,0,422.21694,196.33158"><g transform="translate(-38.98439,-51.49998)"><g data-paper-data="{&quot;isPaintingLayer&quot;:true}" fill-rule="nonzero" stroke="none" stroke-width="0.5" stroke-linecap="butt" stroke-linejoin="miter" stroke-miterlimit="10" stroke-dasharray="" stroke-dashoffset="0" style="mix-blend-mode: normal"><path d="M150.63387,148.52152c-1.98273,0.12697 -3.90876,0.12883 -5.82368,0.1397c1.70621,0.08485 3.42544,0.15775 5.15281,0.21655c0.21919,-0.12028 0.44291,-0.23892 0.67087,-0.35625zM229.55947,199.7384c-0.0294,-0.08395 -0.05832,-0.1682 -0.08677,-0.25277c-0.08786,-0.11732 -0.17371,-0.23624 -0.25749,-0.3567c-0.30604,0.14972 -0.61091,0.29589 -0.91085,0.43687c0.41833,0.05801 0.83669,0.11577 1.25511,0.1726zM56.56951,52.35529c3.30497,-0.51498 6.22645,0.68678 8.18709,1.8732c2.51221,-0.34955 5.16497,0.27151 7.72779,0.27151c5,0 10,0 15,0c14.82591,0 29.41751,0.93622 44.23172,1.06083c5.33023,1.06605 9.96557,0.25256 15.29557,1.03282c5.98404,0.87601 11.69361,3.29924 17.70443,3.96718c5.03113,0.55907 10.66774,-0.06083 15.76828,-0.06083c10.54108,0 21.46169,0.88308 31.96899,0.04259c2.02113,-0.16167 3.97998,-0.82495 6,-1c5.58885,-0.48432 11.4094,-0.04259 17.03101,-0.04259c13,0 26,0 39,0c9.91249,0.01712 19.54999,-1.41408 29.43357,-1.98716c7.14078,-0.41405 14.41205,-0.03351 21.56643,-0.01284c3.97691,0.01149 7.91635,0.79284 11.88611,1.03145c11.60341,0.69744 23.48268,-0.08492 35.11389,-0.03145c3.76053,0.01729 7.48841,0.70093 11.23172,1.06083c5.87688,0.56503 13.04349,-0.06083 18.76828,-0.06083c11,0 22,0 33,0c1.97987,0 10.29476,-0.13455 11.6223,0.53635c3.91508,1.97854 7.88262,4.47207 10.39863,8.06543c1.72458,2.46303 1.21689,5.90291 1.47907,8.89822c0.79337,9.06414 -0.4107,18.39244 -0.0108,27.48052c0.17645,4.00998 0.82002,7.99017 1,12c0.23915,5.32797 -0.30132,10.67519 0,16c0.71993,12.72208 1.68326,25.52452 0.98664,38.2962c-0.14636,2.68343 -0.80221,5.31987 -1,8c-0.52073,7.05615 0.58714,14.18741 -0.13725,21.22556c-0.25084,2.43716 -1.61381,4.63378 -2.20719,7.01087c-1.90848,7.64537 -2.09895,15.4925 -4.79281,22.98913c-0.05766,1.28988 0.40158,2.71335 -0.17298,3.86963c-2.07659,4.17911 -3.93915,8.85959 -7.59397,11.76122c-3.07484,2.44117 -15.03425,1.86686 -18.57164,1.86686c-8.66667,0 -17.33333,0 -26,0c-5.48791,0 -12.41646,0.50972 -17.6223,-0.53635c-0.91688,-0.18424 -1.60362,-0.91126 -2.34543,-1.52164c0.01981,0.03259 0.01337,0.05415 -0.03227,0.05799c-2.32513,0.19554 -4.66667,0 -7,0c-4.38587,0 -9.39787,-0.57596 -13.76828,-0.06083c-3.76762,0.44408 -7.4552,1.41553 -11.20071,2.01824c-25.67258,0.27126 -51.35759,0.04259 -77.03101,0.04259c-12.85907,0 -26.07964,0.76657 -38.88611,-0.03145c-14.26522,-0.88892 -28.49081,-4.27768 -42.80514,-4.98768c-0.9189,-0.04558 -19.10536,0.09935 -20.23845,-0.01549c-6.9132,-0.7007 -13.72644,-2.18714 -20.61979,-3.06179c-7.15278,-0.90756 -14.46365,-0.7533 -21.50949,-2.28367c-4.03487,-0.87638 -7.59498,-3.24178 -11.39246,-4.86267c-9.51817,0.30608 -19.02538,0.24274 -28.54855,0.24274c-3.33301,0 -6.69332,-0.59716 -9.99772,-0.16141c-4.10148,0.54087 -8.10168,1.80816 -12.22556,2.13725c-1.74442,0.13921 -3.50654,-0.22665 -5.24943,-0.0695c-2.02648,0.18272 -4.08406,1.74952 -6.007,1.08445c-4.98223,-1.72318 -10.74648,-3.53429 -13.70063,-7.90062c-3.44191,-5.08725 1.12405,-13.26921 1.74117,-18.82189c0.41722,-3.75402 -0.06083,-8.00446 -0.06083,-11.76828c0,-9.66667 0,-19.33333 0,-29c0,-17 0,-34 0,-51c0,-8.39513 1.07611,-17.48647 0.06083,-25.76828c-0.38219,-3.11762 -1.38946,-6.13016 -1.89943,-9.22944c-1.03991,-6.31992 -1.16141,-11.73681 -1.16141,-18.00228c0,0 0,-12.5 12.5,-12.5c1.99713,0 3.67518,0.31908 5.08512,0.85529z" fill="#29ff00"/><path d="M83.64554,187.83883c-8.83883,-8.83883 0,-17.67767 0,-17.67767l2.90508,-2.56179c5.40106,-3.40414 10.38633,-7.87336 15.55559,-11.6896c2.18488,-1.61301 4.80405,-2.55221 7.06928,-4.0503c0.62337,-0.41226 0.91391,-1.2143 1.52699,-1.64171c3.88146,-2.70595 8.07157,-5.06921 11.47301,-8.35829c5.49052,-2.8463 10.23204,-6.26198 15.71871,-9.03981c1.25745,-0.63663 2.6343,-1.21888 4.03713,-1.80253c-0.46341,-0.55451 -0.91068,-1.1196 -1.25834,-1.74304c-1.00138,-1.79573 -1.61317,-3.80305 -2.71782,-5.53717c-1.21204,-1.90269 -3.05775,-3.3629 -4.19334,-5.31219c-1.41806,-2.43415 -2.15668,-5.20966 -3.40699,-7.73408c-3.20332,-6.46757 -8.11321,-12.19775 -11.72351,-18.48892c0,0 -6.20174,-10.85304 4.6513,-17.05478c10.85304,-6.20174 17.05478,4.6513 17.05478,4.6513c3.80459,6.69137 8.81309,12.64452 12.27649,19.51108c1.01797,2.01823 1.45272,4.3142 2.59301,6.26592c1.01543,1.73802 2.72674,2.98911 3.80666,4.68781c1.29627,2.03901 2.11231,4.34876 3.28218,6.46283c0.27568,0.49819 0.5787,0.98092 0.89644,1.45522c0.9112,-0.46357 1.82475,-0.92188 2.73765,-1.37922c2.55844,-1.28172 5.57274,-1.79372 7.86188,-3.65448c1.71875,-1.39711 2.96846,-3.35446 4.81152,-4.58295c1.73665,-1.15756 3.93279,-1.4477 5.75707,-2.46154c3.64759,-2.02715 6.97575,-4.58627 10.55242,-6.73608c3.14137,-1.88816 6.43092,-3.54487 9.44216,-5.63431c3.95228,-2.74242 7.51013,-6.08461 11.69828,-8.45121c2.66375,-1.50521 5.03492,-4.33105 8.09453,-4.32778c5.58815,0.00599 10.79283,2.90252 16.18924,4.35378c-0.21162,6.29775 1.0011,12.80802 -0.63487,18.89326c-0.64833,2.41157 -3.82374,3.21295 -5.73902,4.81535c-1.97395,1.65149 -3.84423,3.43667 -5.92865,4.94633c-18.60493,13.47479 -38.03357,24.07852 -60.16309,30.74262c-0.36225,0.10909 -0.7262,0.22845 -1.0916,0.35442c-0.64202,0.71738 -1.20022,1.53654 -1.98646,2.0812c-5.74363,3.97885 -12.86657,5.76806 -18.73724,9.49261c-3.03318,1.92435 -6.01989,3.96236 -9.26276,5.50739c-2.99727,3.13334 -6.97907,5.14896 -10.52699,7.64171c-2.46467,1.73167 -4.89076,3.53773 -7.50781,5.02914c-6.53862,3.72625 -12.14699,9.3469 -18.34033,13.58925l0.90508,-0.56179c0,0 -8.83883,8.83883 -17.67767,0z" fill="#ffffff"/><path d="M328.98438,149c0,12.5 -12.5,12.5 -12.5,12.5h-1c-9.21187,0 -16.86742,-0.35474 -26.34558,-2.22204c-6.76132,-1.33205 -13.30853,-3.61708 -20.05735,-5.01109c-4.56822,-0.9436 -9.20495,-1.49327 -13.83991,-2.05361c-0.01811,0.05966 -0.03619,0.11931 -0.05425,0.17897c-1.49737,3.31341 -5.4325,12.08693 -8.65418,19.05316c0.41492,0.09339 0.82914,0.18416 1.24257,0.26642c4.24186,0.84405 8.36975,2.23991 12.63806,2.938c3.78397,0.61887 7.45432,0.69226 11.09139,0.84931c0.87167,-0.51507 1.87442,-0.97366 3.02638,-1.35765c11.85854,-3.95285 15.81139,7.90569 15.81139,7.90569l-14.81139,18.81139c-1.66632,-0.82559 -3.70983,-0.26697 -5.56664,-0.36934c-4.47926,-0.24696 -8.97807,-0.44356 -13.4099,-1.139c-6.59859,-1.03544 -13.12472,-2.50027 -19.64489,-3.94973c-5.25558,-1.16834 -11.7698,-0.25758 -15.65146,-3.98839c-11.45078,-11.00578 -4.75349,-15.33977 -0.49521,-23.83947c0.73918,-1.47543 9.54496,-20.74582 11.01802,-23.96483c3.00975,-10.14199 6.85822,-20.27451 9.53731,-30.47969c1.46459,-5.57892 1.47472,-11.80897 4.53248,-16.69973c1.59706,-2.55444 4.00348,-4.5824 6.4744,-6.30586c1.12725,-0.78625 2.7674,-0.39206 4,-1c0.70751,-0.34896 0.89658,-1.37415 1.5871,-1.75564c1.43486,-0.79272 8.63505,-3.41557 10.56936,-3.70546c8.99067,-1.34739 18.7857,0.34236 27.69353,0.85772c3.34209,0.19335 6.73311,-0.40308 10.04251,0.10169c8.77317,1.33815 9.20163,2.2097 15.19999,5.97855c0,0 10.40063,6.93375 3.46688,17.33438c-6.93375,10.40063 -17.33438,3.46688 -17.33438,3.46688c-3.88469,-3.12167 -7.9348,-1.66428 -12.7575,-1.91976c-7.11436,-0.37688 -15.10025,-1.99019 -22.30647,-1.14228c-1.48412,0.17463 -3.84162,3.09212 -5.87827,3.8067c-0.32911,2.24177 -0.38082,4.53664 -0.95839,6.72662c-0.81675,3.09687 -1.72386,6.19244 -2.68003,9.28548c5.41764,0.77539 10.74616,1.54062 10.91734,1.57575c6.7125,1.37761 13.22758,3.62393 19.94265,4.98891c7.85523,1.59674 14.05911,1.77796 21.65442,1.77796h1c0,0 12.5,0 12.5,12.5z" fill="#ffffff"/><path d="M319.98438,194c0,-12.5 12.5,-12.5 12.5,-12.5h2c10.99744,0 22.00364,-0.1268 33,0c1.66667,0.01922 3.35226,0.42713 4.99772,0.16141c3.95536,-0.63875 5.17848,-2.70182 8.82443,-2.88041c0.01156,-0.03167 0.02402,-0.06173 0.03732,-0.08987c0.37273,-0.78896 1.1354,-1.32948 1.83303,-1.86948c-0.10658,-0.26312 -0.17936,-0.54151 -0.1925,-0.82164c-0.09372,-1.9978 0,-4 0,-6c0,-2.37729 1.28214,-7.07135 -0.31138,-7.72591c-0.12005,-0.59366 0.09419,-1.38045 -0.36015,-1.78097c-0.97132,-0.85626 -2.5151,-0.82535 -3.52113,-1.64055c-1.94261,-1.57414 -3.17456,-3.93524 -5.18848,-5.41705c-1.24077,-0.91294 -3.04327,-0.75834 -4.33827,-1.59259c-3.19501,-2.05824 -5.80125,-4.94758 -9,-7c-1.72602,-1.10747 -4.0581,-1.12913 -5.66173,-2.40741c-3.36835,-2.68496 -6.6652,-5.65456 -8.99636,-9.27678c-6.88072,-10.69148 -0.65589,-24.57404 8.56862,-31.29926c4.95631,-3.61345 12.32887,-5.31078 17.8682,-6.87662c4.24015,-1.19859 8.42306,-2.72467 12.78152,-3.37226c0.66092,-0.0982 16.61067,-0.14067 18.65916,-0.1106c2.4555,0.03605 4.95468,-0.25062 7.36384,0.22555c2.53506,0.50105 4.85236,1.779 7.27854,2.6685c0,0 11.60596,4.64238 6.96358,16.24834c-4.64238,11.60596 -16.24834,6.96358 -16.24834,6.96358c-4.3104,-2.10891 -8.34296,-1.0698 -13.35762,-1.10596c-2.44716,-0.01764 -4.92141,-0.47837 -7.34084,-0.1106c-3.15894,0.48018 -6.14948,1.73851 -9.21848,2.62774c-2.94809,0.8542 -5.89947,1.69827 -8.8326,2.60248c-0.05922,0.01826 -0.118,0.03812 -0.17632,0.05951c4.38499,1.97992 8.55949,6.40666 11.78765,8.47795c1.72602,1.10747 3.99807,1.20829 5.66173,2.40741c2.56153,1.84628 4.37386,4.57595 6.81152,6.58295c2.00953,1.65451 4.6796,2.47842 6.47887,4.35945c1.66031,1.73575 2.42657,4.14602 3.63985,6.21903c1.05076,1.88393 2.57473,3.57339 3.15227,5.65178c0.70013,2.51953 0.53635,11.88214 0.53635,14.6223c0,1.88006 0.09721,11.35632 -0.33439,12.87191c-1.10019,3.86348 -3.61784,7.22106 -6.02509,10.43697c-1.54917,2.06958 -2.23879,4.90669 -4.31893,6.44164c-4.9937,3.68488 -8.53089,2.97005 -13.61324,4.33072c-2.43149,0.65097 -4.71652,1.88583 -7.20607,2.25735c-1.44199,0.21519 -16.55647,0.16141 -18.00228,0.16141c-8,0 -16,0 -24,0h-2c0,0 -12.5,0 -12.5,-12.5z" fill="#ffffff"/></g></g></svg>