<svg version="1.1" xmlns="http://www.w3.org/2000/svg" xmlns:xlink="http://www.w3.org/1999/xlink" width="321.19568" height="234.38137" viewBox="0,0,321.19568,234.38137"><g transform="translate(-82.30929,-55.8808)"><g data-paper-data="{&quot;isPaintingLayer&quot;:true}" fill="#00ff72" fill-rule="nonzero" stroke="none" stroke-width="0.5" stroke-linecap="butt" stroke-linejoin="miter" stroke-miterlimit="10" stroke-dasharray="" stroke-dashoffset="0" style="mix-blend-mode: normal"><path d="M294.88255,60.87087c1.04686,0.12323 1.95629,0.85245 3,1c1.22486,0.17316 2.49898,-0.30005 3.71075,-0.05131c1.14243,0.23451 2.10285,1.01136 3.17717,1.4652c4.7004,1.98566 12.10872,5.36403 16.70325,6.51101c2.32772,0.5811 5.02186,-0.59711 7.18382,0.44302c4.78667,2.30287 8.68502,6.92595 12.98973,10.05874c7.24873,8.56285 14.83839,16.90159 22.28257,25.25449c2.85733,3.20613 6.23338,5.92229 9.10326,9.1172c2.46913,2.74877 4.11858,6.13805 6.29845,9.12142c1.40359,1.92095 3.35515,3.42382 4.62662,5.43467c5.3458,8.45447 4.53255,19.33234 4.52621,28.7747c-0.00407,6.05841 0.56908,12.14045 0.03407,18.17519c-0.3581,4.03933 -1.61641,7.96301 -2,12c-0.74667,7.85801 -0.13394,15.89422 -1.78634,23.61273c-1.17522,5.48956 -4.05332,11.72595 -6.31951,17.0046c-1.01355,2.12013 -1.73421,4.40706 -3.04065,6.36038c-0.8542,1.27715 -2.31637,2.03103 -3.33886,3.17789c-1.23824,1.38885 -2.05353,3.15018 -3.42453,4.40814c-1.48202,1.35983 -11.56797,7.76668 -12.75746,8.3992c-5.28383,2.80971 -11.15757,4.40621 -16.42951,7.23817c-4.47019,2.40128 -8.63556,6.64819 -13.33074,8.64055c-4.91036,2.08367 -10.35289,3.15363 -14.78568,6.12074c-1.21824,0.81543 -1.23885,2.8614 -2.4903,3.62489c-1.43417,0.87496 -3.36321,0.38276 -4.95574,0.91778c-6.41892,2.15647 -11.89828,6.67815 -18.39726,8.78746c-11.6374,3.77704 -24.86892,3.54829 -36.97751,3.53229c-4,0 -8.00171,-0.11683 -12,0c-0.66631,0.01947 -1.35385,0.40548 -1.98934,0.20422c-2.19817,-0.69616 -4.08634,-2.22534 -6.31065,-2.83282c-2.92338,-0.79841 -5.96685,-1.15282 -8.99112,-1.34624c-4.10909,-0.2628 -8.23791,0.13747 -12.35243,-0.0188c-11.50586,-0.43701 -23.22887,-1.77989 -34.55365,-3.84251c-1.89565,-0.34526 -13.0125,-2.11136 -13.97598,-2.40264c-0.95529,-0.28881 -1.52003,-1.34202 -2.43332,-1.74436c-1.79868,-0.79239 -3.87874,-0.87927 -5.61466,-1.80107c-2.93141,-1.55663 -5.12359,-4.22433 -7.77885,-6.21578c-9.39482,-7.04612 -17.95031,-14.02161 -24.11795,-24.15412c-1.71621,-1.72859 -3.59985,-3.3057 -5.14863,-5.18577c-4.07616,-4.94806 -6.77988,-10.97317 -10.933,-15.91738c-2.47118,-2.94189 -4.81272,-6.03012 -7.6463,-8.62478c-0.95566,-0.87508 -2.57295,-0.74791 -3.5361,-1.61473c-1.29815,-1.16831 -3.18445,-6.99734 -3.65956,-7.94685c-1.88892,-3.77503 -3.31367,-4.30329 -4.08759,-8.15819c-1.48818,-7.41262 -0.87087,-15.85871 -0.87087,-23.39818c0,-4.72508 -0.37014,-9.46208 -0.03407,-14.17519c0.34011,-4.76976 1.67358,-9.43375 2.01475,-14.20343c0.43974,-6.14773 0.01932,-12.45556 0.01932,-18.62137c0,-2.46643 -0.6144,-4.97995 -0.12913,-7.39818c0.57844,-2.88246 2.08022,-4.87218 3.25153,-7.50526c1.6799,-3.77639 2.9892,-8.21764 5.30095,-11.70703c2.60416,-3.93075 8.51159,-8.99212 11.02793,-11.72032c1.32253,-1.43388 2.25946,-3.20008 3.61979,-4.59815c3.94162,-4.05097 9.66402,-5.8091 14.08305,-9.18901c5.81485,-4.44751 11.09046,-11.51944 14.2703,-18.23732c0.83294,-0.19328 1.65088,-0.67371 2.49791,-0.83125c4.62114,-0.85946 9.3773,-0.82775 14.07766,-0.81349c7.66667,0 15.33333,0 23,0c1.42787,0 2.92434,-0.05488 4.45016,-0.1192c0.08231,0.01126 0.16462,0.02258 0.24692,0.03396c17.78076,2.45742 35.76861,5.69977 53.68154,7.06592c8.61247,0.65684 17.59157,0.02525 26.24275,0c1.43339,-0.18359 2.88227,-0.42838 4.33973,-0.70027c2.3014,0.47916 4.59245,0.97448 6.86959,1.48147c0,0 6.01184,1.33596 9.64822,-2.80679c4.62555,-0.15211 9.45421,-0.60981 13.91926,-0.08421z"/><path d="M403.50413,266.20005c-0.00507,-0.02347 -0.01022,-0.04694 -0.01546,-0.07038c0.00556,-0.00452 0.011,-0.00902 0.0163,-0.01348c-0.00028,0.02796 -0.00056,0.05591 -0.00084,0.08387z"/></g></g></svg>