<svg version="1.1" xmlns="http://www.w3.org/2000/svg" xmlns:xlink="http://www.w3.org/1999/xlink" width="441.80081" height="197.62943" viewBox="0,0,441.80081,197.62943"><g transform="translate(-14.23437,-50.61607)"><g data-paper-data="{&quot;isPaintingLayer&quot;:true}" fill="#ff0000" fill-rule="nonzero" stroke="none" stroke-width="0.5" stroke-linecap="butt" stroke-linejoin="miter" stroke-miterlimit="10" stroke-dasharray="" stroke-dashoffset="0" style="mix-blend-mode: normal"><path d="M67.90305,124.70543c0.8753,-0.57417 2.03769,-0.95543 3.58132,-0.95543c6.25,0 6.25,6.25 6.25,6.25l-6.25,7.25c-2.35729,0 -10.36068,0.00603 -10.76364,-0.04683c-2.91056,-0.3818 -5.70267,-1.39576 -8.55399,-2.09364c-11.12142,-2.06534 -22.99549,-4.97183 -31.94704,-12.54061c-4.61084,-3.89859 -4.95616,-10.1104 -4.98532,-15.56892c-0.02242,-4.19603 -0.20562,-8.48805 -0.25127,-12.76198c-0.45717,-0.82976 -0.74873,-1.88811 -0.74873,-3.23802c0,-1.42856 0.32653,-2.5306 0.83031,-3.38074c0.04407,-1.05028 0.1062,-2.09579 0.19098,-3.13477c0.16491,-2.02087 0.82783,-3.97974 1,-6c0.46867,-5.49953 -1.11181,-11.19951 1.71824,-16.4336c1.23946,-2.29234 3.38586,-3.98638 5.34221,-5.70794c2.20816,-1.94316 4.36352,-4.16061 7.09946,-5.24063c2.1944,-0.86624 4.71018,-0.30024 7.0688,-0.35233c9.48894,-0.20956 15.60258,2.14009 22.41942,8.83058c2.96047,3.05302 4.69512,6.05388 7.23763,9.25115c1.83075,2.30222 4.09075,4.39214 5.24063,7.09947c0.79215,1.86508 0.33797,4.04251 0.35232,6.06879c0.01373,1.93906 0.30881,3.95986 -0.26817,5.81115c-2.17412,6.9758 -8.50756,9.81259 -14.98068,11.35815c-3.71863,0.88788 -9.15185,0.21286 -13.00114,0.0807c-1.60526,-0.05511 -3.26866,0.17973 -4.81115,-0.26817c-1.15418,-0.33514 -1.83158,-1.71852 -3,-2c-1.36023,-0.32769 -2.79046,0.22238 -4.18885,0.26817c-1.61951,0.05303 -3.23972,0.0631 -4.8602,0.05631c0.05601,1.91597 0.1102,3.8213 0.1102,5.69369c0,3.05485 -0.51799,6.51096 0.46571,9.47154c0.77798,2.34143 4.92858,3.37835 6.1309,3.96435c3.30348,1.61008 6.51486,3.49417 10.01973,4.59927c3.37447,1.06398 6.96753,1.23687 10.4513,1.8553c4.87643,1.24848 8.64395,1.68784 13.10104,1.81496zM27.80019,84.75c0.22807,0 0.45613,0 0.68419,0c2.69141,0 10.31484,-0.04575 11.81115,0.26817c1.17625,0.24677 1.88933,1.54081 3,2c1.29299,0.53457 2.78971,-0.26817 4.18885,-0.26817c1,0 2,0 3,0c2.36241,0 9.35247,0.90503 10.01817,-2.56115c0.13864,-0.72188 -0.28318,-1.45393 -0.26817,-2.18885c0.01336,-0.65422 0.64411,-1.3455 0.35233,-1.93121c-0.28753,-0.57718 -4.68364,-4.69268 -5.17259,-5.41435c-1.42133,-2.09785 -2.51329,-4.48836 -4.34915,-6.23502c-0.80897,-0.83105 -1.51145,-1.7811 -2.42691,-2.49313c-4.09373,-3.18402 -6.12669,-2.48826 -11.15367,-2.67628c-0.98342,-0.03679 -2.02154,-0.72779 -2.9312,-0.35233c-1.23353,0.50914 -1.91297,1.86187 -2.90054,2.75937c-0.86576,0.78681 -2.05988,1.28653 -2.65779,2.29206c-1.12293,1.88844 -0.20555,10.63253 -0.28176,11.5664c-0.144,1.76472 -0.66779,3.48216 -0.9129,5.23449z"/><path d="M75.23438,138c0,-6.25 6.25,-6.25 6.25,-6.25l1.56404,0.16719c2.5176,-1.41717 5.17551,-2.59101 7.87561,-3.6187c0.70347,-0.26774 1.60869,-0.18568 2.14093,-0.71791c0.53224,-0.53224 0.44076,-1.44112 0.71792,-2.14093c0.4842,-1.22259 1.19378,-2.35986 1.56427,-3.62157c0.94937,-3.23306 -1.19101,-7.39546 -0.8446,-11.00693c-2.77467,-2.76541 -5.40318,-5.43863 -8.62801,-7.70903c-5.14221,-3.62031 -8.8576,-4.7913 -11.31944,-11.12569c-1.25117,-3.2193 -0.11266,-7.38277 1.15503,-10.36819c4.34895,-10.24186 14.64099,-13.52646 23.86457,-18.13962c2.59521,-1.298 5.03986,-3.20129 7.90854,-3.6379c0.67749,-0.10312 9.82408,-0.08071 11.00114,-0.08071c0,0 6.25,0 6.25,6.25c0,6.25 -6.25,6.25 -6.25,6.25c-2.99974,0 -6.00631,-0.28829 -8.99886,-0.0807c-1.2957,0.08988 -3.54768,2.09028 -4.09146,2.36209c-4.04603,2.02239 -7.91069,3.77102 -11.90212,5.9474c-4.15258,2.26423 -4.54723,2.05764 -6.23331,5.91298c-0.24544,0.56121 -1.21925,1.14692 -0.84497,1.63181c2.73858,3.54796 7.75351,5.33498 11.16574,8.25484c3.87283,3.314 6.23368,6.56953 8.88681,10.91044c0.25275,5.37457 2.37334,11.70185 1.1554,16.99307c-0.51051,2.21789 -1.47232,4.3165 -2.43573,6.37843c-0.94761,2.02811 -1.69917,4.27615 -3.28208,5.85906c-3.63309,3.63309 -11.36968,5.51937 -15.98346,7.66339l-4.43596,0.16719c0,0 -6.25,0 -6.25,-6.25z"/><path d="M154.68929,139.59017c-1.39655,-0.69827 -2.26976,-1.57099 -2.79396,-2.48741c-6.0539,-1.17101 -12.35856,-2.64301 -17.27295,-6.18875c-1.87574,-1.35335 -3.04182,-3.50186 -4.32456,-5.42658c-1.4464,-2.17028 -3.13232,-4.3079 -3.83666,-6.8191c-0.2859,-1.01933 -0.22678,-11.87477 -0.22678,-13.66833c0,-6.6981 -0.50044,-12.49721 2.69627,-18.86681c3.13932,-6.25522 11.82411,-12.50514 17.71762,-15.70266c1.70484,-0.92495 3.79819,-0.91513 5.55029,-1.7471c0.60613,-0.28781 0.80094,-1.09577 1.32339,-1.51682c1.09564,-0.88302 2.33037,-1.57795 3.49556,-2.36693c0,0 5.20031,-3.46688 8.66719,1.73344c3.46687,5.20032 -1.73344,8.66719 -1.73344,8.66719c-1.84762,1.20478 -3.22326,3.10026 -5.18105,4.11625c-2.02131,1.04896 -4.44099,1.18002 -6.44971,2.2529c-3.1712,1.69376 -10.43146,6.5695 -12.28238,10.29734c-2.72358,5.48543 -1.17566,13.29847 -1.30373,19.13319c-0.03173,1.44552 -0.58769,2.93157 -0.22678,4.33167c0.32008,1.24169 1.45172,2.1142 2.16333,3.1809c0.56805,0.8515 0.82129,2.00937 1.67544,2.57342c4.73148,3.12453 12.00064,3.71276 17.36373,4.78538l3.36444,10.92372c0,0 -2.79508,5.59017 -8.38526,2.79509z"/><path d="M288.73438,172c0,6.25 -6.25,6.25 -6.25,6.25l-3.97643,-0.32073c-5.37991,-1.80273 -10.66736,-1.2351 -16.05193,-3.01756c-10.05405,-3.32823 -18.91452,-13.41819 -21.10887,-23.72979c-0.11064,-0.51988 -0.17842,-1.1252 -0.21034,-1.79361c-0.54703,-0.13821 -1.09018,-0.29101 -1.62886,-0.45904c0,0 -5.92927,-1.97643 -3.95284,-7.9057c1.50742,-4.52226 5.31426,-4.44568 7.03609,-4.15468c0.40416,-1.89723 0.80253,-3.41151 1.06438,-4.12449c1.13656,-3.09463 3.33405,-5.67622 5.14535,-8.44457c-2.24453,0.91271 -4.73501,1.3264 -7.10871,1.83235c-5.34634,1.13957 -8.32421,1.12229 -12.76857,1.11757c-0.38119,3.13849 -0.54061,6.32036 -1.39865,9.35442c-0.88346,3.12395 -2.10214,6.14408 -3.06982,9.24298c-0.74156,2.37477 -1.22834,4.82872 -2.05683,7.17459c-0.42103,1.19216 -1.48379,2.15219 -1.67832,3.40146c-0.1139,0.7315 0.55182,1.37396 0.82773,2.06095c0,0 1.51585,6.06339 -4.54754,7.57924c-6.06339,1.51585 -7.57924,-4.54754 -7.57924,-4.54754c-0.39076,-1.97968 -1.35649,-3.9296 -1.17227,-5.93905c0.21287,-2.32195 1.61567,-4.37631 2.32168,-6.59854c0.7879,-2.47998 1.59104,-4.95554 2.37989,-7.43544c-2.52794,2.69125 -6.44234,1.38645 -6.44234,1.38645l-4.30939,-1.6127c-1.56859,-1.45023 -5.72122,-5.03824 -6.48843,-6.9248c-1.65861,-4.07853 -0.15932,-8.77213 0.5111,-12.79472c-1.79083,0.83486 -3.83864,1.06908 -5.73685,1.65295l-4.97643,-1.32073c0,0 -5.06259,-1.68753 -4.27248,-6.62192c-2.98892,-1.386 -5.862,-2.96624 -7.71801,-5.51364c-5.48004,-7.52144 -0.69314,-17.94949 6.68109,-22.11028c3.88574,-2.19247 5.31772,-1.88769 9.28582,-1.93343c2.18816,-0.02523 7.62314,-0.07295 8.94911,0.73954c2.10773,1.29152 3.40629,3.63724 4.66536,5.76452c0.2305,0.38944 0.43204,0.78901 0.60804,1.19696c1.5676,-5.76327 4.13277,-10.53349 8.35808,-14.87042c0,0 4.41941,-4.41942 8.83883,0c4.41941,4.41942 0,8.83883 0,8.83883c-2.69134,2.57197 -4.48819,5.89892 -5.25012,9.58173c-0.25761,1.24517 0.20659,2.60107 -0.18747,3.81001c-0.44974,1.37974 -1.68693,2.38671 -2.26611,3.71731c-1.54686,3.55371 -1.4794,7.98751 -2.85393,11.63996c-0.43679,1.16067 -1.4808,2.06378 -1.77898,3.26754c-0.28582,1.15387 0.25032,2.38778 0.08649,3.56518c-0.14527,1.04403 -0.84033,1.95807 -1,3c-0.15148,0.98844 0.18957,2.00482 0.0807,2.99886c-0.02803,0.25587 -0.54786,0.36113 -0.47575,0.60823c0.0603,0.20664 0.46976,-0.15241 0.64517,-0.02764c0.38095,0.27097 0.57761,0.73523 0.86641,1.10284l1.69061,0.3873c0,0 3.71536,1.23845 4.28365,4.69571c0.23714,-0.78899 0.47055,-1.5791 0.6993,-2.37061c1.46374,-5.06481 0.61425,-7.06508 1.9887,-12.95682c2.14319,-9.18706 7.02241,-17.48257 11.64624,-25.57605c1.82425,-3.19314 2.90592,-7.39219 6.11987,-9.17952c5.79279,-3.22146 16.4491,0.52953 20.25274,5.52286c1.25174,1.64325 1.46825,3.86172 2.20238,5.79257c0.08139,6.0524 1.06248,13.77501 -1.42071,19.78538c1.79691,-0.5687 3.76918,-0.7291 5.63556,-1.00382c5.15584,-0.75892 15.71874,-0.01583 19.38473,3.17974c1.80764,1.57568 1.16553,4.66272 1.48113,7.03985c0.63906,4.81356 -1.33132,10.83893 -4.17973,14.65444c-3.42337,4.58568 -7.17127,5.87746 -12.32284,7.34631c-3.88791,1.10855 -8.01899,1.95463 -12.17475,2.29208c1.92548,5.54957 6.99702,10.95358 12.45568,12.79546c2.45333,0.82781 5.16883,0.36598 7.73529,0.70854c2.77877,0.37089 5.55662,1.39251 8.21278,2.2739l0.02357,-0.32073c0,0 6.25,0 6.25,6.25zM255.15053,137.69899c2.69125,-0.40277 5.31109,-1.04805 7.58642,-1.69974c1.49059,-0.42693 3.1283,-0.52434 4.46161,-1.31582c1.88702,-1.12018 2.83233,-4.47011 3.08265,-6.44707c0.00261,-0.0206 0.00459,-0.04142 0.00599,-0.06244c-1.09488,0.2265 -2.46951,0.07653 -2.80282,0.07609c-1.46141,-0.00194 -2.92275,-0.03865 -4.38414,-0.03042c-0.7615,0.00429 -1.65054,-0.35538 -2.28353,0.06796c-0.7029,0.47009 -0.78513,1.49792 -1.17769,2.24688c-1.44195,2.24039 -3.40131,4.22241 -4.32584,6.72116c-0.05441,0.14705 -0.10868,0.29487 -0.16265,0.44339zM232.51955,114.649c2.25944,-0.19309 4.5146,-0.44698 6.75699,-0.78118c1.57389,-0.23457 3.21818,-0.35251 4.66441,-1.01627c0.8065,-0.37015 1.31476,-3.07639 1.34026,-3.61519c0.16124,-3.40794 -0.03496,-6.82415 0.03387,-10.23521c0.455,-0.46635 0.21161,-0.09562 -0.74039,-0.46975c-0.83833,-0.32946 -1.7545,-0.53889 -2.55437,-0.94272c-0.01984,0.19091 -0.06345,0.37709 -0.13026,0.54838c-0.43671,1.1197 -1.40362,1.95656 -2,3c-2.08732,3.65198 -5.08805,7.59466 -6.68998,11.39141c-0.28918,0.68539 -0.5,1.39769 -0.68054,2.12054zM192.7446,106.99205c-0.00641,-2.66354 -0.29575,-5.32845 -0.42952,-7.9909c-0.01267,-0.25221 -0.17596,-0.48153 -0.30247,-0.71322c-1.37441,-0.01014 -4.39579,-0.64048 -5.24241,0.02865c-1.04038,0.82227 -2.58331,2.36982 -3.304,3.49458c-0.17892,0.27923 3.87562,2.63171 3.92786,2.65746c1.76542,0.87027 3.58707,1.64644 5.35054,2.52344z"/><path d="M359.73438,176c0,6.25 -6.25,6.25 -6.25,6.25h-3c-8.94365,-0.04844 -20.97286,-0.83425 -27.12853,-8.67778c-1.91327,-2.43788 -1.78228,-5.97405 -2.10018,-9.05671c-0.39375,-3.81826 -0.01749,-7.677 -0.0213,-11.5155c-0.00474,-4.79053 -0.03242,-9.58249 -0.01479,-14.37378c-0.59074,-0.88034 -0.98521,-2.05604 -0.98521,-3.62622c0,-1.633 0.42667,-2.83933 1.05705,-3.73047c0.00724,-0.42357 0.01511,-0.84713 0.02366,-1.27067c3.57015,-10.60026 13.66842,-20.41707 23.93865,-24.83725c3.44323,-1.48192 8.32837,-1.41873 12.23064,-1.41161c4.80946,0.00877 13.87457,0.05192 17.07027,4.59556c1.43901,2.04599 1.2478,4.91936 1.1329,7.41808c-0.36618,7.96348 -8.78642,14.95561 -15.68508,17.58033c-4.14592,1.57738 -8.44415,2.73323 -12.72805,3.88432c-4.19511,1.12723 -8.84277,2.45745 -13.46851,3.27071c0.00311,4.17166 -0.06721,8.34881 -0.07152,12.501c-0.00363,3.49484 0.01032,6.9898 -0.0213,10.4845c-0.00888,0.98163 -0.73594,2.19531 -0.10018,2.94329c0.95241,1.12052 2.64278,1.33774 4.06307,1.71907c4.15561,1.11571 8.50573,1.633 12.8084,1.60315h3c0,0 6.25,0 6.25,6.25zM337.64149,126.62982c6.12935,-1.37807 10.30258,-2.27624 17.60955,-4.84758c2.28599,-0.80445 5.50799,-3.01696 7.25639,-5.13949c-0.54204,-0.18136 -1.08628,-0.36408 -1.63891,-0.42316c-2.60124,-0.27808 -9.00322,-0.34586 -11.1535,0.6188c-4.55915,2.04534 -8.67118,6.14181 -12.07353,9.79143z"/><path d="M403.06496,202.41942c-4.41942,-4.41941 0,-8.83883 0,-8.83883l2,-2c1.42027,-1.30382 2.5752,-2.96883 3.28219,-4.76251c-0.08611,-7.57 4.98002,-13.02094 7.22552,-19.84644c1.41888,-4.31286 2.18543,-9.66218 1.70853,-14.208c-0.41652,-3.97033 -2.74471,-6.26949 -5.64315,-8.83736c-0.76879,-0.68111 -1.46177,-1.74838 -2.48637,-1.82003c-10.76788,-0.75296 -16.969,5.78679 -22.92012,14.04916c-2.3372,3.2449 -3.56741,7.33573 -6.4291,10.12892l-2.89982,4.83303c-1.07957,1.87233 -3.10174,3.13263 -5.41827,3.13263c-3.45178,0 -6.25,-2.79822 -6.25,-6.25c0,-1.04973 0.2588,-2.03902 0.71606,-2.90754l1.9052,-3.81042c1.68309,-3.70041 3.22275,-7.46953 5.05132,-11.10024c1.73523,-3.44538 4.29783,-6.49051 5.63229,-10.11003c0.88322,-2.39559 0.28131,-5.12941 0.89958,-7.60664c1.04237,-4.17647 2.75002,-8.15853 4.05863,-12.25938c1.58168,-4.95661 2.45569,-10.12011 4.02479,-15.08072c1.27931,-4.04449 2.71245,-8.04834 4.38527,-11.94658c0.3352,-0.78113 1.38405,-1.1662 1.59503,-1.9896c0.26477,-1.03332 -0.17879,-2.1259 -0.26817,-3.18885c0,0 0,-6.25 6.25,-6.25c6.25,0 6.25,6.25 6.25,6.25c-0.08939,2.27039 0.27671,4.60531 -0.26817,6.81115c-0.37381,1.51326 -1.79161,2.5774 -2.40497,4.0104c-1.40131,3.27388 -2.56311,6.65106 -3.61473,10.05342c-1.51979,4.91709 -2.40117,10.0193 -3.97521,14.91928c-0.99788,3.10639 -2.26079,6.13286 -3.2248,9.2473c1.51335,-0.83491 3.10991,-1.55111 4.80193,-2.12436c1.2923,-0.43783 2.72914,-0.0633 4.09033,-0.15763c3.56258,-0.24688 7.16502,-1.50586 10.67832,-0.86583c2.81961,0.51367 5.23271,2.4446 7.51363,4.17997c11.75723,8.94514 12.45466,23.91043 8.06538,36.95464c-2.12829,6.32493 -6.70486,11.24777 -6.77448,18.15356c-0.97316,2.41955 -1.58132,5.02021 -2.91947,7.25865c-0.94083,1.57382 -2.53222,2.65256 -3.79834,3.97884l-2,2c0,0 -4.41942,4.41941 -8.83883,0z"/><path d="M437.23438,191c0,-4.99695 3.99511,-5.99878 5.59706,-6.19964c-0.18999,-0.2491 -0.54463,-0.51893 -0.51636,-0.8015c0.10495,-1.04886 0.9035,-1.95033 1,-3c0.2136,-2.32331 -0.06622,-4.6658 -0.08071,-6.99886c-0.06415,-10.33227 0,-20.66766 0,-31c0,-5.80099 0.23994,-9.37228 -0.87863,-14.77427c0,0 -1.22573,-6.12863 4.9029,-7.35436c6.12863,-1.22572 7.35435,4.90291 7.35435,4.90291c2.29701,11.81161 1.12137,24.22964 1.12137,36.22572c0,8.04971 0.50408,16.17929 -1.08071,24.00114c-0.31962,1.57754 0.29046,3.43946 -0.57912,4.79395c-1.40878,2.19436 -3.89344,3.46994 -5.84017,5.20492l-4.75,1.25c0,0 -6.25,0 -6.25,-6.25zM442.9387,184.99804l-2.20432,1.00197c0.71994,-0.26503 1.6843,-0.19306 2.15983,-0.79509c0.05273,-0.06676 0.06266,-0.1358 0.04449,-0.20688z"/><path d="M441.23438,87c0,-3.45178 2.79822,-6.25 6.25,-6.25c3.45178,0 6.25,2.79822 6.25,6.25c0,3.45178 -2.79822,6.25 -6.25,6.25c-3.45178,0 -6.25,-2.79822 -6.25,-6.25z"/><path d="M98.48438,158.75c6.25,0 6.25,6.25 6.25,6.25l-0.44702,4.32119c-1.61728,4.03202 -3.13229,8.23506 -5.46617,11.93165c-4.51826,7.15637 -8.98428,11.64294 -14.22182,18.33874c-3.08231,3.94049 -4.87191,8.7554 -7.69419,12.88612c-2.30666,3.37606 -5.36208,6.21456 -7.54257,9.67345c-2.15534,3.419 -2.94607,7.64455 -5.39945,10.8564c-0.04891,0.06403 -0.09826,0.12767 -0.14803,0.1909l0.02857,0.01714l-2.94107,4.90177c-1.07957,1.87233 -3.10173,3.13263 -5.41826,3.13263c-2.8115,0 -5.18941,-1.8564 -5.97485,-4.4103l-0.95443,-2.86327l0.15622,-0.05208l-0.26758,-0.32018c-0.67559,-3.42906 -2.22296,-6.63828 -3.0113,-10.04318c-0.63007,-2.72135 -0.52237,-5.57241 -1.07184,-8.31117c-0.47735,-2.37929 -1.52504,-4.62023 -2,-7c-0.50966,-2.55364 -0.31228,-5.22866 -0.94477,-7.75469c-0.69175,-2.76271 -2.3095,-5.23697 -3,-8c-0.66086,-2.64443 -0.40359,-5.45897 -1.02663,-8.11257c-0.69418,-2.95656 -2.04693,-5.72209 -2.90558,-8.63513c-0.98872,-3.3543 -1.29388,-9.67262 -4.41867,-12.32801c0,0 -4.41942,-4.41941 0,-8.83883c4.41942,-4.41941 8.83883,0 8.83883,0c4.95628,5.27599 5.58167,10.85914 7.58133,17.67199c0.9259,3.15455 2.33994,6.16499 3.09442,9.36487c0.60793,2.57838 0.33064,5.3175 0.97337,7.88743c0.69099,2.7629 2.31023,5.23679 3,8c0.67108,2.68836 0.51076,5.52847 1.05523,8.24531c0.47684,2.37939 1.52558,4.62013 2,7c0.34522,1.73174 0.38176,3.51469 0.55553,5.27373c0.54288,-0.85116 1.09299,-1.69426 1.62281,-2.53574c2.26152,-3.59187 5.4032,-6.56196 7.79974,-10.06518c2.85402,-4.17197 4.69349,-9.01398 7.78317,-13.01457c4.46822,-5.78553 9.81131,-11.43848 13.77818,-17.66126c1.78496,-2.80004 3.29633,-6.96514 4.53383,-10.06835l-0.44702,0.32119c0,0 0,-6.25 6.25,-6.25z"/><path d="M93.55511,243.97643c-1.97643,-5.92927 3.95284,-7.9057 3.95284,-7.9057l3.97528,-1.24003c9.61986,-0.14962 20.15357,-1.19655 29.61859,-2.92587c0.13293,-0.02428 8.34194,-2.33875 8.40073,-3.71598c0.18852,-4.41662 -1.13026,-9.92491 -0.3316,-14.47754c-0.15321,-0.0096 -0.30257,-0.04262 -0.43252,-0.09683c-1.1092,-0.46274 -1.89081,-1.53726 -3,-2c-2.66333,-1.11111 -5.85332,-1.04905 -8.23048,-2.6852l-2.86327,-0.95443c-2.55391,-0.78544 -4.4103,-3.16335 -4.4103,-5.97484c0,-3.45178 2.79822,-6.25 6.25,-6.25h4c5.65599,0.00897 12.1421,1.4683 16.39313,-2.97366c3.21727,-3.36177 1.03702,-9.97928 -0.26179,-13.62661c-0.45699,-1.28331 -0.11012,-3.44931 -1.41717,-3.83316c-7.16857,-2.10528 -16.89013,-2.18885 -24.19833,-0.25318c0,0 -6.06339,1.51585 -7.57924,-4.54754c-1.51585,-6.06339 4.54754,-7.57924 4.54754,-7.57924c6.69177,-1.60497 14.10578,-1.62965 20.9589,-1.17088c2.81396,0.18837 9.8622,1.00271 12.84277,2.9177c4.2717,2.74453 4.80083,5.55417 6.58283,10.16684c4.20997,10.89743 3.67816,25.65831 -8.28787,31.39857c3.18206,5.67634 1.8166,14.80958 1.66922,20.75116c-0.03983,1.60571 0.29464,3.30677 -0.26818,4.81115c-4.50492,12.04142 -20.2255,12.62417 -30.61008,13.94102c-5.77813,0.73272 -11.5375,1.54566 -17.3706,1.41712l-2.02472,0.75997c0,0 -5.92927,1.97643 -7.9057,-3.95284z"/></g></g></svg>