<svg version="1.1" xmlns="http://www.w3.org/2000/svg" xmlns:xlink="http://www.w3.org/1999/xlink" width="447.4736" height="220.14903" viewBox="0,0,447.4736,220.14903"><g transform="translate(-17.51077,-49.37679)"><g data-paper-data="{&quot;isPaintingLayer&quot;:true}" fill-rule="nonzero" stroke="none" stroke-width="0.5" stroke-linecap="butt" stroke-linejoin="miter" stroke-miterlimit="10" stroke-dasharray="" stroke-dashoffset="0" style="mix-blend-mode: normal"><path d="M32.65908,68.74921c4.61363,-3.11418 11.05773,-6.55537 14.0041,-7.27218c3.8202,-0.92939 9.40735,-0.33439 13.38242,-0.33439c9.6653,0 20.35472,-1.14042 29.89894,0.33439c1.10603,0.17091 1.89286,1.35975 3.003,1.5015c3.02418,0.38616 6.09136,-0.33439 9.1401,-0.33439c6.50651,0 13.01301,0 19.51952,0c7.25086,0 14.83954,-0.59207 22.05203,0.04259c3.03271,0.26686 5.97402,1.26201 9.00901,1.5015c6.14376,0.4848 12.32566,-0.04259 18.48851,-0.04259c4.49602,0 9.02873,0.66944 13.48772,0.09366c4.46916,-0.57709 8.72534,-2.35526 13.19097,-2.95903c5.77229,-0.78043 21.86691,-2.00132 28.28443,-2.96401c2.43645,-0.36549 4.75557,-1.47564 7.21622,-1.59844c12.25984,-0.61185 26.38707,1.03719 39.03664,-0.04825c3.52612,-0.30257 6.98138,-1.23638 10.51051,-1.5015c13.64676,-1.0252 27.73348,-0.03145 41.42665,-0.03145c11.01101,0 22.02202,0 33.03303,0c6.93178,0 14.62041,0.58478 21.49152,0.04259c3.03499,-0.23949 5.97454,-1.25553 9.00901,-1.5015c12.43976,-1.00835 25.0993,0.90835 37.53754,0c13.55134,-0.98964 24.53325,-10.36461 36.69706,2.14553c2.58274,2.65628 2.35947,9.23605 2.35947,13.31488c0,14.01401 0,28.02803 0,42.04204c0,14.09089 0.97526,28.60536 -0.01552,42.66471c-0.64081,9.09325 -2.25239,18.09695 -3.01164,27.18107c-0.18759,2.24449 0.29437,4.53385 -0.0695,6.75658c-0.66677,4.07302 -2.28594,7.94755 -3.003,12.01201c-0.81165,4.60058 0.58667,9.693 0.06221,14.37384c-0.46862,4.18247 -1.00204,8.36487 -1.80444,12.49631c-0.24595,1.26635 -1.11644,2.36241 -1.32852,3.63487c-0.29465,1.76792 0.17833,3.6166 -0.17298,5.37414c-0.21936,1.09744 -1.21221,1.92188 -1.5015,3.003c-0.42678,1.59496 0.09914,3.42701 -0.61712,4.91463c-1.02271,2.12409 -2.93856,3.68722 -4.41097,5.52834c-1.68805,2.11075 -2.82255,4.8266 -5.07039,6.32726c-1.90615,1.27255 -4.51522,0.84867 -6.70273,1.53248c-1.06818,0.33391 -2.002,1.001 -3.003,1.5015c-1.001,0 -2.03189,-0.24278 -3.003,0c-1.08574,0.27143 -1.90558,1.28202 -3.003,1.5015c-1.47234,0.29447 -3.03216,-0.29447 -4.5045,0c-1.09742,0.21948 -1.91402,1.24339 -3.003,1.5015c-1.4123,0.33474 -2.91563,0.00404 -4.34762,0.24073c-8.94186,1.47798 -16.81721,5.29313 -26.02181,6.05707c-7.03113,0.58355 -14.12934,-0.5026 -21.16591,0.01114c-3.52968,0.2577 -6.98138,1.23638 -10.51051,1.5015c-6.67996,0.50182 -13.67163,0.03145 -20.40563,0.03145c-2.61234,0 -11.11569,0.03026 -12.51279,-0.16141c-1.85891,-0.25502 -3.53423,-1.30661 -5.37414,-1.67448c-3.47039,-0.69387 -7.0777,-0.64076 -10.51051,-1.5015c-4.88077,-1.22381 -9.55727,-3.15234 -14.3359,-4.7285c-2.84999,-0.85515 -5.64149,-1.93738 -8.54997,-2.56544c-0.90363,-0.19513 -1.84632,0.11241 -2.77074,0.12082c-7.00672,0.06374 -14.01401,0 -21.02102,0c-13.12632,0 -26.71398,0.85496 -39.81576,-0.02415c-7.14686,-0.47955 -14.13784,-2.41805 -21.27531,-3.02144c-13.80133,-1.16673 -28.76329,0.04259 -42.51254,0.04259c-25.52553,0 -51.05105,0 -76.57658,0c-13.90214,0 -28.19531,0.93684 -42.04204,0c-4.72333,-0.31957 -10.01344,0.55841 -14.07915,-1.86686c-8.72404,-5.20407 -7.42986,-14.62623 -7.42986,-22.64515c0,-7.50751 0,-15.01502 0,-22.52252c0,-2.54089 0.63311,-6.0419 0.16141,-8.50823c-0.29732,-1.55454 -1.22888,-2.94544 -1.5015,-4.5045c-0.2098,-1.1998 -0.16141,-8.10882 -0.16141,-9.50979c0,-7.25948 -0.17287,-13.9747 1.59516,-21.04681c0.13081,-6.7153 3.48937,-12.59915 4.47168,-19.22395c0.77976,-5.25878 -0.06083,-11.42518 -0.06083,-16.7863c0,-5.9452 0.74952,-12.4167 0.06083,-18.2878c-0.29732,-2.53468 -1.25721,-4.96716 -1.5015,-7.50751c-0.69474,-7.22465 -0.06083,-14.96839 -0.06083,-22.25274c0,0 0,-11.22631 10.639,-12.40094z" fill="#ff0000"/><path d="M153.89421,203.18034c-9.60839,-4.80419 -6.8306,-13.73712 -5.85954,-16.15408c0.17214,-5.30836 0.73999,-10.47676 0.97387,-15.80298c0.42733,-9.73172 -0.03074,-19.48219 -0.02415,-29.22328c0.00084,-1.24503 0.0245,-2.49074 0.05199,-3.73655c-3.22184,6.01254 -9.2921,17.81778 -10.07962,19.69989c-2.66684,6.37354 -3.01809,13.93619 -7.19893,19.43661c-0.23945,0.31503 -0.48848,0.6202 -0.74625,0.91637l0.19146,0.11488l-2.88213,4.80355c-2.15913,3.74467 -6.20347,6.26526 -10.83653,6.26526c-6.27418,0 -11.46871,-4.62253 -12.36371,-10.6477l-0.96622,-5.79731l0.1164,-0.0194l-0.15574,-0.2325c-0.50657,-4.05253 -1.83237,-15.45307 -2.73524,-18.68365c-0.45649,-1.6334 -1.00368,-3.23791 -1.59067,-4.8298c-0.54433,1.0818 -1.23578,2.10668 -1.65514,3.2419c-3.09087,8.36697 -3.48212,17.50486 -5.43184,26.10935c-1.28082,5.65252 -2.63362,11.31008 -4.52852,16.78739c-1.58536,4.58257 -4.29247,8.70789 -6.08337,13.21411c0,0 -4.64238,11.60596 -16.24834,6.96358c-11.60596,-4.64238 -6.96358,-16.24834 -6.96358,-16.24834c1.75208,-4.35708 4.36466,-8.35359 5.91663,-12.78589c3.73327,-10.66191 3.37702,-14.28679 5.4188,-24.95588c0.95313,-4.98046 2.85984,-13.23708 4.62084,-18.14737c0.42436,-1.18326 1.39381,-2.13221 1.7624,-3.33401c1.66055,-5.41431 1.37572,-11.28801 2.91775,-16.73726c0.85197,-3.0107 2.32982,-5.81046 3.62981,-8.65654c2.61976,-5.73542 7.98575,-17.51 16.33972,-16.24065c6.77037,1.02873 11.83607,7.71588 15.46627,13.52258c3.35876,5.37251 2.72671,12.38632 4.52883,18.46065c0.62362,2.10201 1.37402,4.16362 2.15479,6.21536c3.43027,-6.63392 7.30486,-13.87062 8.42416,-15.59422c2.23953,-3.44862 5.5497,-6.12443 7.74647,-9.60044c1.87562,-2.96784 2.48014,-6.62541 4.37558,-9.58064c1.42917,-2.22826 3.64337,-3.84142 5.46506,-5.76213l2,-2c2.26206,-2.26206 5.38706,-3.66117 8.83883,-3.66117c6.36636,0 11.62111,4.75935 12.40036,10.91416l0.97401,6.81807l-0.03478,0.00497c0.02053,0.06274 0.04082,0.12558 0.06088,0.18853c2.58873,8.12173 2.09377,24.637 2.09953,33.57427c0.00077,1.18946 0.00685,30.05692 -0.02415,30.77672c-0.25076,5.82168 -0.97585,11.36624 -0.97585,17.22328l-2.31966,7.59017c0,0 -5.59017,11.18034 -16.77051,5.59017z" fill="#ffffff"/><path d="M263.48438,89.5c12.5,0 12.5,12.5 12.5,12.5l-0.12082,4.73377c-0.90983,3.26592 -1.52803,6.62751 -2.72949,9.79777c-2.01774,5.32414 -4.9761,10.26939 -6.86634,15.64012c-1.54324,4.3848 -2.49968,9.00283 -4.49663,13.20049c-1.95301,4.1053 -5.08404,7.55303 -7.27216,11.53798c-1.65678,3.01727 -2.56634,6.40758 -4.23492,9.41835c-1.10074,1.98616 -2.68607,3.66208 -4.02911,5.49312c-2.48684,2.84464 -4.65755,6.00021 -7.46052,8.53393c-9.76926,8.83083 -25.12556,13.39192 -36.59888,4.785c-2.93301,-2.20025 -5.66426,-4.84857 -7.56862,-7.98179c-4.60247,-7.57239 -3.21445,-21.01791 -1.2539,-29.17188c0.41312,-1.71819 1.52076,-3.24304 1.79281,-4.98913c0.28563,-1.83326 -0.24381,-3.71122 -0.14857,-5.56415c0.35006,-6.81014 0.9139,-13.61483 0.98716,-20.43357c0.03712,-3.45523 -0.46657,-6.97843 0.22555,-10.36384c1.63871,-8.01563 3.03236,-8.62975 7.43562,-13.47499c0,0 8.83883,-8.83883 17.67767,0c8.83883,8.83883 0,17.67767 0,17.67767c-2.0456,0.21456 -0.36583,4.10452 -0.33883,6.16117c0.04623,3.52184 0.15239,7.04816 -0.01284,10.56643c-0.17272,3.67773 -0.7828,7.32463 -1,11c-0.16591,2.80749 0.27544,5.65561 -0.14857,8.43585c-0.57285,3.75619 -2.58174,7.24093 -2.88118,11.02873c-0.05804,0.73411 0.10506,4.51611 0.03512,6.46629c0.44094,-0.01167 0.88507,-0.06617 1.23339,-0.30867c3.19983,-2.22771 6.03258,-5.01078 8.52356,-8.01022c2.57198,-3.27144 3.72772,-7.44375 5.73597,-11.08853c2.00089,-3.63143 4.92999,-6.7259 6.72784,-10.46202c3.00329,-6.24116 4.06035,-13.27549 6.82874,-19.62433c1.70392,-3.90766 3.84507,-7.65672 5.0788,-11.73729l-0.12082,-1.26623c0,0 0,-12.5 12.5,-12.5z" fill="#ffffff"/><path d="M260.98438,200c0,-12.5 12.5,-12.5 12.5,-12.5c3,0 7,0 10,0c2.21333,0 4.55006,-0.51407 6.63616,0.22555c8.22423,-3.44559 11.39162,-5.8447 18.8288,-6.41695c0.04527,-0.19793 0.06751,-0.39009 -0.01345,-0.52506c-0.81612,-1.36055 -1.90248,-2.54798 -2.98926,-3.70386c-2.34788,-2.49718 -4.87147,-4.82313 -7.30108,-7.24085c-1.25554,-1.24939 -9.38187,-9.3183 -10.30169,-10.52996c-1.0789,-1.4212 -1.56856,-3.21082 -2.49261,-4.73724c-1.23928,-2.04714 -3.28067,-3.68317 -3.98867,-5.96906c-1.68192,-5.43035 -2.30709,-16.17057 -1.85907,-22.29384c0.297,-4.05925 0.29713,-8.24348 1.57243,-12.10862c1.40644,-4.26259 3.93525,-8.09011 6.34222,-11.87882c5.65894,-8.90752 8.19132,-12.33126 18.69431,-15.48692c5.03815,-1.51373 9.1979,-0.05507 13.90361,1.03883c0,0 12.12678,3.0317 9.09509,15.15848c-3.0317,12.12678 -15.15848,9.09509 -15.15848,9.09509c-0.83187,-0.24015 -1.70854,-0.35958 -2.4956,-0.72044c-0.14125,-0.06476 0.54904,-0.28189 0.3992,-0.24073c-1.94997,0.53567 -2.33098,2.89743 -3.30569,4.51308c-1.22784,2.03524 -2.89246,3.87083 -3.65778,6.12118c-0.57213,1.68228 -0.4445,11.10261 -0.42757,12.50887c0.02043,1.69675 -0.35009,3.46439 0.14093,5.08867c0.2757,0.91202 1.4839,1.23746 2.01133,2.03094c0.6632,0.99774 0.79873,2.29678 1.50739,3.26276c2.11503,2.883 5.17552,4.93616 7.69831,7.47004c8.04208,8.07744 18.5488,16.87263 17.66032,29.69352c-0.35469,5.11828 -0.24446,11.16325 -3.72284,14.93465c-3.39655,3.68268 -30.43994,13.56624 -35.41247,15.48512c-6.78868,0.28546 -13.5702,0.22555 -20.36384,0.22555h-1c0,0 -12.5,0 -12.5,-12.5z" fill="#ffffff"/><path d="M367.48438,184.5c-12.5,0 -12.5,-12.5 -12.5,-12.5v-1c0.02199,-4.24398 0.80381,-8.45268 1.01913,-12.69125c0.981,-19.31122 -0.90353,-38.76663 0.00503,-58.08546c0.16082,-3.41947 1.01303,-6.80023 0.97585,-10.22328c0,0 0,-12.5 12.5,-12.5c12.5,0 12.5,12.5 12.5,12.5c-0.0252,3.94031 -0.83424,7.84091 -1.02415,11.77672c-0.92926,19.25777 0.95367,38.65433 0.00503,57.91454c-0.18614,3.77915 -1.01222,7.52514 -0.98087,11.30875v1c0,0 0,12.5 -12.5,12.5z" fill="#ffffff"/><path d="M435.885,183.93375c-6.93375,10.40063 -17.33438,3.46688 -17.33438,3.46688l-4.90508,-3.56179c-3.19135,-4.39493 -7.30001,-9.32837 -10.14144,-13.86527c-0.5595,-0.89335 -0.44047,-2.10667 -1,-3c-0.89353,-1.4266 -2.33026,-2.44952 -3.28262,-3.83754c-1.51509,-2.20818 -2.72901,-4.60855 -4.09351,-6.91282c-1.23402,-3.56066 -3.4097,-6.75987 -4.53087,-10.35766c-1.62329,-5.20909 -2.20055,-13.58035 -1.45131,-18.86783c0.97248,-6.86291 2.43961,-6.33476 5.70546,-11.56936c0.94449,-1.51386 1.41371,-3.31604 2.49261,-4.73724c1.54405,-2.03392 3.52067,-3.69996 5.30169,-5.52996c10.45135,-10.73872 22.6534,-22.36444 37.83656,-25.49976c3.5103,-0.72488 8.3072,-0.16141 12.00228,-0.16141c0,0 12.5,0 12.5,12.5c0,12.5 -12.5,12.5 -12.5,12.5c-2.41401,0 -5.64797,-0.58268 -7.99772,-0.16141c-5.29134,0.94866 -9.90801,5.62006 -13.66576,8.97551c-4.15232,3.70777 -9.84953,7.4332 -13.19599,11.99478c-1.41977,1.9353 -2.21575,4.32713 -3.76172,6.14963c0.11206,1.78261 -0.08009,5.10556 0.50848,6.67594c0.98183,2.61967 2.62725,4.9744 3.46913,7.64234c1.99258,3.22659 4.61628,6.03236 6.62387,9.24964c0.55802,0.89427 0.44252,2.10539 1,3c1.852,2.97198 4.51354,4.77403 5.85856,8.13473l1.09492,0.43821c0,0 10.40063,6.93375 3.46688,17.33438z" fill="#ffffff"/></g></g></svg>