<svg version="1.1" xmlns="http://www.w3.org/2000/svg" xmlns:xlink="http://www.w3.org/1999/xlink" width="203" height="225" viewBox="0,0,203,225"><g transform="translate(-107.48438,-51)"><g data-paper-data="{&quot;isPaintingLayer&quot;:true}" fill-rule="nonzero" stroke-linecap="butt" stroke-linejoin="miter" stroke-miterlimit="10" stroke-dasharray="" stroke-dashoffset="0" style="mix-blend-mode: normal"><path d="M309.48438,163.5c0,61.57975 -44.99538,111.5 -100.5,111.5c-55.50461,0 -100.5,-49.92025 -100.5,-111.5c0,-61.57975 44.99539,-111.5 100.5,-111.5c55.50462,0 100.5,49.92025 100.5,111.5z" fill="#00b5ff" stroke="#000000" stroke-width="2"/><path d="M209.48439,125c0,18.2254 -13.87917,33 -31,33c-17.12083,0 -31,-14.7746 -31,-33c0,-18.2254 13.87917,-33 31,-33c17.12083,0 31,14.7746 31,33z" fill="#ffffff" stroke="#000000" stroke-width="2"/><path d="M279.48438,127c0,18.77768 -14.10303,34 -31.5,34c-17.39697,0 -31.5,-15.22232 -31.5,-34c0,-18.77768 14.10303,-34 31.5,-34c17.39697,0 31.5,15.22232 31.5,34z" fill="#ffffff" stroke="#000000" stroke-width="2"/><path d="M182.48439,119c0,6.62742 -2.01472,12 -4.5,12c-2.48528,0 -4.5,-5.37258 -4.5,-12c0,-6.62742 2.01472,-12 4.5,-12c2.48528,0 4.5,5.37258 4.5,12z" fill="#000000" stroke="#000000" stroke-width="2"/><path d="M252.48439,120.5c0,5.79899 -2.01472,10.5 -4.5,10.5c-2.48528,0 -4.5,-4.70101 -4.5,-10.5c0,-5.79899 2.01472,-10.5 4.5,-10.5c2.48528,0 4.5,4.70101 4.5,10.5z" fill="#000000" stroke="#000000" stroke-width="2"/><path d="M271.56451,224.38675c-1.38675,2.08013 -3.46688,0.69338 -3.46688,0.69338l-3.19822,-2.14677c-0.7666,-0.80089 -1.93828,-2.5509 -3.41503,-2.43336c-0.92169,0.07336 -1.68472,0.83357 -2.59954,0.96772c-1.31923,0.19344 -2.68007,-0.18856 -4,0c-1.0435,0.14907 -1.95602,0.85438 -3,1c-3.10346,0.4329 -6.26695,0.03228 -9.40046,0.03228c-0.27497,0 -7.29402,0.03839 -7.72446,-0.10727c-5.63832,-1.90793 -7.74121,-8.38867 -12.50729,-11.21723c-0.93574,-0.55534 -3.52788,-0.73907 -4.81154,-0.8658c-4.57782,4.95159 -12.94531,3.67908 -18.8108,6.21429c-1.61266,0.69703 -2.73562,2.37425 -4.42145,2.86874c-1.83133,0.53717 -3.81612,0.08381 -5.72446,0.10727c-1.10959,0.01364 -6.5936,0.05154 -7.17964,-0.29581c-1.60571,-0.95173 -4.39996,-6.42836 -5.05642,-8.08615c-0.35175,-0.88829 0.1489,-2.29189 -0.66804,-2.78724c-0.62046,-0.37622 -1.10555,0.94622 -1.71257,1.34375c-1.36494,0.8939 -2.76886,1.72931 -4.19369,2.52427c-4.7807,2.66732 -10.30713,4.88845 -15.58328,6.22654c0,0 -2.42536,0.60634 -3.0317,-1.81902c-0.60634,-2.42536 1.81902,-3.0317 1.81902,-3.0317c4.8625,-1.19562 10.02695,-3.31355 14.41672,-5.77346c1.48454,-0.8319 2.80635,-1.97599 4.38123,-2.62068c1.82286,-0.7462 3.88958,-2.25733 5.7125,-1.51129c1.13251,0.46348 4.48719,7.52704 5.25816,9.07597c0.34001,0.6831 0.36839,1.64931 1.01737,2.05063c0.52285,0.32332 1.20676,-0.25816 1.82036,-0.29581c2.42089,-0.14856 4.96183,0.83496 7.27554,0.10727c1.50413,-0.47306 2.44839,-2.06039 3.89905,-2.67827c6.14123,-2.61569 13.83304,-1.51479 18.8687,-6.2387c3.38186,-0.13613 5.96754,-0.65985 9.18846,1.1342c4.21116,2.34562 6.77535,9.25126 11.49271,10.78277c1.98991,0.64603 4.18339,-0.10727 6.27554,-0.10727c2.86653,0 5.76334,0.44817 8.59954,0.03228c1.04294,-0.15293 1.9565,-0.85093 3,-1c1.31993,-0.18856 2.67945,0.1842 4,0c1.1732,-0.16365 2.21705,-1.0846 3.40046,-1.03228c3.73578,0.16517 4.33138,1.38985 6.58497,3.56664l2.80178,1.85323c0,0 2.08013,1.38675 0.69338,3.46688z" fill="#000000" stroke="none" stroke-width="0.5"/></g></g></svg>