<svg version="1.1" xmlns="http://www.w3.org/2000/svg" xmlns:xlink="http://www.w3.org/1999/xlink" width="355.12094" height="351.91277" viewBox="0,0,355.12094,351.91277"><g transform="translate(-55.9844,-2.50001)"><g data-paper-data="{&quot;isPaintingLayer&quot;:true}" fill="#00ff72" fill-rule="nonzero" stroke="none" stroke-width="0.5" stroke-linecap="butt" stroke-linejoin="miter" stroke-miterlimit="10" stroke-dasharray="" stroke-dashoffset="0" style="mix-blend-mode: normal"><path d="M75.68716,6.05279c1.20673,-0.60355 2.53501,0.11497 3.79723,0.11497c7.63604,0 15.63541,-1.23032 23.23172,0.11156c7.91178,1.39762 15.69181,5.45648 23.44983,7.75766c6.73776,1.99855 14.26715,4.20508 21.09518,5.01226c2.47988,0.29316 4.98709,-0.46687 7.455,0.06727c10.32129,2.23393 20.3199,7.86731 30.75625,9.12957c29.16808,3.52788 58.5816,1.74419 87.78875,1.80647c27.23732,6.11668 54.82568,3.62348 82.22328,3.62348c8,0 16,0 24,0c9.82087,0 19.70689,-3.2989 27.44317,11.57177c4.35706,8.37511 3.99831,17.8831 4.05683,27.85674c0.11831,20.16767 0,40.34927 0,60.51818c0,41.19915 0.27668,82.43796 -0.00693,123.6331c-0.15974,23.20278 -1.87017,46.36127 -2.21862,69.592c-2.86127,8.41489 -4.1728,19.50813 -8.5838,25.24466c-3.72389,4.84294 -9.12571,0.58686 -13.69065,0.6794c-13.99622,0.28372 -28.00306,0.01155 -42,0c-8.49989,-0.00701 -16.98783,-1.17378 -25.47971,-1.85077c-12.66717,-1.00987 -25.43289,-0.61347 -38.08672,-1.84054c-3.91562,-0.37971 -42.29491,-7.20759 -45.85503,-7.83364c-27.98369,-4.92095 -55.81414,-9.39138 -83.87078,-12.44599c-8.60361,-1.89934 -17.25744,-3.14744 -25.81082,-5.69799c-5.82194,-1.73605 -11.39963,-5.93373 -17.2609,-7.14564c-5.51049,-1.13939 -11.09065,0.11288 -16.63604,0.13688c-3.43992,0.01489 -21.97424,1.8613 -26.30888,-4.32701c-7.83646,-11.18765 -5.63369,-21.55819 -6.16696,-35.51097c-0.43827,-11.46704 -1.0172,-22.93918 -1.02416,-34.43433c-0.02866,-47.38674 0.8644,-95.09649 0.00432,-142.44034c-0.44982,-24.76068 -1.989,-49.20359 -2.00432,-73.95798c0,0 0,-22.92355 12.5,-22.92355c3.11092,0 5.44761,1.41985 7.20277,3.5528z"/></g></g></svg>