<svg version="1.1" xmlns="http://www.w3.org/2000/svg" xmlns:xlink="http://www.w3.org/1999/xlink" width="431.57052" height="174.35457" viewBox="0,0,431.57052,174.35457"><g transform="translate(-0.84917,-22.22331)"><g data-paper-data="{&quot;isPaintingLayer&quot;:true}" fill="#ff0000" fill-rule="nonzero" stroke="none" stroke-width="0.5" stroke-linecap="butt" stroke-linejoin="miter" stroke-miterlimit="10" stroke-dasharray="" stroke-dashoffset="0" style="mix-blend-mode: normal"><path d="M78.98438,105c0,12.5 -12.5,12.5 -12.5,12.5h-3c-3.03388,0 -15.89227,0.05664 -17.51333,-0.25528c-2.98958,-0.57524 -5.59621,-2.41497 -8.47727,-3.39883c-3.3414,-1.14105 -7.03088,-1.34837 -10.16814,-2.9684c-2.36144,-1.21941 -3.84586,-3.6792 -5.92095,-5.33975c-3.73681,-2.99031 -7.60788,-5.83291 -11.11033,-9.09458c-2.03071,-1.8911 -4.76493,-3.16822 -6.22352,-5.52884c-3.49517,-5.65666 -3.4268,-12.66688 -3.04386,-18.94534c0.84246,-13.81258 5.55815,-31.36495 16.59894,-40.68982c7.95981,-6.72273 18.31775,-5.78887 27.86075,-5.61777c9.65456,3.01159 19.82995,5.25009 27.24607,12.9292c7.26883,7.5266 6.74625,21.5887 1.82389,30.21073c-2.57968,4.51859 -4.09231,5.86607 -7.2334,9.0375c-1.67804,1.69425 -5.17439,5.23679 -6.6801,6.03866c-6.73174,3.58502 -14.75277,3.74994 -22.2846,3.66982c0.34692,0.6312 0.66358,1.28536 1.2846,1.57518c1.78892,0.83485 3.95161,0.43004 5.83186,1.0316c1.93811,0.62007 3.53253,2.1771 5.52273,2.60117c1.79067,0.38156 3.65619,-0.21786 5.48667,-0.25528c2.33284,-0.0477 4.66667,0 7,0h3c0,0 12.5,0 12.5,12.5zM28.2976,62.09834c0.09137,0.02704 0.13962,0.04313 0.13962,0.04313c2.73971,1.35741 11.70078,0.33755 14.04716,0.35854c1.66916,0.01492 3.31517,-0.39556 4.96831,-0.62678c0.12351,-0.01727 0.26487,-0.02068 0.40018,-0.00111c1.30443,-1.71247 3.46707,-2.76918 4.55927,-4.67345c0.13974,-0.24363 0.42476,-1.33733 0.63813,-2.20511c-0.98158,-0.49694 -1.86922,-1.26782 -2.89211,-1.68509c-2.83032,-1.15458 -5.81426,-1.8957 -8.67606,-2.96987c-1.66591,0.0538 -3.33103,0.14396 -4.99772,0.16141c-0.48791,0.00511 -2.71951,-0.24923 -3.14153,0.22082c-2.79572,3.11389 -3.63981,7.61268 -5.04525,11.37751z"/><path d="M181.32321,109.83884c-7.48195,7.48195 -14.96391,2.29717 -17.08474,0.52897c-5.94243,-2.86369 -12.09332,-5.31038 -17.88154,-8.47266c-2.27248,-1.24152 -4.64188,-2.58784 -6.24352,-4.62262c-0.16944,-0.21527 -0.33452,-0.43183 -0.49527,-0.64965c-0.90467,0.86704 -1.83361,1.70709 -2.80313,2.50194c-2.60367,2.13457 -5.72039,3.55293 -8.55052,5.37662c-10.44885,6.73308 -20.96246,13.58498 -33.7801,13.99856h-1c0,0 -12.5,0 -12.5,-12.5c0,-12.5 12.5,-12.5 12.5,-12.5h1c1.54953,0.25068 3.10393,-0.59215 4.55774,-1.18402c5.91491,-2.40807 10.29612,-5.37681 15.66215,-8.81742c2.12528,-1.36269 4.24243,-3.06834 6.56164,-4.04557c-0.1193,-0.13124 -0.24426,-0.25721 -0.37631,-0.37664c-1.83857,-1.66283 -4.16264,-2.70531 -6.11295,-4.23555c-6.38747,-5.01169 -7.80375,-6.6829 -13.13112,-12.00196c-1.68292,-1.6803 -6.42352,-6.26181 -7.1821,-7.94061c-1.72222,-3.81144 -2.81152,-9.41345 -2.47907,-13.89822c0.19323,-2.60668 -0.31703,-5.49817 0.9515,-7.78354c9.08643,-16.37004 29.74945,-9.567 44.5485,-9.71646c0,0 12.5,0 12.5,12.5c0,12.5 -12.5,12.5 -12.5,12.5c-5.33211,-0.03432 -10.46053,-0.87006 -15.76623,-0.98658c0.72679,0.80074 1.46745,1.5866 2.25935,2.31505c4.40193,4.04924 9.68367,7.06345 14.10164,11.09518c0.85299,0.77842 1.60192,1.65674 2.31436,2.56929c0.74923,-1.18201 1.55999,-2.32433 2.4241,-3.41781c9.24003,-11.69262 23.29567,-16.44879 36.33195,-22.37955c2.59008,-1.17834 4.97721,-2.87498 7.71252,-3.65924c3.26007,-0.93471 6.71457,-0.95988 10.07187,-1.43982c0,0 12.40347,-1.55044 13.95391,10.85304c1.55043,12.40348 -10.85304,13.95391 -10.85304,13.95391c-1.97604,0.18673 -4.01878,0.01797 -5.92813,0.56018c-1.56635,0.44479 -2.8096,1.65727 -4.28748,2.34076c-11.81279,5.46318 -15.70032,5.65892 -24.40996,12.36237c-0.79282,0.6102 -4.70337,4.54933 -5.30075,5.92995c-0.27773,0.64186 -0.12366,1.3834 -0.14162,2.09141c6.9452,3.0091 10.96873,5.06394 17.10767,8.13152l4.24866,3.3415c0,0 8.83883,8.83884 0,17.67767z"/><path d="M304.91222,122.91314c-1.49696,3.22973 -3.1988,6.75069 -5.3448,10.86753c-4.0038,7.68078 -9.2858,20.25507 -19.21114,23.38494c-3.15082,0.99359 -6.54984,-0.87138 -9.82476,-1.30707c0,0 -3.74484,-1.24828 -6.32418,-4.44631c-4.37222,0.73857 -8.31314,-1.23189 -8.31314,-1.23189l-5.24866,-3.34151c-4.88217,-4.96918 -8.47946,-7.89011 -11.12482,-15.21653c-0.97797,-2.70851 -0.43914,-5.74428 -0.53635,-8.6223c-0.09717,-2.87715 -0.0558,-6.60128 0.20777,-10.14862c-1.59907,1.25839 -3.27885,2.42626 -4.73196,3.84832c-1.70771,1.67122 -2.67812,4.1165 -4.66694,5.44082c-5.91334,3.93761 -8.85148,3.20835 -15.19499,3.32803l-7.88165,-1.09418c0,0 -12.37437,-1.76776 -10.60661,-14.14213c0.4923,-3.44609 1.80719,-5.79539 3.44833,-7.39153c-0.4643,-1.68672 -0.8375,-3.40931 -1.26795,-5.0918c-2.13912,-8.36101 -2.71761,-19.18591 3.27253,-26.35249c5.82532,-6.9694 9.88024,-8.89216 16.96862,-11.25495c5.5439,-1.84797 11.73856,-3.78329 17.52448,0.2254c4.17484,2.89247 6.20216,8.14927 8.31564,12.76759c1.24463,2.71974 1.24754,5.861 1.57013,8.83455c0.2652,2.44455 0.45947,5.21052 0.48764,8.05971c2.13064,-5.12502 4.09569,-9.82116 4.48244,-10.75387c1.59775,-3.85325 2.80552,-7.88983 4.77243,-11.56836c1.16269,-2.17445 3.10996,-3.83174 4.53717,-5.84251c1.4932,-2.10372 2.48118,-4.58093 4.2163,-6.49003c1.4248,-1.56766 3.40857,-2.51638 5.11286,-3.77457c0,0 10.40063,-6.93375 17.33438,3.46688c6.93375,10.40063 -3.46688,17.33438 -3.46688,17.33438c-1.48352,0.37698 -1.80646,2.47215 -2.67085,3.7354c-1.0185,1.48847 -2.61643,2.56485 -3.46283,4.15749c-1.41228,2.65746 -2.10334,5.64009 -3.22757,8.43164c-3.81333,9.46878 -9.56633,18.62064 -10.09163,28.96609c-0.08974,1.76731 0.15561,3.54442 0.01913,5.30875c-0.038,0.49134 -0.71117,0.91694 -0.53635,1.3777c0.80764,2.1286 3.24336,3.1959 4.87519,4.78347l-1.24867,-1.34151c0,0 2.50661,1.2533 4.55266,3.75991c1.59281,-3.24839 4.12371,-6.11258 5.77413,-9.36023c2.69507,-5.30329 5.22471,-10.67849 7.7486,-16.04783c-1.46105,-3.26347 -3.37681,-10.38714 4.4007,-15.57214c1.42919,-0.95279 2.79291,-1.57826 4.08217,-1.94839c4.37468,-8.51833 9.19257,-16.79808 15.13075,-24.50945c7.12836,-9.25693 22.41494,-19.14968 33.55966,-7.98037c3.65659,3.66466 4.0721,9.55304 5.44863,14.54359c1.39219,5.04731 1.85313,19.24338 0.57107,23.24809c-1.28552,4.01555 -4.92076,6.8571 -7.12406,10.45191c-3.38448,5.52198 -4.02417,13.62788 -9.62652,16.8776c-11.65139,6.75854 -19.2993,5.61035 -26.68011,1.63078zM315.29979,100.78022c0.82369,0.36549 1.6405,0.535 2.07663,-0.06257c1.36165,-1.86569 1.25178,-4.39582 1.65097,-6.72432c-0.23205,0.4008 -0.46175,0.80295 -0.68892,1.20656c-1.11864,1.98745 -2.12216,3.83563 -3.03868,5.58032zM324.78506,84.85401c-0.91082,1.35665 -1.80881,2.72187 -2.68652,4.09948c1.00418,-0.86644 2.01518,-1.72562 2.52729,-2.90633c0.16607,-0.38288 0.19973,-0.78308 0.15923,-1.19315z"/><path d="M426.66472,189.59017c-5.59017,11.18034 -16.77051,5.59017 -16.77051,5.59017l-0.36268,-0.3218c-3.9248,-1.94457 -8.87964,0.52696 -13.1295,-0.53321c-9.58353,-2.39072 -19.70977,-4.45139 -27.90693,-9.96194c-17.9628,-12.07551 -19.77735,-21.06781 -21.47927,-39.47728c-0.42618,-4.61001 -0.63256,-9.32196 0.12996,-13.8884c0.15728,-0.94186 0.36651,-1.8711 0.61271,-2.79136c-0.19646,-3.27479 1.10456,-5.84322 2.64761,-7.70527c0.45448,-1.2187 0.8986,-2.43992 1.29493,-3.67275c3.76496,-9.80576 8.51866,-19.60669 16.32758,-27.03431c2.32498,-2.21146 5.64145,-3.12366 8.14482,-5.13095c2.54234,-2.03853 3.94865,-5.53948 6.89609,-6.92937c3.16197,-1.49104 6.92494,-1.02938 10.41486,-1.23371c9.13511,-0.53486 20.52235,3.30781 27.49312,9.32847c2.14425,1.85199 3.22663,4.65929 4.76978,7.03549c6.10564,9.4017 10.12573,11.53537 2.48762,23.95762c-1.85764,3.02116 -5.72494,4.28905 -8.96698,5.72691c-15.15154,6.71979 -32.36906,7.95612 -47.63788,14.1098c-0.1193,2.1364 0.19978,4.31265 0.32289,6.45559c0.57097,9.93886 -0.11489,14.04299 10.52073,20.52272c5.42966,3.30801 11.85943,4.78672 18.09307,6.03806c3.8956,0.782 7.96155,-0.35742 11.91993,-0.01326c1.71589,0.14918 3.30038,0.98671 4.95057,1.48005l3.63732,1.6782c0,0 11.18034,5.59017 5.59017,16.77051zM388.10162,106.1541c1.05262,-0.27858 2.10564,-0.56179 3.15847,-0.85223c2.78785,-0.76906 5.51778,-1.74366 8.24886,-2.7109c-1.06137,-0.50392 -2.11945,-1.01377 -3.25488,-1.29154c-0.8628,-0.21107 -1.83957,0.51009 -2.6661,0.2401c-0.13576,0.68651 -0.2946,1.35603 -0.79265,1.7974c-1.36363,1.20847 -3.06065,1.97029 -4.69371,2.81717z"/></g></g></svg>