<svg version="1.1" xmlns="http://www.w3.org/2000/svg" xmlns:xlink="http://www.w3.org/1999/xlink" width="446.44078" height="205.78737" viewBox="0,0,446.44078,205.78737"><g transform="translate(-33.25098,-70.79771)"><g data-paper-data="{&quot;isPaintingLayer&quot;:true}" fill-rule="nonzero" stroke="none" stroke-width="0.5" stroke-linecap="butt" stroke-linejoin="miter" stroke-miterlimit="10" stroke-dasharray="" stroke-dashoffset="0" style="mix-blend-mode: normal"><path d="M35.27566,90.55501c-1.05707,-1.71943 -1.74807,-3.96739 -1.74807,-6.90635c0,-12.5 12.5,-12.5 12.5,-12.5c2.5025,0 12.51251,0 15.01502,0c23.52352,0 47.04705,0 70.57057,0c12.51215,0 25.68973,-0.80225 38.22879,0.01913c4.52253,0.29625 8.99329,1.1719 13.51351,1.5015c7.25782,0.52921 14.55418,-0.01913 21.83127,-0.01913c10.51051,0 21.02102,0 31.53153,0c1.10718,0 21.32234,-0.00967 21.90713,0.03145c3.6685,0.25792 7.26268,1.20291 10.92495,1.5379c7.19857,0.65844 14.41548,1.14248 21.63795,1.44058c4.70552,0.19422 9.44,-0.40842 14.12855,0.03567c6.24941,0.59192 12.35753,2.24507 18.58146,3.06252c5.14011,0.6751 10.32567,0.94149 15.4885,1.41223c4.31569,-0.00428 8.63142,-0.02991 12.94708,-0.01284c2.49408,0.00987 5.02435,0.52014 7.48172,0.09366c5.94295,-1.03141 11.585,-3.49631 17.54303,-4.43675c16.39653,-2.5881 33.51805,-1.66291 50.05033,-1.66291c6.00601,0 12.01776,-0.26267 18.01802,0c0.55496,0.02429 1.09391,0.47001 1.63259,0.33439c1.08528,-0.27324 1.88974,-1.6162 3.003,-1.5015c5.00191,0.51532 10.83595,0.12563 14.71375,3.32678c4.63049,3.8225 3.66117,15.18207 3.66117,20.85085c0,8.2271 0.6278,16.86998 -0.04259,25.05503c-0.64767,7.90767 -2.44793,15.69912 -2.97593,23.61569c-0.31926,4.78682 0.01552,9.59489 0.01552,14.39234c0,7.50751 0,15.01502 0,22.52252c0,3.66036 -0.4224,7.3404 -0.04259,10.98101c0.3159,3.02799 1.20684,5.97888 1.5015,9.00901c0.15516,1.59557 -0.5577,3.25423 -0.15799,4.8067c0.90025,3.49654 2.75749,6.67641 3.98843,10.07066c2.35907,6.50498 3.91496,13.30907 5.05108,20.13469c0.5563,3.34214 1.28678,6.66219 1.62899,10.03299c0.18551,1.82726 -0.28058,3.68747 -0.05106,5.50972c0.94309,7.48761 5.7819,10.70169 -2.06601,19.37513c-2.77206,3.06366 -7.79449,2.83092 -11.84184,3.66117c-1.96117,0.4023 -4.004,0 -6.00601,0c-6.50651,0 -13.01301,0 -19.51952,0c-5.7668,0 -12.01806,0.61514 -17.74824,-0.06083c-2.53449,-0.29899 -4.96927,-1.2362 -7.50751,-1.5015c-8.55187,-0.89387 -17.19685,0.06083 -25.79531,0.06083c-6.91711,0 -13.86589,0.60128 -20.75124,-0.06083c-2.54034,-0.24429 -4.96424,-1.28978 -7.50751,-1.5015c-3.42476,-0.28511 -6.89252,0.38217 -10.3098,0.01824c-6.46317,-0.6883 -12.84503,-2.00592 -19.24052,-3.16522c-4.68443,-0.84914 -9.25024,-2.44789 -13.99322,-2.85903c-9.5636,-0.82899 -19.19885,0.06083 -28.79831,0.06083c-23.52352,0 -47.04705,0 -70.57057,0c-13.66062,0 -27.61686,0.94218 -41.2318,-0.01913c-3.53684,-0.24973 -22.41368,-2.50744 -26.63736,-3.1146c-2.75742,-0.39639 -5.45482,-1.27067 -8.23693,-1.41336c-18.03158,-0.92486 -36.46379,0.04259 -54.52455,0.04259c-9.00901,0 -18.06872,0.95441 -27.02703,0c-6.52728,-0.69541 -14.21008,0.42258 -19.34935,-3.66117c-3.91803,-3.11334 -3.19004,-9.58752 -3.60033,-14.57506c-0.19642,-2.38775 2.72693,-11.9302 3.003,-15.01502c0.62309,-6.96224 -0.06083,-14.28776 -0.06083,-21.2908c0,-10.01001 0,-20.02002 0,-30.03003c0,-3.99553 0.54974,-8.01681 0.09366,-11.98622c-0.20613,-1.79402 -1.09089,-3.45596 -1.38263,-5.23806c-0.7343,-4.48551 -1.33385,-8.99928 -1.68988,-13.53053c-0.3462,-4.40617 0.47705,-8.86334 0.01844,-13.25922c-0.3159,-3.02799 -1.2734,-5.97314 -1.5015,-9.00901c-0.69243,-9.21568 -0.04259,-18.79436 -0.04259,-28.05803c0,0 0,-3.36777 1.74807,-6.60716z" fill="#ff0000"/><path d="M96.02194,129.1667c0.18334,6.91952 4.32639,14.61088 5.74319,20.80212c0.40163,1.75506 0.7546,3.50949 1.06479,5.26391h1.75622c0.87791,-1.2181 3.003,0 4.5045,0c8.98439,0 16.99815,0.75172 25.6932,-2.22657c4.23238,-1.4497 7.96968,-4.07431 12.04296,-5.92447c0.06266,-0.02846 0.12841,-0.06461 0.19632,-0.10576c-0.21561,-1.30647 1.31384,-1.88866 0.95295,-3.39832c-0.16712,-0.69909 -0.97092,-1.12455 -1.1593,-1.81821c-0.5725,-2.10807 -0.21327,-4.46107 -1.08941,-6.46209c-0.30395,-0.6942 -0.83801,-1.25281 -1.4145,-1.7845c-3.96788,-0.32319 -7.90759,-1.10737 -11.8175,-1.86448c-0.85105,-0.1648 -1.38817,-1.23483 -2.25261,-1.29954c-6.69864,-0.5014 -13.43498,0.28698 -20.15139,0.17298c-4.82918,-1.60973 -9.18665,-1.42045 -14.06944,-1.35508zM105.003,181.21579c0.06257,3.49941 0.07113,7.01139 0.07113,10.54097c0,2.55875 0.02224,16.88004 -0.09366,18.04381c-0.23369,2.34659 -1.21961,4.56139 -1.64098,6.88164c-0.20231,1.11401 -0.36105,2.23539 -0.50532,3.35915c3.36088,-1.56558 6.99667,-2.51505 10.48194,-3.79706c1.67427,-0.61586 3.16346,-1.77825 4.91463,-2.11862c2.22858,-0.43315 5.2482,1.67795 6.81078,0.03098c1.57364,-1.65862 2.89713,-3.57504 4.65278,-5.03965c0.68111,-0.5682 1.89933,-0.26691 2.49553,-0.92365c0.38187,-0.42065 -0.26633,-1.15354 -0.11316,-1.70063c0.23237,-0.82996 0.97624,-1.45145 1.22658,-2.27617c1.24303,-4.09495 0.80916,-4.23427 0.82492,-7.95531c0.00632,-1.49322 0.06279,-2.9858 0.09366,-4.47872c0.00355,-0.17183 -0.04532,-0.37231 -0.0877,-0.56921c-0.04803,-0.02667 -0.09344,-0.04972 -0.13417,-0.06559c-2.51144,-0.97835 -5.06397,-1.86561 -7.50751,-3.003c-1.32196,-0.61533 -2.35295,-1.84765 -3.75722,-2.24039c-1.16817,-0.32671 -2.44769,0.42189 -3.63487,0.17298c-2.7436,-0.57523 -5.44649,-1.44162 -7.99412,-2.61115c-1.05324,-0.48351 -1.5138,-1.9747 -2.63491,-2.26829c-1.12332,-0.29417 -2.29567,-0.13959 -3.46835,0.0179zM84.29355,107.02002c3.62817,-2.83833 8.28059,-2.83833 8.28059,-2.83833h1.5015c6.88654,0 13.42188,-0.53656 20.0203,1.66291c7.17564,-0.21038 14.94814,-0.52953 21.89065,0.17298c1.36697,0.13832 2.40834,1.42313 3.75339,1.70346c3.03035,0.63159 15.04532,1.02152 17.96435,2.83202c2.54714,1.57983 3.7709,4.66196 5.563,7.0645c1.82435,2.44577 4.03296,4.69196 5.28269,7.47552c1.19658,2.66517 1.08723,5.75077 1.91359,8.55292c0.43143,1.46294 1.56139,2.68892 1.8437,4.1878c0.57586,3.05742 1.00138,15.39798 -0.61712,18.16596c-6.15506,10.52649 -10.74002,11.79004 -20.28749,16.56262c1.78181,1.45376 3.352,3.235 4.60148,5.52814c5.85335,10.7425 3.8563,27.39533 -0.83051,37.96931c-1.07315,2.42116 -1.49104,5.21729 -3.11616,7.30838c-1.6899,2.17444 -4.43474,3.27603 -6.51348,5.08236c-2.55075,2.21648 -4.4865,5.19288 -7.35923,6.97236c-2.72715,1.6893 -5.9366,2.53713 -9.07387,3.20696c-1.67534,0.3577 -3.43435,-0.36741 -5.13637,-0.17298c-0.46521,0.05314 -0.65438,0.7162 -1.09137,0.88438c-4.14014,1.59344 -8.46879,2.74045 -12.45873,4.67957c-10.37182,2.66857 -21.95177,10.5844 -32.69518,1.61978c-9.00546,-7.51442 -1.76888,-16.22337 -0.32377,-23.72276c0.63947,-3.31851 0.7949,-6.71662 1.40025,-10.04152c0.31693,-1.74075 1.18497,-3.36989 1.36202,-5.13037c0.49996,-4.97143 -0.09366,-9.99272 -0.09366,-14.98923c0,-12.23798 0.10535,-24.26129 -2.697,-36.29014c-2.53572,-10.88438 -7.80462,-21.82351 -6.1506,-33.27971c0.32163,-2.22769 1.32104,-4.30338 1.98155,-6.45507c0,0 2.877,-8.631 11.08546,-8.71183z" fill="#ffffff"/><path d="M326.90639,212.43014c3.37165,0.4864 10.90048,2.65862 10.90048,12.35966c0,12.5 -12.5,12.5 -12.5,12.5l-7.09167,-1.31966c-0.5358,-0.97137 -2.2209,-0.21213 -3.28775,-0.51623c-2.63728,-0.75173 -4.8901,-2.51784 -7.47092,-3.44505c-2.38982,-0.85859 -5.0833,-0.43262 -7.54409,-1.05945c-1.72874,-0.44036 -3.24944,-1.47862 -4.91463,-2.11862c-5.75152,-2.21052 -6.71943,-1.38819 -13.03585,-5.91247c-2.50926,-1.79732 -4.42587,-4.30334 -6.6388,-6.45501c-6.97086,-9.40786 -7.70426,-9.06327 -11.81056,-22.19321c-0.12966,-0.4146 -0.19502,-1.71047 -0.22739,-3.19813c-2.91541,7.1788 -11.55191,7.1788 -11.55191,7.1788l0.94995,-0.24274c-2.03248,0.39205 -4.04799,0.89511 -6.08211,1.2765c0.44436,1.46386 0.79953,2.95057 1.02199,4.45847c0.2691,1.82407 -0.32852,3.70574 -0.06775,5.53102c0.22385,1.56681 1.24654,2.94245 1.5015,4.5045c0.1954,1.19715 -0.41103,2.44546 -0.17298,3.63487c0.21963,1.09739 1.33059,1.89698 1.5015,3.003c0.45224,2.92667 0.22293,5.91861 0.33439,8.87792c0,1.001 0,2.002 0,3.003v1.5015c0,0 0,12.5 -12.5,12.5c-12.5,0 -12.5,-12.5 -12.5,-12.5c0,-1.001 0,-3.5035 0,-4.5045c0.11146,-1.0447 0.53067,-2.10197 0.33439,-3.13409c-0.20909,-1.09945 -1.28214,-1.90556 -1.5015,-3.003c-0.35131,-1.75754 0.12655,-3.60704 -0.17298,-5.37414c-0.26451,-1.56046 -1.27769,-2.93769 -1.5015,-4.5045c-0.30551,-2.13874 0.12932,-4.32955 -0.06775,-6.48099c-0.18492,-2.0187 -1.30747,-3.81654 -2.10775,-5.70152c-1.84282,-0.07109 -3.67398,-0.07287 -5.47592,0.11512c-3.02799,0.3159 -5.97858,1.20989 -9.00901,1.5015c-0.53451,0.05144 -1.07152,0.09546 -1.61068,0.13288c-1.78916,4.69095 -4.04194,9.19951 -6.13394,13.76555c-1.03833,2.26629 -1.87996,4.67292 -3.34984,6.68629c-0.4505,0.61707 -1.09241,1.43551 -1.78725,1.82592c0.86832,3.70319 0.99512,10.06068 -6.58315,13.84982c-11.18034,5.59017 -16.77051,-5.59017 -16.77051,-5.59017c-0.93732,-3.02429 -3.26894,-5.93982 -2.81195,-9.07288c0.69147,-4.74071 3.98817,-8.71258 6.03772,-13.04292c1.73803,-3.67214 3.39813,-6.6552 4.97771,-9.94316c-3.2124,-1.5162 -6.52013,-4.63861 -6.52013,-11.06875c0,-12.5 12.5,-12.5 12.5,-12.5c0.77814,0 1.56338,0.01026 2.35396,0.02718c0.31507,-0.73371 0.61358,-1.47384 0.88329,-2.22508c1.35936,-3.78637 1.91637,-7.8445 3.43517,-11.56978c0.82631,-2.02674 2.47797,-3.61661 3.53722,-5.53193c1.62488,-2.93808 2.80645,-6.11261 4.5045,-9.00901c3.06085,-5.22096 7.49729,-9.56813 10.42483,-14.86499c1.12338,-2.03255 1.59744,-4.36313 2.49706,-6.50415c1.09694,-2.61062 1.91225,-5.34515 3.17706,-7.8787c2.67819,-5.36472 2.76796,-6.80395 3.2523,-5.71098c0.3593,-6.58153 5.80991,-11.80763 12.48115,-11.80763c6.90356,0 12.5,5.59644 12.5,12.5v10.51051c1.56299,4.75469 0,10.01001 0,15.01502c0,11.27985 0,22.5597 0,33.83955c1.53074,-0.29994 3.04061,-0.7312 4.56807,-1.05176l3.95295,-0.24274c0,0 8.60674,0 11.53677,7.14172c0.04463,-2.34887 0.17413,-4.6931 0.5236,-5.77153c0.71023,-2.19168 2.6401,-3.81624 3.53522,-5.93912c0.80177,-1.90149 0.533,-4.18378 1.5015,-6.00601c2.35776,-4.43612 5.12214,-8.69839 8.35676,-12.54228c1.54854,-1.84022 4.22024,-2.47625 5.80422,-4.28605c1.99663,-2.28128 2.74,-5.48382 4.74036,-7.76183c1.52391,-1.73544 3.85738,-2.55874 5.62625,-4.04372c1.82323,-1.53061 3.18077,-3.59825 5.12049,-4.97826c2.15703,-1.53461 4.7492,-2.34858 7.0408,-3.67385c4.12707,-2.38676 4.81524,-3.86924 9.44476,-5.41669c4.74876,-1.58731 9.84092,-2.2002 14.84734,-2.27794c0,0 12.5,0 12.5,12.5c0,12.5 -12.5,12.5 -12.5,12.5c-5.65095,-0.17776 -6.93493,1.60975 -11.74393,4.31738c-1.59493,0.898 -3.48453,1.26445 -4.97121,2.33215c-1.51635,1.08902 -2.44789,2.84338 -3.88852,4.03075c-1.00593,0.8291 -2.55005,0.95935 -3.38276,1.96229c-1.79205,2.15837 -2.42158,5.1417 -4.26865,7.25318c-1.71191,1.95696 -4.40028,2.85394 -6.20779,4.72296c-1.52561,1.57753 -2.75614,3.47382 -3.65525,5.47574c-0.84547,1.88247 -0.67409,4.11553 -1.5015,6.00601c-0.41794,0.95491 -1.21594,1.67818 -1.93433,2.45134c0.03338,0.26313 -0.49572,7.37927 -0.25538,7.99644c1.51096,3.87997 3.6721,7.53693 6.20746,10.83982c3.29552,3.55106 5.97194,3.78159 10.35538,5.65054c0.43072,0.18364 0.63546,0.77766 1.09137,0.88438c0.54389,0.12731 1.10917,-0.34264 1.65838,-0.24073c2.97656,0.55233 5.93516,1.25242 8.81554,2.18428c1.65344,0.53492 2.82431,2.29139 4.54109,2.56095c0.98889,0.15527 2.04035,-0.2744 3.003,0c1.11919,0.31902 2.18032,0.80022 3.23212,1.30745zM213.16475,176.29636c0.25869,-0.02489 2.54511,-0.03569 5.03892,-0.04019c0.00548,-0.34232 0.00861,-0.68116 0.00861,-1.01592c0,-2.90256 0,-5.80513 0,-8.70769c-0.70405,1.50841 -1.40338,3.01954 -2.21415,4.47127c-0.6931,1.24104 -1.95252,2.15269 -2.46878,3.47708c-0.23528,0.60357 -0.4354,1.21858 -0.6136,1.84076c0.08294,-0.00887 0.16594,-0.01732 0.24901,-0.02531z" fill="#ffffff"/><path d="M443.75531,250.14515c-8.83883,8.83883 -17.67767,0 -17.67767,0l-3.84301,-4.75017c-2.58286,-5.26286 -4.14404,-9.83955 -7.38995,-14.78583c-2.09148,-5.13404 -3.87812,-12.54571 -7.15354,-17.3898c-2.18004,-3.2241 -4.59286,-6.28544 -6.82121,-9.47623c0,0.50905 0,1.0181 0,1.52715c0,3.89689 0.01168,15.35077 -0.09366,16.54231c-0.18172,2.0556 -1.18199,3.96727 -1.5015,6.00601c-0.45703,2.91621 -0.07299,5.9051 -0.24073,8.85213c-0.93126,1.86252 -1.38803,4.06649 -1.16711,6.1371v1.5015c0,0 0,12.5 -12.5,12.5c-12.5,0 -12.5,-12.5 -12.5,-12.5v-1.5015c0.15083,-4.00447 0.04377,-8.29667 1.83589,-11.88092c-1.91403,-0.75037 -0.5108,-4.12484 -0.24073,-6.16289c0.27108,-2.04573 1.30853,-3.95143 1.5015,-6.00601c0.42043,-4.47632 -0.09366,-8.99171 -0.09366,-13.48772c0,-13.51351 0,-27.02703 0,-40.54054c0,-6.20017 -0.40686,-12.63657 0.02415,-18.79474c0.28174,-4.02532 1.16492,-7.99091 1.5015,-12.01201c0.18787,-2.24446 -0.25312,-4.52749 0.0695,-6.75658c1.03745,-7.16806 1.66646,-7.73762 4.22901,-13.07189c0,0 5.59017,-11.18034 16.77051,-5.59017c11.18034,5.59017 5.59017,16.77051 5.59017,16.77051c-2.03562,3.7167 -1.35547,5.95676 -1.7075,10.20156c-0.33349,4.02136 -1.20781,7.98755 -1.5015,12.01201c-0.17007,2.33056 -0.16682,4.66721 -0.11969,7.00546c1.00554,-0.38205 2.00955,-0.76211 2.85749,-1.40619c2.25459,-1.71256 3.73223,-4.31901 6.00601,-6.00601c4.15797,-3.08493 9.6439,-4.23586 13.48506,-7.70732c1.33883,-1.20997 1.61824,-3.34738 3.003,-4.5045c2.93931,-2.45612 6.17406,-4.68177 9.72104,-6.12782c2.05171,-0.83645 4.41687,-0.35757 6.6253,-0.53635c0,0 12.5,0 12.5,12.5c0,10.29916 -8.48582,12.11251 -11.47397,12.43178c-0.73353,1.42347 -1.49425,2.88397 -2.69771,3.91457c-3.55908,3.04787 -7.59699,5.50026 -11.57376,7.97855c-1.5534,0.96807 -3.51366,1.22502 -4.97121,2.33215c-2.25459,1.71256 -3.73223,4.31901 -6.00601,6.00601c-1.78906,1.32736 -3.93024,2.08388 -5.9296,3.0801c0.77257,0.96993 1.51564,1.96547 2.28149,2.87854c2.5401,3.02836 4.37483,6.58493 6.62671,9.83333c2.60033,3.75106 5.41712,7.3525 7.92884,11.16347c3.68684,5.59397 5.46236,12.47696 7.86147,18.64624c3.35811,4.94243 4.93934,10.03938 7.62507,15.2442l-0.84,-1.74716c0,0 8.83883,8.83883 0,17.67767z" fill="#ffffff"/></g></g></svg>