<svg version="1.1" xmlns="http://www.w3.org/2000/svg" xmlns:xlink="http://www.w3.org/1999/xlink" width="355.12094" height="191.89477" viewBox="0,0,355.12094,191.89477"><g transform="translate(-52.98437,-63.5)"><g data-paper-data="{&quot;isPaintingLayer&quot;:true}" fill-rule="nonzero" stroke="none" stroke-width="0.5" stroke-linecap="butt" stroke-linejoin="miter" stroke-miterlimit="10" stroke-dasharray="" stroke-dashoffset="0" style="mix-blend-mode: normal"><path d="M72.68715,65.43731c1.20673,-0.32911 2.53501,0.06269 3.79723,0.06269c7.63604,0 15.63541,-0.67088 23.23172,0.06083c7.91178,0.76211 15.69181,2.97537 23.44983,4.23018c6.73776,1.08979 14.26715,2.29299 21.09518,2.73314c2.47988,0.15986 4.98709,-0.25458 7.455,0.03668c10.32129,1.21814 20.3199,4.28997 30.75625,4.97827c29.16808,1.92372 58.5816,0.95109 87.78875,0.98505c27.23732,3.33537 54.82568,1.97585 82.22328,1.97585c8,0 16,0 24,0c9.82087,0 19.70689,-1.79886 27.44317,6.30998c4.35706,4.56687 3.99831,9.75149 4.05683,15.19002c0.11831,10.99724 0,22.00208 0,33c0,22.46551 0.27668,44.95265 -0.00693,67.41598c-0.15974,12.65226 -1.87017,25.28037 -2.21862,37.94787c-2.86127,4.58856 -4.1728,10.6376 -8.5838,13.76568c-3.72389,2.64081 -9.12571,0.32001 -13.69065,0.37047c-13.99622,0.15471 -28.00306,0.00629 -42,0c-8.49989,-0.00382 -16.98783,-0.64005 -25.47971,-1.00921c-12.66717,-0.55067 -25.43289,-0.33452 -38.08672,-1.00363c-3.91562,-0.20705 -42.29491,-3.93023 -45.85503,-4.2716c-27.98369,-2.68335 -55.81414,-5.12103 -83.87078,-6.78668c-8.60361,-1.03569 -17.25744,-1.71627 -25.81082,-3.10706c-5.82194,-0.94665 -11.39963,-3.23561 -17.2609,-3.89645c-5.51049,-0.6213 -11.09065,0.06155 -16.63604,0.07464c-3.43992,0.00812 -21.97424,1.01495 -26.30888,-2.35948c-7.83646,-6.10052 -5.63369,-11.75548 -6.16696,-19.3638c-0.43827,-6.25287 -1.0172,-12.50852 -1.02416,-18.77672c-0.02866,-25.83955 0.8644,-51.85523 0.00432,-77.67139c-0.44982,-13.50177 -1.989,-26.83026 -2.00432,-40.3286c0,0 0,-12.5 12.5,-12.5c3.11092,0 5.44761,0.77423 7.20277,1.93731z" fill="#00ff72"/><path d="M146.44676,116.5c-2.64159,1 -4.96238,1 -4.96238,1c-0.7083,0 -1.42402,-0.09081 -2.13878,-0.18216c-1.06049,0.15569 -2.43851,0.25275 -3.92893,0.08606c-1.91829,0.7309 -11.57304,4.89199 -11.67293,4.93582c-0.92934,0.40776 -6.37063,3.07224 -6.62621,4.23192c-0.5517,2.50326 -1.43185,4.95109 -2.57036,7.24772c-0.33854,0.68291 -1.20289,1.05253 -1.43866,1.77737c-0.37856,1.16383 -0.14123,2.44741 -0.32893,3.65678c-0.46588,3.00182 -1.41362,6.82719 -1.12958,9.87458c0.10885,1.16777 1.5679,1.74813 2.27756,2.68189c4.40199,4.71194 11.31661,6.74583 17.55683,6.69002c4.33316,-0.03875 8.66856,-0.12794 13,0c0.70631,0.02086 1.6222,0.56711 2.11886,0.06449c1.35618,-1.37245 2.76972,-2.72091 4.36285,-3.80856c0.28293,-3.41153 1.81767,-6.32537 2.06088,-9.78693c0.66315,-9.43869 -0.02888,-19.20346 -0.04239,-28.68975c-1.15571,-0.07841 -2.33435,0.22075 -3.5002,0.22075c-1.01254,0 -2.02508,0 -3.03762,0zM136.20053,92.51135l4.28384,-1.01135c7.26422,0 15.05089,-0.92119 21.95285,1.64146c2.16017,0.80206 4.59409,1.23302 6.35603,2.71801c2.73669,2.30652 4.92992,5.26544 6.76336,8.33919c2.66777,4.4725 2.2774,7.14132 2.42776,11.80133c0,14.12906 1.21006,28.4816 -2.41875,42.20835c-0.57518,2.17575 -0.62088,4.51772 -1.53275,6.57519c-3.89472,8.78772 -14.10788,16.16788 -23.18465,18.49091c-1.15806,0.29638 -11.02959,0.22555 -12.36384,0.22555c-8.77286,0 -15.75644,0.2165 -24.33683,-2.77644c-7.40804,-2.58401 -13.60948,-7.13847 -19.10635,-12.53354c-3.43792,-4.60996 -6.16519,-7.44986 -7.72244,-13.31811c-1.55737,-5.8687 -0.26236,-14.3449 0.87042,-20.12542c0.54544,-2.78337 0.76573,-5.65528 1.67107,-8.34322c0.52548,-1.56013 1.81971,-2.7529 2.56134,-4.22263c1.42988,-2.8337 1.73276,-6.00798 3.42964,-8.75228c1.51342,-2.44759 6.77221,-7.91574 9.32426,-9.56889c7.16469,-4.6411 17.80944,-9.33243 26.07857,-11.15889c0.54538,-0.12046 2.68776,-0.16965 4.94647,-0.18923z" fill="#ffffff"/><path d="M249.52703,180.5005c0.79572,0.01405 12.45734,0.42596 12.45734,12.4995c0,12.5 -12.5,12.5 -12.5,12.5l-5.95285,-0.64146c-6.06056,-2.03048 -12.16807,-4.63291 -18.57444,-5.4522c-6.10676,-0.78097 -16.61927,2.34737 -21.78159,-2.26582c-9.22081,-8.23998 -5.18752,-13.17188 -5.19112,-22.14053c-0.00203,-5.05229 -0.43917,-10.12857 0.05364,-15.15677c0.52929,-5.4004 2.33453,-10.61469 3,-16c0.32064,-2.59474 -0.04776,-5.22877 -0.05364,-7.84323c-0.01632,-7.2561 0.69129,-14.5396 0.06083,-21.76828c-0.26913,-3.08578 -1.01631,-6.13455 -1.06083,-9.23172c0,0 0,-12.5 12.5,-12.5c12.5,0 12.5,12.5 12.5,12.5c-0.07831,2.27636 0.75714,4.49786 0.93917,6.76828c0.64551,8.05143 0.0774,16.15447 0.06083,24.23172c-0.00694,3.38563 0.33895,6.79397 -0.05364,10.15677c-0.62921,5.38967 -2.44857,10.60182 -3,16c-0.41522,4.0648 0.01255,8.16986 0.05094,12.2576c1.68288,-0.03433 3.36302,-0.02568 5.02999,0.17929c7.41693,0.91197 14.4933,3.5256 21.51536,5.90684z" fill="#ffffff"/><path d="M314.98438,130.66314c0,2.44562 0,4.89124 0,7.33686c0,6.81639 0.50309,14.21068 -0.04259,21.03101c-0.16171,2.02113 -0.87214,3.97645 -1,6c-0.21721,3.43748 0.328,6.90749 -0.03205,10.33295c-0.32125,3.05635 -1.56677,5.95751 -2,9c-0.25234,1.77213 0.2595,3.6061 -0.04618,5.36981c-0.34701,2.00215 -0.90905,3.95838 -1.50359,5.90559c1.0411,-0.03708 2.08406,-0.12155 3.12441,-0.13936c8.42672,0.05182 18.9911,-1.02814 26.15814,-5.96131c4.29092,-2.95349 7.86552,-6.83302 11.86892,-10.16586c1.78884,-1.48921 4.46365,-2.18885 5.53742,-4.25397c1.29374,-2.48817 1.79221,-5.32052 2.88702,-7.90241c1.30127,-3.06878 3.46768,-6.11731 2.92438,-9.61973c-0.01691,-0.10899 0.03897,0.40232 -0.04266,0.32813c-1.61884,-1.4712 -3.02843,-3.16468 -4.66974,-4.61076c-2.57193,-2.266 -5.10404,-4.61397 -7.957,-6.51403c-1.22624,-0.81666 -2.82504,-0.88227 -4.14159,-1.54354c-2.78759,-1.40012 -5.47604,-2.99466 -8.13653,-4.6234c-2.71084,-1.65956 -5.30926,-3.59413 -8.27423,-4.73947c-4.97013,-1.29495 -9.88199,-3.30052 -14.65413,-5.23053zM314.55276,102.88684c0.32612,0.08745 0.65543,0.18361 0.98832,0.28974c3.08617,0.98391 5.71419,3.08477 8.72684,4.27492c4.21629,1.66565 8.65442,3.61235 13.06232,4.65483c2.3245,0.94363 4.7559,1.65785 6.97349,2.83089c4.3713,2.31229 8.18843,5.60311 12.61575,7.80625c1.89577,0.94338 4.09689,1.28131 5.85841,2.45646c4.25096,2.83591 8.18974,6.12957 12.043,9.48597c3.28424,2.86076 9.64845,8.96145 11.2876,13.71737c3.65088,10.59287 0.92347,18.63976 -3.07562,28.38027c-1.00243,2.44158 -4.13935,10.60565 -5.11298,12.09759c-2.54928,3.9064 -6.969,6.83193 -10.46258,9.74603c-1.96204,1.6366 -12.05926,10.4785 -14.13108,11.83414c-11.5898,7.5835 -26.28431,9.97678 -39.84186,10.03869c-4.19139,-0.04603 -8.38109,-0.4781 -12.52729,-1.09366c-9.1704,-1.36146 -11.66219,1.80462 -18.40413,-11.67925c-1.60008,-3.20017 0.43199,-7.15991 1.07288,-10.67994c0.62918,-3.45573 2.92738,-7.26071 3.47936,-10.78092c0.2391,-1.52484 -0.26519,-3.10234 -0.04618,-4.63019c0.43607,-3.04209 1.6778,-5.94376 2,-9c0.33784,-3.20461 -0.23075,-6.45081 -0.03205,-9.66705c0.12503,-2.02373 0.8237,-3.98009 1,-6c0.53253,-6.10123 -0.04259,-12.90108 -0.04259,-18.96899c0,-4.92646 0,-9.85292 0,-14.77938c-2.65713,-1.74021 -5,-4.80898 -5,-10.22062c0,-5.77947 2.67218,-8.88676 5.54554,-10.55737c1.00394,-3.69508 3.85543,-8.94263 11.95446,-8.94263c8.42959,0 11.17454,5.68463 12.06839,9.38684z" fill="#ffffff"/></g></g></svg>