<svg version="1.1" xmlns="http://www.w3.org/2000/svg" xmlns:xlink="http://www.w3.org/1999/xlink" width="154.55273" height="187.51188" viewBox="0,0,154.55273,187.51188"><g transform="translate(-108.48438,-103.48811)"><g data-paper-data="{&quot;isPaintingLayer&quot;:true}" fill-rule="nonzero" stroke-linejoin="miter" stroke-miterlimit="10" stroke-dasharray="" stroke-dashoffset="0" style="mix-blend-mode: normal"><path d="M262.03711,208.3709c0,45.0825 -34.15009,81.62909 -76.27636,81.62909c-42.12627,0 -76.27636,-36.54659 -76.27636,-81.62909c0,-45.0825 34.15009,-81.62909 76.27636,-81.62909c42.12627,0 76.27636,36.54659 76.27636,81.62909z" fill="#fff700" stroke="#000000" stroke-width="2" stroke-linecap="butt"/><path d="M182.41529,176.25454c0,11.45539 -8.23796,20.74182 -18.4,20.74182c-10.16204,0 -18.4,-9.28643 -18.4,-20.74182c0,-11.45539 8.23796,-20.74182 18.4,-20.74182c10.16204,0 18.4,9.28643 18.4,20.74182z" fill="#ffffff" stroke="#000000" stroke-width="2" stroke-linecap="butt"/><path d="M226.57529,176.58909c0,11.64015 -8.53752,21.07636 -19.06909,21.07636c-10.53157,0 -19.06909,-9.43621 -19.06909,-21.07636c0,-11.64015 8.53752,-21.07636 19.06909,-21.07636c10.53157,0 19.06909,9.43621 19.06909,21.07636z" fill="#ffffff" stroke="#000000" stroke-width="2" stroke-linecap="butt"/><path d="M250.66257,202.68363c1.67273,0 1.67273,1.67273 1.67273,1.67273l-0.17659,2.08625c-0.7842,1.56268 -1.11715,3.35591 -2.0805,4.81498c-0.95136,1.4409 -2.4718,2.4717 -3.3216,3.97472c-1.28759,2.27734 -1.18687,2.9213 -2.82953,4.90454c-1.86676,2.25379 -3.96535,3.94208 -5.67971,6.35207c-1.38458,1.38266 -2.41474,3.09207 -3.79836,4.47569c-1.87887,1.87887 -4.12851,3.12167 -5.91102,5.23042c-1.19518,1.41392 -2.16268,3.05479 -3.57856,4.24765c-2.09243,1.76283 -4.62733,3.30065 -6.56861,5.24193c-0.76073,0.76073 -1.22626,1.77271 -1.9264,2.58954c-2.05299,2.39516 -4.54149,4.54744 -6.77178,6.77773c-1.20578,1.20578 -2.19333,2.69715 -3.64884,3.58556c-0.67225,0.41033 -1.50223,0.48029 -2.22884,0.78413c-1.5112,0.6319 -2.66994,1.91165 -4.10578,2.69993c-1.55182,0.85196 -3.28401,1.32968 -4.87942,2.09694c-5.75083,2.26776 -11.03636,2.02883 -17.0981,2.02883c-4.66682,0 -9.1624,0.0361 -13.44764,-2.17736c-0.87739,-0.4532 -1.74648,-0.97028 -2.45516,-1.65803c-0.52588,-0.51034 -0.59874,-1.40267 -1.17072,-1.86074c-0.50939,-0.40795 -1.31134,-0.2404 -1.87135,-0.57551c-0.57464,-0.34387 -0.87965,-1.03262 -1.43683,-1.4041c-0.82989,-0.55329 -1.84988,-0.77981 -2.67636,-1.33818c-2.28275,-1.54223 -3.89776,-3.9424 -6.22655,-5.52692c-1.75907,-2.57203 -3.53438,-5.0587 -5.46352,-7.4823c-2.4555,-3.08486 -5.99142,-5.57428 -8.15841,-8.87926c-0.28917,-0.44102 -1.18275,-3.59872 -1.46068,-4.25383c-0.42417,-0.99983 -1.13251,-1.88504 -1.42076,-2.93218c-0.06144,-0.22318 -0.04475,-5.01844 -0.04475,-5.06795c0,-3.38518 -0.29652,-6.64395 0.75493,-9.89624c0,0 0.52896,-1.58689 2.11585,-1.05793c1.58689,0.52896 1.05793,2.11585 1.05793,2.11585c-0.98017,2.82984 -0.58325,5.86237 -0.58325,8.83831c0,1.43319 -0.45589,2.92638 -0.04475,4.29932c0.26074,0.87074 0.89431,1.58649 1.2556,2.42055c0.5255,1.21314 0.47121,2.68274 1.21568,3.77527c0.47813,0.70167 1.26478,1.13817 1.83077,1.7711c1.94924,2.17979 4.23683,4.46641 6.06902,6.746c1.86915,2.32558 3.61659,4.71539 5.24193,7.2377c2.21592,1.44289 3.6751,3.77174 5.81708,5.17854c0.83369,0.54754 1.84644,0.78494 2.67636,1.33818c0.49265,0.32842 0.73217,0.96706 1.23953,1.27226c0.64978,0.39088 1.55087,0.28923 2.1432,0.76267c1.14854,0.91801 1.73796,2.53909 3.06503,3.17214c3.95259,1.88552 7.71198,1.83718 11.97781,1.83718c5.56,0 10.5026,0.34458 15.75609,-1.74786c1.50511,-0.72403 3.14659,-1.15842 4.60965,-1.96404c1.53028,-0.84263 2.79036,-2.16981 4.40187,-2.84422c0.57491,-0.2406 1.24794,-0.23905 1.7857,-0.55405c1.25032,-0.73239 2.01744,-2.08073 3.04207,-3.10534c2.17422,-2.17422 4.60858,-4.26905 6.61004,-6.60409c0.75133,-0.87656 1.2718,-1.94684 2.08815,-2.76318c2.01621,-2.0162 4.61864,-3.65726 6.81321,-5.46352c1.26048,-1.03745 2.05607,-2.5367 3.11235,-3.78144c1.29558,-1.52673 2.69701,-2.98078 4.24765,-4.24765c0.58064,-0.47438 1.35479,-0.69721 1.88497,-1.22739c1.31781,-1.31781 2.29229,-2.95132 3.6092,-4.27004c1.69832,-2.38744 3.78639,-4.09601 5.64728,-6.31311c1.3081,-1.55849 1.46328,-2.62552 2.5232,-4.46274c0.87811,-1.52207 2.38662,-2.59763 3.36931,-4.05437c0.92201,-1.36679 1.19872,-3.07665 1.93405,-4.55229l-0.17659,-0.59012c0,0 0,-1.67273 1.67273,-1.67273z" fill="#000000" stroke="none" stroke-width="0.5" stroke-linecap="butt"/><path d="M163.68075,180.60363c-1.67273,0 -1.67273,-1.67273 -1.67273,-1.67273l0.08584,-0.80922c-0.47228,-1.46082 -0.74036,-3.00831 -0.75493,-4.54351c0,0 0,-1.67273 1.67273,-1.67273c1.67273,0 1.67273,1.67273 1.67273,1.67273c-0.01463,1.17793 0.1977,2.37245 0.58325,3.48558l0.08584,1.86715c0,0 0,1.67273 -1.67273,1.67273z" fill="#000000" stroke="none" stroke-width="0.5" stroke-linecap="butt"/><path d="M208.58881,181.09613c-1.49613,0.74807 -2.2442,-0.74806 -2.2442,-0.74806l-0.75985,-1.55729c-0.54008,-1.67053 -0.74205,-3.45699 -0.75493,-5.2126c0,0 0,-1.67273 1.67273,-1.67273c1.67273,0 1.67273,1.67273 1.67273,1.67273c-0.01255,1.39841 0.12554,2.83323 0.58325,4.15467l0.57834,1.11907c0,0 0.74807,1.49613 -0.74806,2.2442z" fill="#000000" stroke="none" stroke-width="0.5" stroke-linecap="butt"/><path d="M233.60075,142.1309c-8.31439,0 -15.05455,-6.14102 -15.05455,-13.71636c0,-7.57533 6.74015,-13.71636 15.05455,-13.71636c8.31439,0 15.05455,6.14103 15.05455,13.71636c0,7.57534 -6.74015,13.71636 -15.05455,13.71636z" fill="#ffa000" stroke="#000000" stroke-width="2" stroke-linecap="butt"/><path d="M230.58984,114.69818l4.68364,-8.69818l3.34545,10.03636" fill="none" stroke="#ffa000" stroke-width="2" stroke-linecap="round"/><path d="M244.64075,120.0509l9.36727,-3.34545l-5.35273,9.36727" fill="none" stroke="#ffa000" stroke-width="2" stroke-linecap="round"/><path d="M233.2388,113.73517c-0.0392,0.04613 -0.08179,0.09233 -0.12799,0.13854c-1.1828,1.1828 -2.36559,0 -2.36559,0l0.51371,-3.52462c0.08135,0.00077 0.17629,-0.00021 0.28228,-0.00199c0.30971,-0.29878 0.84714,-0.35438 1.39044,-0.31459v-1.35615c0,-0.92382 0.74891,-1.67273 1.67273,-1.67273c0.92382,0 1.67273,0.74891 1.67273,1.67273v2.00727c0,0 0,0.13791 -0.0396,0.33455c0.51466,0 1.04324,0 1.04324,0c0.92382,0 1.67273,0.74891 1.67273,1.67273c0,0.92382 -0.74891,1.67273 -1.67273,1.67273h-2.00727v-0.07371c-0.08861,0.01981 -0.1779,0.03726 -0.26794,0.05211c-0.61461,0.10135 -1.16722,-0.40456 -1.76673,-0.60687z" fill="#ffa000" stroke="none" stroke-width="0.5" stroke-linecap="butt"/><path d="M246.26761,122.77441c-0.37387,0.28996 -0.94249,0.49248 -1.70583,0.11081c-1.49613,-0.74806 -0.74806,-2.2442 -0.74806,-2.2442l2.44117,-1.2927l-0.23135,-0.35791c0.2127,0.0539 0.42969,0.09804 0.64909,0.1367l0.48911,-0.25901c0.13619,0.13727 0.27977,0.26839 0.4245,0.39857c0.07721,0.01101 0.15439,0.02206 0.23148,0.03334l0.42727,-0.64091l0.61165,0.40776c0.51346,-1.1616 1.72039,-1.9651 2.63042,-2.87513c0,0 1.1828,-1.1828 2.36559,0c1.1828,1.1828 0,2.36559 0,2.36559c-0.85035,0.85035 -1.65079,1.61407 -2.48468,2.34394c1.94624,2.02514 0.85887,4.51189 -3.25552,4.07727c-0.95667,-0.10105 -1.28583,-1.34833 -1.84482,-2.20414z" fill="#ffa000" stroke="none" stroke-width="0.5" stroke-linecap="butt"/><path d="M227.57893,124.06545c0,-0.92382 0.74891,-1.67273 1.67273,-1.67273c0.92382,0 1.67273,0.74891 1.67273,1.67273c0,0.92382 -0.74891,1.67273 -1.67273,1.67273c-0.92382,0 -1.67273,-0.74891 -1.67273,-1.67273z" fill="#000000" stroke="none" stroke-width="0.5" stroke-linecap="butt"/><path d="M236.9462,127.4109c0,-0.92382 0.74891,-1.67273 1.67273,-1.67273c0.92382,0 1.67273,0.74891 1.67273,1.67273c0,0.92382 -0.74891,1.67273 -1.67273,1.67273c-0.92382,0 -1.67273,-0.74891 -1.67273,-1.67273z" fill="#000000" stroke="none" stroke-width="0.5" stroke-linecap="butt"/><path d="M234.449,139.29916c-1.1828,1.1828 -2.36559,0 -2.36559,0l-1.07318,-1.32293c-0.30453,-0.99891 -0.84317,-1.97542 -1.60318,-2.69162c0,0 -0.06566,-0.06566 -0.15057,-0.1815c-0.51156,0.01693 -1.25984,-0.14583 -1.59171,-1.14142c-0.0115,-0.03451 -0.02201,-0.06851 -0.03155,-0.10203c-1.25977,0.15034 -2.50707,0.4718 -3.70274,0.8797l-0.84077,0.28026c0,0 -1.45505,0.48502 -2.04299,-0.86711c-0.20597,0.05732 -0.4166,0.12293 -0.63337,0.19802l-1.19805,0.08584c0,0 -1.67273,0 -1.67273,-1.67273c0,-1.67273 1.67273,-1.67273 1.67273,-1.67273l0.14013,0.08584c2.06704,-0.66827 3.70867,-0.74498 5.74538,-0.75379c-0.64955,-0.56245 -1.33482,-1.09447 -2.12973,-1.62026l-0.92403,-0.87809c0,0 -1.1828,-1.1828 0,-2.36559c1.1828,-1.1828 2.36559,0 2.36559,0l0.41415,0.46009c1.91469,1.28522 3.32012,2.60509 4.93857,4.22354c0,0 0.13653,0.13653 0.27043,0.3632c0.20905,0.09617 0.42248,0.24259 0.58775,0.46551c0.55781,-0.03455 1.11853,-0.08574 1.64668,0.04979c1.50735,-0.37739 3.00778,-0.79034 4.48156,-1.28259l2.00727,-0.66909c0,0 1.58689,-0.52896 2.11585,1.05793c0.52896,1.58689 -1.05793,2.11585 -1.05793,2.11585l-2.00727,0.66909c-0.65736,0.21871 -1.31953,0.42307 -1.98505,0.61631c0.19204,0.21703 1.01653,1.27104 -0.03748,2.32506c-0.69009,0.69009 -1.38017,0.57493 -1.83536,0.35924c0.08299,0.20027 0.16041,0.40226 0.23218,0.60537l0.265,0.01526c0,0 1.1828,1.1828 0,2.36559z" fill="#000000" stroke="none" stroke-width="0.5" stroke-linecap="butt"/></g></g></svg>