<svg version="1.1" xmlns="http://www.w3.org/2000/svg" xmlns:xlink="http://www.w3.org/1999/xlink" width="277.3712" height="249.04006" viewBox="0,0,277.3712,249.04006"><g transform="translate(-104.61431,-45.49932)"><g data-paper-data="{&quot;isPaintingLayer&quot;:true}" fill-rule="nonzero" stroke="none" stroke-width="0.5" stroke-linecap="butt" stroke-linejoin="miter" stroke-miterlimit="10" stroke-dasharray="" stroke-dashoffset="0" style="mix-blend-mode: normal"><path d="M113.95822,52.88161c3.92912,-2.78841 12.17847,-2.41564 16.52616,-2.3816c2.27764,0.01783 4.49932,-0.73967 6.76828,-0.93917c4.3824,-0.38533 8.33563,-0.44505 12.70443,-0.96718c5.19716,-0.62114 10.19287,-2.56058 15.40472,-3.04314c0.63551,-0.05884 14.75696,-0.05051 18.12257,-0.05051c13,0 26,0 39,0c3.15526,0 22.50386,-0.01015 23.09032,0.04764c5.98388,0.58961 11.826,2.19524 17.77165,3.09181c5.36154,0.8085 10.78798,1.15461 16.14031,2.02195c4.77828,0.77432 9.42234,2.33082 14.22944,2.89943c7.53691,0.89151 15.17883,-0.06083 22.76828,-0.06083c8.33333,0 16.66667,0 25,0c12.26445,0 25.43453,-2.9669 33.18034,9.90983c2.17833,3.62129 0.99572,13.14164 1.30053,17.89892c0.19301,3.01229 0.82641,5.98654 1,9c0.63284,10.98548 0.02386,22.16232 -0.07452,33.16397c2.87194,11.1688 4.08218,14.17628 5.06221,26.64118c0.04062,0.51663 0.03199,23.83451 0.03145,24.88611c-0.00623,11.91701 -0.46609,23.85672 -2.11417,35.68556c-0.58067,4.16765 -1.22872,8.34143 -2.27691,12.4167c-2.69621,10.48259 -5.33216,12.80291 -6.68921,23.3122c-0.36652,2.8384 0.06722,5.7236 0.08029,8.58554c0.02587,5.66661 0.08318,11.33394 0,17c-0.11874,8.08887 0.45109,13.77172 -7.49214,20.35084c-3.2117,2.66015 -14.69703,2.14916 -19.00786,2.14916c-14,0 -28,0 -42,0c-42.01828,0 -83.98975,-1 -126,-1c-13.94626,0 -29.01524,1.12583 -43,0c-6.13358,-0.49378 -12.92759,0.62489 -18.30888,-2.35947c-6.66144,-3.69431 -6.44928,-13.65366 -6.17828,-19.70696c0.28795,-6.43199 1.57496,-12.78666 2.01131,-19.21029c0.87974,-12.95086 -0.02415,-26.24303 -0.02415,-39.22328c0,-16.66666 0,-33.33334 0,-50c0,-9.35578 0.59568,-18.8891 0.02415,-28.22328c-0.28292,-4.62061 -1.55948,-9.13573 -1.98156,-13.74572c-0.42928,-4.68864 -0.10602,-9.45437 -0.892,-14.09655c-0.83128,-4.90971 -2.54201,-9.66725 -3.08103,-14.61757c-0.94683,-8.69549 -0.06956,-18.48468 -0.06956,-27.31688c0,0 0,-10.02202 8.97384,-12.1184z" fill="#ff0000"/><path d="M161.11992,130.30703c-1.13555,-2.78098 -1.13555,-5.30702 -1.13555,-5.30702c0.52673,-3.25595 -3.06523,-7.32431 -3.66561,-10.12809c-0.91407,-4.26869 0.54875,-8.74877 -0.17298,-12.86963c-0.88137,-5.03235 -5.19064,-8.68295 -4.85688,-14.25993c0.32144,-5.37095 -1.69735,-12.81661 2.70235,-15.91388c5.44729,-3.83474 13.36779,-0.82587 19.98501,-0.05741c1.79058,0.20794 3.07035,1.89207 4.55958,2.90776c3.54514,2.41787 7.107,4.81692 10.54052,7.39084c6.15528,4.61427 11.57302,10.029 17.92878,14.10228c0.60832,-0.27451 1.20633,-0.55731 1.65764,-0.92246c2.75256,-2.22702 5.14905,-4.93127 8.14553,-6.81736c2.98973,-1.88183 6.49442,-2.79333 9.64912,-4.38319c1.39344,-0.70224 2.54003,-1.85591 3.97002,-2.48036c1.25952,-0.55001 2.7323,-0.46912 4,-1c7.01143,-2.93622 7.59578,-8.56645 19.06478,-0.91941c10.19038,6.7945 6.31048,13.23107 7.39848,21.82355c0.23987,1.89437 0.94493,3.70146 1.46892,5.54253c0.62586,-0.09345 1.25056,-0.19254 1.87123,-0.31043c6.31332,-1.19909 12.71318,-1.89608 19.04248,-3.00771c4.72103,-0.82917 9.41843,-2.11589 14.21103,-2.1971c7.00803,0 15.0509,-1.00535 22,0c3.48883,0.50474 7.87406,-0.18971 10.30888,2.35947c3.68376,3.85678 5.99576,9.46699 6.08052,14.79969c0.13399,8.43053 -11.58292,14.89247 -17.06318,17.6493c-3.15551,1.58737 -6.57811,2.66476 -10.02675,3.42885c-0.38397,0.08507 -0.04943,-1.5232 -0.20482,-1.16192c-0.26584,0.61807 0.27455,1.49906 -0.16082,2.01203c-0.99669,1.17437 -2.27993,2.05555 -3.53819,2.9631c0.20218,0.03714 0.40439,0.07412 0.60663,0.11088c6.47212,0.92694 12.07549,1.58638 18.55956,3.3568c7.12147,1.94446 12.88365,6.54828 19.64028,9.20634l2.47728,0.82576c5.10781,1.57087 8.8206,6.3267 8.8206,11.94969c0,5.80889 -3.96234,10.69233 -9.33169,12.09497l-6.73429,1.92408l-0.04635,-0.16223c-0.24328,0.12402 -0.48922,0.24381 -0.73798,0.35913c-5.64469,2.61662 -12.31789,1.65619 -18.47093,2.68143c0.48847,0.43187 0.98815,0.84993 1.5068,1.24452c4.20744,3.20105 8.85767,5.79429 13.03845,9.0301c3.34391,2.58809 6.31226,5.62828 9.49606,8.41098c2.40607,2.10294 5.52493,3.57052 7.27307,6.24552c2.70688,4.14208 7.92967,9.24188 5.7516,13.68485c-8.16632,16.65822 -23.64947,13.63296 -37.21371,14.94409c-5.23616,0.50613 -10.25077,2.66596 -15.50372,2.94894c-0.37791,0.02036 -0.37552,-0.94524 -0.74375,-0.85785c-0.35843,0.08506 0.14449,0.99144 -0.2119,1.08464c-0.35102,0.0918 -0.70939,0.11532 -1.07159,0.10333c-0.01865,0.10307 -0.03337,0.20171 -0.04264,0.29454c-0.20145,2.01756 -0.72423,3.99125 -1,6c-0.27847,2.02843 0.18304,4.24167 -0.66205,6.10658c-1.45347,3.20746 -3.9527,5.83094 -6.03449,8.6711c-2.24214,3.05892 -4.20467,6.38436 -6.92203,9.03015c-3.52855,3.43562 -8.80177,6.20274 -13.2672,7.7943c-3.30196,1.17688 -6.42926,4.75652 -9.80336,3.80603c-11.16576,-3.1454 -13.35277,-13.13159 -16.46878,-22.03179c-2.88686,0.97493 -5.75689,2.00509 -8.57375,3.16489c-7.79711,3.21034 -15.48207,6.70059 -23.3619,9.70219c-4.56921,0.14135 -9.11157,1.01231 -13.6823,0.93453c-4.34413,-0.07392 -10.15402,2.22271 -12.99042,-1.06846c-11.22399,-13.02353 -4.71356,-19.76609 3.06672,-27.56028c-4.86124,-0.76635 -9.7006,-1.74608 -14.60424,-2.10894c-10.35622,-0.76635 -20.76906,0.02869 -31.1536,0.02869c-5,0 -10.06799,0.82176 -15,0c-4.82121,-0.8033 -11.3956,-0.5821 -13.85257,-4.80735c-3.09093,-5.31547 -1.75462,-12.65965 0.33229,-18.44349c1.38524,-3.83917 5.85386,-5.75104 9.22675,-8.04923c2.02594,-1.38042 4.48993,-1.97427 6.77754,-2.85565c6.98327,-2.69055 14.06053,-5.13587 21.0364,-7.84434c-0.63358,-0.26688 -1.26794,-0.53187 -1.90361,-0.79362c-1.72215,-0.70914 -3.61881,-1.07072 -5.18845,-2.07317c-1.75182,-1.1188 -3.02228,-2.8584 -4.61838,-4.18996c-2.58658,-2.15788 -5.28901,-4.20056 -7.64881,-6.60434c-1.2355,-1.25853 -2.18696,-2.84537 -3.64987,-3.83038c-3.00629,-2.02419 -6.7138,-2.90951 -9.60528,-5.09456c-4.72652,-3.57175 -11.42419,-6.35135 -13.07162,-12.04199c-2.62066,-9.05244 5.38985,-15.72812 11.67372,-19.10085c2.98173,-1.60038 6.57509,-1.63462 9.78424,-2.70853c10.78503,-3.60911 20.59614,-7.78435 28.7828,-15.7293c0.51786,-0.35015 1.0381,-0.69167 1.56041,-1.0262zM184.57972,120.65715c2.88244,0.58763 5.90772,2.39814 8.08499,6.75269c5.59017,11.18034 -5.59017,16.77051 -5.59017,16.77051l-1.15897,0.53832c-3.44824,2.06211 -7.12479,3.80423 -10.50634,5.94812c-5.38194,5.80828 -12.60799,10.54063 -19.82274,13.74455c-2.46132,1.09302 -5.08736,1.7586 -7.65491,2.58169c2.51497,2.46853 4.90013,5.14881 7.74281,7.56381c1.27018,1.07908 2.75735,1.88933 4,3c0.56592,0.50582 0.78658,1.33881 1.38162,1.81004c0.21293,0.16863 0.55804,-0.17066 0.81155,-0.07317c4.09713,1.57548 8.07032,3.45982 12.15775,5.06028c3.76646,1.47478 8.13977,1.76655 11.39818,4.16321c4.60839,3.38961 11.58868,6.9856 11.53672,12.7061c-0.05858,6.44898 -7.86099,10.22623 -11.79148,15.33935c-2.28242,1.36136 -4.62551,2.68136 -7.01636,3.95561c0.70445,0.00299 1.12316,0.00645 1.1784,0.01045c7.38189,0.53427 14.61712,2.4796 22,3c4.42976,0.31224 30.13915,-3.15827 34.17453,6.57309c1.52111,3.66818 1.73933,6.78906 1.09339,9.5018c2.80693,-0.95992 5.6524,-1.76242 8.54885,-2.32714c5.03257,-0.9812 10.25861,-4.45368 15.12037,-2.82493c6.31042,2.11406 8.94354,13.33921 10.84963,18.94311c1.77573,-2.2179 3.47477,-4.56601 5.57147,-6.5322c0.16305,-0.1529 -0.67485,0.32974 -0.66205,0.10658c0.11608,-2.02426 0.79797,-3.9825 1,-6c0.14934,-1.4914 -0.3493,-3.05189 0.05106,-4.49628c1.04665,-3.776 2.82321,-7.31055 4.23482,-10.96583c2.86663,-1.38001 5.83531,-2.5655 8.59989,-4.14002c1.38455,-0.78855 2.28031,-2.40024 3.7881,-2.91536c2.3048,-0.78742 4.85316,-0.46127 7.25625,-0.85785c5.40507,-0.892 10.71301,-2.41564 16.15674,-3.01492c-6.63877,-4.96025 -13.70966,-9.40499 -19.74684,-15.07306c-3.16286,-2.96949 -7.8678,-5.07575 -9.20247,-9.20373c-1.60542,-4.96535 -0.71115,-10.74686 1.17934,-15.61082c0.94969,-2.44341 4.49148,-2.72534 6.56889,-4.32426c0.92023,-0.70827 1.42866,-1.92139 2.35328,-2.59337c-6.36,-1.1191 -18.98863,-3.41826 -20.79676,-4.81592c-4.08474,-3.15746 -7.87653,-7.83073 -8.48489,-12.95757c-0.4803,-4.04767 3.49872,-7.38367 5.66117,-10.83883c1.72757,-2.76031 5.18071,-4.52091 7.17206,-7.08603c0.81737,-1.05287 1.59131,-2.16118 2.40933,-3.22652c-6.7858,0.95314 -13.77844,1.38448 -20.37436,3.18904c-8.258,2.25928 -11.46301,7.60375 -22.20703,-1.19883c-6.71352,-5.50039 -2.69103,-12.11723 -3.56751,-18.31154c-0.11734,-0.82928 -0.83926,-3.13461 -1.48413,-5.73581c-2.17956,0.86343 -4.44723,1.54603 -6.43346,2.7764c-7.24739,4.48937 -12.32738,13.6045 -21.67606,14.93212c-3.22333,0.45775 -5.92076,-2.70966 -8.88114,-4.06449c-7.10876,-2.63485 -12.93333,-7.77023 -18.74405,-12.78083c-0.13999,0.49626 -0.32964,0.98904 -0.2092,1.47341c0.20148,0.81023 1.08364,1.30893 1.38288,2.08837c1.16396,3.03185 2.05653,6.21384 2.54685,9.44068z" fill="#ffffff"/><path d="M234.60936,150.59761c1.7051,0.64465 3.34321,1.39438 4.71385,2.56356c2.0215,1.72436 2.54454,4.66733 3.70966,7.05529c0.94498,1.93677 2.21752,3.79399 2.61712,5.91163c1.59517,8.4534 -1.219,19.21762 -9.26739,23.89284c-1.48907,0.86498 -10.70853,1.87486 -14.12994,1.41823c-11.67889,-1.55869 -23.40012,-5.93799 -25.23683,-19.55305c-0.95666,-7.09146 3.30526,-11.50574 7.62972,-15.72495c2.21759,-2.16362 4.28565,-4.58518 6.94061,-6.1821c0.08343,-0.05018 7.65132,-1.51328 4.05939,-0.8179c0,0 8.83883,-8.83883 17.67767,0c0.47928,0.47928 0.90659,0.95857 1.28615,1.43644z" fill="#ffffff"/></g></g></svg>