<svg version="1.1" xmlns="http://www.w3.org/2000/svg" xmlns:xlink="http://www.w3.org/1999/xlink" width="1088.03952" height="634.08086" viewBox="0,0,1088.03952,634.08086"><g transform="translate(349.01065,179.47884)"><g data-paper-data="{&quot;isPaintingLayer&quot;:true}" fill="#191919" fill-rule="nonzero" stroke="none" stroke-width="0.5" stroke-linecap="butt" stroke-linejoin="miter" stroke-miterlimit="10" stroke-dasharray="" stroke-dashoffset="0" style="mix-blend-mode: normal"><path d="M559.87231,403.26702l4.85644,4.07284l0.04607,0.16115l0.16559,0.14301l2.15879,7.98751l1.74484,6.10334l-0.04624,0.18148l0.04886,0.1808l-1.65621,6.12798l-2.04281,8.01795l-0.1635,0.14539l-0.04373,0.1618l-4.79691,4.14279l-3.48115,3.09565l-0.16848,0.05631l-0.1472,0.12713l-4.86038,1.54649l-3.37716,1.1287l-0.26606,0.03051l-0.09015,0.02868l-1.25165,0.12516l-2.29232,0.26284l-518.01802,7.50751l-3.9115,-0.33398l-0.45067,-0.13624l-2.00963,-0.05981l-3.39661,-1.57447l-2.77556,-0.83904l-1.19313,-1.00062l-2.93674,-1.3613l-1.34164,-2.22675l-3.22888,-2.70789l-1.11348,-3.89488l-58.96037,-1.70078l-6.51703,0.686l-0.06541,0.00034l-0.06412,0.01295l-15.01502,1.5015l-1.24689,0l-1.2407,0.12407h-21.02102l-1.76416,-0.17642l-1.77138,-0.07485l-8.75167,-1.25024h-10.23532l-0.62305,-0.06231l-0.62539,0.03111l-30.03003,-1.5015l-1.82134,-0.27457l-1.83313,-0.17972l-7.50751,-1.5015l-3.75379,-1.14912l-1.13737,-0.62942l-2.70594,-0.86098l-2.05159,-1.77183l-1.99571,-1.10442l-1.4669,-1.88601l-3.07955,-2.65961l-0.53838,-1.99202l-1.88648,-2.42548l-0.40305,-6.0458l-1.07833,-3.98983l0.65161,-2.41097l-0.16613,-2.49194l1.83986,-3.70087l1.58091,-5.84935l2.32552,-2.00841l0.9186,-1.84775l3.54134,-2.00402l0.63047,-0.5445l-1.33549,-4.70704l3.55056,-10.78565l0.43955,-0.49881l0.43996,-1.62785l4.16148,-3.59401l0.92127,-1.04549l2.10031,-1.56406l1.41069,-1.21832l0.7815,-0.24866l6.36361,-3.81817l2.12998,-1.00471c-0.00255,-0.0077 -0.0051,-0.0154 -0.00764,-0.0231c-0.52406,-1.58425 -0.50724,-3.21075 -0.3391,-4.83315l-0.91961,-1.33695l-6.32278,1.27541l-11.11667,-2.31439l-1.59283,-1.63917l-2.18375,-0.67471l-7.11042,-8.85317l-2.42591,-8.68587l-0.21521,-3.35962l-0.50999,-2.05607l0.58471,-1.59519l1.39103,-38.94887l0.40739,-2.99109l-0.21302,-2.38639l2.45772,-4.44114l0.91706,-2.56188l1.24038,-1.33666l0.88294,-1.59549l2.14788,-1.67057l3.45267,-3.72065l2.33373,-0.54216l0.01523,-0.00741l0.19576,-2.98527l2.15525,-12.93148l-0.04849,-0.125l0.2569,-1.12549l0.63934,-3.83605l1.02749,-3.78888l0.13288,-0.25953l0.4703,-2.06035l1.97575,-2.71709l1.53105,-2.99033l1.62547,-1.35058l0.17147,-0.23581l2.91567,-2.62873l3.13315,-2.30378l0.88793,-0.73777l0.13342,-0.01323l13.45601,-9.89413c-0.40641,-1.03153 -0.79505,-2.07704 -1.30161,-3.03288c-1.3011,-2.45506 -3.52853,-4.59855 -3.93786,-7.34675c-1.33236,-8.94538 2.55263,-16.72227 8.57052,-22.57074l-2.11528,-0.67304l-7.76959,-6.7101l-59.45023,27.10231l-1.66329,0.56613l-0.65527,0.2669l-0.27408,0.04942l-1.12372,0.38248l-2.99418,0.36007l-4.48316,0.80841l-0.7692,-0.17678l-0.70723,0.08505l-3.94605,-1.15448l-5.64406,-1.29713l-0.45403,-0.48696l-0.85405,-0.24987l-4.93703,-5.96119l-3.96478,-4.25231l-0.16651,-0.736l-0.48132,-0.58116l-0.9479,-5.73612l-1.70796,-7.54937l0.32343,-0.829l-0.10855,-0.65688l2.41789,-5.2623l1.49436,-3.83027l0.49908,-0.50826l0.32952,-0.71717l3.37697,-3.0575l2.11294,-2.1518l0.9889,-0.65659l0.20645,-0.18692l0.6114,-0.3561l1.46374,-0.97186l69.75923,-36.8919c-0.56217,-1.36732 -1.00284,-2.79128 -1.53007,-4.16424c-0.68985,-1.79648 -2.09014,-3.3142 -2.53638,-5.18613c-0.26782,-1.12344 0.49103,-2.27616 0.48214,-3.43105c-0.05251,-6.82478 3.10843,-13.67037 8.44736,-18.39661c4.45466,-3.94345 8.91818,-7.87688 13.38846,-11.80264l-183.70499,5.34026l-3.91595,-0.27695l-1.3823,-0.39598l-2.96482,-0.27561l-2.24143,-1.21578l-2.08103,-0.59614l-1.9603,-1.59594l-3.6985,-2.00612l-0.90545,-1.74208l-2.24153,-1.82489l-1.78925,-5.93036l-1.96838,-3.78717l0.11465,-2.35689l-0.68159,-2.25909l0.9934,-4.15094l0.30097,-6.18708l1.7333,-2.31309l0.45696,-1.90942l3.10311,-2.8415l1.51583,-2.02288l1.87492,-1.08201l1.8806,-1.72205l2.81,-0.98489l1.24539,-0.71871l3.73254,-1.21636l76.92999,-16.82844l-66.08147,-1.32163l-3.89766,-0.46866l-0.91671,-0.312l-2.49449,-0.26045l-2.71425,-1.51233l-2.4119,-0.82089l-1.52924,-1.37504l-3.26383,-1.81855l-1.03413,-2.04604l-2.61642,-2.3526l-1.38517,-5.56459l-1.71781,-3.39871l0.16936,-2.82184l-0.68285,-2.7432l1.0669,-3.65566l0.34355,-5.7241l2.14175,-2.79164l0.64228,-2.20073l2.87596,-2.38507l1.25181,-1.63165l2.22097,-1.24836l2.39169,-1.98346l2.40472,-0.71251l0.84414,-0.47447l3.74609,-1.17395l140.4179,-29.05198l-20.36066,-0.97536l-2.12369,-0.31561l-1.08965,-0.13156l-0.15799,-0.05386l-0.51176,-0.07606l-3.18879,-1.18544l-4.6774,-1.5945l-0.27321,-0.2459l-0.31368,-0.11661l-3.26043,-3.10028l-4.59259,-4.13358l-0.07592,-0.30561l-0.29984,-0.28511l-1.74076,-7.92972l-1.49283,-6.00967l0.09913,-0.33906l-0.07574,-0.34504l1.89981,-5.89367l2.27831,-7.79231l0.31861,-0.26397l0.09661,-0.29971l4.86419,-3.81024l3.46457,-2.87035l0.32091,-0.09491l0.28936,-0.22667l4.77538,-1.2713l3.26231,-0.96487l0.51576,-0.04092l0.1613,-0.04294l1.09609,-0.05683l2.14029,-0.16983l160.34021,3.28536l-0.1924,-0.93485l0.24378,-0.7236l-0.06655,-2.32436l4.16625,-10.5631l0.31469,-0.21559l0.12179,-0.3615l9.03016,-6.88425l2.25471,-0.56867l0.62992,-0.43154l1.5201,-0.11072l4.33972,-1.09454l3.9228,-0.1518l4.81299,0.29392l0.33653,-0.02451l0.0877,0.05042l218.57138,13.34765l165.1176,-29.83217l2.26137,-0.17919l1.21332,-0.11769l0.11255,0.01262l0.32623,-0.02585l3.49287,0.45419l5.03044,0.5642l0.20567,0.11667l0.214,0.02783l3.97756,2.34987l5.47938,3.10822l0.09039,0.1823l0.22905,0.13532l3.52836,7.44235l2.80321,5.6533l-0.01537,0.22706l0.09749,0.20564l-0.5371,6.28723l-0.55637,8.21756l-0.16355,0.20983l-0.01732,0.20274l-3.95964,4.89959l-1.03858,1.33247l113.84258,6.9521l1.56128,-0.09415l14.87439,-52.8572l1.43417,-3.65439l0.27445,-0.41675l0.53243,-2.48121l2.99461,-2.87453l1.15857,-1.75926l2.16569,-1.4317l1.87292,-1.79782l1.97098,-0.74331l3.46272,-2.28914l2.53755,0.02626l0.46691,-0.17608l3.88032,-0.59539l114.11411,-6.00601l2.94076,0.13857l3.74621,-0.17252l2.69018,1.64365l3.26981,0.854l8.97196,6.95994l1.96016,5.9841l2.98801,5.54288l-1.1343,11.29824l-1.63315,2.95868l-0.66144,3.08239l-2.70547,2.59698l-1.92515,2.22735l-57.05706,54.05405l-0.1126,0.08716l-0.47845,3.22564l101.75647,80.27455l0.15336,0.05599l0.43082,0.40487l1.64592,1.29845l2.82488,2.72606l0.32869,0.48584l3.04428,2.86088l0.55502,2.45919l1.12545,1.6635l2.15018,11.1496l-2.85577,6.68055l-2.18835,6.92793l-8.89774,7.05457l-1.93778,0.52809l-2.02377,1.50334l-4.17347,0.18554l-0.56594,0.15423l-3.9192,0.2263l-2.09459,-0.08801l-0.59062,0.02626l-0.1528,-0.05749l-76.17988,-3.20084c-0.27324,1.55227 -1.14738,3.13 -1.49452,4.67949c-0.63788,2.84724 0.06546,6.48888 -2.03566,8.51346c-1.48951,1.43525 -3.06509,2.77867 -4.57574,4.19166c-1.05736,0.989 -4.57509,2.98005 -3.12768,3.01375c14.93089,0.3476 31.70906,-6.90863 45.0885,2.00458c2.05549,1.36934 4.98335,2.1089 5.98681,4.36571c1.79059,4.02708 3.37242,8.14717 4.86812,12.29282c0.64962,1.80057 -0.75593,6.97866 -0.80829,7.34922c-0.35338,2.50121 -0.37207,5.04826 -0.82847,7.53273c-0.81537,4.43859 -7.14461,7.30531 -10.04029,10.24298c-1.14365,1.16023 -0.26057,12.34708 -2.37624,16.09094c-8.58481,15.19156 -27.35631,17.33537 -36.34044,34.973c-2.751,5.40075 11.65572,-3.33511 17.52507,-4.84736c5.50379,-1.41806 12.73714,-1.32056 17.91632,1.13359c3.95251,1.87289 5.47828,4.64789 8.01534,8.12807c7.72466,10.59623 7.84151,22.64368 -1.3878,32.58465c-1.5584,1.67857 -3.5891,2.87665 -5.57778,4.01303c-22.96171,13.1209 -45.98904,26.1274 -69.06907,39.03904c-5.20311,2.91077 -11.3689,2.2673 -16.68367,4.69487c-0.23194,0.10594 -0.44753,0.23465 -0.65005,0.38146l-0.91016,34.76809c4.79733,2.25578 10.19042,6.07472 11.59703,9.73664c0.74667,1.94386 0.61411,4.12785 1.14767,6.14067c0.73142,2.75922 2.0836,5.61957 1.60286,8.5762c-1.68036,10.3344 -6.17531,17.63555 -15.54152,21.15585l-0.17543,6.70158c18.67454,4.013 46.39937,11.03823 57.74828,20.5147c0.77203,0.64465 0.66632,1.91241 1.18048,2.77684c1.24189,2.0879 3.11754,3.8113 4.06797,6.04698c0.92822,2.18344 0.10036,8.02578 -0.02275,9.94317c-0.12312,1.91739 -0.04927,7.81763 -1.24911,9.86442c-1.22855,2.09577 -3.30922,3.56513 -4.80794,5.47705c-0.6205,0.79157 -0.6778,2.06244 -1.52593,2.60306c-6.42944,4.09826 -7.841,4.53362 -13.10841,5.26832c-19.61667,2.73614 -39.2329,5.47546 -58.8494,8.21285zM570.5648,-124.44991l-5.31164,18.87529l0.57514,-0.03468l1.4155,-0.77516l0.49719,-0.36191l0.28115,-0.06432l2.72868,-1.49428l0.02124,-0.01578l0.00824,-0.00037l22.7857,-12.47788l5.43344,-5.14747zM637.37894,-5.52337l-41.62823,-32.84004l0.0254,0.13543l-0.09028,3.92469l-0.47815,3.87836l0.02324,0.84495l-0.158,0.24815l-2.70214,21.91736z"/></g></g></svg>