<svg version="1.1" xmlns="http://www.w3.org/2000/svg" xmlns:xlink="http://www.w3.org/1999/xlink" width="355.12094" height="191.89476" viewBox="0,0,355.12094,191.89476"><g transform="translate(-57.98439,-68.50001)"><g data-paper-data="{&quot;isPaintingLayer&quot;:true}" fill-rule="nonzero" stroke="none" stroke-width="0.5" stroke-linecap="butt" stroke-linejoin="miter" stroke-miterlimit="10" stroke-dasharray="" stroke-dashoffset="0" style="mix-blend-mode: normal"><path d="M77.68716,70.43731c1.20673,-0.32911 2.53501,0.06269 3.79723,0.06269c7.63604,0 15.63541,-0.67088 23.23172,0.06083c7.91178,0.76211 15.69181,2.97537 23.44983,4.23018c6.73776,1.08979 14.26715,2.29299 21.09518,2.73314c2.47988,0.15986 4.98709,-0.25458 7.455,0.03668c10.32129,1.21814 20.3199,4.28997 30.75625,4.97827c29.16808,1.92372 58.5816,0.95109 87.78875,0.98505c27.23732,3.33537 54.82568,1.97585 82.22328,1.97585c8,0 16,0 24,0c9.82087,0 19.70689,-1.79886 27.44317,6.30998c4.35706,4.56687 3.99831,9.75149 4.05683,15.19002c0.11831,10.99724 0,22.00208 0,33c0,22.46551 0.27668,44.95265 -0.00693,67.41598c-0.15974,12.65226 -1.87017,25.28037 -2.21862,37.94787c-2.86127,4.58856 -4.1728,10.6376 -8.5838,13.76568c-3.72389,2.64081 -9.12571,0.32001 -13.69065,0.37047c-13.99622,0.15471 -28.00306,0.0063 -42,0c-8.49989,-0.00382 -16.98783,-0.64005 -25.47971,-1.00921c-12.66717,-0.55067 -25.43289,-0.33452 -38.08672,-1.00363c-3.91562,-0.20705 -42.29491,-3.93023 -45.85503,-4.27161c-27.98369,-2.68335 -55.81414,-5.12103 -83.87078,-6.78668c-8.60361,-1.03569 -17.25744,-1.71627 -25.81082,-3.10706c-5.82194,-0.94665 -11.39963,-3.23561 -17.2609,-3.89645c-5.51049,-0.6213 -11.09065,0.06155 -16.63604,0.07464c-3.43992,0.00812 -21.97424,1.01495 -26.30888,-2.35948c-7.83646,-6.10052 -5.63369,-11.75548 -6.16696,-19.3638c-0.43827,-6.25287 -1.0172,-12.50852 -1.02416,-18.77672c-0.02866,-25.83955 0.8644,-51.85523 0.00432,-77.67139c-0.44982,-13.50177 -1.989,-26.83026 -2.00432,-40.3286c0,0 0,-12.5 12.5,-12.5c3.11092,0 5.44761,0.77423 7.20277,1.93731z" fill="#00ff72"/><path d="M397.98438,173c0,12.5 -12.5,12.5 -12.5,12.5l1.95285,-0.64146c-14.0914,4.55274 -29.3648,2.64835 -43.83896,1.61001c-9.47903,-0.68 -18.94423,-0.72485 -28.34561,-2.02939c-5.65092,-0.78412 -11.41262,0.22785 -17.1151,0.05602c-6.00653,-0.18099 -12,-0.66667 -18,-1c-14.35604,-0.05852 -28.69363,-3.20214 -42.82404,-5.36818c-1.22037,-0.18707 -2.43792,-0.37093 -3.65308,-0.55141c-0.03686,0.89988 -0.02426,1.6882 0.09839,2.06056c1.12318,3.40989 3.25499,6.48804 4,10c1.27083,5.99063 0.20724,13.83485 0.13189,19.89113c-0.85124,3.40496 -0.67472,6.98731 -1.06775,10.47499c-0.11804,1.04746 -0.82557,1.96044 -1,3c-0.33096,1.97239 0.16141,3.99776 0.16141,5.99772v1c0,0 0,12.5 -12.5,12.5c-12.5,0 -12.5,-12.5 -12.5,-12.5v-1c0,-2.13354 -0.03584,-8.47337 0.16141,-10.00228c0.13487,-1.04543 0.88541,-1.95215 1,-3c0.34679,-3.17127 0.15852,-6.43009 0.93225,-9.52501c-0.06709,-3.20381 -0.18544,-7.36506 -0.09366,-10.47271c0.01625,-0.5503 0.36098,-1.10253 0.22555,-1.63616c-0.88317,-3.47979 -3.19889,-6.50041 -4,-10c-0.5765,-2.5184 -0.53121,-6.70543 -0.34933,-9.96474c-8.50106,-0.8872 -17.03123,-1.5433 -25.74338,-1.9045c-19.14246,-0.79364 -38.47109,0.00539 -57.63283,0.00539c-2.05217,0 -16.51931,0.0331 -17.73377,-0.12082c-2.40745,-0.30512 -4.60086,-1.63526 -7,-2c-2.93239,-0.44581 -6.01912,0.33553 -8.88854,-0.41553c-2.33717,-0.61175 -4.20763,-2.37535 -6.31145,-3.56302c0,0 -10.40063,-6.93375 -3.46688,-17.33438c6.93375,-10.40063 17.33438,-3.46688 17.33438,-3.46688c-1.38016,1.93642 0.24178,-0.57488 4.80001,0.02145c2.4062,0.31479 4.59728,1.65965 7,2c4.70858,0.66698 9.51065,-0.12082 14.26623,-0.12082c14.66667,0 29.33333,0 44,0c13.35259,0 26.47927,1.0767 39.77672,2.02415c0.94773,0.06753 1.90092,0.02187 2.85354,-0.02217c1.08223,-7.72626 1.79677,-15.47648 0.93057,-23.27027c-0.42409,-3.81583 -1.75478,-7.47575 -2.68761,-11.20002c0,0 -3.0317,-12.12678 9.09509,-15.15848c12.12678,-3.0317 15.15848,9.09509 15.15848,9.09509c0.87533,3.50748 2.87524,10.86512 3.31239,14.79998c1.03379,9.30539 0.30458,19.9525 -0.96232,29.25705c14.58673,2.69054 29.26105,5.55017 43.86998,5.47948c6,0.33333 11.99354,0.81694 18,1c6.29207,0.19177 12.63106,-0.66262 18.8849,0.05602c9.17723,1.05457 18.40477,1.31266 27.65439,1.97061c2.35108,0.16724 4.65618,0.75092 7,1c5.24932,0.55786 10.83815,-0.05399 16.11389,-0.03145c4.01387,0.01715 7.26019,-0.02202 11.04715,-1.35854l5.95285,-0.64146c0,0 12.5,0 12.5,12.5z" fill="#ffffff"/></g></g></svg>