<svg version="1.1" xmlns="http://www.w3.org/2000/svg" xmlns:xlink="http://www.w3.org/1999/xlink" width="426.5" height="172.5" viewBox="0,0,426.5,172.5"><g transform="translate(-16.2344,-29.75)"><g data-paper-data="{&quot;isPaintingLayer&quot;:true}" fill-rule="nonzero" stroke-linecap="butt" stroke-linejoin="miter" stroke-miterlimit="10" stroke-dasharray="" stroke-dashoffset="0" style="mix-blend-mode: normal"><path d="M16.48441,202v-172h426v172z" fill="#350000" stroke="#000000" stroke-width="0.5"/><path d="M144.81493,112.18341c0,33.23838 -25.81762,60.18341 -57.66527,60.18341c-31.84765,0 -57.66527,-26.94503 -57.66527,-60.18341c0,-33.23838 25.81762,-60.18341 57.66527,-60.18341c31.84765,0 57.66527,26.94503 57.66527,60.18341z" fill="#a5ff00" stroke="#000000" stroke-width="2"/><path d="M81.86158,87.25388c0,8.90065 -6.53896,16.11606 -14.60518,16.11606c-8.06622,0 -14.60518,-7.21541 -14.60518,-16.11606c0,-8.90065 6.53896,-16.11606 14.60518,-16.11606c8.06622,0 14.60518,7.21541 14.60518,16.11606z" fill="#ffffff" stroke="#000000" stroke-width="2"/><path d="M121.14447,87.50569c0,9.03972 -6.6517,16.36787 -14.85699,16.36787c-8.20529,0 -14.85699,-7.32815 -14.85699,-16.36787c0,-9.03972 6.6517,-16.36787 14.85699,-16.36787c8.20529,0 14.85699,7.32815 14.85699,16.36787z" fill="#ffffff" stroke="#000000" stroke-width="2"/><path d="M67.2564,85.23937c0,2.50331 -0.45096,4.53264 -1.00725,4.53264c-0.55629,0 -1.00725,-2.02933 -1.00725,-4.53264c0,-2.50331 0.45096,-4.53264 1.00725,-4.53264c0.55629,0 1.00725,2.02933 1.00725,4.53264z" fill="#000000" stroke="#000000" stroke-width="2"/><path d="M103.51753,85.23937c0,2.78146 -0.33822,5.03627 -0.75544,5.03627c-0.41722,0 -0.75544,-2.25481 -0.75544,-5.03627c0,-2.78146 0.33822,-5.03627 0.75544,-5.03627c0.41722,0 0.75544,2.25481 0.75544,5.03627z" fill="#000000" stroke="#000000" stroke-width="2"/><path d="M114.84913,140.1347c0,1.25907 -1.25907,1.25907 -1.25907,1.25907l-1.71256,-0.01626c-1.9512,-0.6406 -3.51901,-0.41593 -5.54018,-0.85433c-0.84909,-0.18417 -1.62214,-0.62871 -2.45578,-0.8735c-3.19015,-0.93674 -6.47086,-1.22767 -9.63098,-2.30119c-2.10569,-0.0475 -3.35536,-1.1063 -5.36196,-1.77018c-2.94769,-0.97524 -4.95253,-1.23532 -8.03428,-1.23532c-1.08076,0 -2.18168,-0.24083 -3.24213,-0.03228c-1.99488,0.39232 -4.00989,1.97665 -6.05368,2.51832c-4.37594,1.15976 -8.88681,1.03934 -13.36739,1.03934c0,0 -1.25907,0 -1.25907,-1.25907c0,-1.25907 1.25907,-1.25907 1.25907,-1.25907c4.26044,0 8.56079,0.14331 12.7234,-0.9556c2.10497,-0.55571 4.0556,-2.11372 6.13117,-2.53751c0.19272,-0.03935 3.24688,-0.03228 3.80864,-0.03228c2.31531,0 4.15862,-0.09836 6.39554,0.55384c0.03423,0.00998 4.62069,1.53525 4.7338,1.5887c0.48784,0.23053 0.81101,0.7617 1.32256,0.93325c0.42609,0.14289 0.89847,-0.02518 1.34771,-0.03777c3.26808,1.07052 6.64768,1.4054 9.93687,2.37062c0.77716,0.22806 1.49281,0.65548 2.28381,0.82954c1.90253,0.41865 3.54218,0.19746 5.40625,0.82886l1.3092,-0.01626c0,0 1.25907,0 1.25907,1.25907z" fill="#000000" stroke="none" stroke-width="0.5"/><text transform="translate(182.48438,121.75) scale(1.12839,1.12839)" font-size="40" xml:space="preserve" fill="#ffffff" fill-rule="nonzero" stroke="none" stroke-width="1" stroke-linecap="butt" stroke-linejoin="miter" stroke-miterlimit="10" stroke-dasharray="" stroke-dashoffset="0" font-family="Sans Serif" font-weight="normal" text-anchor="start" style="mix-blend-mode: normal"><tspan x="0" dy="0">Panagiotis</tspan></text></g></g></svg>