<svg version="1.1" xmlns="http://www.w3.org/2000/svg" xmlns:xlink="http://www.w3.org/1999/xlink" width="355.12094" height="351.91277" viewBox="0,0,355.12094,351.91277"><g transform="translate(-55.9844,-2.50001)"><g data-paper-data="{&quot;isPaintingLayer&quot;:true}" fill-rule="nonzero" stroke="none" stroke-linecap="butt" stroke-linejoin="miter" stroke-miterlimit="10" stroke-dasharray="" stroke-dashoffset="0" style="mix-blend-mode: normal"><path d="M75.68716,6.05279c1.20673,-0.60355 2.53501,0.11497 3.79723,0.11497c7.63604,0 15.63541,-1.23032 23.23172,0.11156c7.91178,1.39762 15.69181,5.45648 23.44983,7.75766c6.73776,1.99855 14.26715,4.20508 21.09518,5.01226c2.47988,0.29316 4.98709,-0.46687 7.455,0.06727c10.32129,2.23393 20.3199,7.86731 30.75625,9.12957c29.16808,3.52788 58.5816,1.74419 87.78875,1.80647c27.23732,6.11668 54.82568,3.62348 82.22328,3.62348c8,0 16,0 24,0c9.82087,0 19.70689,-3.2989 27.44317,11.57177c4.35706,8.37511 3.99831,17.8831 4.05683,27.85674c0.11831,20.16767 0,40.34927 0,60.51818c0,41.19915 0.27668,82.43796 -0.00693,123.6331c-0.15974,23.20278 -1.87017,46.36127 -2.21862,69.592c-2.86127,8.41489 -4.1728,19.50813 -8.5838,25.24466c-3.72389,4.84294 -9.12571,0.58686 -13.69065,0.6794c-13.99622,0.28372 -28.00306,0.01155 -42,0c-8.49989,-0.00701 -16.98783,-1.17378 -25.47971,-1.85077c-12.66717,-1.00987 -25.43289,-0.61347 -38.08672,-1.84054c-3.91562,-0.37971 -42.29491,-7.20759 -45.85503,-7.83364c-27.98369,-4.92095 -55.81414,-9.39138 -83.87078,-12.44599c-8.60361,-1.89934 -17.25744,-3.14744 -25.81082,-5.69799c-5.82194,-1.73605 -11.39963,-5.93373 -17.2609,-7.14564c-5.51049,-1.13939 -11.09065,0.11288 -16.63604,0.13688c-3.43992,0.01489 -21.97424,1.8613 -26.30888,-4.32701c-7.83646,-11.18765 -5.63369,-21.55819 -6.16696,-35.51097c-0.43827,-11.46704 -1.0172,-22.93918 -1.02416,-34.43433c-0.02866,-47.38674 0.8644,-95.09649 0.00432,-142.44034c-0.44982,-24.76068 -1.989,-49.20359 -2.00432,-73.95798c0,0 0,-22.92355 12.5,-22.92355c3.11092,0 5.44761,1.41985 7.20277,3.5528z" fill="#00ff72" stroke-width="0.5"/><path d="M333.48438,170c0,61.85589 -48.35325,112 -108,112c-59.64675,0 -108,-50.14411 -108,-112c0,-61.85589 48.35325,-112 108,-112c59.64675,0 108,50.14411 108,112z" fill="#f3ff00" stroke-width="0"/><path d="M222.48438,128.5c0,17.39697 -13.43146,31.5 -30,31.5c-16.56854,0 -30,-14.10303 -30,-31.5c0,-17.39697 13.43146,-31.5 30,-31.5c16.56854,0 30,14.10303 30,31.5z" fill="#ffffff" stroke-width="0"/><path d="M291.48438,130.5c0,17.39697 -13.43146,31.5 -30,31.5c-16.56854,0 -30,-14.10303 -30,-31.5c0,-17.39697 13.43146,-31.5 30,-31.5c16.56854,0 30,14.10303 30,31.5z" fill="#ffffff" stroke-width="0"/><path d="M201.48438,128.5c0,5.79899 -4.70101,10.5 -10.5,10.5c-5.79899,0 -10.5,-4.70101 -10.5,-10.5c0,-5.79899 4.70101,-10.5 10.5,-10.5c5.79899,0 10.5,4.70101 10.5,10.5z" fill="#000000" stroke-width="0"/><path d="M271.48438,129.5c0,5.79899 -4.70101,10.5 -10.5,10.5c-5.79899,0 -10.5,-4.70101 -10.5,-10.5c0,-5.79899 4.70101,-10.5 10.5,-10.5c5.79899,0 10.5,4.70101 10.5,10.5z" fill="#000000" stroke-width="0"/><path d="M297.68469,200.53313c3.46688,5.20031 -1.73344,8.66719 -1.73344,8.66719l-2.17178,1.34002c-1.09681,1.41937 -1.92102,3.09953 -3.29043,4.25812c-1.36111,1.15157 -3.21051,1.56752 -4.71885,2.51812c-1.53412,0.96686 -2.76471,2.40561 -4.38515,3.21955c-3.26792,1.64147 -7.23656,2.05911 -10.05434,4.39016c-1.77817,1.47102 -3.09023,3.45502 -4.88389,4.90711c-4.44353,3.59732 -6.24184,4.28276 -10.67661,6.48318c-1.57826,1.1297 -2.95255,2.62043 -4.73476,3.38909c-8.34108,3.59747 -19.11413,2.99733 -27.75252,1.42776c-7.41058,-1.34648 -15.54404,-0.8442 -22.73131,-3.18979c-2.27989,-0.74405 -4.24898,-2.23808 -6.459,-3.16939c-2.24821,-0.94741 -4.73614,-1.31949 -6.89405,-2.45767c-1.19694,-0.63133 -1.97829,-1.8472 -2.98408,-2.75253c-2.88099,-2.59323 -6.07203,-4.87156 -8.67594,-7.7429c-1.04729,-1.15485 -1.21957,-2.89716 -2.12442,-4.16671c-0.90509,-1.26988 -2.41239,-2.05091 -3.24631,-3.36862c-1.97223,-3.11644 -2.86082,-8.24181 -3.74682,-11.76997c0,0 -1.51585,-6.06339 4.54754,-7.57924c6.06339,-1.51585 7.57924,4.54754 7.57924,4.54754c0.46809,1.88181 1.02547,6.54071 2.25318,8.23003c0.74639,1.02703 2.01452,1.59915 2.75369,2.63138c0.8282,1.15656 0.91718,2.78209 1.87558,3.83329c2.16335,2.37282 4.93716,4.1093 7.32406,6.2571c0.39864,0.35871 0.52793,1.02509 1.01592,1.24747c1.61786,0.73728 3.46133,0.86685 5.10595,1.54233c1.91853,0.78798 3.57876,2.15882 5.541,2.83061c6.54122,2.23943 14.45622,1.57075 21.26869,2.81021c6.03048,1.09718 10.59314,0.88796 16.74333,-0.02685c1.16925,-0.17392 2.43277,-0.04585 3.50415,-0.54539c1.26304,-0.5889 2.17683,-1.74061 3.26524,-2.61091c3.52725,-1.77615 6.15767,-2.89564 9.32339,-5.51682c1.85343,-1.53462 3.21803,-3.61387 5.11611,-5.09289c3.47001,-2.70391 8.00684,-3.65079 11.94566,-5.60984c1.3611,-0.67697 2.32175,-1.9812 3.61485,-2.78045c1.02083,-0.63097 2.37664,-0.69316 3.28115,-1.48188c1.16068,-1.01209 1.80638,-2.49459 2.70957,-3.74188l3.82822,-2.65998c0,0 5.20031,-3.46687 8.66719,1.73344z" fill="#000000" stroke-width="0.5"/><text transform="translate(116.48438,278) scale(0.5,0.5)" font-size="40" xml:space="preserve" fill="#ffffff" fill-rule="nonzero" stroke="none" stroke-width="1" stroke-linecap="butt" stroke-linejoin="miter" stroke-miterlimit="10" stroke-dasharray="" stroke-dashoffset="0" font-family="Sans Serif" font-weight="normal" text-anchor="start" style="mix-blend-mode: normal"><tspan x="0" dy="0">Click The Emoji Cats</tspan></text></g></g></svg>