<svg version="1.1" xmlns="http://www.w3.org/2000/svg" xmlns:xlink="http://www.w3.org/1999/xlink" width="7.13671" height="8.51189" viewBox="0,0,7.13671,8.51189"><g transform="translate(-108.48438,-282.48811)"><g data-paper-data="{&quot;isPaintingLayer&quot;:true}" fill-rule="nonzero" stroke-linejoin="miter" stroke-miterlimit="10" stroke-dasharray="" stroke-dashoffset="0" style="mix-blend-mode: normal"><path d="M113.62984,287.78181c0,1.22507 -0.92799,2.21818 -2.07273,2.21818c-1.14474,0 -2.07273,-0.99311 -2.07273,-2.21818c0,-1.22507 0.92799,-2.21818 2.07273,-2.21818c1.14474,0 2.07273,0.99311 2.07273,2.21818z" fill="#fff700" stroke="#000000" stroke-width="2" stroke-linecap="butt"/><path d="M111.4662,286.90909c0,0.31129 -0.22386,0.56364 -0.5,0.56364c-0.27614,0 -0.5,-0.25235 -0.5,-0.56364c0,-0.31129 0.22386,-0.56364 0.5,-0.56364c0.27614,0 0.5,0.25235 0.5,0.56364z" fill="#ffffff" stroke="#000000" stroke-width="2" stroke-linecap="butt"/><path d="M112.6662,286.91818c0,0.31631 -0.232,0.57273 -0.51818,0.57273c-0.28618,0 -0.51818,-0.25642 -0.51818,-0.57273c0,-0.31631 0.232,-0.57273 0.51818,-0.57273c0.28618,0 0.51818,0.25642 0.51818,0.57273z" fill="#ffffff" stroke="#000000" stroke-width="2" stroke-linecap="butt"/><path d="M113.32075,287.62727c0.04545,0 0.04545,0.04545 0.04545,0.04545l-0.0048,0.05669c-0.02131,0.04246 -0.03036,0.09119 -0.05654,0.13084c-0.02585,0.03915 -0.06717,0.06717 -0.09026,0.10801c-0.03499,0.06188 -0.03225,0.07938 -0.07689,0.13328c-0.05073,0.06124 -0.10775,0.10712 -0.15434,0.17261c-0.03762,0.03757 -0.06562,0.08402 -0.10322,0.12162c-0.05106,0.05106 -0.11219,0.08483 -0.16063,0.14213c-0.03248,0.03842 -0.05877,0.08301 -0.09724,0.11543c-0.05686,0.0479 -0.12574,0.08969 -0.17849,0.14244c-0.02067,0.02067 -0.03332,0.04817 -0.05235,0.07037c-0.05579,0.06509 -0.12341,0.12357 -0.18402,0.18418c-0.03277,0.03277 -0.0596,0.07329 -0.09915,0.09743c-0.01827,0.01115 -0.04082,0.01305 -0.06057,0.02131c-0.04107,0.01717 -0.07255,0.05195 -0.11157,0.07337c-0.04217,0.02315 -0.08924,0.03613 -0.13259,0.05698c-0.15627,0.06162 -0.2999,0.05513 -0.46462,0.05513c-0.12682,0 -0.24898,0.00098 -0.36543,-0.05917c-0.02384,-0.01231 -0.04746,-0.02637 -0.06672,-0.04505c-0.01429,-0.01387 -0.01627,-0.03812 -0.03181,-0.05056c-0.01384,-0.01109 -0.03563,-0.00653 -0.05085,-0.01564c-0.01562,-0.00934 -0.0239,-0.02806 -0.03904,-0.03816c-0.02255,-0.01504 -0.05027,-0.02119 -0.07273,-0.03636c-0.06203,-0.04191 -0.10592,-0.10713 -0.1692,-0.15019c-0.0478,-0.06989 -0.09604,-0.13746 -0.14847,-0.20332c-0.06673,-0.08383 -0.16281,-0.15148 -0.2217,-0.24128c-0.00786,-0.01198 -0.03214,-0.09779 -0.03969,-0.11559c-0.01153,-0.02717 -0.03077,-0.05122 -0.03861,-0.07968c-0.00167,-0.00606 -0.00122,-0.13637 -0.00122,-0.13772c0,-0.09199 -0.00806,-0.18054 0.02051,-0.26892c0,0 0.01437,-0.04312 0.0575,-0.02875c0.04312,0.01437 0.02875,0.0575 0.02875,0.0575c-0.02663,0.0769 -0.01585,0.1593 -0.01585,0.24017c0,0.03895 -0.01239,0.07952 -0.00122,0.11683c0.00709,0.02366 0.0243,0.04311 0.03412,0.06578c0.01428,0.03297 0.0128,0.0729 0.03303,0.10259c0.01299,0.01907 0.03437,0.03093 0.04975,0.04813c0.05297,0.05923 0.11513,0.12137 0.16492,0.18332c0.05079,0.0632 0.09828,0.12814 0.14244,0.19668c0.06022,0.03921 0.09987,0.10249 0.15807,0.14072c0.02265,0.01488 0.05017,0.02133 0.07273,0.03636c0.01339,0.00892 0.0199,0.02628 0.03368,0.03457c0.01766,0.01062 0.04214,0.00786 0.05824,0.02072c0.03121,0.02495 0.04723,0.069 0.08329,0.0862c0.10741,0.05124 0.20956,0.04992 0.32548,0.04992c0.15109,0 0.2854,0.00936 0.42816,-0.0475c0.0409,-0.01967 0.0855,-0.03148 0.12526,-0.05337c0.04158,-0.0229 0.07583,-0.05896 0.11962,-0.07729c0.01562,-0.00654 0.03391,-0.0065 0.04852,-0.01506c0.03398,-0.0199 0.05482,-0.05654 0.08267,-0.08438c0.05908,-0.05908 0.12523,-0.11601 0.17962,-0.17946c0.02042,-0.02382 0.03456,-0.0529 0.05674,-0.07509c0.05479,-0.05479 0.12551,-0.09938 0.18514,-0.14847c0.03425,-0.02819 0.05587,-0.06893 0.08457,-0.10276c0.03521,-0.04149 0.07329,-0.081 0.11543,-0.11542c0.01578,-0.01289 0.03682,-0.01895 0.05122,-0.03335c0.03581,-0.03581 0.06229,-0.0802 0.09808,-0.11603c0.04615,-0.06488 0.10289,-0.1113 0.15346,-0.17155c0.03555,-0.04235 0.03976,-0.07135 0.06856,-0.12127c0.02386,-0.04136 0.06485,-0.07059 0.09156,-0.11017c0.02505,-0.03714 0.03257,-0.0836 0.05256,-0.1237l-0.0048,-0.01604c0,0 0,-0.04545 0.04545,-0.04545z" fill="#000000" stroke="none" stroke-width="0.5" stroke-linecap="butt"/><path d="M110.95711,287.02727c-0.04545,0 -0.04545,-0.04545 -0.04545,-0.04545l0.00233,-0.02199c-0.01283,-0.0397 -0.02012,-0.08175 -0.02051,-0.12346c0,0 0,-0.04545 0.04545,-0.04545c0.04545,0 0.04545,0.04545 0.04545,0.04545c-0.0004,0.03201 0.00537,0.06447 0.01585,0.09472l0.00233,0.05074c0,0 0,0.04545 -0.04545,0.04545z" fill="#000000" stroke="none" stroke-width="0.5" stroke-linecap="butt"/><path d="M112.17744,287.04065c-0.04066,0.02033 -0.06098,-0.02033 -0.06098,-0.02033l-0.02065,-0.04232c-0.01468,-0.04539 -0.02016,-0.09394 -0.02051,-0.14165c0,0 0,-0.04545 0.04545,-0.04545c0.04545,0 0.04545,0.04545 0.04545,0.04545c-0.00034,0.038 0.00341,0.07699 0.01585,0.1129l0.01572,0.03041c0,0 0.02033,0.04066 -0.02033,0.06098z" fill="#000000" stroke="none" stroke-width="0.5" stroke-linecap="butt"/><path d="M112.85711,285.98181c-0.22593,0 -0.40909,-0.16688 -0.40909,-0.37273c0,-0.20585 0.18316,-0.37273 0.40909,-0.37273c0.22593,0 0.40909,0.16688 0.40909,0.37273c0,0.20585 -0.18316,0.37273 -0.40909,0.37273z" fill="#ffa000" stroke="#000000" stroke-width="2" stroke-linecap="butt"/><path d="M112.77529,285.23636l0.12727,-0.23636l0.09091,0.27273" fill="none" stroke="#ffa000" stroke-width="2" stroke-linecap="round"/><path d="M113.15711,285.38181l0.25455,-0.09091l-0.14545,0.25455" fill="none" stroke="#ffa000" stroke-width="2" stroke-linecap="round"/><path d="M112.84728,285.21019c-0.00106,0.00125 -0.00222,0.00251 -0.00348,0.00376c-0.03214,0.03214 -0.06428,0 -0.06428,0l0.01396,-0.09578c0.00221,0.00002 0.00479,-0.00001 0.00767,-0.00005c0.00842,-0.00812 0.02302,-0.00963 0.03778,-0.00855v-0.03685c0,-0.0251 0.02035,-0.04545 0.04545,-0.04545c0.0251,0 0.04545,0.02035 0.04545,0.04545v0.05455c0,0 0,0.00375 -0.00108,0.00909c0.01399,0 0.02835,0 0.02835,0c0.0251,0 0.04545,0.02035 0.04545,0.04545c0,0.0251 -0.02035,0.04545 -0.04545,0.04545h-0.05455v-0.002c-0.00241,0.00054 -0.00483,0.00101 -0.00728,0.00142c-0.0167,0.00275 -0.03172,-0.01099 -0.04801,-0.01649z" fill="#ffa000" stroke="none" stroke-width="0.5" stroke-linecap="butt"/><path d="M113.20132,285.45582c-0.01016,0.00788 -0.02561,0.01338 -0.04635,0.00301c-0.04066,-0.02033 -0.02033,-0.06098 -0.02033,-0.06098l0.06634,-0.03513l-0.00629,-0.00973c0.00578,0.00146 0.01168,0.00266 0.01764,0.00371l0.01329,-0.00704c0.0037,0.00373 0.0076,0.00729 0.01154,0.01083c0.0021,0.0003 0.0042,0.0006 0.00629,0.00091l0.01161,-0.01742l0.01662,0.01108c0.01395,-0.03157 0.04675,-0.0534 0.07148,-0.07813c0,0 0.03214,-0.03214 0.06428,0c0.03214,0.03214 0,0.06428 0,0.06428c-0.02311,0.02311 -0.04486,0.04386 -0.06752,0.06369c0.05289,0.05503 0.02334,0.12261 -0.08847,0.1108c-0.026,-0.00275 -0.03494,-0.03664 -0.05013,-0.05989z" fill="#ffa000" stroke="none" stroke-width="0.5" stroke-linecap="butt"/><path d="M112.69348,285.4909c0,-0.0251 0.02035,-0.04545 0.04545,-0.04545c0.0251,0 0.04545,0.02035 0.04545,0.04545c0,0.0251 -0.02035,0.04545 -0.04545,0.04545c-0.0251,0 -0.04545,-0.02035 -0.04545,-0.04545z" fill="#000000" stroke="none" stroke-width="0.5" stroke-linecap="butt"/><path d="M112.94802,285.58181c0,-0.0251 0.02035,-0.04545 0.04545,-0.04545c0.0251,0 0.04545,0.02035 0.04545,0.04545c0,0.0251 -0.02035,0.04545 -0.04545,0.04545c-0.0251,0 -0.04545,-0.02035 -0.04545,-0.04545z" fill="#000000" stroke="none" stroke-width="0.5" stroke-linecap="butt"/><path d="M112.88016,285.90486c-0.03214,0.03214 -0.06428,0 -0.06428,0l-0.02916,-0.03595c-0.00828,-0.02714 -0.02291,-0.05368 -0.04357,-0.07314c0,0 -0.00178,-0.00178 -0.00409,-0.00493c-0.0139,0.00046 -0.03423,-0.00396 -0.04325,-0.03102c-0.00031,-0.00094 -0.0006,-0.00186 -0.00086,-0.00277c-0.03423,0.00409 -0.06813,0.01282 -0.10062,0.0239l-0.02285,0.00762c0,0 -0.03954,0.01318 -0.05552,-0.02356c-0.0056,0.00156 -0.01132,0.00334 -0.01721,0.00538l-0.03256,0.00233c0,0 -0.04545,0 -0.04545,-0.04545c0,-0.04545 0.04545,-0.04545 0.04545,-0.04545l0.00381,0.00233c0.05617,-0.01816 0.10078,-0.02024 0.15612,-0.02048c-0.01765,-0.01528 -0.03627,-0.02974 -0.05787,-0.04403l-0.02511,-0.02386c0,0 -0.03214,-0.03214 0,-0.06428c0.03214,-0.03214 0.06428,0 0.06428,0l0.01125,0.0125c0.05203,0.03492 0.09022,0.07079 0.1342,0.11477c0,0 0.00371,0.00371 0.00735,0.00987c0.00568,0.00261 0.01148,0.00659 0.01597,0.01265c0.01516,-0.00094 0.03039,-0.00233 0.04475,0.00135c0.04096,-0.01026 0.08173,-0.02148 0.12178,-0.03485l0.05455,-0.01818c0,0 0.04312,-0.01437 0.0575,0.02875c0.01437,0.04312 -0.02875,0.0575 -0.02875,0.0575l-0.05455,0.01818c-0.01786,0.00594 -0.03586,0.0115 -0.05394,0.01675c0.00522,0.0059 0.02762,0.03454 -0.00102,0.06318c-0.01875,0.01875 -0.0375,0.01562 -0.04987,0.00976c0.00226,0.00544 0.00436,0.01093 0.00631,0.01645l0.0072,0.00041c0,0 0.03214,0.03214 0,0.06428z" fill="#000000" stroke="none" stroke-width="0.5" stroke-linecap="butt"/></g></g></svg>