<svg version="1.1" xmlns="http://www.w3.org/2000/svg" xmlns:xlink="http://www.w3.org/1999/xlink" width="422.21694" height="196.33157" viewBox="0,0,422.21694,196.33157"><g transform="translate(-38.98437,-51.5)"><g data-paper-data="{&quot;isPaintingLayer&quot;:true}" fill-rule="nonzero" stroke="none" stroke-width="0.5" stroke-linecap="butt" stroke-linejoin="miter" stroke-miterlimit="10" stroke-dasharray="" stroke-dashoffset="0" style="mix-blend-mode: normal"><path d="M150.63387,148.52152c-1.98273,0.12697 -3.90876,0.12883 -5.82368,0.1397c1.70621,0.08485 3.42544,0.15775 5.15281,0.21655c0.21919,-0.12028 0.44291,-0.23892 0.67087,-0.35625zM229.55946,199.7384c-0.0294,-0.08395 -0.05832,-0.1682 -0.08677,-0.25277c-0.08786,-0.11732 -0.17371,-0.23624 -0.25749,-0.3567c-0.30604,0.14972 -0.61091,0.29589 -0.91085,0.43687c0.41833,0.05801 0.83669,0.11577 1.25511,0.1726zM56.5695,52.35529c3.30497,-0.51498 6.22645,0.68678 8.18709,1.8732c2.51221,-0.34955 5.16497,0.27151 7.72779,0.27151c5,0 10,0 15,0c14.82591,0 29.41751,0.93622 44.23172,1.06083c5.33023,1.06605 9.96557,0.25256 15.29557,1.03282c5.98404,0.87601 11.69361,3.29924 17.70443,3.96718c5.03113,0.55907 10.66774,-0.06083 15.76828,-0.06083c10.54108,0 21.46169,0.88308 31.96899,0.04259c2.02113,-0.16167 3.97998,-0.82495 6,-1c5.58885,-0.48432 11.4094,-0.04259 17.03101,-0.04259c13,0 26,0 39,0c9.91249,0.01712 19.54999,-1.41408 29.43357,-1.98716c7.14078,-0.41405 14.41205,-0.03351 21.56643,-0.01284c3.97691,0.01149 7.91635,0.79284 11.88611,1.03145c11.60341,0.69744 23.48268,-0.08492 35.11389,-0.03145c3.76053,0.01729 7.48841,0.70093 11.23172,1.06083c5.87688,0.56503 13.04349,-0.06083 18.76828,-0.06083c11,0 22,0 33,0c1.97987,0 10.29476,-0.13455 11.6223,0.53635c3.91508,1.97854 7.88262,4.47207 10.39863,8.06543c1.72458,2.46303 1.21689,5.90291 1.47907,8.89822c0.79337,9.06414 -0.4107,18.39244 -0.0108,27.48052c0.17645,4.00998 0.82002,7.99017 1,12c0.23915,5.32797 -0.30132,10.67519 0,16c0.71993,12.72208 1.68326,25.52452 0.98664,38.2962c-0.14636,2.68343 -0.80221,5.31987 -1,8c-0.52073,7.05615 0.58714,14.18741 -0.13725,21.22556c-0.25084,2.43716 -1.61381,4.63378 -2.20719,7.01087c-1.90848,7.64537 -2.09895,15.4925 -4.79281,22.98913c-0.05766,1.28988 0.40158,2.71335 -0.17298,3.86963c-2.07659,4.17911 -3.93915,8.85959 -7.59397,11.76122c-3.07484,2.44117 -15.03425,1.86686 -18.57164,1.86686c-8.66667,0 -17.33333,0 -26,0c-5.48791,0 -12.41646,0.50972 -17.6223,-0.53635c-0.91688,-0.18424 -1.60362,-0.91126 -2.34543,-1.52164c0.01981,0.03259 0.01337,0.05415 -0.03227,0.05799c-2.32513,0.19554 -4.66667,0 -7,0c-4.38587,0 -9.39787,-0.57596 -13.76828,-0.06083c-3.76762,0.44408 -7.4552,1.41553 -11.20071,2.01824c-25.67258,0.27126 -51.35759,0.04259 -77.03101,0.04259c-12.85907,0 -26.07964,0.76657 -38.88611,-0.03145c-14.26522,-0.88892 -28.49081,-4.27768 -42.80514,-4.98768c-0.9189,-0.04558 -19.10536,0.09935 -20.23845,-0.01549c-6.9132,-0.7007 -13.72644,-2.18714 -20.61979,-3.06179c-7.15278,-0.90756 -14.46365,-0.7533 -21.50949,-2.28367c-4.03487,-0.87638 -7.59498,-3.24178 -11.39246,-4.86267c-9.51817,0.30608 -19.02538,0.24274 -28.54855,0.24274c-3.33301,0 -6.69332,-0.59716 -9.99772,-0.16141c-4.10148,0.54087 -8.10168,1.80816 -12.22556,2.13725c-1.74442,0.13921 -3.50654,-0.22665 -5.24943,-0.0695c-2.02648,0.18272 -4.08406,1.74952 -6.007,1.08445c-4.98223,-1.72318 -10.74648,-3.53429 -13.70063,-7.90062c-3.44191,-5.08725 1.12405,-13.26921 1.74117,-18.82189c0.41722,-3.75402 -0.06083,-8.00446 -0.06083,-11.76828c0,-9.66667 0,-19.33333 0,-29c0,-17 0,-34 0,-51c0,-8.39513 1.07611,-17.48647 0.06083,-25.76828c-0.38219,-3.11762 -1.38946,-6.13016 -1.89943,-9.22944c-1.03991,-6.31992 -1.16141,-11.73681 -1.16141,-18.00228c0,0 0,-12.5 12.5,-12.5c1.99713,0 3.67518,0.31908 5.08512,0.85529z" fill="#29ff00"/><path d="M98.58586,139.76741c-0.22612,1.58739 -0.46838,3.17258 -0.69514,4.75988c-0.55095,3.85662 -1.52499,7.67566 -2.06775,11.47499c-0.18856,1.31993 0.20737,2.68289 0,4c-0.35279,2.24076 -1.70236,4.26833 -1.93225,6.52501c-0.5214,5.11831 -1.34668,9.89962 -2,15c-0.20491,1.59971 0.23133,3.2652 -0.13189,4.83655c-0.58197,2.51771 -1.779,4.85236 -2.6685,7.27854c0,0 -4.64238,11.60596 -16.24834,6.96358c-11.60596,-4.64238 -6.96358,-16.24834 -6.96358,-16.24834c2.15911,-4.413 1.57606,-9.5203 2.26737,-14.35989c0.65526,-4.58729 2.4513,-9.44142 3,-14c0.70288,-5.83955 1.09566,-11.66886 1.93225,-17.52501c0.19437,-1.36056 0.77545,-2.6441 1,-4c0.08265,-0.49905 0.1239,-1.00251 0.13958,-1.50862c-0.76096,-1.57695 -1.23324,-3.53438 -1.23324,-5.96409c0,-4.41151 1.55691,-7.2661 3.5718,-9.11325c0.49876,-3.97999 -0.01498,-7.7233 0.58961,-11.88903c0.1514,-1.04316 0.7836,-1.96836 1,-3c0.94391,-4.49978 -1.00118,-7.91416 1.33709,-12.49257c1.9074,-3.73474 3.3728,-8.33471 6.98639,-10.46273c3.31781,-1.95384 7.69537,-0.28844 11.54241,-0.44877c5.66969,-0.23629 10.9797,-0.08498 16.47499,1.06775c2.89412,0.60709 5.96809,-0.39755 8.86963,0.17298c1.4627,0.28761 2.57138,1.57423 4,2c0.68278,0.20349 1.43671,-0.3356 2.13037,-0.17298c4.1864,0.98144 8.0814,3.19085 11.56936,5.70546c7.30931,3.51792 17.75374,7.68389 18.86753,17.40141c0.45068,3.93206 -2.34645,7.58762 -4.03854,11.16547c-2.60687,5.51211 -6.18346,6.67245 -11.18097,10.27049c-3.57215,2.57182 -7.38208,5.98085 -11.4003,7.85854c-2.73146,1.27639 -5.51851,2.53046 -8.45551,3.21168c-3.0399,0.70508 -6.27103,-0.36798 -9.36157,0.06414c-1.04394,0.14596 -1.95294,0.87842 -3,1c-4.51011,0.52369 -9.20741,0.53319 -13.9008,0.42881zM101.9767,114.50673c2.17158,0.05739 4.35711,0.45504 6.5054,0.15467c1.04394,-0.14596 1.95294,-0.87842 3,-1c2.86034,-0.33213 5.80292,0.56585 8.63843,0.06414c2.22729,-0.39409 4.90095,-2.62359 7.18626,-4.56017c-0.78131,-0.59073 -1.58003,-1.16134 -2.31225,-1.80878c-1.13645,0.04674 -2.29364,0.10956 -3.38208,-0.19098c-1.43694,-0.39677 -2.56148,-1.60901 -4,-2c-0.69293,-0.18834 -1.41023,0.31697 -2.12809,0.33439c-1.6678,0.04046 -3.35128,0.07821 -5.00228,-0.16141c-1.34746,-0.19556 -2.63685,-0.88254 -3.99772,-0.83859c-1.18136,0.03815 -2.36339,0.0451 -3.54555,0.0389c0.01982,0.82546 0.00247,1.64806 -0.11586,2.46338c-0.1514,1.04316 -0.7836,1.96836 -1,3c-0.2738,1.30525 0.17605,2.66414 0.16141,3.99772c-0.00185,0.16883 -0.0044,0.33775 -0.00768,0.50673z" fill="#ffffff"/><path d="M214.98438,202c0,12.5 -12.5,12.5 -12.5,12.5h-1c-6.98653,-0.11838 -13.33824,-2.3212 -20.23172,-3.06083c-3.00124,-0.32202 -5.99944,-0.67171 -9,-1c-2.20213,-0.24094 -4.60328,0.59733 -6.64019,-0.27355c-4.29087,-1.83456 -9.1698,-3.71303 -11.76122,-7.59397c-2.34879,-3.51758 -1.13697,-8.38261 -1.70546,-12.57392c1.59386,-4.78159 0.27163,-9.52792 0.93225,-14.52501c0.49967,-3.77965 1.33941,-7.51035 2.21235,-11.22161c2.04821,-8.70785 5.90989,-16.60792 8.06722,-25.2828c1.80374,-7.25306 2.97829,-14.51088 5.18517,-21.66261c0.86164,-2.79228 0.19006,-5.31448 0.44161,-8.3057c0.19161,-2.27842 1.28254,-2.90953 0.09937,-2.06625c0,0 -6.93375,-10.40063 3.46688,-17.33438c10.40063,-6.93375 17.33438,3.46688 17.33438,3.46688c1.18767,2.10382 2.96107,3.97174 3.56302,6.31145c1.13321,4.40466 1.03176,15.69579 0.37494,20.62458c-0.49302,3.69971 -2.31447,7.10769 -3.1446,10.74662c-1.74953,7.66921 -2.81245,15.58781 -5.30033,23.09697c-1.77101,5.34545 -4.46268,10.40939 -5.69967,15.90303c-0.65597,2.91325 -1.29952,5.83237 -1.78765,8.77839c-0.42836,2.58529 -0.26578,5.10928 -0.20333,7.63623c0.67099,0.16669 1.34394,0.32123 2.02871,0.39731c1.32518,0.14724 2.67527,-0.15122 4,0c5.88832,0.67215 11.86332,3.16282 17.76828,2.93917h1c0,0 12.5,0 12.5,12.5z" fill="#ffffff"/><path d="M264.95708,185.40634c-2.73807,-0.39175 -5.73696,-0.24096 -8.67924,-0.08339c-1.21527,2.70371 -2.49313,5.37707 -3.98209,7.95113c-1.20356,2.08068 -2.76188,3.9397 -4,6c-3.50817,5.83778 -6.16671,11.61272 -10.97254,16.56475c0,0 -8.83883,8.83883 -17.67767,0c-8.83883,-8.83883 0,-17.67767 0,-17.67767c3.3173,-3.07381 4.74958,-7.63311 7.02746,-11.43525c1.23534,-2.06197 2.77991,-3.92897 4,-6c3.86882,-6.56709 6.2386,-14.01273 9.8538,-20.74103c4.12798,-7.68264 8.76704,-15.52332 13.51087,-22.84902c0.5997,-0.9261 1.66848,-1.52023 2.15999,-2.50801c0.44811,-0.90057 0.20335,-2.02533 0.56316,-2.96468c0.73724,-1.92474 1.73234,-3.74297 2.70263,-5.5614c3.26934,-6.12706 5.10688,-8.83784 7.14343,-15.26051l1.30532,-0.57591c0.2683,-0.65507 0.5906,-1.28231 0.96137,-1.87616l-0.22802,-0.22802l2,-2c2.26206,-2.26206 5.38706,-3.66117 8.83883,-3.66117c6.59406,0 11.99557,5.10589 12.46664,11.57976l0.99018,11.88217l-0.29052,0.02421c1.65606,5.36245 2.84609,10.89681 3.30226,17.12775c0.04075,0.55664 0.03145,13.83436 0.03145,14.88611c0,4.56825 0.42952,9.96968 -0.09366,14.52729c-0.01949,0.16981 -0.04665,0.33819 -0.07964,0.5055c1.9935,2.94974 4.68362,8.97885 -0.83555,15.11869c0.00569,0.2852 0.00885,0.56817 0.00885,0.84852c0,3.72398 -0.407,7.38728 0.62678,10.9683l-13.12678,15.5317c0,0 -12.5,0 -12.5,-12.5c0,-1.12658 0.10154,-2.15163 0.2863,-3.08429c-0.53568,-4.16728 -0.71555,-8.50381 -0.64626,-12.83486c-1.48782,-0.74244 -2.99977,-1.43592 -4.66733,-1.67451zM271.17547,156.92577c-0.77124,1.26297 -1.53836,2.53218 -2.29849,3.80595c0.86459,0.15251 1.69198,0.34224 2.49379,0.5608c-0.04674,-1.45698 -0.12289,-2.92006 -0.1953,-4.36675z" fill="#ffffff"/><path d="M309.89421,221.18034c-9.43949,-4.71974 -6.92443,-13.42434 -5.91235,-16.02063c0.01651,-4.81631 0.27567,-8.92648 2.86939,-13.73135c0.67178,-1.24447 2,-2 3,-3c0.13036,-1.86657 1.32316,-3.50275 2.08464,-5.2119c0.69957,-1.5702 0.96123,-3.35821 1.91536,-4.7881c3.12691,-4.68608 4.24064,-4.26806 7.18996,-7.61838c1.54009,-1.74949 2.61722,-3.94656 4.43383,-5.40687c1.96922,-1.583 4.63379,-2.09015 6.70046,-3.54363c0.03472,-0.02442 0.06909,-0.04925 0.10312,-0.07447c-0.84848,-0.93101 -1.65985,-1.89874 -2.46102,-2.86014c-2.1125,-2.535 -4.84679,-4.49948 -7,-7c-0.59367,-0.68943 -0.77263,-1.68928 -1.41389,-2.33467c-1.43845,-1.4477 -3.58314,-2.19002 -4.74735,-3.8662c-1.99375,-2.87053 -3.00716,-6.31007 -4.5117,-9.46464c-0.82726,-1.73452 -1.89689,-3.37273 -2.4837,-5.20264c-0.24774,-0.77255 -0.2269,-1.60108 -0.20741,-2.42239c-1.24359,-1.37158 -7.8588,-9.42237 0.19199,-17.47315c8.83883,-8.83883 17.67767,0 17.67767,0c1.39403,1.64687 3.20497,3.01688 4.1821,4.94061c1.06801,2.10263 1.03472,4.61167 1.80248,6.84152c0.34529,1.00285 1.11416,1.81592 1.5163,2.79736c0.60328,1.4723 0.56642,3.23854 1.4883,4.53536c0.7513,1.05687 2.33263,1.22002 3.25265,2.1338c1.06091,1.05371 1.61579,2.52765 2.58611,3.66533c2.14134,2.51069 4.8875,4.465 7,7c0.13551,0.16261 0.24192,0.3461 0.33567,0.53849c0.11297,-0.05489 0.21844,-0.11315 0.31319,-0.17626c2.45847,-1.6377 5.51228,-2.32154 7.8259,-4.15819c1.15425,-0.9163 1.58043,-2.50092 2.54437,-3.61569c0.39625,-0.45825 2.93147,-2.97688 5.05537,-5.076c0.9325,-1.08697 1.97304,-2.08594 3.02485,-3.0613c0.57194,-0.77705 1.13783,-1.5586 1.6985,-2.3439c0.09649,-1.32036 0.04918,-2.71403 1.12182,-3.09662c0.45363,-0.1618 0.90971,-0.31444 1.368,-0.45874c0.12646,-0.18379 0.25272,-0.36772 0.37877,-0.55179l0.09941,0.40446c0.34186,-0.10305 0.68491,-0.20165 1.02906,-0.29613c0.07043,-0.16851 0.14444,-0.33516 0.22194,-0.49983l-0.52247,-0.52247l0.69126,-0.69126l-0.35243,-0.4699l3.89899,-2.92424c2.10618,-1.61556 4.74146,-2.57576 7.60101,-2.57576c6.90356,0 12.5,5.59644 12.5,12.5c0,4.37242 -2.24497,8.22051 -5.64513,10.45448c0.11572,0.74523 -0.54597,2.01363 -0.97737,2.70426c-0.88104,1.41045 -2.13168,2.53273 -3.38952,3.65108c-0.3479,0.46053 -0.69674,0.92024 -1.0448,1.38021c-0.83741,0.8455 -1.68925,1.67716 -2.54301,2.50696c-0.66093,1.16112 -0.97858,2.52516 -1.75964,3.61189c-1.67047,2.32424 -3.61165,4.44224 -5.47375,6.61598c-4.78131,5.58149 -9.71802,11.33671 -15.82492,15.53645c-3.1564,2.17067 -7.16129,2.99396 -10.14921,5.39126c-1.59434,1.27919 -2.70644,3.11972 -4.38377,4.28796c-1.59771,1.11279 -3.73103,1.30278 -5.29954,2.45637c-0.81348,0.59828 -0.922,1.81548 -1.56617,2.59313c-1.38354,1.67024 -3.61093,2.5744 -4.81004,4.38162c-0.22389,0.33743 0.06575,0.83591 -0.08464,1.2119c-1.19097,2.9776 -2.72426,5.81054 -3.91536,8.7881c-0.69256,0.69256 -1.28916,1.50587 -1.98917,2.18905c-0.02471,0.40273 -0.15571,0.87541 -0.14396,1.23931c0.03228,0.99948 0,2 0,3l-2.31966,7.59017c0,0 -5.59017,11.18034 -16.77051,5.59017z" fill="#ffffff"/><path d="M425.48438,176.5c-12.5,0 -12.5,-12.5 -12.5,-12.5c0,-5.33333 0,-11.66667 0,-17c0,-3.2364 0.64361,-8.15196 0.09366,-11.47271c-0.22455,-1.3559 -0.86282,-2.6325 -1,-4c-0.68895,-6.86769 -0.17209,-13.95819 -2.4522,-20.57444c0,0 -3.95285,-11.85854 7.90569,-15.81139c11.85854,-3.95285 15.81139,7.90569 15.81139,7.90569c2.07219,6.34604 2.98342,13.11144 3.58063,19.72113c0.17111,1.89379 -0.2214,3.8123 -0.03282,5.70443c0.1363,1.36759 0.82516,2.6368 1,4c1.26644,9.87453 0.09366,20.55876 0.09366,30.52729v1c0,0 0,12.5 -12.5,12.5z" fill="#ffffff"/><path d="M418.53153,229.85854c-11.85854,-3.95285 -7.90569,-15.81139 -7.90569,-15.81139l0.51995,-1.04943c-0.42216,-2.60954 -0.16141,-5.35537 -0.16141,-7.99772c0,0 0,-12.5 12.5,-12.5c12.5,0 12.5,12.5 12.5,12.5c0,4.00787 -0.03211,7.99522 -0.16141,12.00228l-1.48005,4.95057c0,0 -3.95285,11.85854 -15.81139,7.90569z" fill="#ffffff"/></g></g></svg>