<svg version="1.1" xmlns="http://www.w3.org/2000/svg" xmlns:xlink="http://www.w3.org/1999/xlink" width="226" height="269.55321" viewBox="0,0,226,269.55321"><g transform="translate(-105.48438,-50)"><g data-paper-data="{&quot;isPaintingLayer&quot;:true}" fill-rule="nonzero" stroke-linecap="butt" stroke-linejoin="miter" stroke-miterlimit="10" stroke-dasharray="" stroke-dashoffset="0" style="mix-blend-mode: normal"><path d="M330.48438,164c0,62.40818 -50.14411,113 -112,113c-61.85589,0 -112,-50.59182 -112,-113c0,-62.40817 50.14411,-113 112,-113c61.85589,0 112,50.59183 112,113z" fill="#ff0000" stroke="#000000" stroke-width="2"/><path d="M212.4844,123c0,18.77768 -14.77461,34 -33,34c-18.22539,0 -33,-15.22232 -33,-34c0,-18.77768 14.77461,-34 33,-34c18.22539,0 33,15.22232 33,34z" fill="#ffffff" stroke="#000000" stroke-width="2"/><path d="M290.48438,124c0,19.88225 -14.77461,36 -33,36c-18.22539,0 -33,-16.11775 -33,-36c0,-19.88225 14.77461,-36 33,-36c18.22539,0 33,16.11775 33,36z" fill="#ffffff" stroke="#000000" stroke-width="2"/><path d="M185.4844,122c0,4.97056 -2.68629,9 -6,9c-3.31371,0 -6,-4.02944 -6,-9c0,-4.97056 2.68629,-9 6,-9c3.31371,0 6,4.02944 6,9z" fill="#000000" stroke="#000000" stroke-width="2"/><path d="M261.48438,121c0,6.07513 -2.23858,11 -5,11c-2.76142,0 -5,-4.92487 -5,-11c0,-6.07513 2.23858,-11 5,-11c2.76142,0 5,4.92487 5,11z" fill="#000000" stroke="#000000" stroke-width="2"/><path d="M158.36636,240.23607c-2.23607,-1.11803 -1.11803,-3.3541 -1.11803,-3.3541l1.14367,-2.25013c2.33935,-3.57685 4.80637,-7.1819 6.93012,-10.88666c0.78192,-1.36402 1.21697,-2.92922 2.13381,-4.20646c1.8155,-2.52916 4.57397,-4.2695 6.45517,-6.75018c1.1306,-1.49088 1.62944,-3.47458 3.00897,-4.73865c0.96553,-0.88472 2.45888,-0.90303 3.67587,-1.3867c3.50024,-1.39111 6.85947,-2.95482 10.44981,-4.12061c6.29178,-1.2638 12.8045,-3.25525 19.16585,-4.02765c4.037,-0.49018 8.4054,-0.0185 12.47807,-0.01264c5.02878,0.00723 10.2283,-0.28259 15.23922,0.20867c6.5834,0.64542 13.1252,2.32494 19.73272,2.79533c6.61,0.47057 12.75191,-0.25489 19.31307,1.04226c0,0 2.45145,0.49029 1.96116,2.94174c-0.49029,2.45145 -2.94174,1.96116 -2.94174,1.96116c-6.32178,-1.28037 -12.29845,-0.50446 -18.68693,-0.95774c-6.65442,-0.47215 -13.24038,-2.15029 -19.86856,-2.80685c-4.84654,-0.48008 -9.89187,-0.17759 -14.75548,-0.18458c-3.88977,-0.00559 -8.07298,-0.49088 -11.92595,-0.01721c-6.12529,0.75302 -12.38167,2.68741 -18.44577,3.89467c-3.40963,1.111 -6.56741,2.78136 -9.93857,3.95706c-0.75654,0.26385 -1.75691,0.04742 -2.32413,0.6133c-1.03615,1.03371 -1.26579,2.65945 -2.13599,3.83628c-1.83268,2.47844 -4.61088,4.16473 -6.39987,6.6749c-0.8179,1.14761 -1.16875,2.56898 -1.86619,3.79354c-2.15552,3.78466 -4.68492,7.46508 -7.06988,11.11334l-0.85633,1.74987c0,0 -1.11803,2.23607 -3.3541,1.11803z" fill="#000000" stroke="none" stroke-width="0.5"/><text transform="translate(180.28048,313.30321) scale(0.5,0.5)" font-size="40" xml:space="preserve" fill="#ffffff" fill-rule="nonzero" stroke="none" stroke-width="1" stroke-linecap="butt" stroke-linejoin="miter" stroke-miterlimit="10" stroke-dasharray="" stroke-dashoffset="0" font-family="Sans Serif" font-weight="normal" text-anchor="start" style="mix-blend-mode: normal"><tspan x="0" dy="0">Tolisxris</tspan></text></g></g></svg>