<svg version="1.1" xmlns="http://www.w3.org/2000/svg" xmlns:xlink="http://www.w3.org/1999/xlink" width="446.44078" height="205.78737" viewBox="0,0,446.44078,205.78737"><g transform="translate(-28.25098,-65.7977)"><g data-paper-data="{&quot;isPaintingLayer&quot;:true}" fill-rule="nonzero" stroke="none" stroke-width="0.5" stroke-linecap="butt" stroke-linejoin="miter" stroke-miterlimit="10" stroke-dasharray="" stroke-dashoffset="0" style="mix-blend-mode: normal"><path d="M30.27566,85.55501c-1.05707,-1.71943 -1.74807,-3.96739 -1.74807,-6.90635c0,-12.5 12.5,-12.5 12.5,-12.5c2.5025,0 12.51251,0 15.01502,0c23.52352,0 47.04705,0 70.57057,0c12.51215,0 25.68973,-0.80225 38.22879,0.01913c4.52253,0.29625 8.99329,1.1719 13.51351,1.5015c7.25782,0.52921 14.55418,-0.01913 21.83127,-0.01913c10.51051,0 21.02102,0 31.53153,0c1.10718,0 21.32234,-0.00967 21.90713,0.03145c3.6685,0.25792 7.26268,1.20291 10.92495,1.5379c7.19857,0.65844 14.41548,1.14248 21.63795,1.44058c4.70552,0.19422 9.44,-0.40842 14.12855,0.03567c6.24941,0.59192 12.35753,2.24507 18.58146,3.06252c5.14011,0.6751 10.32567,0.94149 15.4885,1.41223c4.31569,-0.00428 8.63142,-0.02991 12.94708,-0.01284c2.49408,0.00987 5.02435,0.52014 7.48172,0.09366c5.94295,-1.03141 11.585,-3.49631 17.54303,-4.43675c16.39653,-2.5881 33.51805,-1.66291 50.05033,-1.66291c6.00601,0 12.01776,-0.26267 18.01802,0c0.55496,0.02429 1.09391,0.47001 1.63259,0.33439c1.08528,-0.27324 1.88974,-1.6162 3.003,-1.5015c5.00191,0.51532 10.83595,0.12563 14.71375,3.32678c4.63049,3.8225 3.66117,15.18207 3.66117,20.85085c0,8.2271 0.6278,16.86998 -0.04259,25.05503c-0.64767,7.90767 -2.44793,15.69912 -2.97593,23.61569c-0.31926,4.78682 0.01552,9.59489 0.01552,14.39234c0,7.50751 0,15.01502 0,22.52252c0,3.66036 -0.4224,7.3404 -0.04259,10.98101c0.3159,3.02799 1.20684,5.97888 1.5015,9.00901c0.15516,1.59557 -0.5577,3.25423 -0.15799,4.8067c0.90025,3.49654 2.75749,6.67641 3.98843,10.07066c2.35907,6.50498 3.91496,13.30907 5.05108,20.13469c0.5563,3.34214 1.28678,6.66219 1.62899,10.03299c0.18551,1.82726 -0.28058,3.68747 -0.05106,5.50972c0.94309,7.48761 5.7819,10.70169 -2.06601,19.37513c-2.77206,3.06366 -7.79449,2.83092 -11.84184,3.66117c-1.96117,0.4023 -4.004,0 -6.00601,0c-6.50651,0 -13.01301,0 -19.51952,0c-5.7668,0 -12.01806,0.61514 -17.74824,-0.06083c-2.53449,-0.29899 -4.96927,-1.2362 -7.50751,-1.5015c-8.55187,-0.89387 -17.19685,0.06083 -25.79531,0.06083c-6.91711,0 -13.86589,0.60128 -20.75124,-0.06083c-2.54034,-0.24429 -4.96424,-1.28978 -7.50751,-1.5015c-3.42476,-0.28511 -6.89252,0.38217 -10.3098,0.01824c-6.46317,-0.6883 -12.84503,-2.00592 -19.24052,-3.16522c-4.68443,-0.84914 -9.25024,-2.44789 -13.99322,-2.85903c-9.5636,-0.82899 -19.19885,0.06083 -28.79831,0.06083c-23.52352,0 -47.04705,0 -70.57057,0c-13.66062,0 -27.61686,0.94218 -41.2318,-0.01913c-3.53684,-0.24973 -22.41368,-2.50744 -26.63736,-3.1146c-2.75742,-0.39639 -5.45482,-1.27067 -8.23693,-1.41336c-18.03158,-0.92486 -36.46379,0.04259 -54.52455,0.04259c-9.00901,0 -18.06872,0.95441 -27.02703,0c-6.52728,-0.69541 -14.21008,0.42258 -19.34935,-3.66117c-3.91803,-3.11334 -3.19004,-9.58752 -3.60033,-14.57506c-0.19642,-2.38775 2.72693,-11.9302 3.003,-15.01502c0.62309,-6.96224 -0.06083,-14.28776 -0.06083,-21.2908c0,-10.01001 0,-20.02002 0,-30.03003c0,-3.99553 0.54974,-8.01681 0.09366,-11.98622c-0.20613,-1.79402 -1.09089,-3.45596 -1.38263,-5.23806c-0.7343,-4.48551 -1.33385,-8.99928 -1.68988,-13.53053c-0.3462,-4.40617 0.47705,-8.86334 0.01844,-13.25922c-0.3159,-3.02799 -1.2734,-5.97314 -1.5015,-9.00901c-0.69243,-9.21568 -0.04259,-18.79436 -0.04259,-28.05803c0,0 0,-3.36777 1.74807,-6.60716z" fill="#ff0000"/><path d="M196.08026,249.5c-12.5,0 -12.5,-12.5 -12.5,-12.5v-3c0,-0.672 -0.01412,-11.37654 0.04259,-12.03101c0.17505,-2.02002 0.85072,-3.97792 1,-6c0.39189,-5.30857 -0.04259,-10.64598 -0.04259,-15.96899c0,-8.44828 0.4928,-16.90994 0.01718,-25.34482c-0.33743,-5.98426 -1.26048,-11.92108 -1.89072,-17.88162c-0.86865,-4.76723 -1.75076,-9.53204 -2.61937,-14.29927c-0.52363,1.29086 -1.09369,2.63848 -1.809,4.08025c-0.8097,1.63201 -2.08879,3.00969 -2.84167,4.66867c-0.85301,1.87961 -1.06084,4.0138 -1.94509,5.87891c-1.46588,3.09194 -3.20502,6.05743 -5.07311,8.92434c-2.13956,3.28354 -5.17632,6.04011 -6.7395,9.63397c-0.50245,1.15517 -0.40643,2.50714 -0.87516,3.67639c-0.81802,2.04059 -2.29957,3.79669 -2.96106,5.89326c-2.28795,7.25154 -3.15638,15.23682 -7.30119,21.61177c-2.09507,3.22234 -12.33983,15.06333 -15.67777,15.70664c-6.15948,1.18708 -12.41492,-1.80644 -18.62238,-2.70966c-1.16161,-3.42227 -4.22688,-10.94905 -4.60033,-15.60711c-0.6555,-8.17598 0.29315,-16.5675 -0.05163,-24.75201c-0.37176,-8.82515 -1.00614,-17.64673 -1.00921,-26.47971c-0.00237,-6.82431 0.92815,-13.69962 0.09366,-20.47271c-0.33612,-2.72811 -1.55223,-5.28798 -2,-8c-0.12456,-0.75442 0.06513,-1.52303 0.18788,-2.28495c-4.10261,-3.50285 -8.19717,-7.01518 -12.28153,-10.53931c0,7.76566 0,15.53132 0,23.29697c0,4.91093 0.447,10.33366 -0.06083,15.23172c-0.17528,1.69061 -0.81898,3.30999 -1,5c-0.65158,6.08329 1.15562,12.61622 -0.27355,18.64019c-0.66674,2.81032 -2.16296,5.38079 -3.63642,7.86501c-0.97846,1.64966 -2.75106,2.75063 -3.66136,4.43886c-1.14442,2.12242 -1.43774,4.61403 -2.40986,6.8207c-3.48393,7.9084 -7.8261,14.43669 -9.12805,23.05851c0,0 -2.05499,12.32992 -14.38491,10.27494c-12.32992,-2.05499 -10.27494,-14.38491 -10.27494,-14.38491c1.8857,-10.67159 6.49053,-19.15981 10.87195,-28.94149c1.34305,-2.99842 2.03378,-6.28586 3.59014,-9.1793c1.16632,-2.16831 4.68019,-3.23415 4.70222,-5.69613c0.17585,-19.65549 0.66561,-39.33973 0.66561,-59.12809c0,-2.97946 -0.16579,-6.02567 0,-9c0.12325,-2.21123 -0.38987,-4.61062 0.53635,-6.6223c1.67547,-3.639 3.63059,-7.60935 7.00815,-9.7638c16.29848,-10.39633 31.84055,6.92005 42.35786,16.13135c2.78121,2.43584 5.58185,4.94274 7.73817,7.94587c1.81738,2.53109 3.10372,5.46033 4.02509,8.43697c0.52732,1.7036 -0.05458,3.5859 0.24073,5.34462c0.45518,2.71079 1.69135,5.26865 2,8c0.88063,7.79289 0.09649,15.6848 0.09366,23.52729c-0.00238,6.59922 0.38358,13.19124 0.72059,19.78385c0.39074,-0.69006 0.76346,-1.38825 1.05585,-2.12068c0.55211,-1.38305 0.49535,-2.97402 1.12484,-4.32361c1.51363,-3.24509 3.32045,-6.35639 5.2605,-9.36603c2.20821,-3.42564 5.27008,-6.35193 6.92689,-10.07566c0.87492,-1.96641 1.16322,-4.16222 2.05491,-6.12109c0.85576,-1.87993 2.22819,-3.48706 3.15833,-5.33133c2.34399,-4.64766 1.15765,-5.21123 4.23057,-10.44243c1.87881,-3.19841 4.14777,-6.1583 6.42977,-9.08272c0.67128,-0.86026 1.76494,-1.33987 2.39722,-2.22919c4.09818,-5.76421 -0.64228,-14.42306 14.94529,-13.1896c16.85801,1.33399 17.34283,19.42438 19.47353,30.15463c1.48924,7.49984 2.73017,15.04686 4.09525,22.57029c0.70309,6.70613 1.72002,13.38674 2.10928,20.11838c0.02062,0.35661 0.01718,22.89071 0.01718,26.65518c0,0.83603 0.01415,17.21299 -0.04259,18.03101c-0.1403,2.02273 -0.80617,3.9817 -1,6c-0.31768,3.30781 0.04259,6.64597 0.04259,9.96899v3c0,0 0,12.5 -12.5,12.5z" fill="#ffffff"/><path d="M366.58026,212c0,12.5 -12.5,12.5 -12.5,12.5h-1c-8.89821,-0.06576 -11.06698,0.43782 -20.70766,-2.56253c-3.58864,-1.11685 -7.1538,-2.53095 -10.3002,-4.58663c-2.63323,-1.72041 -4.8379,-4.09029 -6.77438,-6.56895c-4.48084,-5.73543 -8.25981,-12.5082 -9.55636,-19.77961c-1.13429,-6.36142 0.10558,-8.27049 1,-14.00456c0.46585,-2.98653 0.47008,-6.05517 1.20153,-8.98798c0.76656,-3.0736 2.29711,-5.90847 3.26588,-8.92444c1.62962,-5.07334 2.27861,-10.50024 4.52559,-15.33197c3.73977,-8.04167 10.9112,-14.85239 15.70491,-22.59107c-1.44257,-0.74208 -2.71364,-1.83191 -4.14286,-2.61378c-0.94071,-0.51462 -2.14495,-0.08908 -3.21646,-0.04849c0,0 -7.08643,0 -10.58802,-5.33564c-7.49334,19.84742 -11.70275,40.70415 -19.28661,60.53443c-2.73757,4.17523 -6.86798,11.08624 -10.67806,14.51495c-7.07244,6.36452 -15.89682,10.66273 -25.44731,10.28626c-2.6118,-0.10295 -5.52953,0.37194 -7.78354,-0.95151c-3.56306,-2.09205 -6.6729,-5.20189 -8.76495,-8.76495c-1.32345,-2.25402 -0.80356,-5.1739 -0.95151,-7.78354c-0.30188,-5.32478 0,-10.66667 0,-16c0,-21 0,-42 0,-63c0,0 0,-12.5 12.5,-12.5c12.5,0 12.5,12.5 12.5,12.5c0,19 0,38 0,57c0,3.64788 0.24458,7.53642 0.355,11.40273c0.23601,-0.20407 0.4685,-0.41015 0.69769,-0.61646c0.70052,-0.63062 5.19846,-7.30511 5.32194,-7.48505c7.62645,-21.00554 11.81066,-42.97954 20.41906,-63.6844l1.84777,-5.56965c0,0 3.95285,-11.85854 15.81139,-7.90569c6.06485,2.02162 7.99401,6.11107 8.4314,9.62447c2.89989,-1.26593 5.61575,-1.26593 5.61575,-1.26593c5.55582,0.09414 7.08605,-0.30674 12.78354,1.95151c1.8069,0.71618 3.18668,2.30024 5,3c2.25574,0.87048 4.76853,0.89023 7.06232,1.65483c9.44734,3.14911 17.10915,8.47768 27.15641,8.55507l4.95057,1.48005c0,0 11.85854,3.95285 7.90569,15.81139c-3.95285,11.85854 -15.81139,7.90569 -15.81139,7.90569l-1.04943,-0.51995c-6.14527,0.05271 -11.59312,-1.68782 -16.95522,-3.85022c-0.77898,1.43188 -1.61094,2.83414 -2.48472,4.20364c-2.26564,3.55103 -4.841,6.89476 -7.23661,10.35945c-2.34185,3.38694 -5.26384,6.45012 -6.97558,10.19519c-1.8202,3.98236 -2.16092,8.49107 -3.47441,12.66803c-0.75848,2.41204 -2.11912,4.62301 -2.73412,7.07556c-0.57218,2.2818 -0.44715,4.68596 -0.79847,7.01202c-0.30259,2.00337 -1.38912,4.00707 -1,5.99544c0.99251,5.07164 4.38175,9.771 9.36906,11.0648c4.31382,1.11908 8.83598,1.48447 13.29234,1.43747h1c0,0 12.5,0 12.5,12.5z" fill="#ffffff"/><path d="M438.58026,168c0,12.5 -12.5,12.5 -12.5,12.5h-1c-8.87985,0 -17.92197,-0.6234 -26.76828,-0.06083c-0.82507,0.05247 -1.64672,0.14933 -2.46689,0.26399c-0.13256,0.73261 -0.23781,1.50025 -0.30742,2.32785c-0.10773,1.28083 0.29905,2.59868 0.06489,3.85827c0.53836,0.59548 0.42715,1.70856 1.08129,2.18926c0.78126,0.57411 1.95656,0.24732 2.83152,0.66493c2.17208,1.03671 4.15022,2.43854 6.22532,3.65781c9.96829,2.40189 11.78918,2.34247 21.03835,6.47335c0.93115,0.41587 1.73816,1.06895 2.54309,1.70109c0.24311,-0.0537 0.51042,-0.03565 0.75812,-0.07572l-1,12.5l1,12.5c-0.66167,-0.02135 -1.32636,-0.05601 -1.99148,-0.10644l-0.00852,0.10644c0,0 -1.53997,0 -3.53887,-0.54052c-2.05112,-0.35659 -4.06158,-0.90869 -5.95302,-1.73054c-1.17252,-0.50947 -2.0479,-1.56404 -3.2069,-2.10357c-5.2206,-2.43029 -14.35345,-4.33899 -18.96165,-5.52665c-2.59156,-1.4474 -5.13439,-2.98571 -7.77468,-4.34219c-2.34416,-1.20435 -5.06522,-1.74704 -7.16848,-3.33507c-1.99554,-1.5067 -3.25487,-3.79727 -4.83958,-5.73144c-1.73059,-2.11221 -4.14853,-3.84896 -5.10532,-6.40648c-2.36944,-6.33357 -1.09239,-17.05076 0.3545,-23.53244c0.43082,-1.92996 4.58668,-15.97955 5.08654,-16.98473c1.23577,-2.48503 3.39531,-4.39245 5.01722,-6.64453c1.64882,-2.28944 2.89666,-4.88712 4.7925,-6.97661c2.02453,-2.23133 4.64561,-3.84173 6.86851,-5.87552c0.88803,-0.81248 7.98517,-8.17813 9.12035,-8.91025c10.41764,-6.71868 21.22285,-10.31723 33.26173,-6.71801c0,0 11.85854,3.95285 7.90569,15.81139c-3.95285,11.85854 -15.81139,7.90569 -15.81139,7.90569c-2.08105,-1.03107 -2.82231,-0.37771 -5.26361,0.68995c-6.88338,3.01035 -6.55812,4.4493 -12.35431,9.68179c-0.02834,0.02559 -0.0568,0.05104 -0.08538,0.07636c4.89488,0.05908 9.79341,0.19336 14.65615,0.19336h1c0,0 12.5,0 12.5,12.5z" fill="#ffffff"/></g></g></svg>