<svg version="1.1" xmlns="http://www.w3.org/2000/svg" xmlns:xlink="http://www.w3.org/1999/xlink" width="467.98152" height="198.0341" viewBox="0,0,467.98152,198.0341"><g transform="translate(-9.10172,-52.63513)"><g data-paper-data="{&quot;isPaintingLayer&quot;:true}" fill-rule="nonzero" stroke="none" stroke-width="0.5" stroke-linecap="butt" stroke-linejoin="miter" stroke-miterlimit="10" stroke-dasharray="" stroke-dashoffset="0" style="mix-blend-mode: normal"><path d="M148.10469,105.23028c3.83483,-0.30819 7.72769,-0.54824 11.54152,-0.04259c1.67271,0.22177 3.58059,0.2385 5.39017,0.44575c0.71128,-0.1573 1.40338,-0.30981 2.07292,-0.45691c7.16323,-5.53081 17.36854,-5.37559 26.11128,-7.91912c-4.10648,-1.3999 -8.2062,-2.80073 -12.49685,-3.18955c-7.44527,-0.67471 -14.942,-0.71613 -22.37808,-1.48554c-1.62043,-0.16766 -3.23653,-0.37002 -4.85007,-0.59305l-7.86307,12.51236c0.52833,0.24066 0.97303,0.51457 1.30476,0.83342c0.38518,-0.0382 0.77416,-0.07317 1.16741,-0.10477zM236.48981,110.73432c1.74466,-0.05802 3.47091,0.01774 5.14959,0.43618c1.39352,-1.7605 2.98716,-3.38826 4.90875,-4.83688c0.5264,-0.39683 1.23531,-0.88762 2.06833,-1.43213c-3.28211,0.09364 -6.57226,0.1467 -9.77373,-0.00482c-0.67473,2.03174 -1.41504,4.01211 -2.35294,5.83765zM296.46549,106.84669c0.89099,0.01967 1.80306,0.15121 2.66269,-0.0469c2.50657,-0.57766 4.9625,-1.36389 7.42063,-2.13763c-3.45965,0 -6.91929,0 -10.37894,0c0.14191,0.75566 0.23945,1.48329 0.29563,2.18453zM386.50846,104.12225c2.02044,0.5296 3.97674,1.2632 5.89601,2.11454c4.13365,-3.81374 8.42827,-7.33853 15.48678,-10.98077c-4.64382,0.22733 -9.29624,0.39597 -14.01081,0.39713c-1.52505,0.00038 -3.05205,-0.03961 -4.57986,-0.09766c-1.04061,2.76656 -1.81609,5.74789 -2.79213,8.56675zM434.39379,112.61122c0.09517,0.22168 0.15098,0.46209 0.15828,0.72557c0.00193,0.06941 -0.22107,0.12529 -0.59856,0.17018c-0.12729,0.26189 -0.24913,0.51607 -0.3642,0.76189c-0.88821,1.8974 -2.49926,4.98981 -3.87905,7.19243l2.86272,-1.40548c1.40855,7.43613 6.00078,14.95116 4.22564,22.3084c-0.23711,0.98273 -5.07382,8.1654 -10.68108,16.02494c2.49025,0.97527 4.55825,2.81761 5.81088,5.95289c2.49622,6.24796 -1.88569,13.71063 -5.39787,19.44933c-1.49246,2.43858 -4.16682,3.78094 -6.90018,4.98972c0.36824,-0.63806 0.74129,-1.27042 1.12352,-1.89323c-0.72108,-0.28269 -0.33439,-5.39583 -0.33439,-6.1371c0,-0.35296 0,-0.70591 0,-1.05886l-0.27742,0.38182c-0.09665,1.14514 -0.20711,2.32558 -0.32274,3.5425c-0.16861,1.77465 -0.36506,3.57026 -0.62857,5.35812c-1.10456,0.48326 -2.20893,0.95316 -3.23925,1.47301c-0.3056,0.15419 -0.62131,0.30977 -0.94627,0.46594c-0.28053,0.28646 -0.58612,0.54907 -0.92275,0.78215c-1.06027,0.73409 -2.17424,1.38659 -3.32767,1.97038l4.25238,2.03528c-1.5519,1.92133 -2.95465,4.01507 -4.32475,6.14656c1.01431,-1.03504 1.95986,-1.87126 2.05976,-1.99473c2.48348,-3.06959 4.36795,-6.63443 6.32806,-10.09189c-0.66785,4.19676 -1.73836,8.32756 -3.72172,12.01986c-2.78772,5.18973 -6.99511,8.71946 -11.87059,10.51811c-1.839,2.16922 -3.89667,4.08565 -6.35297,5.54125c-1.92726,1.14209 -3.9894,1.91908 -6.13779,2.4622c5.07498,-0.24962 10.15106,-0.4788 15.22584,-0.73198c5.21058,-0.25995 11.20341,0.89681 15.63032,-1.4048c0.4185,-0.21759 0.41697,-0.8611 0.7358,-1.2087c1.43534,-1.56487 2.91255,-3.09927 4.5045,-4.50451c0.25414,-0.22433 0.83089,-0.01128 0.96434,-0.3229c0.28141,-0.65709 0.01327,-1.43199 0.09153,-2.14251c0.41429,-3.76128 0.91933,-7.51201 1.3855,-11.26721c1.45398,-11.71266 3.26187,-23.30065 4.57706,-35.0331c4.29757,-19.45436 8.89147,-38.73502 13.71765,-58.03975c0.94772,-3.79087 2.27728,-7.48714 3.31021,-11.25401c-4.40535,0.24368 -8.83949,-0.01311 -13.27081,-0.17031c2.95483,5.78982 -0.93159,13.27198 -3.46534,18.38855zM254.70432,218.56733c0.84157,-1.80714 1.44668,-3.81842 2.01902,-5.858c-1.48549,-0.04523 -2.97042,-0.10723 -4.4546,-0.19112c-1.2762,-0.07213 -2.30751,-1.12332 -3.52853,-1.5015c-1.11999,-0.3469 -2.33593,0.25227 -3.50842,0.25206c-8.45326,-0.00154 -16.92628,0.57244 -25.35979,-0.00518c-10.75276,-0.73647 -22.82087,1.56291 -32.09415,-3.92987c-4.71324,-2.79176 -7.16739,-5.59763 -8.04225,-8.31155c-3.82917,0.27729 -7.57885,0.14473 -11.08039,-1.26691c-0.00432,-0.00174 -0.00865,-0.00349 -0.01296,-0.00525c-21.19029,0.05029 -42.38767,0.15558 -63.57563,0.00525c-3.93592,-0.02793 -8.09108,0.81421 -12.11424,1.10677c-2.25302,0.48836 -4.55802,0.97372 -6.77633,1.43379c-2.69834,4.00359 -5.86348,7.86387 -8.84414,9.99698c5.91657,0 11.83316,0 17.74973,0c15.51552,0 31.03103,0 46.54654,0c11.82923,0 23.71057,-1.07299 35.48767,0.03639c7.29713,0.68737 14.5927,1.69749 21.72804,3.37306c10.87945,2.5548 20.87117,8.55454 31.91379,10.27205c12.94755,2.01379 28.10192,1.33351 41.50113,1.33351c0.13441,0 0.26884,0.00005 0.40328,0.00015zM58.86047,210.12284c-2.10307,-1.99226 -3.65409,-4.00983 -4.73302,-6.02861c0.3142,1.68146 0.39579,3.18291 -0.93425,3.55245c-2.28652,0.63529 -1.78437,-4.42306 -3.03397,-6.44054c-0.27627,-0.44604 -0.70486,-0.87676 -1.19625,-1.29752c-3.49204,-0.57363 -6.10209,-2.57373 -8.28109,-5.49371c-0.5487,2.2796 -0.60167,4.68402 -1.34439,6.90905c-0.73988,2.21651 -2.26828,4.10351 -3.10286,6.28612c-0.32733,0.85604 -0.59018,1.73221 -0.81859,2.61923c0.27786,0.0524 0.55684,0.09498 0.83726,0.12429c5.56515,0.58168 11.19083,-0.06083 16.7863,-0.06083c2.00197,0 4.00395,0 6.00592,0c-0.06244,-0.0556 -0.12413,-0.11224 -0.18506,-0.16996zM57.87069,79.14942c-0.31061,1.55195 -1.20419,2.94996 -1.50151,4.50451c-0.54792,2.86481 -0.1472,5.95643 0.08172,9.03767c4.42368,-3.32935 11.161,-3.75116 16.38726,-6.07193l2.52719,4.76571c0.59068,-1.14543 1.39219,-2.02285 2.63414,-2.34885c0.97808,-0.25674 1.90158,-0.48126 2.77419,-0.67495c1.36201,-3.38659 2.93828,-6.92206 5.40841,-9.45414c-2.06372,-0.39209 -4.11854,-0.82107 -6.14124,-1.36596c-7.40405,0.05141 -14.80735,0.07503 -22.21091,0.08558c0.00361,0.49407 0.13022,1.07536 0.04076,1.52236zM117.9985,95.13938c0.01072,0.05867 0.02115,0.1177 0.03131,0.1771c3.65447,-1.69684 6.90741,-4.39785 10.34412,-6.55957c-2.25704,-0.18939 -4.50974,-0.41093 -6.74498,-0.76927c-1.82923,-0.29325 -3.64826,-0.64501 -5.46001,-1.03436c0.95343,2.59033 1.33495,5.47843 1.82956,8.18609zM77.38903,163.69491l-0.5954,-0.45521c-0.09702,-0.00045 -0.19404,-0.00089 -0.29106,-0.00134c-0.09783,0.49008 -0.18987,0.95009 -0.27396,1.36909c0.06763,0.13139 0.14763,0.25621 0.24387,0.3725c0.29073,0.3513 0.21294,-0.97895 0.59114,-1.23371c0.09775,-0.06584 0.20849,-0.07266 0.32541,-0.05133zM104.99973,137.82798c-0.2313,0.46619 -0.48682,0.92091 -0.76288,1.36591c5.54757,0.44108 12.25383,0.97518 18.48671,1.47187c-0.03395,-0.02152 -0.06785,-0.04321 -0.10172,-0.06503zM84.78888,137.13741c-0.33812,0.20092 -0.67775,0.40041 -1.01799,0.59933c0.46354,-0.00733 0.92603,-0.0106 1.38689,-0.00887zM52.54535,77.63258c-0.06621,0.20477 -0.13188,0.4097 -0.19705,0.6148c0.22051,-0.2083 0.44384,-0.41343 0.67031,-0.61515c-0.15776,0.00012 -0.31551,0.00024 -0.47326,0.00035zM28.51026,70.72332c-1.42043,-6.32509 3.6785,-11.42402 3.6785,-11.42402l11.84184,-6.66417c13.02251,0 26.04252,0.01993 39.06483,0.09365c7.75148,1.83816 15.91138,2.8796 23.55043,5.08744c1.32295,0.38235 2.4555,1.25448 3.72984,1.77642c3.85761,1.57998 14.18321,3.55083 15.21569,3.71101c19.22682,2.98291 38.69245,4.01082 58.02233,5.9318c3.55812,0.3536 7.11795,0.88124 10.57717,1.78629c4.46219,1.16747 8.60204,3.45884 13.11479,4.41237c4.63301,0.97894 9.45393,0.67921 14.14192,1.34692c5.33476,0.75983 10.5438,2.32158 15.89776,2.93162c6.8565,0.78125 14.45358,-0.05051 21.39996,-0.05051c17.51752,0 35.03503,0 52.55255,0c15.062,0.05139 30.16449,-1.92392 44.8397,-5.58725c3.46784,-0.86567 6.6659,-2.8377 10.21508,-3.26035c11.16653,-1.32976 23.36538,0.0444 34.71263,-0.15724c9.69608,-0.1723 19.35935,-1.26415 29.05406,-1.5015c10.22814,-0.25041 33.64881,-2.54809 43.86944,5.91765c2.86577,2.37372 3.53661,14.81775 2.84143,18.82246c-0.7102,4.09121 -2.23633,7.99822 -3.30759,12.01005c-1.9924,7.46148 -3.92129,14.91187 -5.96452,22.36341c-3.54494,12.92827 -5.85974,26.39619 -8.79417,39.51535c-1.25488,11.40028 -3.00048,22.65957 -4.43195,34.03597c-0.79447,6.31393 -1.4086,16.52432 -4.52898,22.62632c-1.15297,2.25467 -3.31013,3.83522 -5.04166,5.6831c-1.29687,1.38402 -8.40186,8.44528 -9.77471,9.30181c-8.584,5.35566 -17.95312,4.62765 -27.52515,5.10733c-8.28357,0.41511 -16.57087,0.761 -24.85087,1.24198c-14.36979,0.83474 -28.74032,1.71733 -43.08001,2.96677c-4.16269,0.36271 -8.26711,1.33991 -12.44099,1.53564c-18.19549,0.85324 -36.61406,0.02415 -54.83077,0.02415c-14.77119,0 -31.30491,0.6105 -45.58596,-1.66949c-7.83055,-1.25016 -15.32939,-4.08619 -22.8933,-6.46683c-3.83005,-1.20546 -7.35639,-3.33757 -11.25897,-4.28215c-5.67289,-1.37307 -11.49622,-2.1275 -17.31099,-2.63294c-11.15176,-0.96936 -22.3876,0.03639 -33.58141,0.03639c-25.02502,0 -50.05005,0 -75.07507,0c-13.46335,0 -27.02948,0.96165 -40.27076,-1.56234c-3.27724,-0.62469 -7.16524,0.18205 -9.84442,-1.80603c-8.2358,-6.11138 -7.08122,-10.32594 -7.33621,-18.16643c0.4093,-1.72591 3.04393,-13.08107 3.68578,-14.82155c0.74043,-2.00776 2.22734,-3.69547 2.90315,-5.72589c0.80596,-2.42146 0.8013,-5.05338 1.50151,-7.5075c0.19721,-0.6912 1.06817,-1.10522 1.1593,-1.81821c0.19642,-1.53671 -0.27774,-3.08742 -0.33439,-4.6356c-0.18298,-5.00166 0,-10.01001 0,-15.01501c0,-14.15341 -1.0376,-28.81429 0.03145,-42.92816c0.28297,-3.73579 1.11777,-7.41035 1.56112,-11.13051c0.63948,-5.3658 0.67989,-10.81421 1.6869,-16.12332c0.65908,-3.47478 2.25237,-6.70624 3.28492,-10.08889c1.34393,-4.40274 2.54207,-8.85116 3.92879,-13.24004z" fill="#a5ff00"/><path d="M28.34575,194.6801c5.59017,-11.18034 16.77051,-5.59017 16.77051,-5.59017l0.28474,0.51623c0.38347,-0.97815 2.08347,-0.33439 3.13409,-0.33439c3.5035,0 7.00701,0 10.51051,0c2.37489,0 8.34979,-0.08532 10.37942,0.33439c1.09596,0.22664 1.95421,1.11094 3.003,1.5015c0.98457,0.36665 2.08347,-0.33439 3.13409,-0.33439c3.003,0 6.00601,0 9.00901,0c8.50851,0 17.01702,0 25.52553,0c2.27247,0 5.26129,0.51148 7.48172,0.09366c2.02802,-0.38162 3.96564,-1.1926 6.00601,-1.5015c3.30636,-0.50057 7.1707,-0.09366 10.5363,-0.09366c6.49315,0 13.03231,-0.24434 19.51952,0c1.96008,0.07383 3.95408,-0.06283 5.87491,0.33439c1.09596,0.22664 1.95421,1.11094 3.003,1.5015c1.45181,0.54065 3.08719,-0.38427 4.6356,-0.33439c1.96046,0.06316 3.95408,-0.06283 5.87491,0.33439c1.09596,0.22664 1.89669,1.33247 3.003,1.5015c3.5159,0.5372 7.11112,-0.29595 10.66739,-0.24073c2.002,0.5005 3.97204,1.15292 6.00601,1.5015c2.56527,0.43964 5.38147,-0.19709 7.76076,0.85785c2.76702,1.22685 4.77364,3.72724 7.05829,5.71266c0.28887,0.25104 0.65993,0.49361 0.95743,0.77058c3.67021,-0.28912 7.56589,0.07276 11.22475,0.07276c3.49217,0 7.60393,-0.43441 11.01129,0.16141c1.55907,0.27262 2.96669,1.12716 4.5045,1.5015c2.22756,0.54224 4.63054,-0.29129 6.87564,0.17298c1.09596,0.22664 1.91726,1.23007 3.003,1.5015c0.97111,0.24278 2.04035,-0.2744 3.003,0c1.99979,0.57002 3.83006,1.62222 5.72126,2.48677c1.16944,0.53461 2.66671,0.89181 3.28775,2.01773c5.30431,-1.08643 11.24053,-0.33439 16.64761,-0.33439c1.05063,0 2.17148,0.75533 3.13409,0.33439c2.0508,-0.8968 3.85344,-2.38943 6.00601,-3.003c0.96266,-0.2744 2.01412,0.15527 3.003,0c0.92411,-0.1451 8.97343,-4.49585 9.00901,-4.5045c4.07258,-0.99079 9.17417,-0.33439 13.38242,-0.33439c8.55836,0 17.87027,-1.05577 26.0263,1.66291c4.84373,-0.14201 9.66914,-0.16141 14.51424,-0.16141c2.14305,0 9.71376,-0.11377 11.88092,0.33439c1.09596,0.22664 1.95421,1.11094 3.003,1.5015c1.45181,0.54065 3.08638,-0.33439 4.6356,-0.33439c6.00601,0 12.01201,0 18.01802,0c4.5045,0 9.00901,0 13.51351,0c0.88045,0 1.76089,0 2.64134,0c1.31876,-0.66546 3.14313,-1.1679 1.19334,-0.59768c1.81858,-3.37888 4.16231,-6.51207 6.84601,-9.25467c0.70307,-0.7185 1.38823,-1.46338 2.17506,-2.08903c0.19162,-0.15237 0.65687,0.03786 0.70613,-0.20195c0.15168,-0.73847 -0.38292,-1.52077 -0.20196,-2.25261c0.26864,-1.08643 1.23007,-1.91726 1.5015,-3.003c0.24278,-0.97111 -0.2744,-2.04035 0,-3.003c0.57002,-1.99979 1.62222,-3.83006 2.48677,-5.72126c0.53461,-1.16944 1.81828,-2.01747 2.01773,-3.28775c0.15527,-0.98889 -0.3223,-2.05531 0,-3.003c1.08102,-3.17867 3.15931,-5.93281 4.5045,-9.00901c0.42094,-0.96261 -0.33439,-2.08347 -0.33439,-3.13409c0,-4.004 0,-8.00801 0,-12.01201c0,-1.05063 -0.64376,-2.75063 0.33439,-3.13409c-3.57428,-5.18906 -3.45915,-11.84601 -3.33739,-17.88693c0.03364,-1.66896 -0.3041,-3.40221 0.16141,-5.00528c0.81909,-2.82069 1.75973,-5.65311 3.06333,-8.28883c-4.22847,-0.22247 -8.46714,-0.26916 -11.87685,1.4357c-1.001,0 -2.03189,-0.24278 -3.003,0c-1.08574,0.27143 -1.91726,1.23007 -3.003,1.5015c-0.97111,0.24278 -2.01412,-0.15527 -3.003,0c-2.21121,0.3472 -3.84906,2.40502 -6.00601,3.003c-1.2452,0.34521 -2.59631,-0.02873 -3.87264,0.17298c-2.37584,0.37548 -4.31039,2.22305 -6.63787,2.83002c-1.25035,0.32607 -2.60223,-0.06314 -3.87264,0.17298c-3.11215,0.57842 -5.89321,2.44459 -9.00901,3.003c-1.63395,0.29284 -3.33619,-0.16699 -4.97949,0.06775c-2.04288,0.29182 -3.96564,1.1926 -6.00601,1.5015c-2.94272,0.44552 -6.36955,-0.2232 -9.30458,0.03282c-3.08188,0.26883 -5.81884,2.22076 -8.87032,2.72945c-6.01168,1.00216 -13.21282,0.33439 -19.38843,0.33439c-8.00801,0 -16.01602,0 -24.02402,0c-4.67656,0 -10.35486,0.4667 -14.88392,-0.33439c-1.10205,-0.19493 -1.95421,-1.11094 -3.003,-1.5015c-1.45181,-0.54065 -3.08638,0.33439 -4.6356,0.33439c-3.5035,0 -7.00701,0 -10.51051,0c-6.50651,0 -13.01301,0 -19.51952,0c-8.51166,0 -17.71938,-1.01186 -26.14091,-0.03145c-3.51533,0.40925 -6.97921,1.26709 -10.51051,1.5015c-3.88027,0.25757 -7.78696,-0.29919 -11.6664,-0.02939c-2.54586,0.17706 -11.12169,2.71056 -13.21794,2.97018c-1.54407,0.19123 -3.17615,-0.70419 -4.66139,-0.24073c-2.66079,0.83027 -4.74701,2.99017 -7.34938,3.98858c-6.65672,2.55386 -13.96026,2.96319 -20.81388,4.92837c-4.04631,1.16023 -7.79284,3.2184 -11.81777,4.45074c-2.66661,0.81645 -5.48213,1.03748 -8.19657,1.67718c-6.09113,1.43547 -11.96672,4.89571 -18.215,4.54713c-0.17069,-0.00952 -0.3411,-0.02066 -0.51125,-0.03337l0.02087,0.1252l-8.77672,1.46279c-0.74154,0.13712 -1.50604,0.20879 -2.28728,0.20879c-6.90356,0 -12.5,-5.59644 -12.5,-12.5c0,-4.99004 2.92397,-9.29714 7.15204,-11.30145l2.76079,-1.3804c3.0979,-1.54895 12.35478,-6.18098 12.81864,-6.37416c6.82807,-2.84363 15.26146,-3.80044 21.81417,-7.18795c1.651,-0.85351 3.24748,-1.83454 4.84747,-2.80592c-1.39585,-0.43243 -2.7742,-0.9262 -4.13912,-1.44367c-0.43783,-0.16599 -0.63413,-0.78351 -1.09137,-0.88438c-0.6967,-0.1537 -1.4373,0.32955 -2.13337,0.17298c-2.91354,-0.65533 -6.05696,-1.29585 -8.37714,-3.17598c-4.61661,0 -9.74342,-2.20054 -13.44598,-5.02809c-0.88314,-0.67443 -4.12834,-4.6318 -6.07354,-5.48242c-0.96261,-0.42094 -2.08347,0.33439 -3.13409,0.33439c-3.003,0 -6.00601,0 -9.00901,0c-9.00901,0 -18.01802,0 -27.02703,0c0,0 -12.5,0 -12.5,-12.5c0,-12.5 12.5,-12.5 12.5,-12.5c10.01001,0 20.02002,0 30.03003,0c4.62243,0 10.42811,-0.74964 14.88392,0.33439c1.35088,0.32865 9.05575,3.9687 10.44297,5.02809c2.16755,1.6553 3.37923,5.05937 6.07354,5.48242c0.98889,0.15527 2.002,0 3.003,0c2.20883,0.95219 4.26203,2.45454 6.63787,2.83002c1.27632,0.20171 2.62229,-0.15309 3.87264,0.17298c2.32748,0.60698 4.26203,2.45454 6.63787,2.83002c1.27632,0.20171 2.62744,-0.17223 3.87264,0.17298c2.00386,0.55554 3.86135,1.55682 5.72126,2.48677c0.17577,0.08789 0.08911,0.49767 0.28474,0.51623c1.54229,0.14627 3.08638,-0.33439 4.6356,-0.33439c6.74118,0 13.0891,-0.51124 19.52073,1.5015h1.50029c0,0 0,0 0,0c6.80991,0 12.34793,5.44564 12.49692,12.2198c0.42686,-0.06139 0.85552,-0.11118 1.28637,-0.14695c4.1051,-0.3408 8.2476,0.24576 12.35762,-0.02939c3.53117,-0.23639 6.99132,-1.12686 10.51051,-1.5015c9.07416,-0.96601 18.76594,-0.03145 27.91314,-0.03145c10.01001,0 20.02002,0 30.03003,0c2.37489,0 8.34979,-0.08532 10.37942,0.33439c1.09596,0.22664 1.91772,1.22826 3.003,1.5015c0.53868,0.13563 1.07854,-0.29442 1.63259,-0.33439c2.49602,-0.18005 5.00501,0 7.50751,0c8.00801,0 16.01602,0 24.02402,0c3.46575,0 7.04443,-0.18885 10.51051,0c1.04907,0.05716 2.09775,0.50701 3.13409,0.33439c0.70902,-0.1181 1.12421,-0.97216 1.81821,-1.1593c3.39448,-0.91535 6.84347,-1.68474 10.33249,-2.11725c2.88244,-0.35732 5.85903,0.56994 8.71344,0.03282c2.02802,-0.38162 3.96313,-1.20964 6.00601,-1.5015c1.32986,-0.18999 2.70003,0.26034 4.02952,0.06775c3.13274,-0.45382 5.9115,-2.35072 9.00901,-3.003c0.69815,-0.14702 1.43666,0.32668 2.13337,0.17298c0.45724,-0.10087 0.65354,-0.71839 1.09137,-0.88438c2.38054,-0.90252 4.80194,-1.73292 7.28577,-2.2916c0.69607,-0.15656 1.42699,0.27325 2.13337,0.17298c2.21609,-0.31457 3.85344,-2.38943 6.00601,-3.003c0.96266,-0.2744 2.03189,0.24278 3.003,0c1.08574,-0.27143 1.91726,-1.23007 3.003,-1.5015c0.97111,-0.24278 2.002,0 3.003,0c5.44709,-2.72354 11.9038,-1.83589 17.88693,-1.83589c4.65185,0 10.35462,-0.69173 15.01502,0c3.21641,0.4774 6.98294,-0.09689 9.57464,1.86686c3.42526,2.59535 5.72059,6.69263 7.09547,10.76423c2.15384,6.3784 -0.26719,12.47544 -3.52659,17.6883c-0.75051,1.20031 -2.13901,1.88161 -3.003,3.003c-1.08428,1.40731 -1.56897,3.25512 -2.80319,4.53296c-0.21944,0.22719 -0.51724,0.4783 -0.83839,0.67616c-0.02344,1.32678 -0.30175,2.66375 -0.09861,3.97273c0.47318,3.04905 1.48527,4.72876 2.76227,7.66439c0.39658,6.96752 0.33439,13.91307 0.33439,20.88993c0,2.27707 0.05688,7.26963 -0.33439,8.87792c-0.79367,3.2623 -3.47907,5.81198 -4.5045,9.00901c-0.30573,0.95317 0.2744,2.04035 0,3.003c-0.57002,1.99979 -1.62222,3.83006 -2.48677,5.72126c-0.53461,1.16944 -1.81828,2.01747 -2.01773,3.28775c-0.15527,0.98889 0.24278,2.03189 0,3.003c-0.27143,1.08574 -1.2279,1.91781 -1.5015,3.003c-0.30631,1.21492 0.30075,2.60573 -0.20196,3.75339c-1.3747,3.13838 -3.30229,6.02338 -5.29988,8.80706c-1.69357,2.36004 -4.997,3.90108 -5.99394,6.67432c-1.281,2.08389 -2.22393,4.41805 -3.84301,6.25167c-0.74076,0.83892 -2.18355,0.73927 -3.003,1.5015c-1.48897,1.38499 -1.94944,3.8887 -3.7687,4.7973c-7.03547,3.51378 -18.3706,1.86686 -26.09116,1.86686c-7.00701,0 -14.01401,0 -21.02102,0c-2.37489,0 -8.34979,0.08532 -10.37942,-0.33439c-1.09596,-0.22664 -1.95421,-1.11094 -3.003,-1.5015c-1.91993,-0.71497 -4.08836,0.33439 -6.1371,0.33439c-6.17839,0 -12.33891,-0.05652 -18.51879,-0.16141c-6.96216,-2.32072 -14.68421,-1.34009 -22.02175,-1.34009c-2.54864,0 -5.30347,-1.35552 -7.6386,-0.33439c-2.99913,1.31149 -5.48149,3.49902 -9.00901,4.5045c-0.96266,0.2744 -2.01412,-0.15527 -3.003,0c-2.21121,0.3472 -3.83114,2.47389 -6.00601,3.003c-1.60829,0.39127 -6.60085,0.33439 -8.87792,0.33439c-7.48097,0 -14.91681,0.00445 -22.39143,-0.33439c-1.90709,-0.82892 -3.83006,-1.62222 -5.72126,-2.48677c-1.16944,-0.53461 -2.01747,-1.81828 -3.28775,-2.01773c-0.98889,-0.15527 -2.03189,0.24278 -3.003,0c-1.08574,-0.27143 -1.95421,-1.11094 -3.003,-1.5015c-1.60539,-0.59784 -3.44888,0.46806 -5.13637,0.17298c-1.55907,-0.27262 -2.96669,-1.12716 -4.5045,-1.5015c-1.29776,-0.3159 -2.66807,0.16141 -4.00373,0.16141c-4.99247,0 -10.02657,0.18789 -15.01502,0c-1.96008,-0.07383 -3.99104,0.21189 -5.87491,-0.33439c-4.31806,-1.25213 -8.57737,-3.70358 -11.4884,-7.21955c-0.20193,-0.00935 -0.42807,-0.02483 -0.68049,-0.04723c-2.05554,-0.18238 -4.004,-1.001 -6.00601,-1.5015c-4.40685,0.13863 -9.06306,0.34829 -13.35663,-0.24073c-1.10877,-0.15211 -1.95421,-1.11094 -3.003,-1.5015c-1.45181,-0.54065 -3.08719,0.38427 -4.6356,0.33439c-1.96046,-0.06316 -3.95408,0.06283 -5.87491,-0.33439c-1.09596,-0.22664 -1.95421,-1.11094 -3.003,-1.5015c-0.98457,-0.36665 -2.08347,0.33439 -3.13409,0.33439c-2.5025,0 -5.00501,0 -7.50751,0c-4.004,0 -8.00801,0 -12.01201,0c-1.49323,0 -3.01124,-0.36979 -4.47872,-0.09366c-2.02802,0.38162 -3.96564,1.1926 -6.00601,1.5015c-3.30636,0.50057 -7.1707,0.09366 -10.5363,0.09366c-8.50851,0 -17.01702,0 -25.52553,0c-5.63241,0 -12.34332,0.81199 -17.88693,-0.33439c-1.09596,-0.22664 -1.95421,-1.11094 -3.003,-1.5015c-1.45181,-0.54065 -3.08638,0.33439 -4.6356,0.33439c-6.48147,0 -12.91541,0.03404 -19.38843,-0.33439l-5.72126,-2.48677c0,0 -11.18034,-5.59017 -5.59017,-16.77051z" fill="#a5ff00"/><path d="M85.97702,152.7381c-0.17638,0.04515 -0.28836,0.0962 -0.32022,0.15396zM86.77752,152.60888c-1.01933,0.84457 -3.2085,2.42021 -6.01675,3.07468c0.22369,4.88299 0.43085,9.93783 -0.54054,14.4256c-0.32267,1.49071 -1.42616,2.72083 -1.8437,4.1878c-0.61817,2.17184 -0.64321,4.48235 -1.24367,6.65915c-0.73321,2.65803 -2.14938,5.11088 -2.74566,7.80294c-0.38759,1.7499 0.24483,3.63121 -0.17298,5.37414c-0.48475,2.02216 -1.65785,3.81417 -2.48677,5.72126c0,0 -5.59017,11.18034 -16.77051,5.59017c-11.18034,-5.59017 -5.59017,-16.77051 -5.59017,-16.77051c1.14842,-0.63345 0.05789,-2.6395 0.34325,-3.91962c0.77767,-3.48863 2.32771,-6.76465 3.26035,-10.21508c0.74271,-2.74775 0.97445,-5.61986 1.75933,-8.35586c0.1982,-0.69092 0.87918,-1.15626 1.1593,-1.81821c0.79844,-1.88674 -0.33439,-4.08836 -0.33439,-6.1371c0,-5.13847 -0.72475,-11.4257 0.09366,-16.54231c0.60053,-3.75448 2.48868,-7.22811 3.07075,-10.9855c0.22986,-1.4838 -0.24685,-3.02343 0,-4.5045c0.2602,-1.56119 1.12716,-2.96669 1.5015,-4.5045c0.66058,-2.71373 -0.37365,-5.63818 0.17298,-8.37714c0.34915,-1.74945 1.41241,-3.27642 2.11862,-4.91463c1.29722,-3.89165 2.54387,-8.70522 5.71266,-11.5628c6.5267,-5.88572 12.98214,-5.26417 20.85085,-5.16267c2.16941,0.02798 4.37071,-0.21849 6.50678,0.16141c4.77102,0.84853 7.1473,2.20758 11.0954,4.16126c9.74927,4.82432 19.80993,10.50358 23.09196,21.82194c0.25116,0.86616 0.40589,6.97958 0.33439,8.87792c-0.07383,1.96008 0.21189,3.99104 -0.33439,5.87491c-1.14337,3.943 -3.84326,7.33843 -6.52959,10.44297c-1.7685,2.04382 -2.71175,5.00756 -5.07039,6.32726c-2.83767,1.58772 -6.38309,1.24458 -9.57464,1.86686c-2.5025,0 -5.00501,0 -7.50751,0c-1.05063,0 -2.14952,-0.70104 -3.13409,-0.33439c-1.04879,0.39056 -1.90704,1.27486 -3.003,1.5015c-0.14045,0.02904 -5.72516,-0.03694 -8.17303,0.23305zM84.23457,127.72712c0.61437,0.00222 1.22858,0.00604 1.83806,-0.01691c1.04988,-0.03954 2.14952,0.70104 3.13409,0.33439c1.04879,-0.39056 1.90704,-1.27486 3.003,-1.5015c3.86307,-0.79886 8.4253,-0.56795 12.66213,-0.41777c0.05812,-0.04263 0.11662,-0.08469 0.17539,-0.12623c-0.02892,-0.5104 -0.03025,-1.02315 -0.004,-1.53377c-0.27097,-0.30179 -0.51256,-0.67192 -0.78243,-0.9418c-2.1083,-2.1083 -2.86602,-2.21734 -5.76034,-3.6645c-1.83016,-0.91508 -4.78569,-3.0681 -6.92262,-3.34625c-1.7992,-0.23419 -3.6189,-0.03961 -5.43799,0.09065c-0.19023,0.45169 -0.37765,0.90396 -0.53076,1.36331c-1.58109,1.95115 -0.27369,5.22609 -0.7114,7.72925c-0.12271,0.70178 -0.38646,1.36813 -0.66314,2.03115z" fill="#ffffff"/><path d="M229.20327,207.77778c0,12.5 -12.5,12.5 -12.5,12.5h-3.003c-1.9583,-0.11146 -3.95408,0.06283 -5.87491,-0.33439c-1.09596,-0.22664 -1.89857,-1.32057 -3.003,-1.5015c-1.80889,-0.29634 -3.71942,0.55246 -5.49794,0.10884c-3.79871,-0.94751 -7.42799,-2.53199 -10.96302,-4.21468c-0.93947,-0.44719 -1.37344,-1.64363 -2.30745,-2.10213c-0.30893,-0.15165 -0.53975,0.50225 -0.8822,0.53635c-1.49411,0.14877 -3.003,0 -4.5045,0c-5.00501,0 -10.01001,0 -15.01502,0c-7.35421,-0.33338 -12.85583,0.67868 -18.14064,-7.42986c-6.10242,-9.363 -0.38618,-11.72858 1.36168,-19.44599c0.38075,-1.68113 -0.34157,-3.45854 -0.13189,-5.16945c0.25103,-2.04829 1.11989,-3.97798 1.5015,-6.00601c0.37022,-1.96747 -0.29968,-4.02656 0,-6.00601c0.3089,-2.04037 1.30853,-3.95143 1.5015,-6.00601c0.58893,-6.27032 -0.09366,-13.14538 -0.09366,-19.49373c0,-2.83659 0.69427,-5.72214 0.16141,-8.50823c-0.29732,-1.55454 -1.26516,-2.93953 -1.5015,-4.5045c-0.73944,-4.89636 -0.16141,-10.54256 -0.16141,-15.51579c0,0 0,-12.5 12.5,-12.5c12.5,0 12.5,12.5 12.5,12.5c0,3.48196 -0.81127,8.11342 -0.16141,11.51124c0.29732,1.55454 1.26516,2.93953 1.5015,4.5045c0.21105,1.39753 0.16141,10.89856 0.16141,12.51279c0,7.39914 0.55271,15.23683 -0.09366,22.54831c-0.18172,2.0556 -1.11989,3.97798 -1.5015,6.00601c-0.37022,1.96747 0.29968,4.02656 0,6.00601c-0.3089,2.04037 -1.24126,3.95887 -1.5015,6.00601c-0.16371,1.28775 -0.02616,2.6039 0.03309,3.90979c3.86864,-0.05176 7.74216,-0.08222 11.58459,0.08093c2.71238,0.11517 5.52607,-0.24242 8.12681,0.53635c2.23044,0.66789 7.62002,5.13168 10.75355,5.6952c2.13737,0.38438 4.37285,-0.25347 6.51407,0.10884c1.09916,0.18598 2.72721,2.20499 3.13409,1.16711h3.003c0,0 12.5,0 12.5,12.5z" fill="#ffffff"/><path d="M253.75282,188.25826c0,-8.28378 5.48968,-11.07788 9.19299,-12.02032c0.20997,-0.43613 0.40901,-0.87725 0.59246,-1.32552c1.30969,-3.20036 1.82795,-6.67833 2.4597,-10.07811c0.72934,-3.92494 0.79218,-7.98169 1.83695,-11.83468c0.51014,-1.88134 2.23368,-3.27643 2.76881,-5.15082c0.48122,-1.68558 -0.3787,-3.60094 0.20196,-5.25489c0.87557,-2.49399 2.61679,-4.58903 3.97941,-6.85856l2.68881,-5.37761c2.0043,-4.22807 6.31141,-7.15204 11.30145,-7.15204c6.90356,0 12.5,5.59644 12.5,12.5v2.55168c2.98755,9.22847 1.5015,23.30224 1.5015,33.48435c0,2.4941 -0.46572,5.01552 -0.09366,7.48172c0.07038,0.46652 0.17556,0.92558 0.29856,1.38089l3.64144,1.81808c0,0 6.20468,6.20468 3.01841,13.4155c-0.01045,1.27602 -0.28852,2.61762 0.10641,3.81304c0.41205,1.24726 1.99089,1.84712 2.47078,3.06989c2.7749,7.07047 2.44588,8.05856 2.57007,14.06593v1.5015c0,0 0,12.5 -12.5,12.5c-12.5,0 -12.5,-12.5 -12.5,-12.5v-1.5015c0.29685,-4.67742 -2.32035,-4.98891 -3.96815,-9.89121c-0.35779,-1.06446 0.74649,-2.27028 0.41516,-3.34326c-0.16375,-0.5303 -1.2692,-0.02837 -1.59504,-0.47767c-0.17559,-0.24212 -0.34521,-0.48865 -0.50919,-0.73909c-1.6628,-0.02524 -3.30947,-0.08395 -4.91973,-0.19934c-0.89912,3.00033 -1.78245,6.00712 -2.91209,8.9236c-1.46122,3.77257 -3.40904,6.2641 -5.65237,9.65772c0,0 -6.93375,10.40063 -17.33438,3.46688c-10.40063,-6.93375 -3.46688,-17.33438 -3.46688,-17.33438c2.56834,-3.80937 4.10195,-7.85644 5.46482,-12.00708c-0.94917,-1.6755 -1.55818,-3.82559 -1.55818,-6.5847z" fill="#ffffff"/><path d="M359.82197,221.63079c-0.10919,2.00022 -1.21849,12.1605 -12.48808,12.1605c-12.5,0 -12.5,-12.5 -12.5,-12.5l0.64146,-5.45435c1.34066,-3.94191 1.86903,-8.11971 3.03813,-12.11587c0.38667,-1.32169 1.25761,-2.45422 1.77642,-3.72984c1.44031,-3.54129 1.47464,-6.13419 2.82793,-10.0638c2.78025,-8.07309 8.53439,-15.0149 12.9757,-22.27384c-5.20376,-1.06284 -10.17016,-3.19169 -14.02918,-6.0604c-1.97935,-1.4714 -2.89571,-3.99403 -4.39725,-5.95062c-1.59293,-2.07569 -4.03217,-3.67065 -4.88472,-6.14432c-2.04954,-5.94675 -0.95151,-14.86192 -0.95151,-21.30006c0,0 0,-12.5 12.5,-12.5c12.5,0 12.5,12.5 12.5,12.5c0,3.5035 0.45723,7.03697 0,10.51051c-0.06739,0.51196 -1.0314,0.71231 -0.95151,1.22246c0.05827,0.37206 0.86409,-0.41341 1.12129,-0.13832c0.78668,0.84143 0.96248,2.10487 1.60876,3.05839c0.13974,0.20617 0.48785,-0.14074 0.73648,-0.12602c1.69593,0.10039 3.39424,0.99398 5.05616,0.64146c0.8926,-0.18933 1.1449,-1.42333 1.76883,-2.08914c0.96799,-1.03296 1.89701,-2.11938 3.003,-3.003c1.44015,-1.1506 3.29676,-1.76618 4.59913,-3.07067c0.87018,-0.8716 0.85913,-2.39271 1.72742,-3.26619c1.00358,-1.00958 2.29251,-1.67215 3.52915,-2.39832l1.1891,-1.86858c2.19873,-3.57941 6.14996,-5.96658 10.65874,-5.96658c6.90356,0 12.5,5.59644 12.5,12.5c0,2.09947 -0.51759,4.07804 -1.43212,5.81509l-1.38904,2.77808l-0.25099,-0.1255l-1.58309,2.48772l0.02472,0.32014c-0.12773,0.08515 -0.25706,0.16835 -0.38759,0.25008l-7.30954,11.48642c-1.46891,8.11105 -8.25986,14.26933 -12.39093,21.40309c-3.13971,5.42182 -6.65951,10.61447 -10.00307,15.91301c-1.94289,3.07891 -2.27866,5.66188 -3.31438,9.23277c-0.8054,2.77681 -2.41068,5.28265 -3.18109,8.06937c-0.89418,3.23439 -1.45939,6.5602 -2.33834,9.79631z" fill="#ffffff"/><path d="M410.56713,177.57757c-6.0389,-6.0389 -3.82597,-12.07779 -1.81797,-15.29777c0.10228,-0.96737 0.27573,-1.9176 0.60981,-2.82911c0.48716,-1.32917 2.40272,-1.72095 3.003,-3.003c0.26795,-0.57229 -0.86182,-1.09541 -0.7901,-1.72324c0.17963,-1.5725 1.25525,-2.94106 1.5015,-4.5045c1.22251,-7.7617 -1.45945,-16.21902 0,-24.02402c0.30595,-1.63621 3.24207,-7.52679 2.8416,-10.00973c0,0 0,-12.5 12.5,-12.5c12.5,0 12.5,12.5 12.5,12.5c-0.0538,1.66843 0.14541,3.36443 -0.16141,5.00528c-0.58182,3.11151 -2.25861,5.93234 -3.003,9.00901c-0.3141,1.2982 0.16141,2.66807 0.16141,4.00373c0,6.4944 0.68876,13.62309 -0.16141,20.0203c-0.20851,1.56893 -1.19953,2.95086 -1.5015,4.5045c-0.46608,2.39795 0.05489,4.99374 -0.7901,7.28577c-0.47771,1.2958 -1.72402,2.23171 -2.91376,2.9495l-4.3004,8.6133c0,0 -8.83883,8.83883 -17.67767,0z" fill="#ffffff"/><path d="M414.90146,224.78228c-12.5,0 -12.5,-12.5 -12.5,-12.5c0,-1.001 0,-3.5035 0,-4.5045c0,0 0,-12.5 12.5,-12.5c12.5,0 12.5,12.5 12.5,12.5c0,1.001 0,2.002 0,3.003v1.5015c0,0 0,12.5 -12.5,12.5z" fill="#ffffff"/></g></g></svg>