<svg version="1.1" xmlns="http://www.w3.org/2000/svg" xmlns:xlink="http://www.w3.org/1999/xlink" width="184.71762" height="204.1175" viewBox="0,0,184.71762,204.1175"><g transform="translate(-72.86759,-25.46039)"><g data-paper-data="{&quot;isPaintingLayer&quot;:true}" fill-rule="nonzero" stroke="none" stroke-width="0.5" stroke-linecap="butt" stroke-linejoin="miter" stroke-miterlimit="10" stroke-dasharray="" stroke-dashoffset="0" style="mix-blend-mode: normal"><path d="" fill="#00ff72"/><path d="M150.81826,226.57456c-5.85558,5.64002 -13.92406,1.60578 -13.92406,1.60578l-2,-1c-2.5915,-1.30141 -4.92,-3.39004 -7.77367,-3.90589c-1.31207,-0.23718 -2.69978,0.29532 -4,0c-2.24463,-0.50983 -4.29134,-1.67422 -6.48202,-2.38079c-5.25097,-1.69361 -7.08371,-0.62784 -12.75772,-4.9722c-3.44503,-2.63772 -5.10369,-7.02021 -7.53694,-10.61258c-1.36633,-2.01721 -3.23505,-3.68569 -5.16835,-5.16835c-1.50345,-1.15301 -3.62133,-1.43239 -4.96365,-2.76955c-2.11369,-2.10556 -3.82308,-4.64635 -5.1589,-7.31406c-4.71828,-9.42266 -1.73007,-20.23226 -2.90716,-30.05464c-0.12542,-1.0466 -0.88196,-1.95254 -1,-3c-0.24171,-2.14487 0.09993,-4.32306 -0.06775,-6.47499c-0.2402,-3.08256 -3.13876,-9.16966 -3.86811,-11.16345c-0.16318,-5.32773 -0.644,-17.64627 -0.06414,-21.36612c1.7769,-11.39892 8.49402,-22.07091 16.10831,-30.42695c1.5296,-1.67861 3.0367,-3.4443 4.9214,-4.7113c2.81358,-1.89145 6.14098,-2.90459 9.03479,-4.67085c13.8273,-8.43957 16.7913,-12.38804 31.61799,-20.33576c10.03409,-5.37868 29.11534,-10.9317 37.97832,-14.4446c6.6783,-2.64699 14.49497,-5.80077 20.81365,-9.85497c3.70062,-2.3744 6.90291,-5.60483 10.91129,-7.41183c0.88285,-0.39799 8.58681,-0.85059 10.72957,-0.6173c8.0149,0.87261 15.95729,2.43888 24,3c6.09311,0.4251 12.21881,-0.18776 18.32411,-0.02166c-0.19239,0.50539 -0.39384,0.93311 -0.60735,1.2402c-0.53819,0.7741 -1.57551,1.15816 -2,2c-2.63815,5.23203 -2.45687,10.21053 -3.36437,15.65549c-0.5753,3.45182 -1.59415,6.86121 -2.0542,10.37998c-0.47318,3.61923 -0.07493,7.56789 -0.07493,11.22183c0.08211,1.94885 -0.69924,3.8407 -0.92507,5.77817c-0.76192,6.53657 -0.07493,13.6364 -0.07493,20.22183c0,1.7999 0.47874,3.63255 0.12912,5.39818c-0.20475,1.03401 -0.87689,1.95312 -1,3c-0.16172,1.37521 -0.12912,9.62029 -0.12912,11.60182c0,6.13721 0,13.27736 0,20c-1.26338,0 -2.47205,0.23428 -3.58491,0.66178c-4.59205,0.38067 -9.18783,0.69554 -13.79238,0.82269c-8.79333,0.24284 -17.89885,-1.48825 -26.37601,0.86111c-5.88976,3.93052 -6.93097,10.01132 -9.99013,16.08952c-1.40241,2.78643 -2.97907,5.48565 -4.6234,8.13653c-1.02498,1.65239 -2.02898,3.31819 -3.03377,4.98345c-2.71739,3.23388 -5.09337,6.69558 -7.17301,10.39261c-0.10459,0.1128 -0.20115,0.23214 -0.28582,0.36118c-0.58694,0.89455 -1.07182,1.91244 -1.49098,2.99748c-0.20108,0.40453 -0.399,0.8117 -0.59384,1.22151c-1.28952,2.7123 -2.92249,5.29886 -3.78822,8.17461c-0.3447,1.145 -0.32225,2.35592 -0.28733,3.56658c-0.61094,0.67045 -1.26883,1.31412 -1.69343,2.10309c-1.12435,2.08928 -0.90465,4.71161 -1.93031,6.85106c-0.77171,1.60974 -2.08238,2.92927 -2.80792,4.56033c-0.64472,1.44938 -0.54989,3.171 -1.26177,4.5886c-0.1093,0.21764 -0.22322,0.4327 -0.34106,0.64558l-2.36363,1.57576c-2.75701,1.78054 -4.58205,4.8804 -4.58205,8.40653c0,0.20815 0.00636,0.4148 0.01889,0.61979c-1.47421,1.6253 -3.70254,3.40518 -6.68498,3.95475z" fill="#00ff72"/><path d="" fill="#00ff72"/></g></g></svg>