<svg version="1.1" xmlns="http://www.w3.org/2000/svg" xmlns:xlink="http://www.w3.org/1999/xlink" width="321.19569" height="234.38137" viewBox="0,0,321.19569,234.38137"><g transform="translate(-82.30927,-55.88083)"><g data-paper-data="{&quot;isPaintingLayer&quot;:true}" fill-rule="nonzero" stroke="none" stroke-width="0.5" stroke-linecap="butt" stroke-linejoin="miter" stroke-miterlimit="10" stroke-dasharray="" stroke-dashoffset="0" style="mix-blend-mode: normal"><path d="M294.88256,60.87088c1.04687,0.12323 1.95628,0.85245 3,1c1.22485,0.17316 2.49897,-0.30005 3.71074,-0.05131c1.14243,0.23451 2.10285,1.01136 3.17717,1.4652c4.7004,1.98566 12.10872,5.36403 16.70325,6.51101c2.32772,0.5811 5.02186,-0.59711 7.18382,0.44302c4.78668,2.30288 8.68502,6.92596 12.98973,10.05873c7.24872,8.56285 14.83839,16.9016 22.28257,25.25449c2.85733,3.20613 6.23338,5.92229 9.10326,9.1172c2.46913,2.74877 4.11858,6.13805 6.29845,9.12141c1.40359,1.92096 3.35515,3.42382 4.62662,5.43466c5.3458,8.45446 4.53254,19.33235 4.52621,28.77471c-0.00407,6.05841 0.56908,12.14046 0.03407,18.1752c-0.35811,4.03933 -1.6164,7.96301 -2,12c-0.74667,7.858 -0.13394,15.89422 -1.78634,23.61273c-1.17522,5.48956 -4.05332,11.72595 -6.31951,17.0046c-1.01355,2.12013 -1.7342,4.40706 -3.04064,6.36038c-0.8542,1.27715 -2.31637,2.03103 -3.33886,3.17789c-1.23823,1.38885 -2.05352,3.15018 -3.42453,4.40814c-1.48202,1.35983 -11.56797,7.76668 -12.75746,8.3992c-5.28383,2.80971 -11.15757,4.40622 -16.42951,7.23817c-4.47019,2.40127 -8.63556,6.64818 -13.33074,8.64055c-4.91035,2.08368 -10.35289,3.15364 -14.78568,6.12074c-1.21824,0.81543 -1.23884,2.8614 -2.4903,3.62489c-1.43417,0.87496 -3.3632,0.38276 -4.95574,0.91778c-6.41892,2.15648 -11.89828,6.67815 -18.39726,8.78746c-11.6374,3.77704 -24.86892,3.54829 -36.97751,3.53229c-4,0 -8.0017,-0.11683 -12,0c-0.66631,0.01947 -1.35385,0.40548 -1.98934,0.20423c-2.19816,-0.69616 -4.08634,-2.22535 -6.31064,-2.83283c-2.92338,-0.79841 -5.96686,-1.15282 -8.99113,-1.34624c-4.10908,-0.2628 -8.23791,0.13747 -12.35243,-0.01881c-11.50586,-0.43701 -23.22887,-1.77989 -34.55365,-3.8425c-1.89565,-0.34526 -13.0125,-2.11136 -13.97598,-2.40265c-0.95529,-0.28881 -1.52002,-1.34202 -2.43332,-1.74436c-1.79869,-0.79239 -3.87874,-0.87926 -5.61466,-1.80106c-2.93141,-1.55663 -5.12359,-4.22433 -7.77885,-6.21578c-9.39482,-7.04612 -17.95031,-14.0216 -24.11795,-24.15412c-1.71621,-1.72859 -3.59985,-3.3057 -5.14863,-5.18577c-4.07616,-4.94806 -6.77987,-10.97317 -10.933,-15.91738c-2.47118,-2.94189 -4.81272,-6.03013 -7.6463,-8.62478c-0.95565,-0.87508 -2.57295,-0.74791 -3.5361,-1.61472c-1.29815,-1.16832 -3.18444,-6.99735 -3.65955,-7.94685c-1.88893,-3.77503 -3.31367,-4.30328 -4.0876,-8.15819c-1.48819,-7.41262 -0.87087,-15.85871 -0.87087,-23.39818c0,-4.72508 -0.37015,-9.46209 -0.03408,-14.1752c0.34011,-4.76976 1.67358,-9.43374 2.01475,-14.20343c0.43974,-6.14773 0.01932,-12.45556 0.01932,-18.62137c0,-2.46644 -0.6144,-4.97995 -0.12913,-7.39818c0.57843,-2.88246 2.08021,-4.87218 3.25153,-7.50526c1.6799,-3.77639 2.9892,-8.21765 5.30096,-11.70703c2.60416,-3.93075 8.51159,-8.99212 11.02792,-11.72032c1.32252,-1.43388 2.25946,-3.20007 3.61979,-4.59814c3.94162,-4.05097 9.66402,-5.8091 14.08305,-9.18902c5.81485,-4.44751 11.09046,-11.51944 14.27031,-18.23731c0.83294,-0.19328 1.65087,-0.67371 2.49791,-0.83125c4.62114,-0.85945 9.3773,-0.82775 14.07766,-0.81349c7.66666,0 15.33334,0 23,0c1.42786,0 2.92434,-0.05488 4.45016,-0.1192c0.08231,0.01127 0.16462,0.02258 0.24692,0.03395c17.78076,2.45742 35.76861,5.69977 53.68154,7.06592c8.61247,0.65684 17.59157,0.02525 26.24275,0c1.43338,-0.18359 2.88226,-0.42838 4.33973,-0.70027c2.3014,0.47915 4.59245,0.97449 6.86959,1.48147c0,0 6.01185,1.33597 9.64823,-2.80679c4.62556,-0.1521 9.45422,-0.60981 13.91926,-0.08421z" fill="#00ff72"/><path d="M403.50413,266.20006c-0.00507,-0.02348 -0.01022,-0.04694 -0.01547,-0.07039c0.00556,-0.00452 0.011,-0.00903 0.01631,-0.01349c-0.00028,0.02796 -0.00057,0.05592 -0.00084,0.08387z" fill="#00ff72"/><path d="M203.54385,214.35876c-0.3736,0.38648 -0.76533,0.71974 -1.16867,1.00631c-0.1614,4.02686 -0.40537,8.31614 -0.01993,12.03311c0.10872,1.04847 1.12834,1.95375 1,3c-0.48716,3.97156 0.02956,8.84353 -2.79981,11.67289c-7.44056,7.44056 -11.68263,1.54953 -18.2929,0.85401c-4.92652,-0.51836 -9.53893,-0.67577 -14.17168,-2.94192c-2.15922,-1.0562 -3.86492,-2.89581 -6,-4c-1.51015,-0.781 -3.3466,-0.9768 -4.67642,-2.03609c-1.38294,-1.1016 -2.31926,-2.66465 -3.32809,-4.12932c-0.66944,0.86249 -3.04162,-0.82727 -4.39785,-1.21655c-4.38379,-1.25827 -7.91022,-2.81843 -11.75113,-5.2807c-2.84098,-2.0576 -5.49032,-1.98109 -8.71031,-3.81399c-1.02169,-0.58157 -1.61288,-1.74008 -2.58979,-2.39409c-4.61748,-3.09122 -9.90253,-5.71632 -14.80838,-8.2622c-2.89695,-1.50337 -6.34062,-1.71212 -9.2715,-3.14822c-0.95835,-0.46958 -1.41499,-1.64675 -2.33032,-2.19549c-0.90408,-0.54199 -2.10425,-0.44436 -3,-1c-1.08634,-0.67387 -1.9212,-1.68277 -2.85349,-2.56187l-2.30715,-1.5381c-2.75701,-1.78054 -4.58205,-4.88041 -4.58205,-8.40654c0,-5.52285 4.47715,-10 10,-10h3.25262c5.55786,-2.4221 12.80944,-0.49929 18.3247,-2.39602c2.06626,-0.7106 3.42888,-2.75985 5.37715,-3.74912c1.14448,-0.58113 2.59755,-0.31465 3.74782,-0.88423c1.1715,-0.5801 1.92181,-1.80063 3.04041,-2.47713c3.49211,-2.11195 7.18759,-3.22932 10.46668,-5.64632c2.09564,-1.54469 3.89392,-3.46958 6,-5c1.45079,-1.05424 3.24612,-1.59652 4.63651,-2.72923c3.29054,-2.6807 6.38845,-5.65233 9.0417,-8.96505c2.07829,-2.59486 2.61727,-6.67245 4.12927,-9.54641c0.32023,-0.60868 1.24227,-0.83788 1.41223,-1.50433c0.28036,-1.09932 -0.44827,-2.302 -0.16157,-3.39969c0.77641,-2.97265 2.52213,-5.6146 3.49369,-8.52931c2.67119,-5.39493 7.15116,-10.63058 8.75196,-16.33544l0.08162,-0.24485c-0.09978,-0.39199 -0.19878,-0.78132 -0.29621,-1.16751c0,0 -2.42536,-9.70143 7.27607,-12.12678c9.70143,-2.42536 12.12678,7.27607 12.12678,7.27607c0.2869,1.15626 0.58119,2.33305 0.87084,3.52285c0.10931,0.36096 0.19875,0.73055 0.26707,1.1075c0.93283,3.90969 1.7765,7.93345 2.11199,11.80963c0.19441,2.24613 -0.3061,4.52645 -0.02626,6.76354c0.23152,1.85087 0.72446,3.63498 1.31871,5.39198c7.13745,0.57136 13.77233,2.31026 21.34143,2.84699c13.27939,0.94164 27.06492,-0.01714 40.41479,-0.01714c9.035,0 18.61274,-0.74572 27.60182,0.12913c1.04914,0.10211 1.96598,0.79526 3,1c1.76563,0.34961 3.59827,-0.12913 5.39818,-0.12913c6.72973,0 13.33301,0.38343 19.98538,1.04867c1.69124,0.16912 3.30618,0.85902 5,1c4.27761,0.35603 8.58441,0.42019 12.83943,0.98541c6.54379,0.86925 11.19987,-0.60637 14.41399,8.13909c1.70713,4.64502 0.60318,9.88057 0.7612,14.82683c0.12507,3.91502 -0.6049,9.74487 -0.04867,14.01462c0.56432,4.33186 2.34973,8.43988 2.97374,12.76354c0.29695,2.05752 -0.16282,4.16624 0.02626,6.23646c0.48274,5.28546 3.85816,9.89637 -1.21791,15.32527c-6.49779,6.94944 -21.05408,4.658 -29.28643,4.64481c-3,-0.33333 -5.98693,-0.8196 -9,-1c-2.11672,-0.12673 -12.99425,0.20778 -15.04882,-0.11382c-2.08282,-0.32603 -3.95615,-1.48315 -6,-2c-2.95071,-0.74619 -11.27013,0.12913 -13.39818,0.12913c-4.67157,0 -9.35763,-0.41741 -14.01462,-0.04867c-1.69437,0.13416 -3.30802,0.83848 -5,1c-9.90707,0.94573 -20.12062,-1.04259 -30,0c-9.33551,0.9852 -18.53291,2.15283 -28,2c-0.64197,0.13581 -1.28393,0.27161 -1.9259,0.40742z" fill="#ffffff"/></g></g></svg>