<svg version="1.1" xmlns="http://www.w3.org/2000/svg" xmlns:xlink="http://www.w3.org/1999/xlink" width="184.71763" height="204.1175" viewBox="0,0,184.71763,204.1175"><g transform="translate(-72.86759,-25.46039)"><g data-paper-data="{&quot;isPaintingLayer&quot;:true}" fill="#00ff72" fill-rule="nonzero" stroke="none" stroke-width="0.5" stroke-linecap="butt" stroke-linejoin="miter" stroke-miterlimit="10" stroke-dasharray="" stroke-dashoffset="0" style="mix-blend-mode: normal"><path d=""/><path d="M150.81826,226.57456c-5.85558,5.64002 -13.92406,1.60578 -13.92406,1.60578l-2,-1c-2.5915,-1.30141 -4.92,-3.39004 -7.77367,-3.90589c-1.31207,-0.23718 -2.69978,0.29532 -4,0c-2.24463,-0.50983 -4.29134,-1.67422 -6.48202,-2.38079c-5.25097,-1.69361 -7.08371,-0.62784 -12.75772,-4.9722c-3.44503,-2.63772 -5.10369,-7.02021 -7.53694,-10.61258c-1.36633,-2.01721 -3.23505,-3.68569 -5.16835,-5.16835c-1.50345,-1.15301 -3.62133,-1.43239 -4.96365,-2.76955c-2.11369,-2.10556 -3.82308,-4.64635 -5.1589,-7.31406c-4.71828,-9.42266 -1.73007,-20.23226 -2.90716,-30.05464c-0.12542,-1.0466 -0.88196,-1.95254 -1,-3c-0.24171,-2.14487 0.09993,-4.32306 -0.06775,-6.47499c-0.2402,-3.08256 -3.13876,-9.16966 -3.86811,-11.16345c-0.16318,-5.32773 -0.644,-17.64627 -0.06414,-21.36612c1.7769,-11.39892 8.49402,-22.07091 16.10831,-30.42695c1.5296,-1.67861 3.0367,-3.4443 4.9214,-4.7113c2.81358,-1.89145 6.14098,-2.90459 9.03479,-4.67085c13.8273,-8.43957 16.7913,-12.38804 31.61799,-20.33576c10.03409,-5.37868 29.11534,-10.9317 37.97832,-14.4446c6.6783,-2.64699 14.49497,-5.80077 20.81365,-9.85497c3.70062,-2.3744 6.90291,-5.60483 10.91129,-7.41183c0.88285,-0.39799 8.58681,-0.85059 10.72957,-0.6173c8.0149,0.87261 15.95729,2.43888 24,3c6.0931,0.4251 12.21881,-0.18776 18.32411,-0.02166c-0.1924,0.50539 -0.39385,0.9331 -0.60735,1.24019c-0.53819,0.7741 -1.57552,1.15816 -2,2c-2.63815,5.23203 -2.45687,10.21053 -3.36437,15.65549c-0.5753,3.45183 -1.59416,6.86122 -2.0542,10.37999c-0.47318,3.61923 -0.07492,7.56788 -0.07492,11.22183c0.08212,1.94885 -0.69924,3.8407 -0.92508,5.77817c-0.76192,6.53658 -0.07492,13.6364 -0.07492,20.22183c0,1.79991 0.47873,3.63255 0.12913,5.39818c-0.20474,1.03402 -0.87689,1.95312 -1,3c-0.16172,1.37521 -0.12913,9.62029 -0.12913,11.60182c0,6.13722 0,13.27736 0,20c-1.26338,0 -2.47205,0.23429 -3.58492,0.66178c-4.59205,0.38067 -9.18783,0.69553 -13.79238,0.82269c-8.79333,0.24284 -17.89885,-1.48825 -26.37601,0.86111c-5.88976,3.93052 -6.93097,10.01132 -9.99013,16.08952c-1.40241,2.78643 -2.97907,5.48565 -4.6234,8.13653c-1.02498,1.65239 -2.02898,3.31818 -3.03377,4.98345c-2.71739,3.23389 -5.09337,6.69559 -7.17302,10.39261c-0.10459,0.1128 -0.20115,0.23214 -0.28582,0.36118c-0.58694,0.89456 -1.07181,1.91244 -1.49098,2.99748c-0.20108,0.40453 -0.39901,0.8117 -0.59385,1.22151c-1.28952,2.7123 -2.92249,5.29886 -3.78822,8.17461c-0.3447,1.145 -0.32225,2.35591 -0.28733,3.56658c-0.61094,0.67045 -1.26884,1.31412 -1.69343,2.10309c-1.12435,2.08928 -0.90465,4.71161 -1.93031,6.85106c-0.77171,1.60974 -2.08238,2.92927 -2.80792,4.56033c-0.64472,1.44938 -0.54989,3.171 -1.26177,4.5886c-0.10929,0.21764 -0.22322,0.4327 -0.34107,0.64558l-2.36363,1.57575c-2.75701,1.78054 -4.58205,4.88041 -4.58205,8.40654c0,0.20814 0.00636,0.4148 0.01889,0.61979c-1.47422,1.6253 -3.70254,3.40518 -6.68498,3.95475zM234.01582,92.11389c0.20037,-3.93571 1.50817,-7.73951 2.06221,-11.64118c1.26528,-8.91033 1.75091,-17.95225 2.75784,-26.9296c-0.37619,-0.01875 -0.75226,-0.04103 -1.12821,-0.06726c-8.04271,-0.56112 -15.98916,-2.09092 -24,-3c-0.66034,-0.07494 -1.38811,0.26439 -2.01206,0.10174c-1.38851,1.36187 -2.75621,2.75876 -4.34709,3.86912c-6.54104,4.56532 -19.07966,9.70988 -25.18635,12.14503c-8.97652,3.57954 -18.17417,6.58214 -27.1855,10.07314c-2.95208,1.14364 -6.0521,1.97509 -8.83619,3.48225c-10.2808,5.5655 -20.4353,13.62701 -30.38201,19.66424c-2.19981,1.33519 -4.73351,2.04796 -6.96521,3.32915c-3.56793,2.04831 -7.37041,9.65103 -8.86703,12.89276c-2.92384,6.33317 -1.5923,11.88112 -2.1674,18.60287c1.92093,4.02394 3.61139,8.36272 4.13189,12.83655c0.21285,1.82947 -0.26797,3.69412 -0.06775,5.52501c0.11459,1.04785 0.88934,1.95173 1,3c0.28008,2.65323 0.14115,5.33439 0.16141,8.00228c0.03699,4.87226 0.08661,9.7724 0.76686,14.59708c0.00705,0.05001 0.02022,0.10548 0.03743,0.16456c0.72715,0.20963 1.41923,0.63695 2.00459,1.09783c0.55349,0.4358 9.59262,9.14165 10.83165,10.83165c1.05502,1.43902 1.75069,3.11446 2.49261,4.73724c0.09021,0.19731 -0.21891,0.54431 -0.02955,0.65018c1.5543,0.86892 3.56071,0.44195 5.24228,1.0278c1.21904,0.42471 2.25601,1.34741 3.51798,1.61921c1.30344,0.28073 2.70474,-0.31635 4,0c3.15922,0.7716 6.13643,2.0678 9.04864,3.49093c0.49487,-0.48988 0.9955,-0.9738 1.3008,-1.58862c0.51745,-1.04205 0.26605,-2.34806 0.73823,-3.4114c0.85322,-1.92145 2.20972,-3.58093 3.19208,-5.43967c1.15921,-2.19335 1.00071,-4.91023 2.06969,-7.14894c0.74755,-1.56555 2.35814,-2.61484 3.09106,-4.18729c1.35139,-2.89933 1.31067,-6.31788 2.64716,-9.22411c3.73959,-8.1318 9.13553,-15.20376 13.91536,-22.7881c5.72071,-9.07727 7.84953,-20.21885 16.18582,-27.6421c2.75247,-2.451 6.13377,-4.08791 9.20065,-6.13186c3.5043,-1.01119 6.8797,-2.71346 10.5129,-3.03358c8.33813,-0.73469 16.74471,0.15515 25.11109,-0.1053c1.81441,-0.05648 3.62748,-0.14067 5.43951,-0.24533c-0.54657,-6.00423 -0.74935,-10.04319 -0.28539,-19.15631z"/><path d=""/></g></g></svg>