<svg version="1.1" xmlns="http://www.w3.org/2000/svg" xmlns:xlink="http://www.w3.org/1999/xlink" width="355.12094" height="191.89476" viewBox="0,0,355.12094,191.89476"><g transform="translate(-57.98439,-68.50001)"><g data-paper-data="{&quot;isPaintingLayer&quot;:true}" fill-rule="nonzero" stroke="none" stroke-width="0.5" stroke-linecap="butt" stroke-linejoin="miter" stroke-miterlimit="10" stroke-dasharray="" stroke-dashoffset="0" style="mix-blend-mode: normal"><path d="M77.68716,70.43731c1.20673,-0.32911 2.53501,0.06269 3.79723,0.06269c7.63604,0 15.63541,-0.67088 23.23172,0.06083c7.91178,0.76211 15.69181,2.97537 23.44983,4.23018c6.73776,1.08979 14.26715,2.29299 21.09518,2.73314c2.47988,0.15986 4.98709,-0.25458 7.455,0.03668c10.32129,1.21814 20.3199,4.28997 30.75625,4.97827c29.16808,1.92372 58.5816,0.95109 87.78875,0.98505c27.23732,3.33537 54.82568,1.97585 82.22328,1.97585c8,0 16,0 24,0c9.82087,0 19.70689,-1.79886 27.44317,6.30998c4.35706,4.56687 3.99831,9.75149 4.05683,15.19002c0.11831,10.99724 0,22.00208 0,33c0,22.46551 0.27668,44.95265 -0.00693,67.41598c-0.15974,12.65226 -1.87017,25.28037 -2.21862,37.94787c-2.86127,4.58856 -4.1728,10.6376 -8.5838,13.76568c-3.72389,2.64081 -9.12571,0.32001 -13.69065,0.37047c-13.99622,0.15471 -28.00306,0.0063 -42,0c-8.49989,-0.00382 -16.98783,-0.64005 -25.47971,-1.00921c-12.66717,-0.55067 -25.43289,-0.33452 -38.08672,-1.00363c-3.91562,-0.20705 -42.29491,-3.93023 -45.85503,-4.27161c-27.98369,-2.68335 -55.81414,-5.12103 -83.87078,-6.78668c-8.60361,-1.03569 -17.25744,-1.71627 -25.81082,-3.10706c-5.82194,-0.94665 -11.39963,-3.23561 -17.2609,-3.89645c-5.51049,-0.6213 -11.09065,0.06155 -16.63604,0.07464c-3.43992,0.00812 -21.97424,1.01495 -26.30888,-2.35948c-7.83646,-6.10052 -5.63369,-11.75548 -6.16696,-19.3638c-0.43827,-6.25287 -1.0172,-12.50852 -1.02416,-18.77672c-0.02866,-25.83955 0.8644,-51.85523 0.00432,-77.67139c-0.44982,-13.50177 -1.989,-26.83026 -2.00432,-40.3286c0,0 0,-12.5 12.5,-12.5c3.11092,0 5.44761,0.77423 7.20277,1.93731z" fill="#00ff72"/><path d="M72.35759,162.9683c3.0317,-12.12678 15.15848,-9.09509 15.15848,-9.09509l2.4956,0.72044c8.90132,-0.05388 17.84458,-0.89279 26.70443,-0.03282c3.38345,0.32841 6.60624,1.80511 10,2c7.90975,0.45422 15.84551,-0.04517 23.76828,-0.06083c4.56886,-0.00903 10.41795,0.80174 14.99772,0.16141c1.04394,-0.14596 1.95081,-0.89847 3,-1c8.13968,-0.78764 16.83019,-0.44254 24.98148,-1.11966c7.41887,-0.61627 14.86078,-1.01858 22.25093,-1.91582c3.55343,-0.43142 6.98136,-1.66225 10.53815,-2.0651c6.70109,-0.75899 13.48778,-0.06083 20.23172,-0.06083c11.33333,0 22.66667,0 34,0c7.07016,0 14.49949,-0.71308 21.52729,0.09366c1.3654,0.15674 2.63563,0.83452 4,1c7.35462,0.89202 15.06915,-0.79217 22.47499,0.06775c1.04706,0.12158 1.96044,0.82557 3,1c4.61351,0.77412 10.26514,-0.16141 14.99772,-0.16141c1.76283,0 3.52565,0 5.28848,0c-0.15251,-4.48832 0.21152,-9.19756 0.21152,-13.5c0,-2.28906 -0.09519,-8.75068 0.45356,-10.33667c1.09164,-3.155 2.97903,-5.99055 4.78354,-8.79936c0.8259,-1.28555 2.23726,-2.12512 3.06146,-3.41175c0.26715,-0.41703 -0.0233,-0.99843 0.07465,-1.48391c0.82379,-4.08283 1.90746,-6.82031 3.26824,-10.92115c0,0 3.95285,-11.85854 15.81139,-7.90569c11.85854,3.95285 7.90569,15.81139 7.90569,15.81139c-1.50553,4.49297 -2.50044,11.47748 -4.65711,15.59493c-1.51471,2.89185 -3.89944,5.24429 -6.06638,7.68873c0.13473,-0.14373 0.3507,-0.35158 0.36494,-0.23651c0.16383,1.32323 0,2.66667 0,4c0,3 0,6 0,9c0,5.2284 0.43562,8.24326 2.22356,13.66317c0.62507,1.8948 2.0354,3.51155 2.44205,5.46492c0.84993,4.08269 -0.32329,8.37869 0.25975,12.50795c0.42966,3.043 1.59918,5.95307 2,9c0.28639,2.17706 0.03366,4.39149 0.05048,6.58724c0.96055,7.49444 2.17832,15.05829 2.96332,22.545c0.29751,2.83737 -0.15215,7.71257 0.04171,10.54047c0.33553,4.89469 0.98029,9.78888 0.85772,14.69353l-1.48005,4.95057c0,0 -3.95285,11.85854 -15.81139,7.90569c-11.85854,-3.95285 -7.90569,-15.81139 -7.90569,-15.81139l0.51995,-1.04943c-2.64646,-5.70044 -0.38093,-12.7992 -1.10057,-18.766c-0.93934,-7.78841 -2.08063,-15.63692 -3.03668,-23.455c0.04521,-4.84779 -1.33976,-9.60325 -1.94952,-14.41276c-0.19222,-1.51617 -0.20005,-3.04765 -0.16238,-4.57987c-4.61417,0.18386 -9.65362,-0.28409 -13.41226,-0.28409c-5.20264,0 -10.84861,0.50348 -16.00228,-0.16141c-1.04543,-0.13487 -1.95606,-0.85404 -3,-1c-4.59449,-0.6424 -10.40907,0.19318 -14.99772,0.16141c-3.5279,-0.02443 -7.03339,-0.60442 -10.52729,-1.09366c-5.83372,-0.81687 -12.53201,0.09366 -18.47271,0.09366c-11.33333,0 -22.66667,0 -34,0c-5.92279,0 -11.88982,-0.78418 -17.76828,-0.06083c-3.19512,0.39316 -6.26595,1.54814 -9.46185,1.9349c-2.39428,0.28975 -30.55859,2.72758 -37.29016,3.11672c-3.15428,0.18234 -6.33511,-0.48168 -9.47743,-0.1522c-1.04835,0.10992 -1.95294,0.87842 -3,1c-6.09857,0.70813 -12.87162,0.17263 -19.00228,0.16141c-8.74392,-0.01601 -17.5019,0.43571 -26.23172,-0.06083c-3.39386,-0.19304 -6.61865,-1.65063 -10,-2c-9.05035,-0.9351 -18.19716,0.01317 -27.29557,-0.03282l-5.5044,-1.27956c0,0 -12.12678,-3.0317 -9.09509,-15.15848z" fill="#ffffff"/></g></g></svg>