<svg version="1.1" xmlns="http://www.w3.org/2000/svg" xmlns:xlink="http://www.w3.org/1999/xlink" width="55.89091" height="68.51188" viewBox="0,0,55.89091,68.51188"><g transform="translate(-108.48438,-222.48811)"><g data-paper-data="{&quot;isPaintingLayer&quot;:true}" fill-rule="nonzero" stroke-linejoin="miter" stroke-miterlimit="10" stroke-dasharray="" stroke-dashoffset="0" style="mix-blend-mode: normal"><path d="M163.37529,261.16363c0,15.92588 -12.06389,28.83636 -26.94545,28.83636c-14.88156,0 -26.94545,-12.91048 -26.94545,-28.83636c0,-15.92588 12.06389,-28.83636 26.94545,-28.83636c14.88156,0 26.94545,12.91048 26.94545,28.83636z" fill="#fff700" stroke="#000000" stroke-width="2" stroke-linecap="butt"/><path d="M135.24802,249.81818c0,4.04674 -2.91015,7.32727 -6.5,7.32727c-3.58985,0 -6.5,-3.28053 -6.5,-7.32727c0,-4.04674 2.91015,-7.32727 6.5,-7.32727c3.58985,0 6.5,3.28053 6.5,7.32727z" fill="#ffffff" stroke="#000000" stroke-width="2" stroke-linecap="butt"/><path d="M150.84802,249.93636c0,4.11201 -3.01597,7.44545 -6.73636,7.44545c-3.72039,0 -6.73636,-3.33344 -6.73636,-7.44545c0,-4.11201 3.01597,-7.44545 6.73636,-7.44545c3.72039,0 6.73636,3.33344 6.73636,7.44545z" fill="#ffffff" stroke="#000000" stroke-width="2" stroke-linecap="butt"/><path d="M159.35711,259.15454c0.59091,0 0.59091,0.59091 0.59091,0.59091l-0.06238,0.73699c-0.27703,0.55203 -0.39464,1.18551 -0.73496,1.70094c-0.33608,0.50901 -0.87319,0.87315 -1.17339,1.40411c-0.45485,0.80449 -0.41928,1.03198 -0.99956,1.73258c-0.65945,0.79618 -1.4008,1.39258 -2.00642,2.24394c-0.48912,0.48844 -0.85303,1.09231 -1.34181,1.58109c-0.66373,0.66373 -1.45844,1.10276 -2.08813,1.8477c-0.42221,0.49948 -0.76399,1.07914 -1.26416,1.50053c-0.73917,0.62274 -1.63465,1.16599 -2.32043,1.85177c-0.26874,0.26874 -0.43319,0.62623 -0.68052,0.91478c-0.72524,0.84612 -1.60433,1.60643 -2.39221,2.39431c-0.42596,0.42596 -0.77482,0.9528 -1.28899,1.26664c-0.23748,0.14495 -0.53068,0.16967 -0.78736,0.277c-0.53385,0.22323 -0.94319,0.67531 -1.45041,0.95378c-0.5482,0.30096 -1.16011,0.46972 -1.72371,0.74077c-2.03154,0.80111 -3.89871,0.71671 -6.04009,0.71671c-1.64861,0 -3.23672,0.01275 -4.75053,-0.76918c-0.30995,-0.1601 -0.61696,-0.34276 -0.86731,-0.58572c-0.18577,-0.18028 -0.21151,-0.49551 -0.41357,-0.65733c-0.17995,-0.14411 -0.46324,-0.08493 -0.66107,-0.20331c-0.203,-0.12147 -0.31075,-0.36478 -0.50758,-0.49601c-0.29317,-0.19546 -0.65349,-0.27547 -0.94545,-0.47273c-0.80641,-0.54481 -1.37693,-1.39269 -2.1996,-1.95244c-0.62141,-0.9086 -1.24856,-1.78704 -1.93005,-2.6432c-0.86743,-1.08976 -2.11653,-1.96918 -2.88205,-3.1367c-0.10215,-0.1558 -0.41782,-1.27129 -0.516,-1.50271c-0.14984,-0.3532 -0.40007,-0.66591 -0.5019,-1.03582c-0.0217,-0.07884 -0.01581,-1.77282 -0.01581,-1.79031c0,-1.19585 -0.10475,-2.34705 0.26669,-3.49595c0,0 0.18686,-0.56059 0.74745,-0.37372c0.56059,0.18686 0.37372,0.74745 0.37372,0.74745c-0.34626,0.99967 -0.20604,2.07094 -0.20604,3.12223c0,0.50629 -0.16105,1.03377 -0.01581,1.51878c0.09211,0.3076 0.31592,0.56045 0.44356,0.85509c0.18564,0.42855 0.16646,0.94771 0.42945,1.33365c0.16891,0.24787 0.4468,0.40207 0.64674,0.62566c0.68859,0.77003 1.49671,1.57781 2.14395,2.3831c0.6603,0.82154 1.2776,1.66576 1.85177,2.5568c0.7828,0.50972 1.29827,1.33241 2.05495,1.82937c0.29451,0.19343 0.65228,0.27729 0.94545,0.47273c0.17403,0.11602 0.25865,0.34162 0.43788,0.44944c0.22954,0.13808 0.54786,0.10218 0.75711,0.26942c0.40573,0.3243 0.61395,0.89696 1.08276,1.12059c1.39629,0.66608 2.72434,0.649 4.23129,0.649c1.96413,0 3.71016,0.12172 5.56601,-0.61745c0.5317,-0.25577 1.11157,-0.40923 1.62841,-0.69382c0.54059,-0.29767 0.98573,-0.76651 1.55501,-1.00475c0.20309,-0.08499 0.44085,-0.08445 0.63082,-0.19573c0.44169,-0.25872 0.71268,-0.73504 1.07464,-1.097c0.76807,-0.76807 1.62803,-1.50809 2.33507,-2.33297c0.26542,-0.30965 0.44928,-0.68774 0.73766,-0.97613c0.71225,-0.71224 1.63159,-1.29197 2.40684,-1.93005c0.44528,-0.36649 0.72633,-0.89612 1.09947,-1.33584c0.45768,-0.53933 0.95275,-1.05299 1.50053,-1.50053c0.20512,-0.16758 0.47859,-0.2463 0.66589,-0.43359c0.46553,-0.46553 0.80977,-1.04259 1.27499,-1.50844c0.59995,-0.84339 1.33758,-1.44696 1.99496,-2.23017c0.4621,-0.55055 0.51692,-0.92749 0.89135,-1.57651c0.3102,-0.53769 0.8431,-0.91764 1.19024,-1.43225c0.32571,-0.48283 0.42346,-1.08686 0.68322,-1.60815l-0.06238,-0.20847c0,0 0,-0.59091 0.59091,-0.59091z" fill="#000000" stroke="none" stroke-width="0.5" stroke-linecap="butt"/><path d="M128.62984,251.35454c-0.59091,0 -0.59091,-0.59091 -0.59091,-0.59091l0.03032,-0.28587c-0.16684,-0.51605 -0.26154,-1.06272 -0.26669,-1.60504c0,0 0,-0.59091 0.59091,-0.59091c0.59091,0 0.59091,0.59091 0.59091,0.59091c-0.00517,0.41612 0.06984,0.83809 0.20604,1.23132l0.03032,0.65959c0,0 0,0.59091 -0.59091,0.59091z" fill="#000000" stroke="none" stroke-width="0.5" stroke-linecap="butt"/><path d="M144.4941,251.52852c-0.52853,0.26426 -0.79279,-0.26426 -0.79279,-0.26426l-0.26842,-0.55013c-0.19079,-0.59013 -0.26214,-1.22122 -0.26669,-1.84141c0,0 0,-0.59091 0.59091,-0.59091c0.59091,0 0.59091,0.59091 0.59091,0.59091c-0.00443,0.494 0.04435,1.00087 0.20604,1.46768l0.2043,0.39533c0,0 0.26426,0.52853 -0.26426,0.79279z" fill="#000000" stroke="none" stroke-width="0.5" stroke-linecap="butt"/><path d="M153.32984,237.76363c-2.93715,0 -5.31818,-2.16938 -5.31818,-4.84545c0,-2.67607 2.38103,-4.84545 5.31818,-4.84545c2.93715,0 5.31818,2.16939 5.31818,4.84545c0,2.67607 -2.38103,4.84545 -5.31818,4.84545z" fill="#ffa000" stroke="#000000" stroke-width="2" stroke-linecap="butt"/><path d="M152.2662,228.07272l1.65455,-3.07273l1.18182,3.54545" fill="none" stroke="#ffa000" stroke-width="2" stroke-linecap="round"/><path d="M157.22984,229.96363l3.30909,-1.18182l-1.89091,3.30909" fill="none" stroke="#ffa000" stroke-width="2" stroke-linecap="round"/><path d="M153.20198,227.73253c-0.01385,0.0163 -0.02889,0.03262 -0.04521,0.04894c-0.41784,0.41784 -0.83567,0 -0.83567,0l0.18147,-1.24511c0.02874,0.00027 0.06227,-0.00008 0.09972,-0.0007c0.10941,-0.10555 0.29926,-0.12519 0.49119,-0.11113v-0.47907c0,-0.32635 0.26456,-0.59091 0.59091,-0.59091c0.32635,0 0.59091,0.26456 0.59091,0.59091v0.70909c0,0 0,0.04872 -0.01399,0.11818c0.18181,0 0.36854,0 0.36854,0c0.32635,0 0.59091,0.26456 0.59091,0.59091c0,0.32635 -0.26456,0.59091 -0.59091,0.59091h-0.70909v-0.02604c-0.0313,0.007 -0.06285,0.01316 -0.09465,0.01841c-0.21712,0.0358 -0.41233,-0.14291 -0.62412,-0.21438z" fill="#ffa000" stroke="none" stroke-width="0.5" stroke-linecap="butt"/><path d="M157.80455,230.92574c-0.13208,0.10243 -0.33294,0.17398 -0.6026,0.03915c-0.52853,-0.26426 -0.26426,-0.79279 -0.26426,-0.79279l0.86237,-0.45666l-0.08173,-0.12644c0.07514,0.01904 0.15179,0.03463 0.2293,0.04829l0.17278,-0.0915c0.04811,0.04849 0.09883,0.09481 0.14996,0.1408c0.02727,0.00389 0.05454,0.00779 0.08177,0.01178l0.15094,-0.22641l0.21607,0.14405c0.18139,-0.41035 0.60775,-0.69419 0.92923,-1.01567c0,0 0.41784,-0.41784 0.83567,0c0.41784,0.41784 0,0.83567 0,0.83567c-0.30039,0.30039 -0.58316,0.57019 -0.87774,0.82802c0.68753,0.7154 0.3034,1.59387 -1.15005,1.44034c-0.33795,-0.0357 -0.45423,-0.47631 -0.6517,-0.77864z" fill="#ffa000" stroke="none" stroke-width="0.5" stroke-linecap="butt"/><path d="M151.20257,231.38181c0,-0.32635 0.26456,-0.59091 0.59091,-0.59091c0.32635,0 0.59091,0.26456 0.59091,0.59091c0,0.32635 -0.26456,0.59091 -0.59091,0.59091c-0.32635,0 -0.59091,-0.26456 -0.59091,-0.59091z" fill="#000000" stroke="none" stroke-width="0.5" stroke-linecap="butt"/><path d="M154.51166,232.56363c0,-0.32635 0.26456,-0.59091 0.59091,-0.59091c0.32635,0 0.59091,0.26456 0.59091,0.59091c0,0.32635 -0.26456,0.59091 -0.59091,0.59091c-0.32635,0 -0.59091,-0.26456 -0.59091,-0.59091z" fill="#000000" stroke="none" stroke-width="0.5" stroke-linecap="butt"/><path d="M153.62949,236.76329c-0.41784,0.41784 -0.83567,0 -0.83567,0l-0.37911,-0.46734c-0.10758,-0.35287 -0.29786,-0.69784 -0.56634,-0.95084c0,0 -0.02319,-0.02319 -0.05319,-0.06412c-0.18071,0.00598 -0.44505,-0.05152 -0.56229,-0.40322c-0.00406,-0.01219 -0.00777,-0.0242 -0.01114,-0.03604c-0.44503,0.05311 -0.88565,0.16667 -1.30803,0.31076l-0.29701,0.099c0,0 -0.51401,0.17134 -0.72171,-0.30632c-0.07276,0.02025 -0.14717,0.04343 -0.22375,0.06995l-0.42323,0.03032c0,0 -0.59091,0 -0.59091,-0.59091c0,-0.59091 0.59091,-0.59091 0.59091,-0.59091l0.0495,0.03032c0.73021,-0.23607 1.31013,-0.26317 2.02962,-0.26628c-0.22946,-0.19869 -0.47154,-0.38663 -0.75235,-0.57237l-0.32642,-0.31019c0,0 -0.41784,-0.41784 0,-0.83567c0.41784,-0.41784 0.83567,0 0.83567,0l0.1463,0.16253c0.67639,0.45402 1.17287,0.92028 1.7446,1.49201c0,0 0.04823,0.04823 0.09553,0.1283c0.07385,0.03397 0.14924,0.0857 0.20763,0.16445c0.19705,-0.01221 0.39513,-0.03029 0.58171,0.01759c0.53249,-0.13332 1.06253,-0.2792 1.58316,-0.45309l0.70909,-0.23636c0,0 0.56059,-0.18686 0.74745,0.37372c0.18686,0.56059 -0.37372,0.74745 -0.37372,0.74745l-0.70909,0.23636c-0.23222,0.07726 -0.46614,0.14946 -0.70124,0.21772c0.06784,0.07667 0.3591,0.44901 -0.01324,0.82135c-0.24378,0.24378 -0.48756,0.2031 -0.64836,0.12691c0.02932,0.07075 0.05667,0.1421 0.08202,0.21385l0.09361,0.00539c0,0 0.41784,0.41784 0,0.83567z" fill="#000000" stroke="none" stroke-width="0.5" stroke-linecap="butt"/></g></g></svg>