<svg version="1.1" xmlns="http://www.w3.org/2000/svg" xmlns:xlink="http://www.w3.org/1999/xlink" width="426.5" height="172.5" viewBox="0,0,426.5,172.5"><g transform="translate(-16.23441,-29.75)"><g data-paper-data="{&quot;isPaintingLayer&quot;:true}" fill-rule="nonzero" stroke-linecap="butt" stroke-linejoin="miter" stroke-miterlimit="10" stroke-dasharray="" stroke-dashoffset="0" style="mix-blend-mode: normal"><path d="M16.48441,202v-172h426v172z" fill="#350000" stroke="#000000" stroke-width="0.5"/><path d="M155.48438,111.34826c0,35.53856 -25.96748,64.34826 -58,64.34826c-32.03251,0 -58,-28.8097 -58,-64.34826c0,-35.53856 25.96749,-64.34826 58,-64.34826c32.03252,0 58,28.8097 58,64.34826z" fill="#00b5ff" stroke="#000000" stroke-width="2"/><path d="M97.77294,89.12935c0,10.51814 -8.00987,19.04478 -17.89055,19.04478c-9.88068,0 -17.89055,-8.52663 -17.89055,-19.04478c0,-10.51814 8.00987,-19.04478 17.89055,-19.04478c9.88068,0 17.89055,8.52663 17.89055,19.04478z" fill="#ffffff" stroke="#000000" stroke-width="2"/><path d="M138.17095,90.28358c0,10.83687 -8.13906,19.62189 -18.1791,19.62189c-10.04004,0 -18.1791,-8.78502 -18.1791,-19.62189c0,-10.83687 8.13906,-19.62189 18.1791,-19.62189c10.04004,0 18.1791,8.78502 18.1791,19.62189z" fill="#ffffff" stroke="#000000" stroke-width="2"/><path d="M82.19085,85.66667c0,3.82478 -1.16272,6.92537 -2.59701,6.92537c-1.43429,0 -2.59701,-3.10059 -2.59701,-6.92537c0,-3.82478 1.16272,-6.92537 2.59701,-6.92537c1.43429,0 2.59701,3.10059 2.59701,6.92537z" fill="#000000" stroke="#000000" stroke-width="2"/><path d="M122.58886,86.53234c0,3.34668 -1.16272,6.0597 -2.59701,6.0597c-1.43429,0 -2.59701,-2.71302 -2.59701,-6.0597c0,-3.34668 1.16272,-6.0597 2.59701,-6.0597c1.43429,0 2.59701,2.71302 2.59701,6.0597z" fill="#000000" stroke="#000000" stroke-width="2"/><path d="M133.60028,146.48688c-0.80031,1.20047 -2.00079,0.40016 -2.00079,0.40016l-1.84574,-1.23893c-0.44242,-0.46221 -1.11861,-1.47216 -1.97086,-1.40433c-0.53192,0.04234 -0.97228,0.48107 -1.50023,0.55849c-0.76135,0.11164 -1.54671,-0.10882 -2.30846,0c-0.60222,0.08603 -1.12885,0.49308 -1.73134,0.57711c-1.79105,0.24983 -3.61675,0.01863 -5.42514,0.01863c-0.15869,0 -4.20948,0.02216 -4.4579,-0.06191c-3.25396,-1.10109 -4.46756,-4.84122 -7.21814,-6.47363c-0.54003,-0.32049 -2.03599,-0.42653 -2.77681,-0.49967c-2.64193,2.85763 -7.47093,2.12325 -10.85598,3.58636c-0.93069,0.40227 -1.57877,1.37021 -2.55168,1.65559c-1.05689,0.31001 -2.20234,0.04837 -3.30367,0.06191c-0.64036,0.00787 -3.80526,0.02974 -4.14347,-0.17072c-0.92668,-0.54926 -2.53928,-3.7099 -2.91813,-4.66663c-0.203,-0.51264 0.08593,-1.32268 -0.38554,-1.60856c-0.35808,-0.21712 -0.63803,0.54608 -0.98835,0.7755c-0.78773,0.51588 -1.59795,0.99801 -2.42024,1.45679c-2.75901,1.53935 -5.94839,2.8212 -8.99334,3.59343c0,0 -1.39971,0.34993 -1.74964,-1.04978c-0.34993,-1.39971 1.04978,-1.74964 1.04978,-1.74964c2.80622,-0.69001 5.7867,-1.9123 8.3201,-3.33195c0.85675,-0.4801 1.61959,-1.14037 2.52847,-1.51243c1.052,-0.43064 2.24473,-1.30274 3.29677,-0.87219c0.65359,0.26748 2.58962,4.34396 3.03456,5.23787c0.19622,0.39423 0.2126,0.95184 0.58714,1.18345c0.30174,0.18659 0.69644,-0.14899 1.05056,-0.17072c1.39713,-0.08574 2.86354,0.48187 4.19882,0.06191c0.86806,-0.27301 1.413,-1.18908 2.2502,-1.54567c3.54419,-1.50955 7.98325,-0.87421 10.8894,-3.60044c1.95172,-0.07856 3.44395,-0.38081 5.30279,0.65456c2.43032,1.35369 3.91015,5.33904 6.63261,6.22289c1.14841,0.37283 2.41429,-0.06191 3.6217,-0.06191c1.65432,0 3.32611,0.25865 4.96292,0.01863c0.6019,-0.08826 1.12912,-0.49108 1.73134,-0.57711c0.76175,-0.10882 1.54635,0.1063 2.30846,0c0.67707,-0.09444 1.27949,-0.62594 1.96245,-0.59574c2.15597,0.09532 2.4997,0.8021 3.80028,2.05836l1.61695,1.06953c0,0 1.20047,0.80031 0.40016,2.00079z" fill="#000000" stroke="none" stroke-width="0.5"/><text transform="translate(194.48438,120.25) scale(1.34507,1.34507)" font-size="40" xml:space="preserve" fill="#ffffff" fill-rule="nonzero" stroke="none" stroke-width="1" stroke-linecap="butt" stroke-linejoin="miter" stroke-miterlimit="10" stroke-dasharray="" stroke-dashoffset="0" font-family="Sans Serif" font-weight="normal" text-anchor="start" style="mix-blend-mode: normal"><tspan x="0" dy="0">Marina</tspan></text></g></g></svg>