<svg version="1.1" xmlns="http://www.w3.org/2000/svg" xmlns:xlink="http://www.w3.org/1999/xlink" width="426.5" height="172.5" viewBox="0,0,426.5,172.5"><g transform="translate(-16.23442,-29.75)"><g data-paper-data="{&quot;isPaintingLayer&quot;:true}" fill-rule="nonzero" stroke-linecap="butt" stroke-linejoin="miter" stroke-miterlimit="10" stroke-dasharray="" stroke-dashoffset="0" style="mix-blend-mode: normal"><path d="M16.48442,202v-172h426v172z" fill="#350000" stroke="#000000" stroke-width="0.5"/><path d="M159.09183,113.63411c0,37.67532 -28.45948,68.2172 -63.56602,68.2172c-35.10655,0 -63.56602,-30.54188 -63.56602,-68.2172c0,-37.67532 28.45948,-68.2172 63.56602,-68.2172c35.10655,0 63.56602,30.54188 63.56602,68.2172z" fill="#ef00ff" stroke="#000000" stroke-width="0.5"/><path d="M90.87463,85.72707c0,9.93258 -7.35781,17.98454 -16.43414,17.98454c-9.07633,0 -16.43414,-8.05195 -16.43414,-17.98454c0,-9.93258 7.35781,-17.98454 16.43414,-17.98454c9.07633,0 16.43414,8.05195 16.43414,17.98454z" fill="#ffffff" stroke="#000000" stroke-width="0.5"/><path d="M129.36091,85.1435c0,9.93258 -7.35781,17.98454 -16.43414,17.98454c-9.07633,0 -16.43414,-8.05195 -16.43414,-17.98454c0,-9.93258 7.35781,-17.98453 16.43414,-17.98453c9.07633,0 16.43414,8.05195 16.43414,17.98454z" fill="#ffffff" stroke="#000000" stroke-width="0.5"/><path d="M78.4715,84.79684c0,2.91127 -2.0824,5.27133 -4.65118,5.27133c-2.56877,0 -4.65118,-2.36005 -4.65118,-5.27133c0,-2.91127 2.0824,-5.27133 4.65118,-5.27133c2.56877,0 4.65118,2.36005 4.65118,5.27133z" fill="#000000" stroke="#000000" stroke-width="0.5"/><path d="M117.57795,86.07374c0,2.91127 -2.0824,5.27133 -4.65117,5.27133c-2.56877,0 -4.65118,-2.36005 -4.65118,-5.27133c0,-2.91127 2.0824,-5.27133 4.65118,-5.27133c2.56877,0 4.65117,2.36005 4.65117,5.27133z" fill="#000000" stroke="#000000" stroke-width="0.5"/><path d="M130.14526,154.56443c0,3.92171 -3.92171,3.92171 -3.92171,3.92171h-1.86047c-3.86759,0 -8.09776,0.56028 -11.79101,-0.67079c-2.09594,0 -3.60769,-0.90703 -5.5814,-1.24032c-1.78268,-0.30102 -3.77193,0.27909 -5.5814,0c-0.64607,-0.09965 -1.21758,-0.50177 -1.86047,-0.62016c-1.17097,-0.21563 -2.39192,0.18026 -3.57192,0.02126c-0.84469,-0.11382 -1.6381,-0.49127 -2.48062,-0.62016c-1.80952,-0.27681 -3.88309,0.02938 -5.7224,0.02938c-3.51422,0 -7.02896,0.06022 -10.54266,0c-1.61986,-0.02776 -3.27177,0.1642 -4.85739,-0.16827c-0.72947,-0.15295 -1.14279,-1.03916 -1.86047,-1.24032c-0.63279,-0.17736 -1.30956,0.11218 -1.96433,0.16827c0,0 -3.92171,0 -3.92171,-3.92171c0,-3.92171 3.92171,-3.92171 3.92171,-3.92171c1.41241,0.05609 2.85998,-0.14988 4.23723,0.16827c0.72621,0.16776 1.13591,1.06556 1.86047,1.24032c0.83926,0.20241 1.72138,-0.14903 2.58449,-0.16827c1.65334,-0.03687 3.3075,0 4.96125,0c5.05116,0 9.8025,-0.10619 14.74276,0.64954c1.27517,0.19507 2.59503,-0.17539 3.86996,0.02126c0.64607,0.09965 1.21758,0.50177 1.86047,0.62016c1.77011,0.32596 3.7816,-0.29799 5.5814,0c2.29177,0.37945 3.27605,1.24032 5.5814,1.24032c3.31642,1.10547 7.0507,0.56951 10.53463,0.56951h1.86047c0,0 3.92171,0 3.92171,3.92171z" fill="#000000" stroke="none" stroke-width="0.5"/><text transform="translate(206.48438,128.5) scale(1.75677,1.75677)" font-size="40" xml:space="preserve" fill="#ffffff" fill-rule="nonzero" stroke="none" stroke-width="1" stroke-linecap="butt" stroke-linejoin="miter" stroke-miterlimit="10" stroke-dasharray="" stroke-dashoffset="0" font-family="Sans Serif" font-weight="normal" text-anchor="start" style="mix-blend-mode: normal"><tspan x="0" dy="0">Nikol</tspan></text></g></g></svg>