<svg version="1.1" xmlns="http://www.w3.org/2000/svg" xmlns:xlink="http://www.w3.org/1999/xlink" width="355.12094" height="191.89477" viewBox="0,0,355.12094,191.89477"><g transform="translate(-57.98437,-68.5)"><g data-paper-data="{&quot;isPaintingLayer&quot;:true}" fill-rule="nonzero" stroke="none" stroke-width="0.5" stroke-linecap="butt" stroke-linejoin="miter" stroke-miterlimit="10" stroke-dasharray="" stroke-dashoffset="0" style="mix-blend-mode: normal"><path d="M77.68715,70.43731c1.20673,-0.32911 2.53501,0.06269 3.79723,0.06269c7.63604,0 15.63541,-0.67088 23.23172,0.06083c7.91178,0.76211 15.69181,2.97537 23.44983,4.23018c6.73776,1.08979 14.26715,2.29299 21.09518,2.73314c2.47988,0.15986 4.98709,-0.25458 7.455,0.03668c10.32129,1.21814 20.3199,4.28997 30.75625,4.97827c29.16808,1.92372 58.5816,0.95109 87.78875,0.98505c27.23732,3.33537 54.82568,1.97585 82.22328,1.97585c8,0 16,0 24,0c9.82087,0 19.70689,-1.79886 27.44317,6.30998c4.35706,4.56687 3.99831,9.75149 4.05683,15.19002c0.11831,10.99724 0,22.00208 0,33c0,22.46551 0.27668,44.95265 -0.00693,67.41598c-0.15974,12.65226 -1.87017,25.28037 -2.21862,37.94787c-2.86127,4.58856 -4.1728,10.6376 -8.5838,13.76568c-3.72389,2.64081 -9.12571,0.32001 -13.69065,0.37047c-13.99622,0.15471 -28.00306,0.0063 -42,0c-8.49989,-0.00382 -16.98783,-0.64005 -25.47971,-1.00921c-12.66717,-0.55067 -25.43289,-0.33452 -38.08672,-1.00363c-3.91562,-0.20705 -42.29491,-3.93023 -45.85503,-4.27161c-27.98369,-2.68335 -55.81414,-5.12103 -83.87078,-6.78668c-8.60361,-1.03569 -17.25744,-1.71627 -25.81082,-3.10706c-5.82194,-0.94665 -11.39963,-3.23561 -17.2609,-3.89645c-5.51049,-0.6213 -11.09065,0.06155 -16.63604,0.07464c-3.43992,0.00812 -21.97424,1.01495 -26.30888,-2.35948c-7.83646,-6.10052 -5.63369,-11.75548 -6.16696,-19.3638c-0.43827,-6.25287 -1.0172,-12.50852 -1.02416,-18.77672c-0.02866,-25.83955 0.8644,-51.85523 0.00432,-77.67139c-0.44982,-13.50177 -1.989,-26.83026 -2.00432,-40.3286c0,0 0,-12.5 12.5,-12.5c3.11092,0 5.44761,0.77423 7.20277,1.93731z" fill="#00ff72"/><path d="M179.48438,98.5c12.5,0 12.5,12.5 12.5,12.5v1c-0.17878,2.20743 0.02813,4.48079 -0.53635,6.6223c-0.30633,1.16216 -1.63631,1.8545 -2,3c-0.19728,0.62135 0.52178,1.25789 0.44269,1.90499c-0.48379,3.95854 -2.19171,9.4596 -3.51268,13.31858c-1.593,4.65367 -4.41167,8.79457 -6.48234,13.25626c-0.78758,1.697 -1.05442,3.59448 -1.7273,5.34013c-1.97106,5.1135 -5.0436,9.76051 -6.96046,14.89457c-0.90112,2.41353 -1.07084,5.04713 -1.8299,7.50904c-2.07596,6.73314 -5.05907,13.25387 -7.34517,19.93768c-4.44552,7.96944 -6.62132,15.80958 -20.6052,13.03987c-4.46071,-0.88351 -6.06364,-6.80508 -8.68061,-10.52394c-0.86295,-1.22631 -1.05421,-2.80961 -1.66569,-4.17877c-1.63238,-3.65508 -3.21488,-7.73763 -5.03251,-11.23956c-0.18763,-0.3615 -0.74869,-0.37675 -1.00766,-0.69112c-1.48543,-1.80319 -2.94643,-3.6406 -4.18996,-5.61838c-1.77772,-2.8274 -4.23902,-8.6685 -5.26053,-11.72577c-0.30003,-0.89797 -0.1088,-1.94493 -0.53776,-2.78895c-0.62074,-1.22134 -1.52213,-2.29744 -2.36309,-3.39968c-0.74051,3.35525 -2.30613,6.51205 -2.96739,9.88812c-1.80479,9.21448 -2.85759,18.3736 -5.11132,27.48633c0,0 -3.0317,12.12678 -15.15848,9.09509c-12.12678,-3.0317 -9.09509,-15.15848 -9.09509,-15.15848c2.21471,-8.78411 3.0835,-17.6214 4.88868,-26.51367c0.65596,-3.23123 2.15797,-6.24424 2.89951,-9.45691c0.52474,-2.27342 -0.16141,-4.66453 -0.16141,-6.99772c0,-7.25626 -0.06778,-14.06937 1.20481,-21.25351c0.82836,-4.67633 2.08168,-9.29615 2.85602,-13.97821c0.35963,-2.17449 -0.50164,-4.84325 0.89067,-6.55182c3.29551,-4.04407 8.21118,-6.43708 12.31677,-9.65562c4.53423,2.05554 9.68686,3.09243 13.6027,6.16663c2.39859,1.88306 2.86761,5.38589 4.4404,7.99845c3.22572,5.35824 6.67152,10.75976 8.43335,16.76076c0.38965,1.32718 -0.26983,2.79911 0.02973,4.14948c0.38877,1.75245 1.66496,3.23649 2,5c0.68524,3.60681 -0.94288,7.60463 0.441,11.00515c0.81349,1.99893 2.76238,3.36577 3.71598,5.30177c0.79718,1.61843 0.89297,3.49912 1.46224,5.21105c1.04545,3.14392 2.40861,6.11902 4.54951,8.65584c0.55198,0.65406 1.20886,1.22738 1.81146,1.8402c0.74586,-2.64321 1.05447,-5.41683 2.02181,-7.98701c1.95677,-5.19902 5.04931,-9.91912 7.03954,-15.10543c0.84039,-2.18994 1.29359,-4.52833 2.2727,-6.65987c2.90319,-6.32034 7.09288,-12.28248 8.00498,-19.42517c0.25803,-2.02061 -0.08567,-4.12771 0.44269,-6.09501c0.28524,-1.06205 3.20996,-4.40387 1.46365,-2.3777v-1c0,0 0,-12.5 12.5,-12.5z" fill="#ffffff"/><path d="M382.32321,119.16117c6.65376,6.65376 3.28979,13.30753 1.21992,16.19068c-0.84927,2.52738 -1.80153,5.20507 -2.91162,7.30425c-1.45714,2.75544 -3.62227,5.11142 -4.96254,7.92557c-1.91152,4.01359 -2.95265,8.3959 -4.74771,12.46291c-1.66365,3.7693 -4.20149,7.14152 -5.61347,11.01213c-1.06421,2.91728 -0.93999,6.15171 -1.74217,9.15164c-1.57678,5.89673 -3.23033,10.66079 -6.12367,15.80677c-3.95359,7.0317 -8.83185,15.75016 -19.82948,14.1505c-4.95297,-0.72043 -6.86516,-7.3003 -9.98663,-11.21277c-0.47323,-0.59315 -0.38842,-1.47299 -0.68995,-2.1693c-2.1038,-4.85817 -3.18822,-9.61808 -4.21679,-14.48018c-0.42786,1.74978 -0.89889,3.48477 -1.55795,5.15792c-0.00328,0.00833 -9.59785,20.1599 -11.74294,22.12614c-3.38885,3.10629 -7.34066,7.1025 -11.93383,6.91258c-4.9674,-0.20539 -9.13584,-4.39479 -12.63314,-7.92836c-1.88485,-1.9044 -2.12098,-4.95444 -2.70546,-7.56936c-0.37212,-1.66486 0.02845,-3.4176 -0.12996,-5.11617c-0.44048,-4.72314 -0.71638,-9.46046 -1.01232,-14.19486c-0.97709,-15.63125 -1.62446,-31.57682 -3.75431,-47.13192c-0.3496,-2.55329 -1.30601,-4.98631 -1.88864,-7.49736c-5.5947,6.07543 -13.95291,2.36067 -13.95291,2.36067c-10.41763,-4.7426 -15.70667,-5.41129 -28.39768,-7.0099c-3.65654,-0.4606 -7.34205,-0.65721 -11.02525,-0.83017c-0.00022,0.13914 -0.00034,0.27829 -0.00034,0.41743c0,1.24974 0.00173,4.54715 -0.00531,6.99564c2.54663,0.5881 5.10961,1.16066 7.73703,1.56519c4.26197,0.6562 8.60981,0.44222 12.77056,2.10057l1.99772,-0.16141c0,0 12.5,0 12.5,12.5c0,12.5 -12.5,12.5 -12.5,12.5l-6.00228,-0.16141c-7.41922,-2.23303 -15.11755,-2.54904 -22.74007,-4.14312c-0.0154,-0.00322 -0.0308,-0.00646 -0.0462,-0.0097c-1.20476,2.67774 -2.34999,5.37605 -3.17465,8.1855c-0.75305,2.56548 -1.35158,5.19807 -1.59763,7.86045c-0.0939,1.01604 -0.02812,2.04578 0.06702,3.07645c1.5467,0.03935 3.08927,0.15414 4.49381,0.19182c1.83908,0.04935 3.73284,-0.20791 5.51332,0.25528c2.45682,0.63913 4.56538,2.28093 7,3c1.31663,0.38887 2.82096,-0.19408 4.10898,0.28107c1.12586,0.41533 2.1714,1.00413 3.19646,1.63714c3.46729,0.54842 10.68124,2.83049 10.68124,12.32651c0,12.5 -12.5,12.5 -12.5,12.5l-8.93375,-2.09937c0.83568,-1.17249 -0.06156,0.30831 -1.57957,-0.15591c-2.42762,-0.74238 -4.61654,-2.12619 -7,-3c-1.40644,-0.51562 -2.9887,0.25528 -4.48668,0.25528c-3.95887,0 -7.91772,-0.14198 -11.87191,-0.33439c-3.92041,-2.53132 -9.05692,-3.79082 -11.76122,-7.59397c-2.26416,-3.18416 -1.55839,-7.67675 -1.86686,-11.57164c-0.66976,-8.45659 0.16358,-15.16128 2.4632,-23.37127c1.17633,-4.19967 2.82672,-8.25576 4.44478,-12.30581c0.34522,-0.8641 0.72355,-1.72547 1.1068,-2.58834c-0.00979,-0.23993 -0.01478,-0.48476 -0.01478,-0.73458c0,-3.99154 1.27459,-6.70849 3.00976,-8.55785c0.00855,-0.10919 0.0158,-0.21861 0.02169,-0.32826c0.53906,-10.03005 -2.92632,-23.02466 5.7759,-30.96646c3.22539,-2.94355 13.69643,-2.85437 18.13823,-2.63949c15.78029,0.76341 17.12081,1.23013 33.80794,4.19687c2.19175,0.38966 4.4319,0.64903 6.53364,1.3827c3.53309,1.23331 6.85972,2.99323 10.28958,4.48985c0,0 5.69576,2.53145 7.25568,8.04124c1.46249,-1.28537 3.47022,-2.32667 6.21614,-2.87586c12.25726,-2.45145 14.70871,9.80581 14.70871,9.80581c0.51701,2.66233 1.58282,5.20899 1.97793,7.89211c1.3491,9.16143 2.17664,18.45978 2.82176,27.76208c1.19022,-2.97978 2.44551,-5.94635 3.8392,-9.32472c0.51716,-4.45555 1.3437,-8.89839 2.60385,-13.20385v-3.67417c0,-6.90356 5.59644,-12.5 12.5,-12.5c5.62299,0 10.37882,3.71279 11.94969,8.8206l0.90885,2.72655l-0.33292,0.11097c0.2091,0.26963 0.41123,0.54568 0.60579,0.82872c2.46434,3.58521 1.43893,8.5812 2.18308,12.86756c0.5817,3.35067 0.92983,6.75428 1.79444,10.04332c0.57486,2.1868 1.36976,4.30773 2.15175,6.43268c1.6252,-3.517 3.74349,-6.82211 5.30245,-10.37499c1.94479,-4.4322 3.17161,-9.16704 5.25229,-13.53709c2.65615,-5.5787 5.46208,-8.7431 7.32605,-14.37119l4.01971,-5.88599c0,0 8.83883,-8.83883 17.67767,0z" fill="#ffffff"/></g></g></svg>