<svg version="1.1" xmlns="http://www.w3.org/2000/svg" xmlns:xlink="http://www.w3.org/1999/xlink" width="277.37121" height="249.04004" viewBox="0,0,277.37121,249.04004"><g transform="translate(-104.61429,-45.4993)"><g data-paper-data="{&quot;isPaintingLayer&quot;:true}" fill-rule="nonzero" stroke="none" stroke-width="0.5" stroke-linecap="butt" stroke-linejoin="miter" stroke-miterlimit="10" stroke-dasharray="" stroke-dashoffset="0" style="mix-blend-mode: normal"><path d="M113.95822,52.8816c3.92912,-2.78841 12.17847,-2.41565 16.52616,-2.3816c2.27764,0.01784 4.49932,-0.73967 6.76828,-0.93917c4.38239,-0.38532 8.33563,-0.44504 12.70443,-0.96718c5.19716,-0.62113 10.19287,-2.56059 15.40472,-3.04315c0.63552,-0.05884 14.75696,-0.05051 18.12257,-0.05051c13,0 26,0 39,0c3.15525,0 22.50385,-0.01014 23.09031,0.04764c5.98389,0.58961 11.82601,2.19524 17.77165,3.09181c5.36154,0.8085 10.78798,1.15461 16.14031,2.02195c4.77828,0.77431 9.42234,2.33081 14.22944,2.89943c7.53691,0.89151 15.17883,-0.06083 22.76828,-0.06083c8.33333,0 16.66667,0 25,0c12.26445,0 25.43453,-2.9669 33.18034,9.90983c2.17833,3.62129 0.99572,13.14164 1.30053,17.89892c0.19301,3.01228 0.82641,5.98653 1,9c0.63283,10.98549 0.02386,22.16231 -0.07453,33.16396c2.87195,11.1688 4.08218,14.17628 5.06221,26.64118c0.04062,0.51662 0.032,23.83451 0.03145,24.88611c-0.00623,11.91701 -0.46609,23.85671 -2.11417,35.68556c-0.58067,4.16766 -1.22872,8.34143 -2.27691,12.4167c-2.69621,10.48259 -5.33216,12.80291 -6.68921,23.31219c-0.36652,2.83841 0.06722,5.7236 0.08029,8.58554c0.02587,5.66661 0.08318,11.33394 0,17c-0.11875,8.08887 0.45109,13.77171 -7.49214,20.35084c-3.2117,2.66015 -14.69704,2.14916 -19.00786,2.14916c-14,0 -28,0 -42,0c-42.01827,0 -83.98975,-1 -126,-1c-13.94626,0 -29.01524,1.12582 -43,0c-6.13359,-0.49378 -12.92759,0.62489 -18.30888,-2.35947c-6.66144,-3.69431 -6.44928,-13.65366 -6.17828,-19.70696c0.28795,-6.43199 1.57496,-12.78666 2.01131,-19.21029c0.87975,-12.95086 -0.02415,-26.24304 -0.02415,-39.22328c0,-16.66667 0,-33.33333 0,-50c0,-9.35578 0.59568,-18.88911 0.02415,-28.22328c-0.28292,-4.62062 -1.55948,-9.13572 -1.98156,-13.74571c-0.42928,-4.68864 -0.10602,-9.45437 -0.892,-14.09655c-0.83127,-4.90971 -2.542,-9.66725 -3.08103,-14.61757c-0.94683,-8.69549 -0.06956,-18.48468 -0.06956,-27.31689c0,0 0,-10.02203 8.97384,-12.1184z" fill="#ff8e00"/><path d="M219.98438,265c0,-6.90356 5.59644,-12.5 12.5,-12.5c6.90356,0 12.5,5.59644 12.5,12.5c0,6.90356 -5.59644,12.5 -12.5,12.5c-6.90356,0 -12.5,-5.59644 -12.5,-12.5z" fill="#ffffff"/><path d="M212.98438,87c0,-12.0174 11.55344,-12.48137 12.44554,-12.49928c1.00143,-0.35244 2.00616,-0.68988 3.05218,-0.83931c0.69458,-0.09923 1.40271,0.75216 2.04943,0.48005c1.08871,-0.45807 1.49807,-1.95592 2.5807,-2.42818c2.48278,-1.08303 5.17846,-1.64263 7.84486,-2.11962c6.09102,-1.08964 12.72818,0.21937 18.67069,1.09148c6.91437,1.01475 7.75297,0.83248 13.8566,0.81486c3.59451,0.31717 7.372,-0.2243 10.78354,0.95151c2.30065,0.79293 7.84766,6.15575 10.7881,7.91536c7.1731,4.29252 18.33228,9.40971 22.23974,17.35905c7.90482,16.08156 5.39423,34.24307 -2.9589,49.47681c-1.42397,2.59692 -3.56371,4.73977 -5.14366,7.24486c-1.50569,2.38735 -2.07441,5.25903 -3.3524,7.77563c-1.81791,3.57981 -5.61968,9.69605 -8.51758,12.61562c-4.94321,4.98018 -11.989,8.61974 -17.73671,12.57249c-8.50927,2.0628 -18.4219,4.70717 -27.42725,3.01806c-1.11917,1.95564 -2.28958,4.05743 -2.33628,5.57289c-0.12805,4.1549 -0.32817,8.33246 0.06775,12.47043c0.39648,4.14385 1.65742,8.49565 0.4522,12.48014c-0.67238,2.22291 -2.7328,3.77881 -3.7863,5.84849c-0.40251,0.79076 -1.71646,6.30441 -1.94546,7.23036c0,0 -3.0317,12.12678 -15.15848,9.09509c-12.12678,-3.0317 -9.09509,-15.15848 -9.09509,-15.15848c1.097,-4.351 2.04264,-8.67852 4.05454,-12.76964c0.21817,-0.44363 0.50465,-1.00358 0.85541,-1.44359c-0.12463,-0.7298 -0.12762,-1.51884 -0.18951,-2.22779c-0.20092,-2.30139 -0.04893,-18.45062 0.06775,-19.52957c0.55412,-5.12389 3.63198,-10.20987 5.7901,-14.78126c0.90585,-1.91881 1.13015,-4.28776 2.61466,-5.80388c2.63184,-2.68787 5.82477,-4.96425 9.31153,-6.37623c4.61578,-1.86918 9.14569,0.07334 13.65331,0.50624c4.50536,0.43269 8.48365,-0.59556 12.86687,-0.95392c3.08268,-2.93604 7.27432,-4.49754 10.26329,-7.42751c3.92147,-3.84406 5.4521,-11.16839 8.13002,-15.60874c1.43219,-2.37476 3.46138,-4.35832 4.85634,-6.75514c2.48325,-4.26674 3.69871,-8.33558 4.42711,-13.16124c0.50858,-3.36933 -0.28175,-8.51675 -1.38601,-11.36196c-0.19414,-0.50021 -0.93833,-0.52428 -1.37865,-0.83091c-4.16284,-2.89892 -7.93438,-5.13516 -12.38162,-7.81004c-0.603,-0.36269 -7.16979,-4.78282 -7.35322,-4.96636c-0.2656,-0.26576 0.5126,-1.06069 0.14132,-1.11828c-0.50871,-0.07891 -0.81097,0.63434 -1.21646,0.95151c-6.06067,-0.0142 -12.14078,-0.3482 -18.1434,-1.18514c-3.64402,-0.50808 -6.08226,-0.75027 -9.8566,-0.81486c-0.54718,-0.00936 -1.16259,-0.50141 -1.62785,-0.21328c-1.83935,1.13909 -3.38134,2.84555 -5.4193,3.57182c-2.22025,0.79123 -4.88799,-0.04641 -7,1l-5.95285,0.64146c0,0 -12.5,0 -12.5,-12.5zM224.70712,74.75531l-1.17559,0.38615c0.39425,-0.11787 0.78536,-0.24999 1.17559,-0.38615z" fill="#ffffff"/></g></g></svg>