<svg version="1.1" xmlns="http://www.w3.org/2000/svg" xmlns:xlink="http://www.w3.org/1999/xlink" width="426.5" height="172.5" viewBox="0,0,426.5,172.5"><g transform="translate(-16.23442,-29.75)"><g data-paper-data="{&quot;isPaintingLayer&quot;:true}" fill-rule="nonzero" stroke-linecap="butt" stroke-linejoin="miter" stroke-miterlimit="10" stroke-dasharray="" stroke-dashoffset="0" style="mix-blend-mode: normal"><path d="M16.48442,202v-172h426v172z" fill="#350000" stroke="#000000" stroke-width="0.5"/><path d="M166.35975,108.69242c0,38.22117 -29.86782,69.20554 -66.71165,69.20554c-36.84382,0 -66.71165,-30.98437 -66.71165,-69.20554c0,-38.22117 29.86782,-69.20554 66.71165,-69.20554c36.84382,0 66.71165,30.98437 66.71165,69.20554z" fill="#5a00ff" stroke="#000000" stroke-width="0.5"/><path d="M92.16642,75.96007c0,8.78053 -7.11803,15.89857 -15.89857,15.89857c-8.78053,0 -15.89857,-7.11803 -15.89857,-15.89857c0,-8.78053 7.11803,-15.89857 15.89857,-15.89857c8.78053,0 15.89857,7.11803 15.89857,15.89857z" fill="#ffffff" stroke="#000000" stroke-width="0.5"/><path d="M133.97591,76.62033c0,8.78054 -7.11803,15.89857 -15.89857,15.89857c-8.78054,0 -15.89857,-7.11803 -15.89857,-15.89857c0,-8.78054 7.11803,-15.89857 15.89857,-15.89857c8.78054,0 15.89857,7.11803 15.89857,15.89857z" fill="#ffffff" stroke="#000000" stroke-width="0.5"/><path d="M80.32042,74.71312c0,3.61551 -2.51225,6.54647 -5.61126,6.54647c-3.09902,0 -5.61126,-2.93096 -5.61126,-6.54647c0,-3.61551 2.51225,-6.54647 5.61126,-6.54647c3.09902,0 5.61126,2.93096 5.61126,6.54647z" fill="#000000" stroke="#000000" stroke-width="0.5"/><path d="M120.88298,77.2438c0,3.61551 -2.51225,6.54647 -5.61126,6.54647c-3.09902,0 -5.61126,-2.93096 -5.61126,-6.54647c0,-3.61551 2.51225,-6.54648 5.61126,-6.54648c3.09902,0 5.61126,2.93096 5.61126,6.54648z" fill="#000000" stroke="#000000" stroke-width="0.5"/><path d="M129.24535,158.86429c-2.7879,2.7879 -5.5758,0 -5.5758,0l-1.24695,-1.24695c-0.85248,-0.85248 -1.43518,-2.04819 -2.49988,-2.61375c-0.98838,-0.52502 -2.14514,-0.69258 -3.11737,-1.24695c-0.39301,-0.2241 -0.45422,-0.88161 -0.88063,-1.03276c-1.7062,-0.60478 -3.64939,-0.4034 -5.31596,-1.11009c-1.79779,-0.76233 -3.80965,-1.8601 -5.35513,-3.08741c-0.32606,-0.25893 -0.44391,-0.76375 -0.82012,-0.94214c-1.07265,-0.50861 -2.26685,-0.70601 -3.40027,-1.05902c-2.80323,-1.84118 -5.81481,-4.19979 -8.98777,-5.45525c-1.13235,-0.44804 -2.42659,-0.23037 -3.62796,-0.42948c-0.64835,-0.10746 -1.22082,-0.52383 -1.87042,-0.62347c-2.39056,-0.36668 -4.14624,0.50907 -6.37128,1.14062c-2.01852,0.57293 -3.78458,1.02174 -5.46091,2.38096c-2.0757,1.68304 -3.58356,4.25352 -5.80555,5.76069c-0.94349,0.63997 -2.024,1.04995 -3.036,1.57492c0,0 -3.52645,1.76322 -5.28967,-1.76322c-1.76322,-3.52645 1.76322,-5.28967 1.76322,-5.28967c3.87772,-1.82577 5.99996,-5.83887 9.75985,-7.98877c4.42249,-2.52878 10.59016,-4.2893 15.70343,-3.59907c0.65129,0.08792 1.22227,0.5148 1.87042,0.62347c1.69821,0.28474 3.48233,0.22926 5.10066,0.81746c3.49373,1.26985 6.67697,3.7043 9.71643,5.76727c1.36047,0.47829 2.8014,0.77062 4.08141,1.43487c0.67529,0.35044 1.08149,1.07423 1.67377,1.55175c0.86372,0.69636 2.43463,1.49112 3.3735,1.90037c1.85371,0.80804 4.02099,0.65321 5.90656,1.38381c0.67652,0.26213 0.9836,1.10068 1.61326,1.46114c0.97128,0.55602 2.1584,0.66995 3.11737,1.24695c0.38445,0.23132 3.45722,3.34335 3.73485,3.62098l1.24695,1.24695c0,0 2.7879,2.7879 0,5.5758z" fill="#000000" stroke="none" stroke-width="0.5"/><text transform="translate(219.72658,123.25) scale(1.43174,1.43174)" font-size="40" xml:space="preserve" fill="#ffffff" fill-rule="nonzero" stroke="none" stroke-width="1" stroke-linecap="butt" stroke-linejoin="miter" stroke-miterlimit="10" stroke-dasharray="" stroke-dashoffset="0" font-family="Sans Serif" font-weight="normal" text-anchor="start" style="mix-blend-mode: normal"><tspan x="0" dy="0">Babis</tspan></text></g></g></svg>