<svg version="1.1" xmlns="http://www.w3.org/2000/svg" xmlns:xlink="http://www.w3.org/1999/xlink" width="355.12094" height="351.91277" viewBox="0,0,355.12094,351.91277"><g transform="translate(-55.9844,-2.50001)"><g data-paper-data="{&quot;isPaintingLayer&quot;:true}" fill-rule="nonzero" stroke-linejoin="miter" stroke-miterlimit="10" stroke-dasharray="" stroke-dashoffset="0" style="mix-blend-mode: normal"><path d="M75.68716,6.05279c1.20673,-0.60355 2.53501,0.11497 3.79723,0.11497c7.63604,0 15.63541,-1.23032 23.23172,0.11156c7.91178,1.39762 15.69181,5.45648 23.44983,7.75766c6.73776,1.99855 14.26715,4.20508 21.09518,5.01226c2.47988,0.29316 4.98709,-0.46687 7.455,0.06727c10.32129,2.23393 20.3199,7.86731 30.75625,9.12957c29.16808,3.52788 58.5816,1.74419 87.78875,1.80647c27.23732,6.11668 54.82568,3.62348 82.22328,3.62348c8,0 16,0 24,0c9.82087,0 19.70689,-3.2989 27.44317,11.57177c4.35706,8.37511 3.99831,17.8831 4.05683,27.85674c0.11831,20.16767 0,40.34927 0,60.51818c0,41.19915 0.27668,82.43796 -0.00693,123.6331c-0.15974,23.20278 -1.87017,46.36127 -2.21862,69.592c-2.86127,8.41489 -4.1728,19.50813 -8.5838,25.24466c-3.72389,4.84294 -9.12571,0.58686 -13.69065,0.6794c-13.99622,0.28372 -28.00306,0.01155 -42,0c-8.49989,-0.00701 -16.98783,-1.17378 -25.47971,-1.85077c-12.66717,-1.00987 -25.43289,-0.61347 -38.08672,-1.84054c-3.91562,-0.37971 -42.29491,-7.20759 -45.85503,-7.83364c-27.98369,-4.92095 -55.81414,-9.39138 -83.87078,-12.44599c-8.60361,-1.89934 -17.25744,-3.14744 -25.81082,-5.69799c-5.82194,-1.73605 -11.39963,-5.93373 -17.2609,-7.14564c-5.51049,-1.13939 -11.09065,0.11288 -16.63604,0.13688c-3.43992,0.01489 -21.97424,1.8613 -26.30888,-4.32701c-7.83646,-11.18765 -5.63369,-21.55819 -6.16696,-35.51097c-0.43827,-11.46704 -1.0172,-22.93918 -1.02416,-34.43433c-0.02866,-47.38674 0.8644,-95.09649 0.00432,-142.44034c-0.44982,-24.76068 -1.989,-49.20359 -2.00432,-73.95798c0,0 0,-22.92355 12.5,-22.92355c3.11092,0 5.44761,1.41985 7.20277,3.5528z" fill="#00ff72" stroke="none" stroke-width="0.5" stroke-linecap="butt"/><path d="M151.07711,166.41091c0,23.52131 -17.81744,42.58909 -39.79636,42.58909c-21.97893,0 -39.79636,-19.06778 -39.79636,-42.58909c0,-23.52131 17.81744,-42.58909 39.79636,-42.58909c21.97892,0 39.79636,19.06779 39.79636,42.58909z" fill="#fff700" stroke="#000000" stroke-width="2" stroke-linecap="butt"/><path d="M109.5353,149.65454c0,5.97672 -4.29807,10.82182 -9.6,10.82182c-5.30193,0 -9.6,-4.8451 -9.6,-10.82182c0,-5.97672 4.29806,-10.82182 9.6,-10.82182c5.30194,0 9.6,4.8451 9.6,10.82182z" fill="#ffffff" stroke="#000000" stroke-width="2" stroke-linecap="butt"/><path d="M132.5753,149.82909c0,6.07313 -4.45436,10.99636 -9.94909,10.99636c-5.49474,0 -9.94909,-4.92324 -9.94909,-10.99636c0,-6.07313 4.45436,-10.99636 9.9491,-10.99636c5.49473,0 9.94909,4.92324 9.94909,10.99636z" fill="#ffffff" stroke="#000000" stroke-width="2" stroke-linecap="butt"/><path d="M145.14256,163.44363c0.87273,0 0.87273,0.87273 0.87273,0.87273l-0.09214,1.08847c-0.40915,0.81531 -0.58286,1.7509 -1.08548,2.51216c-0.49636,0.75178 -1.28964,1.28959 -1.73301,2.07377c-0.67178,1.18818 -0.61923,1.52416 -1.47627,2.55889c-0.97396,1.17589 -2.06888,2.05674 -2.96333,3.31412c-0.72239,0.72138 -1.25986,1.61325 -1.98175,2.33514c-0.98028,0.98028 -2.154,1.62869 -3.08401,2.72892c-0.62357,0.7377 -1.12835,1.59381 -1.86707,2.21617c-1.0917,0.91974 -2.41426,1.72208 -3.4271,2.73492c-0.3969,0.3969 -0.63979,0.92489 -1.00508,1.35107c-1.07112,1.24965 -2.36947,2.37258 -3.5331,3.53621c-0.6291,0.62911 -1.14435,1.4072 -1.90375,1.87073c-0.35074,0.21409 -0.78378,0.25059 -1.16287,0.40911c-0.78845,0.32969 -1.39302,0.99738 -2.14214,1.40866c-0.80965,0.4445 -1.71339,0.69374 -2.54578,1.09405c-3.00043,1.18318 -5.7581,1.05853 -8.92075,1.05853c-2.43487,0 -4.78039,0.01884 -7.01617,-1.13601c-0.45777,-0.23645 -0.91121,-0.50624 -1.28095,-0.86506c-0.27437,-0.26627 -0.31239,-0.73183 -0.61081,-0.97082c-0.26577,-0.21284 -0.68417,-0.12543 -0.97635,-0.30027c-0.29981,-0.17941 -0.45895,-0.53876 -0.74965,-0.73257c-0.43299,-0.28868 -0.96516,-0.40686 -1.39637,-0.69818c-1.191,-0.80464 -2.03361,-2.05691 -3.24863,-2.88361c-0.91778,-1.34193 -1.84402,-2.63932 -2.85053,-3.90381c-1.28113,-1.60949 -3.12596,-2.90832 -4.25656,-4.63266c-0.15087,-0.2301 -0.61709,-1.87759 -0.7621,-2.21939c-0.22131,-0.52165 -0.59087,-0.9835 -0.74126,-1.52983c-0.03205,-0.11644 -0.02334,-2.61831 -0.02334,-2.64415c0,-1.76618 -0.15471,-3.46641 0.39387,-5.16325c0,0 0.27598,-0.82794 1.10392,-0.55196c0.82794,0.27598 0.55196,1.10392 0.55196,1.10392c-0.51139,1.47644 -0.3043,3.05863 -0.3043,4.61129c0,0.74775 -0.23785,1.52681 -0.02335,2.24313c0.13604,0.4543 0.4666,0.82773 0.6551,1.26289c0.27417,0.63294 0.24585,1.39969 0.63427,1.96971c0.24946,0.36609 0.65988,0.59383 0.95518,0.92406c1.01699,1.13728 2.21052,2.33029 3.16645,3.51965c0.97521,1.21335 1.88691,2.46021 2.73492,3.77619c1.15614,0.75281 1.91744,1.96786 3.035,2.70184c0.43497,0.28567 0.96336,0.40954 1.39636,0.69818c0.25704,0.17135 0.382,0.50454 0.64671,0.66378c0.33902,0.20394 0.80915,0.15091 1.11819,0.39792c0.59924,0.47896 0.90676,1.32474 1.59915,1.65503c2.06222,0.98375 4.02364,0.95853 6.24929,0.95853c2.90087,0 5.47961,0.17978 8.22057,-0.91192c0.78527,-0.37776 1.6417,-0.6044 2.40504,-1.02472c0.79841,-0.43964 1.45584,-1.13208 2.29663,-1.48394c0.29995,-0.12553 0.6511,-0.12472 0.93167,-0.28907c0.65234,-0.38211 1.05258,-1.0856 1.58717,-1.62018c1.13438,-1.13438 2.40448,-2.22733 3.44872,-3.44561c0.392,-0.45734 0.66354,-1.01574 1.08946,-1.44166c1.05194,-1.05193 2.40973,-1.90814 3.55472,-2.85054c0.65764,-0.54128 1.07273,-1.3235 1.62383,-1.97293c0.67595,-0.79656 1.40713,-1.55519 2.21616,-2.21616c0.30294,-0.2475 0.70685,-0.36376 0.98346,-0.64038c0.68756,-0.68756 1.19598,-1.53982 1.88306,-2.22785c0.88608,-1.24562 1.97551,-2.13705 2.94641,-3.2938c0.68249,-0.81313 0.76345,-1.36983 1.31645,-2.32838c0.45815,-0.79412 1.24519,-1.35529 1.7579,-2.11533c0.48104,-0.71311 0.62542,-1.60521 1.00907,-2.37511l-0.09214,-0.30789c0,0 0,-0.87273 0.87273,-0.87273z" fill="#000000" stroke="none" stroke-width="0.5" stroke-linecap="butt"/><path d="M99.76075,151.92363c-0.87273,0 -0.87273,-0.87273 -0.87273,-0.87273l0.04479,-0.4222c-0.2464,-0.76217 -0.38627,-1.56956 -0.39388,-2.37053c0,0 0.00001,-0.87273 0.87273,-0.87273c0.87273,0 0.87273,0.87273 0.87273,0.87273c-0.00763,0.61457 0.10314,1.2378 0.3043,1.81857l0.04479,0.97416c0,0 0,0.87273 -0.87273,0.87273z" fill="#000000" stroke="none" stroke-width="0.5" stroke-linecap="butt"/><path d="M123.19105,152.18059c-0.78059,0.3903 -1.17089,-0.39029 -1.17089,-0.39029l-0.39644,-0.8125c-0.28178,-0.87158 -0.38716,-1.80364 -0.39388,-2.71962c0,0 0.00001,-0.87273 0.87273,-0.87273c0.87273,0 0.87273,0.87273 0.87273,0.87273c-0.00655,0.7296 0.0655,1.47821 0.3043,2.16765l0.30174,0.58387c0,0 0.3903,0.78059 -0.39029,1.17089z" fill="#000000" stroke="none" stroke-width="0.5" stroke-linecap="butt"/><path d="M136.24075,131.85091c-4.33794,0 -7.85455,-3.20401 -7.85455,-7.15637c0,-3.95235 3.5166,-7.15637 7.85455,-7.15637c4.33794,0 7.85455,3.20402 7.85455,7.15637c0,3.95235 -3.5166,7.15637 -7.85455,7.15637z" fill="#ffa000" stroke="#000000" stroke-width="2" stroke-linecap="butt"/><path d="M134.66984,117.53818l2.44364,-4.53818l1.74545,5.23637" fill="none" stroke="#ffa000" stroke-width="2" stroke-linecap="round"/><path d="M142.00075,120.33091l4.88727,-1.74546l-2.79273,4.88727" fill="none" stroke="#ffa000" stroke-width="2" stroke-linecap="round"/><path d="M136.05191,117.03574c-0.02045,0.02407 -0.04268,0.04817 -0.06678,0.07228c-0.61711,0.61711 -1.23422,0 -1.23422,0l0.26802,-1.83893c0.04244,0.0004 0.09197,-0.00011 0.14728,-0.00104c0.16159,-0.15588 0.44199,-0.18489 0.72545,-0.16413v-0.70755c0,-0.48199 0.39073,-0.87273 0.87273,-0.87273c0.482,0 0.87273,0.39074 0.87273,0.87273v1.04727c0,0 0,0.07195 -0.02066,0.17454c0.26852,0 0.5443,0 0.5443,0c0.482,0 0.87273,0.39074 0.87273,0.87273c0,0.48199 -0.39073,0.87273 -0.87273,0.87273h-1.04728v-0.03845c-0.04623,0.01033 -0.09282,0.01945 -0.13979,0.02719c-0.32067,0.05288 -0.60899,-0.21108 -0.92177,-0.31663z" fill="#ffa000" stroke="none" stroke-width="0.5" stroke-linecap="butt"/><path d="M142.84955,121.75186c-0.19506,0.15128 -0.49174,0.25695 -0.89,0.05782c-0.78059,-0.39029 -0.39029,-1.17089 -0.39029,-1.17089l1.27365,-0.67445l-0.12071,-0.18674c0.11097,0.02812 0.22419,0.05115 0.33866,0.07133l0.25519,-0.13513c0.07106,0.07162 0.14597,0.14003 0.22148,0.20795c0.04028,0.00575 0.08055,0.01151 0.12077,0.01739l0.22293,-0.33438l0.31912,0.21274c0.26789,-0.60605 0.8976,-1.02527 1.3724,-1.50007c0,0 0.61711,-0.61711 1.23422,0c0.61711,0.61711 0,1.23422 0,1.23422c-0.44366,0.44366 -0.86128,0.84213 -1.29636,1.22293c1.01543,1.0566 0.4481,2.35402 -1.69853,2.12727c-0.49913,-0.05272 -0.67086,-0.70347 -0.96251,-1.14999z" fill="#ffa000" stroke="none" stroke-width="0.5" stroke-linecap="butt"/><path d="M133.09893,122.42545c0,-0.48199 0.39074,-0.87273 0.87273,-0.87273c0.482,0 0.87272,0.39074 0.87272,0.87273c0,0.48199 -0.39073,0.87273 -0.87272,0.87273c-0.482,0 -0.87273,-0.39073 -0.87273,-0.87273z" fill="#000000" stroke="none" stroke-width="0.5" stroke-linecap="butt"/><path d="M137.98621,124.17091c0,-0.48199 0.39073,-0.87273 0.87272,-0.87273c0.482,0 0.87273,0.39074 0.87273,0.87273c0,0.48199 -0.39074,0.87272 -0.87273,0.87272c-0.482,0 -0.87272,-0.39073 -0.87272,-0.87272z" fill="#000000" stroke="none" stroke-width="0.5" stroke-linecap="butt"/><path d="M136.68331,130.37347c-0.61711,0.61711 -1.23422,0 -1.23422,0l-0.55992,-0.69022c-0.15888,-0.52117 -0.43992,-1.03065 -0.83644,-1.40432c0,0 -0.03426,-0.03425 -0.07856,-0.09469c-0.2669,0.00884 -0.65731,-0.07609 -0.83046,-0.59553c-0.006,-0.01801 -0.01148,-0.03575 -0.01646,-0.05324c-0.65727,0.07843 -1.30803,0.24616 -1.93186,0.45897l-0.43866,0.14622c0,0 -0.75916,0.25305 -1.06591,-0.45241c-0.10746,0.0299 -0.21735,0.06414 -0.33046,0.10331l-0.62507,0.04479c0,0 -0.87273,-0.00001 -0.87273,-0.87273c0,-0.87273 0.87273,-0.87272 0.87273,-0.87272l0.07311,0.04478c1.07845,-0.34866 1.93496,-0.38868 2.99759,-0.39328c-0.3389,-0.29345 -0.69643,-0.57103 -1.11116,-0.84535l-0.4821,-0.45813c0,0 -0.61711,-0.61711 0,-1.23422c0.61711,-0.61711 1.23422,0 1.23422,0l0.21608,0.24005c0.99897,0.67055 1.73223,1.35918 2.57665,2.20359c0,0 0.07124,0.07123 0.1411,0.18949c0.10907,0.05017 0.22042,0.12656 0.30665,0.24287c0.29103,-0.01802 0.58358,-0.04474 0.85914,0.02598c0.78644,-0.1969 1.56928,-0.41235 2.33821,-0.66917l1.04727,-0.34909c0,0 0.82794,-0.27598 1.10392,0.55196c0.27598,0.82794 -0.55196,1.10393 -0.55196,1.10393l-1.04728,0.34909c-0.34297,0.1141 -0.68845,0.22074 -1.03567,0.32155c0.1002,0.11323 0.53036,0.66315 -0.01955,1.21307c-0.36005,0.36005 -0.7201,0.29997 -0.95758,0.18743c0.0433,0.10449 0.0837,0.20987 0.12114,0.31584l0.13826,0.00796c0,0 0.61711,0.61711 0,1.23422z" fill="#000000" stroke="none" stroke-width="0.5" stroke-linecap="butt"/><path d="M245.78621,100.39729c0,23.52883 -17.82314,42.60271 -39.80909,42.60271c-21.98595,0 -39.80909,-19.07388 -39.80909,-42.60271c0,-23.52883 17.82314,-42.60271 39.80909,-42.60271c21.98595,0 39.80909,19.07388 39.80909,42.60272z" fill="#fff700" stroke="#000000" stroke-width="2" stroke-linecap="butt"/><path d="M204.2311,83.63556c0,5.97863 -4.29944,10.82528 -9.60307,10.82528c-5.30363,0 -9.60307,-4.84665 -9.60307,-10.82528c0,-5.97863 4.29944,-10.82528 9.60307,-10.82528c5.30363,0 9.60307,4.84664 9.60307,10.82528z" fill="#ffffff" stroke="#000000" stroke-width="2" stroke-linecap="butt"/><path d="M227.27847,83.81016c0,6.07506 -4.45578,10.99989 -9.95227,10.99989c-5.49649,0 -9.95228,-4.92482 -9.95228,-10.99989c0,-6.07506 4.45579,-10.99988 9.95228,-10.99988c5.49649,0 9.95227,4.92481 9.95227,10.99988z" fill="#ffffff" stroke="#000000" stroke-width="2" stroke-linecap="butt"/><path d="M239.84976,97.42906c0.87301,0 0.87301,0.87301 0.87301,0.87301l-0.09217,1.08882c-0.40928,0.81557 -0.58304,1.75147 -1.08582,2.51297c-0.49652,0.75202 -1.29004,1.28999 -1.73356,2.07443c-0.672,1.18855 -0.61944,1.52464 -1.47675,2.5597c-0.97427,1.17627 -2.06954,2.05739 -2.96427,3.31518c-0.72262,0.72161 -1.26027,1.61377 -1.98239,2.33589c-0.98059,0.98059 -2.15469,1.62922 -3.085,2.72979c-0.62377,0.73793 -1.12871,1.59431 -1.86767,2.21687c-1.09205,0.92003 -2.41503,1.72264 -3.4282,2.7358c-0.39703,0.39703 -0.63999,0.92518 -1.0054,1.3515c-1.07147,1.25005 -2.37024,2.37334 -3.53423,3.53734c-0.6293,0.62931 -1.14471,1.40766 -1.90435,1.87133c-0.35085,0.21415 -0.78402,0.25066 -1.16324,0.40924c-0.7887,0.3298 -1.39346,0.9977 -2.14283,1.40911c-0.8099,0.44465 -1.71394,0.69396 -2.5466,1.0944c-3.00139,1.18356 -5.75994,1.05886 -8.9236,1.05886c-2.43564,0 -4.78191,0.01884 -7.01841,-1.13638c-0.45792,-0.23653 -0.91151,-0.5064 -1.28136,-0.86534c-0.27446,-0.26635 -0.31249,-0.73206 -0.61101,-0.97113c-0.26585,-0.21291 -0.68439,-0.12547 -0.97666,-0.30036c-0.2999,-0.17946 -0.4591,-0.53893 -0.74989,-0.7328c-0.43312,-0.28876 -0.96547,-0.40698 -1.39681,-0.6984c-1.19138,-0.8049 -2.03427,-2.05757 -3.24967,-2.88454c-0.91807,-1.34235 -1.84462,-2.64017 -2.85145,-3.90506c-1.28154,-1.61001 -3.12696,-2.90925 -4.25792,-4.63414c-0.15092,-0.23018 -0.61729,-1.87819 -0.76234,-2.2201c-0.22137,-0.52182 -0.59106,-0.98382 -0.7415,-1.53032c-0.03206,-0.11647 -0.02336,-2.61915 -0.02336,-2.64499c0,-1.76675 -0.15476,-3.46752 0.394,-5.16491c0,0 0.27607,-0.82821 1.10428,-0.55214c0.8282,0.27607 0.55214,1.10428 0.55214,1.10428c-0.51155,1.47691 -0.3044,3.0596 -0.3044,4.61276c0,0.74799 -0.23793,1.52729 -0.02336,2.24384c0.13609,0.45445 0.46675,0.828 0.65531,1.26329c0.27426,0.63314 0.24593,1.40014 0.63447,1.97034c0.24954,0.3662 0.66009,0.59402 0.95549,0.92435c1.01732,1.13765 2.21122,2.33105 3.16745,3.52078c0.97552,1.21373 1.88752,2.46099 2.73579,3.77739c1.15651,0.75305 1.91806,1.96849 3.03598,2.70271c0.43511,0.28576 0.96367,0.40966 1.39681,0.6984c0.25712,0.1714 0.38212,0.50471 0.64691,0.664c0.33912,0.204 0.80941,0.15096 1.11855,0.39805c0.59943,0.47911 0.90706,1.32516 1.59966,1.65556c2.06288,0.98406 4.02493,0.95883 6.25129,0.95883c2.90179,0 5.48137,0.17983 8.2232,-0.91222c0.78553,-0.37788 1.64222,-0.60459 2.40581,-1.02505c0.79866,-0.43977 1.45631,-1.13244 2.29736,-1.48441c0.30005,-0.12557 0.65131,-0.12476 0.93197,-0.28916c0.65255,-0.38223 1.05291,-1.08594 1.58767,-1.62069c1.13474,-1.13474 2.40524,-2.22804 3.44982,-3.44671c0.39212,-0.45748 0.66376,-1.01606 1.08982,-1.44212c1.05227,-1.05227 2.41049,-1.90874 3.55585,-2.85144c0.65785,-0.54145 1.07308,-1.32392 1.62436,-1.97356c0.67617,-0.79681 1.40759,-1.55568 2.21688,-2.21687c0.30304,-0.24758 0.70707,-0.36387 0.98377,-0.64058c0.68777,-0.68778 1.19636,-1.54032 1.88366,-2.22856c0.88637,-1.24602 1.97613,-2.13773 2.94735,-3.29485c0.6827,-0.81338 0.76369,-1.37028 1.31687,-2.32913c0.45829,-0.79438 1.2456,-1.35572 1.75847,-2.116c0.4812,-0.71334 0.62561,-1.60572 1.00939,-2.37586l-0.09216,-0.30799c0,0 0,-0.87301 0.873,-0.87301z" fill="#000000" stroke="none" stroke-width="0.5" stroke-linecap="butt"/><path d="M194.45343,85.90538c-0.87301,0 -0.87301,-0.87301 -0.87301,-0.87301l0.0448,-0.42234c-0.24649,-0.76241 -0.38639,-1.57005 -0.394,-2.37129c0,0 0,-0.873 0.87301,-0.873c0.87301,0 0.873,0.873 0.873,0.873c-0.00763,0.61477 0.10318,1.2382 0.30441,1.81915l0.0448,0.97447c0,0 0,0.87301 -0.87301,0.87301z" fill="#000000" stroke="none" stroke-width="0.5" stroke-linecap="butt"/><path d="M217.89122,86.16242c-0.78084,0.39042 -1.17126,-0.39042 -1.17126,-0.39042l-0.39657,-0.81276c-0.28187,-0.87186 -0.38728,-1.80423 -0.394,-2.72049c0,0 0,-0.873 0.87301,-0.873c0.87301,0 0.87301,0.873 0.87301,0.873c-0.00655,0.72984 0.06553,1.47868 0.30441,2.16835l0.30183,0.58405c0,0 0.39042,0.78084 -0.39042,1.17126z" fill="#000000" stroke="none" stroke-width="0.5" stroke-linecap="butt"/><path d="M230.9451,65.82623c-4.33933,0 -7.85706,-3.20503 -7.85706,-7.15865c0,-3.95361 3.51773,-7.15866 7.85706,-7.15866c4.33933,0 7.85706,3.20505 7.85706,7.15866c0,3.95361 -3.51773,7.15865 -7.85706,7.15865z" fill="#ffa000" stroke="#000000" stroke-width="2" stroke-linecap="butt"/><path d="M229.37369,51.50893l2.44441,-4.53963l1.74602,5.23803" fill="none" stroke="#ffa000" stroke-width="2" stroke-linecap="round"/><path d="M236.70694,54.30255l4.88884,-1.74601l-2.79362,4.88884" fill="none" stroke="#ffa000" stroke-width="2" stroke-linecap="round"/><path d="M230.7562,51.00633c-0.02045,0.02408 -0.04269,0.04819 -0.0668,0.07231c-0.61731,0.61731 -1.23461,0 -1.23461,0l0.2681,-1.83952c0.04246,0.0004 0.09201,-0.00011 0.14732,-0.00104c0.16164,-0.15593 0.44213,-0.18496 0.72568,-0.16419v-0.70778c0,-0.48215 0.39086,-0.87301 0.87301,-0.87301c0.48215,0 0.87301,0.39086 0.87301,0.87301v1.04761c0,0 0,0.07197 -0.02067,0.1746c0.26861,0 0.54448,0 0.54448,0c0.48215,0 0.87301,0.39086 0.87301,0.87301c0,0.48215 -0.39086,0.873 -0.87301,0.873h-1.04761v-0.03847c-0.04625,0.01033 -0.09285,0.01945 -0.13984,0.0272c-0.32077,0.05289 -0.60918,-0.21115 -0.92207,-0.31673z" fill="#ffa000" stroke="none" stroke-width="0.5" stroke-linecap="butt"/><path d="M237.55601,55.72396c-0.19512,0.15133 -0.49189,0.25703 -0.89029,0.05784c-0.78084,-0.39042 -0.39042,-1.17126 -0.39042,-1.17126l1.27407,-0.67467l-0.12074,-0.18679c0.11101,0.02813 0.22426,0.05116 0.33876,0.07134l0.25527,-0.13517c0.07108,0.07164 0.14602,0.14008 0.22155,0.20802c0.04029,0.00574 0.08058,0.01151 0.12081,0.0174l0.22299,-0.33449l0.31922,0.21281c0.26798,-0.60625 0.89788,-1.0256 1.37284,-1.50055c0,0 0.61731,-0.61731 1.23461,0c0.61731,0.61731 0,1.23462 0,1.23462c-0.4438,0.4438 -0.86155,0.84239 -1.29677,1.22331c1.01576,1.05694 0.44824,2.35478 -1.69908,2.12796c-0.49929,-0.05274 -0.67108,-0.70371 -0.96283,-1.15036z" fill="#ffa000" stroke="none" stroke-width="0.5" stroke-linecap="butt"/><path d="M227.80227,56.39776c0,-0.48215 0.39086,-0.873 0.87301,-0.873c0.48215,0 0.87301,0.39086 0.87301,0.873c0,0.48215 -0.39086,0.87301 -0.87301,0.87301c-0.48215,0 -0.87301,-0.39086 -0.87301,-0.87301z" fill="#000000" stroke="none" stroke-width="0.5" stroke-linecap="butt"/><path d="M232.69111,58.14378c0,-0.48215 0.39086,-0.873 0.87301,-0.873c0.48215,0 0.87301,0.39086 0.87301,0.873c0,0.48215 -0.39086,0.873 -0.87301,0.873c-0.48215,0 -0.87301,-0.39086 -0.87301,-0.873z" fill="#000000" stroke="none" stroke-width="0.5" stroke-linecap="butt"/><path d="M231.3878,64.34833c-0.61731,0.61731 -1.23461,0 -1.23461,0l-0.5601,-0.69045c-0.15894,-0.52134 -0.44006,-1.03098 -0.83671,-1.40477c0,0 -0.03427,-0.03427 -0.07859,-0.09473c-0.26699,0.00884 -0.65752,-0.07611 -0.83072,-0.59571c-0.006,-0.01801 -0.01149,-0.03576 -0.01647,-0.05325c-0.65748,0.07846 -1.30845,0.24623 -1.93248,0.45913l-0.43881,0.14626c0,0 -0.75939,0.25313 -1.06624,-0.45255c-0.1075,0.02992 -0.21743,0.06416 -0.33057,0.10335l-0.62527,0.0448c0,0 -0.87301,0 -0.87301,-0.873c0,-0.873 0.87301,-0.873 0.87301,-0.873l0.07314,0.0448c1.0788,-0.34878 1.93557,-0.38881 2.99854,-0.39341c-0.339,-0.29355 -0.69665,-0.57121 -1.11152,-0.84562l-0.48226,-0.45828c0,0 -0.61731,-0.61731 0,-1.23461c0.61731,-0.61731 1.23461,0 1.23461,0l0.21615,0.24012c0.99929,0.67076 1.73278,1.35961 2.57747,2.20429c0,0 0.07126,0.07126 0.14114,0.18956c0.1091,0.05019 0.22049,0.12661 0.30675,0.24295c0.29112,-0.01803 0.58376,-0.04476 0.85941,0.02598c0.7867,-0.19696 1.56978,-0.41248 2.33895,-0.66939l1.04761,-0.3492c0,0 0.8282,-0.27607 1.10428,0.55213c0.27607,0.8282 -0.55214,1.10428 -0.55214,1.10428l-1.04761,0.3492c-0.34308,0.11415 -0.68867,0.2208 -1.03601,0.32165c0.10022,0.11326 0.53054,0.66336 -0.01956,1.21346c-0.36016,0.36016 -0.72033,0.30006 -0.95789,0.18749c0.04332,0.10452 0.08373,0.20994 0.12118,0.31594l0.1383,0.00796c0,0 0.61731,0.61731 0,1.23462z" fill="#000000" stroke="none" stroke-width="0.5" stroke-linecap="butt"/><path d="M334.6153,100.101c0,23.38483 -17.71406,42.34197 -39.56545,42.34197c-21.8514,0 -39.56546,-18.95714 -39.56546,-42.34197c0,-23.38483 17.71406,-42.34198 39.56546,-42.34198c21.8514,0 39.56545,18.95715 39.56545,42.34198z" fill="#fff700" stroke="#000000" stroke-width="2" stroke-linecap="butt"/><path d="M293.31451,83.44186c0,5.94204 -4.27313,10.75903 -9.5443,10.75903c-5.27117,0 -9.5443,-4.81699 -9.5443,-10.75903c0,-5.94204 4.27313,-10.75903 9.5443,-10.75903c5.27117,0 9.5443,4.81698 9.5443,10.75903z" fill="#ffffff" stroke="#000000" stroke-width="2" stroke-linecap="butt"/><path d="M316.22083,83.6154c0,6.03789 -4.42851,10.93256 -9.89136,10.93256c-5.46285,0 -9.89137,-4.89467 -9.89137,-10.93256c0,-6.03789 4.42852,-10.93256 9.89137,-10.93256c5.46285,0 9.89136,4.89468 9.89136,10.93256z" fill="#ffffff" stroke="#000000" stroke-width="2" stroke-linecap="butt"/><path d="M328.71518,97.15095c0.86766,0 0.86767,0.86766 0.86767,0.86766l-0.0916,1.08217c-0.40677,0.81058 -0.57948,1.74075 -1.07918,2.49759c-0.49348,0.74741 -1.28215,1.2821 -1.72295,2.06173c-0.66789,1.18128 -0.61565,1.51532 -1.46771,2.54404c-0.96831,1.16907 -2.05688,2.0448 -2.94614,3.29489c-0.7182,0.7172 -1.25255,1.60389 -1.97025,2.32159c-0.97459,0.97459 -2.1415,1.61925 -3.06612,2.71308c-0.61995,0.73341 -1.1218,1.58455 -1.85624,2.20331c-1.08537,0.9144 -2.40025,1.71209 -3.40722,2.71905c-0.3946,0.3946 -0.63607,0.91953 -0.99924,1.34323c-1.06491,1.2424 -2.35573,2.35882 -3.51261,3.51569c-0.62545,0.62546 -1.1377,1.39904 -1.8927,1.85988c-0.3487,0.21284 -0.77922,0.24913 -1.15613,0.40673c-0.78388,0.32778 -1.38493,0.99159 -2.12971,1.40048c-0.80495,0.44192 -1.70346,0.68972 -2.53102,1.0877c-2.98302,1.17631 -5.72469,1.05238 -8.86899,1.05238c-2.42073,0 -4.75264,0.01872 -6.97545,-1.12942c-0.45511,-0.23508 -0.90592,-0.50329 -1.27352,-0.86003c-0.27278,-0.26472 -0.31057,-0.72758 -0.60726,-0.96519c-0.26423,-0.21161 -0.68021,-0.1247 -0.97069,-0.29853c-0.29807,-0.17836 -0.45629,-0.53563 -0.74531,-0.72832c-0.43048,-0.287 -0.95956,-0.40449 -1.38826,-0.69413c-1.18409,-0.79998 -2.02182,-2.04496 -3.22978,-2.86687c-0.91245,-1.33414 -1.83333,-2.62401 -2.834,-3.88116c-1.27369,-1.60015 -3.10782,-2.89145 -4.23186,-4.60578c-0.14999,-0.22876 -0.61351,-1.8667 -0.75767,-2.20651c-0.22002,-0.51863 -0.58745,-0.9778 -0.73696,-1.52096c-0.03187,-0.11576 -0.02321,-2.60312 -0.02321,-2.6288c0,-1.75593 -0.15381,-3.4463 0.39159,-5.1333c0,0 0.27437,-0.82314 1.09751,-0.54876c0.82314,0.27438 0.54876,1.09752 0.54876,1.09752c-0.50842,1.46787 -0.30254,3.04089 -0.30254,4.58454c0,0.74341 -0.23647,1.51794 -0.02321,2.23011c0.13525,0.45167 0.46389,0.82293 0.6513,1.25557c0.27258,0.62927 0.24442,1.39157 0.63059,1.95828c0.24802,0.36396 0.65605,0.59038 0.94964,0.91869c1.01109,1.13068 2.1977,2.31678 3.14807,3.49923c0.96955,1.20631 1.87597,2.44593 2.71905,3.75428c1.14943,0.74845 1.90632,1.95645 3.01739,2.68617c0.43244,0.28401 0.95777,0.40716 1.38826,0.69413c0.25554,0.17036 0.37978,0.50162 0.64296,0.65994c0.33705,0.20275 0.80446,0.15003 1.1117,0.39561c0.59576,0.47619 0.9015,1.31706 1.58987,1.64543c2.05025,0.97805 4.0003,0.95297 6.21303,0.95297c2.88403,0 5.44782,0.17873 8.17287,-0.90664c0.78072,-0.37556 1.63217,-0.60088 2.39108,-1.01877c0.79377,-0.43708 1.44739,-1.12551 2.2833,-1.47533c0.29821,-0.1248 0.64732,-0.124 0.92627,-0.2874c0.64856,-0.3799 1.04648,-1.0793 1.57796,-1.61078c1.12779,-1.1278 2.39052,-2.2144 3.4287,-3.42561c0.38972,-0.45468 0.6597,-1.00985 1.08315,-1.4333c1.04583,-1.04582 2.39574,-1.89706 3.53409,-2.834c0.65382,-0.53814 1.06651,-1.31581 1.61442,-1.96147c0.67203,-0.79193 1.39897,-1.54617 2.20331,-2.20331c0.30118,-0.24607 0.70274,-0.36166 0.97776,-0.63667c0.68356,-0.68357 1.18903,-1.53088 1.87214,-2.21492c0.88094,-1.23839 1.96404,-2.12465 2.92931,-3.27468c0.67852,-0.8084 0.75902,-1.36189 1.30881,-2.31488c0.45549,-0.78951 1.23797,-1.34742 1.7477,-2.10305c0.47825,-0.70897 0.62179,-1.5959 1.00321,-2.36133l-0.0916,-0.3061c0,0 0,-0.86767 0.86766,-0.86767z" fill="#000000" stroke="none" stroke-width="0.5" stroke-linecap="butt"/><path d="M283.59668,85.69779c-0.86766,0 -0.86766,-0.86766 -0.86766,-0.86766l0.04453,-0.41975c-0.24498,-0.75774 -0.38403,-1.56045 -0.39159,-2.35677c0,0 0,-0.86767 0.86766,-0.86767c0.86766,0 0.86766,0.86767 0.86766,0.86767c-0.00759,0.61101 0.10255,1.23062 0.30254,1.80801l0.04452,0.96851c0,0 0,0.86766 -0.86766,0.86766z" fill="#000000" stroke="none" stroke-width="0.5" stroke-linecap="butt"/><path d="M306.89103,85.95325c-0.77607,0.38804 -1.1641,-0.38803 -1.1641,-0.38803l-0.39414,-0.80778c-0.28015,-0.86652 -0.38491,-1.79318 -0.39159,-2.70383c0,0 0,-0.86767 0.86767,-0.86767c0.86766,0 0.86766,0.86767 0.86766,0.86767c-0.00651,0.72537 0.06512,1.46963 0.30254,2.15508l0.29999,0.58047c0,0 0.38804,0.77606 -0.38803,1.1641z" fill="#000000" stroke="none" stroke-width="0.5" stroke-linecap="butt"/><path d="M319.86502,65.74153c-4.31277,0 -7.80897,-3.18542 -7.80897,-7.11484c0,-3.92941 3.4962,-7.11484 7.80897,-7.11484c4.31277,0 7.80897,3.18543 7.80897,7.11484c0,3.92942 -3.49619,7.11484 -7.80897,7.11484z" fill="#ffa000" stroke="#000000" stroke-width="2" stroke-linecap="butt"/><path d="M318.30322,51.51185l2.42946,-4.51185l1.73532,5.20598" fill="none" stroke="#ffa000" stroke-width="2" stroke-linecap="round"/><path d="M325.5916,54.28837l4.85892,-1.73533l-2.77652,4.85891" fill="none" stroke="#ffa000" stroke-width="2" stroke-linecap="round"/><path d="M319.67727,51.01232c-0.02033,0.02393 -0.04243,0.0479 -0.06639,0.07186c-0.61353,0.61353 -1.22706,0 -1.22706,0l0.26646,-1.82826c0.0422,0.0004 0.09145,-0.00011 0.14643,-0.00104c0.16065,-0.15498 0.43942,-0.18383 0.72124,-0.16318v-0.70345c0,-0.47919 0.38847,-0.86766 0.86766,-0.86766c0.4792,0 0.86766,0.38847 0.86766,0.86766v1.0412c0,0 0.00001,0.07153 -0.02054,0.17353c0.26697,0 0.54114,0 0.54114,0c0.4792,0 0.86767,0.38847 0.86767,0.86767c0,0.47919 -0.38847,0.86766 -0.86767,0.86766h-1.04119v-0.03823c-0.04597,0.01028 -0.09228,0.01933 -0.13898,0.02703c-0.3188,0.05257 -0.60546,-0.20985 -0.91643,-0.31479z" fill="#ffa000" stroke="none" stroke-width="0.5" stroke-linecap="butt"/><path d="M326.43547,55.70108c-0.19394,0.1504 -0.48888,0.25546 -0.88484,0.05748c-0.77607,-0.38803 -0.38803,-1.16409 -0.38803,-1.16409l1.26626,-0.67054l-0.12,-0.18565c0.11033,0.02795 0.22289,0.05085 0.33669,0.07091l0.25371,-0.13435c0.07064,0.0712 0.14512,0.13922 0.22019,0.20674c0.04005,0.00571 0.08009,0.01144 0.12008,0.01729l0.22163,-0.33245l0.31727,0.21152c0.26634,-0.60254 0.89238,-1.01932 1.36443,-1.49137c0,0 0.61353,-0.61353 1.22706,0c0.61353,0.61353 0,1.22706 0,1.22706c-0.44108,0.44109 -0.85628,0.83723 -1.28883,1.21582c1.00954,1.05047 0.4455,2.34037 -1.68868,2.11493c-0.49624,-0.05242 -0.66697,-0.6994 -0.95693,-1.14331z" fill="#ffa000" stroke="none" stroke-width="0.5" stroke-linecap="butt"/><path d="M316.74143,56.37076c0,-0.47919 0.38847,-0.86766 0.86766,-0.86766c0.4792,0 0.86767,0.38847 0.86767,0.86766c0,0.47919 -0.38847,0.86767 -0.86767,0.86767c-0.4792,0 -0.86766,-0.38847 -0.86766,-0.86767z" fill="#000000" stroke="none" stroke-width="0.5" stroke-linecap="butt"/><path d="M321.60034,58.10609c0,-0.47919 0.38847,-0.86767 0.86766,-0.86767c0.4792,0 0.86766,0.38847 0.86766,0.86767c0,0.47919 -0.38847,0.86766 -0.86766,0.86766c-0.4792,0 -0.86766,-0.38847 -0.86766,-0.86766z" fill="#000000" stroke="none" stroke-width="0.5" stroke-linecap="butt"/><path d="M320.30501,64.27267c-0.61353,0.61353 -1.22706,0 -1.22706,0l-0.55667,-0.68622c-0.15796,-0.51814 -0.43736,-1.02468 -0.83159,-1.39617c0,0 -0.03406,-0.03406 -0.0781,-0.09415c-0.26535,0.00879 -0.6535,-0.07565 -0.82564,-0.59207c-0.00597,-0.0179 -0.01141,-0.03554 -0.01637,-0.05293c-0.65346,0.07798 -1.30045,0.24473 -1.92066,0.45632l-0.43611,0.14537c0,0 -0.75475,0.25158 -1.05972,-0.44978c-0.10684,0.02974 -0.2161,0.06377 -0.32854,0.10272l-0.62144,0.04453c0,0 -0.86767,0 -0.86767,-0.86767c0,-0.86767 0.86767,-0.86767 0.86767,-0.86767l0.07268,0.04453c1.0722,-0.34664 1.92373,-0.38643 2.98019,-0.391c-0.33693,-0.29175 -0.69239,-0.56771 -1.10471,-0.84045l-0.47931,-0.45547c0,0 -0.61353,-0.61353 0,-1.22706c0.61353,-0.61353 1.22706,0 1.22706,0l0.21482,0.23865c0.99318,0.66665 1.72219,1.3513 2.5617,2.19081c0,0 0.07081,0.07081 0.14027,0.18839c0.10843,0.04989 0.21914,0.12584 0.30487,0.24147c0.28935,-0.01792 0.5802,-0.04447 0.85415,0.02583c0.78188,-0.19576 1.56018,-0.40996 2.32464,-0.6653l1.0412,-0.34707c0,0 0.82314,-0.27438 1.09752,0.54876c0.27438,0.82314 -0.54876,1.09752 -0.54876,1.09752l-1.0412,0.34707c-0.34098,0.11344 -0.68446,0.21945 -1.02967,0.31968c0.09961,0.11257 0.52729,0.65931 -0.01944,1.20604c-0.35796,0.35795 -0.71591,0.29823 -0.95202,0.18635c0.04305,0.10388 0.08321,0.20865 0.12043,0.31401l0.13746,0.00792c0,0 0.61353,0.61353 0,1.22706z" fill="#000000" stroke="none" stroke-width="0.5" stroke-linecap="butt"/><path d="M397.53893,176.39186c0,23.9533 -18.14468,43.37129 -40.52728,43.37129c-22.3826,0 -40.52727,-19.41799 -40.52727,-43.37129c0,-23.9533 18.14468,-43.37129 40.52727,-43.37129c22.3826,0 40.52728,19.41799 40.52728,43.37129z" fill="#fff700" stroke="#000000" stroke-width="2" stroke-linecap="butt"/><path d="M355.23415,159.32775c0,6.08649 -4.37701,11.02057 -9.77632,11.02057c-5.39931,0 -9.77632,-4.93408 -9.77632,-11.02057c0,-6.08649 4.37701,-11.02057 9.77632,-11.02057c5.39931,0 9.77632,4.93408 9.77632,11.02057z" fill="#ffffff" stroke="#000000" stroke-width="2" stroke-linecap="butt"/><path d="M378.6973,159.5055c0,6.18466 -4.53617,11.19832 -10.13182,11.19832c-5.59565,0 -10.13181,-5.01366 -10.13181,-11.19832c0,-6.18466 4.53616,-11.19832 10.13181,-11.19832c5.59565,0 10.13182,5.01366 10.13182,11.19832z" fill="#ffffff" stroke="#000000" stroke-width="2" stroke-linecap="butt"/><path d="M391.49539,173.37009c0.88876,0 0.88875,0.88875 0.88875,0.88875l-0.09383,1.10847c-0.41666,0.83028 -0.59356,1.78306 -1.10541,2.5583c-0.50548,0.76558 -1.31332,1.31327 -1.76484,2.11186c-0.68412,1.21 -0.63061,1.55215 -1.50339,2.60588c-0.99185,1.19749 -2.10688,2.09451 -3.01776,3.37499c-0.73566,0.73463 -1.283,1.64288 -2.01815,2.37803c-0.99828,0.99829 -2.19356,1.65861 -3.14065,2.77904c-0.63502,0.75124 -1.14908,1.62308 -1.90137,2.25687c-1.11175,0.93663 -2.45859,1.75371 -3.49004,2.78515c-0.40419,0.40419 -0.65154,0.94188 -1.02354,1.37588c-1.0908,1.2726 -2.41299,2.41616 -3.59799,3.60116c-0.64066,0.64066 -1.16536,1.43305 -1.93871,1.90508c-0.35718,0.21802 -0.79817,0.25519 -1.18423,0.41662c-0.80293,0.33575 -1.4186,1.0157 -2.18149,1.43453c-0.82452,0.45266 -1.74487,0.70648 -2.59254,1.11415c-3.05554,1.20491 -5.86385,1.07796 -9.08459,1.07796c-2.47958,0 -4.86818,0.01918 -7.14502,-1.15688c-0.46618,-0.24079 -0.92794,-0.51553 -1.30448,-0.88094c-0.27941,-0.27115 -0.31812,-0.74527 -0.62203,-0.98865c-0.27065,-0.21675 -0.69674,-0.12773 -0.99429,-0.30578c-0.30532,-0.1827 -0.46738,-0.54865 -0.76342,-0.74603c-0.44094,-0.29398 -0.98288,-0.41433 -1.42201,-0.71101c-1.21287,-0.81942 -2.07097,-2.09468 -3.30831,-2.93657c-0.93463,-1.36657 -1.87789,-2.6878 -2.90288,-3.97551c-1.30466,-1.63905 -3.18337,-2.96173 -4.33474,-4.71774c-0.15364,-0.23432 -0.62842,-1.91208 -0.77609,-2.26015c-0.22537,-0.53123 -0.60173,-1.00156 -0.75488,-1.55793c-0.03264,-0.11858 -0.02377,-2.66641 -0.02377,-2.69271c0,-1.79862 -0.15755,-3.53007 0.40111,-5.25808c0,0 0.28105,-0.84315 1.1242,-0.5621c0.84315,0.28105 0.5621,1.1242 0.5621,1.1242c-0.52079,1.50355 -0.3099,3.1148 -0.3099,4.69598c0,0.76148 -0.24222,1.55485 -0.02377,2.28432c0.13854,0.46264 0.47516,0.84294 0.66713,1.28609c0.27921,0.64457 0.25036,1.4254 0.64592,2.00588c0.25404,0.37281 0.672,0.60474 0.97273,0.94103c1.03567,1.15817 2.25112,2.3731 3.2246,3.5843c0.99312,1.23563 1.92157,2.50539 2.78515,3.84555c1.17737,0.76664 1.95266,2.004 3.09074,2.75147c0.44296,0.29092 0.98105,0.41705 1.42201,0.71101c0.26176,0.1745 0.38902,0.51382 0.65859,0.67598c0.34524,0.20768 0.82401,0.15368 1.13873,0.40522c0.61024,0.48776 0.92342,1.34907 1.62852,1.68543c2.10009,1.00182 4.09754,0.97613 6.36407,0.97613c2.95415,0 5.58025,0.18308 8.37155,-0.92868c0.7997,-0.38469 1.67185,-0.6155 2.44921,-1.04354c0.81307,-0.44771 1.48258,-1.15286 2.33881,-1.51119c0.30546,-0.12783 0.66306,-0.12701 0.94878,-0.29438c0.66432,-0.38913 1.07191,-1.10553 1.61631,-1.64993c1.15521,-1.15521 2.44864,-2.26824 3.51205,-3.50889c0.3992,-0.46573 0.67574,-1.0344 1.10948,-1.46814c1.07125,-1.07125 2.45399,-1.94318 3.62001,-2.90288c0.66972,-0.55122 1.09243,-1.3478 1.65366,-2.00916c0.68837,-0.81119 1.43298,-1.58375 2.25687,-2.25687c0.30851,-0.25205 0.71983,-0.37044 1.00152,-0.65214c0.70019,-0.70019 1.21794,-1.5681 1.91764,-2.26876c0.90235,-1.2685 2.01179,-2.1763 3.00052,-3.35429c0.69502,-0.82806 0.77747,-1.395 1.34063,-2.37115c0.46656,-0.80871 1.26806,-1.38017 1.79019,-2.15417c0.48988,-0.72621 0.6369,-1.63469 1.0276,-2.41873l-0.09383,-0.31354c0,0 0,-0.88875 0.88876,-0.88875z" fill="#000000" stroke="none" stroke-width="0.5" stroke-linecap="butt"/><path d="M345.28008,161.63851c-0.88876,0 -0.88875,-0.88876 -0.88875,-0.88876l0.04561,-0.42995c-0.25093,-0.77616 -0.39337,-1.59838 -0.40111,-2.41406c0,0 0,-0.88876 0.88875,-0.88876c0.88876,0 0.88876,0.88876 0.88876,0.88876c-0.00777,0.62586 0.10504,1.26053 0.30989,1.85197l0.04561,0.99205c0,0 0,0.88876 -0.88876,0.88876z" fill="#000000" stroke="none" stroke-width="0.5" stroke-linecap="butt"/><path d="M369.1407,161.90019c-0.79493,0.39747 -1.19239,-0.39746 -1.19239,-0.39746l-0.40373,-0.82742c-0.28695,-0.88759 -0.39427,-1.83677 -0.40111,-2.76956c0,0 0,-0.88876 0.88876,-0.88876c0.88876,0 0.88875,0.88876 0.88875,0.88876c-0.00667,0.74301 0.0667,1.50535 0.3099,2.20746l0.30728,0.59459c0,0 0.39747,0.79493 -0.39746,1.1924z" fill="#000000" stroke="none" stroke-width="0.5" stroke-linecap="butt"/><path d="M382.43008,141.19712c-4.41761,0 -7.9988,-3.26286 -7.9988,-7.2878c0,-4.02494 3.58119,-7.2878 7.9988,-7.2878c4.41761,0 7.9988,3.26286 7.9988,7.2878c0,4.02494 -3.58119,7.2878 -7.9988,7.2878z" fill="#ffa000" stroke="#000000" stroke-width="2" stroke-linecap="butt"/><path d="M380.83032,126.62153l2.48852,-4.62153l1.77751,5.33253" fill="none" stroke="#ffa000" stroke-width="2" stroke-linecap="round"/><path d="M388.29587,129.46554l4.97704,-1.77751l-2.84402,4.97704" fill="none" stroke="#ffa000" stroke-width="2" stroke-linecap="round"/><path d="M382.23777,126.10986c-0.02083,0.02451 -0.04345,0.04906 -0.068,0.07361c-0.62845,0.62845 -1.25689,0 -1.25689,0l0.27294,-1.8727c0.04322,0.00041 0.09366,-0.00011 0.14998,-0.00106c0.16455,-0.15875 0.4501,-0.18829 0.73877,-0.16715v-0.72055c0,-0.49085 0.39791,-0.88875 0.88876,-0.88875c0.49085,0 0.88876,0.39791 0.88876,0.88875v1.06651c0,0 0,0.07328 -0.02104,0.17775c0.27345,0 0.55429,0 0.55429,0c0.49085,0 0.88876,0.39791 0.88876,0.88875c0,0.49085 -0.39791,0.88876 -0.88876,0.88876h-1.06651v-0.03916c-0.04708,0.01052 -0.09452,0.0198 -0.14236,0.02769c-0.32656,0.05385 -0.62017,-0.21495 -0.9387,-0.32244z" fill="#ffa000" stroke="none" stroke-width="0.5" stroke-linecap="butt"/><path d="M389.16026,130.9126c-0.19865,0.15406 -0.50076,0.26167 -0.90635,0.05888c-0.79493,-0.39746 -0.39746,-1.19239 -0.39746,-1.19239l1.29705,-0.68684l-0.12293,-0.19017c0.11301,0.02864 0.2283,0.05209 0.34488,0.07263l0.25988,-0.13762c0.07236,0.07294 0.14865,0.1426 0.22554,0.21177c0.04102,0.00585 0.08203,0.01172 0.12299,0.01772l0.22702,-0.34053l0.32498,0.21666c0.27281,-0.61719 0.91408,-1.0441 1.3976,-1.52762c0,0 0.62845,-0.62845 1.25689,0c0.62845,0.62845 0,1.25689 0,1.25689c-0.45181,0.45181 -0.8771,0.85759 -1.32017,1.24538c1.03408,1.076 0.45633,2.39726 -1.72973,2.16634c-0.5083,-0.05369 -0.68319,-0.7164 -0.98019,-1.1711z" fill="#ffa000" stroke="none" stroke-width="0.5" stroke-linecap="butt"/><path d="M379.23056,131.59856c0,-0.49085 0.39791,-0.88875 0.88875,-0.88875c0.49085,0 0.88876,0.39791 0.88876,0.88875c0,0.49085 -0.39791,0.88876 -0.88876,0.88876c-0.49085,0 -0.88875,-0.39791 -0.88875,-0.88876z" fill="#000000" stroke="none" stroke-width="0.5" stroke-linecap="butt"/><path d="M384.20759,133.37607c0,-0.49085 0.39791,-0.88875 0.88876,-0.88875c0.49085,0 0.88875,0.39791 0.88875,0.88875c0,0.49085 -0.39791,0.88876 -0.88875,0.88876c-0.49085,0 -0.88876,-0.39791 -0.88876,-0.88876z" fill="#000000" stroke="none" stroke-width="0.5" stroke-linecap="butt"/><path d="M382.88077,139.69256c-0.62845,0.62845 -1.25689,0 -1.25689,0l-0.57021,-0.7029c-0.1618,-0.53074 -0.448,-1.04958 -0.8518,-1.43011c0,0 -0.03488,-0.03489 -0.08,-0.09644c-0.2718,0.009 -0.66939,-0.07748 -0.84571,-0.60646c-0.00611,-0.01834 -0.01169,-0.0364 -0.01676,-0.05421c-0.66934,0.07988 -1.33206,0.25068 -1.96735,0.4674l-0.44672,0.14891c0,0 -0.7731,0.2577 -1.08548,-0.46071c-0.10944,0.03046 -0.22135,0.06532 -0.33653,0.10521l-0.63655,0.04561c0,0 -0.88875,0 -0.88875,-0.88875c0,-0.88876 0.88875,-0.88876 0.88875,-0.88876l0.07445,0.04561c1.09826,-0.35507 1.9705,-0.39582 3.05264,-0.40051c-0.34512,-0.29884 -0.70922,-0.58151 -1.13157,-0.86088l-0.49096,-0.46655c0,0 -0.62845,-0.62844 0,-1.25689c0.62845,-0.62845 1.25689,0 1.25689,0l0.22005,0.24446c1.01732,0.68286 1.76405,1.38414 2.62397,2.24406c0,0 0.07254,0.07254 0.14368,0.19298c0.11107,0.0511 0.22447,0.12889 0.31229,0.24734c0.29638,-0.01836 0.5943,-0.04556 0.87491,0.02646c0.80089,-0.20052 1.5981,-0.41992 2.38115,-0.68146l1.06651,-0.3555c0,0 0.84315,-0.28105 1.1242,0.5621c0.28105,0.84315 -0.5621,1.1242 -0.5621,1.1242l-1.06651,0.3555c-0.34927,0.1162 -0.70109,0.22478 -1.05469,0.32746c0.10203,0.11531 0.54011,0.67533 -0.01992,1.23536c-0.36666,0.36666 -0.73331,0.30547 -0.97516,0.19087c0.0441,0.1064 0.08523,0.21373 0.12336,0.32164l0.1408,0.0081c0,0 0.62845,0.62845 0,1.25689z" fill="#000000" stroke="none" stroke-width="0.5" stroke-linecap="butt"/><path d="M271.3862,189.94727c0,23.31713 -17.66277,42.21939 -39.45091,42.21939c-21.78813,0 -39.45091,-18.90227 -39.45091,-42.21939c0,-23.31713 17.66277,-42.21939 39.45091,-42.21939c21.78813,0 39.45091,18.90227 39.45091,42.21939z" fill="#fff700" stroke="#000000" stroke-width="2" stroke-linecap="butt"/><path d="M230.20499,173.33636c0,5.92484 -4.26076,10.72788 -9.51667,10.72788c-5.25591,0 -9.51667,-4.80304 -9.51667,-10.72788c0,-5.92484 4.26076,-10.72788 9.51667,-10.72788c5.25591,0 9.51667,4.80304 9.51667,10.72788z" fill="#ffffff" stroke="#000000" stroke-width="2" stroke-linecap="butt"/><path d="M253.04499,173.50939c0,6.02041 -4.41569,10.90091 -9.86273,10.90091c-5.44704,0 -9.86273,-4.8805 -9.86273,-10.90091c0,-6.02041 4.41569,-10.90091 9.86273,-10.90091c5.44704,0 9.86273,4.8805 9.86273,10.90091z" fill="#ffffff" stroke="#000000" stroke-width="2" stroke-linecap="butt"/><path d="M265.50317,187.00575c0.86515,0 0.86515,0.86515 0.86515,0.86515l-0.09134,1.07903c-0.4056,0.80823 -0.5778,1.73571 -1.07605,2.49036c-0.49205,0.74525 -1.27844,1.27839 -1.71797,2.05577c-0.66595,1.17786 -0.61386,1.51093 -1.46346,2.53668c-0.96551,1.16568 -2.05092,2.03888 -2.9376,3.28535c-0.71612,0.71512 -1.24893,1.59925 -1.96455,2.31487c-0.97177,0.97177 -2.1353,1.61456 -3.05724,2.70523c-0.61816,0.73129 -1.11856,1.57997 -1.85087,2.19693c-1.08222,0.91175 -2.3933,1.70713 -3.39735,2.71118c-0.39346,0.39346 -0.63423,0.91686 -0.99635,1.33934c-1.06183,1.2388 -2.34891,2.35198 -3.50243,3.50551c-0.62364,0.62364 -1.13441,1.39499 -1.88722,1.85449c-0.34769,0.21223 -0.77697,0.24841 -1.15278,0.40556c-0.78161,0.32683 -1.38092,0.98872 -2.12355,1.39643c-0.80262,0.44064 -1.69852,0.68772 -2.52369,1.08456c-2.97439,1.17291 -5.70812,1.04933 -8.84331,1.04933c-2.41373,0 -4.73889,0.01867 -6.95526,-1.12615c-0.4538,-0.2344 -0.9033,-0.50184 -1.26983,-0.85755c-0.27199,-0.26395 -0.30968,-0.72547 -0.60551,-0.96239c-0.26346,-0.211 -0.67824,-0.12434 -0.96788,-0.29766c-0.29721,-0.17785 -0.45497,-0.53408 -0.74314,-0.72622c-0.42923,-0.28617 -0.95678,-0.40332 -1.38424,-0.69212c-1.18066,-0.79766 -2.01596,-2.03905 -3.22044,-2.85858c-0.90981,-1.33028 -1.82802,-2.61641 -2.82579,-3.86992c-1.27001,-1.59552 -3.09882,-2.88308 -4.21961,-4.59245c-0.14956,-0.2281 -0.61173,-1.86129 -0.75548,-2.20012c-0.21939,-0.51712 -0.58575,-0.97496 -0.73483,-1.51655c-0.03178,-0.11543 -0.02314,-2.59559 -0.02314,-2.62119c0,-1.75085 -0.15336,-3.43632 0.39046,-5.11843c0,0 0.27359,-0.82076 1.09434,-0.54717c0.82076,0.27359 0.54717,1.09434 0.54717,1.09434c-0.50695,1.46362 -0.30166,3.03208 -0.30166,4.57126c0,0.74126 -0.23579,1.51355 -0.02314,2.22365c0.13486,0.45036 0.46254,0.82055 0.64941,1.25193c0.27179,0.62745 0.24372,1.38754 0.62876,1.95261c0.24729,0.36291 0.65415,0.58867 0.94689,0.91603c1.00816,1.12741 2.19133,2.31007 3.13896,3.4891c0.96674,1.20281 1.87054,2.43885 2.71118,3.74341c1.1461,0.74628 1.9008,1.95078 3.00865,2.67839c0.43119,0.2832 0.955,0.40598 1.38424,0.69212c0.2548,0.16986 0.37869,0.50017 0.6411,0.65803c0.33607,0.20217 0.80213,0.1496 1.10848,0.39446c0.59404,0.47481 0.89889,1.31324 1.58527,1.64066c2.04432,0.97521 3.98872,0.95021 6.19505,0.95021c2.87569,0 5.43205,0.17822 8.14921,-0.90401c0.77846,-0.37448 1.62745,-0.59915 2.38416,-1.01582c0.79148,-0.43582 1.4432,-1.12225 2.27669,-1.47106c0.29735,-0.12444 0.64545,-0.12364 0.92358,-0.28656c0.64668,-0.3788 1.04344,-1.07617 1.57339,-1.60612c1.12453,-1.12453 2.3836,-2.208 3.41878,-3.4157c0.38859,-0.45336 0.65779,-1.00693 1.08001,-1.42915c1.0428,-1.0428 2.38881,-1.89157 3.52386,-2.82579c0.65193,-0.53658 1.06342,-1.31201 1.60974,-1.9558c0.67009,-0.78964 1.39492,-1.54169 2.19693,-2.19693c0.30031,-0.24535 0.70071,-0.3606 0.97493,-0.63482c0.68159,-0.68159 1.18559,-1.52645 1.86671,-2.20851c0.87839,-1.23481 1.95836,-2.1185 2.92083,-3.2652c0.67656,-0.80607 0.75682,-1.35795 1.30502,-2.30817c0.45417,-0.78723 1.23438,-1.34352 1.74264,-2.09696c0.47687,-0.70692 0.61999,-1.59128 1.00031,-2.35449l-0.09134,-0.30522c0,0 0,-0.86515 0.86515,-0.86515z" fill="#000000" stroke="none" stroke-width="0.5" stroke-linecap="butt"/><path d="M220.51529,175.58575c-0.86515,0 -0.86515,-0.86515 -0.86515,-0.86515l0.0444,-0.41854c-0.24427,-0.75555 -0.38292,-1.55593 -0.39046,-2.34995c0,0 0,-0.86515 0.86515,-0.86515c0.86515,0 0.86515,0.86515 0.86515,0.86515c-0.00756,0.60924 0.10225,1.22705 0.30166,1.80278l0.0444,0.96571c0,0 0,0.86515 -0.86515,0.86515z" fill="#000000" stroke="none" stroke-width="0.5" stroke-linecap="butt"/><path d="M243.7422,175.84048c-0.77382,0.38691 -1.16073,-0.38691 -1.16073,-0.38691l-0.393,-0.80545c-0.27933,-0.86401 -0.3838,-1.78799 -0.39046,-2.69601c0,0 0,-0.86515 0.86515,-0.86515c0.86515,0 0.86515,0.86515 0.86515,0.86515c-0.00649,0.72327 0.06493,1.46537 0.30166,2.14884l0.29912,0.5788c0,0 0.38691,0.77382 -0.38691,1.16073z" fill="#000000" stroke="none" stroke-width="0.5" stroke-linecap="butt"/><path d="M256.67863,155.68727c-4.30029,0 -7.78636,-3.1762 -7.78636,-7.09424c0,-3.91804 3.48608,-7.09424 7.78636,-7.09424c4.30029,0 7.78636,3.1762 7.78636,7.09424c0,3.91804 -3.48608,7.09424 -7.78636,7.09424z" fill="#ffa000" stroke="#000000" stroke-width="2" stroke-linecap="butt"/><path d="M255.12135,141.49878l2.42242,-4.49879l1.7303,5.19091" fill="none" stroke="#ffa000" stroke-width="2" stroke-linecap="round"/><path d="M262.38863,144.26727l4.84485,-1.7303l-2.76848,4.84485" fill="none" stroke="#ffa000" stroke-width="2" stroke-linecap="round"/><path d="M256.49143,141.0007c-0.02027,0.02386 -0.0423,0.04776 -0.0662,0.07165c-0.61176,0.61176 -1.22351,0 -1.22351,0l0.26569,-1.82297c0.04208,0.0004 0.09118,-0.00011 0.146,-0.00103c0.16018,-0.15453 0.43815,-0.18329 0.71915,-0.16271v-0.70141c0,-0.47781 0.38734,-0.86515 0.86515,-0.86515c0.47781,0 0.86515,0.38734 0.86515,0.86515v1.03818c0,0 0,0.07133 -0.02048,0.17303c0.26619,0 0.53957,0 0.53957,0c0.47781,0 0.86515,0.38734 0.86515,0.86515c0,0.47781 -0.38734,0.86515 -0.86515,0.86515h-1.03818v-0.03812c-0.04583,0.01024 -0.09201,0.01927 -0.13858,0.02695c-0.31788,0.05242 -0.6037,-0.20924 -0.91377,-0.31388z" fill="#ffa000" stroke="none" stroke-width="0.5" stroke-linecap="butt"/><path d="M263.23006,145.67589c-0.19337,0.14997 -0.48746,0.25472 -0.88227,0.05731c-0.77382,-0.38691 -0.38691,-1.16072 -0.38691,-1.16072l1.2626,-0.6686l-0.11966,-0.18511c0.11001,0.02788 0.22224,0.0507 0.33572,0.0707l0.25297,-0.13396c0.07044,0.071 0.1447,0.13882 0.21955,0.20614c0.03993,0.00569 0.07985,0.01141 0.11972,0.01724l0.22099,-0.33148l0.31635,0.2109c0.26557,-0.60079 0.8898,-1.01637 1.36048,-1.48705c0,0 0.61176,-0.61176 1.22351,0c0.61176,0.61176 0,1.22351 0,1.22351c-0.43981,0.43981 -0.8538,0.83482 -1.2851,1.21231c1.00662,1.04743 0.44421,2.33359 -1.68379,2.10881c-0.4948,-0.05227 -0.66504,-0.69737 -0.95416,-1.14z" fill="#ffa000" stroke="none" stroke-width="0.5" stroke-linecap="butt"/><path d="M253.56408,146.34363c0,-0.47781 0.38734,-0.86515 0.86515,-0.86515c0.47781,0 0.86515,0.38734 0.86515,0.86515c0,0.47781 -0.38734,0.86515 -0.86515,0.86515c-0.47781,0 -0.86515,-0.38734 -0.86515,-0.86515z" fill="#000000" stroke="none" stroke-width="0.5" stroke-linecap="butt"/><path d="M258.40893,148.07393c0,-0.47781 0.38734,-0.86515 0.86515,-0.86515c0.47781,0 0.86515,0.38734 0.86515,0.86515c0,0.47781 -0.38734,0.86515 -0.86515,0.86515c-0.47781,0 -0.86515,-0.38734 -0.86515,-0.86515z" fill="#000000" stroke="none" stroke-width="0.5" stroke-linecap="butt"/><path d="M257.11735,154.22266c-0.61176,0.61176 -1.22351,0 -1.22351,0l-0.55506,-0.68423c-0.15751,-0.51664 -0.4361,-1.02171 -0.82918,-1.39213c0,0 -0.03396,-0.03396 -0.07787,-0.09388c-0.26458,0.00876 -0.6516,-0.07542 -0.82325,-0.59036c-0.00595,-0.01785 -0.01138,-0.03544 -0.01632,-0.05277c-0.65157,0.07776 -1.29668,0.24402 -1.9151,0.45499l-0.43485,0.14495c0,0 -0.75257,0.25086 -1.05665,-0.44848c-0.10653,0.02965 -0.21547,0.06358 -0.32759,0.10242l-0.61965,0.0444c0,0 -0.86515,0 -0.86515,-0.86515c0,-0.86515 0.86515,-0.86515 0.86515,-0.86515l0.07248,0.0444c1.0691,-0.34563 1.91816,-0.38531 2.97157,-0.38987c-0.33596,-0.29091 -0.69038,-0.56607 -1.10152,-0.83801l-0.47792,-0.45416c0,0 -0.61176,-0.61176 0,-1.22351c0.61176,-0.61176 1.22351,0 1.22351,0l0.2142,0.23797c0.9903,0.66473 1.7172,1.34738 2.55428,2.18446c0,0 0.07061,0.07061 0.13987,0.18785c0.10812,0.04974 0.21851,0.12547 0.30399,0.24077c0.28851,-0.01787 0.57852,-0.04435 0.85168,0.02575c0.77962,-0.19519 1.55566,-0.40877 2.31791,-0.66337l1.03818,-0.34606c0,0 0.82076,-0.27359 1.09434,0.54717c0.27359,0.82076 -0.54717,1.09434 -0.54717,1.09434l-1.03818,0.34606c-0.33999,0.11312 -0.68247,0.21882 -1.02669,0.31876c0.09932,0.11225 0.52576,0.65739 -0.01939,1.20254c-0.35692,0.35692 -0.71384,0.29736 -0.94927,0.1858c0.04293,0.10358 0.08297,0.20805 0.12009,0.3131l0.13706,0.00789c0,0 0.61176,0.61176 0,1.22351z" fill="#000000" stroke="none" stroke-width="0.5" stroke-linecap="butt"/></g></g></svg>