<svg version="1.1" xmlns="http://www.w3.org/2000/svg" xmlns:xlink="http://www.w3.org/1999/xlink" width="321.19569" height="234.38137" viewBox="0,0,321.19569,234.38137"><g transform="translate(-82.30927,-55.88083)"><g data-paper-data="{&quot;isPaintingLayer&quot;:true}" fill-rule="nonzero" stroke="none" stroke-width="0.5" stroke-linecap="butt" stroke-linejoin="miter" stroke-miterlimit="10" stroke-dasharray="" stroke-dashoffset="0" style="mix-blend-mode: normal"><path d="M190.9317,60.8709c4.46504,-0.5256 9.2937,-0.06789 13.91926,0.08421c3.63638,4.14276 9.64823,2.80679 9.64823,2.80679c2.27714,-0.50698 4.56819,-1.00232 6.86959,-1.48147c1.45747,0.27189 2.90635,0.51668 4.33973,0.70027c8.65118,0.02525 17.63028,0.65684 26.24275,0c17.91293,-1.36615 35.90078,-4.6085 53.68154,-7.06592c0.0823,-0.01137 0.16461,-0.02268 0.24692,-0.03395c1.52582,0.06432 3.0223,0.1192 4.45016,0.1192c7.66666,0 15.33334,0 23,0c4.70036,-0.01426 9.45652,-0.04596 14.07766,0.81349c0.84704,0.15754 1.66497,0.63797 2.49791,0.83125c3.17985,6.71787 8.45546,13.7898 14.27031,18.23731c4.41903,3.37992 10.14143,5.13805 14.08305,9.18902c1.36033,1.39807 2.29727,3.16426 3.61979,4.59814c2.51633,2.7282 8.42376,7.78957 11.02792,11.72032c2.31176,3.48938 3.62106,7.93064 5.30096,11.70703c1.17132,2.63308 2.6731,4.6228 3.25153,7.50526c0.48527,2.41823 -0.12913,4.93174 -0.12913,7.39818c0,6.16581 -0.42042,12.47364 0.01932,18.62137c0.34117,4.76969 1.67464,9.43367 2.01475,14.20343c0.33607,4.71311 -0.03408,9.45012 -0.03408,14.1752c0,7.53947 0.61732,15.98556 -0.87087,23.39818c-0.77393,3.85491 -2.19867,4.38316 -4.0876,8.15819c-0.47511,0.9495 -2.3614,6.77853 -3.65955,7.94685c-0.96315,0.86681 -2.58045,0.73964 -3.5361,1.61472c-2.83358,2.59465 -5.17512,5.68289 -7.6463,8.62478c-4.15313,4.94421 -6.85684,10.96932 -10.933,15.91738c-1.54878,1.88007 -3.43242,3.45718 -5.14863,5.18577c-6.16764,10.13252 -14.72313,17.108 -24.11795,24.15412c-2.65526,1.99145 -4.84744,4.65915 -7.77885,6.21578c-1.73592,0.9218 -3.81597,1.00867 -5.61466,1.80106c-0.9133,0.40234 -1.47803,1.45555 -2.43332,1.74436c-0.96348,0.29129 -12.08033,2.05739 -13.97598,2.40265c-11.32478,2.06261 -23.04779,3.40549 -34.55365,3.8425c-4.11452,0.15628 -8.24335,-0.24399 -12.35243,0.01881c-3.02427,0.19342 -6.06775,0.54783 -8.99113,1.34624c-2.2243,0.60748 -4.11248,2.13667 -6.31064,2.83283c-0.63549,0.20125 -1.32303,-0.18476 -1.98934,-0.20423c-3.9983,-0.11683 -8,0 -12,0c-12.10859,0.016 -25.34011,0.24475 -36.97751,-3.53229c-6.49898,-2.10931 -11.97834,-6.63098 -18.39726,-8.78746c-1.59254,-0.53502 -3.52157,-0.04282 -4.95574,-0.91778c-1.25146,-0.76349 -1.27206,-2.80946 -2.4903,-3.62489c-4.43279,-2.9671 -9.87533,-4.03706 -14.78568,-6.12074c-4.69518,-1.99237 -8.86055,-6.23928 -13.33074,-8.64055c-5.27194,-2.83195 -11.14568,-4.42846 -16.42951,-7.23817c-1.18949,-0.63252 -11.27544,-7.03937 -12.75746,-8.3992c-1.37101,-1.25796 -2.1863,-3.01929 -3.42453,-4.40814c-1.02249,-1.14686 -2.48466,-1.90074 -3.33886,-3.17789c-1.30644,-1.95332 -2.02709,-4.24025 -3.04064,-6.36038c-2.26619,-5.27865 -5.14429,-11.51504 -6.31951,-17.0046c-1.6524,-7.71851 -1.03967,-15.75473 -1.78634,-23.61273c-0.3836,-4.03699 -1.64189,-7.96067 -2,-12c-0.53501,-6.03474 0.03814,-12.11679 0.03407,-18.1752c-0.00633,-9.44236 -0.81959,-20.32025 4.52621,-28.77471c1.27147,-2.01084 3.22303,-3.5137 4.62662,-5.43466c2.17987,-2.98336 3.82932,-6.37264 6.29845,-9.12141c2.86988,-3.19491 6.24593,-5.91107 9.10326,-9.1172c7.44418,-8.35289 15.03385,-16.69164 22.28257,-25.25449c4.30471,-3.13277 8.20305,-7.75585 12.98973,-10.05873c2.16196,-1.04013 4.8561,0.13808 7.18382,-0.44302c4.59453,-1.14698 12.00285,-4.52535 16.70325,-6.51101c1.07432,-0.45384 2.03474,-1.23069 3.17717,-1.4652c1.21177,-0.24874 2.48589,0.22447 3.71074,0.05131c1.04372,-0.14755 1.95313,-0.87677 3,-1z" data-paper-data="{&quot;index&quot;:null}" fill="#00ff72"/><path d="M82.31011,266.20005c-0.00027,-0.02795 -0.00056,-0.05591 -0.00084,-0.08387c0.00531,0.00446 0.01075,0.00897 0.01631,0.01349c-0.00525,0.02345 -0.0104,0.04691 -0.01547,0.07039z" data-paper-data="{&quot;index&quot;:null}" fill="#00ff72"/><path d="M280.34449,213.95134c-9.46709,0.15283 -18.66449,-1.0148 -28,-2c-9.87938,-1.04259 -20.09293,0.94573 -30,0c-1.69198,-0.16152 -3.30563,-0.86584 -5,-1c-4.65699,-0.36874 -9.34305,0.04867 -14.01462,0.04867c-2.12805,0 -10.44747,-0.87532 -13.39818,-0.12913c-2.04385,0.51685 -3.91718,1.67397 -6,2c-2.05457,0.3216 -12.9321,-0.01291 -15.04882,0.11382c-3.01307,0.1804 -6,0.66667 -9,1c-8.23235,0.01319 -22.78864,2.30463 -29.28643,-4.64481c-5.07607,-5.4289 -1.70065,-10.03981 -1.21791,-15.32527c0.18908,-2.07022 -0.27069,-4.17894 0.02626,-6.23646c0.62401,-4.32366 2.40942,-8.43168 2.97374,-12.76354c0.55623,-4.26975 -0.17374,-10.0996 -0.04867,-14.01462c0.15802,-4.94626 -0.94593,-10.18181 0.7612,-14.82683c3.21412,-8.74546 7.8702,-7.26984 14.41399,-8.13909c4.25502,-0.56522 8.56182,-0.62938 12.83943,-0.98541c1.69382,-0.14098 3.30876,-0.83088 5,-1c6.65237,-0.66524 13.25565,-1.04867 19.98538,-1.04867c1.79991,0 3.63255,0.47874 5.39818,0.12913c1.03402,-0.20474 1.95086,-0.89789 3,-1c8.98908,-0.87485 18.56682,-0.12913 27.60182,-0.12913c13.34987,0 27.1354,0.95878 40.41479,0.01714c7.5691,-0.53673 14.20398,-2.27563 21.34143,-2.84699c0.59425,-1.757 1.08719,-3.54111 1.31871,-5.39198c0.27984,-2.23709 -0.22067,-4.51741 -0.02626,-6.76354c0.33549,-3.87618 1.17916,-7.89994 2.11199,-11.80963c0.06832,-0.37695 0.15776,-0.74654 0.26707,-1.1075c0.28965,-1.1898 0.58394,-2.36659 0.87084,-3.52285c0,0 2.42535,-9.70143 12.12678,-7.27607c9.70143,2.42535 7.27607,12.12678 7.27607,12.12678c-0.09743,0.38619 -0.19643,0.77552 -0.29621,1.16751l0.08162,0.24485c1.6008,5.70486 6.08077,10.94051 8.75196,16.33544c0.97156,2.91471 2.71728,5.55666 3.49369,8.52931c0.2867,1.09769 -0.44193,2.30037 -0.16157,3.39969c0.16996,0.66645 1.092,0.89565 1.41223,1.50433c1.512,2.87396 2.05098,6.95155 4.12927,9.54641c2.65325,3.31272 5.75116,6.28435 9.0417,8.96505c1.39039,1.13271 3.18572,1.67499 4.63651,2.72923c2.10608,1.53042 3.90436,3.45531 6,5c3.27909,2.417 6.97457,3.53437 10.46668,5.64632c1.1186,0.6765 1.86891,1.89703 3.04041,2.47713c1.15027,0.56958 2.60334,0.3031 3.74782,0.88423c1.94827,0.98927 3.31089,3.03852 5.37715,3.74912c5.51526,1.89673 12.76684,-0.02608 18.3247,2.39602h3.25262c5.52285,0 10,4.47715 10,10c0,3.52613 -1.82504,6.626 -4.58205,8.40654l-2.30715,1.5381c-0.93229,0.8791 -1.76715,1.888 -2.85349,2.56187c-0.89575,0.55564 -2.09592,0.45801 -3,1c-0.91533,0.54874 -1.37197,1.72591 -2.33032,2.19549c-2.93088,1.4361 -6.37455,1.64485 -9.2715,3.14822c-4.90585,2.54588 -10.1909,5.17098 -14.80838,8.2622c-0.97691,0.65401 -1.5681,1.81252 -2.58979,2.39409c-3.21999,1.8329 -5.86933,1.75639 -8.71031,3.81399c-3.84091,2.46227 -7.36734,4.02243 -11.75113,5.2807c-1.35623,0.38928 -3.72841,2.07904 -4.39785,1.21655c-1.00883,1.46467 -1.94515,3.02772 -3.32809,4.12932c-1.32982,1.05929 -3.16627,1.25509 -4.67642,2.03609c-2.13508,1.10419 -3.84078,2.9438 -6,4c-4.63275,2.26615 -9.24516,2.42356 -14.17168,2.94192c-6.61027,0.69552 -10.85234,6.58655 -18.2929,-0.85401c-2.82937,-2.82936 -2.31265,-7.70133 -2.79981,-11.67289c-0.12834,-1.04625 0.89128,-1.95153 1,-3c0.38544,-3.71697 0.14147,-8.00625 -0.01993,-12.03311c-0.40334,-0.28657 -0.79507,-0.61983 -1.16867,-1.00631c-0.64197,-0.13581 -1.28393,-0.27161 -1.9259,-0.40742z" data-paper-data="{&quot;index&quot;:null}" fill="#ffffff"/></g></g></svg>