<svg version="1.1" xmlns="http://www.w3.org/2000/svg" xmlns:xlink="http://www.w3.org/1999/xlink" width="447.3556" height="220.14903" viewBox="0,0,447.3556,220.14903"><g transform="translate(-17.51077,-49.3768)"><g data-paper-data="{&quot;isPaintingLayer&quot;:true}" fill="#ff0000" fill-rule="nonzero" stroke="none" stroke-width="0.5" stroke-linecap="butt" stroke-linejoin="miter" stroke-miterlimit="10" stroke-dasharray="" stroke-dashoffset="0" style="mix-blend-mode: normal"><path d="M32.65908,68.74921c4.61363,-3.11418 11.05773,-6.55537 14.0041,-7.27218c3.8202,-0.92939 9.40735,-0.33439 13.38242,-0.33439c9.6653,0 20.35472,-1.14042 29.89894,0.33439c1.10603,0.17091 1.89286,1.35975 3.003,1.5015c3.02418,0.38616 6.09136,-0.33439 9.1401,-0.33439c6.50651,0 13.01301,0 19.51952,0c7.25086,0 14.83954,-0.59207 22.05203,0.04259c3.03271,0.26686 5.97402,1.26201 9.00901,1.5015c6.14376,0.4848 12.32566,-0.04259 18.48851,-0.04259c4.49602,0 9.02873,0.66944 13.48772,0.09366c4.46916,-0.57709 8.72534,-2.35526 13.19097,-2.95903c5.77229,-0.78043 21.86691,-2.00132 28.28443,-2.96401c2.43645,-0.36549 4.75557,-1.47564 7.21622,-1.59844c12.25984,-0.61185 26.38707,1.03719 39.03664,-0.04825c3.52612,-0.30257 6.98138,-1.23638 10.51051,-1.5015c13.64676,-1.0252 27.73348,-0.03145 41.42665,-0.03145c11.01101,0 22.02202,0 33.03303,0c6.93178,0 14.62041,0.58478 21.49152,0.04259c3.03499,-0.23949 5.97454,-1.25553 9.00901,-1.5015c12.43976,-1.00835 25.0993,0.90835 37.53754,0c13.55134,-0.98964 24.53325,-10.36461 36.69706,2.14553c2.58274,2.65628 2.35947,9.23605 2.35947,13.31488c0,14.01401 0,28.02803 0,42.04204c0,14.09089 0.97526,28.60536 -0.01552,42.66471c-0.64081,9.09325 -2.25239,18.09695 -3.01164,27.18107c-0.18759,2.24449 0.29437,4.53385 -0.0695,6.75658c-0.66677,4.07302 -2.28594,7.94755 -3.003,12.01201c-0.81165,4.60058 0.58667,9.693 0.06221,14.37384c-0.46862,4.18247 -1.00204,8.36487 -1.80444,12.49631c-0.24595,1.26635 -1.11644,2.36241 -1.32852,3.63487c-0.29465,1.76792 0.17833,3.6166 -0.17298,5.37414c-0.21936,1.09744 -1.21221,1.92188 -1.5015,3.003c-0.42678,1.59496 0.09914,3.42701 -0.61712,4.91463c-1.02271,2.12409 -2.93856,3.68722 -4.41097,5.52834c-1.68805,2.11075 -2.82255,4.8266 -5.07039,6.32726c-1.90615,1.27255 -4.51522,0.84867 -6.70273,1.53248c-1.06818,0.33391 -2.002,1.001 -3.003,1.5015c-1.001,0 -2.03189,-0.24278 -3.003,0c-1.08574,0.27143 -1.90558,1.28202 -3.003,1.5015c-1.47234,0.29447 -3.03216,-0.29447 -4.5045,0c-1.09742,0.21948 -1.91402,1.24339 -3.003,1.5015c-1.4123,0.33474 -2.91563,0.00404 -4.34762,0.24073c-8.94186,1.47798 -16.81721,5.29313 -26.02181,6.05707c-7.03113,0.58355 -14.12934,-0.5026 -21.16591,0.01114c-3.52968,0.2577 -6.98138,1.23638 -10.51051,1.5015c-6.67996,0.50182 -13.67163,0.03145 -20.40563,0.03145c-2.61234,0 -11.11569,0.03026 -12.51279,-0.16141c-1.85891,-0.25502 -3.53423,-1.30661 -5.37414,-1.67448c-3.47039,-0.69387 -7.0777,-0.64076 -10.51051,-1.5015c-4.88077,-1.22381 -9.55727,-3.15234 -14.3359,-4.7285c-2.84999,-0.85515 -5.64149,-1.93738 -8.54997,-2.56544c-0.90363,-0.19513 -1.84632,0.11241 -2.77074,0.12082c-7.00672,0.06374 -14.01401,0 -21.02102,0c-13.12632,0 -26.71398,0.85496 -39.81576,-0.02415c-7.14686,-0.47955 -14.13784,-2.41805 -21.27531,-3.02144c-13.80133,-1.16673 -28.76329,0.04259 -42.51254,0.04259c-25.52553,0 -51.05105,0 -76.57658,0c-13.90214,0 -28.19531,0.93684 -42.04204,0c-4.72333,-0.31957 -10.01344,0.55841 -14.07915,-1.86686c-8.72404,-5.20407 -7.42986,-14.62623 -7.42986,-22.64515c0,-7.50751 0,-15.01502 0,-22.52252c0,-2.54089 0.63311,-6.0419 0.16141,-8.50823c-0.29732,-1.55454 -1.22888,-2.94544 -1.5015,-4.5045c-0.2098,-1.1998 -0.16141,-8.10882 -0.16141,-9.50979c0,-7.25948 -0.17287,-13.9747 1.59516,-21.04681c0.13081,-6.7153 3.48937,-12.59915 4.47168,-19.22395c0.77976,-5.25878 -0.06083,-11.42518 -0.06083,-16.7863c0,-5.9452 0.74952,-12.4167 0.06083,-18.2878c-0.29732,-2.53468 -1.25721,-4.96716 -1.5015,-7.50751c-0.69474,-7.22465 -0.06083,-14.96839 -0.06083,-22.25274c0,0 0,-11.22631 10.639,-12.40094z"/></g></g></svg>