<svg version="1.1" xmlns="http://www.w3.org/2000/svg" xmlns:xlink="http://www.w3.org/1999/xlink" width="422.21694" height="196.33158" viewBox="0,0,422.21694,196.33158"><g transform="translate(-43.98438,-56.49998)"><g data-paper-data="{&quot;isPaintingLayer&quot;:true}" fill="#29ff00" fill-rule="nonzero" stroke="none" stroke-width="0.5" stroke-linecap="butt" stroke-linejoin="miter" stroke-miterlimit="10" stroke-dasharray="" stroke-dashoffset="0" style="mix-blend-mode: normal"><path d="M155.63387,153.52152c-1.98273,0.12697 -3.90876,0.12883 -5.82368,0.1397c1.70621,0.08485 3.42544,0.15775 5.15281,0.21655c0.21919,-0.12028 0.44291,-0.23892 0.67087,-0.35625zM234.55947,204.7384c-0.0294,-0.08395 -0.05832,-0.1682 -0.08677,-0.25277c-0.08786,-0.11732 -0.17371,-0.23624 -0.25749,-0.3567c-0.30604,0.14972 -0.61091,0.29589 -0.91085,0.43687c0.41833,0.05801 0.83669,0.11577 1.25511,0.1726zM61.56951,57.35529c3.30497,-0.51498 6.22645,0.68678 8.18709,1.8732c2.51221,-0.34955 5.16497,0.27151 7.72779,0.27151c5,0 10,0 15,0c14.82591,0 29.41751,0.93622 44.23172,1.06083c5.33023,1.06605 9.96557,0.25256 15.29557,1.03282c5.98404,0.87601 11.69361,3.29924 17.70443,3.96718c5.03113,0.55907 10.66774,-0.06083 15.76828,-0.06083c10.54108,0 21.46169,0.88308 31.96899,0.04259c2.02113,-0.16167 3.97998,-0.82495 6,-1c5.58885,-0.48432 11.4094,-0.04259 17.03101,-0.04259c13,0 26,0 39,0c9.91249,0.01712 19.54999,-1.41408 29.43357,-1.98716c7.14078,-0.41405 14.41205,-0.03351 21.56643,-0.01284c3.97691,0.01149 7.91635,0.79284 11.88611,1.03145c11.60341,0.69744 23.48268,-0.08492 35.11389,-0.03145c3.76053,0.01729 7.48841,0.70093 11.23172,1.06083c5.87688,0.56503 13.04349,-0.06083 18.76828,-0.06083c11,0 22,0 33,0c1.97987,0 10.29476,-0.13455 11.6223,0.53635c3.91508,1.97854 7.88262,4.47207 10.39863,8.06543c1.72458,2.46303 1.21689,5.90291 1.47907,8.89822c0.79337,9.06414 -0.4107,18.39244 -0.0108,27.48052c0.17645,4.00998 0.82002,7.99017 1,12c0.23915,5.32797 -0.30132,10.67519 0,16c0.71993,12.72208 1.68326,25.52452 0.98664,38.2962c-0.14636,2.68343 -0.80221,5.31987 -1,8c-0.52073,7.05615 0.58714,14.18741 -0.13725,21.22556c-0.25084,2.43716 -1.61381,4.63378 -2.20719,7.01087c-1.90848,7.64537 -2.09895,15.4925 -4.79281,22.98913c-0.05766,1.28988 0.40158,2.71335 -0.17298,3.86963c-2.07659,4.17911 -3.93915,8.85959 -7.59397,11.76122c-3.07484,2.44117 -15.03425,1.86686 -18.57164,1.86686c-8.66667,0 -17.33333,0 -26,0c-5.48791,0 -12.41646,0.50972 -17.6223,-0.53635c-0.91688,-0.18424 -1.60362,-0.91126 -2.34543,-1.52164c0.01981,0.03259 0.01337,0.05415 -0.03227,0.05799c-2.32513,0.19554 -4.66667,0 -7,0c-4.38587,0 -9.39787,-0.57596 -13.76828,-0.06083c-3.76762,0.44408 -7.4552,1.41553 -11.20071,2.01824c-25.67258,0.27126 -51.35759,0.04259 -77.03101,0.04259c-12.85907,0 -26.07964,0.76657 -38.88611,-0.03145c-14.26522,-0.88892 -28.49081,-4.27768 -42.80514,-4.98768c-0.9189,-0.04558 -19.10536,0.09935 -20.23845,-0.01549c-6.9132,-0.7007 -13.72644,-2.18714 -20.61979,-3.06179c-7.15278,-0.90756 -14.46365,-0.7533 -21.50949,-2.28367c-4.03487,-0.87638 -7.59498,-3.24178 -11.39246,-4.86267c-9.51817,0.30608 -19.02538,0.24274 -28.54855,0.24274c-3.33301,0 -6.69332,-0.59716 -9.99772,-0.16141c-4.10148,0.54087 -8.10168,1.80816 -12.22556,2.13725c-1.74442,0.13921 -3.50654,-0.22665 -5.24943,-0.0695c-2.02648,0.18272 -4.08406,1.74952 -6.007,1.08445c-4.98223,-1.72318 -10.74648,-3.53429 -13.70063,-7.90062c-3.44191,-5.08725 1.12405,-13.26921 1.74117,-18.82189c0.41722,-3.75402 -0.06083,-8.00446 -0.06083,-11.76828c0,-9.66667 0,-19.33333 0,-29c0,-17 0,-34 0,-51c0,-8.39513 1.07611,-17.48647 0.06083,-25.76828c-0.38219,-3.11762 -1.38946,-6.13016 -1.89943,-9.22944c-1.03991,-6.31992 -1.16141,-11.73681 -1.16141,-18.00228c0,0 0,-12.5 12.5,-12.5c1.99713,0 3.67518,0.31908 5.08512,0.85529z"/></g></g></svg>