<svg version="1.1" xmlns="http://www.w3.org/2000/svg" xmlns:xlink="http://www.w3.org/1999/xlink" width="458.40083" height="233.35457" viewBox="0,0,458.40083,233.35457"><g transform="translate(-0.84917,-22.22331)"><g data-paper-data="{&quot;isPaintingLayer&quot;:true}" fill="#ff0000" fill-rule="nonzero" stroke="none" stroke-width="0.5" stroke-linecap="butt" stroke-linejoin="miter" stroke-miterlimit="10" stroke-dasharray="" stroke-dashoffset="0" style="mix-blend-mode: normal"><path d="M45.82204,69.86771c0,7.19472 -7.19472,7.19472 -7.19472,7.19472h-1.72673c-1.74624,0 -9.14723,0.0326 -10.08028,-0.14693c-1.72073,-0.3311 -3.22105,-1.39 -4.87933,-1.95629c-1.92323,-0.65677 -4.04681,-0.77609 -5.85255,-1.70854c-1.35919,-0.70186 -2.21359,-2.11766 -3.40797,-3.07344c-2.15082,-1.72116 -4.37892,-3.35729 -6.39486,-5.23463c-1.16883,-1.08847 -2.74259,-1.82356 -3.58212,-3.18228c-2.01174,-3.25584 -1.97239,-7.29077 -1.75198,-10.90451c0.4849,-7.95021 3.19915,-18.05296 9.55398,-23.42015c4.58149,-3.86946 10.54329,-3.33194 16.03602,-3.23346c5.55694,1.7334 11.41368,3.02183 15.68223,7.44175c4.18378,4.33214 3.88299,12.42597 1.04979,17.38862c-1.48481,2.6008 -2.35544,3.37638 -4.16339,5.20178c-0.96584,0.97518 -2.97826,3.01418 -3.84492,3.47572c-3.87464,2.06346 -8.49136,2.15838 -12.82651,2.11227c0.19968,0.3633 0.38194,0.73983 0.73938,0.90664c1.02966,0.48052 2.27446,0.24752 3.35669,0.59377c1.11553,0.3569 2.03324,1.25309 3.17876,1.49718c1.03067,0.21961 2.10442,-0.12539 3.15801,-0.14693c1.34273,-0.02745 2.68603,0 4.02904,0h1.72673c0,0 7.19472,0 7.19472,7.19472zM16.64787,45.17448c0.05259,0.01556 0.08037,0.02482 0.08037,0.02482c1.57692,0.78129 6.73471,0.19429 8.08523,0.20637c0.96073,0.00859 1.90814,-0.22768 2.85964,-0.36076c0.07109,-0.00994 0.15245,-0.0119 0.23033,-0.00064c0.7508,-0.98566 1.99557,-1.59387 2.62422,-2.68993c0.08043,-0.14023 0.24448,-0.76974 0.36729,-1.26921c-0.56498,-0.28603 -1.07588,-0.72973 -1.66463,-0.9699c-1.62907,-0.66455 -3.34655,-1.09112 -4.99375,-1.70939c-0.95886,0.03097 -1.91727,0.08286 -2.87658,0.0929c-0.28083,0.00294 -1.56529,-0.14345 -1.80819,0.1271c-1.60915,1.79228 -2.095,4.38168 -2.90393,6.54864z"/><path d="M104.72597,72.65284c-4.30645,4.30645 -8.61289,1.3222 -9.8336,0.30446c-3.42033,-1.64827 -6.96065,-3.05653 -10.29222,-4.87667c-1.30799,-0.71459 -2.67176,-1.4895 -3.59363,-2.66068c-0.09753,-0.1239 -0.19254,-0.24855 -0.28507,-0.37392c-0.52071,0.49905 -1.05538,0.98256 -1.61342,1.44006c-1.49861,1.22861 -3.29253,2.04499 -4.92149,3.09466c-6.01413,3.87541 -12.06552,7.81921 -19.44307,8.05726h-0.57558c0,0 -7.19472,0 -7.19472,-7.19472c0,-7.19472 7.19472,-7.19472 7.19472,-7.19472h0.57558c0.89187,0.14428 1.78656,-0.34083 2.62334,-0.6815c3.40449,-1.38603 5.92622,-3.09477 9.01478,-5.07511c1.22326,-0.78433 2.44185,-1.76607 3.77674,-2.32854c-0.06867,-0.07554 -0.14059,-0.14805 -0.2166,-0.21679c-1.05824,-0.95709 -2.39592,-1.55712 -3.51847,-2.43789c-3.67649,-2.88462 -4.49167,-3.84653 -7.55798,-6.90806c-0.96865,-0.96714 -3.69723,-3.60415 -4.13385,-4.57044c-0.99127,-2.19378 -1.61825,-5.41817 -1.4269,-7.99951c0.11122,-1.50034 -0.18247,-3.16462 0.54766,-4.48003c5.22994,-9.42223 17.12311,-5.50655 25.64111,-5.59257c0,0 7.19472,0 7.19472,7.19472c0,7.19472 -7.19472,7.19472 -7.19472,7.19472c-3.06904,-0.01975 -6.02085,-0.50079 -9.07468,-0.56785c0.41832,0.46089 0.84463,0.91321 1.30043,1.33249c2.53365,2.33065 5.57371,4.06557 8.11659,6.38614c0.49096,0.44804 0.92203,0.95358 1.33209,1.47883c0.43124,-0.68034 0.8979,-1.33783 1.39526,-1.96721c5.31835,-6.73001 13.40846,-9.46756 20.91185,-12.88117c1.49079,-0.67823 2.86477,-1.65477 4.43916,-2.10618c1.87642,-0.538 3.86476,-0.55249 5.79714,-0.82873c0,0 7.13916,-0.8924 8.03156,6.24677c0.8924,7.13916 -6.24677,8.03156 -6.24677,8.03156c-1.13737,0.10747 -2.31312,0.01035 -3.4121,0.32242c-0.90155,0.25601 -1.61714,0.95389 -2.46777,1.34729c-6.79918,3.14448 -9.03675,3.25715 -14.04983,7.1155c-0.45633,0.35122 -2.70715,2.61849 -3.05099,3.41315c-0.15985,0.36944 -0.07118,0.79625 -0.08151,1.20377c3.9975,1.73197 6.31335,2.91469 9.84679,4.68032l2.44544,1.9233c0,0 5.08743,5.08743 0,10.17487z"/><path d="M175.86103,80.17811c-0.86161,1.85896 -1.84116,3.88555 -3.07635,6.25511c-2.30449,4.42088 -5.3447,11.65836 -11.0575,13.45985c-1.81354,0.57189 -3.76994,-0.50155 -5.65491,-0.75232c0,0 -2.15545,-0.71848 -3.64006,-2.5592c-2.51655,0.42511 -4.78486,-0.70905 -4.78486,-0.70905l-3.02101,-1.9233c-2.81007,-2.86015 -4.88058,-4.54137 -6.40319,-8.7583c-0.56289,-1.55895 -0.25276,-3.30628 -0.30871,-4.9628c-0.05593,-1.65602 -0.03212,-3.79955 0.11959,-5.84132c-0.92039,0.7243 -1.88723,1.3965 -2.72361,2.21501c-0.98292,0.96191 -1.54147,2.36936 -2.68618,3.13162c-3.40359,2.2664 -5.09472,1.84665 -8.7459,1.91554l-4.5365,-0.62979c0,0 -7.12241,-1.01749 -6.10492,-8.13989c0.28336,-1.98349 1.04018,-3.3357 1.98478,-4.2544c-0.26724,-0.97084 -0.48204,-1.96233 -0.7298,-2.93073c-1.23123,-4.81241 -1.56419,-11.04298 1.88359,-15.1679c3.35292,-4.01143 5.68684,-5.11812 9.76676,-6.4781c3.19095,-1.06365 6.75645,-2.17758 10.0867,0.12974c2.40294,1.66484 3.56983,4.69053 4.7863,7.34873c0.71638,1.56542 0.71805,3.37346 0.90373,5.08497c0.15264,1.40703 0.26446,2.99906 0.28068,4.63899c1.22635,-2.94985 2.35739,-5.65284 2.57999,-6.18969c0.91963,-2.21784 1.61479,-4.54121 2.7469,-6.65849c0.66922,-1.25157 1.79003,-2.20547 2.6115,-3.36282c0.85945,-1.21086 1.42811,-2.63668 2.4268,-3.73552c0.82008,-0.90231 1.9619,-1.44837 2.94284,-2.17255c0,0 5.98637,-3.99091 9.97728,1.99546c3.99091,5.98637 -1.99546,9.97728 -1.99546,9.97728c-0.85388,0.21698 -1.03976,1.42291 -1.53728,2.15001c-0.58623,0.85673 -1.50596,1.47627 -1.99312,2.39296c-0.81288,1.52957 -1.21064,3.24631 -1.85772,4.85306c-2.19487,5.45002 -5.50617,10.71762 -5.80852,16.67223c-0.05165,1.01723 0.08956,2.04009 0.01101,3.05559c-0.02187,0.2828 -0.40933,0.52777 -0.30871,0.79297c0.46486,1.22517 1.86681,1.83949 2.80605,2.75325l-0.7187,-0.77214c0,0 1.44275,0.72137 2.62041,2.16412c0.91679,-1.8697 2.37351,-3.51827 3.32346,-5.38754c1.55122,-3.05245 3.00722,-6.1463 4.45992,-9.23677c-0.84095,-1.87838 -1.94362,-5.9786 2.53294,-8.96297c0.82261,-0.5484 1.60754,-0.90841 2.34961,-1.12145c2.51796,-4.90296 5.29103,-9.6686 8.70892,-14.10709c4.10292,-5.32808 12.90153,-11.02212 19.31619,-4.59332c2.10465,2.1093 2.34381,5.49852 3.13611,8.37097c0.80131,2.90512 1.06662,11.07605 0.3287,13.38108c-0.73992,2.31126 -2.83228,3.94679 -4.10045,6.01588c-1.94803,3.17833 -2.31622,7.8439 -5.54081,9.71437c-6.70628,3.89007 -11.10824,3.22919 -15.35647,0.93864zM181.83988,67.4389c0.4741,0.21037 0.94423,0.30793 1.19526,-0.03601c0.78374,-1.07385 0.7205,-2.53014 0.95026,-3.87036c-0.13356,0.23069 -0.26577,0.46216 -0.39652,0.69447c-0.64386,1.14393 -1.22147,2.2077 -1.749,3.21191zM187.29939,58.27213c-0.52425,0.78085 -1.04111,1.56665 -1.5463,2.35957c0.57798,-0.49871 1.15989,-0.99323 1.45465,-1.67282c0.09559,-0.22038 0.11496,-0.45073 0.09165,-0.68675z"/><path d="M245.93903,118.55591c-3.21758,6.43515 -9.65273,3.21758 -9.65273,3.21758l-0.20875,-0.18522c-2.25902,-1.11925 -5.11092,0.30331 -7.55705,-0.3069c-5.51607,-1.37604 -11.3445,-2.56212 -16.0626,-5.73387c-10.33898,-6.95039 -11.3834,-12.12616 -12.36298,-22.72223c-0.2453,-2.65342 -0.36409,-5.36551 0.0748,-7.99385c0.09052,-0.54211 0.21096,-1.07696 0.35266,-1.60665c-0.11308,-1.8849 0.63576,-3.36322 1.5239,-4.43498c0.26159,-0.70146 0.51721,-1.40436 0.74533,-2.11395c2.16703,-5.64398 4.90315,-11.28517 9.39779,-15.56034c1.33821,-1.27287 3.24709,-1.79791 4.68798,-2.95326c1.46331,-1.17333 2.27275,-3.1884 3.96923,-3.98839c1.81996,-0.85821 3.98584,-0.59249 5.99456,-0.7101c5.25796,-0.30786 11.81221,1.9039 15.82442,5.36926c1.23418,1.06596 1.85717,2.68178 2.74538,4.04947c3.51427,5.41141 5.82815,6.6395 1.43182,13.78947c-1.06921,1.73891 -3.29515,2.46868 -5.16119,3.29628c-8.72089,3.86776 -18.63091,4.57936 -27.41929,8.12128c-0.06867,1.22966 0.11499,2.48226 0.18585,3.71569c0.32864,5.72059 -0.06613,8.08283 6.0555,11.81242c3.12519,1.90402 6.82602,2.75513 10.41396,3.47537c2.24222,0.4501 4.58249,-0.20573 6.86084,-0.00764c0.98762,0.08587 1.89962,0.56793 2.84943,0.85189l2.09356,0.96593c0,0 6.43515,3.21758 3.21758,9.65273zM223.74297,70.53198c0.60586,-0.16034 1.21196,-0.32336 1.81794,-0.49052c1.60462,-0.44265 3.17591,-1.00361 4.74786,-1.56033c-0.6109,-0.29005 -1.21991,-0.58351 -1.87344,-0.74338c-0.49661,-0.12149 -1.05882,0.29359 -1.53454,0.1382c-0.07814,0.39514 -0.16957,0.7805 -0.45623,1.03454c-0.78487,0.69557 -1.76164,1.13405 -2.70159,1.6215z"/><path d="M398.24222,218.25778c-0.08333,1.7855 -1.05942,12.24222 -12.49222,12.24222c-12.5,0 -12.5,-12.5 -12.5,-12.5l0.37322,-4.0317c1.22095,-4.22939 0.86859,-7.9415 2.38947,-12.26778c3.09519,-8.80453 7.97735,-17.17676 10.70157,-26.07555c1.34503,-4.39361 -0.20029,-8.83737 0.47241,-13.24646c-0.61115,-0.25422 -1.19438,-0.55796 -1.57719,-1.06965c-1.16967,-1.56345 -1.8047,-3.45502 -2.62751,-5.23371c-0.00784,0.00202 -0.01571,0.00405 -0.02362,0.00608c-1.64638,0.4223 -3.35853,0.55901 -5,1c-2.19537,0.5898 -4.2338,1.88732 -6.48601,2.12699l-1.64639,1.09759c-2.01194,1.38403 -4.44934,2.19417 -7.07595,2.19417c-6.90356,0 -12.5,-5.59644 -12.5,-12.5c0,-2.62662 0.81014,-5.06402 2.19417,-7.07595l0.96791,-1.45187c2.5886,-12.66818 10.5424,-22.81228 16.20839,-34.16283c0.46087,-0.92324 0.85021,-1.87956 1.22841,-2.84103c-3.54719,2.73495 -8.03152,4.07536 -12.09841,5.98792c-2.81695,1.32475 -5.62529,2.74936 -8.62546,3.57952c-8.33799,2.30716 -19.42284,1.45665 -27.37502,1.46425c-7.66662,0.00733 -15.33335,0 -23,0c0,0 -2.06124,0 -4.50967,-0.83702c0.04547,2.55132 0.32195,5.12085 1.47264,7.33175c1.46273,2.81043 5.53495,6.56969 7.91817,8.56976c1.85122,1.5536 4.78725,0.71864 7.13201,1.30411c3.54433,0.885 6.99959,2.12113 10.56854,2.90091c3.11842,0.68135 6.22964,1.87596 9.41831,1.73049h2c0,0 12.5,0 12.5,12.5c0,12.5 -12.5,12.5 -12.5,12.5h-2c-9.07853,-0.15527 -17.3533,-3.20105 -26.01315,-5.3686c-6.96138,-1.74242 -7.85916,-0.0754 -14.86799,-4.69589c-2.66829,-1.75904 -4.66669,-4.36839 -6.9577,-6.59668c-3.07672,-2.99248 -7.20959,-6.95102 -9.12413,-10.83356c-1.84988,-3.75139 -3.49183,-7.67843 -4.33645,-11.77497c-0.68874,-3.3405 -0.16605,-6.81973 -0.20058,-10.23031c-0.11342,-11.20239 0.37466,-21.9417 6.93212,-31.67606c3.96547,-5.88664 8.90927,-11.07129 13.79064,-16.22393c3.05376,-3.22348 10.7449,-9.0788 15.14603,-10.71042c3.75747,-1.393 7.80374,-1.82691 11.70561,-2.74037c13.07845,-1.2025 26.95908,-3.18951 39.04967,3.45373c6.00199,3.29783 11.36363,8.99054 15.08018,14.6774c2.04107,3.12314 4.72336,6.01314 5.75941,9.59735c1.05817,3.66075 1.10352,8.47449 0.14686,12.76056c1.60174,-2.69125 3.16641,-5.40091 4.47816,-8.24038c1.56655,-3.39102 2.42133,-7.07074 3.80537,-10.54026c0,0 4.64238,-11.60596 16.24834,-6.96358c11.60596,4.64238 6.96358,16.24834 6.96358,16.24834c-1.51479,3.7752 -2.491,7.76591 -4.19463,11.45974c-2.92976,6.35231 -7.04283,12.09994 -10.16728,18.35879c-1.17201,2.34774 -1.93961,4.88345 -3.11451,7.22974c-2.03141,4.05676 -4.54694,7.91036 -6.93487,11.80645c7.36594,0.29581 12.91809,3.85547 17.94587,10.19402c1.38959,1.75187 1.75373,4.14344 3,6c1.57451,2.34555 4.32422,3.91647 5.40797,6.52534c1.15196,2.77306 0.96165,11.27076 0.95151,14.78354c-0.01564,5.41546 0.14026,8.51832 -1.46425,14.37502c-1.54207,5.62877 -4.26814,10.8641 -6.43595,16.28274c-0.47872,1.19659 -5.08462,10.0888 -5.2612,12.34452c-0.18988,2.42552 -0.41198,4.86158 -0.84637,7.2555zM300.58025,90.49997c7.3899,-0.00051 14.77988,-0.00744 22.16975,0.00003c6.87731,0.00695 14.04176,1.45386 20.62498,-0.53575c3.41614,-1.03244 6.62691,-2.67554 10.01938,-3.77718c-0.07464,0.01598 -0.1415,0.02682 -0.19286,0.02938c-0.27756,0.01382 0.73978,-0.36345 0.58484,-0.59416c-0.61052,-0.90911 -1.54389,-1.55776 -2.24059,-2.40265c-2.10582,-2.55371 -3.94456,-5.60964 -6.91982,-7.3226c-6.2159,-3.5787 -16.53006,-1.1214 -22.95033,-0.54627c-2.09813,0.41988 -4.2606,0.5947 -6.29439,1.25963c-2.74303,0.89681 -4.86917,3.19457 -6.85397,5.28958c-2.3293,2.45865 -5.37385,5.35772 -7.947,8.59997z"/><path d="M416.56966,248.59017c-3.52625,-7.0525 -0.37948,-11.88066 2.4248,-14.48448c1.05267,-5.43346 0.73784,-11.72879 1.28699,-16.99181c0.6504,-6.23337 1.66302,-12.11465 3.62266,-18.10448c0.73793,-2.25553 2.14965,-4.2567 2.85019,-6.52412c0.9522,-3.08195 1.14546,-6.36867 2.13716,-9.43814c0,0 3.95285,-11.85854 15.81139,-7.90569c11.85854,3.95285 7.90569,15.81139 7.90569,15.81139c-0.97204,2.75423 -1.00668,5.76944 -1.86284,8.56186c-0.79267,2.58533 -2.27821,4.91608 -3.14981,7.47588c-1.07558,3.1589 -2.05485,8.46858 -2.37734,11.89552c-0.84789,9.01002 -0.88773,18.37868 -3.61001,27.06673l-8.26837,8.22749c0,0 -11.18034,5.59017 -16.77051,-5.59017z"/><path d="M434.25,127c0,-6.90356 5.59644,-12.5 12.5,-12.5c6.90356,0 12.5,5.59644 12.5,12.5c0,6.90356 -5.59644,12.5 -12.5,12.5c-6.90356,0 -12.5,-5.59644 -12.5,-12.5z"/><path d="M103.68375,123.59937c10.40063,6.93375 3.46688,17.33438 3.46688,17.33438l-2,3c-0.91128,1.33037 -1.71712,2.73948 -2.73385,3.99111c-0.25627,0.31547 -0.83569,0.2918 -1.03364,0.64678c-0.51339,0.92062 -0.45188,2.09962 -1,3c-1.13846,1.87013 -2.79865,3.43736 -3.67556,5.44348c-2.44702,3.95872 -4.43372,8.08064 -6.60116,12.2081c-2.1776,4.1468 -1.93218,9.31025 -4.19757,13.40975c-8.89791,16.10185 -12.37737,14.8527 -25.39998,27.28513c-8.23239,7.85931 -14.56934,22.25047 -30.06774,14.22243c-3.83796,-1.98803 -3.58232,-7.87322 -5.13029,-11.90881c-1.7491,-4.55995 -2.49899,-9.44304 -3.68291,-14.18127c-5.44009,-21.77209 -9.467,-43.65777 -11.33474,-66.01238c0,0 -1.03807,-12.45682 11.41875,-13.49489c12.45682,-1.03807 13.49489,11.41875 13.49489,11.41875c1.38974,16.7224 4.10015,32.92031 7.74476,49.32306c0.78411,3.52892 1.66186,7.03561 2.56367,10.53666c3.69551,-3.13477 7.69699,-5.93314 11.11283,-9.36803c2.69074,-2.70574 5.1647,-5.72102 6.96307,-9.08658c2.06609,-3.86658 1.89706,-8.64199 3.80243,-12.59025c2.22561,-4.61186 4.80406,-9.37018 7.39884,-13.7919c0.93902,-1.76459 1.71649,-3.62514 2.81705,-5.29376c0.3609,-0.54717 1.17507,-0.69778 1.50739,-1.26276c0.53443,-0.90857 0.44178,-2.10585 1,-3c1.20589,-1.93157 3.01835,-3.43572 4.23251,-5.36211l2,-3c0,0 6.93375,-10.40063 17.33438,-3.46688z"/><path d="M110.25,222c0,-12.5 12.5,-12.5 12.5,-12.5h1c11.85863,0 24.02831,0.71449 35.79905,-0.80471c1.98333,-0.25598 3.84718,-1.2542 5.75643,-1.8816c0.00702,-0.26179 0.00601,-0.52299 -0.01289,-0.78269c-0.30051,-4.12837 -1.6326,-6.6533 -5.51708,-9.40513c-5.06559,-3.58854 -11.88913,-4.78626 -16.11685,-9.33205c-0.20624,-0.22176 -0.4068,-0.44754 -0.60204,-0.6771l-0.11531,0.14413l-4.90983,-3.92786c-2.9115,-2.28859 -4.78148,-5.84242 -4.78148,-9.833c0,-6.90356 5.59644,-12.5 12.5,-12.5h6c7.84178,0 15.73803,-0.84544 23.55146,-0.40533c0.0077,-0.28767 0.01205,-0.57532 0.00938,-0.86295c-0.00145,-0.15593 -0.05534,-0.33416 -0.1142,-0.51301c-0.23322,-0.1554 -0.46409,-0.37329 -0.66629,-0.51447c-0.9151,-0.63891 -1.56257,-1.67699 -2.58168,-2.132c-4.20341,-1.87675 -8.78549,-2.75469 -13.15151,-4.2137c-2.51701,-0.84112 -4.93155,-2.21144 -7.57444,-2.4522c-3.63834,-0.33144 -7.83997,0.09366 -11.47271,0.09366c0,0 -12.5,0 -12.5,-12.5c0,-12.5 12.5,-12.5 12.5,-12.5c4.59653,0 10.00208,-0.44905 14.52729,0.09366c6.23221,0.74742 12.53155,3.52361 18.42556,5.5478c7.09674,2.43724 15.57759,5.09 20.88599,11.01971c1.886,2.10674 3.60829,4.451 4.70966,7.05529c2.08305,4.92558 2.04437,9.65607 1.95151,14.78354c-0.14848,8.19813 0.70059,14.80162 -7.92836,20.63314c-2.50311,1.69162 -5.67983,1.77442 -8.82935,1.78649c3.85292,5.39167 6.11303,11.65561 6.71512,18.54936c0.45589,5.21977 0.19947,12.4798 -2.57991,17.18974c-4.94035,8.37192 -14.82612,10.52708 -23.67655,12.14597c-12.92722,2.36461 -27.0262,1.19529 -40.20095,1.19529h-1c0,0 -12.5,0 -12.5,-12.5z"/></g></g></svg>