<svg version="1.1" xmlns="http://www.w3.org/2000/svg" xmlns:xlink="http://www.w3.org/1999/xlink" width="441.80083" height="153.7676" viewBox="0,0,441.80083,153.7676"><g transform="translate(-14.23437,-50.61606)"><g data-paper-data="{&quot;isPaintingLayer&quot;:true}" fill="#ff0000" fill-rule="nonzero" stroke="none" stroke-width="0.5" stroke-linecap="butt" stroke-linejoin="miter" stroke-miterlimit="10" stroke-dasharray="" stroke-dashoffset="0" style="mix-blend-mode: normal"><path d="M67.90305,124.70543c0.8753,-0.57418 2.03768,-0.95543 3.58132,-0.95543c6.25,0 6.25,6.25 6.25,6.25l-6.25,7.25c-2.35729,0 -10.36068,0.00603 -10.76365,-0.04683c-2.91056,-0.38179 -5.70266,-1.39576 -8.55399,-2.09364c-11.12142,-2.06534 -22.99549,-4.97183 -31.94704,-12.54061c-4.61084,-3.89859 -4.95616,-10.11039 -4.98532,-15.56892c-0.02242,-4.19603 -0.20562,-8.48805 -0.25127,-12.76198c-0.45717,-0.82976 -0.74873,-1.88811 -0.74873,-3.23802c0,-1.42856 0.32653,-2.5306 0.83031,-3.38074c0.04407,-1.05028 0.1062,-2.09578 0.19099,-3.13476c0.16491,-2.02087 0.82783,-3.97974 1,-6c0.46867,-5.49952 -1.11182,-11.19952 1.71824,-16.43361c1.23946,-2.29234 3.38586,-3.98637 5.34221,-5.70794c2.20816,-1.94316 4.36352,-4.16061 7.09947,-5.24063c2.1944,-0.86624 4.71018,-0.30023 7.06879,-0.35232c9.48894,-0.20957 15.60258,2.14009 22.41942,8.83058c2.96047,3.05302 4.69512,6.05388 7.23763,9.25116c1.83075,2.30222 4.09075,4.39214 5.24063,7.09947c0.79216,1.86508 0.33797,4.04251 0.35232,6.06879c0.01373,1.93906 0.30881,3.95987 -0.26817,5.81115c-2.17412,6.9758 -8.50757,9.81259 -14.98069,11.35815c-3.71863,0.88788 -9.15184,0.21286 -13.00114,0.0807c-1.60526,-0.05511 -3.26866,0.17973 -4.81115,-0.26817c-1.15418,-0.33515 -1.83158,-1.71852 -3,-2c-1.36023,-0.32768 -2.79046,0.22238 -4.18885,0.26817c-1.61951,0.05304 -3.23971,0.0631 -4.8602,0.05631c0.05602,1.91597 0.1102,3.8213 0.1102,5.69369c0,3.05485 -0.51799,6.51096 0.46571,9.47154c0.77798,2.34143 4.92858,3.37835 6.1309,3.96435c3.30348,1.61008 6.51486,3.49417 10.01973,4.59927c3.37447,1.06398 6.96753,1.23687 10.4513,1.85531c4.87643,1.24848 8.64396,1.68784 13.10104,1.81495zM27.8002,84.75c0.22806,0 0.45613,0 0.68419,0c2.69142,0 10.31485,-0.04575 11.81115,0.26817c1.17624,0.24678 1.88933,1.54081 3,2c1.29299,0.53457 2.78971,-0.26817 4.18885,-0.26817c1,0 2,0 3,0c2.36241,0 9.35247,0.90503 10.01817,-2.56115c0.13864,-0.72188 -0.28318,-1.45393 -0.26817,-2.18885c0.01336,-0.65422 0.64411,-1.3455 0.35232,-1.93121c-0.28754,-0.57718 -4.68364,-4.69268 -5.17259,-5.41435c-1.42133,-2.09786 -2.5133,-4.48836 -4.34915,-6.23502c-0.80897,-0.83104 -1.51144,-1.7811 -2.42691,-2.49313c-4.09373,-3.18402 -6.12669,-2.48826 -11.15367,-2.67628c-0.98341,-0.03678 -2.02155,-0.72779 -2.93121,-0.35232c-1.23352,0.50914 -1.91297,1.86187 -2.90053,2.75937c-0.86576,0.78681 -2.05987,1.28653 -2.65779,2.29206c-1.12293,1.88844 -0.20556,10.63252 -0.28176,11.56639c-0.14401,1.76472 -0.66778,3.48216 -0.91289,5.2345z"/><path d="M75.23439,138c0,-6.25 6.25,-6.25 6.25,-6.25l1.56404,0.16719c2.5176,-1.41717 5.17551,-2.59101 7.87561,-3.61869c0.70347,-0.26775 1.60869,-0.18568 2.14093,-0.71792c0.53224,-0.53224 0.44076,-1.44112 0.71792,-2.14093c0.4842,-1.2226 1.19378,-2.35986 1.56427,-3.62157c0.94937,-3.23306 -1.19101,-7.39546 -0.8446,-11.00693c-2.77467,-2.76541 -5.40317,-5.43863 -8.628,-7.70903c-5.14221,-3.62031 -8.8576,-4.79131 -11.31944,-11.1257c-1.25117,-3.2193 -0.11266,-7.38278 1.15502,-10.36819c4.34895,-10.24186 14.64099,-13.52646 23.86457,-18.13962c2.59522,-1.29799 5.03986,-3.2013 7.90854,-3.63791c0.6775,-0.10311 9.82408,-0.0807 11.00114,-0.0807c0,0 6.25,0 6.25,6.25c0,6.25 -6.25,6.25 -6.25,6.25c-2.99974,0 -6.00631,-0.28829 -8.99886,-0.0807c-1.2957,0.08988 -3.54767,2.09028 -4.09146,2.36209c-4.04603,2.02239 -7.91068,3.77102 -11.90212,5.9474c-4.15258,2.26424 -4.54723,2.05764 -6.23331,5.91299c-0.24544,0.56121 -1.21925,1.14692 -0.84498,1.63181c2.73858,3.54796 7.75351,5.33497 11.16574,8.25484c3.87282,3.314 6.23367,6.56953 8.88681,10.91044c0.25276,5.37458 2.37334,11.70185 1.1554,16.99307c-0.51052,2.21789 -1.47232,4.31651 -2.43573,6.37843c-0.94761,2.02811 -1.69918,4.27616 -3.28208,5.85907c-3.63309,3.63309 -11.36968,5.51937 -15.98346,7.66339l-4.43596,0.16719c0,0 -6.25,0 -6.25,-6.25z"/><path d="M154.68929,139.59017c-1.39655,-0.69827 -2.26976,-1.57099 -2.79396,-2.48741c-6.0539,-1.17101 -12.35856,-2.64301 -17.27295,-6.18875c-1.87574,-1.35335 -3.04182,-3.50186 -4.32456,-5.42658c-1.4464,-2.17029 -3.13232,-4.30789 -3.83667,-6.8191c-0.2859,-1.01933 -0.22678,-11.87478 -0.22678,-13.66833c0,-6.6981 -0.50044,-12.49722 2.69627,-18.86681c3.13931,-6.25522 11.82411,-12.50513 17.71762,-15.70266c1.70484,-0.92496 3.7982,-0.91513 5.55029,-1.7471c0.60613,-0.28782 0.80095,-1.09577 1.32339,-1.51682c1.09564,-0.88301 2.33037,-1.57795 3.49555,-2.36693c0,0 5.20031,-3.46688 8.66719,1.73344c3.46688,5.20031 -1.73344,8.66719 -1.73344,8.66719c-1.84762,1.20478 -3.22326,3.10026 -5.18106,4.11625c-2.02132,1.04896 -4.44099,1.18002 -6.44971,2.2529c-3.17119,1.69377 -10.43146,6.5695 -12.28238,10.29734c-2.72358,5.48543 -1.17565,13.29847 -1.30373,19.13319c-0.03173,1.44552 -0.58769,2.93157 -0.22678,4.33167c0.32008,1.24169 1.45173,2.1142 2.16333,3.1809c0.56805,0.8515 0.82129,2.00936 1.67544,2.57342c4.73148,3.12453 12.00064,3.71276 17.36373,4.78538l3.36444,10.92371c0,0 -2.79508,5.59017 -8.38525,2.79508z"/><path d="M288.73438,172c0,6.25 -6.25,6.25 -6.25,6.25l-3.97642,-0.32073c-5.37991,-1.80273 -10.66736,-1.23509 -16.05193,-3.01756c-10.05405,-3.32822 -18.91452,-13.41819 -21.10887,-23.72979c-0.11063,-0.51988 -0.17842,-1.1252 -0.21034,-1.79361c-0.54704,-0.13821 -1.09018,-0.291 -1.62886,-0.45904c0,0 -5.92927,-1.97642 -3.95285,-7.90569c1.50742,-4.52226 5.31426,-4.44568 7.0361,-4.15468c0.40416,-1.89723 0.80252,-3.4115 1.06438,-4.12448c1.13657,-3.09462 3.33405,-5.67623 5.14535,-8.44458c-2.24453,0.91271 -4.73501,1.32639 -7.10871,1.83234c-5.34634,1.13956 -8.32421,1.1223 -12.76857,1.11757c-0.3812,3.13848 -0.54061,6.32036 -1.39865,9.35442c-0.88346,3.12395 -2.10213,6.14408 -3.06982,9.24298c-0.74156,2.37478 -1.22834,4.82872 -2.05683,7.17459c-0.42104,1.19216 -1.48379,2.15219 -1.67832,3.40146c-0.11391,0.73151 0.55182,1.37397 0.82773,2.06095c0,0 1.51585,6.06339 -4.54754,7.57924c-6.06339,1.51585 -7.57924,-4.54754 -7.57924,-4.54754c-0.39076,-1.97968 -1.35649,-3.9296 -1.17227,-5.93905c0.21287,-2.32195 1.61567,-4.37631 2.32168,-6.59854c0.7879,-2.47998 1.59104,-4.95554 2.37989,-7.43544c-2.52795,2.69125 -6.44234,1.38645 -6.44234,1.38645l-4.3094,-1.6127c-1.5686,-1.45024 -5.72122,-5.03823 -6.48843,-6.9248c-1.65861,-4.07853 -0.15932,-8.77213 0.5111,-12.79471c-1.79082,0.83486 -3.83864,1.06908 -5.73685,1.65294l-4.97642,-1.32073c0,0 -5.06259,-1.68753 -4.27248,-6.62192c-2.98893,-1.386 -5.86201,-2.96624 -7.71801,-5.51364c-5.48004,-7.52144 -0.69313,-17.94949 6.6811,-22.11028c3.88574,-2.19247 5.31772,-1.88769 9.28582,-1.93343c2.18816,-0.02522 7.62315,-0.07296 8.94911,0.73953c2.10774,1.29152 3.40628,3.63724 4.66536,5.76452c0.2305,0.38945 0.43205,0.78901 0.60804,1.19696c1.5676,-5.76327 4.13277,-10.5335 8.35808,-14.87043c0,0 4.41942,-4.41942 8.83883,0c4.41942,4.41942 0,8.83883 0,8.83883c-2.69134,2.57197 -4.48819,5.89891 -5.25012,9.58172c-0.25761,1.24517 0.20659,2.60107 -0.18747,3.81001c-0.44974,1.37975 -1.68692,2.38671 -2.26611,3.71731c-1.54687,3.55371 -1.4794,7.98751 -2.85393,11.63995c-0.4368,1.16067 -1.4808,2.06378 -1.77898,3.26754c-0.28582,1.15387 0.25032,2.38778 0.08649,3.56518c-0.14527,1.04403 -0.84033,1.95807 -1,3c-0.15147,0.98844 0.18957,2.00482 0.0807,2.99886c-0.02802,0.25587 -0.54786,0.36114 -0.47575,0.60823c0.0603,0.20664 0.46976,-0.15241 0.64517,-0.02765c0.38095,0.27097 0.5776,0.73523 0.8664,1.10285l1.6906,0.3873c0,0 3.71536,1.23845 4.28366,4.69571c0.23714,-0.789 0.47055,-1.57911 0.6993,-2.37062c1.46373,-5.06481 0.61425,-7.06508 1.9887,-12.95682c2.14319,-9.18706 7.02241,-17.48257 11.64624,-25.57605c1.82425,-3.19314 2.90592,-7.39219 6.11987,-9.17952c5.79278,-3.22147 16.4491,0.52953 20.25274,5.52286c1.25174,1.64326 1.46825,3.86171 2.20238,5.79257c0.08139,6.0524 1.06247,13.77501 -1.42071,19.78538c1.79691,-0.5687 3.76918,-0.7291 5.63556,-1.00383c5.15583,-0.75891 15.71874,-0.01583 19.38474,3.17974c1.80764,1.57568 1.16553,4.66271 1.48113,7.03984c0.63906,4.81355 -1.33132,10.83893 -4.17974,14.65444c-3.42337,4.58568 -7.17127,5.87746 -12.32284,7.34631c-3.88791,1.10855 -8.01898,1.95463 -12.17475,2.29208c1.92548,5.54957 6.99702,10.95358 12.45568,12.79546c2.45333,0.82781 5.16883,0.36598 7.73529,0.70854c2.77877,0.3709 5.55662,1.39251 8.21278,2.2739l0.02358,-0.32073c0,0 6.25,0 6.25,6.25zM255.15054,137.69899c2.69125,-0.40278 5.31109,-1.04805 7.58643,-1.69974c1.4906,-0.42692 3.1283,-0.52433 4.4616,-1.31582c1.88702,-1.12018 2.83232,-4.47012 3.08265,-6.44708c0.00261,-0.0206 0.00459,-0.04142 0.00599,-0.06244c-1.09487,0.2265 -2.46951,0.07653 -2.80282,0.07608c-1.46141,-0.00194 -2.92275,-0.03865 -4.38414,-0.03042c-0.7615,0.00429 -1.65054,-0.35538 -2.28354,0.06796c-0.7029,0.47009 -0.78512,1.49792 -1.17769,2.24689c-1.44195,2.24039 -3.40131,4.2224 -4.32585,6.72116c-0.05441,0.14705 -0.10867,0.29487 -0.16264,0.4434zM232.51955,114.649c2.25944,-0.19309 4.5146,-0.44698 6.75699,-0.78118c1.5739,-0.23457 3.21818,-0.35251 4.66441,-1.01628c0.8065,-0.37016 1.31477,-3.07639 1.34026,-3.61519c0.16124,-3.40794 -0.03497,-6.82415 0.03388,-10.23522c0.455,-0.46635 0.21162,-0.09562 -0.74038,-0.46975c-0.83833,-0.32946 -1.7545,-0.53889 -2.55437,-0.94272c-0.01983,0.19091 -0.06345,0.37709 -0.13026,0.54838c-0.43672,1.1197 -1.40361,1.95656 -2,3c-2.08732,3.65198 -5.08806,7.59466 -6.68997,11.39142c-0.28918,0.6854 -0.5,1.39769 -0.68054,2.12054zM192.74461,106.99205c-0.00641,-2.66354 -0.29575,-5.32845 -0.42952,-7.99091c-0.01267,-0.2522 -0.17596,-0.48152 -0.30248,-0.71322c-1.37441,-0.01015 -4.39578,-0.64049 -5.24241,0.02865c-1.04037,0.82226 -2.58331,2.36982 -3.30399,3.49458c-0.17892,0.27923 3.87562,2.63171 3.92785,2.65746c1.76543,0.87027 3.58707,1.64644 5.35054,2.52344z"/><path d="M359.73439,176c0,6.25 -6.25,6.25 -6.25,6.25h-3c-8.94365,-0.04844 -20.97286,-0.83425 -27.12852,-8.67778c-1.91327,-2.43788 -1.78229,-5.97405 -2.10018,-9.05671c-0.39375,-3.81826 -0.0175,-7.677 -0.0213,-11.5155c-0.00474,-4.79053 -0.03241,-9.58249 -0.01478,-14.37378c-0.59074,-0.88033 -0.98522,-2.05604 -0.98522,-3.62622c0,-1.633 0.42667,-2.83933 1.05705,-3.73047c0.00724,-0.42357 0.01511,-0.84713 0.02365,-1.27067c3.57015,-10.60025 13.66842,-20.41707 23.93866,-24.83725c3.44323,-1.48192 8.32837,-1.41873 12.23064,-1.41161c4.80946,0.00877 13.87457,0.05192 17.07026,4.59556c1.43901,2.04599 1.24781,4.91936 1.13291,7.41808c-0.36618,7.96347 -8.78642,14.95561 -15.68508,17.58032c-4.14592,1.57739 -8.44416,2.73323 -12.72806,3.88432c-4.19512,1.12723 -8.84277,2.45745 -13.46851,3.27071c0.00311,4.17166 -0.0672,8.34881 -0.07152,12.501c-0.00363,3.49484 0.01032,6.9898 -0.0213,10.4845c-0.00888,0.98162 -0.73594,2.19531 -0.10018,2.94329c0.95241,1.12051 2.64278,1.33774 4.06307,1.71906c4.15561,1.11571 8.50573,1.63301 12.8084,1.60315h3c0,0 6.25,0 6.25,6.25zM337.64149,126.62982c6.12935,-1.37806 10.30258,-2.27624 17.60955,-4.84759c2.28599,-0.80445 5.508,-3.01696 7.25639,-5.13949c-0.54204,-0.18137 -1.08627,-0.36408 -1.6389,-0.42316c-2.60124,-0.27808 -9.00323,-0.34586 -11.1535,0.6188c-4.55915,2.04535 -8.67119,6.14181 -12.07353,9.79143z"/><path d="M403.06497,202.41942c-4.41942,-4.41942 0,-8.83883 0,-8.83883l2,-2c1.42027,-1.30383 2.57519,-2.96882 3.28219,-4.7625c-0.08611,-7.57 4.98002,-13.02094 7.22552,-19.84643c1.41887,-4.31286 2.18543,-9.66219 1.70854,-14.208c-0.41652,-3.97032 -2.74471,-6.2695 -5.64315,-8.83736c-0.76879,-0.68111 -1.46177,-1.74838 -2.48637,-1.82002c-10.76787,-0.75297 -16.969,5.78678 -22.92012,14.04916c-2.3372,3.2449 -3.56741,7.33573 -6.42909,10.12891l-2.89982,4.83304c-1.07956,1.87233 -3.10174,3.13263 -5.41827,3.13263c-3.45178,0 -6.25,-2.79822 -6.25,-6.25c0,-1.04973 0.25879,-2.03902 0.71606,-2.90754l1.90521,-3.81041c1.68309,-3.70041 3.22275,-7.46954 5.05132,-11.10024c1.73523,-3.44538 4.29783,-6.4905 5.6323,-10.11002c0.88322,-2.39559 0.28131,-5.12941 0.89958,-7.60664c1.04237,-4.17647 2.75003,-8.15853 4.05862,-12.25938c1.58167,-4.95661 2.4557,-10.12011 4.02479,-15.08072c1.27932,-4.0445 2.71245,-8.04834 4.38527,-11.94658c0.3352,-0.78113 1.38406,-1.16619 1.59504,-1.9896c0.26476,-1.03332 -0.17878,-2.1259 -0.26817,-3.18885c0,0 0,-6.25 6.25,-6.25c6.25,0 6.25,6.25 6.25,6.25c-0.08939,2.27038 0.27671,4.60531 -0.26817,6.81115c-0.37381,1.51326 -1.7916,2.5774 -2.40496,4.0104c-1.40131,3.27388 -2.56311,6.65106 -3.61473,10.05342c-1.51979,4.91708 -2.40117,10.0193 -3.97521,14.91928c-0.99788,3.10639 -2.26079,6.13286 -3.2248,9.2473c1.51336,-0.83491 3.10991,-1.55111 4.80193,-2.12435c1.2923,-0.43783 2.72914,-0.0633 4.09033,-0.15763c3.56258,-0.24688 7.16503,-1.50587 10.67832,-0.86582c2.81962,0.51367 5.23271,2.44461 7.51363,4.17998c11.75723,8.94514 12.45466,23.91042 8.06538,36.95464c-2.12829,6.32493 -6.70485,11.24778 -6.77448,18.15357c-0.97316,2.41955 -1.58132,5.02021 -2.91947,7.25865c-0.94083,1.57382 -2.53223,2.65257 -3.79834,3.97885l-2,2c0,0 -4.41942,4.41942 -8.83883,0z"/><path d="M437.23439,191c0,-4.99695 3.99512,-5.99878 5.59707,-6.19963c-0.18999,-0.2491 -0.54464,-0.51894 -0.51636,-0.80151c0.10495,-1.04885 0.90349,-1.95033 1,-3c0.21361,-2.32331 -0.06622,-4.6658 -0.0807,-6.99886c-0.06415,-10.33227 0,-20.66766 0,-31c0,-5.80099 0.23994,-9.37227 -0.87863,-14.77427c0,0 -1.22573,-6.12863 4.9029,-7.35436c6.12863,-1.22573 7.35436,4.9029 7.35436,4.9029c2.29701,11.81161 1.12137,24.22964 1.12137,36.22573c0,8.04972 0.50408,16.17929 -1.0807,24.00114c-0.31963,1.57755 0.29046,3.43946 -0.57913,4.79395c-1.40878,2.19435 -3.89345,3.46994 -5.84017,5.20492l-4.75,1.25c0,0 -6.25,0 -6.25,-6.25zM442.93871,184.99804l-2.20432,1.00196c0.71994,-0.26503 1.6843,-0.19307 2.15983,-0.79508c0.05273,-0.06676 0.06266,-0.13579 0.04449,-0.20688z"/><path d="M441.23439,87c0,-3.45178 2.79822,-6.25 6.25,-6.25c3.45178,0 6.25,2.79822 6.25,6.25c0,3.45178 -2.79822,6.25 -6.25,6.25c-3.45178,0 -6.25,-2.79822 -6.25,-6.25z"/><path d="M101.22106,164.35208c0.10675,-0.10464 0.20149,-0.21717 0.26332,-0.35208c0.06126,-0.13366 -0.51023,-0.02044 -0.42908,0.10216c0.05485,0.08287 0.11012,0.16618 0.16576,0.24992z"/><path d=""/></g></g></svg>