<svg version="1.1" xmlns="http://www.w3.org/2000/svg" xmlns:xlink="http://www.w3.org/1999/xlink" width="277.37121" height="249.04004" viewBox="0,0,277.37121,249.04004"><g transform="translate(-104.6143,-45.49931)"><g data-paper-data="{&quot;isPaintingLayer&quot;:true}" fill-rule="nonzero" stroke="none" stroke-width="0.5" stroke-linecap="butt" stroke-linejoin="miter" stroke-miterlimit="10" stroke-dasharray="" stroke-dashoffset="0" style="mix-blend-mode: normal"><path d="M113.95823,52.8816c3.92912,-2.78841 12.17847,-2.41565 16.52616,-2.3816c2.27764,0.01784 4.49932,-0.73967 6.76828,-0.93917c4.38239,-0.38532 8.33563,-0.44504 12.70443,-0.96718c5.19716,-0.62113 10.19287,-2.56059 15.40472,-3.04315c0.63552,-0.05884 14.75696,-0.05051 18.12257,-0.05051c13,0 26,0 39,0c3.15525,0 22.50385,-0.01014 23.09031,0.04764c5.98389,0.58961 11.82601,2.19524 17.77165,3.09181c5.36154,0.8085 10.78798,1.15461 16.14031,2.02195c4.77828,0.77431 9.42234,2.33081 14.22944,2.89943c7.53691,0.89151 15.17883,-0.06083 22.76828,-0.06083c8.33333,0 16.66667,0 25,0c12.26445,0 25.43453,-2.9669 33.18034,9.90983c2.17833,3.62129 0.99572,13.14164 1.30053,17.89892c0.19301,3.01228 0.82641,5.98653 1,9c0.63283,10.98549 0.02386,22.16231 -0.07453,33.16396c2.87195,11.1688 4.08218,14.17628 5.06221,26.64118c0.04062,0.51662 0.032,23.83451 0.03145,24.88611c-0.00623,11.91701 -0.46609,23.85671 -2.11417,35.68556c-0.58067,4.16766 -1.22872,8.34143 -2.27691,12.4167c-2.69621,10.48259 -5.33216,12.80291 -6.68921,23.31219c-0.36652,2.83841 0.06722,5.7236 0.08029,8.58554c0.02587,5.66661 0.08318,11.33394 0,17c-0.11875,8.08887 0.45109,13.77171 -7.49214,20.35084c-3.2117,2.66015 -14.69704,2.14916 -19.00786,2.14916c-14,0 -28,0 -42,0c-42.01827,0 -83.98975,-1 -126,-1c-13.94626,0 -29.01524,1.12582 -43,0c-6.13359,-0.49378 -12.92759,0.62489 -18.30888,-2.35947c-6.66144,-3.69431 -6.44928,-13.65366 -6.17828,-19.70696c0.28795,-6.43199 1.57496,-12.78666 2.01131,-19.21029c0.87975,-12.95086 -0.02415,-26.24304 -0.02415,-39.22328c0,-16.66667 0,-33.33333 0,-50c0,-9.35578 0.59568,-18.88911 0.02415,-28.22328c-0.28292,-4.62062 -1.55948,-9.13572 -1.98156,-13.74571c-0.42928,-4.68864 -0.10602,-9.45437 -0.892,-14.09655c-0.83127,-4.90971 -2.542,-9.66725 -3.08103,-14.61757c-0.94683,-8.69549 -0.06956,-18.48468 -0.06956,-27.31689c0,0 0,-10.02203 8.97384,-12.1184z" fill="#ffe300"/><path d="M321.4608,171.07073c5.92927,1.97642 3.95285,7.90569 3.95285,7.90569l-1,3c-1.47389,4.40962 -3.53663,8.60785 -5.00632,13.01887c-0.88814,2.66561 -1.11628,5.52709 -2.06116,8.17312c-0.75198,2.10583 -2.16406,3.92607 -3,6c-1.4335,3.55644 -0.1832,5.08041 -2.89486,8.6253c-1.10797,1.44842 -2.90161,2.20973 -4.35709,3.30841c-3.22152,2.43179 -6.65642,4.56897 -9.92075,6.94299c-5.10844,3.71518 -10.03186,7.69346 -15.28711,11.19789c-3.08333,2.0561 -6.57452,3.48161 -9.55564,5.68328c-1.47878,1.09213 -2.38525,3.02647 -4.10038,3.68819c-2.8912,1.11546 -6.17316,0.70783 -9.18496,1.43746c-1.72697,0.41837 -3.22014,1.56715 -4.94698,1.98608c-6.37625,1.54685 -12.63717,1.212 -19.11401,1.212c-7.83333,0 -15.66667,0 -23.5,0c-1.25936,0 -10.47852,0.0922 -11.81115,-0.26817c-1.47761,-0.39958 -2.56304,-1.68817 -3.9348,-2.36735c-2.7185,-1.34598 -5.86666,-1.62444 -8.64582,-2.84022c-3.62292,-1.58489 -7.14878,-3.39354 -10.61579,-5.29546c-5.5443,-3.04148 -13.736,-7.19389 -17.91873,-12.63246c-0.90344,-1.17469 -5.21657,-8.77616 -6.26027,-10.3589c-1.08566,-1.64637 -2.57248,-3.03865 -3.45681,-4.80136c-0.6994,-1.39409 -0.6117,-3.08081 -1.21842,-4.51766c-1.54757,-3.665 -4.21758,-6.88275 -5.22102,-10.73246c-1.51495,-5.81208 0.33273,-11.21603 0.84853,-16.87901c0.2766,-3.03677 0.45969,-6.10754 1.17089,-9.07279c0,0 1.51585,-6.06339 7.57924,-4.54754c6.06339,1.51585 4.54754,7.57924 4.54754,7.57924c-1.15298,4.35312 -1.43818,9.47247 -1.82911,13.92721c-0.17842,2.03314 -0.73921,4.16649 -0.15147,6.12099c1.00091,3.32849 3.38951,6.08163 4.77898,9.26754c0.47558,1.09046 0.25155,2.41728 0.78158,3.48234c0.60688,1.21949 1.78125,2.06953 2.54319,3.19864c2.09208,3.10025 3.5519,6.60766 5.73973,9.6411c2.63454,3.6528 11.84017,8.13143 14.08127,9.36754c3.06398,1.68998 6.1785,3.3019 9.38421,4.70454c3.01516,1.31926 6.41657,1.67583 9.35418,3.15978c0.78327,0.39567 1.2296,1.36463 2.0652,1.63265c0.69995,0.22451 1.45417,-0.24412 2.18885,-0.26817c1.99893,-0.06546 4,0 6,0c7.83333,0 15.66667,0 23.5,0c5.27679,0 10.70348,0.55388 15.88599,-0.788c1.7553,-0.45449 3.28111,-1.62925 5.05302,-2.01392c2.22752,-0.48358 4.65034,0.15144 6.81504,-0.56254c0.9472,-0.31241 1.10664,-1.70686 1.89962,-2.31181c1.74773,-1.33333 3.74973,-2.29543 5.63073,-3.43305c6.85496,-4.14586 13.07187,-8.99144 19.52652,-13.68579c3.31693,-2.41234 6.64707,-4.81167 10.07925,-7.05701c0.49723,-0.32529 1.22746,-0.26679 1.64291,-0.69159c0.22242,-0.22742 -0.0979,-0.64213 -0.03383,-0.95371c0.30649,-1.4906 0.57724,-3.00668 1.13897,-4.42099c0.82539,-2.07815 2.24784,-3.89423 3,-6c0.90412,-2.53119 1.08854,-5.27711 1.93884,-7.82688c1.46666,-4.39806 3.53151,-8.58157 4.99368,-12.98113l1,-3c0,0 1.97642,-5.92927 7.90569,-3.95285z" fill="#ffffff"/><path d="M204.23438,119c0,-3.45178 2.79822,-6.25 6.25,-6.25c3.45178,0 6.25,2.79822 6.25,6.25c0,3.45178 -2.79822,6.25 -6.25,6.25c-3.45178,0 -6.25,-2.79822 -6.25,-6.25z" fill="#ffffff"/><path d="M264.23438,120c0,-3.45178 2.79822,-6.25 6.25,-6.25c3.45178,0 6.25,2.79822 6.25,6.25c0,3.45178 -2.79822,6.25 -6.25,6.25c-3.45178,0 -6.25,-2.79822 -6.25,-6.25z" fill="#ffffff"/></g></g></svg>