<svg version="1.1" xmlns="http://www.w3.org/2000/svg" xmlns:xlink="http://www.w3.org/1999/xlink" width="355.12094" height="191.89475" viewBox="0,0,355.12094,191.89475"><g transform="translate(-52.98439,-63.50002)"><g data-paper-data="{&quot;isPaintingLayer&quot;:true}" fill="#00ff72" fill-rule="nonzero" stroke="none" stroke-width="0.5" stroke-linecap="butt" stroke-linejoin="miter" stroke-miterlimit="10" stroke-dasharray="" stroke-dashoffset="0" style="mix-blend-mode: normal"><path d="M72.68716,65.43731c1.20673,-0.32911 2.53501,0.06269 3.79723,0.06269c7.63604,0 15.63541,-0.67088 23.23172,0.06083c7.91178,0.76211 15.69181,2.97537 23.44983,4.23018c6.73776,1.08979 14.26715,2.29299 21.09518,2.73314c2.47988,0.15986 4.98709,-0.25458 7.455,0.03668c10.32129,1.21814 20.3199,4.28997 30.75625,4.97827c29.16808,1.92372 58.5816,0.95109 87.78875,0.98505c27.23732,3.33537 54.82568,1.97585 82.22328,1.97585c8,0 16,0 24,0c9.82087,0 19.70689,-1.79886 27.44317,6.30998c4.35706,4.56687 3.99831,9.75149 4.05683,15.19002c0.11831,10.99724 0,22.00208 0,33c0,22.46551 0.27668,44.95265 -0.00693,67.41598c-0.15974,12.65226 -1.87017,25.28037 -2.21862,37.94787c-2.86127,4.58856 -4.1728,10.6376 -8.5838,13.76568c-3.72389,2.64081 -9.12571,0.32001 -13.69065,0.37047c-13.99622,0.15471 -28.00306,0.00629 -42,0c-8.49989,-0.00382 -16.98783,-0.64005 -25.47971,-1.00921c-12.66717,-0.55067 -25.43289,-0.33452 -38.08672,-1.00363c-3.91562,-0.20705 -42.29491,-3.93023 -45.85503,-4.2716c-27.98369,-2.68335 -55.81414,-5.12103 -83.87078,-6.78668c-8.60361,-1.03569 -17.25744,-1.71627 -25.81082,-3.10706c-5.82194,-0.94665 -11.39963,-3.23561 -17.2609,-3.89645c-5.51049,-0.6213 -11.09065,0.06155 -16.63604,0.07464c-3.43992,0.00812 -21.97424,1.01495 -26.30888,-2.35948c-7.83646,-6.10052 -5.63369,-11.75548 -6.16696,-19.3638c-0.43827,-6.25287 -1.0172,-12.50852 -1.02416,-18.77672c-0.02866,-25.83955 0.8644,-51.85523 0.00432,-77.67139c-0.44982,-13.50177 -1.989,-26.83026 -2.00432,-40.3286c0,0 0,-12.5 12.5,-12.5c3.11092,0 5.44761,0.77423 7.20277,1.93731z"/></g></g></svg>