<svg version="1.1" xmlns="http://www.w3.org/2000/svg" xmlns:xlink="http://www.w3.org/1999/xlink" width="277.37121" height="249.04004" viewBox="0,0,277.37121,249.04004"><g transform="translate(-104.61429,-45.4993)"><g data-paper-data="{&quot;isPaintingLayer&quot;:true}" fill-rule="nonzero" stroke="none" stroke-width="0.5" stroke-linecap="butt" stroke-linejoin="miter" stroke-miterlimit="10" stroke-dasharray="" stroke-dashoffset="0" style="mix-blend-mode: normal"><path d="M113.95822,52.8816c3.92912,-2.78841 12.17847,-2.41565 16.52616,-2.3816c2.27764,0.01784 4.49932,-0.73967 6.76828,-0.93917c4.38239,-0.38532 8.33563,-0.44504 12.70443,-0.96718c5.19716,-0.62113 10.19287,-2.56059 15.40472,-3.04315c0.63552,-0.05884 14.75696,-0.05051 18.12257,-0.05051c13,0 26,0 39,0c3.15525,0 22.50385,-0.01014 23.09031,0.04764c5.98389,0.58961 11.82601,2.19524 17.77165,3.09181c5.36154,0.8085 10.78798,1.15461 16.14031,2.02195c4.77828,0.77431 9.42234,2.33081 14.22944,2.89943c7.53691,0.89151 15.17883,-0.06083 22.76828,-0.06083c8.33333,0 16.66667,0 25,0c12.26445,0 25.43453,-2.9669 33.18034,9.90983c2.17833,3.62129 0.99572,13.14164 1.30053,17.89892c0.19301,3.01228 0.82641,5.98653 1,9c0.63283,10.98549 0.02386,22.16231 -0.07453,33.16396c2.87195,11.1688 4.08218,14.17628 5.06221,26.64118c0.04062,0.51662 0.032,23.83451 0.03145,24.88611c-0.00623,11.91701 -0.46609,23.85671 -2.11417,35.68556c-0.58067,4.16766 -1.22872,8.34143 -2.27691,12.4167c-2.69621,10.48259 -5.33216,12.80291 -6.68921,23.31219c-0.36652,2.83841 0.06722,5.7236 0.08029,8.58554c0.02587,5.66661 0.08318,11.33394 0,17c-0.11875,8.08887 0.45109,13.77171 -7.49214,20.35084c-3.2117,2.66015 -14.69704,2.14916 -19.00786,2.14916c-14,0 -28,0 -42,0c-42.01827,0 -83.98975,-1 -126,-1c-13.94626,0 -29.01524,1.12582 -43,0c-6.13359,-0.49378 -12.92759,0.62489 -18.30888,-2.35947c-6.66144,-3.69431 -6.44928,-13.65366 -6.17828,-19.70696c0.28795,-6.43199 1.57496,-12.78666 2.01131,-19.21029c0.87975,-12.95086 -0.02415,-26.24304 -0.02415,-39.22328c0,-16.66667 0,-33.33333 0,-50c0,-9.35578 0.59568,-18.88911 0.02415,-28.22328c-0.28292,-4.62062 -1.55948,-9.13572 -1.98156,-13.74571c-0.42928,-4.68864 -0.10602,-9.45437 -0.892,-14.09655c-0.83127,-4.90971 -2.542,-9.66725 -3.08103,-14.61757c-0.94683,-8.69549 -0.06956,-18.48468 -0.06956,-27.31689c0,0 0,-10.02203 8.97384,-12.1184z" fill="#00fbff"/><path d="M213.32321,185.83883c-0.44617,0.44617 -0.89233,0.84729 -1.33736,1.20678c-1.2232,5.55865 -2.56499,10.85741 -3.02563,16.73111c-0.49633,6.32883 0.03531,12.90595 -0.01844,19.25429c-1.78831,11.12962 -1.95741,21.73126 -1.95741,32.96899v2c0,0 0,12.5 -12.5,12.5c-12.5,0 -12.5,-12.5 -12.5,-12.5v-2c0,-11.87322 -0.00765,-23.27652 2.04259,-35.03101c-0.08839,-6.16178 -0.4843,-12.59662 -0.01844,-18.74571c0.09973,-1.31638 1.0543,-8.863 1.71886,-13.48783c-2.10706,-0.05169 -4.19499,-0.17026 -6.24529,-0.39686c-1.27516,-0.14093 -2.41396,-0.91774 -3.67927,-1.12961c-2.92948,-0.49052 -5.9632,-0.30383 -8.85788,-0.96965c-3.242,-0.74571 -6.41841,-1.68235 -9.56176,-2.71627c-0.10663,9.18571 -0.39882,18.38727 -0.39882,27.47694c0,7.13336 1.3107,15.915 -0.33439,22.87191c-0.34304,1.4507 -1.60901,2.56148 -2,4c-0.18834,0.69293 0.31182,1.41038 0.33439,2.12809c0.05792,1.84178 0.13397,3.69871 -0.09366,5.52729c-0.1763,1.41633 -0.57516,2.79305 -0.94363,4.17518c-0.22173,2.63722 -1.76207,11.79753 -12.46272,11.79753c-12.5,0 -12.5,-12.5 -12.5,-12.5l0.37322,-4.0317c1.26444,-4.38002 0.03935,-8.15216 0.96117,-12.84022c0.28761,-1.4627 1.44222,-2.61758 2,-4c0.76546,-1.89713 -0.33439,-4.08235 -0.33439,-6.12809c0,-3.66667 0,-7.33333 0,-11c0,-12.65439 0.64341,-25.57478 0.44093,-38.32528c-2.1317,-2.49471 -3.59282,-6.24752 -1.79947,-11.62757c0.29748,-0.89243 0.63972,-1.6953 1.01832,-2.41706c-0.24187,-1.61485 -0.52284,-3.22603 -0.63563,-4.85338c-0.38666,-5.57886 -0.02415,-11.18447 -0.02415,-16.77672c0,-15 0,-30 0,-45c0,0 0,-12.5 12.5,-12.5c12.5,0 12.5,12.5 12.5,12.5c0,12 0,24 0,36c0,7.99664 -0.61255,16.25017 -0.02415,24.22328c0.11383,1.5424 0.3736,3.07067 0.60485,4.60151c5.08533,1.90477 10.20056,3.75706 15.45873,4.93588c5.96806,1.33796 11.98788,1.71148 18.04479,1.7878c0.00409,-0.03297 0.00819,-0.06594 0.01231,-0.0989c0.63455,-5.07643 1.60837,-10.12032 1.92763,-15.22628c0.55312,-8.84627 -0.9267,-17.93496 0.0695,-26.75057c0.30865,-2.73135 1.63238,-5.27596 2,-8c0.28349,-2.10067 -0.21065,-4.24432 -0.06221,-6.35882c0.21394,-3.04757 1.014,-6.05916 0.96855,-9.11389c0,0 0,-12.5 12.5,-12.5c12.5,0 12.5,12.5 12.5,12.5c-0.02949,3.64484 -0.7677,7.25071 -1.03145,10.88611c-0.18431,2.54047 0.27074,5.11589 -0.06221,7.64118c-0.3593,2.72515 -1.66388,5.27189 -2,8c-1.01253,8.2181 0.58714,16.96436 0.0695,25.24943c-0.03172,0.50773 -1.95352,15.82287 -2.07237,16.77372c-0.03741,0.29929 -0.18203,1.46175 -0.3801,3.04863c2.06645,2.85614 5.50728,9.54795 -1.18454,16.23977z" fill="#ffffff"/><path d="M223.98438,259c0,-12.5 12.5,-12.5 12.5,-12.5c2.66667,0 8.33333,0 11,0c3.24827,0.20657 6.51167,-1.60354 9.50515,-2.5015c4.41392,-1.32405 9.12951,-2.33338 13.27164,-4.35491c3.02631,-1.47696 5.59481,-3.9621 8.06875,-6.11749c3.61376,-3.14844 10.12988,-8.75346 13.71129,-12.71613c1.48476,-1.64282 2.82067,-3.41603 4.15645,-5.18212c0.33012,-0.43647 -0.20904,-1.08062 -0.21328,-1.62785c-0.01756,-2.26944 0.21724,-5.57413 -0.78672,-7.62785c-0.70677,-1.44579 -2.38059,-2.18597 -3.38006,-3.44728c-1.00148,-1.26386 -2.03459,-2.53806 -2.73385,-3.99111c-0.11755,-0.24426 1.07576,0.06748 0.81321,0.00008c-0.64795,-0.16634 -1.32281,-0.20047 -1.98422,-0.3007c-1.39882,-1.33105 -3.21591,-2.11419 -4.98092,-2.94747c-1.38177,0.52619 -2.88096,0.81434 -4.44744,0.81434c-5.61949,0 -10.37289,-3.70817 -11.94675,-8.81106c-1.71199,-1.26633 -3.36377,-2.62194 -4.97811,-4.02216c-1.62667,-1.41092 -3.8174,-2.28578 -5.00897,-4.07936c-3.96177,-5.96333 -3.56617,-11.077 -3.56617,-17.58742c0,-11 0,-22 0,-33c0.37474,-11.61384 6.6852,-18.85996 15.16348,-26.3141c2.85857,-2.51327 5.4693,-5.41455 8.76488,-7.31903c1.8823,-1.08776 4.00841,-1.69898 6.07679,-2.36837c0.67924,-0.21982 1.49151,0.04837 2.1227,-0.28522c1.65913,-0.87687 2.80899,-2.66629 4.5886,-3.26177c10.01562,-3.35136 19.60089,-1.59868 29.66966,-0.92006c2.81959,0.19004 5.67242,-0.2971 8.47785,0.04319c8.77835,1.0648 18.06817,3.36271 25.56979,8.02473c0,0 10.40063,6.93375 3.46688,17.33438c-6.93375,10.40063 -17.33438,3.46688 -17.33438,3.46688c-2.51064,-2.16647 -11.50309,-3.64441 -14.43021,-3.97527c-2.49156,-0.28162 -5.02015,0.20804 -7.52215,0.04319c-5.40591,-0.35618 -9.82559,-1.03188 -15.22777,-1c-1.03452,0.00611 -2.15309,-0.33084 -3.10257,0.07994c-1.33826,0.57898 -2.09654,2.10788 -3.4114,2.73823c-1.84024,0.88221 -3.88937,1.25334 -5.8773,1.71478c-0.11378,0.02641 -0.07126,0.23474 -0.15833,0.3126c-2.46975,2.20832 -5.14461,4.19247 -7.49768,6.52473c-1.38252,1.3703 -2.80206,2.70321 -4.17206,4.08603c-0.09959,0.10053 -0.15329,0.26177 -0.22887,0.38789c0.03713,0.22354 0.02588,0.4634 0.06209,0.68725c0,8.33333 0,16.66667 0,25c0,2.66667 0,5.33333 0,8c0,0.92366 0.02065,1.84765 0.01904,2.77128c1.85314,1.51335 4.31879,4.66654 6.35287,5.06311c1.22881,0.23957 2.56755,-0.20823 3.75039,0.20196c1.87444,0.65003 3.4162,2.02646 5.19706,2.90087c2.67153,1.31173 5.71624,2.25886 7.75228,4.42964c1.33859,0.56643 2.92031,0.74399 4.01578,1.6993c2.52606,2.20287 3.96551,5.40797 6.07936,8.00897c2.27371,2.79771 5.00223,5.33092 6.61994,8.55272c1.03193,2.05517 1.37227,4.39355 1.90875,6.6298c1.72065,7.17225 2.7397,17.28032 -0.90875,24.1145c-3.61281,6.76741 -9.1747,12.52742 -14.71133,17.7225c-7.09983,6.66185 -14.56616,13.82191 -23.35218,18.26176c-5.1974,2.62641 -11.17387,3.97859 -16.72836,5.64509c-5.7234,1.71718 -10.48254,3.37412 -16.49485,3.4985c-2.66667,0 -5.33333,0 -8,0h-3c0,0 -12.5,0 -12.5,-12.5z" fill="#ffffff"/></g></g></svg>