<svg version="1.1" xmlns="http://www.w3.org/2000/svg" xmlns:xlink="http://www.w3.org/1999/xlink" width="446.44078" height="205.78737" viewBox="0,0,446.44078,205.78737"><g transform="translate(-28.25098,-65.79771)"><g data-paper-data="{&quot;isPaintingLayer&quot;:true}" fill="#ff0000" fill-rule="nonzero" stroke="none" stroke-width="0.5" stroke-linecap="butt" stroke-linejoin="miter" stroke-miterlimit="10" stroke-dasharray="" stroke-dashoffset="0" style="mix-blend-mode: normal"><path d="M30.27566,85.55501c-1.05707,-1.71943 -1.74807,-3.96739 -1.74807,-6.90635c0,-12.5 12.5,-12.5 12.5,-12.5c2.5025,0 12.51251,0 15.01502,0c23.52352,0 47.04705,0 70.57057,0c12.51215,0 25.68973,-0.80225 38.22879,0.01913c4.52253,0.29625 8.99329,1.1719 13.51351,1.5015c7.25782,0.52921 14.55418,-0.01913 21.83127,-0.01913c10.51051,0 21.02102,0 31.53153,0c1.10718,0 21.32234,-0.00967 21.90713,0.03145c3.6685,0.25792 7.26268,1.20291 10.92495,1.5379c7.19857,0.65844 14.41548,1.14248 21.63795,1.44058c4.70552,0.19422 9.44,-0.40842 14.12855,0.03567c6.24941,0.59192 12.35753,2.24507 18.58146,3.06252c5.14011,0.6751 10.32567,0.94149 15.4885,1.41223c4.31569,-0.00428 8.63142,-0.02991 12.94708,-0.01284c2.49408,0.00987 5.02435,0.52014 7.48172,0.09366c5.94295,-1.03141 11.585,-3.49631 17.54303,-4.43675c16.39653,-2.5881 33.51805,-1.66291 50.05033,-1.66291c6.00601,0 12.01776,-0.26267 18.01802,0c0.55496,0.02429 1.09391,0.47001 1.63259,0.33439c1.08528,-0.27324 1.88974,-1.6162 3.003,-1.5015c5.00191,0.51532 10.83595,0.12563 14.71375,3.32678c4.63049,3.8225 3.66117,15.18207 3.66117,20.85085c0,8.2271 0.6278,16.86998 -0.04259,25.05503c-0.64767,7.90767 -2.44793,15.69912 -2.97593,23.61569c-0.31926,4.78682 0.01552,9.59489 0.01552,14.39234c0,7.50751 0,15.01502 0,22.52252c0,3.66036 -0.4224,7.3404 -0.04259,10.98101c0.3159,3.02799 1.20684,5.97888 1.5015,9.00901c0.15516,1.59557 -0.5577,3.25423 -0.15799,4.8067c0.90025,3.49654 2.75749,6.67641 3.98843,10.07066c2.35907,6.50498 3.91496,13.30907 5.05108,20.13469c0.5563,3.34214 1.28678,6.66219 1.62899,10.03299c0.18551,1.82726 -0.28058,3.68747 -0.05106,5.50972c0.94309,7.48761 5.7819,10.70169 -2.06601,19.37513c-2.77206,3.06366 -7.79449,2.83092 -11.84184,3.66117c-1.96117,0.4023 -4.004,0 -6.00601,0c-6.50651,0 -13.01301,0 -19.51952,0c-5.7668,0 -12.01806,0.61514 -17.74824,-0.06083c-2.53449,-0.29899 -4.96927,-1.2362 -7.50751,-1.5015c-8.55187,-0.89387 -17.19685,0.06083 -25.79531,0.06083c-6.91711,0 -13.86589,0.60128 -20.75124,-0.06083c-2.54034,-0.24429 -4.96424,-1.28978 -7.50751,-1.5015c-3.42476,-0.28511 -6.89252,0.38217 -10.3098,0.01824c-6.46317,-0.6883 -12.84503,-2.00592 -19.24052,-3.16522c-4.68443,-0.84914 -9.25024,-2.44789 -13.99322,-2.85903c-9.5636,-0.82899 -19.19885,0.06083 -28.79831,0.06083c-23.52352,0 -47.04705,0 -70.57057,0c-13.66062,0 -27.61686,0.94218 -41.2318,-0.01913c-3.53684,-0.24973 -22.41368,-2.50744 -26.63736,-3.1146c-2.75742,-0.39639 -5.45482,-1.27067 -8.23693,-1.41336c-18.03158,-0.92486 -36.46379,0.04259 -54.52455,0.04259c-9.00901,0 -18.06872,0.95441 -27.02703,0c-6.52728,-0.69541 -14.21008,0.42258 -19.34935,-3.66117c-3.91803,-3.11334 -3.19004,-9.58752 -3.60033,-14.57506c-0.19642,-2.38775 2.72693,-11.9302 3.003,-15.01502c0.62309,-6.96224 -0.06083,-14.28776 -0.06083,-21.2908c0,-10.01001 0,-20.02002 0,-30.03003c0,-3.99553 0.54974,-8.01681 0.09366,-11.98622c-0.20613,-1.79402 -1.09089,-3.45596 -1.38263,-5.23806c-0.7343,-4.48551 -1.33385,-8.99928 -1.68988,-13.53053c-0.3462,-4.40617 0.47705,-8.86334 0.01844,-13.25922c-0.3159,-3.02799 -1.2734,-5.97314 -1.5015,-9.00901c-0.69243,-9.21568 -0.04259,-18.79436 -0.04259,-28.05803c0,0 0,-3.36777 1.74807,-6.60716z"/></g></g></svg>