<svg version="1.1" xmlns="http://www.w3.org/2000/svg" xmlns:xlink="http://www.w3.org/1999/xlink" width="277.37121" height="249.04005" viewBox="0,0,277.37121,249.04005"><g transform="translate(-104.6143,-45.49932)"><g data-paper-data="{&quot;isPaintingLayer&quot;:true}" fill="#ff8e00" fill-rule="nonzero" stroke="none" stroke-width="0.5" stroke-linecap="butt" stroke-linejoin="miter" stroke-miterlimit="10" stroke-dasharray="" stroke-dashoffset="0" style="mix-blend-mode: normal"><path d="M113.95822,52.8816c3.92912,-2.78841 12.17847,-2.41565 16.52616,-2.3816c2.27764,0.01784 4.49932,-0.73967 6.76828,-0.93917c4.38239,-0.38532 8.33563,-0.44504 12.70443,-0.96718c5.19716,-0.62113 10.19287,-2.56059 15.40472,-3.04315c0.63552,-0.05884 14.75696,-0.05051 18.12257,-0.05051c13,0 26,0 39,0c3.15525,0 22.50385,-0.01014 23.09031,0.04764c5.98389,0.58961 11.82601,2.19524 17.77165,3.09181c5.36154,0.8085 10.78798,1.15461 16.14031,2.02195c4.77828,0.77431 9.42234,2.33081 14.22944,2.89943c7.53691,0.89151 15.17883,-0.06083 22.76828,-0.06083c8.33333,0 16.66667,0 25,0c12.26445,0 25.43453,-2.9669 33.18034,9.90983c2.17833,3.62129 0.99572,13.14164 1.30053,17.89892c0.19301,3.01228 0.82641,5.98653 1,9c0.63283,10.98549 0.02386,22.16231 -0.07453,33.16396c2.87195,11.1688 4.08218,14.17628 5.06221,26.64118c0.04062,0.51662 0.032,23.83451 0.03145,24.88611c-0.00623,11.91701 -0.46609,23.85671 -2.11417,35.68556c-0.58067,4.16766 -1.22872,8.34143 -2.27691,12.4167c-2.69621,10.48259 -5.33216,12.80291 -6.68921,23.31219c-0.36652,2.83841 0.06722,5.7236 0.08029,8.58554c0.02587,5.66661 0.08318,11.33394 0,17c-0.11875,8.08887 0.45109,13.77171 -7.49214,20.35084c-3.2117,2.66015 -14.69704,2.14916 -19.00786,2.14916c-14,0 -28,0 -42,0c-42.01827,0 -83.98975,-1 -126,-1c-13.94626,0 -29.01524,1.12582 -43,0c-6.13359,-0.49378 -12.92759,0.62489 -18.30888,-2.35947c-6.66144,-3.69431 -6.44928,-13.65366 -6.17828,-19.70696c0.28795,-6.43199 1.57496,-12.78666 2.01131,-19.21029c0.87975,-12.95086 -0.02415,-26.24304 -0.02415,-39.22328c0,-16.66667 0,-33.33333 0,-50c0,-9.35578 0.59568,-18.88911 0.02415,-28.22328c-0.28292,-4.62062 -1.55948,-9.13572 -1.98156,-13.74571c-0.42928,-4.68864 -0.10602,-9.45437 -0.892,-14.09655c-0.83127,-4.90971 -2.542,-9.66725 -3.08103,-14.61757c-0.94683,-8.69549 -0.06956,-18.48468 -0.06956,-27.31689c0,0 0,-10.02203 8.97384,-12.1184z"/></g></g></svg>