<svg version="1.1" xmlns="http://www.w3.org/2000/svg" xmlns:xlink="http://www.w3.org/1999/xlink" width="383.80083" height="133.58082" viewBox="0,0,383.80083,133.58082"><g transform="translate(-14.23437,-50.61604)"><g data-paper-data="{&quot;isPaintingLayer&quot;:true}" fill="#ff0000" fill-rule="nonzero" stroke="none" stroke-width="0.5" stroke-linecap="butt" stroke-linejoin="miter" stroke-miterlimit="10" stroke-dasharray="" stroke-dashoffset="0" style="mix-blend-mode: normal"><path d="M60.85739,114.97891c0.76039,-0.4988 1.77018,-0.83 3.11116,-0.83c5.42949,0 5.42949,5.42949 5.42949,5.42949l-5.42949,6.29821c-2.04782,0 -9.00052,0.00524 -9.35058,-0.04068c-2.52846,-0.33167 -4.95401,-1.21252 -7.43102,-1.81879c-9.66139,-1.7942 -19.97662,-4.31913 -27.753,-10.89427c-4.00552,-3.38678 -4.30551,-8.78309 -4.33085,-13.52502c-0.01948,-3.64517 -0.17863,-7.37373 -0.21828,-11.08658c-0.39716,-0.72083 -0.65044,-1.64023 -0.65044,-2.81293c0,-1.24102 0.28366,-2.19838 0.72131,-2.93691c0.03828,-0.9124 0.09226,-1.82065 0.16591,-2.72323c0.14326,-1.75557 0.71916,-3.45727 0.86872,-5.21231c0.40714,-4.77754 -0.96585,-9.72923 1.49267,-14.27619c1.07674,-1.9914 2.94136,-3.46304 4.64088,-4.9586c1.91827,-1.68806 3.79067,-3.6144 6.16744,-4.55263c1.90632,-0.75252 4.09182,-0.26082 6.1408,-0.30607c8.24322,-0.18205 13.55426,1.85914 19.47617,7.6713c2.57182,2.65222 4.07874,5.25912 6.28747,8.03666c1.59041,1.99998 3.55371,3.81554 4.55263,6.16744c0.68816,1.62023 0.2936,3.51181 0.30607,5.27208c0.01193,1.6845 0.26826,3.44001 -0.23297,5.04826c-1.8887,6.06002 -7.39068,8.52438 -13.01401,9.86704c-3.23044,0.77132 -7.95038,0.18492 -11.29434,0.07011c-1.39452,-0.04788 -2.83955,0.15613 -4.17954,-0.23297c-1.00265,-0.29115 -1.59112,-1.49291 -2.60616,-1.73744c-1.18166,-0.28467 -2.42413,0.19319 -3.63893,0.23297c-1.40689,0.04607 -2.8144,0.05482 -4.22215,0.04892c0.04866,1.66444 0.09573,3.31964 0.09573,4.94622c0,2.65381 -0.44999,5.6562 0.40458,8.22811c0.67585,2.03405 4.28155,2.93484 5.32603,3.44391c2.8698,1.39871 5.65958,3.03546 8.70433,3.99547c2.93147,0.9243 6.05283,1.07449 9.07924,1.61174c4.23625,1.08458 7.50917,1.46626 11.38112,1.57669zM26.01926,80.26887c0.19812,0 0.39624,0 0.59437,0c2.33808,0 8.9607,-0.03974 10.26057,0.23297c1.02183,0.21438 1.6413,1.33853 2.60616,1.73744c1.12325,0.46439 2.42347,-0.23297 3.63893,-0.23297c0.86872,0 1.73744,0 2.60616,0c2.05227,0 8.12467,0.78622 8.70298,-2.22492c0.12044,-0.62711 -0.24601,-1.26306 -0.23297,-1.9015c0.01161,-0.56834 0.55955,-1.16886 0.30607,-1.67767c-0.24979,-0.50141 -4.06877,-4.07663 -4.49353,-4.70355c-1.23474,-1.82245 -2.18335,-3.89913 -3.77819,-5.41649c-0.70277,-0.72194 -1.31302,-1.54728 -2.1083,-2.16583c-3.5563,-2.76601 -5.32238,-2.1616 -9.68941,-2.32494c-0.85431,-0.03196 -1.75615,-0.63225 -2.54639,-0.30607c-1.07159,0.4423 -1.66183,1.61744 -2.51975,2.39712c-0.7521,0.68351 -1.78945,1.11763 -2.30888,1.99116c-0.97551,1.64052 -0.17857,9.23668 -0.24477,10.04795c-0.1251,1.53305 -0.58012,3.02502 -0.79305,4.54731z"/><path d="M67.22625,126.52816c0,-5.42949 5.42949,-5.42949 5.42949,-5.42949l1.35872,0.14525c2.18709,-1.23112 4.49606,-2.25086 6.84169,-3.14363c0.61112,-0.2326 1.3975,-0.1613 1.85987,-0.62367c0.46237,-0.46237 0.3829,-1.25193 0.62367,-1.85987c0.42063,-1.06209 1.03706,-2.05005 1.35892,-3.14613c0.82474,-2.80862 -1.03465,-6.42458 -0.73372,-9.56193c-2.41041,-2.40236 -4.69384,-4.72464 -7.49531,-6.69698c-4.46714,-3.14503 -7.69477,-4.1623 -9.83341,-9.6651c-1.08692,-2.79667 -0.09787,-6.41356 1.00339,-9.00705c3.77802,-8.8973 12.71891,-11.75069 20.7316,-15.75823c2.25451,-1.12759 4.37823,-2.78103 6.8703,-3.16032c0.58855,-0.08958 8.53437,-0.07011 9.5569,-0.07011c0,0 5.42949,0 5.42949,5.42949c0,5.42949 -5.42949,5.42949 -5.42949,5.42949c-2.60593,0 -5.2178,-0.25045 -7.81748,-0.07011c-1.1256,0.07808 -3.08193,1.81587 -3.55433,2.052c-3.51486,1.75689 -6.87216,3.27596 -10.3396,5.16662c-3.60743,1.96698 -3.95027,1.78752 -5.415,5.13672c-0.21321,0.48753 -1.05919,0.99635 -0.73405,1.41758c2.37906,3.08218 6.73562,4.63459 9.69989,7.17114c3.3644,2.87893 5.41531,5.70708 7.72015,9.4781c0.21957,4.669 2.06177,10.16562 1.00372,14.7622c-0.44349,1.92673 -1.27903,3.74983 -2.11596,5.54106c-0.82321,1.76186 -1.47611,3.71478 -2.85121,5.08988c-3.15614,3.15614 -9.87706,4.79478 -13.88514,6.65733l-3.8536,0.14525c0,0 -5.42949,0 -5.42949,-5.42949z"/><path d="M136.25026,127.90957c-1.21321,-0.6066 -1.97178,-1.36475 -2.42717,-2.16086c-5.25914,-1.01728 -10.73612,-2.29603 -15.00534,-5.37629c-1.62949,-1.17568 -2.64249,-3.04214 -3.75683,-4.71417c-1.25652,-1.88537 -2.72111,-3.74235 -3.33298,-5.92388c-0.24837,-0.88552 -0.19701,-10.31584 -0.19701,-11.87394c0,-5.81877 -0.43475,-10.85657 2.3423,-16.38996c2.72718,-5.43403 10.27183,-10.86345 15.39164,-13.6412c1.48102,-0.80353 3.29956,-0.79499 4.82164,-1.51774c0.52656,-0.25003 0.6958,-0.95191 1.14965,-1.31769c0.9518,-0.76709 2.02444,-1.3708 3.03666,-2.05619c0,0 4.51761,-3.01174 7.52935,1.50587c3.01174,4.51761 -1.50587,7.52935 -1.50587,7.52935c-1.60507,1.04662 -2.80011,2.69326 -4.50088,3.57587c-1.75595,0.91125 -3.85797,1.02511 -5.60299,1.95714c-2.75488,1.47141 -9.06201,5.70705 -10.66994,8.9455c-2.36603,4.7653 -1.02131,11.55264 -1.13258,16.62137c-0.02756,1.25575 -0.51054,2.54671 -0.19701,3.763c0.27806,1.07868 1.26114,1.83665 1.87933,2.76331c0.49347,0.73971 0.71347,1.74557 1.45549,2.23558c4.11033,2.71434 10.42518,3.22535 15.0842,4.15715l2.92276,9.48964c0,0 -2.42814,4.85629 -7.28443,2.42814z"/><path d="M252.69778,156.06461c0,5.42949 -5.42949,5.42949 -5.42949,5.42949l-3.4544,-0.27862c-4.67363,-1.56606 -9.26694,-1.07295 -13.94462,-2.62142c-8.73415,-2.89129 -16.4314,-11.65663 -18.33768,-20.61452c-0.09611,-0.45163 -0.155,-0.97749 -0.18273,-1.55815c-0.47522,-0.12007 -0.94706,-0.2528 -1.41502,-0.39877c0,0 -5.15087,-1.71696 -3.43391,-6.86783c1.30952,-3.92857 4.6166,-3.86205 6.11239,-3.60925c0.3511,-1.64816 0.69717,-2.96364 0.92465,-3.58302c0.98736,-2.68836 2.89635,-4.93105 4.46986,-7.33596c-1.94987,0.79289 -4.11339,1.15226 -6.17547,1.59179c-4.64446,0.98996 -7.2314,0.97496 -11.0923,0.97085c-0.33115,2.72646 -0.46964,5.49062 -1.21503,8.12637c-0.76748,2.71384 -1.82617,5.33748 -2.66681,8.02955c-0.64421,2.06301 -1.06708,4.19481 -1.78681,6.2327c-0.36576,1.03565 -1.289,1.86965 -1.45799,2.95491c-0.09895,0.63547 0.47938,1.19359 0.71907,1.79039c0,0 1.31685,5.26738 -3.95053,6.58423c-5.26738,1.31685 -6.58423,-3.95053 -6.58423,-3.95053c-0.33946,-1.71979 -1.1784,-3.41372 -1.01837,-5.15937c0.18492,-2.01712 1.40356,-3.80178 2.01689,-5.73228c0.68446,-2.15441 1.38217,-4.30497 2.06746,-6.4593c-2.19607,2.33794 -5.59658,1.20443 -5.59658,1.20443l-3.74365,-1.40098c-1.36267,-1.25985 -4.97013,-4.37681 -5.63662,-6.01571c-1.44087,-3.5431 -0.1384,-7.62052 0.444,-11.11501c-1.55572,0.72526 -3.3347,0.92873 -4.98372,1.43594l-4.32312,-1.14734c0,0 -4.39797,-1.46599 -3.71159,-5.75259c-2.59654,-1.20404 -5.09244,-2.57683 -6.70478,-4.7898c-4.76062,-6.53402 -0.60214,-15.59307 5.80399,-19.20762c3.37562,-1.90464 4.61961,-1.63987 8.06677,-1.67961c1.9009,-0.02191 6.62237,-0.06338 7.77426,0.64245c1.83103,1.12197 2.9591,3.15974 4.05289,5.00775c0.20024,0.33832 0.37533,0.68543 0.52821,1.03982c1.3618,-5.00666 3.59022,-9.15064 7.26082,-12.91822c0,0 3.83923,-3.83923 7.67846,0c3.83923,3.83923 0,7.67846 0,7.67846c-2.33801,2.23432 -3.89898,5.1245 -4.56088,8.32383c-0.22379,1.0817 0.17947,2.2596 -0.16286,3.30983c-0.39069,1.19861 -1.46546,2.07338 -1.96861,3.2293c-1.34379,3.08718 -1.28519,6.9389 -2.47927,10.11185c-0.37945,1.0083 -1.2864,1.79284 -1.54543,2.83857c-0.24829,1.00239 0.21746,2.07431 0.07514,3.09714c-0.1262,0.90697 -0.73001,1.70101 -0.86872,2.60616c-0.13159,0.85868 0.16468,1.74163 0.07011,2.60517c-0.02435,0.22228 -0.47594,0.31372 -0.4133,0.52838c0.05238,0.17951 0.40809,-0.13241 0.56047,-0.02402c0.33094,0.2354 0.50178,0.63871 0.75266,0.95806l1.46866,0.33645c0,0 3.2276,1.07587 3.72129,4.07925c0.20601,-0.68542 0.40878,-1.3718 0.60749,-2.0594c1.27157,-4.3999 0.53362,-6.13757 1.72762,-11.25583c1.86183,-7.98097 6.1005,-15.18745 10.11731,-22.21841c1.58476,-2.77394 2.52443,-6.42174 5.31645,-7.97443c5.0323,-2.79855 14.28964,0.46002 17.59394,4.79781c1.08741,1.42753 1.2755,3.35475 1.91325,5.03212c0.07071,5.25784 0.92299,11.96661 -1.2342,17.18794c1.56101,-0.49404 3.27435,-0.63338 4.89571,-0.87204c4.47897,-0.65928 13.65517,-0.01375 16.83989,2.7623c1.57034,1.36882 1.01252,4.05059 1.28668,6.11565c0.55516,4.18163 -1.15654,9.41599 -3.63102,12.73059c-2.97395,3.98366 -6.22982,5.10586 -10.70509,6.38188c-3.3775,0.96302 -6.96625,1.69803 -10.57644,1.99117c1.6727,4.82102 6.07845,9.51559 10.82049,11.11567c2.13125,0.71913 4.49026,0.31793 6.71979,0.61552c2.41397,0.3222 4.82715,1.2097 7.1346,1.97538l0.02048,-0.27862c0,0 5.42949,0 5.42949,5.42949zM223.52285,126.26666c2.33794,-0.3499 4.61385,-0.91046 6.59047,-1.47659c1.29491,-0.37088 2.71761,-0.4555 3.87588,-1.14308c1.63929,-0.97312 2.46049,-3.88327 2.67796,-5.6007c0.00227,-0.0179 0.00399,-0.03598 0.0052,-0.05424c-0.95114,0.19676 -2.14531,0.06648 -2.43486,0.0661c-1.26956,-0.00169 -2.53905,-0.03357 -3.80859,-0.02642c-0.66153,0.00373 -1.43386,-0.30873 -1.98375,0.05904c-0.61062,0.40838 -0.68205,1.30128 -1.02308,1.95191c-1.25265,1.94627 -2.95478,3.66808 -3.75794,5.8388c-0.04727,0.12775 -0.09441,0.25616 -0.14129,0.38519zM203.86289,106.2427c1.96282,-0.16774 3.92192,-0.3883 5.86992,-0.67863c1.36727,-0.20378 2.7957,-0.30623 4.05207,-0.88286c0.70062,-0.32156 1.14216,-2.67251 1.16431,-3.14058c0.14007,-2.96055 -0.03037,-5.92827 0.02943,-8.89153c0.39527,-0.40513 0.18383,-0.08306 -0.64319,-0.40808c-0.72827,-0.28621 -1.52417,-0.46814 -2.21903,-0.81896c-0.01723,0.16585 -0.05512,0.32759 -0.11316,0.47639c-0.37938,0.9727 -1.21935,1.6997 -1.73744,2.60616c-1.81329,3.17254 -4.42009,6.59763 -5.81171,9.89594c-0.25122,0.59542 -0.43436,1.2142 -0.5912,1.84215zM169.30963,99.59096c-0.00557,-2.31387 -0.25692,-4.62892 -0.37313,-6.94185c-0.01101,-0.2191 -0.15286,-0.41831 -0.26277,-0.61959c-1.19398,-0.00881 -3.8187,-0.5564 -4.55418,0.02489c-0.90379,0.71432 -2.24417,2.05871 -2.87024,3.03581c-0.15543,0.24258 3.36683,2.28622 3.4122,2.30859c1.53366,0.75602 3.11616,1.43029 4.64812,2.19216z"/><path d="M314.37684,159.53949c0,5.42949 -5.42949,5.42949 -5.42949,5.42949h-2.60616c-7.76952,-0.04208 -18.21952,-0.72473 -23.56707,-7.53855c-1.66209,-2.11783 -1.54831,-5.18977 -1.82447,-7.86774c-0.34206,-3.317 -0.0152,-6.66916 -0.0185,-10.00374c-0.00412,-4.16163 -0.02816,-8.32449 -0.01284,-12.48678c-0.51319,-0.76476 -0.85588,-1.78612 -0.85588,-3.15017c0,-1.41862 0.37066,-2.46658 0.91828,-3.24073c0.00629,-0.36796 0.01313,-0.73592 0.02055,-1.10386c3.10146,-9.20864 11.87402,-17.7367 20.79597,-21.57659c2.9912,-1.28737 7.23501,-1.23248 10.62499,-1.2263c4.17807,0.00762 12.05311,0.0451 14.82927,3.99225c1.2501,1.77739 1.08399,4.27354 0.98418,6.44423c-0.31811,6.91802 -7.63293,12.99222 -13.62593,15.27236c-3.60164,1.3703 -7.3356,2.37441 -11.0571,3.37438c-3.64438,0.97925 -7.68188,2.13483 -11.70036,2.84133c0.0027,3.624 -0.05838,7.25277 -0.06213,10.85986c-0.00316,3.03603 0.00897,6.07217 -0.0185,9.10808c-0.00771,0.85276 -0.63933,1.90711 -0.08703,2.55689c0.82738,0.97341 2.29583,1.16212 3.52967,1.49338c3.61006,0.96924 7.38909,1.41862 11.12691,1.39269h2.60616c0,0 5.42949,0 5.42949,5.42949zM295.18432,116.65066c5.32469,-1.19715 8.95005,-1.97741 15.29775,-4.21119c1.98588,-0.69884 4.7849,-2.62089 6.30376,-4.46477c-0.47088,-0.15756 -0.94367,-0.31628 -1.42375,-0.3676c-2.25975,-0.24157 -7.82127,-0.30046 -9.68926,0.53756c-3.96063,1.77683 -7.53282,5.33551 -10.48851,8.506z"/><path d="M352.01895,182.49054c-3.83923,-3.83923 0,-7.67846 0,-7.67846l1.73744,-1.73744c1.23382,-1.13266 2.23712,-2.57908 2.8513,-4.13728c-0.07481,-6.5762 4.32624,-11.31154 6.27695,-17.24098c1.2326,-3.74666 1.89852,-8.39372 1.48424,-12.34276c-0.36184,-3.4491 -2.38438,-5.44643 -4.90232,-7.67718c-0.66786,-0.59169 -1.26986,-1.51885 -2.15996,-1.58109c-9.35426,-0.65412 -14.74129,5.02709 -19.91115,12.20477c-2.03037,2.81891 -3.09908,6.37269 -5.58508,8.79918l-2.51913,4.19855c-0.93784,1.62653 -2.69454,2.72138 -4.70695,2.72138c-2.99863,0 -5.42949,-2.43087 -5.42949,-5.42949c0,-0.91192 0.22482,-1.77134 0.62206,-2.52584l1.65509,-3.31018c1.46213,-3.21462 2.79966,-6.48893 4.38818,-9.64299c1.50743,-2.99307 3.73361,-5.63843 4.89288,-8.78277c0.76727,-2.08109 0.24438,-4.45602 0.78148,-6.60803c0.90553,-3.62818 2.389,-7.08747 3.52581,-10.64996c1.37403,-4.3059 2.13331,-8.79154 3.49641,-13.10091c1.11137,-3.51353 2.35636,-6.99175 3.80957,-10.37822c0.29119,-0.67858 1.20236,-1.0131 1.38564,-1.72841c0.23001,-0.89766 -0.15531,-1.84681 -0.23297,-2.77021c0,0 0,-5.42949 5.42949,-5.42949c5.42949,0 5.42949,5.42949 5.42949,5.42949c-0.07765,1.97233 0.24038,4.00072 -0.23297,5.91698c-0.32473,1.3146 -1.5564,2.23904 -2.08924,3.48391c-1.21734,2.84408 -2.22663,5.7779 -3.14019,8.7336c-1.32027,4.27157 -2.08594,8.70395 -3.45335,12.96066c-0.86688,2.69858 -1.96399,5.32774 -2.80144,8.03331c1.31468,-0.7253 2.70164,-1.34748 4.17152,-1.84547c1.12265,-0.38035 2.37086,-0.05499 3.55335,-0.13694c3.09488,-0.21447 6.22439,-1.30817 9.27646,-0.75216c2.44945,0.44623 4.54576,2.12368 6.52723,3.63122c10.21373,7.77082 10.8196,20.77144 7.00655,32.1032c-1.84889,5.49459 -5.82464,9.77116 -5.88512,15.77035c-0.8454,2.10191 -1.37373,4.36115 -2.5362,6.30573c-0.81732,1.36721 -2.19979,2.30433 -3.29969,3.4565l-1.73744,1.73744c0,0 -3.83923,3.83923 -7.67846,0z"/><path d="M381.70257,172.57027c0,-4.34095 3.47063,-5.21125 4.86228,-5.38574c-0.16505,-0.2164 -0.47313,-0.45081 -0.44857,-0.69628c0.09117,-0.91116 0.78488,-1.69429 0.86872,-2.60616c0.18556,-2.0183 -0.05753,-4.05327 -0.07011,-6.08004c-0.05573,-8.97584 0,-17.95439 0,-26.93029c0,-5.03944 0.20844,-8.14187 -0.76328,-12.8347c0,0 -1.06481,-5.32406 4.25925,-6.38887c5.32406,-1.06481 6.38887,4.25925 6.38887,4.25925c1.99546,10.26097 0.97416,21.04875 0.97416,31.46998c0,6.99294 0.4379,14.05526 -0.93883,20.85025c-0.27766,1.37044 0.25233,2.98792 -0.5031,4.16459c-1.22383,1.90628 -3.38231,3.01441 -5.07347,4.52161l-4.12642,1.0859c0,0 -5.42949,0 -5.42949,-5.42949zM386.65802,167.35625l-1.91493,0.87043c0.62543,-0.23024 1.46318,-0.16772 1.87629,-0.69071c0.04581,-0.058 0.05443,-0.11797 0.03865,-0.17972z"/><path d="M385.17745,82.22349c0,-2.99863 2.43087,-5.42949 5.42949,-5.42949c2.99863,0 5.42949,2.43087 5.42949,5.42949c0,2.99863 -2.43087,5.42949 -5.42949,5.42949c-2.99863,0 -5.42949,-2.43087 -5.42949,-5.42949z"/><path d=""/><path d=""/><path d=""/><path d=""/></g></g></svg>